<?xml version="1.0" encoding="utf-8" standalone="no"?>
<!DOCTYPE svg PUBLIC "-//W3C//DTD SVG 1.1//EN"
  "http://www.w3.org/Graphics/SVG/1.1/DTD/svg11.dtd">
<svg xmlns:xlink="http://www.w3.org/1999/xlink" width="368.39952pt" height="224.39952pt" viewBox="0 0 368.39952 224.39952" xmlns="http://www.w3.org/2000/svg" version="1.1">
 <metadata>
  <rdf:RDF xmlns:dc="http://purl.org/dc/elements/1.1/" xmlns:cc="http://creativecommons.org/ns#" xmlns:rdf="http://www.w3.org/1999/02/22-rdf-syntax-ns#">
   <cc:Work>
    <dc:type rdf:resource="http://purl.org/dc/dcmitype/StillImage"/>
    <dc:date>2025-11-28T18:51:31.409445</dc:date>
    <dc:format>image/svg+xml</dc:format>
    <dc:creator>
     <cc:Agent>
      <dc:title>Matplotlib v3.10.5, https://matplotlib.org/</dc:title>
     </cc:Agent>
    </dc:creator>
   </cc:Work>
  </rdf:RDF>
 </metadata>
 <defs>
  <style type="text/css">*{stroke-linejoin: round; stroke-linecap: butt}</style>
 </defs>
 <g id="figure_1">
  <g id="patch_1">
   <path d="M 0 224.39952 
L 368.39952 224.39952 
L 368.39952 0 
L 0 0 
L 0 224.39952 
z
" style="fill: none"/>
  </g>
  <g id="axes_1">
   <g id="patch_2">
    <path d="M 37.9625 186.84327 
L 350.89952 186.84327 
L 350.89952 7.2 
L 37.9625 7.2 
L 37.9625 186.84327 
z
" style="fill: none"/>
   </g>
   <g id="matplotlib.axis_1">
    <g id="xtick_1">
     <g id="line2d_1">
      <defs>
       <path id="m5ada27cbbe" d="M 0 0 
L 0 3.5 
" style="stroke: #000000; stroke-width: 0.8"/>
      </defs>
      <g>
       <use xlink:href="#m5ada27cbbe" x="37.9625" y="186.84327" style="stroke: #000000; stroke-width: 0.8"/>
      </g>
     </g>
     <g id="text_1">
      <!-- 0 -->
      <g transform="translate(34.78125 201.441708) scale(0.1 -0.1)">
       <defs>
        <path id="DejaVuSans-30" d="M 2034 4250 
Q 1547 4250 1301 3770 
Q 1056 3291 1056 2328 
Q 1056 1369 1301 889 
Q 1547 409 2034 409 
Q 2525 409 2770 889 
Q 3016 1369 3016 2328 
Q 3016 3291 2770 3770 
Q 2525 4250 2034 4250 
z
M 2034 4750 
Q 2819 4750 3233 4129 
Q 3647 3509 3647 2328 
Q 3647 1150 3233 529 
Q 2819 -91 2034 -91 
Q 1250 -91 836 529 
Q 422 1150 422 2328 
Q 422 3509 836 4129 
Q 1250 4750 2034 4750 
z
" transform="scale(0.015625)"/>
       </defs>
       <use xlink:href="#DejaVuSans-30"/>
      </g>
     </g>
    </g>
    <g id="xtick_2">
     <g id="line2d_2">
      <g>
       <use xlink:href="#m5ada27cbbe" x="116.196755" y="186.84327" style="stroke: #000000; stroke-width: 0.8"/>
      </g>
     </g>
     <g id="text_2">
      <!-- $R^*$ -->
      <g transform="translate(109.096755 201.441708) scale(0.1 -0.1)">
       <defs>
        <path id="DejaVuSans-Oblique-52" d="M 1613 4147 
L 1294 2491 
L 2106 2491 
Q 2584 2491 2879 2755 
Q 3175 3019 3175 3444 
Q 3175 3784 2976 3965 
Q 2778 4147 2406 4147 
L 1613 4147 
z
M 2772 2241 
Q 2972 2194 3105 2009 
Q 3238 1825 3413 1275 
L 3809 0 
L 3144 0 
L 2778 1197 
Q 2638 1659 2453 1815 
Q 2269 1972 1888 1972 
L 1191 1972 
L 806 0 
L 172 0 
L 1081 4666 
L 2503 4666 
Q 3150 4666 3495 4373 
Q 3841 4081 3841 3531 
Q 3841 3044 3547 2687 
Q 3253 2331 2772 2241 
z
" transform="scale(0.015625)"/>
        <path id="DejaVuSans-2a" d="M 3009 3897 
L 1888 3291 
L 3009 2681 
L 2828 2375 
L 1778 3009 
L 1778 1831 
L 1422 1831 
L 1422 3009 
L 372 2375 
L 191 2681 
L 1313 3291 
L 191 3897 
L 372 4206 
L 1422 3572 
L 1422 4750 
L 1778 4750 
L 1778 3572 
L 2828 4206 
L 3009 3897 
z
" transform="scale(0.015625)"/>
       </defs>
       <use xlink:href="#DejaVuSans-Oblique-52" transform="translate(0 0.765625)"/>
       <use xlink:href="#DejaVuSans-2a" transform="translate(90.136888 39.046875) scale(0.7)"/>
      </g>
     </g>
    </g>
    <g id="xtick_3">
     <g id="line2d_3">
      <g>
       <use xlink:href="#m5ada27cbbe" x="194.43101" y="186.84327" style="stroke: #000000; stroke-width: 0.8"/>
      </g>
     </g>
     <g id="text_3">
      <!-- $2R^*$ -->
      <g transform="translate(184.13101 201.441708) scale(0.1 -0.1)">
       <defs>
        <path id="DejaVuSans-32" d="M 1228 531 
L 3431 531 
L 3431 0 
L 469 0 
L 469 531 
Q 828 903 1448 1529 
Q 2069 2156 2228 2338 
Q 2531 2678 2651 2914 
Q 2772 3150 2772 3378 
Q 2772 3750 2511 3984 
Q 2250 4219 1831 4219 
Q 1534 4219 1204 4116 
Q 875 4013 500 3803 
L 500 4441 
Q 881 4594 1212 4672 
Q 1544 4750 1819 4750 
Q 2544 4750 2975 4387 
Q 3406 4025 3406 3419 
Q 3406 3131 3298 2873 
Q 3191 2616 2906 2266 
Q 2828 2175 2409 1742 
Q 1991 1309 1228 531 
z
" transform="scale(0.015625)"/>
       </defs>
       <use xlink:href="#DejaVuSans-32" transform="translate(0 0.765625)"/>
       <use xlink:href="#DejaVuSans-Oblique-52" transform="translate(63.623047 0.765625)"/>
       <use xlink:href="#DejaVuSans-2a" transform="translate(153.759935 39.046875) scale(0.7)"/>
      </g>
     </g>
    </g>
    <g id="xtick_4">
     <g id="line2d_4">
      <g>
       <use xlink:href="#m5ada27cbbe" x="272.665265" y="186.84327" style="stroke: #000000; stroke-width: 0.8"/>
      </g>
     </g>
     <g id="text_4">
      <!-- $3R^*$ -->
      <g transform="translate(262.365265 201.441708) scale(0.1 -0.1)">
       <defs>
        <path id="DejaVuSans-33" d="M 2597 2516 
Q 3050 2419 3304 2112 
Q 3559 1806 3559 1356 
Q 3559 666 3084 287 
Q 2609 -91 1734 -91 
Q 1441 -91 1130 -33 
Q 819 25 488 141 
L 488 750 
Q 750 597 1062 519 
Q 1375 441 1716 441 
Q 2309 441 2620 675 
Q 2931 909 2931 1356 
Q 2931 1769 2642 2001 
Q 2353 2234 1838 2234 
L 1294 2234 
L 1294 2753 
L 1863 2753 
Q 2328 2753 2575 2939 
Q 2822 3125 2822 3475 
Q 2822 3834 2567 4026 
Q 2313 4219 1838 4219 
Q 1578 4219 1281 4162 
Q 984 4106 628 3988 
L 628 4550 
Q 988 4650 1302 4700 
Q 1616 4750 1894 4750 
Q 2613 4750 3031 4423 
Q 3450 4097 3450 3541 
Q 3450 3153 3228 2886 
Q 3006 2619 2597 2516 
z
" transform="scale(0.015625)"/>
       </defs>
       <use xlink:href="#DejaVuSans-33" transform="translate(0 0.765625)"/>
       <use xlink:href="#DejaVuSans-Oblique-52" transform="translate(63.623047 0.765625)"/>
       <use xlink:href="#DejaVuSans-2a" transform="translate(153.759935 39.046875) scale(0.7)"/>
      </g>
     </g>
    </g>
    <g id="xtick_5">
     <g id="line2d_5">
      <g>
       <use xlink:href="#m5ada27cbbe" x="350.89952" y="186.84327" style="stroke: #000000; stroke-width: 0.8"/>
      </g>
     </g>
     <g id="text_5">
      <!-- $4R^*$ -->
      <g transform="translate(340.59952 201.441708) scale(0.1 -0.1)">
       <defs>
        <path id="DejaVuSans-34" d="M 2419 4116 
L 825 1625 
L 2419 1625 
L 2419 4116 
z
M 2253 4666 
L 3047 4666 
L 3047 1625 
L 3713 1625 
L 3713 1100 
L 3047 1100 
L 3047 0 
L 2419 0 
L 2419 1100 
L 313 1100 
L 313 1709 
L 2253 4666 
z
" transform="scale(0.015625)"/>
       </defs>
       <use xlink:href="#DejaVuSans-34" transform="translate(0 0.765625)"/>
       <use xlink:href="#DejaVuSans-Oblique-52" transform="translate(63.623047 0.765625)"/>
       <use xlink:href="#DejaVuSans-2a" transform="translate(153.759935 39.046875) scale(0.7)"/>
      </g>
     </g>
    </g>
    <g id="text_6">
     <!-- $R$ -->
     <g transform="translate(190.93101 215.119833) scale(0.1 -0.1)">
      <use xlink:href="#DejaVuSans-Oblique-52" transform="translate(0 0.09375)"/>
     </g>
    </g>
   </g>
   <g id="matplotlib.axis_2">
    <g id="ytick_1">
     <g id="line2d_6">
      <defs>
       <path id="m756116ab86" d="M 0 0 
L -3.5 0 
" style="stroke: #000000; stroke-width: 0.8"/>
      </defs>
      <g>
       <use xlink:href="#m756116ab86" x="37.9625" y="177.091537" style="stroke: #000000; stroke-width: 0.8"/>
      </g>
     </g>
     <g id="text_7">
      <!-- 0 -->
      <g transform="translate(24.6 180.890756) scale(0.1 -0.1)">
       <use xlink:href="#DejaVuSans-30"/>
      </g>
     </g>
    </g>
    <g id="ytick_2">
     <g id="line2d_7">
      <g>
       <use xlink:href="#m756116ab86" x="37.9625" y="27.501452" style="stroke: #000000; stroke-width: 0.8"/>
      </g>
     </g>
     <g id="text_8">
      <!-- 1 -->
      <g transform="translate(24.6 31.300671) scale(0.1 -0.1)">
       <defs>
        <path id="DejaVuSans-31" d="M 794 531 
L 1825 531 
L 1825 4091 
L 703 3866 
L 703 4441 
L 1819 4666 
L 2450 4666 
L 2450 531 
L 3481 531 
L 3481 0 
L 794 0 
L 794 531 
z
" transform="scale(0.015625)"/>
       </defs>
       <use xlink:href="#DejaVuSans-31"/>
      </g>
     </g>
    </g>
    <g id="text_9">
     <!-- $\hat{\text{I}}_\text{KSG} (X;Y \, | \, r&lt;R)$ (nats) -->
     <g transform="translate(18.2 150.221635) rotate(-90) scale(0.1 -0.1)">
      <defs>
       <path id="DejaVuSans-302" d="M -1831 5119 
L -1369 5119 
L -603 3944 
L -1038 3944 
L -1600 4709 
L -2163 3944 
L -2597 3944 
L -1831 5119 
z
M -1600 3584 
L -1600 3584 
z
" transform="scale(0.015625)"/>
       <path id="DejaVuSans-49" d="M 628 4666 
L 1259 4666 
L 1259 0 
L 628 0 
L 628 4666 
z
" transform="scale(0.015625)"/>
       <path id="DejaVuSans-4b" d="M 628 4666 
L 1259 4666 
L 1259 2694 
L 3353 4666 
L 4166 4666 
L 1850 2491 
L 4331 0 
L 3500 0 
L 1259 2247 
L 1259 0 
L 628 0 
L 628 4666 
z
" transform="scale(0.015625)"/>
       <path id="DejaVuSans-53" d="M 3425 4513 
L 3425 3897 
Q 3066 4069 2747 4153 
Q 2428 4238 2131 4238 
Q 1616 4238 1336 4038 
Q 1056 3838 1056 3469 
Q 1056 3159 1242 3001 
Q 1428 2844 1947 2747 
L 2328 2669 
Q 3034 2534 3370 2195 
Q 3706 1856 3706 1288 
Q 3706 609 3251 259 
Q 2797 -91 1919 -91 
Q 1588 -91 1214 -16 
Q 841 59 441 206 
L 441 856 
Q 825 641 1194 531 
Q 1563 422 1919 422 
Q 2459 422 2753 634 
Q 3047 847 3047 1241 
Q 3047 1584 2836 1778 
Q 2625 1972 2144 2069 
L 1759 2144 
Q 1053 2284 737 2584 
Q 422 2884 422 3419 
Q 422 4038 858 4394 
Q 1294 4750 2059 4750 
Q 2388 4750 2728 4690 
Q 3069 4631 3425 4513 
z
" transform="scale(0.015625)"/>
       <path id="DejaVuSans-47" d="M 3809 666 
L 3809 1919 
L 2778 1919 
L 2778 2438 
L 4434 2438 
L 4434 434 
Q 4069 175 3628 42 
Q 3188 -91 2688 -91 
Q 1594 -91 976 548 
Q 359 1188 359 2328 
Q 359 3472 976 4111 
Q 1594 4750 2688 4750 
Q 3144 4750 3555 4637 
Q 3966 4525 4313 4306 
L 4313 3634 
Q 3963 3931 3569 4081 
Q 3175 4231 2741 4231 
Q 1884 4231 1454 3753 
Q 1025 3275 1025 2328 
Q 1025 1384 1454 906 
Q 1884 428 2741 428 
Q 3075 428 3337 486 
Q 3600 544 3809 666 
z
" transform="scale(0.015625)"/>
       <path id="DejaVuSans-28" d="M 1984 4856 
Q 1566 4138 1362 3434 
Q 1159 2731 1159 2009 
Q 1159 1288 1364 580 
Q 1569 -128 1984 -844 
L 1484 -844 
Q 1016 -109 783 600 
Q 550 1309 550 2009 
Q 550 2706 781 3412 
Q 1013 4119 1484 4856 
L 1984 4856 
z
" transform="scale(0.015625)"/>
       <path id="DejaVuSans-Oblique-58" d="M 878 4666 
L 1516 4666 
L 2316 2981 
L 3763 4666 
L 4500 4666 
L 2578 2438 
L 3738 0 
L 3103 0 
L 2163 1966 
L 459 0 
L -275 0 
L 1906 2509 
L 878 4666 
z
" transform="scale(0.015625)"/>
       <path id="DejaVuSans-3b" d="M 750 3309 
L 1409 3309 
L 1409 2516 
L 750 2516 
L 750 3309 
z
M 750 794 
L 1409 794 
L 1409 256 
L 897 -744 
L 494 -744 
L 750 256 
L 750 794 
z
" transform="scale(0.015625)"/>
       <path id="DejaVuSans-Oblique-59" d="M 403 4666 
L 1081 4666 
L 1953 2747 
L 3616 4666 
L 4325 4666 
L 2209 2222 
L 1778 0 
L 1147 0 
L 1575 2222 
L 403 4666 
z
" transform="scale(0.015625)"/>
       <path id="DejaVuSans-7c" d="M 1344 4891 
L 1344 -1509 
L 813 -1509 
L 813 4891 
L 1344 4891 
z
" transform="scale(0.015625)"/>
       <path id="DejaVuSans-Oblique-72" d="M 2853 2969 
Q 2766 3016 2653 3041 
Q 2541 3066 2413 3066 
Q 1953 3066 1609 2717 
Q 1266 2369 1153 1784 
L 800 0 
L 225 0 
L 909 3500 
L 1484 3500 
L 1375 2956 
Q 1603 3259 1920 3421 
Q 2238 3584 2597 3584 
Q 2691 3584 2781 3573 
Q 2872 3563 2963 3538 
L 2853 2969 
z
" transform="scale(0.015625)"/>
       <path id="DejaVuSans-3c" d="M 4684 3150 
L 1459 2003 
L 4684 863 
L 4684 294 
L 678 1747 
L 678 2266 
L 4684 3719 
L 4684 3150 
z
" transform="scale(0.015625)"/>
       <path id="DejaVuSans-29" d="M 513 4856 
L 1013 4856 
Q 1481 4119 1714 3412 
Q 1947 2706 1947 2009 
Q 1947 1309 1714 600 
Q 1481 -109 1013 -844 
L 513 -844 
Q 928 -128 1133 580 
Q 1338 1288 1338 2009 
Q 1338 2731 1133 3434 
Q 928 4138 513 4856 
z
" transform="scale(0.015625)"/>
       <path id="DejaVuSans-20" transform="scale(0.015625)"/>
       <path id="DejaVuSans-6e" d="M 3513 2113 
L 3513 0 
L 2938 0 
L 2938 2094 
Q 2938 2591 2744 2837 
Q 2550 3084 2163 3084 
Q 1697 3084 1428 2787 
Q 1159 2491 1159 1978 
L 1159 0 
L 581 0 
L 581 3500 
L 1159 3500 
L 1159 2956 
Q 1366 3272 1645 3428 
Q 1925 3584 2291 3584 
Q 2894 3584 3203 3211 
Q 3513 2838 3513 2113 
z
" transform="scale(0.015625)"/>
       <path id="DejaVuSans-61" d="M 2194 1759 
Q 1497 1759 1228 1600 
Q 959 1441 959 1056 
Q 959 750 1161 570 
Q 1363 391 1709 391 
Q 2188 391 2477 730 
Q 2766 1069 2766 1631 
L 2766 1759 
L 2194 1759 
z
M 3341 1997 
L 3341 0 
L 2766 0 
L 2766 531 
Q 2569 213 2275 61 
Q 1981 -91 1556 -91 
Q 1019 -91 701 211 
Q 384 513 384 1019 
Q 384 1609 779 1909 
Q 1175 2209 1959 2209 
L 2766 2209 
L 2766 2266 
Q 2766 2663 2505 2880 
Q 2244 3097 1772 3097 
Q 1472 3097 1187 3025 
Q 903 2953 641 2809 
L 641 3341 
Q 956 3463 1253 3523 
Q 1550 3584 1831 3584 
Q 2591 3584 2966 3190 
Q 3341 2797 3341 1997 
z
" transform="scale(0.015625)"/>
       <path id="DejaVuSans-74" d="M 1172 4494 
L 1172 3500 
L 2356 3500 
L 2356 3053 
L 1172 3053 
L 1172 1153 
Q 1172 725 1289 603 
Q 1406 481 1766 481 
L 2356 481 
L 2356 0 
L 1766 0 
Q 1100 0 847 248 
Q 594 497 594 1153 
L 594 3053 
L 172 3053 
L 172 3500 
L 594 3500 
L 594 4494 
L 1172 4494 
z
" transform="scale(0.015625)"/>
       <path id="DejaVuSans-73" d="M 2834 3397 
L 2834 2853 
Q 2591 2978 2328 3040 
Q 2066 3103 1784 3103 
Q 1356 3103 1142 2972 
Q 928 2841 928 2578 
Q 928 2378 1081 2264 
Q 1234 2150 1697 2047 
L 1894 2003 
Q 2506 1872 2764 1633 
Q 3022 1394 3022 966 
Q 3022 478 2636 193 
Q 2250 -91 1575 -91 
Q 1294 -91 989 -36 
Q 684 19 347 128 
L 347 722 
Q 666 556 975 473 
Q 1284 391 1588 391 
Q 1994 391 2212 530 
Q 2431 669 2431 922 
Q 2431 1156 2273 1281 
Q 2116 1406 1581 1522 
L 1381 1569 
Q 847 1681 609 1914 
Q 372 2147 372 2553 
Q 372 3047 722 3315 
Q 1072 3584 1716 3584 
Q 2034 3584 2315 3537 
Q 2597 3491 2834 3397 
z
" transform="scale(0.015625)"/>
      </defs>
      <use xlink:href="#DejaVuSans-302" transform="translate(42.951172 30.015625)"/>
      <use xlink:href="#DejaVuSans-49" transform="translate(0 0.609375)"/>
      <use xlink:href="#DejaVuSans-4b" transform="translate(30.449219 -15.796875) scale(0.7)"/>
      <use xlink:href="#DejaVuSans-53" transform="translate(76.352539 -15.796875) scale(0.7)"/>
      <use xlink:href="#DejaVuSans-47" transform="translate(120.786133 -15.796875) scale(0.7)"/>
      <use xlink:href="#DejaVuSans-28" transform="translate(177.763672 0.609375)"/>
      <use xlink:href="#DejaVuSans-Oblique-58" transform="translate(216.777344 0.609375)"/>
      <use xlink:href="#DejaVuSans-3b" transform="translate(285.283203 0.609375)"/>
      <use xlink:href="#DejaVuSans-Oblique-59" transform="translate(338.457031 0.609375)"/>
      <use xlink:href="#DejaVuSans-7c" transform="translate(415.776692 0.609375)"/>
      <use xlink:href="#DejaVuSans-Oblique-72" transform="translate(465.703774 0.609375)"/>
      <use xlink:href="#DejaVuSans-3c" transform="translate(526.299478 0.609375)"/>
      <use xlink:href="#DejaVuSans-Oblique-52" transform="translate(629.570962 0.609375)"/>
      <use xlink:href="#DejaVuSans-29" transform="translate(699.053384 0.609375)"/>
      <use xlink:href="#DejaVuSans-20" transform="translate(738.067056 0.609375)"/>
      <use xlink:href="#DejaVuSans-28" transform="translate(769.854165 0.609375)"/>
      <use xlink:href="#DejaVuSans-6e" transform="translate(808.867837 0.609375)"/>
      <use xlink:href="#DejaVuSans-61" transform="translate(872.246743 0.609375)"/>
      <use xlink:href="#DejaVuSans-74" transform="translate(933.52604 0.609375)"/>
      <use xlink:href="#DejaVuSans-73" transform="translate(972.735024 0.609375)"/>
      <use xlink:href="#DejaVuSans-29" transform="translate(1024.834634 0.609375)"/>
     </g>
    </g>
   </g>
   <g id="line2d_8">
    <path d="M 43.9625 27.501452 
L 43.9625 31.101452 
M 56.209157 27.501452 
L 56.209157 31.101452 
M 68.455814 27.501452 
L 68.455814 31.101452 
M 80.702471 27.501452 
L 80.702471 31.101452 
M 92.949127 27.501452 
L 92.949127 31.101452 
M 105.195784 27.501452 
L 105.195784 31.101452 
M 116.643595 28.664237 
L 113.283179 29.955593 
M 121.036595 40.095866 
L 117.676178 41.387223 
M 125.429594 51.527496 
L 122.069178 52.818852 
M 129.822594 62.959126 
L 126.462178 64.250482 
M 134.215594 74.390756 
L 130.855177 75.682112 
M 138.608593 85.822385 
L 135.248177 87.113742 
M 145.385403 95.905775 
L 142.547112 98.120296 
M 152.918869 105.561214 
L 150.080577 107.775735 
M 160.452335 115.216652 
L 157.614043 117.431173 
M 169.521142 123.280744 
L 167.409689 126.196523 
M 179.440182 130.463587 
L 177.32873 133.379367 
M 189.707222 137.044587 
L 188.233514 140.329124 
M 200.880723 142.057918 
L 199.407015 145.342456 
M 212.154346 146.801384 
L 211.129131 150.252316 
M 223.893898 150.289009 
L 222.868683 153.739942 
M 235.678444 153.597706 
L 234.949334 157.1231 
M 247.6713 156.07803 
L 246.94219 159.603423 
M 259.690361 158.411248 
L 259.157264 161.971558 
M 271.801999 160.224764 
L 271.268902 163.785074 
M 283.930346 161.910491 
L 283.530088 165.488171 
M 296.101073 163.272106 
L 295.700816 166.849786 
M 308.282827 164.522133 
L 307.975137 168.10896 
M 320.484671 165.568848 
L 320.176981 169.155675 
M 332.693943 166.518449 
L 332.45251 170.110344 
M 344.913028 167.339768 
L 344.671595 170.931663 
" clip-path="url(#p0768186101)" style="fill: none; stroke-dasharray: 10,2; stroke-dashoffset: 0; stroke: #000000"/>
    <path d="M 37.9625 27.501452 
L 53.609351 27.501452 
L 69.256202 27.501452 
L 84.903053 27.501452 
L 100.549904 27.501452 
L 116.196755 27.501452 
L 139.667032 88.576694 
L 163.137308 118.65791 
L 186.607584 135.65384 
L 210.077861 146.184495 
L 233.548137 153.157123 
L 257.018414 158.011169 
L 280.48869 161.525451 
L 303.958967 164.151218 
L 327.429243 166.164577 
L 350.89952 167.742157 
" clip-path="url(#p0768186101)" style="fill: none; stroke-dasharray: 10,2; stroke-dashoffset: 0; stroke: #000000"/>
   </g>
   <g id="line2d_9">
    <path d="M 37.9625 177.091537 
L 350.89952 177.091537 
" clip-path="url(#p0768186101)" style="fill: none; stroke-dasharray: 3.7,1.6; stroke-dashoffset: 0; stroke: #000000; stroke-opacity: 0.5"/>
   </g>
   <g id="line2d_10">
    <path d="M 116.196755 186.84327 
L 116.196755 7.2 
" clip-path="url(#p0768186101)" style="fill: none; stroke-dasharray: 3.7,1.6; stroke-dashoffset: 0; stroke: #000000; stroke-opacity: 0.5"/>
   </g>
   <g id="LineCollection_1">
    <path d="M 53.609351 177.091537 
L 53.609351 177.091537 
" clip-path="url(#p0768186101)" style="fill: none; stroke: #1f77b4; stroke-width: 1.5"/>
    <path d="M 69.256202 177.091537 
L 69.256202 177.091537 
" clip-path="url(#p0768186101)" style="fill: none; stroke: #1f77b4; stroke-width: 1.5"/>
    <path d="M 84.903053 132.012911 
L 84.903053 37.915938 
" clip-path="url(#p0768186101)" style="fill: none; stroke: #1f77b4; stroke-width: 1.5"/>
    <path d="M 100.549904 49.360214 
L 100.549904 43.701127 
" clip-path="url(#p0768186101)" style="fill: none; stroke: #1f77b4; stroke-width: 1.5"/>
    <path d="M 116.196755 25.476983 
L 116.196755 15.365603 
" clip-path="url(#p0768186101)" style="fill: none; stroke: #1f77b4; stroke-width: 1.5"/>
    <path d="M 139.667032 131.46404 
L 139.667032 117.598362 
" clip-path="url(#p0768186101)" style="fill: none; stroke: #1f77b4; stroke-width: 1.5"/>
    <path d="M 163.137308 160.117557 
L 163.137308 150.771999 
" clip-path="url(#p0768186101)" style="fill: none; stroke: #1f77b4; stroke-width: 1.5"/>
    <path d="M 186.607584 172.635513 
L 186.607584 165.718398 
" clip-path="url(#p0768186101)" style="fill: none; stroke: #1f77b4; stroke-width: 1.5"/>
    <path d="M 210.077861 171.655559 
L 210.077861 166.561071 
" clip-path="url(#p0768186101)" style="fill: none; stroke: #1f77b4; stroke-width: 1.5"/>
    <path d="M 233.548137 175.11509 
L 233.548137 169.963759 
" clip-path="url(#p0768186101)" style="fill: none; stroke: #1f77b4; stroke-width: 1.5"/>
    <path d="M 257.018414 178.006974 
L 257.018414 174.801319 
" clip-path="url(#p0768186101)" style="fill: none; stroke: #1f77b4; stroke-width: 1.5"/>
    <path d="M 280.48869 174.903636 
L 280.48869 171.737152 
" clip-path="url(#p0768186101)" style="fill: none; stroke: #1f77b4; stroke-width: 1.5"/>
    <path d="M 303.958967 174.96197 
L 303.958967 172.443023 
" clip-path="url(#p0768186101)" style="fill: none; stroke: #1f77b4; stroke-width: 1.5"/>
    <path d="M 327.429243 178.677667 
L 327.429243 175.712962 
" clip-path="url(#p0768186101)" style="fill: none; stroke: #1f77b4; stroke-width: 1.5"/>
    <path d="M 350.89952 177.49921 
L 350.89952 174.276623 
" clip-path="url(#p0768186101)" style="fill: none; stroke: #1f77b4; stroke-width: 1.5"/>
   </g>
   <g id="line2d_11">
    <defs>
     <path id="ma393308a1f" d="M 2 0 
L -2 -0 
" style="stroke: #1f77b4"/>
    </defs>
    <g clip-path="url(#p0768186101)">
     <use xlink:href="#ma393308a1f" x="53.609351" y="177.091537" style="fill: #1f77b4; stroke: #1f77b4"/>
     <use xlink:href="#ma393308a1f" x="69.256202" y="177.091537" style="fill: #1f77b4; stroke: #1f77b4"/>
     <use xlink:href="#ma393308a1f" x="84.903053" y="132.012911" style="fill: #1f77b4; stroke: #1f77b4"/>
     <use xlink:href="#ma393308a1f" x="100.549904" y="49.360214" style="fill: #1f77b4; stroke: #1f77b4"/>
     <use xlink:href="#ma393308a1f" x="116.196755" y="25.476983" style="fill: #1f77b4; stroke: #1f77b4"/>
     <use xlink:href="#ma393308a1f" x="139.667032" y="131.46404" style="fill: #1f77b4; stroke: #1f77b4"/>
     <use xlink:href="#ma393308a1f" x="163.137308" y="160.117557" style="fill: #1f77b4; stroke: #1f77b4"/>
     <use xlink:href="#ma393308a1f" x="186.607584" y="172.635513" style="fill: #1f77b4; stroke: #1f77b4"/>
     <use xlink:href="#ma393308a1f" x="210.077861" y="171.655559" style="fill: #1f77b4; stroke: #1f77b4"/>
     <use xlink:href="#ma393308a1f" x="233.548137" y="175.11509" style="fill: #1f77b4; stroke: #1f77b4"/>
     <use xlink:href="#ma393308a1f" x="257.018414" y="178.006974" style="fill: #1f77b4; stroke: #1f77b4"/>
     <use xlink:href="#ma393308a1f" x="280.48869" y="174.903636" style="fill: #1f77b4; stroke: #1f77b4"/>
     <use xlink:href="#ma393308a1f" x="303.958967" y="174.96197" style="fill: #1f77b4; stroke: #1f77b4"/>
     <use xlink:href="#ma393308a1f" x="327.429243" y="178.677667" style="fill: #1f77b4; stroke: #1f77b4"/>
     <use xlink:href="#ma393308a1f" x="350.89952" y="177.49921" style="fill: #1f77b4; stroke: #1f77b4"/>
    </g>
   </g>
   <g id="line2d_12">
    <g clip-path="url(#p0768186101)">
     <use xlink:href="#ma393308a1f" x="53.609351" y="177.091537" style="fill: #1f77b4; stroke: #1f77b4"/>
     <use xlink:href="#ma393308a1f" x="69.256202" y="177.091537" style="fill: #1f77b4; stroke: #1f77b4"/>
     <use xlink:href="#ma393308a1f" x="84.903053" y="37.915938" style="fill: #1f77b4; stroke: #1f77b4"/>
     <use xlink:href="#ma393308a1f" x="100.549904" y="43.701127" style="fill: #1f77b4; stroke: #1f77b4"/>
     <use xlink:href="#ma393308a1f" x="116.196755" y="15.365603" style="fill: #1f77b4; stroke: #1f77b4"/>
     <use xlink:href="#ma393308a1f" x="139.667032" y="117.598362" style="fill: #1f77b4; stroke: #1f77b4"/>
     <use xlink:href="#ma393308a1f" x="163.137308" y="150.771999" style="fill: #1f77b4; stroke: #1f77b4"/>
     <use xlink:href="#ma393308a1f" x="186.607584" y="165.718398" style="fill: #1f77b4; stroke: #1f77b4"/>
     <use xlink:href="#ma393308a1f" x="210.077861" y="166.561071" style="fill: #1f77b4; stroke: #1f77b4"/>
     <use xlink:href="#ma393308a1f" x="233.548137" y="169.963759" style="fill: #1f77b4; stroke: #1f77b4"/>
     <use xlink:href="#ma393308a1f" x="257.018414" y="174.801319" style="fill: #1f77b4; stroke: #1f77b4"/>
     <use xlink:href="#ma393308a1f" x="280.48869" y="171.737152" style="fill: #1f77b4; stroke: #1f77b4"/>
     <use xlink:href="#ma393308a1f" x="303.958967" y="172.443023" style="fill: #1f77b4; stroke: #1f77b4"/>
     <use xlink:href="#ma393308a1f" x="327.429243" y="175.712962" style="fill: #1f77b4; stroke: #1f77b4"/>
     <use xlink:href="#ma393308a1f" x="350.89952" y="174.276623" style="fill: #1f77b4; stroke: #1f77b4"/>
    </g>
   </g>
   <g id="LineCollection_2">
    <path d="M 53.609351 59.613215 
L 53.609351 58.341944 
" clip-path="url(#p0768186101)" style="fill: none; stroke: #ff7f0e; stroke-width: 1.5"/>
    <path d="M 69.256202 32.209135 
L 69.256202 22.050446 
" clip-path="url(#p0768186101)" style="fill: none; stroke: #ff7f0e; stroke-width: 1.5"/>
    <path d="M 84.903053 36.903918 
L 84.903053 25.111027 
" clip-path="url(#p0768186101)" style="fill: none; stroke: #ff7f0e; stroke-width: 1.5"/>
    <path d="M 100.549904 23.47897 
L 100.549904 15.461119 
" clip-path="url(#p0768186101)" style="fill: none; stroke: #ff7f0e; stroke-width: 1.5"/>
    <path d="M 116.196755 28.331106 
L 116.196755 19.10449 
" clip-path="url(#p0768186101)" style="fill: none; stroke: #ff7f0e; stroke-width: 1.5"/>
    <path d="M 139.667032 128.365163 
L 139.667032 122.460284 
" clip-path="url(#p0768186101)" style="fill: none; stroke: #ff7f0e; stroke-width: 1.5"/>
    <path d="M 163.137308 152.574885 
L 163.137308 148.087957 
" clip-path="url(#p0768186101)" style="fill: none; stroke: #ff7f0e; stroke-width: 1.5"/>
    <path d="M 186.607584 165.003659 
L 186.607584 162.337846 
" clip-path="url(#p0768186101)" style="fill: none; stroke: #ff7f0e; stroke-width: 1.5"/>
    <path d="M 210.077861 169.802435 
L 210.077861 167.586882 
" clip-path="url(#p0768186101)" style="fill: none; stroke: #ff7f0e; stroke-width: 1.5"/>
    <path d="M 233.548137 173.512153 
L 233.548137 171.478354 
" clip-path="url(#p0768186101)" style="fill: none; stroke: #ff7f0e; stroke-width: 1.5"/>
    <path d="M 257.018414 175.0071 
L 257.018414 173.398486 
" clip-path="url(#p0768186101)" style="fill: none; stroke: #ff7f0e; stroke-width: 1.5"/>
    <path d="M 280.48869 175.197096 
L 280.48869 174.315852 
" clip-path="url(#p0768186101)" style="fill: none; stroke: #ff7f0e; stroke-width: 1.5"/>
    <path d="M 303.958967 176.314343 
L 303.958967 174.992206 
" clip-path="url(#p0768186101)" style="fill: none; stroke: #ff7f0e; stroke-width: 1.5"/>
    <path d="M 327.429243 175.726729 
L 327.429243 174.779989 
" clip-path="url(#p0768186101)" style="fill: none; stroke: #ff7f0e; stroke-width: 1.5"/>
    <path d="M 350.89952 177.486314 
L 350.89952 176.790048 
" clip-path="url(#p0768186101)" style="fill: none; stroke: #ff7f0e; stroke-width: 1.5"/>
   </g>
   <g id="line2d_13">
    <defs>
     <path id="m19f25f5b77" d="M 2 0 
L -2 -0 
" style="stroke: #ff7f0e"/>
    </defs>
    <g clip-path="url(#p0768186101)">
     <use xlink:href="#m19f25f5b77" x="53.609351" y="59.613215" style="fill: #ff7f0e; stroke: #ff7f0e"/>
     <use xlink:href="#m19f25f5b77" x="69.256202" y="32.209135" style="fill: #ff7f0e; stroke: #ff7f0e"/>
     <use xlink:href="#m19f25f5b77" x="84.903053" y="36.903918" style="fill: #ff7f0e; stroke: #ff7f0e"/>
     <use xlink:href="#m19f25f5b77" x="100.549904" y="23.47897" style="fill: #ff7f0e; stroke: #ff7f0e"/>
     <use xlink:href="#m19f25f5b77" x="116.196755" y="28.331106" style="fill: #ff7f0e; stroke: #ff7f0e"/>
     <use xlink:href="#m19f25f5b77" x="139.667032" y="128.365163" style="fill: #ff7f0e; stroke: #ff7f0e"/>
     <use xlink:href="#m19f25f5b77" x="163.137308" y="152.574885" style="fill: #ff7f0e; stroke: #ff7f0e"/>
     <use xlink:href="#m19f25f5b77" x="186.607584" y="165.003659" style="fill: #ff7f0e; stroke: #ff7f0e"/>
     <use xlink:href="#m19f25f5b77" x="210.077861" y="169.802435" style="fill: #ff7f0e; stroke: #ff7f0e"/>
     <use xlink:href="#m19f25f5b77" x="233.548137" y="173.512153" style="fill: #ff7f0e; stroke: #ff7f0e"/>
     <use xlink:href="#m19f25f5b77" x="257.018414" y="175.0071" style="fill: #ff7f0e; stroke: #ff7f0e"/>
     <use xlink:href="#m19f25f5b77" x="280.48869" y="175.197096" style="fill: #ff7f0e; stroke: #ff7f0e"/>
     <use xlink:href="#m19f25f5b77" x="303.958967" y="176.314343" style="fill: #ff7f0e; stroke: #ff7f0e"/>
     <use xlink:href="#m19f25f5b77" x="327.429243" y="175.726729" style="fill: #ff7f0e; stroke: #ff7f0e"/>
     <use xlink:href="#m19f25f5b77" x="350.89952" y="177.486314" style="fill: #ff7f0e; stroke: #ff7f0e"/>
    </g>
   </g>
   <g id="line2d_14">
    <g clip-path="url(#p0768186101)">
     <use xlink:href="#m19f25f5b77" x="53.609351" y="58.341944" style="fill: #ff7f0e; stroke: #ff7f0e"/>
     <use xlink:href="#m19f25f5b77" x="69.256202" y="22.050446" style="fill: #ff7f0e; stroke: #ff7f0e"/>
     <use xlink:href="#m19f25f5b77" x="84.903053" y="25.111027" style="fill: #ff7f0e; stroke: #ff7f0e"/>
     <use xlink:href="#m19f25f5b77" x="100.549904" y="15.461119" style="fill: #ff7f0e; stroke: #ff7f0e"/>
     <use xlink:href="#m19f25f5b77" x="116.196755" y="19.10449" style="fill: #ff7f0e; stroke: #ff7f0e"/>
     <use xlink:href="#m19f25f5b77" x="139.667032" y="122.460284" style="fill: #ff7f0e; stroke: #ff7f0e"/>
     <use xlink:href="#m19f25f5b77" x="163.137308" y="148.087957" style="fill: #ff7f0e; stroke: #ff7f0e"/>
     <use xlink:href="#m19f25f5b77" x="186.607584" y="162.337846" style="fill: #ff7f0e; stroke: #ff7f0e"/>
     <use xlink:href="#m19f25f5b77" x="210.077861" y="167.586882" style="fill: #ff7f0e; stroke: #ff7f0e"/>
     <use xlink:href="#m19f25f5b77" x="233.548137" y="171.478354" style="fill: #ff7f0e; stroke: #ff7f0e"/>
     <use xlink:href="#m19f25f5b77" x="257.018414" y="173.398486" style="fill: #ff7f0e; stroke: #ff7f0e"/>
     <use xlink:href="#m19f25f5b77" x="280.48869" y="174.315852" style="fill: #ff7f0e; stroke: #ff7f0e"/>
     <use xlink:href="#m19f25f5b77" x="303.958967" y="174.992206" style="fill: #ff7f0e; stroke: #ff7f0e"/>
     <use xlink:href="#m19f25f5b77" x="327.429243" y="174.779989" style="fill: #ff7f0e; stroke: #ff7f0e"/>
     <use xlink:href="#m19f25f5b77" x="350.89952" y="176.790048" style="fill: #ff7f0e; stroke: #ff7f0e"/>
    </g>
   </g>
   <g id="LineCollection_3">
    <path d="M 53.609351 38.915792 
L 53.609351 26.590183 
" clip-path="url(#p0768186101)" style="fill: none; stroke: #2ca02c; stroke-width: 1.5"/>
    <path d="M 69.256202 26.680575 
L 69.256202 20.912997 
" clip-path="url(#p0768186101)" style="fill: none; stroke: #2ca02c; stroke-width: 1.5"/>
    <path d="M 84.903053 29.957058 
L 84.903053 26.26059 
" clip-path="url(#p0768186101)" style="fill: none; stroke: #2ca02c; stroke-width: 1.5"/>
    <path d="M 100.549904 30.034419 
L 100.549904 25.821005 
" clip-path="url(#p0768186101)" style="fill: none; stroke: #2ca02c; stroke-width: 1.5"/>
    <path d="M 116.196755 27.223547 
L 116.196755 25.063954 
" clip-path="url(#p0768186101)" style="fill: none; stroke: #2ca02c; stroke-width: 1.5"/>
    <path d="M 139.667032 126.554299 
L 139.667032 124.669763 
" clip-path="url(#p0768186101)" style="fill: none; stroke: #2ca02c; stroke-width: 1.5"/>
    <path d="M 163.137308 152.450627 
L 163.137308 151.16269 
" clip-path="url(#p0768186101)" style="fill: none; stroke: #2ca02c; stroke-width: 1.5"/>
    <path d="M 186.607584 164.531825 
L 186.607584 163.771681 
" clip-path="url(#p0768186101)" style="fill: none; stroke: #2ca02c; stroke-width: 1.5"/>
    <path d="M 210.077861 170.121458 
L 210.077861 169.403296 
" clip-path="url(#p0768186101)" style="fill: none; stroke: #2ca02c; stroke-width: 1.5"/>
    <path d="M 233.548137 172.925537 
L 233.548137 172.439088 
" clip-path="url(#p0768186101)" style="fill: none; stroke: #2ca02c; stroke-width: 1.5"/>
    <path d="M 257.018414 174.761602 
L 257.018414 174.220408 
" clip-path="url(#p0768186101)" style="fill: none; stroke: #2ca02c; stroke-width: 1.5"/>
    <path d="M 280.48869 175.345858 
L 280.48869 174.819459 
" clip-path="url(#p0768186101)" style="fill: none; stroke: #2ca02c; stroke-width: 1.5"/>
    <path d="M 303.958967 175.590108 
L 303.958967 175.236918 
" clip-path="url(#p0768186101)" style="fill: none; stroke: #2ca02c; stroke-width: 1.5"/>
    <path d="M 327.429243 176.129655 
L 327.429243 175.831958 
" clip-path="url(#p0768186101)" style="fill: none; stroke: #2ca02c; stroke-width: 1.5"/>
    <path d="M 350.89952 176.757575 
L 350.89952 176.362964 
" clip-path="url(#p0768186101)" style="fill: none; stroke: #2ca02c; stroke-width: 1.5"/>
   </g>
   <g id="line2d_15">
    <defs>
     <path id="m262e352aa8" d="M 2 0 
L -2 -0 
" style="stroke: #2ca02c"/>
    </defs>
    <g clip-path="url(#p0768186101)">
     <use xlink:href="#m262e352aa8" x="53.609351" y="38.915792" style="fill: #2ca02c; stroke: #2ca02c"/>
     <use xlink:href="#m262e352aa8" x="69.256202" y="26.680575" style="fill: #2ca02c; stroke: #2ca02c"/>
     <use xlink:href="#m262e352aa8" x="84.903053" y="29.957058" style="fill: #2ca02c; stroke: #2ca02c"/>
     <use xlink:href="#m262e352aa8" x="100.549904" y="30.034419" style="fill: #2ca02c; stroke: #2ca02c"/>
     <use xlink:href="#m262e352aa8" x="116.196755" y="27.223547" style="fill: #2ca02c; stroke: #2ca02c"/>
     <use xlink:href="#m262e352aa8" x="139.667032" y="126.554299" style="fill: #2ca02c; stroke: #2ca02c"/>
     <use xlink:href="#m262e352aa8" x="163.137308" y="152.450627" style="fill: #2ca02c; stroke: #2ca02c"/>
     <use xlink:href="#m262e352aa8" x="186.607584" y="164.531825" style="fill: #2ca02c; stroke: #2ca02c"/>
     <use xlink:href="#m262e352aa8" x="210.077861" y="170.121458" style="fill: #2ca02c; stroke: #2ca02c"/>
     <use xlink:href="#m262e352aa8" x="233.548137" y="172.925537" style="fill: #2ca02c; stroke: #2ca02c"/>
     <use xlink:href="#m262e352aa8" x="257.018414" y="174.761602" style="fill: #2ca02c; stroke: #2ca02c"/>
     <use xlink:href="#m262e352aa8" x="280.48869" y="175.345858" style="fill: #2ca02c; stroke: #2ca02c"/>
     <use xlink:href="#m262e352aa8" x="303.958967" y="175.590108" style="fill: #2ca02c; stroke: #2ca02c"/>
     <use xlink:href="#m262e352aa8" x="327.429243" y="176.129655" style="fill: #2ca02c; stroke: #2ca02c"/>
     <use xlink:href="#m262e352aa8" x="350.89952" y="176.757575" style="fill: #2ca02c; stroke: #2ca02c"/>
    </g>
   </g>
   <g id="line2d_16">
    <g clip-path="url(#p0768186101)">
     <use xlink:href="#m262e352aa8" x="53.609351" y="26.590183" style="fill: #2ca02c; stroke: #2ca02c"/>
     <use xlink:href="#m262e352aa8" x="69.256202" y="20.912997" style="fill: #2ca02c; stroke: #2ca02c"/>
     <use xlink:href="#m262e352aa8" x="84.903053" y="26.26059" style="fill: #2ca02c; stroke: #2ca02c"/>
     <use xlink:href="#m262e352aa8" x="100.549904" y="25.821005" style="fill: #2ca02c; stroke: #2ca02c"/>
     <use xlink:href="#m262e352aa8" x="116.196755" y="25.063954" style="fill: #2ca02c; stroke: #2ca02c"/>
     <use xlink:href="#m262e352aa8" x="139.667032" y="124.669763" style="fill: #2ca02c; stroke: #2ca02c"/>
     <use xlink:href="#m262e352aa8" x="163.137308" y="151.16269" style="fill: #2ca02c; stroke: #2ca02c"/>
     <use xlink:href="#m262e352aa8" x="186.607584" y="163.771681" style="fill: #2ca02c; stroke: #2ca02c"/>
     <use xlink:href="#m262e352aa8" x="210.077861" y="169.403296" style="fill: #2ca02c; stroke: #2ca02c"/>
     <use xlink:href="#m262e352aa8" x="233.548137" y="172.439088" style="fill: #2ca02c; stroke: #2ca02c"/>
     <use xlink:href="#m262e352aa8" x="257.018414" y="174.220408" style="fill: #2ca02c; stroke: #2ca02c"/>
     <use xlink:href="#m262e352aa8" x="280.48869" y="174.819459" style="fill: #2ca02c; stroke: #2ca02c"/>
     <use xlink:href="#m262e352aa8" x="303.958967" y="175.236918" style="fill: #2ca02c; stroke: #2ca02c"/>
     <use xlink:href="#m262e352aa8" x="327.429243" y="175.831958" style="fill: #2ca02c; stroke: #2ca02c"/>
     <use xlink:href="#m262e352aa8" x="350.89952" y="176.362964" style="fill: #2ca02c; stroke: #2ca02c"/>
    </g>
   </g>
   <g id="LineCollection_4">
    <path d="M 53.609351 27.221563 
L 53.609351 23.321347 
" clip-path="url(#p0768186101)" style="fill: none; stroke: #d62728; stroke-width: 1.5"/>
    <path d="M 69.256202 28.954703 
L 69.256202 26.419791 
" clip-path="url(#p0768186101)" style="fill: none; stroke: #d62728; stroke-width: 1.5"/>
    <path d="M 84.903053 27.688996 
L 84.903053 26.561679 
" clip-path="url(#p0768186101)" style="fill: none; stroke: #d62728; stroke-width: 1.5"/>
    <path d="M 100.549904 29.069295 
L 100.549904 28.123437 
" clip-path="url(#p0768186101)" style="fill: none; stroke: #d62728; stroke-width: 1.5"/>
    <path d="M 116.196755 27.478556 
L 116.196755 26.399901 
" clip-path="url(#p0768186101)" style="fill: none; stroke: #d62728; stroke-width: 1.5"/>
    <path d="M 139.667032 127.397166 
L 139.667032 126.711169 
" clip-path="url(#p0768186101)" style="fill: none; stroke: #d62728; stroke-width: 1.5"/>
    <path d="M 163.137308 153.879198 
L 163.137308 153.476137 
" clip-path="url(#p0768186101)" style="fill: none; stroke: #d62728; stroke-width: 1.5"/>
    <path d="M 186.607584 164.677902 
L 186.607584 164.421383 
" clip-path="url(#p0768186101)" style="fill: none; stroke: #d62728; stroke-width: 1.5"/>
    <path d="M 210.077861 169.866572 
L 210.077861 169.657052 
" clip-path="url(#p0768186101)" style="fill: none; stroke: #d62728; stroke-width: 1.5"/>
    <path d="M 233.548137 172.498933 
L 233.548137 172.37607 
" clip-path="url(#p0768186101)" style="fill: none; stroke: #d62728; stroke-width: 1.5"/>
    <path d="M 257.018414 174.106656 
L 257.018414 173.928853 
" clip-path="url(#p0768186101)" style="fill: none; stroke: #d62728; stroke-width: 1.5"/>
    <path d="M 280.48869 175.1265 
L 280.48869 175.018879 
" clip-path="url(#p0768186101)" style="fill: none; stroke: #d62728; stroke-width: 1.5"/>
    <path d="M 303.958967 175.62888 
L 303.958967 175.517093 
" clip-path="url(#p0768186101)" style="fill: none; stroke: #d62728; stroke-width: 1.5"/>
    <path d="M 327.429243 176.072096 
L 327.429243 175.964836 
" clip-path="url(#p0768186101)" style="fill: none; stroke: #d62728; stroke-width: 1.5"/>
    <path d="M 350.89952 176.256008 
L 350.89952 176.164076 
" clip-path="url(#p0768186101)" style="fill: none; stroke: #d62728; stroke-width: 1.5"/>
   </g>
   <g id="line2d_17">
    <defs>
     <path id="mfd328405cc" d="M 2 0 
L -2 -0 
" style="stroke: #d62728"/>
    </defs>
    <g clip-path="url(#p0768186101)">
     <use xlink:href="#mfd328405cc" x="53.609351" y="27.221563" style="fill: #d62728; stroke: #d62728"/>
     <use xlink:href="#mfd328405cc" x="69.256202" y="28.954703" style="fill: #d62728; stroke: #d62728"/>
     <use xlink:href="#mfd328405cc" x="84.903053" y="27.688996" style="fill: #d62728; stroke: #d62728"/>
     <use xlink:href="#mfd328405cc" x="100.549904" y="29.069295" style="fill: #d62728; stroke: #d62728"/>
     <use xlink:href="#mfd328405cc" x="116.196755" y="27.478556" style="fill: #d62728; stroke: #d62728"/>
     <use xlink:href="#mfd328405cc" x="139.667032" y="127.397166" style="fill: #d62728; stroke: #d62728"/>
     <use xlink:href="#mfd328405cc" x="163.137308" y="153.879198" style="fill: #d62728; stroke: #d62728"/>
     <use xlink:href="#mfd328405cc" x="186.607584" y="164.677902" style="fill: #d62728; stroke: #d62728"/>
     <use xlink:href="#mfd328405cc" x="210.077861" y="169.866572" style="fill: #d62728; stroke: #d62728"/>
     <use xlink:href="#mfd328405cc" x="233.548137" y="172.498933" style="fill: #d62728; stroke: #d62728"/>
     <use xlink:href="#mfd328405cc" x="257.018414" y="174.106656" style="fill: #d62728; stroke: #d62728"/>
     <use xlink:href="#mfd328405cc" x="280.48869" y="175.1265" style="fill: #d62728; stroke: #d62728"/>
     <use xlink:href="#mfd328405cc" x="303.958967" y="175.62888" style="fill: #d62728; stroke: #d62728"/>
     <use xlink:href="#mfd328405cc" x="327.429243" y="176.072096" style="fill: #d62728; stroke: #d62728"/>
     <use xlink:href="#mfd328405cc" x="350.89952" y="176.256008" style="fill: #d62728; stroke: #d62728"/>
    </g>
   </g>
   <g id="line2d_18">
    <g clip-path="url(#p0768186101)">
     <use xlink:href="#mfd328405cc" x="53.609351" y="23.321347" style="fill: #d62728; stroke: #d62728"/>
     <use xlink:href="#mfd328405cc" x="69.256202" y="26.419791" style="fill: #d62728; stroke: #d62728"/>
     <use xlink:href="#mfd328405cc" x="84.903053" y="26.561679" style="fill: #d62728; stroke: #d62728"/>
     <use xlink:href="#mfd328405cc" x="100.549904" y="28.123437" style="fill: #d62728; stroke: #d62728"/>
     <use xlink:href="#mfd328405cc" x="116.196755" y="26.399901" style="fill: #d62728; stroke: #d62728"/>
     <use xlink:href="#mfd328405cc" x="139.667032" y="126.711169" style="fill: #d62728; stroke: #d62728"/>
     <use xlink:href="#mfd328405cc" x="163.137308" y="153.476137" style="fill: #d62728; stroke: #d62728"/>
     <use xlink:href="#mfd328405cc" x="186.607584" y="164.421383" style="fill: #d62728; stroke: #d62728"/>
     <use xlink:href="#mfd328405cc" x="210.077861" y="169.657052" style="fill: #d62728; stroke: #d62728"/>
     <use xlink:href="#mfd328405cc" x="233.548137" y="172.37607" style="fill: #d62728; stroke: #d62728"/>
     <use xlink:href="#mfd328405cc" x="257.018414" y="173.928853" style="fill: #d62728; stroke: #d62728"/>
     <use xlink:href="#mfd328405cc" x="280.48869" y="175.018879" style="fill: #d62728; stroke: #d62728"/>
     <use xlink:href="#mfd328405cc" x="303.958967" y="175.517093" style="fill: #d62728; stroke: #d62728"/>
     <use xlink:href="#mfd328405cc" x="327.429243" y="175.964836" style="fill: #d62728; stroke: #d62728"/>
     <use xlink:href="#mfd328405cc" x="350.89952" y="176.164076" style="fill: #d62728; stroke: #d62728"/>
    </g>
   </g>
   <g id="line2d_19">
    <path d="M 53.609351 177.091537 
L 69.256202 177.091537 
L 84.903053 84.964425 
L 100.549904 46.530671 
L 116.196755 20.421293 
L 139.667032 124.531201 
L 163.137308 155.444778 
L 186.607584 169.176955 
L 210.077861 169.108315 
L 233.548137 172.539425 
L 257.018414 176.404147 
L 280.48869 173.320394 
L 303.958967 173.702496 
L 327.429243 177.195315 
L 350.89952 175.887917 
" clip-path="url(#p0768186101)" style="fill: none; stroke: #1f77b4; stroke-width: 1.5; stroke-linecap: square"/>
    <defs>
     <path id="mdecb49ecc9" d="M 0 -4 
L -4 4 
L 4 4 
z
" style="stroke: #1f77b4; stroke-linejoin: miter"/>
    </defs>
    <g clip-path="url(#p0768186101)">
     <use xlink:href="#mdecb49ecc9" x="53.609351" y="177.091537" style="fill: #1f77b4; stroke: #1f77b4; stroke-linejoin: miter"/>
     <use xlink:href="#mdecb49ecc9" x="116.196755" y="20.421293" style="fill: #1f77b4; stroke: #1f77b4; stroke-linejoin: miter"/>
     <use xlink:href="#mdecb49ecc9" x="210.077861" y="169.108315" style="fill: #1f77b4; stroke: #1f77b4; stroke-linejoin: miter"/>
     <use xlink:href="#mdecb49ecc9" x="303.958967" y="173.702496" style="fill: #1f77b4; stroke: #1f77b4; stroke-linejoin: miter"/>
    </g>
   </g>
   <g id="line2d_20">
    <path d="M 53.609351 58.977579 
L 69.256202 27.12979 
L 84.903053 31.007473 
L 100.549904 19.470044 
L 116.196755 23.717798 
L 139.667032 125.412724 
L 163.137308 150.331421 
L 186.607584 163.670752 
L 210.077861 168.694659 
L 233.548137 172.495254 
L 257.018414 174.202793 
L 280.48869 174.756474 
L 303.958967 175.653275 
L 327.429243 175.253359 
L 350.89952 177.138181 
" clip-path="url(#p0768186101)" style="fill: none; stroke: #ff7f0e; stroke-width: 1.5; stroke-linecap: square"/>
    <defs>
     <path id="m0c870648ef" d="M -4 4 
L 4 4 
L 4 -4 
L -4 -4 
z
" style="stroke: #ff7f0e; stroke-linejoin: miter"/>
    </defs>
    <g clip-path="url(#p0768186101)">
     <use xlink:href="#m0c870648ef" x="69.256202" y="27.12979" style="fill: #ff7f0e; stroke: #ff7f0e; stroke-linejoin: miter"/>
     <use xlink:href="#m0c870648ef" x="139.667032" y="125.412724" style="fill: #ff7f0e; stroke: #ff7f0e; stroke-linejoin: miter"/>
     <use xlink:href="#m0c870648ef" x="233.548137" y="172.495254" style="fill: #ff7f0e; stroke: #ff7f0e; stroke-linejoin: miter"/>
     <use xlink:href="#m0c870648ef" x="327.429243" y="175.253359" style="fill: #ff7f0e; stroke: #ff7f0e; stroke-linejoin: miter"/>
    </g>
   </g>
   <g id="line2d_21">
    <path d="M 53.609351 32.752987 
L 69.256202 23.796786 
L 84.903053 28.108824 
L 100.549904 27.927712 
L 116.196755 26.143751 
L 139.667032 125.612031 
L 163.137308 151.806659 
L 186.607584 164.151753 
L 210.077861 169.762377 
L 233.548137 172.682312 
L 257.018414 174.491005 
L 280.48869 175.082659 
L 303.958967 175.413513 
L 327.429243 175.980807 
L 350.89952 176.56027 
" clip-path="url(#p0768186101)" style="fill: none; stroke: #2ca02c; stroke-width: 1.5; stroke-linecap: square"/>
    <defs>
     <path id="mebccc8f786" d="M 0 4 
C 1.060812 4 2.078319 3.578535 2.828427 2.828427 
C 3.578535 2.078319 4 1.060812 4 0 
C 4 -1.060812 3.578535 -2.078319 2.828427 -2.828427 
C 2.078319 -3.578535 1.060812 -4 0 -4 
C -1.060812 -4 -2.078319 -3.578535 -2.828427 -2.828427 
C -3.578535 -2.078319 -4 -1.060812 -4 0 
C -4 1.060812 -3.578535 2.078319 -2.828427 2.828427 
C -2.078319 3.578535 -1.060812 4 0 4 
z
" style="stroke: #2ca02c"/>
    </defs>
    <g clip-path="url(#p0768186101)">
     <use xlink:href="#mebccc8f786" x="84.903053" y="28.108824" style="fill: #2ca02c; stroke: #2ca02c"/>
     <use xlink:href="#mebccc8f786" x="163.137308" y="151.806659" style="fill: #2ca02c; stroke: #2ca02c"/>
     <use xlink:href="#mebccc8f786" x="257.018414" y="174.491005" style="fill: #2ca02c; stroke: #2ca02c"/>
     <use xlink:href="#mebccc8f786" x="350.89952" y="176.56027" style="fill: #2ca02c; stroke: #2ca02c"/>
    </g>
   </g>
   <g id="line2d_22">
    <path d="M 53.609351 25.271455 
L 69.256202 27.687247 
L 84.903053 27.125338 
L 100.549904 28.596366 
L 116.196755 26.939228 
L 139.667032 127.054168 
L 163.137308 153.677667 
L 186.607584 164.549642 
L 210.077861 169.761812 
L 233.548137 172.437502 
L 257.018414 174.017755 
L 280.48869 175.072689 
L 303.958967 175.572987 
L 327.429243 176.018466 
L 350.89952 176.210042 
" clip-path="url(#p0768186101)" style="fill: none; stroke: #d62728; stroke-width: 1.5; stroke-linecap: square"/>
    <defs>
     <path id="mc171b9db30" d="M 0 -4 
L -0.898056 -1.236068 
L -3.804226 -1.236068 
L -1.453085 0.472136 
L -2.351141 3.236068 
L -0 1.527864 
L 2.351141 3.236068 
L 1.453085 0.472136 
L 3.804226 -1.236068 
L 0.898056 -1.236068 
z
" style="stroke: #d62728; stroke-linejoin: bevel"/>
    </defs>
    <g clip-path="url(#p0768186101)">
     <use xlink:href="#mc171b9db30" x="100.549904" y="28.596366" style="fill: #d62728; stroke: #d62728; stroke-linejoin: bevel"/>
     <use xlink:href="#mc171b9db30" x="186.607584" y="164.549642" style="fill: #d62728; stroke: #d62728; stroke-linejoin: bevel"/>
     <use xlink:href="#mc171b9db30" x="280.48869" y="175.072689" style="fill: #d62728; stroke: #d62728; stroke-linejoin: bevel"/>
    </g>
   </g>
   <g id="patch_3">
    <path d="M 37.9625 186.84327 
L 37.9625 7.2 
" style="fill: none; stroke: #000000; stroke-width: 0.8; stroke-linejoin: miter; stroke-linecap: square"/>
   </g>
   <g id="patch_4">
    <path d="M 350.89952 186.84327 
L 350.89952 7.2 
" style="fill: none; stroke: #000000; stroke-width: 0.8; stroke-linejoin: miter; stroke-linecap: square"/>
   </g>
   <g id="patch_5">
    <path d="M 37.9625 186.84327 
L 350.89952 186.84327 
" style="fill: none; stroke: #000000; stroke-width: 0.8; stroke-linejoin: miter; stroke-linecap: square"/>
   </g>
   <g id="patch_6">
    <path d="M 37.9625 7.2 
L 350.89952 7.2 
" style="fill: none; stroke: #000000; stroke-width: 0.8; stroke-linejoin: miter; stroke-linecap: square"/>
   </g>
   <g id="legend_1">
    <g id="patch_7">
     <path d="M 223.558895 88.590625 
L 343.89952 88.590625 
Q 345.89952 88.590625 345.89952 86.590625 
L 345.89952 14.2 
Q 345.89952 12.2 343.89952 12.2 
L 223.558895 12.2 
Q 221.558895 12.2 221.558895 14.2 
L 221.558895 86.590625 
Q 221.558895 88.590625 223.558895 88.590625 
z
" style="fill: #ffffff; opacity: 0.8; stroke: #cccccc; stroke-linejoin: miter"/>
    </g>
    <g id="line2d_23">
     <path d="M 231.558895 20.298438 
L 231.558895 23.898438 
" style="fill: none; stroke-dasharray: 10,2; stroke-dashoffset: 0; stroke: #000000"/>
     <path d="M 225.558895 20.298438 
L 235.558895 20.298438 
L 245.558895 20.298438 
" style="fill: none; stroke-dasharray: 10,2; stroke-dashoffset: 0; stroke: #000000"/>
    </g>
    <g id="text_10">
     <!-- theoretical bound -->
     <g transform="translate(253.558895 23.798438) scale(0.1 -0.1)">
      <defs>
       <path id="DejaVuSans-68" d="M 3513 2113 
L 3513 0 
L 2938 0 
L 2938 2094 
Q 2938 2591 2744 2837 
Q 2550 3084 2163 3084 
Q 1697 3084 1428 2787 
Q 1159 2491 1159 1978 
L 1159 0 
L 581 0 
L 581 4863 
L 1159 4863 
L 1159 2956 
Q 1366 3272 1645 3428 
Q 1925 3584 2291 3584 
Q 2894 3584 3203 3211 
Q 3513 2838 3513 2113 
z
" transform="scale(0.015625)"/>
       <path id="DejaVuSans-65" d="M 3597 1894 
L 3597 1613 
L 953 1613 
Q 991 1019 1311 708 
Q 1631 397 2203 397 
Q 2534 397 2845 478 
Q 3156 559 3463 722 
L 3463 178 
Q 3153 47 2828 -22 
Q 2503 -91 2169 -91 
Q 1331 -91 842 396 
Q 353 884 353 1716 
Q 353 2575 817 3079 
Q 1281 3584 2069 3584 
Q 2775 3584 3186 3129 
Q 3597 2675 3597 1894 
z
M 3022 2063 
Q 3016 2534 2758 2815 
Q 2500 3097 2075 3097 
Q 1594 3097 1305 2825 
Q 1016 2553 972 2059 
L 3022 2063 
z
" transform="scale(0.015625)"/>
       <path id="DejaVuSans-6f" d="M 1959 3097 
Q 1497 3097 1228 2736 
Q 959 2375 959 1747 
Q 959 1119 1226 758 
Q 1494 397 1959 397 
Q 2419 397 2687 759 
Q 2956 1122 2956 1747 
Q 2956 2369 2687 2733 
Q 2419 3097 1959 3097 
z
M 1959 3584 
Q 2709 3584 3137 3096 
Q 3566 2609 3566 1747 
Q 3566 888 3137 398 
Q 2709 -91 1959 -91 
Q 1206 -91 779 398 
Q 353 888 353 1747 
Q 353 2609 779 3096 
Q 1206 3584 1959 3584 
z
" transform="scale(0.015625)"/>
       <path id="DejaVuSans-72" d="M 2631 2963 
Q 2534 3019 2420 3045 
Q 2306 3072 2169 3072 
Q 1681 3072 1420 2755 
Q 1159 2438 1159 1844 
L 1159 0 
L 581 0 
L 581 3500 
L 1159 3500 
L 1159 2956 
Q 1341 3275 1631 3429 
Q 1922 3584 2338 3584 
Q 2397 3584 2469 3576 
Q 2541 3569 2628 3553 
L 2631 2963 
z
" transform="scale(0.015625)"/>
       <path id="DejaVuSans-69" d="M 603 3500 
L 1178 3500 
L 1178 0 
L 603 0 
L 603 3500 
z
M 603 4863 
L 1178 4863 
L 1178 4134 
L 603 4134 
L 603 4863 
z
" transform="scale(0.015625)"/>
       <path id="DejaVuSans-63" d="M 3122 3366 
L 3122 2828 
Q 2878 2963 2633 3030 
Q 2388 3097 2138 3097 
Q 1578 3097 1268 2742 
Q 959 2388 959 1747 
Q 959 1106 1268 751 
Q 1578 397 2138 397 
Q 2388 397 2633 464 
Q 2878 531 3122 666 
L 3122 134 
Q 2881 22 2623 -34 
Q 2366 -91 2075 -91 
Q 1284 -91 818 406 
Q 353 903 353 1747 
Q 353 2603 823 3093 
Q 1294 3584 2113 3584 
Q 2378 3584 2631 3529 
Q 2884 3475 3122 3366 
z
" transform="scale(0.015625)"/>
       <path id="DejaVuSans-6c" d="M 603 4863 
L 1178 4863 
L 1178 0 
L 603 0 
L 603 4863 
z
" transform="scale(0.015625)"/>
       <path id="DejaVuSans-62" d="M 3116 1747 
Q 3116 2381 2855 2742 
Q 2594 3103 2138 3103 
Q 1681 3103 1420 2742 
Q 1159 2381 1159 1747 
Q 1159 1113 1420 752 
Q 1681 391 2138 391 
Q 2594 391 2855 752 
Q 3116 1113 3116 1747 
z
M 1159 2969 
Q 1341 3281 1617 3432 
Q 1894 3584 2278 3584 
Q 2916 3584 3314 3078 
Q 3713 2572 3713 1747 
Q 3713 922 3314 415 
Q 2916 -91 2278 -91 
Q 1894 -91 1617 61 
Q 1341 213 1159 525 
L 1159 0 
L 581 0 
L 581 4863 
L 1159 4863 
L 1159 2969 
z
" transform="scale(0.015625)"/>
       <path id="DejaVuSans-75" d="M 544 1381 
L 544 3500 
L 1119 3500 
L 1119 1403 
Q 1119 906 1312 657 
Q 1506 409 1894 409 
Q 2359 409 2629 706 
Q 2900 1003 2900 1516 
L 2900 3500 
L 3475 3500 
L 3475 0 
L 2900 0 
L 2900 538 
Q 2691 219 2414 64 
Q 2138 -91 1772 -91 
Q 1169 -91 856 284 
Q 544 659 544 1381 
z
M 1991 3584 
L 1991 3584 
z
" transform="scale(0.015625)"/>
       <path id="DejaVuSans-64" d="M 2906 2969 
L 2906 4863 
L 3481 4863 
L 3481 0 
L 2906 0 
L 2906 525 
Q 2725 213 2448 61 
Q 2172 -91 1784 -91 
Q 1150 -91 751 415 
Q 353 922 353 1747 
Q 353 2572 751 3078 
Q 1150 3584 1784 3584 
Q 2172 3584 2448 3432 
Q 2725 3281 2906 2969 
z
M 947 1747 
Q 947 1113 1208 752 
Q 1469 391 1925 391 
Q 2381 391 2643 752 
Q 2906 1113 2906 1747 
Q 2906 2381 2643 2742 
Q 2381 3103 1925 3103 
Q 1469 3103 1208 2742 
Q 947 2381 947 1747 
z
" transform="scale(0.015625)"/>
      </defs>
      <use xlink:href="#DejaVuSans-74"/>
      <use xlink:href="#DejaVuSans-68" transform="translate(39.208984 0)"/>
      <use xlink:href="#DejaVuSans-65" transform="translate(102.587891 0)"/>
      <use xlink:href="#DejaVuSans-6f" transform="translate(164.111328 0)"/>
      <use xlink:href="#DejaVuSans-72" transform="translate(225.292969 0)"/>
      <use xlink:href="#DejaVuSans-65" transform="translate(264.15625 0)"/>
      <use xlink:href="#DejaVuSans-74" transform="translate(325.679688 0)"/>
      <use xlink:href="#DejaVuSans-69" transform="translate(364.888672 0)"/>
      <use xlink:href="#DejaVuSans-63" transform="translate(392.671875 0)"/>
      <use xlink:href="#DejaVuSans-61" transform="translate(447.652344 0)"/>
      <use xlink:href="#DejaVuSans-6c" transform="translate(508.931641 0)"/>
      <use xlink:href="#DejaVuSans-20" transform="translate(536.714844 0)"/>
      <use xlink:href="#DejaVuSans-62" transform="translate(568.501953 0)"/>
      <use xlink:href="#DejaVuSans-6f" transform="translate(631.978516 0)"/>
      <use xlink:href="#DejaVuSans-75" transform="translate(693.160156 0)"/>
      <use xlink:href="#DejaVuSans-6e" transform="translate(756.539062 0)"/>
      <use xlink:href="#DejaVuSans-64" transform="translate(819.917969 0)"/>
     </g>
    </g>
    <g id="LineCollection_5">
     <path d="M 235.558895 39.976562 
L 235.558895 29.976562 
" style="fill: none; stroke: #1f77b4; stroke-width: 1.5"/>
    </g>
    <g id="line2d_24">
     <g>
      <use xlink:href="#ma393308a1f" x="235.558895" y="39.976562" style="fill: #1f77b4; stroke: #1f77b4"/>
     </g>
    </g>
    <g id="line2d_25">
     <g>
      <use xlink:href="#ma393308a1f" x="235.558895" y="29.976562" style="fill: #1f77b4; stroke: #1f77b4"/>
     </g>
    </g>
    <g id="line2d_26">
     <path d="M 225.558895 34.976562 
L 245.558895 34.976562 
" style="fill: none; stroke: #1f77b4; stroke-width: 1.5; stroke-linecap: square"/>
    </g>
    <g id="line2d_27">
     <g>
      <use xlink:href="#mdecb49ecc9" x="235.558895" y="34.976562" style="fill: #1f77b4; stroke: #1f77b4; stroke-linejoin: miter"/>
     </g>
    </g>
    <g id="text_11">
     <!-- $N^* = 10^2$ -->
     <g transform="translate(253.558895 38.476562) scale(0.1 -0.1)">
      <defs>
       <path id="DejaVuSans-Oblique-4e" d="M 1081 4666 
L 1931 4666 
L 3219 666 
L 4000 4666 
L 4616 4666 
L 3706 0 
L 2853 0 
L 1569 4025 
L 788 0 
L 172 0 
L 1081 4666 
z
" transform="scale(0.015625)"/>
       <path id="DejaVuSans-3d" d="M 678 2906 
L 4684 2906 
L 4684 2381 
L 678 2381 
L 678 2906 
z
M 678 1631 
L 4684 1631 
L 4684 1100 
L 678 1100 
L 678 1631 
z
" transform="scale(0.015625)"/>
      </defs>
      <use xlink:href="#DejaVuSans-Oblique-4e" transform="translate(0 0.765625)"/>
      <use xlink:href="#DejaVuSans-2a" transform="translate(95.459154 39.046875) scale(0.7)"/>
      <use xlink:href="#DejaVuSans-3d" transform="translate(166.313646 0.765625)"/>
      <use xlink:href="#DejaVuSans-31" transform="translate(269.58513 0.765625)"/>
      <use xlink:href="#DejaVuSans-30" transform="translate(333.208177 0.765625)"/>
      <use xlink:href="#DejaVuSans-32" transform="translate(397.788255 39.046875) scale(0.7)"/>
     </g>
    </g>
    <g id="LineCollection_6">
     <path d="M 235.558895 54.654687 
L 235.558895 44.654687 
" style="fill: none; stroke: #ff7f0e; stroke-width: 1.5"/>
    </g>
    <g id="line2d_28">
     <g>
      <use xlink:href="#m19f25f5b77" x="235.558895" y="54.654687" style="fill: #ff7f0e; stroke: #ff7f0e"/>
     </g>
    </g>
    <g id="line2d_29">
     <g>
      <use xlink:href="#m19f25f5b77" x="235.558895" y="44.654687" style="fill: #ff7f0e; stroke: #ff7f0e"/>
     </g>
    </g>
    <g id="line2d_30">
     <path d="M 225.558895 49.654687 
L 245.558895 49.654687 
" style="fill: none; stroke: #ff7f0e; stroke-width: 1.5; stroke-linecap: square"/>
    </g>
    <g id="line2d_31">
     <g>
      <use xlink:href="#m0c870648ef" x="235.558895" y="49.654687" style="fill: #ff7f0e; stroke: #ff7f0e; stroke-linejoin: miter"/>
     </g>
    </g>
    <g id="text_12">
     <!-- $N^* = 10^3$ -->
     <g transform="translate(253.558895 53.154687) scale(0.1 -0.1)">
      <use xlink:href="#DejaVuSans-Oblique-4e" transform="translate(0 0.765625)"/>
      <use xlink:href="#DejaVuSans-2a" transform="translate(95.459154 39.046875) scale(0.7)"/>
      <use xlink:href="#DejaVuSans-3d" transform="translate(166.313646 0.765625)"/>
      <use xlink:href="#DejaVuSans-31" transform="translate(269.58513 0.765625)"/>
      <use xlink:href="#DejaVuSans-30" transform="translate(333.208177 0.765625)"/>
      <use xlink:href="#DejaVuSans-33" transform="translate(397.788255 39.046875) scale(0.7)"/>
     </g>
    </g>
    <g id="LineCollection_7">
     <path d="M 235.558895 69.332813 
L 235.558895 59.332813 
" style="fill: none; stroke: #2ca02c; stroke-width: 1.5"/>
    </g>
    <g id="line2d_32">
     <g>
      <use xlink:href="#m262e352aa8" x="235.558895" y="69.332813" style="fill: #2ca02c; stroke: #2ca02c"/>
     </g>
    </g>
    <g id="line2d_33">
     <g>
      <use xlink:href="#m262e352aa8" x="235.558895" y="59.332813" style="fill: #2ca02c; stroke: #2ca02c"/>
     </g>
    </g>
    <g id="line2d_34">
     <path d="M 225.558895 64.332813 
L 245.558895 64.332813 
" style="fill: none; stroke: #2ca02c; stroke-width: 1.5; stroke-linecap: square"/>
    </g>
    <g id="line2d_35">
     <g>
      <use xlink:href="#mebccc8f786" x="235.558895" y="64.332813" style="fill: #2ca02c; stroke: #2ca02c"/>
     </g>
    </g>
    <g id="text_13">
     <!-- $N^* = 10^4$ -->
     <g transform="translate(253.558895 67.832813) scale(0.1 -0.1)">
      <use xlink:href="#DejaVuSans-Oblique-4e" transform="translate(0 0.765625)"/>
      <use xlink:href="#DejaVuSans-2a" transform="translate(95.459154 39.046875) scale(0.7)"/>
      <use xlink:href="#DejaVuSans-3d" transform="translate(166.313646 0.765625)"/>
      <use xlink:href="#DejaVuSans-31" transform="translate(269.58513 0.765625)"/>
      <use xlink:href="#DejaVuSans-30" transform="translate(333.208177 0.765625)"/>
      <use xlink:href="#DejaVuSans-34" transform="translate(397.788255 39.046875) scale(0.7)"/>
     </g>
    </g>
    <g id="LineCollection_8">
     <path d="M 235.558895 84.010938 
L 235.558895 74.010938 
" style="fill: none; stroke: #d62728; stroke-width: 1.5"/>
    </g>
    <g id="line2d_36">
     <g>
      <use xlink:href="#mfd328405cc" x="235.558895" y="84.010938" style="fill: #d62728; stroke: #d62728"/>
     </g>
    </g>
    <g id="line2d_37">
     <g>
      <use xlink:href="#mfd328405cc" x="235.558895" y="74.010938" style="fill: #d62728; stroke: #d62728"/>
     </g>
    </g>
    <g id="line2d_38">
     <path d="M 225.558895 79.010938 
L 245.558895 79.010938 
" style="fill: none; stroke: #d62728; stroke-width: 1.5; stroke-linecap: square"/>
    </g>
    <g id="line2d_39">
     <g>
      <use xlink:href="#mc171b9db30" x="235.558895" y="79.010938" style="fill: #d62728; stroke: #d62728; stroke-linejoin: bevel"/>
     </g>
    </g>
    <g id="text_14">
     <!-- $N^* = 10^5$ -->
     <g transform="translate(253.558895 82.510938) scale(0.1 -0.1)">
      <defs>
       <path id="DejaVuSans-35" d="M 691 4666 
L 3169 4666 
L 3169 4134 
L 1269 4134 
L 1269 2991 
Q 1406 3038 1543 3061 
Q 1681 3084 1819 3084 
Q 2600 3084 3056 2656 
Q 3513 2228 3513 1497 
Q 3513 744 3044 326 
Q 2575 -91 1722 -91 
Q 1428 -91 1123 -41 
Q 819 9 494 109 
L 494 744 
Q 775 591 1075 516 
Q 1375 441 1709 441 
Q 2250 441 2565 725 
Q 2881 1009 2881 1497 
Q 2881 1984 2565 2268 
Q 2250 2553 1709 2553 
Q 1456 2553 1204 2497 
Q 953 2441 691 2322 
L 691 4666 
z
" transform="scale(0.015625)"/>
      </defs>
      <use xlink:href="#DejaVuSans-Oblique-4e" transform="translate(0 0.765625)"/>
      <use xlink:href="#DejaVuSans-2a" transform="translate(95.459154 39.046875) scale(0.7)"/>
      <use xlink:href="#DejaVuSans-3d" transform="translate(166.313646 0.765625)"/>
      <use xlink:href="#DejaVuSans-31" transform="translate(269.58513 0.765625)"/>
      <use xlink:href="#DejaVuSans-30" transform="translate(333.208177 0.765625)"/>
      <use xlink:href="#DejaVuSans-35" transform="translate(397.788255 39.046875) scale(0.7)"/>
     </g>
    </g>
   </g>
  </g>
 </g>
 <defs>
  <clipPath id="p0768186101">
   <rect x="37.9625" y="7.2" width="312.93702" height="179.64327"/>
  </clipPath>
 </defs>
</svg>
