<?xml version="1.0" encoding="utf-8" standalone="no"?>
<!DOCTYPE svg PUBLIC "-//W3C//DTD SVG 1.1//EN"
  "http://www.w3.org/Graphics/SVG/1.1/DTD/svg11.dtd">
<svg xmlns:xlink="http://www.w3.org/1999/xlink" width="440.39952pt" height="296.39952pt" viewBox="0 0 440.39952 296.39952" xmlns="http://www.w3.org/2000/svg" version="1.1">
 <metadata>
  <rdf:RDF xmlns:dc="http://purl.org/dc/elements/1.1/" xmlns:cc="http://creativecommons.org/ns#" xmlns:rdf="http://www.w3.org/1999/02/22-rdf-syntax-ns#">
   <cc:Work>
    <dc:type rdf:resource="http://purl.org/dc/dcmitype/StillImage"/>
    <dc:date>2025-11-28T17:02:00.241850</dc:date>
    <dc:format>image/svg+xml</dc:format>
    <dc:creator>
     <cc:Agent>
      <dc:title>Matplotlib v3.10.0, https://matplotlib.org/</dc:title>
     </cc:Agent>
    </dc:creator>
   </cc:Work>
  </rdf:RDF>
 </metadata>
 <defs>
  <style type="text/css">*{stroke-linejoin: round; stroke-linecap: butt}</style>
 </defs>
 <g id="figure_1">
  <g id="patch_1">
   <path d="M 0 296.39952 
L 440.39952 296.39952 
L 440.39952 0 
L 0 0 
L 0 296.39952 
z
" style="fill: none"/>
  </g>
  <g id="axes_1">
   <g id="patch_2">
    <path d="M 37.9625 258.84327 
L 422.89952 258.84327 
L 422.89952 7.2 
L 37.9625 7.2 
L 37.9625 258.84327 
z
" style="fill: none"/>
   </g>
   <g id="matplotlib.axis_1">
    <g id="xtick_1">
     <g id="line2d_1">
      <defs>
       <path id="md96f0e864f" d="M 0 0 
L 0 3.5 
" style="stroke: #000000; stroke-width: 0.8"/>
      </defs>
      <g>
       <use xlink:href="#md96f0e864f" x="37.9625" y="258.84327" style="stroke: #000000; stroke-width: 0.8"/>
      </g>
     </g>
     <g id="text_1">
      <!-- 0 -->
      <g transform="translate(34.78125 273.441707) scale(0.1 -0.1)">
       <defs>
        <path id="DejaVuSans-30" d="M 2034 4250 
Q 1547 4250 1301 3770 
Q 1056 3291 1056 2328 
Q 1056 1369 1301 889 
Q 1547 409 2034 409 
Q 2525 409 2770 889 
Q 3016 1369 3016 2328 
Q 3016 3291 2770 3770 
Q 2525 4250 2034 4250 
z
M 2034 4750 
Q 2819 4750 3233 4129 
Q 3647 3509 3647 2328 
Q 3647 1150 3233 529 
Q 2819 -91 2034 -91 
Q 1250 -91 836 529 
Q 422 1150 422 2328 
Q 422 3509 836 4129 
Q 1250 4750 2034 4750 
z
" transform="scale(0.015625)"/>
       </defs>
       <use xlink:href="#DejaVuSans-30"/>
      </g>
     </g>
    </g>
    <g id="xtick_2">
     <g id="line2d_2">
      <g>
       <use xlink:href="#md96f0e864f" x="134.196755" y="258.84327" style="stroke: #000000; stroke-width: 0.8"/>
      </g>
     </g>
     <g id="text_2">
      <!-- $R^*$ -->
      <g transform="translate(127.096755 273.441707) scale(0.1 -0.1)">
       <defs>
        <path id="DejaVuSans-Oblique-52" d="M 1613 4147 
L 1294 2491 
L 2106 2491 
Q 2584 2491 2879 2755 
Q 3175 3019 3175 3444 
Q 3175 3784 2976 3965 
Q 2778 4147 2406 4147 
L 1613 4147 
z
M 2772 2241 
Q 2972 2194 3105 2009 
Q 3238 1825 3413 1275 
L 3809 0 
L 3144 0 
L 2778 1197 
Q 2638 1659 2453 1815 
Q 2269 1972 1888 1972 
L 1191 1972 
L 806 0 
L 172 0 
L 1081 4666 
L 2503 4666 
Q 3150 4666 3495 4373 
Q 3841 4081 3841 3531 
Q 3841 3044 3547 2687 
Q 3253 2331 2772 2241 
z
" transform="scale(0.015625)"/>
        <path id="DejaVuSans-2a" d="M 3009 3897 
L 1888 3291 
L 3009 2681 
L 2828 2375 
L 1778 3009 
L 1778 1831 
L 1422 1831 
L 1422 3009 
L 372 2375 
L 191 2681 
L 1313 3291 
L 191 3897 
L 372 4206 
L 1422 3572 
L 1422 4750 
L 1778 4750 
L 1778 3572 
L 2828 4206 
L 3009 3897 
z
" transform="scale(0.015625)"/>
       </defs>
       <use xlink:href="#DejaVuSans-Oblique-52" transform="translate(0 0.765625)"/>
       <use xlink:href="#DejaVuSans-2a" transform="translate(90.136888 39.046875) scale(0.7)"/>
      </g>
     </g>
    </g>
    <g id="xtick_3">
     <g id="line2d_3">
      <g>
       <use xlink:href="#md96f0e864f" x="230.43101" y="258.84327" style="stroke: #000000; stroke-width: 0.8"/>
      </g>
     </g>
     <g id="text_3">
      <!-- $2R^*$ -->
      <g transform="translate(220.13101 273.441707) scale(0.1 -0.1)">
       <defs>
        <path id="DejaVuSans-32" d="M 1228 531 
L 3431 531 
L 3431 0 
L 469 0 
L 469 531 
Q 828 903 1448 1529 
Q 2069 2156 2228 2338 
Q 2531 2678 2651 2914 
Q 2772 3150 2772 3378 
Q 2772 3750 2511 3984 
Q 2250 4219 1831 4219 
Q 1534 4219 1204 4116 
Q 875 4013 500 3803 
L 500 4441 
Q 881 4594 1212 4672 
Q 1544 4750 1819 4750 
Q 2544 4750 2975 4387 
Q 3406 4025 3406 3419 
Q 3406 3131 3298 2873 
Q 3191 2616 2906 2266 
Q 2828 2175 2409 1742 
Q 1991 1309 1228 531 
z
" transform="scale(0.015625)"/>
       </defs>
       <use xlink:href="#DejaVuSans-32" transform="translate(0 0.765625)"/>
       <use xlink:href="#DejaVuSans-Oblique-52" transform="translate(63.623047 0.765625)"/>
       <use xlink:href="#DejaVuSans-2a" transform="translate(153.759935 39.046875) scale(0.7)"/>
      </g>
     </g>
    </g>
    <g id="xtick_4">
     <g id="line2d_4">
      <g>
       <use xlink:href="#md96f0e864f" x="326.665265" y="258.84327" style="stroke: #000000; stroke-width: 0.8"/>
      </g>
     </g>
     <g id="text_4">
      <!-- $3R^*$ -->
      <g transform="translate(316.365265 273.441707) scale(0.1 -0.1)">
       <defs>
        <path id="DejaVuSans-33" d="M 2597 2516 
Q 3050 2419 3304 2112 
Q 3559 1806 3559 1356 
Q 3559 666 3084 287 
Q 2609 -91 1734 -91 
Q 1441 -91 1130 -33 
Q 819 25 488 141 
L 488 750 
Q 750 597 1062 519 
Q 1375 441 1716 441 
Q 2309 441 2620 675 
Q 2931 909 2931 1356 
Q 2931 1769 2642 2001 
Q 2353 2234 1838 2234 
L 1294 2234 
L 1294 2753 
L 1863 2753 
Q 2328 2753 2575 2939 
Q 2822 3125 2822 3475 
Q 2822 3834 2567 4026 
Q 2313 4219 1838 4219 
Q 1578 4219 1281 4162 
Q 984 4106 628 3988 
L 628 4550 
Q 988 4650 1302 4700 
Q 1616 4750 1894 4750 
Q 2613 4750 3031 4423 
Q 3450 4097 3450 3541 
Q 3450 3153 3228 2886 
Q 3006 2619 2597 2516 
z
" transform="scale(0.015625)"/>
       </defs>
       <use xlink:href="#DejaVuSans-33" transform="translate(0 0.765625)"/>
       <use xlink:href="#DejaVuSans-Oblique-52" transform="translate(63.623047 0.765625)"/>
       <use xlink:href="#DejaVuSans-2a" transform="translate(153.759935 39.046875) scale(0.7)"/>
      </g>
     </g>
    </g>
    <g id="xtick_5">
     <g id="line2d_5">
      <g>
       <use xlink:href="#md96f0e864f" x="422.89952" y="258.84327" style="stroke: #000000; stroke-width: 0.8"/>
      </g>
     </g>
     <g id="text_5">
      <!-- $4R^*$ -->
      <g transform="translate(412.59952 273.441707) scale(0.1 -0.1)">
       <defs>
        <path id="DejaVuSans-34" d="M 2419 4116 
L 825 1625 
L 2419 1625 
L 2419 4116 
z
M 2253 4666 
L 3047 4666 
L 3047 1625 
L 3713 1625 
L 3713 1100 
L 3047 1100 
L 3047 0 
L 2419 0 
L 2419 1100 
L 313 1100 
L 313 1709 
L 2253 4666 
z
" transform="scale(0.015625)"/>
       </defs>
       <use xlink:href="#DejaVuSans-34" transform="translate(0 0.765625)"/>
       <use xlink:href="#DejaVuSans-Oblique-52" transform="translate(63.623047 0.765625)"/>
       <use xlink:href="#DejaVuSans-2a" transform="translate(153.759935 39.046875) scale(0.7)"/>
      </g>
     </g>
    </g>
    <g id="text_6">
     <!-- $R$ -->
     <g transform="translate(226.93101 287.119832) scale(0.1 -0.1)">
      <use xlink:href="#DejaVuSans-Oblique-52" transform="translate(0 0.09375)"/>
     </g>
    </g>
   </g>
   <g id="matplotlib.axis_2">
    <g id="ytick_1">
     <g id="line2d_6">
      <defs>
       <path id="m88095754a9" d="M 0 0 
L -3.5 0 
" style="stroke: #000000; stroke-width: 0.8"/>
      </defs>
      <g>
       <use xlink:href="#m88095754a9" x="37.9625" y="247.40494" style="stroke: #000000; stroke-width: 0.8"/>
      </g>
     </g>
     <g id="text_7">
      <!-- 0 -->
      <g transform="translate(24.6 251.204158) scale(0.1 -0.1)">
       <use xlink:href="#DejaVuSans-30"/>
      </g>
     </g>
    </g>
    <g id="ytick_2">
     <g id="line2d_7">
      <g>
       <use xlink:href="#m88095754a9" x="37.9625" y="48.120785" style="stroke: #000000; stroke-width: 0.8"/>
      </g>
     </g>
     <g id="text_8">
      <!-- 1 -->
      <g transform="translate(24.6 51.920004) scale(0.1 -0.1)">
       <defs>
        <path id="DejaVuSans-31" d="M 794 531 
L 1825 531 
L 1825 4091 
L 703 3866 
L 703 4441 
L 1819 4666 
L 2450 4666 
L 2450 531 
L 3481 531 
L 3481 0 
L 794 0 
L 794 531 
z
" transform="scale(0.015625)"/>
       </defs>
       <use xlink:href="#DejaVuSans-31"/>
      </g>
     </g>
    </g>
    <g id="text_9">
     <!-- $\hat{\text{I}}_\text{KSG} (X;Y \, | \, r&lt;R)$ (nats) -->
     <g transform="translate(18.2 186.221635) rotate(-90) scale(0.1 -0.1)">
      <defs>
       <path id="DejaVuSans-302" d="M -1831 5119 
L -1369 5119 
L -603 3944 
L -1038 3944 
L -1600 4709 
L -2163 3944 
L -2597 3944 
L -1831 5119 
z
M -1600 3584 
L -1600 3584 
z
" transform="scale(0.015625)"/>
       <path id="DejaVuSans-49" d="M 628 4666 
L 1259 4666 
L 1259 0 
L 628 0 
L 628 4666 
z
" transform="scale(0.015625)"/>
       <path id="DejaVuSans-4b" d="M 628 4666 
L 1259 4666 
L 1259 2694 
L 3353 4666 
L 4166 4666 
L 1850 2491 
L 4331 0 
L 3500 0 
L 1259 2247 
L 1259 0 
L 628 0 
L 628 4666 
z
" transform="scale(0.015625)"/>
       <path id="DejaVuSans-53" d="M 3425 4513 
L 3425 3897 
Q 3066 4069 2747 4153 
Q 2428 4238 2131 4238 
Q 1616 4238 1336 4038 
Q 1056 3838 1056 3469 
Q 1056 3159 1242 3001 
Q 1428 2844 1947 2747 
L 2328 2669 
Q 3034 2534 3370 2195 
Q 3706 1856 3706 1288 
Q 3706 609 3251 259 
Q 2797 -91 1919 -91 
Q 1588 -91 1214 -16 
Q 841 59 441 206 
L 441 856 
Q 825 641 1194 531 
Q 1563 422 1919 422 
Q 2459 422 2753 634 
Q 3047 847 3047 1241 
Q 3047 1584 2836 1778 
Q 2625 1972 2144 2069 
L 1759 2144 
Q 1053 2284 737 2584 
Q 422 2884 422 3419 
Q 422 4038 858 4394 
Q 1294 4750 2059 4750 
Q 2388 4750 2728 4690 
Q 3069 4631 3425 4513 
z
" transform="scale(0.015625)"/>
       <path id="DejaVuSans-47" d="M 3809 666 
L 3809 1919 
L 2778 1919 
L 2778 2438 
L 4434 2438 
L 4434 434 
Q 4069 175 3628 42 
Q 3188 -91 2688 -91 
Q 1594 -91 976 548 
Q 359 1188 359 2328 
Q 359 3472 976 4111 
Q 1594 4750 2688 4750 
Q 3144 4750 3555 4637 
Q 3966 4525 4313 4306 
L 4313 3634 
Q 3963 3931 3569 4081 
Q 3175 4231 2741 4231 
Q 1884 4231 1454 3753 
Q 1025 3275 1025 2328 
Q 1025 1384 1454 906 
Q 1884 428 2741 428 
Q 3075 428 3337 486 
Q 3600 544 3809 666 
z
" transform="scale(0.015625)"/>
       <path id="DejaVuSans-28" d="M 1984 4856 
Q 1566 4138 1362 3434 
Q 1159 2731 1159 2009 
Q 1159 1288 1364 580 
Q 1569 -128 1984 -844 
L 1484 -844 
Q 1016 -109 783 600 
Q 550 1309 550 2009 
Q 550 2706 781 3412 
Q 1013 4119 1484 4856 
L 1984 4856 
z
" transform="scale(0.015625)"/>
       <path id="DejaVuSans-Oblique-58" d="M 878 4666 
L 1516 4666 
L 2316 2981 
L 3763 4666 
L 4500 4666 
L 2578 2438 
L 3738 0 
L 3103 0 
L 2163 1966 
L 459 0 
L -275 0 
L 1906 2509 
L 878 4666 
z
" transform="scale(0.015625)"/>
       <path id="DejaVuSans-3b" d="M 750 3309 
L 1409 3309 
L 1409 2516 
L 750 2516 
L 750 3309 
z
M 750 794 
L 1409 794 
L 1409 256 
L 897 -744 
L 494 -744 
L 750 256 
L 750 794 
z
" transform="scale(0.015625)"/>
       <path id="DejaVuSans-Oblique-59" d="M 403 4666 
L 1081 4666 
L 1953 2747 
L 3616 4666 
L 4325 4666 
L 2209 2222 
L 1778 0 
L 1147 0 
L 1575 2222 
L 403 4666 
z
" transform="scale(0.015625)"/>
       <path id="DejaVuSans-7c" d="M 1344 4891 
L 1344 -1509 
L 813 -1509 
L 813 4891 
L 1344 4891 
z
" transform="scale(0.015625)"/>
       <path id="DejaVuSans-Oblique-72" d="M 2853 2969 
Q 2766 3016 2653 3041 
Q 2541 3066 2413 3066 
Q 1953 3066 1609 2717 
Q 1266 2369 1153 1784 
L 800 0 
L 225 0 
L 909 3500 
L 1484 3500 
L 1375 2956 
Q 1603 3259 1920 3421 
Q 2238 3584 2597 3584 
Q 2691 3584 2781 3573 
Q 2872 3563 2963 3538 
L 2853 2969 
z
" transform="scale(0.015625)"/>
       <path id="DejaVuSans-3c" d="M 4684 3150 
L 1459 2003 
L 4684 863 
L 4684 294 
L 678 1747 
L 678 2266 
L 4684 3719 
L 4684 3150 
z
" transform="scale(0.015625)"/>
       <path id="DejaVuSans-29" d="M 513 4856 
L 1013 4856 
Q 1481 4119 1714 3412 
Q 1947 2706 1947 2009 
Q 1947 1309 1714 600 
Q 1481 -109 1013 -844 
L 513 -844 
Q 928 -128 1133 580 
Q 1338 1288 1338 2009 
Q 1338 2731 1133 3434 
Q 928 4138 513 4856 
z
" transform="scale(0.015625)"/>
       <path id="DejaVuSans-20" transform="scale(0.015625)"/>
       <path id="DejaVuSans-6e" d="M 3513 2113 
L 3513 0 
L 2938 0 
L 2938 2094 
Q 2938 2591 2744 2837 
Q 2550 3084 2163 3084 
Q 1697 3084 1428 2787 
Q 1159 2491 1159 1978 
L 1159 0 
L 581 0 
L 581 3500 
L 1159 3500 
L 1159 2956 
Q 1366 3272 1645 3428 
Q 1925 3584 2291 3584 
Q 2894 3584 3203 3211 
Q 3513 2838 3513 2113 
z
" transform="scale(0.015625)"/>
       <path id="DejaVuSans-61" d="M 2194 1759 
Q 1497 1759 1228 1600 
Q 959 1441 959 1056 
Q 959 750 1161 570 
Q 1363 391 1709 391 
Q 2188 391 2477 730 
Q 2766 1069 2766 1631 
L 2766 1759 
L 2194 1759 
z
M 3341 1997 
L 3341 0 
L 2766 0 
L 2766 531 
Q 2569 213 2275 61 
Q 1981 -91 1556 -91 
Q 1019 -91 701 211 
Q 384 513 384 1019 
Q 384 1609 779 1909 
Q 1175 2209 1959 2209 
L 2766 2209 
L 2766 2266 
Q 2766 2663 2505 2880 
Q 2244 3097 1772 3097 
Q 1472 3097 1187 3025 
Q 903 2953 641 2809 
L 641 3341 
Q 956 3463 1253 3523 
Q 1550 3584 1831 3584 
Q 2591 3584 2966 3190 
Q 3341 2797 3341 1997 
z
" transform="scale(0.015625)"/>
       <path id="DejaVuSans-74" d="M 1172 4494 
L 1172 3500 
L 2356 3500 
L 2356 3053 
L 1172 3053 
L 1172 1153 
Q 1172 725 1289 603 
Q 1406 481 1766 481 
L 2356 481 
L 2356 0 
L 1766 0 
Q 1100 0 847 248 
Q 594 497 594 1153 
L 594 3053 
L 172 3053 
L 172 3500 
L 594 3500 
L 594 4494 
L 1172 4494 
z
" transform="scale(0.015625)"/>
       <path id="DejaVuSans-73" d="M 2834 3397 
L 2834 2853 
Q 2591 2978 2328 3040 
Q 2066 3103 1784 3103 
Q 1356 3103 1142 2972 
Q 928 2841 928 2578 
Q 928 2378 1081 2264 
Q 1234 2150 1697 2047 
L 1894 2003 
Q 2506 1872 2764 1633 
Q 3022 1394 3022 966 
Q 3022 478 2636 193 
Q 2250 -91 1575 -91 
Q 1294 -91 989 -36 
Q 684 19 347 128 
L 347 722 
Q 666 556 975 473 
Q 1284 391 1588 391 
Q 1994 391 2212 530 
Q 2431 669 2431 922 
Q 2431 1156 2273 1281 
Q 2116 1406 1581 1522 
L 1381 1569 
Q 847 1681 609 1914 
Q 372 2147 372 2553 
Q 372 3047 722 3315 
Q 1072 3584 1716 3584 
Q 2034 3584 2315 3537 
Q 2597 3491 2834 3397 
z
" transform="scale(0.015625)"/>
      </defs>
      <use xlink:href="#DejaVuSans-302" transform="translate(42.951172 30.015625)"/>
      <use xlink:href="#DejaVuSans-49" transform="translate(0 0.609375)"/>
      <use xlink:href="#DejaVuSans-4b" transform="translate(30.449219 -15.796875) scale(0.7)"/>
      <use xlink:href="#DejaVuSans-53" transform="translate(76.352539 -15.796875) scale(0.7)"/>
      <use xlink:href="#DejaVuSans-47" transform="translate(120.786133 -15.796875) scale(0.7)"/>
      <use xlink:href="#DejaVuSans-28" transform="translate(177.763672 0.609375)"/>
      <use xlink:href="#DejaVuSans-Oblique-58" transform="translate(216.777344 0.609375)"/>
      <use xlink:href="#DejaVuSans-3b" transform="translate(285.283203 0.609375)"/>
      <use xlink:href="#DejaVuSans-Oblique-59" transform="translate(338.457031 0.609375)"/>
      <use xlink:href="#DejaVuSans-7c" transform="translate(415.776692 0.609375)"/>
      <use xlink:href="#DejaVuSans-Oblique-72" transform="translate(465.703774 0.609375)"/>
      <use xlink:href="#DejaVuSans-3c" transform="translate(526.299478 0.609375)"/>
      <use xlink:href="#DejaVuSans-Oblique-52" transform="translate(629.570962 0.609375)"/>
      <use xlink:href="#DejaVuSans-29" transform="translate(699.053384 0.609375)"/>
      <use xlink:href="#DejaVuSans-20" transform="translate(738.067056 0.609375)"/>
      <use xlink:href="#DejaVuSans-28" transform="translate(769.854165 0.609375)"/>
      <use xlink:href="#DejaVuSans-6e" transform="translate(808.867837 0.609375)"/>
      <use xlink:href="#DejaVuSans-61" transform="translate(872.246743 0.609375)"/>
      <use xlink:href="#DejaVuSans-74" transform="translate(933.52604 0.609375)"/>
      <use xlink:href="#DejaVuSans-73" transform="translate(972.735024 0.609375)"/>
      <use xlink:href="#DejaVuSans-29" transform="translate(1024.834634 0.609375)"/>
     </g>
    </g>
   </g>
   <g id="line2d_8">
    <path d="M 43.9625 48.120785 
L 43.9625 51.720785 
M 56.19754 48.120785 
L 56.19754 51.720785 
M 68.43258 48.120785 
L 68.43258 51.720785 
M 80.66762 48.120785 
L 80.66762 51.720785 
M 92.90266 48.120785 
L 92.90266 51.720785 
M 105.1377 48.120785 
L 105.1377 51.720785 
M 117.37274 48.120785 
L 117.37274 51.720785 
M 129.60778 48.120785 
L 129.60778 51.720785 
M 136.753595 55.326677 
L 133.360842 56.530515 
M 140.844985 66.857363 
L 137.452232 68.061201 
M 144.936376 78.388049 
L 141.543623 79.591888 
M 149.027767 89.918736 
L 145.635014 91.122574 
M 153.119157 101.449422 
L 149.726404 102.65326 
M 157.210548 112.980108 
L 153.817795 114.183946 
M 161.301939 124.510795 
L 157.909185 125.714633 
M 167.133391 135.129753 
L 164.212449 137.234057 
M 174.285127 145.056932 
L 171.364184 147.161236 
M 181.436862 154.984111 
L 178.51592 157.088415 
M 188.588598 164.91129 
L 185.667656 167.015594 
M 197.0568 173.574615 
L 194.835178 176.407352 
M 206.684201 181.125069 
L 204.462579 183.957805 
M 216.311602 188.675522 
L 214.08998 191.508259 
M 226.673043 195.051779 
L 225.099622 198.289733 
M 237.677625 200.399244 
L 236.104204 203.637198 
M 248.682207 205.746709 
L 247.108786 208.984662 
M 260.271105 209.63888 
L 259.168481 213.065864 
M 271.918129 213.386284 
L 270.815504 216.813268 
M 283.691013 216.671412 
L 282.904157 220.184368 
M 295.630222 219.34564 
L 294.843365 222.858596 
M 307.571177 222.010815 
L 306.994913 225.564393 
M 319.648448 223.969319 
L 319.072184 227.522897 
M 331.725718 225.927823 
L 331.149454 229.481401 
M 343.84588 227.583437 
L 343.412855 231.157299 
M 355.992087 229.055126 
L 355.559062 232.628988 
M 368.147214 230.44345 
L 367.81419 234.028013 
M 380.329791 231.575275 
L 379.996766 235.159838 
M 392.512368 232.7071 
L 392.179343 236.291663 
M 404.712606 233.625737 
L 404.45123 237.216236 
M 416.915355 234.514054 
L 416.653979 238.104553 
" clip-path="url(#p620379de68)" style="fill: none; stroke-dasharray: 10,2; stroke-dashoffset: 0; stroke: #000000"/>
    <path d="M 37.9625 48.120785 
L 57.209351 48.120785 
L 76.456202 48.120785 
L 95.703053 48.120785 
L 114.949904 48.120785 
L 134.196755 48.120785 
L 163.067031 129.485322 
L 191.937308 169.559567 
L 220.807584 192.201573 
L 249.677861 206.230527 
L 278.548137 215.519475 
L 307.418414 221.986042 
L 336.288691 226.667775 
L 365.158967 230.165826 
L 394.029243 232.848025 
L 422.89952 234.94968 
" clip-path="url(#p620379de68)" style="fill: none; stroke-dasharray: 10,2; stroke-dashoffset: 0; stroke: #000000"/>
   </g>
   <g id="line2d_9">
    <path d="M 37.9625 247.40494 
L 422.89952 247.40494 
" clip-path="url(#p620379de68)" style="fill: none; stroke-dasharray: 3.7,1.6; stroke-dashoffset: 0; stroke: #000000; stroke-opacity: 0.5"/>
   </g>
   <g id="line2d_10">
    <path d="M 134.196755 258.84327 
L 134.196755 7.2 
" clip-path="url(#p620379de68)" style="fill: none; stroke-dasharray: 3.7,1.6; stroke-dashoffset: 0; stroke: #000000; stroke-opacity: 0.5"/>
   </g>
   <g id="line2d_11">
    <path d="M 57.209351 247.40494 
L 76.456202 247.40494 
L 95.703053 135.93507 
L 114.949904 102.257108 
L 134.196755 18.63833 
L 163.067031 147.966431 
L 191.937308 210.488747 
L 220.807584 231.007465 
L 249.677861 241.542961 
L 278.548137 241.361895 
L 307.418414 239.710965 
L 336.288691 242.102372 
L 365.158967 244.695164 
L 394.029243 242.068297 
L 422.89952 244.959061 
" clip-path="url(#p620379de68)" style="fill: none; stroke: #1f77b4; stroke-width: 1.5; stroke-linecap: square"/>
    <defs>
     <path id="m0113fbb601" d="M 0 -4 
L -4 4 
L 4 4 
z
" style="stroke: #1f77b4; stroke-linejoin: miter"/>
    </defs>
    <g clip-path="url(#p620379de68)">
     <use xlink:href="#m0113fbb601" x="57.209351" y="247.40494" style="fill: #1f77b4; stroke: #1f77b4; stroke-linejoin: miter"/>
     <use xlink:href="#m0113fbb601" x="134.196755" y="18.63833" style="fill: #1f77b4; stroke: #1f77b4; stroke-linejoin: miter"/>
     <use xlink:href="#m0113fbb601" x="249.677861" y="241.542961" style="fill: #1f77b4; stroke: #1f77b4; stroke-linejoin: miter"/>
     <use xlink:href="#m0113fbb601" x="365.158967" y="244.695164" style="fill: #1f77b4; stroke: #1f77b4; stroke-linejoin: miter"/>
    </g>
   </g>
   <g id="line2d_12">
    <path d="M 57.209351 96.238971 
L 76.456202 56.292151 
L 95.703053 56.028692 
L 114.949904 31.034392 
L 134.196755 44.826402 
L 163.067031 178.769149 
L 191.937308 218.833848 
L 220.807584 231.321026 
L 249.677861 236.166122 
L 278.548137 244.115117 
L 307.418414 242.185791 
L 336.288691 245.892348 
L 365.158967 244.154697 
L 394.029243 245.545583 
L 422.89952 246.584359 
" clip-path="url(#p620379de68)" style="fill: none; stroke: #ff7f0e; stroke-width: 1.5; stroke-linecap: square"/>
    <defs>
     <path id="mf948535723" d="M -4 4 
L 4 4 
L 4 -4 
L -4 -4 
z
" style="stroke: #ff7f0e; stroke-linejoin: miter"/>
    </defs>
    <g clip-path="url(#p620379de68)">
     <use xlink:href="#mf948535723" x="76.456202" y="56.292151" style="fill: #ff7f0e; stroke: #ff7f0e; stroke-linejoin: miter"/>
     <use xlink:href="#mf948535723" x="163.067031" y="178.769149" style="fill: #ff7f0e; stroke: #ff7f0e; stroke-linejoin: miter"/>
     <use xlink:href="#mf948535723" x="278.548137" y="244.115117" style="fill: #ff7f0e; stroke: #ff7f0e; stroke-linejoin: miter"/>
     <use xlink:href="#mf948535723" x="394.029243" y="245.545583" style="fill: #ff7f0e; stroke: #ff7f0e; stroke-linejoin: miter"/>
    </g>
   </g>
   <g id="line2d_13">
    <path d="M 57.209351 49.558054 
L 76.456202 50.63915 
L 95.703053 43.044378 
L 114.949904 45.389717 
L 134.196755 47.760905 
L 163.067031 180.52491 
L 191.937308 215.373331 
L 220.807584 230.860172 
L 249.677861 236.664005 
L 278.548137 241.084465 
L 307.418414 242.803076 
L 336.288691 244.256646 
L 365.158967 245.362446 
L 394.029243 246.043005 
L 422.89952 246.098402 
" clip-path="url(#p620379de68)" style="fill: none; stroke: #2ca02c; stroke-width: 1.5; stroke-linecap: square"/>
    <defs>
     <path id="m3f1dff6ee3" d="M 0 4 
C 1.060812 4 2.078319 3.578535 2.828427 2.828427 
C 3.578535 2.078319 4 1.060812 4 0 
C 4 -1.060812 3.578535 -2.078319 2.828427 -2.828427 
C 2.078319 -3.578535 1.060812 -4 0 -4 
C -1.060812 -4 -2.078319 -3.578535 -2.828427 -2.828427 
C -3.578535 -2.078319 -4 -1.060812 -4 0 
C -4 1.060812 -3.578535 2.078319 -2.828427 2.828427 
C -2.078319 3.578535 -1.060812 4 0 4 
z
" style="stroke: #2ca02c"/>
    </defs>
    <g clip-path="url(#p620379de68)">
     <use xlink:href="#m3f1dff6ee3" x="95.703053" y="43.044378" style="fill: #2ca02c; stroke: #2ca02c"/>
     <use xlink:href="#m3f1dff6ee3" x="191.937308" y="215.373331" style="fill: #2ca02c; stroke: #2ca02c"/>
     <use xlink:href="#m3f1dff6ee3" x="307.418414" y="242.803076" style="fill: #2ca02c; stroke: #2ca02c"/>
     <use xlink:href="#m3f1dff6ee3" x="422.89952" y="246.098402" style="fill: #2ca02c; stroke: #2ca02c"/>
    </g>
   </g>
   <g id="line2d_14">
    <path d="M 57.209351 50.967714 
L 76.456202 47.340336 
L 95.703053 47.218222 
L 114.949904 47.750744 
L 134.196755 47.285515 
L 163.067031 180.858381 
L 191.937308 216.446932 
L 220.807584 230.706074 
L 249.677861 237.447835 
L 278.548137 241.458663 
L 307.418414 243.098513 
L 336.288691 244.772966 
L 365.158967 245.40293 
L 394.029243 245.873174 
L 422.89952 246.349749 
" clip-path="url(#p620379de68)" style="fill: none; stroke: #d62728; stroke-width: 1.5; stroke-linecap: square"/>
    <defs>
     <path id="meed5fe0df4" d="M 0 -4 
L -0.898056 -1.236068 
L -3.804226 -1.236068 
L -1.453085 0.472136 
L -2.351141 3.236068 
L -0 1.527864 
L 2.351141 3.236068 
L 1.453085 0.472136 
L 3.804226 -1.236068 
L 0.898056 -1.236068 
z
" style="stroke: #d62728; stroke-linejoin: bevel"/>
    </defs>
    <g clip-path="url(#p620379de68)">
     <use xlink:href="#meed5fe0df4" x="114.949904" y="47.750744" style="fill: #d62728; stroke: #d62728; stroke-linejoin: bevel"/>
     <use xlink:href="#meed5fe0df4" x="220.807584" y="230.706074" style="fill: #d62728; stroke: #d62728; stroke-linejoin: bevel"/>
     <use xlink:href="#meed5fe0df4" x="336.288691" y="244.772966" style="fill: #d62728; stroke: #d62728; stroke-linejoin: bevel"/>
    </g>
   </g>
   <g id="patch_3">
    <path d="M 37.9625 258.84327 
L 37.9625 7.2 
" style="fill: none; stroke: #000000; stroke-width: 0.8; stroke-linejoin: miter; stroke-linecap: square"/>
   </g>
   <g id="patch_4">
    <path d="M 422.89952 258.84327 
L 422.89952 7.2 
" style="fill: none; stroke: #000000; stroke-width: 0.8; stroke-linejoin: miter; stroke-linecap: square"/>
   </g>
   <g id="patch_5">
    <path d="M 37.9625 258.84327 
L 422.89952 258.84327 
" style="fill: none; stroke: #000000; stroke-width: 0.8; stroke-linejoin: miter; stroke-linecap: square"/>
   </g>
   <g id="patch_6">
    <path d="M 37.9625 7.2 
L 422.89952 7.2 
" style="fill: none; stroke: #000000; stroke-width: 0.8; stroke-linejoin: miter; stroke-linecap: square"/>
   </g>
   <g id="legend_1">
    <g id="patch_7">
     <path d="M 295.558895 88.590625 
L 415.89952 88.590625 
Q 417.89952 88.590625 417.89952 86.590625 
L 417.89952 14.2 
Q 417.89952 12.2 415.89952 12.2 
L 295.558895 12.2 
Q 293.558895 12.2 293.558895 14.2 
L 293.558895 86.590625 
Q 293.558895 88.590625 295.558895 88.590625 
z
" style="fill: #ffffff; opacity: 0.8; stroke: #cccccc; stroke-linejoin: miter"/>
    </g>
    <g id="line2d_15">
     <path d="M 303.558895 20.298437 
L 303.558895 23.898437 
" style="fill: none; stroke-dasharray: 10,2; stroke-dashoffset: 0; stroke: #000000"/>
     <path d="M 297.558895 20.298437 
L 307.558895 20.298437 
L 317.558895 20.298437 
" style="fill: none; stroke-dasharray: 10,2; stroke-dashoffset: 0; stroke: #000000"/>
    </g>
    <g id="text_10">
     <!-- theoretical bound -->
     <g transform="translate(325.558895 23.798437) scale(0.1 -0.1)">
      <defs>
       <path id="DejaVuSans-68" d="M 3513 2113 
L 3513 0 
L 2938 0 
L 2938 2094 
Q 2938 2591 2744 2837 
Q 2550 3084 2163 3084 
Q 1697 3084 1428 2787 
Q 1159 2491 1159 1978 
L 1159 0 
L 581 0 
L 581 4863 
L 1159 4863 
L 1159 2956 
Q 1366 3272 1645 3428 
Q 1925 3584 2291 3584 
Q 2894 3584 3203 3211 
Q 3513 2838 3513 2113 
z
" transform="scale(0.015625)"/>
       <path id="DejaVuSans-65" d="M 3597 1894 
L 3597 1613 
L 953 1613 
Q 991 1019 1311 708 
Q 1631 397 2203 397 
Q 2534 397 2845 478 
Q 3156 559 3463 722 
L 3463 178 
Q 3153 47 2828 -22 
Q 2503 -91 2169 -91 
Q 1331 -91 842 396 
Q 353 884 353 1716 
Q 353 2575 817 3079 
Q 1281 3584 2069 3584 
Q 2775 3584 3186 3129 
Q 3597 2675 3597 1894 
z
M 3022 2063 
Q 3016 2534 2758 2815 
Q 2500 3097 2075 3097 
Q 1594 3097 1305 2825 
Q 1016 2553 972 2059 
L 3022 2063 
z
" transform="scale(0.015625)"/>
       <path id="DejaVuSans-6f" d="M 1959 3097 
Q 1497 3097 1228 2736 
Q 959 2375 959 1747 
Q 959 1119 1226 758 
Q 1494 397 1959 397 
Q 2419 397 2687 759 
Q 2956 1122 2956 1747 
Q 2956 2369 2687 2733 
Q 2419 3097 1959 3097 
z
M 1959 3584 
Q 2709 3584 3137 3096 
Q 3566 2609 3566 1747 
Q 3566 888 3137 398 
Q 2709 -91 1959 -91 
Q 1206 -91 779 398 
Q 353 888 353 1747 
Q 353 2609 779 3096 
Q 1206 3584 1959 3584 
z
" transform="scale(0.015625)"/>
       <path id="DejaVuSans-72" d="M 2631 2963 
Q 2534 3019 2420 3045 
Q 2306 3072 2169 3072 
Q 1681 3072 1420 2755 
Q 1159 2438 1159 1844 
L 1159 0 
L 581 0 
L 581 3500 
L 1159 3500 
L 1159 2956 
Q 1341 3275 1631 3429 
Q 1922 3584 2338 3584 
Q 2397 3584 2469 3576 
Q 2541 3569 2628 3553 
L 2631 2963 
z
" transform="scale(0.015625)"/>
       <path id="DejaVuSans-69" d="M 603 3500 
L 1178 3500 
L 1178 0 
L 603 0 
L 603 3500 
z
M 603 4863 
L 1178 4863 
L 1178 4134 
L 603 4134 
L 603 4863 
z
" transform="scale(0.015625)"/>
       <path id="DejaVuSans-63" d="M 3122 3366 
L 3122 2828 
Q 2878 2963 2633 3030 
Q 2388 3097 2138 3097 
Q 1578 3097 1268 2742 
Q 959 2388 959 1747 
Q 959 1106 1268 751 
Q 1578 397 2138 397 
Q 2388 397 2633 464 
Q 2878 531 3122 666 
L 3122 134 
Q 2881 22 2623 -34 
Q 2366 -91 2075 -91 
Q 1284 -91 818 406 
Q 353 903 353 1747 
Q 353 2603 823 3093 
Q 1294 3584 2113 3584 
Q 2378 3584 2631 3529 
Q 2884 3475 3122 3366 
z
" transform="scale(0.015625)"/>
       <path id="DejaVuSans-6c" d="M 603 4863 
L 1178 4863 
L 1178 0 
L 603 0 
L 603 4863 
z
" transform="scale(0.015625)"/>
       <path id="DejaVuSans-62" d="M 3116 1747 
Q 3116 2381 2855 2742 
Q 2594 3103 2138 3103 
Q 1681 3103 1420 2742 
Q 1159 2381 1159 1747 
Q 1159 1113 1420 752 
Q 1681 391 2138 391 
Q 2594 391 2855 752 
Q 3116 1113 3116 1747 
z
M 1159 2969 
Q 1341 3281 1617 3432 
Q 1894 3584 2278 3584 
Q 2916 3584 3314 3078 
Q 3713 2572 3713 1747 
Q 3713 922 3314 415 
Q 2916 -91 2278 -91 
Q 1894 -91 1617 61 
Q 1341 213 1159 525 
L 1159 0 
L 581 0 
L 581 4863 
L 1159 4863 
L 1159 2969 
z
" transform="scale(0.015625)"/>
       <path id="DejaVuSans-75" d="M 544 1381 
L 544 3500 
L 1119 3500 
L 1119 1403 
Q 1119 906 1312 657 
Q 1506 409 1894 409 
Q 2359 409 2629 706 
Q 2900 1003 2900 1516 
L 2900 3500 
L 3475 3500 
L 3475 0 
L 2900 0 
L 2900 538 
Q 2691 219 2414 64 
Q 2138 -91 1772 -91 
Q 1169 -91 856 284 
Q 544 659 544 1381 
z
M 1991 3584 
L 1991 3584 
z
" transform="scale(0.015625)"/>
       <path id="DejaVuSans-64" d="M 2906 2969 
L 2906 4863 
L 3481 4863 
L 3481 0 
L 2906 0 
L 2906 525 
Q 2725 213 2448 61 
Q 2172 -91 1784 -91 
Q 1150 -91 751 415 
Q 353 922 353 1747 
Q 353 2572 751 3078 
Q 1150 3584 1784 3584 
Q 2172 3584 2448 3432 
Q 2725 3281 2906 2969 
z
M 947 1747 
Q 947 1113 1208 752 
Q 1469 391 1925 391 
Q 2381 391 2643 752 
Q 2906 1113 2906 1747 
Q 2906 2381 2643 2742 
Q 2381 3103 1925 3103 
Q 1469 3103 1208 2742 
Q 947 2381 947 1747 
z
" transform="scale(0.015625)"/>
      </defs>
      <use xlink:href="#DejaVuSans-74"/>
      <use xlink:href="#DejaVuSans-68" transform="translate(39.208984 0)"/>
      <use xlink:href="#DejaVuSans-65" transform="translate(102.587891 0)"/>
      <use xlink:href="#DejaVuSans-6f" transform="translate(164.111328 0)"/>
      <use xlink:href="#DejaVuSans-72" transform="translate(225.292969 0)"/>
      <use xlink:href="#DejaVuSans-65" transform="translate(264.15625 0)"/>
      <use xlink:href="#DejaVuSans-74" transform="translate(325.679688 0)"/>
      <use xlink:href="#DejaVuSans-69" transform="translate(364.888672 0)"/>
      <use xlink:href="#DejaVuSans-63" transform="translate(392.671875 0)"/>
      <use xlink:href="#DejaVuSans-61" transform="translate(447.652344 0)"/>
      <use xlink:href="#DejaVuSans-6c" transform="translate(508.931641 0)"/>
      <use xlink:href="#DejaVuSans-20" transform="translate(536.714844 0)"/>
      <use xlink:href="#DejaVuSans-62" transform="translate(568.501953 0)"/>
      <use xlink:href="#DejaVuSans-6f" transform="translate(631.978516 0)"/>
      <use xlink:href="#DejaVuSans-75" transform="translate(693.160156 0)"/>
      <use xlink:href="#DejaVuSans-6e" transform="translate(756.539062 0)"/>
      <use xlink:href="#DejaVuSans-64" transform="translate(819.917969 0)"/>
     </g>
    </g>
    <g id="line2d_16">
     <path d="M 297.558895 34.976562 
L 307.558895 34.976562 
L 317.558895 34.976562 
" style="fill: none; stroke: #1f77b4; stroke-width: 1.5; stroke-linecap: square"/>
     <g>
      <use xlink:href="#m0113fbb601" x="307.558895" y="34.976562" style="fill: #1f77b4; stroke: #1f77b4; stroke-linejoin: miter"/>
     </g>
    </g>
    <g id="text_11">
     <!-- $N^* = 10^2$ -->
     <g transform="translate(325.558895 38.476562) scale(0.1 -0.1)">
      <defs>
       <path id="DejaVuSans-Oblique-4e" d="M 1081 4666 
L 1931 4666 
L 3219 666 
L 4000 4666 
L 4616 4666 
L 3706 0 
L 2853 0 
L 1569 4025 
L 788 0 
L 172 0 
L 1081 4666 
z
" transform="scale(0.015625)"/>
       <path id="DejaVuSans-3d" d="M 678 2906 
L 4684 2906 
L 4684 2381 
L 678 2381 
L 678 2906 
z
M 678 1631 
L 4684 1631 
L 4684 1100 
L 678 1100 
L 678 1631 
z
" transform="scale(0.015625)"/>
      </defs>
      <use xlink:href="#DejaVuSans-Oblique-4e" transform="translate(0 0.765625)"/>
      <use xlink:href="#DejaVuSans-2a" transform="translate(95.459154 39.046875) scale(0.7)"/>
      <use xlink:href="#DejaVuSans-3d" transform="translate(166.313646 0.765625)"/>
      <use xlink:href="#DejaVuSans-31" transform="translate(269.58513 0.765625)"/>
      <use xlink:href="#DejaVuSans-30" transform="translate(333.208177 0.765625)"/>
      <use xlink:href="#DejaVuSans-32" transform="translate(397.788255 39.046875) scale(0.7)"/>
     </g>
    </g>
    <g id="line2d_17">
     <path d="M 297.558895 49.654687 
L 307.558895 49.654687 
L 317.558895 49.654687 
" style="fill: none; stroke: #ff7f0e; stroke-width: 1.5; stroke-linecap: square"/>
     <g>
      <use xlink:href="#mf948535723" x="307.558895" y="49.654687" style="fill: #ff7f0e; stroke: #ff7f0e; stroke-linejoin: miter"/>
     </g>
    </g>
    <g id="text_12">
     <!-- $N^* = 10^3$ -->
     <g transform="translate(325.558895 53.154687) scale(0.1 -0.1)">
      <use xlink:href="#DejaVuSans-Oblique-4e" transform="translate(0 0.765625)"/>
      <use xlink:href="#DejaVuSans-2a" transform="translate(95.459154 39.046875) scale(0.7)"/>
      <use xlink:href="#DejaVuSans-3d" transform="translate(166.313646 0.765625)"/>
      <use xlink:href="#DejaVuSans-31" transform="translate(269.58513 0.765625)"/>
      <use xlink:href="#DejaVuSans-30" transform="translate(333.208177 0.765625)"/>
      <use xlink:href="#DejaVuSans-33" transform="translate(397.788255 39.046875) scale(0.7)"/>
     </g>
    </g>
    <g id="line2d_18">
     <path d="M 297.558895 64.332812 
L 307.558895 64.332812 
L 317.558895 64.332812 
" style="fill: none; stroke: #2ca02c; stroke-width: 1.5; stroke-linecap: square"/>
     <g>
      <use xlink:href="#m3f1dff6ee3" x="307.558895" y="64.332812" style="fill: #2ca02c; stroke: #2ca02c"/>
     </g>
    </g>
    <g id="text_13">
     <!-- $N^* = 10^4$ -->
     <g transform="translate(325.558895 67.832812) scale(0.1 -0.1)">
      <use xlink:href="#DejaVuSans-Oblique-4e" transform="translate(0 0.765625)"/>
      <use xlink:href="#DejaVuSans-2a" transform="translate(95.459154 39.046875) scale(0.7)"/>
      <use xlink:href="#DejaVuSans-3d" transform="translate(166.313646 0.765625)"/>
      <use xlink:href="#DejaVuSans-31" transform="translate(269.58513 0.765625)"/>
      <use xlink:href="#DejaVuSans-30" transform="translate(333.208177 0.765625)"/>
      <use xlink:href="#DejaVuSans-34" transform="translate(397.788255 39.046875) scale(0.7)"/>
     </g>
    </g>
    <g id="line2d_19">
     <path d="M 297.558895 79.010937 
L 307.558895 79.010937 
L 317.558895 79.010937 
" style="fill: none; stroke: #d62728; stroke-width: 1.5; stroke-linecap: square"/>
     <g>
      <use xlink:href="#meed5fe0df4" x="307.558895" y="79.010937" style="fill: #d62728; stroke: #d62728; stroke-linejoin: bevel"/>
     </g>
    </g>
    <g id="text_14">
     <!-- $N^* = 10^5$ -->
     <g transform="translate(325.558895 82.510937) scale(0.1 -0.1)">
      <defs>
       <path id="DejaVuSans-35" d="M 691 4666 
L 3169 4666 
L 3169 4134 
L 1269 4134 
L 1269 2991 
Q 1406 3038 1543 3061 
Q 1681 3084 1819 3084 
Q 2600 3084 3056 2656 
Q 3513 2228 3513 1497 
Q 3513 744 3044 326 
Q 2575 -91 1722 -91 
Q 1428 -91 1123 -41 
Q 819 9 494 109 
L 494 744 
Q 775 591 1075 516 
Q 1375 441 1709 441 
Q 2250 441 2565 725 
Q 2881 1009 2881 1497 
Q 2881 1984 2565 2268 
Q 2250 2553 1709 2553 
Q 1456 2553 1204 2497 
Q 953 2441 691 2322 
L 691 4666 
z
" transform="scale(0.015625)"/>
      </defs>
      <use xlink:href="#DejaVuSans-Oblique-4e" transform="translate(0 0.765625)"/>
      <use xlink:href="#DejaVuSans-2a" transform="translate(95.459154 39.046875) scale(0.7)"/>
      <use xlink:href="#DejaVuSans-3d" transform="translate(166.313646 0.765625)"/>
      <use xlink:href="#DejaVuSans-31" transform="translate(269.58513 0.765625)"/>
      <use xlink:href="#DejaVuSans-30" transform="translate(333.208177 0.765625)"/>
      <use xlink:href="#DejaVuSans-35" transform="translate(397.788255 39.046875) scale(0.7)"/>
     </g>
    </g>
   </g>
  </g>
 </g>
 <defs>
  <clipPath id="p620379de68">
   <rect x="37.9625" y="7.2" width="384.93702" height="251.64327"/>
  </clipPath>
 </defs>
</svg>
