<?xml version="1.0" encoding="utf-8" standalone="no"?>
<!DOCTYPE svg PUBLIC "-//W3C//DTD SVG 1.1//EN"
  "http://www.w3.org/Graphics/SVG/1.1/DTD/svg11.dtd">
<svg xmlns:xlink="http://www.w3.org/1999/xlink" width="223.587801pt" height="224.39952pt" viewBox="0 0 223.587801 224.39952" xmlns="http://www.w3.org/2000/svg" version="1.1">
 <metadata>
  <rdf:RDF xmlns:dc="http://purl.org/dc/elements/1.1/" xmlns:cc="http://creativecommons.org/ns#" xmlns:rdf="http://www.w3.org/1999/02/22-rdf-syntax-ns#">
   <cc:Work>
    <dc:type rdf:resource="http://purl.org/dc/dcmitype/StillImage"/>
    <dc:date>2025-11-28T18:47:00.020929</dc:date>
    <dc:format>image/svg+xml</dc:format>
    <dc:creator>
     <cc:Agent>
      <dc:title>Matplotlib v3.10.5, https://matplotlib.org/</dc:title>
     </cc:Agent>
    </dc:creator>
   </cc:Work>
  </rdf:RDF>
 </metadata>
 <defs>
  <style type="text/css">*{stroke-linejoin: round; stroke-linecap: butt}</style>
 </defs>
 <g id="figure_1">
  <g id="patch_1">
   <path d="M 0 224.39952 
L 223.587801 224.39952 
L 223.587801 0 
L 0 0 
L 0 224.39952 
z
" style="fill: none"/>
  </g>
  <g id="axes_1">
   <g id="patch_2">
    <path d="M 37.3625 186.84327 
L 213.206551 186.84327 
L 213.206551 10.999219 
L 37.3625 10.999219 
L 37.3625 186.84327 
z
" style="fill: none"/>
   </g>
   <g id="matplotlib.axis_1">
    <g id="xtick_1">
     <g id="line2d_1">
      <defs>
       <path id="mab0e63b0ef" d="M 0 0 
L 0 3.5 
" style="stroke: #000000; stroke-width: 0.8"/>
      </defs>
      <g>
       <use xlink:href="#mab0e63b0ef" x="37.3625" y="186.84327" style="stroke: #000000; stroke-width: 0.8"/>
      </g>
     </g>
     <g id="text_1">
      <!-- 1 -->
      <g transform="translate(34.18125 201.441708) scale(0.1 -0.1)">
       <defs>
        <path id="DejaVuSans-31" d="M 794 531 
L 1825 531 
L 1825 4091 
L 703 3866 
L 703 4441 
L 1819 4666 
L 2450 4666 
L 2450 531 
L 3481 531 
L 3481 0 
L 794 0 
L 794 531 
z
" transform="scale(0.015625)"/>
       </defs>
       <use xlink:href="#DejaVuSans-31"/>
      </g>
     </g>
    </g>
    <g id="xtick_2">
     <g id="line2d_2">
      <g>
       <use xlink:href="#mab0e63b0ef" x="213.206551" y="186.84327" style="stroke: #000000; stroke-width: 0.8"/>
      </g>
     </g>
     <g id="text_2">
      <!-- 0 -->
      <g transform="translate(210.025301 201.441708) scale(0.1 -0.1)">
       <defs>
        <path id="DejaVuSans-30" d="M 2034 4250 
Q 1547 4250 1301 3770 
Q 1056 3291 1056 2328 
Q 1056 1369 1301 889 
Q 1547 409 2034 409 
Q 2525 409 2770 889 
Q 3016 1369 3016 2328 
Q 3016 3291 2770 3770 
Q 2525 4250 2034 4250 
z
M 2034 4750 
Q 2819 4750 3233 4129 
Q 3647 3509 3647 2328 
Q 3647 1150 3233 529 
Q 2819 -91 2034 -91 
Q 1250 -91 836 529 
Q 422 1150 422 2328 
Q 422 3509 836 4129 
Q 1250 4750 2034 4750 
z
" transform="scale(0.015625)"/>
       </defs>
       <use xlink:href="#DejaVuSans-30"/>
      </g>
     </g>
    </g>
    <g id="text_3">
     <!-- $\kappa$ -->
     <g transform="translate(122.334526 215.119833) scale(0.1 -0.1)">
      <defs>
       <path id="DejaVuSans-Oblique-3ba" d="M 938 3500 
L 1531 3500 
L 1247 2047 
L 3041 3500 
L 3741 3500 
L 2106 2181 
L 3275 0 
L 2572 0 
L 1628 1806 
L 1122 1403 
L 850 0 
L 256 0 
L 938 3500 
z
" transform="scale(0.015625)"/>
      </defs>
      <use xlink:href="#DejaVuSans-Oblique-3ba" transform="translate(0 0.3125)"/>
     </g>
    </g>
   </g>
   <g id="matplotlib.axis_2">
    <g id="ytick_1">
     <g id="line2d_3">
      <defs>
       <path id="m876c4b6054" d="M 0 0 
L -3.5 0 
" style="stroke: #000000; stroke-width: 0.8"/>
      </defs>
      <g>
       <use xlink:href="#m876c4b6054" x="37.3625" y="178.319145" style="stroke: #000000; stroke-width: 0.8"/>
      </g>
     </g>
     <g id="text_4">
      <!-- 0 -->
      <g transform="translate(24 182.118363) scale(0.1 -0.1)">
       <use xlink:href="#DejaVuSans-30"/>
      </g>
     </g>
    </g>
    <g id="ytick_2">
     <g id="line2d_4">
      <g>
       <use xlink:href="#m876c4b6054" x="37.3625" y="10.999219" style="stroke: #000000; stroke-width: 0.8"/>
      </g>
     </g>
     <g id="text_5">
      <!-- 1 -->
      <g transform="translate(24 14.798437) scale(0.1 -0.1)">
       <use xlink:href="#DejaVuSans-31"/>
      </g>
     </g>
    </g>
    <g id="text_6">
     <!-- $\hat{\text{I}}_\text{KSG}$ (nats) -->
     <g transform="translate(17.920313 124.121244) rotate(-90) scale(0.1 -0.1)">
      <defs>
       <path id="DejaVuSans-302" d="M -1831 5119 
L -1369 5119 
L -603 3944 
L -1038 3944 
L -1600 4709 
L -2163 3944 
L -2597 3944 
L -1831 5119 
z
M -1600 3584 
L -1600 3584 
z
" transform="scale(0.015625)"/>
       <path id="DejaVuSans-49" d="M 628 4666 
L 1259 4666 
L 1259 0 
L 628 0 
L 628 4666 
z
" transform="scale(0.015625)"/>
       <path id="DejaVuSans-4b" d="M 628 4666 
L 1259 4666 
L 1259 2694 
L 3353 4666 
L 4166 4666 
L 1850 2491 
L 4331 0 
L 3500 0 
L 1259 2247 
L 1259 0 
L 628 0 
L 628 4666 
z
" transform="scale(0.015625)"/>
       <path id="DejaVuSans-53" d="M 3425 4513 
L 3425 3897 
Q 3066 4069 2747 4153 
Q 2428 4238 2131 4238 
Q 1616 4238 1336 4038 
Q 1056 3838 1056 3469 
Q 1056 3159 1242 3001 
Q 1428 2844 1947 2747 
L 2328 2669 
Q 3034 2534 3370 2195 
Q 3706 1856 3706 1288 
Q 3706 609 3251 259 
Q 2797 -91 1919 -91 
Q 1588 -91 1214 -16 
Q 841 59 441 206 
L 441 856 
Q 825 641 1194 531 
Q 1563 422 1919 422 
Q 2459 422 2753 634 
Q 3047 847 3047 1241 
Q 3047 1584 2836 1778 
Q 2625 1972 2144 2069 
L 1759 2144 
Q 1053 2284 737 2584 
Q 422 2884 422 3419 
Q 422 4038 858 4394 
Q 1294 4750 2059 4750 
Q 2388 4750 2728 4690 
Q 3069 4631 3425 4513 
z
" transform="scale(0.015625)"/>
       <path id="DejaVuSans-47" d="M 3809 666 
L 3809 1919 
L 2778 1919 
L 2778 2438 
L 4434 2438 
L 4434 434 
Q 4069 175 3628 42 
Q 3188 -91 2688 -91 
Q 1594 -91 976 548 
Q 359 1188 359 2328 
Q 359 3472 976 4111 
Q 1594 4750 2688 4750 
Q 3144 4750 3555 4637 
Q 3966 4525 4313 4306 
L 4313 3634 
Q 3963 3931 3569 4081 
Q 3175 4231 2741 4231 
Q 1884 4231 1454 3753 
Q 1025 3275 1025 2328 
Q 1025 1384 1454 906 
Q 1884 428 2741 428 
Q 3075 428 3337 486 
Q 3600 544 3809 666 
z
" transform="scale(0.015625)"/>
       <path id="DejaVuSans-20" transform="scale(0.015625)"/>
       <path id="DejaVuSans-28" d="M 1984 4856 
Q 1566 4138 1362 3434 
Q 1159 2731 1159 2009 
Q 1159 1288 1364 580 
Q 1569 -128 1984 -844 
L 1484 -844 
Q 1016 -109 783 600 
Q 550 1309 550 2009 
Q 550 2706 781 3412 
Q 1013 4119 1484 4856 
L 1984 4856 
z
" transform="scale(0.015625)"/>
       <path id="DejaVuSans-6e" d="M 3513 2113 
L 3513 0 
L 2938 0 
L 2938 2094 
Q 2938 2591 2744 2837 
Q 2550 3084 2163 3084 
Q 1697 3084 1428 2787 
Q 1159 2491 1159 1978 
L 1159 0 
L 581 0 
L 581 3500 
L 1159 3500 
L 1159 2956 
Q 1366 3272 1645 3428 
Q 1925 3584 2291 3584 
Q 2894 3584 3203 3211 
Q 3513 2838 3513 2113 
z
" transform="scale(0.015625)"/>
       <path id="DejaVuSans-61" d="M 2194 1759 
Q 1497 1759 1228 1600 
Q 959 1441 959 1056 
Q 959 750 1161 570 
Q 1363 391 1709 391 
Q 2188 391 2477 730 
Q 2766 1069 2766 1631 
L 2766 1759 
L 2194 1759 
z
M 3341 1997 
L 3341 0 
L 2766 0 
L 2766 531 
Q 2569 213 2275 61 
Q 1981 -91 1556 -91 
Q 1019 -91 701 211 
Q 384 513 384 1019 
Q 384 1609 779 1909 
Q 1175 2209 1959 2209 
L 2766 2209 
L 2766 2266 
Q 2766 2663 2505 2880 
Q 2244 3097 1772 3097 
Q 1472 3097 1187 3025 
Q 903 2953 641 2809 
L 641 3341 
Q 956 3463 1253 3523 
Q 1550 3584 1831 3584 
Q 2591 3584 2966 3190 
Q 3341 2797 3341 1997 
z
" transform="scale(0.015625)"/>
       <path id="DejaVuSans-74" d="M 1172 4494 
L 1172 3500 
L 2356 3500 
L 2356 3053 
L 1172 3053 
L 1172 1153 
Q 1172 725 1289 603 
Q 1406 481 1766 481 
L 2356 481 
L 2356 0 
L 1766 0 
Q 1100 0 847 248 
Q 594 497 594 1153 
L 594 3053 
L 172 3053 
L 172 3500 
L 594 3500 
L 594 4494 
L 1172 4494 
z
" transform="scale(0.015625)"/>
       <path id="DejaVuSans-73" d="M 2834 3397 
L 2834 2853 
Q 2591 2978 2328 3040 
Q 2066 3103 1784 3103 
Q 1356 3103 1142 2972 
Q 928 2841 928 2578 
Q 928 2378 1081 2264 
Q 1234 2150 1697 2047 
L 1894 2003 
Q 2506 1872 2764 1633 
Q 3022 1394 3022 966 
Q 3022 478 2636 193 
Q 2250 -91 1575 -91 
Q 1294 -91 989 -36 
Q 684 19 347 128 
L 347 722 
Q 666 556 975 473 
Q 1284 391 1588 391 
Q 1994 391 2212 530 
Q 2431 669 2431 922 
Q 2431 1156 2273 1281 
Q 2116 1406 1581 1522 
L 1381 1569 
Q 847 1681 609 1914 
Q 372 2147 372 2553 
Q 372 3047 722 3315 
Q 1072 3584 1716 3584 
Q 2034 3584 2315 3537 
Q 2597 3491 2834 3397 
z
" transform="scale(0.015625)"/>
       <path id="DejaVuSans-29" d="M 513 4856 
L 1013 4856 
Q 1481 4119 1714 3412 
Q 1947 2706 1947 2009 
Q 1947 1309 1714 600 
Q 1481 -109 1013 -844 
L 513 -844 
Q 928 -128 1133 580 
Q 1338 1288 1338 2009 
Q 1338 2731 1133 3434 
Q 928 4138 513 4856 
z
" transform="scale(0.015625)"/>
      </defs>
      <use xlink:href="#DejaVuSans-302" transform="translate(42.951172 30.015625)"/>
      <use xlink:href="#DejaVuSans-49" transform="translate(0 0.609375)"/>
      <use xlink:href="#DejaVuSans-4b" transform="translate(30.449219 -15.796875) scale(0.7)"/>
      <use xlink:href="#DejaVuSans-53" transform="translate(76.352539 -15.796875) scale(0.7)"/>
      <use xlink:href="#DejaVuSans-47" transform="translate(120.786133 -15.796875) scale(0.7)"/>
      <use xlink:href="#DejaVuSans-20" transform="translate(177.763672 0.609375)"/>
      <use xlink:href="#DejaVuSans-28" transform="translate(209.550781 0.609375)"/>
      <use xlink:href="#DejaVuSans-6e" transform="translate(248.564453 0.609375)"/>
      <use xlink:href="#DejaVuSans-61" transform="translate(311.943359 0.609375)"/>
      <use xlink:href="#DejaVuSans-74" transform="translate(373.222656 0.609375)"/>
      <use xlink:href="#DejaVuSans-73" transform="translate(412.431641 0.609375)"/>
      <use xlink:href="#DejaVuSans-29" transform="translate(464.53125 0.609375)"/>
     </g>
    </g>
   </g>
   <g id="line2d_5">
    <path d="M 41.709186 15.135197 
L 39.227599 17.743209 
M 50.50659 23.506143 
L 48.025003 26.114155 
M 59.303995 31.877089 
L 56.822407 34.485101 
M 68.101399 40.248034 
L 65.619812 42.856046 
M 76.898803 48.61898 
L 74.417216 51.226992 
M 85.696207 56.989926 
L 83.21462 59.597938 
M 94.493611 65.360872 
L 92.012024 67.968883 
M 103.291015 73.731817 
L 100.809428 76.339829 
M 112.088419 82.102763 
L 109.606832 84.710775 
M 120.885824 90.473709 
L 118.404236 93.081721 
M 129.683228 98.844655 
L 127.201641 101.452666 
M 138.480632 107.2156 
L 135.999045 109.823612 
M 147.278036 115.586546 
L 144.796449 118.194558 
M 156.07544 123.957492 
L 153.593853 126.565504 
M 164.872844 132.328437 
L 162.391257 134.936449 
M 173.670248 140.699383 
L 171.188661 143.307395 
M 182.467653 149.070329 
L 179.986065 151.678341 
M 191.265057 157.441275 
L 188.78347 160.049286 
M 200.062461 165.81222 
L 197.580874 168.420232 
M 208.859865 174.183166 
L 206.378278 176.791178 
" clip-path="url(#p01881505f5)" style="fill: none; stroke-dasharray: 10,2; stroke-dashoffset: 0; stroke: #000000"/>
    <path d="M 37.3625 10.999219 
L 213.206551 178.319145 
" clip-path="url(#p01881505f5)" style="fill: none; stroke-dasharray: 10,2; stroke-dashoffset: 0; stroke: #000000"/>
   </g>
   <g id="line2d_6">
    <path d="M 37.3625 178.319145 
L 213.206551 178.319145 
" clip-path="url(#p01881505f5)" style="fill: none; stroke-dasharray: 3.7,1.6; stroke-dashoffset: 0; stroke: #000000; stroke-opacity: 0.5"/>
   </g>
   <g id="LineCollection_1">
    <path d="M 213.206551 178.390065 
L 213.206551 178.065257 
" clip-path="url(#p01881505f5)" style="fill: none; stroke: #1f77b4; stroke-width: 1.5"/>
    <path d="M 204.414349 177.767786 
L 204.414349 177.282661 
" clip-path="url(#p01881505f5)" style="fill: none; stroke: #1f77b4; stroke-width: 1.5"/>
    <path d="M 195.622146 176.28996 
L 195.622146 175.812887 
" clip-path="url(#p01881505f5)" style="fill: none; stroke: #1f77b4; stroke-width: 1.5"/>
    <path d="M 186.829944 174.345875 
L 186.829944 173.891564 
" clip-path="url(#p01881505f5)" style="fill: none; stroke: #1f77b4; stroke-width: 1.5"/>
    <path d="M 178.037741 171.021583 
L 178.037741 170.600347 
" clip-path="url(#p01881505f5)" style="fill: none; stroke: #1f77b4; stroke-width: 1.5"/>
    <path d="M 169.245538 166.665465 
L 169.245538 166.066231 
" clip-path="url(#p01881505f5)" style="fill: none; stroke: #1f77b4; stroke-width: 1.5"/>
    <path d="M 160.453336 162.331488 
L 160.453336 161.604937 
" clip-path="url(#p01881505f5)" style="fill: none; stroke: #1f77b4; stroke-width: 1.5"/>
    <path d="M 151.661133 157.351909 
L 151.661133 156.47238 
" clip-path="url(#p01881505f5)" style="fill: none; stroke: #1f77b4; stroke-width: 1.5"/>
    <path d="M 142.868931 151.191122 
L 142.868931 150.320051 
" clip-path="url(#p01881505f5)" style="fill: none; stroke: #1f77b4; stroke-width: 1.5"/>
    <path d="M 134.076728 144.58274 
L 134.076728 143.811724 
" clip-path="url(#p01881505f5)" style="fill: none; stroke: #1f77b4; stroke-width: 1.5"/>
    <path d="M 125.284526 138.086363 
L 125.284526 137.025353 
" clip-path="url(#p01881505f5)" style="fill: none; stroke: #1f77b4; stroke-width: 1.5"/>
    <path d="M 116.492323 129.447298 
L 116.492323 128.622998 
" clip-path="url(#p01881505f5)" style="fill: none; stroke: #1f77b4; stroke-width: 1.5"/>
    <path d="M 107.70012 121.50138 
L 107.70012 120.305084 
" clip-path="url(#p01881505f5)" style="fill: none; stroke: #1f77b4; stroke-width: 1.5"/>
    <path d="M 98.907918 111.926681 
L 98.907918 110.779333 
" clip-path="url(#p01881505f5)" style="fill: none; stroke: #1f77b4; stroke-width: 1.5"/>
    <path d="M 90.115715 102.118525 
L 90.115715 100.903964 
" clip-path="url(#p01881505f5)" style="fill: none; stroke: #1f77b4; stroke-width: 1.5"/>
    <path d="M 81.323513 90.270141 
L 81.323513 89.304995 
" clip-path="url(#p01881505f5)" style="fill: none; stroke: #1f77b4; stroke-width: 1.5"/>
    <path d="M 72.53131 78.340797 
L 72.53131 77.314704 
" clip-path="url(#p01881505f5)" style="fill: none; stroke: #1f77b4; stroke-width: 1.5"/>
    <path d="M 63.739108 65.315698 
L 63.739108 64.576524 
" clip-path="url(#p01881505f5)" style="fill: none; stroke: #1f77b4; stroke-width: 1.5"/>
    <path d="M 54.946905 50.659086 
L 54.946905 49.39713 
" clip-path="url(#p01881505f5)" style="fill: none; stroke: #1f77b4; stroke-width: 1.5"/>
    <path d="M 46.154703 32.813674 
L 46.154703 31.691143 
" clip-path="url(#p01881505f5)" style="fill: none; stroke: #1f77b4; stroke-width: 1.5"/>
    <path d="M 37.3625 10.267896 
L 37.3625 9.325962 
" clip-path="url(#p01881505f5)" style="fill: none; stroke: #1f77b4; stroke-width: 1.5"/>
   </g>
   <g id="line2d_7">
    <defs>
     <path id="m5b08cec1fa" d="M 2 0 
L -2 -0 
" style="stroke: #1f77b4"/>
    </defs>
    <g clip-path="url(#p01881505f5)">
     <use xlink:href="#m5b08cec1fa" x="213.206551" y="178.390065" style="fill: #1f77b4; stroke: #1f77b4"/>
     <use xlink:href="#m5b08cec1fa" x="204.414349" y="177.767786" style="fill: #1f77b4; stroke: #1f77b4"/>
     <use xlink:href="#m5b08cec1fa" x="195.622146" y="176.28996" style="fill: #1f77b4; stroke: #1f77b4"/>
     <use xlink:href="#m5b08cec1fa" x="186.829944" y="174.345875" style="fill: #1f77b4; stroke: #1f77b4"/>
     <use xlink:href="#m5b08cec1fa" x="178.037741" y="171.021583" style="fill: #1f77b4; stroke: #1f77b4"/>
     <use xlink:href="#m5b08cec1fa" x="169.245538" y="166.665465" style="fill: #1f77b4; stroke: #1f77b4"/>
     <use xlink:href="#m5b08cec1fa" x="160.453336" y="162.331488" style="fill: #1f77b4; stroke: #1f77b4"/>
     <use xlink:href="#m5b08cec1fa" x="151.661133" y="157.351909" style="fill: #1f77b4; stroke: #1f77b4"/>
     <use xlink:href="#m5b08cec1fa" x="142.868931" y="151.191122" style="fill: #1f77b4; stroke: #1f77b4"/>
     <use xlink:href="#m5b08cec1fa" x="134.076728" y="144.58274" style="fill: #1f77b4; stroke: #1f77b4"/>
     <use xlink:href="#m5b08cec1fa" x="125.284526" y="138.086363" style="fill: #1f77b4; stroke: #1f77b4"/>
     <use xlink:href="#m5b08cec1fa" x="116.492323" y="129.447298" style="fill: #1f77b4; stroke: #1f77b4"/>
     <use xlink:href="#m5b08cec1fa" x="107.70012" y="121.50138" style="fill: #1f77b4; stroke: #1f77b4"/>
     <use xlink:href="#m5b08cec1fa" x="98.907918" y="111.926681" style="fill: #1f77b4; stroke: #1f77b4"/>
     <use xlink:href="#m5b08cec1fa" x="90.115715" y="102.118525" style="fill: #1f77b4; stroke: #1f77b4"/>
     <use xlink:href="#m5b08cec1fa" x="81.323513" y="90.270141" style="fill: #1f77b4; stroke: #1f77b4"/>
     <use xlink:href="#m5b08cec1fa" x="72.53131" y="78.340797" style="fill: #1f77b4; stroke: #1f77b4"/>
     <use xlink:href="#m5b08cec1fa" x="63.739108" y="65.315698" style="fill: #1f77b4; stroke: #1f77b4"/>
     <use xlink:href="#m5b08cec1fa" x="54.946905" y="50.659086" style="fill: #1f77b4; stroke: #1f77b4"/>
     <use xlink:href="#m5b08cec1fa" x="46.154703" y="32.813674" style="fill: #1f77b4; stroke: #1f77b4"/>
     <use xlink:href="#m5b08cec1fa" x="37.3625" y="10.267896" style="fill: #1f77b4; stroke: #1f77b4"/>
    </g>
   </g>
   <g id="line2d_8">
    <g clip-path="url(#p01881505f5)">
     <use xlink:href="#m5b08cec1fa" x="213.206551" y="178.065257" style="fill: #1f77b4; stroke: #1f77b4"/>
     <use xlink:href="#m5b08cec1fa" x="204.414349" y="177.282661" style="fill: #1f77b4; stroke: #1f77b4"/>
     <use xlink:href="#m5b08cec1fa" x="195.622146" y="175.812887" style="fill: #1f77b4; stroke: #1f77b4"/>
     <use xlink:href="#m5b08cec1fa" x="186.829944" y="173.891564" style="fill: #1f77b4; stroke: #1f77b4"/>
     <use xlink:href="#m5b08cec1fa" x="178.037741" y="170.600347" style="fill: #1f77b4; stroke: #1f77b4"/>
     <use xlink:href="#m5b08cec1fa" x="169.245538" y="166.066231" style="fill: #1f77b4; stroke: #1f77b4"/>
     <use xlink:href="#m5b08cec1fa" x="160.453336" y="161.604937" style="fill: #1f77b4; stroke: #1f77b4"/>
     <use xlink:href="#m5b08cec1fa" x="151.661133" y="156.47238" style="fill: #1f77b4; stroke: #1f77b4"/>
     <use xlink:href="#m5b08cec1fa" x="142.868931" y="150.320051" style="fill: #1f77b4; stroke: #1f77b4"/>
     <use xlink:href="#m5b08cec1fa" x="134.076728" y="143.811724" style="fill: #1f77b4; stroke: #1f77b4"/>
     <use xlink:href="#m5b08cec1fa" x="125.284526" y="137.025353" style="fill: #1f77b4; stroke: #1f77b4"/>
     <use xlink:href="#m5b08cec1fa" x="116.492323" y="128.622998" style="fill: #1f77b4; stroke: #1f77b4"/>
     <use xlink:href="#m5b08cec1fa" x="107.70012" y="120.305084" style="fill: #1f77b4; stroke: #1f77b4"/>
     <use xlink:href="#m5b08cec1fa" x="98.907918" y="110.779333" style="fill: #1f77b4; stroke: #1f77b4"/>
     <use xlink:href="#m5b08cec1fa" x="90.115715" y="100.903964" style="fill: #1f77b4; stroke: #1f77b4"/>
     <use xlink:href="#m5b08cec1fa" x="81.323513" y="89.304995" style="fill: #1f77b4; stroke: #1f77b4"/>
     <use xlink:href="#m5b08cec1fa" x="72.53131" y="77.314704" style="fill: #1f77b4; stroke: #1f77b4"/>
     <use xlink:href="#m5b08cec1fa" x="63.739108" y="64.576524" style="fill: #1f77b4; stroke: #1f77b4"/>
     <use xlink:href="#m5b08cec1fa" x="54.946905" y="49.39713" style="fill: #1f77b4; stroke: #1f77b4"/>
     <use xlink:href="#m5b08cec1fa" x="46.154703" y="31.691143" style="fill: #1f77b4; stroke: #1f77b4"/>
     <use xlink:href="#m5b08cec1fa" x="37.3625" y="9.325962" style="fill: #1f77b4; stroke: #1f77b4"/>
    </g>
   </g>
   <g id="line2d_9">
    <path d="M 213.206551 178.227661 
L 204.414349 177.525224 
L 195.622146 176.051424 
L 186.829944 174.118719 
L 178.037741 170.810965 
L 169.245538 166.365848 
L 160.453336 161.968212 
L 151.661133 156.912145 
L 142.868931 150.755586 
L 134.076728 144.197232 
L 125.284526 137.555858 
L 116.492323 129.035148 
L 107.70012 120.903232 
L 98.907918 111.353007 
L 90.115715 101.511244 
L 81.323513 89.787568 
L 72.53131 77.82775 
L 63.739108 64.946111 
L 54.946905 50.028108 
L 46.154703 32.252408 
L 37.3625 9.796929 
" clip-path="url(#p01881505f5)" style="fill: none; stroke: #1f77b4; stroke-width: 1.5; stroke-linecap: square"/>
    <defs>
     <path id="m6a67167563" d="M -3 3 
L 3 -3 
M -3 -3 
L 3 3 
" style="stroke: #1f77b4"/>
    </defs>
    <g clip-path="url(#p01881505f5)">
     <use xlink:href="#m6a67167563" x="213.206551" y="178.227661" style="fill: #1f77b4; stroke: #1f77b4"/>
     <use xlink:href="#m6a67167563" x="204.414349" y="177.525224" style="fill: #1f77b4; stroke: #1f77b4"/>
     <use xlink:href="#m6a67167563" x="195.622146" y="176.051424" style="fill: #1f77b4; stroke: #1f77b4"/>
     <use xlink:href="#m6a67167563" x="186.829944" y="174.118719" style="fill: #1f77b4; stroke: #1f77b4"/>
     <use xlink:href="#m6a67167563" x="178.037741" y="170.810965" style="fill: #1f77b4; stroke: #1f77b4"/>
     <use xlink:href="#m6a67167563" x="169.245538" y="166.365848" style="fill: #1f77b4; stroke: #1f77b4"/>
     <use xlink:href="#m6a67167563" x="160.453336" y="161.968212" style="fill: #1f77b4; stroke: #1f77b4"/>
     <use xlink:href="#m6a67167563" x="151.661133" y="156.912145" style="fill: #1f77b4; stroke: #1f77b4"/>
     <use xlink:href="#m6a67167563" x="142.868931" y="150.755586" style="fill: #1f77b4; stroke: #1f77b4"/>
     <use xlink:href="#m6a67167563" x="134.076728" y="144.197232" style="fill: #1f77b4; stroke: #1f77b4"/>
     <use xlink:href="#m6a67167563" x="125.284526" y="137.555858" style="fill: #1f77b4; stroke: #1f77b4"/>
     <use xlink:href="#m6a67167563" x="116.492323" y="129.035148" style="fill: #1f77b4; stroke: #1f77b4"/>
     <use xlink:href="#m6a67167563" x="107.70012" y="120.903232" style="fill: #1f77b4; stroke: #1f77b4"/>
     <use xlink:href="#m6a67167563" x="98.907918" y="111.353007" style="fill: #1f77b4; stroke: #1f77b4"/>
     <use xlink:href="#m6a67167563" x="90.115715" y="101.511244" style="fill: #1f77b4; stroke: #1f77b4"/>
     <use xlink:href="#m6a67167563" x="81.323513" y="89.787568" style="fill: #1f77b4; stroke: #1f77b4"/>
     <use xlink:href="#m6a67167563" x="72.53131" y="77.82775" style="fill: #1f77b4; stroke: #1f77b4"/>
     <use xlink:href="#m6a67167563" x="63.739108" y="64.946111" style="fill: #1f77b4; stroke: #1f77b4"/>
     <use xlink:href="#m6a67167563" x="54.946905" y="50.028108" style="fill: #1f77b4; stroke: #1f77b4"/>
     <use xlink:href="#m6a67167563" x="46.154703" y="32.252408" style="fill: #1f77b4; stroke: #1f77b4"/>
     <use xlink:href="#m6a67167563" x="37.3625" y="9.796929" style="fill: #1f77b4; stroke: #1f77b4"/>
    </g>
   </g>
   <g id="patch_3">
    <path d="M 37.3625 186.84327 
L 37.3625 10.999219 
" style="fill: none; stroke: #000000; stroke-width: 0.8; stroke-linejoin: miter; stroke-linecap: square"/>
   </g>
   <g id="patch_4">
    <path d="M 213.206551 186.84327 
L 213.206551 10.999219 
" style="fill: none; stroke: #000000; stroke-width: 0.8; stroke-linejoin: miter; stroke-linecap: square"/>
   </g>
   <g id="patch_5">
    <path d="M 37.3625 186.84327 
L 213.206551 186.84327 
" style="fill: none; stroke: #000000; stroke-width: 0.8; stroke-linejoin: miter; stroke-linecap: square"/>
   </g>
   <g id="patch_6">
    <path d="M 37.3625 10.999219 
L 213.206551 10.999219 
" style="fill: none; stroke: #000000; stroke-width: 0.8; stroke-linejoin: miter; stroke-linecap: square"/>
   </g>
   <g id="legend_1">
    <g id="patch_7">
     <path d="M 85.865926 52.077344 
L 206.206551 52.077344 
Q 208.206551 52.077344 208.206551 50.077344 
L 208.206551 17.999219 
Q 208.206551 15.999219 206.206551 15.999219 
L 85.865926 15.999219 
Q 83.865926 15.999219 83.865926 17.999219 
L 83.865926 50.077344 
Q 83.865926 52.077344 85.865926 52.077344 
z
" style="fill: #ffffff; opacity: 0.8; stroke: #cccccc; stroke-linejoin: miter"/>
    </g>
    <g id="line2d_10">
     <path d="M 93.865926 24.097656 
L 93.865926 27.697656 
" style="fill: none; stroke-dasharray: 10,2; stroke-dashoffset: 0; stroke: #000000"/>
     <path d="M 87.865926 24.097656 
L 97.865926 24.097656 
L 107.865926 24.097656 
" style="fill: none; stroke-dasharray: 10,2; stroke-dashoffset: 0; stroke: #000000"/>
    </g>
    <g id="text_7">
     <!-- theoretical bound -->
     <g transform="translate(115.865926 27.597656) scale(0.1 -0.1)">
      <defs>
       <path id="DejaVuSans-68" d="M 3513 2113 
L 3513 0 
L 2938 0 
L 2938 2094 
Q 2938 2591 2744 2837 
Q 2550 3084 2163 3084 
Q 1697 3084 1428 2787 
Q 1159 2491 1159 1978 
L 1159 0 
L 581 0 
L 581 4863 
L 1159 4863 
L 1159 2956 
Q 1366 3272 1645 3428 
Q 1925 3584 2291 3584 
Q 2894 3584 3203 3211 
Q 3513 2838 3513 2113 
z
" transform="scale(0.015625)"/>
       <path id="DejaVuSans-65" d="M 3597 1894 
L 3597 1613 
L 953 1613 
Q 991 1019 1311 708 
Q 1631 397 2203 397 
Q 2534 397 2845 478 
Q 3156 559 3463 722 
L 3463 178 
Q 3153 47 2828 -22 
Q 2503 -91 2169 -91 
Q 1331 -91 842 396 
Q 353 884 353 1716 
Q 353 2575 817 3079 
Q 1281 3584 2069 3584 
Q 2775 3584 3186 3129 
Q 3597 2675 3597 1894 
z
M 3022 2063 
Q 3016 2534 2758 2815 
Q 2500 3097 2075 3097 
Q 1594 3097 1305 2825 
Q 1016 2553 972 2059 
L 3022 2063 
z
" transform="scale(0.015625)"/>
       <path id="DejaVuSans-6f" d="M 1959 3097 
Q 1497 3097 1228 2736 
Q 959 2375 959 1747 
Q 959 1119 1226 758 
Q 1494 397 1959 397 
Q 2419 397 2687 759 
Q 2956 1122 2956 1747 
Q 2956 2369 2687 2733 
Q 2419 3097 1959 3097 
z
M 1959 3584 
Q 2709 3584 3137 3096 
Q 3566 2609 3566 1747 
Q 3566 888 3137 398 
Q 2709 -91 1959 -91 
Q 1206 -91 779 398 
Q 353 888 353 1747 
Q 353 2609 779 3096 
Q 1206 3584 1959 3584 
z
" transform="scale(0.015625)"/>
       <path id="DejaVuSans-72" d="M 2631 2963 
Q 2534 3019 2420 3045 
Q 2306 3072 2169 3072 
Q 1681 3072 1420 2755 
Q 1159 2438 1159 1844 
L 1159 0 
L 581 0 
L 581 3500 
L 1159 3500 
L 1159 2956 
Q 1341 3275 1631 3429 
Q 1922 3584 2338 3584 
Q 2397 3584 2469 3576 
Q 2541 3569 2628 3553 
L 2631 2963 
z
" transform="scale(0.015625)"/>
       <path id="DejaVuSans-69" d="M 603 3500 
L 1178 3500 
L 1178 0 
L 603 0 
L 603 3500 
z
M 603 4863 
L 1178 4863 
L 1178 4134 
L 603 4134 
L 603 4863 
z
" transform="scale(0.015625)"/>
       <path id="DejaVuSans-63" d="M 3122 3366 
L 3122 2828 
Q 2878 2963 2633 3030 
Q 2388 3097 2138 3097 
Q 1578 3097 1268 2742 
Q 959 2388 959 1747 
Q 959 1106 1268 751 
Q 1578 397 2138 397 
Q 2388 397 2633 464 
Q 2878 531 3122 666 
L 3122 134 
Q 2881 22 2623 -34 
Q 2366 -91 2075 -91 
Q 1284 -91 818 406 
Q 353 903 353 1747 
Q 353 2603 823 3093 
Q 1294 3584 2113 3584 
Q 2378 3584 2631 3529 
Q 2884 3475 3122 3366 
z
" transform="scale(0.015625)"/>
       <path id="DejaVuSans-6c" d="M 603 4863 
L 1178 4863 
L 1178 0 
L 603 0 
L 603 4863 
z
" transform="scale(0.015625)"/>
       <path id="DejaVuSans-62" d="M 3116 1747 
Q 3116 2381 2855 2742 
Q 2594 3103 2138 3103 
Q 1681 3103 1420 2742 
Q 1159 2381 1159 1747 
Q 1159 1113 1420 752 
Q 1681 391 2138 391 
Q 2594 391 2855 752 
Q 3116 1113 3116 1747 
z
M 1159 2969 
Q 1341 3281 1617 3432 
Q 1894 3584 2278 3584 
Q 2916 3584 3314 3078 
Q 3713 2572 3713 1747 
Q 3713 922 3314 415 
Q 2916 -91 2278 -91 
Q 1894 -91 1617 61 
Q 1341 213 1159 525 
L 1159 0 
L 581 0 
L 581 4863 
L 1159 4863 
L 1159 2969 
z
" transform="scale(0.015625)"/>
       <path id="DejaVuSans-75" d="M 544 1381 
L 544 3500 
L 1119 3500 
L 1119 1403 
Q 1119 906 1312 657 
Q 1506 409 1894 409 
Q 2359 409 2629 706 
Q 2900 1003 2900 1516 
L 2900 3500 
L 3475 3500 
L 3475 0 
L 2900 0 
L 2900 538 
Q 2691 219 2414 64 
Q 2138 -91 1772 -91 
Q 1169 -91 856 284 
Q 544 659 544 1381 
z
M 1991 3584 
L 1991 3584 
z
" transform="scale(0.015625)"/>
       <path id="DejaVuSans-64" d="M 2906 2969 
L 2906 4863 
L 3481 4863 
L 3481 0 
L 2906 0 
L 2906 525 
Q 2725 213 2448 61 
Q 2172 -91 1784 -91 
Q 1150 -91 751 415 
Q 353 922 353 1747 
Q 353 2572 751 3078 
Q 1150 3584 1784 3584 
Q 2172 3584 2448 3432 
Q 2725 3281 2906 2969 
z
M 947 1747 
Q 947 1113 1208 752 
Q 1469 391 1925 391 
Q 2381 391 2643 752 
Q 2906 1113 2906 1747 
Q 2906 2381 2643 2742 
Q 2381 3103 1925 3103 
Q 1469 3103 1208 2742 
Q 947 2381 947 1747 
z
" transform="scale(0.015625)"/>
      </defs>
      <use xlink:href="#DejaVuSans-74"/>
      <use xlink:href="#DejaVuSans-68" transform="translate(39.208984 0)"/>
      <use xlink:href="#DejaVuSans-65" transform="translate(102.587891 0)"/>
      <use xlink:href="#DejaVuSans-6f" transform="translate(164.111328 0)"/>
      <use xlink:href="#DejaVuSans-72" transform="translate(225.292969 0)"/>
      <use xlink:href="#DejaVuSans-65" transform="translate(264.15625 0)"/>
      <use xlink:href="#DejaVuSans-74" transform="translate(325.679688 0)"/>
      <use xlink:href="#DejaVuSans-69" transform="translate(364.888672 0)"/>
      <use xlink:href="#DejaVuSans-63" transform="translate(392.671875 0)"/>
      <use xlink:href="#DejaVuSans-61" transform="translate(447.652344 0)"/>
      <use xlink:href="#DejaVuSans-6c" transform="translate(508.931641 0)"/>
      <use xlink:href="#DejaVuSans-20" transform="translate(536.714844 0)"/>
      <use xlink:href="#DejaVuSans-62" transform="translate(568.501953 0)"/>
      <use xlink:href="#DejaVuSans-6f" transform="translate(631.978516 0)"/>
      <use xlink:href="#DejaVuSans-75" transform="translate(693.160156 0)"/>
      <use xlink:href="#DejaVuSans-6e" transform="translate(756.539062 0)"/>
      <use xlink:href="#DejaVuSans-64" transform="translate(819.917969 0)"/>
     </g>
    </g>
    <g id="LineCollection_2">
     <path d="M 97.865926 47.177344 
L 97.865926 37.177344 
" style="fill: none; stroke: #1f77b4; stroke-width: 1.5"/>
    </g>
    <g id="line2d_11">
     <g>
      <use xlink:href="#m5b08cec1fa" x="97.865926" y="47.177344" style="fill: #1f77b4; stroke: #1f77b4"/>
     </g>
    </g>
    <g id="line2d_12">
     <g>
      <use xlink:href="#m5b08cec1fa" x="97.865926" y="37.177344" style="fill: #1f77b4; stroke: #1f77b4"/>
     </g>
    </g>
    <g id="line2d_13">
     <path d="M 87.865926 42.177344 
L 107.865926 42.177344 
" style="fill: none; stroke: #1f77b4; stroke-width: 1.5; stroke-linecap: square"/>
    </g>
    <g id="line2d_14">
     <g>
      <use xlink:href="#m6a67167563" x="97.865926" y="42.177344" style="fill: #1f77b4; stroke: #1f77b4"/>
     </g>
    </g>
    <g id="text_8">
     <!-- $\hat{\text{I}}_\text{KSG} ( X;Y \, | \, \kappa )$ -->
     <g transform="translate(115.865926 45.677344) scale(0.1 -0.1)">
      <defs>
       <path id="DejaVuSans-Oblique-58" d="M 878 4666 
L 1516 4666 
L 2316 2981 
L 3763 4666 
L 4500 4666 
L 2578 2438 
L 3738 0 
L 3103 0 
L 2163 1966 
L 459 0 
L -275 0 
L 1906 2509 
L 878 4666 
z
" transform="scale(0.015625)"/>
       <path id="DejaVuSans-3b" d="M 750 3309 
L 1409 3309 
L 1409 2516 
L 750 2516 
L 750 3309 
z
M 750 794 
L 1409 794 
L 1409 256 
L 897 -744 
L 494 -744 
L 750 256 
L 750 794 
z
" transform="scale(0.015625)"/>
       <path id="DejaVuSans-Oblique-59" d="M 403 4666 
L 1081 4666 
L 1953 2747 
L 3616 4666 
L 4325 4666 
L 2209 2222 
L 1778 0 
L 1147 0 
L 1575 2222 
L 403 4666 
z
" transform="scale(0.015625)"/>
       <path id="DejaVuSans-7c" d="M 1344 4891 
L 1344 -1509 
L 813 -1509 
L 813 4891 
L 1344 4891 
z
" transform="scale(0.015625)"/>
      </defs>
      <use xlink:href="#DejaVuSans-302" transform="translate(42.951172 30.015625)"/>
      <use xlink:href="#DejaVuSans-49" transform="translate(0 0.609375)"/>
      <use xlink:href="#DejaVuSans-4b" transform="translate(30.449219 -15.796875) scale(0.7)"/>
      <use xlink:href="#DejaVuSans-53" transform="translate(76.352539 -15.796875) scale(0.7)"/>
      <use xlink:href="#DejaVuSans-47" transform="translate(120.786133 -15.796875) scale(0.7)"/>
      <use xlink:href="#DejaVuSans-28" transform="translate(177.763672 0.609375)"/>
      <use xlink:href="#DejaVuSans-Oblique-58" transform="translate(216.777344 0.609375)"/>
      <use xlink:href="#DejaVuSans-3b" transform="translate(285.283203 0.609375)"/>
      <use xlink:href="#DejaVuSans-Oblique-59" transform="translate(338.457031 0.609375)"/>
      <use xlink:href="#DejaVuSans-7c" transform="translate(415.776692 0.609375)"/>
      <use xlink:href="#DejaVuSans-Oblique-3ba" transform="translate(465.703774 0.609375)"/>
      <use xlink:href="#DejaVuSans-29" transform="translate(524.639321 0.609375)"/>
     </g>
    </g>
   </g>
  </g>
 </g>
 <defs>
  <clipPath id="p01881505f5">
   <rect x="37.3625" y="10.999219" width="175.844051" height="175.844051"/>
  </clipPath>
 </defs>
</svg>
