<?xml version="1.0" encoding="utf-8" standalone="no"?>
<!DOCTYPE svg PUBLIC "-//W3C//DTD SVG 1.1//EN"
  "http://www.w3.org/Graphics/SVG/1.1/DTD/svg11.dtd">
<svg xmlns:xlink="http://www.w3.org/1999/xlink" width="177.091683pt" height="368.39952pt" viewBox="0 0 177.091683 368.39952" xmlns="http://www.w3.org/2000/svg" version="1.1">
 <metadata>
  <rdf:RDF xmlns:dc="http://purl.org/dc/elements/1.1/" xmlns:cc="http://creativecommons.org/ns#" xmlns:rdf="http://www.w3.org/1999/02/22-rdf-syntax-ns#">
   <cc:Work>
    <dc:type rdf:resource="http://purl.org/dc/dcmitype/StillImage"/>
    <dc:date>2025-11-28T10:52:43.142394</dc:date>
    <dc:format>image/svg+xml</dc:format>
    <dc:creator>
     <cc:Agent>
      <dc:title>Matplotlib v3.10.0, https://matplotlib.org/</dc:title>
     </cc:Agent>
    </dc:creator>
   </cc:Work>
  </rdf:RDF>
 </metadata>
 <defs>
  <style type="text/css">*{stroke-linejoin: round; stroke-linecap: butt}</style>
 </defs>
 <g id="figure_1">
  <g id="patch_1">
   <path d="M 0 368.39952 
L 177.091683 368.39952 
L 177.091683 0 
L 0 0 
L 0 368.39952 
z
" style="fill: none"/>
  </g>
  <g id="axes_1">
   <g id="patch_2">
    <path d="M 40.603125 330.421395 
L 169.891683 330.421395 
L 169.891683 7.2 
L 40.603125 7.2 
L 40.603125 330.421395 
z
" style="fill: none"/>
   </g>
   <g id="matplotlib.axis_1">
    <g id="xtick_1">
     <g id="line2d_1">
      <defs>
       <path id="mb5d5e55c24" d="M 0 0 
L 0 3.5 
" style="stroke: #000000; stroke-width: 0.8"/>
      </defs>
      <g>
       <use xlink:href="#mb5d5e55c24" x="71.463812" y="330.421395" style="stroke: #000000; stroke-width: 0.8"/>
      </g>
     </g>
     <g id="text_1">
      <!-- −0.5 -->
      <g transform="translate(59.322406 345.019832) scale(0.1 -0.1)">
       <defs>
        <path id="DejaVuSans-2212" d="M 678 2272 
L 4684 2272 
L 4684 1741 
L 678 1741 
L 678 2272 
z
" transform="scale(0.015625)"/>
        <path id="DejaVuSans-30" d="M 2034 4250 
Q 1547 4250 1301 3770 
Q 1056 3291 1056 2328 
Q 1056 1369 1301 889 
Q 1547 409 2034 409 
Q 2525 409 2770 889 
Q 3016 1369 3016 2328 
Q 3016 3291 2770 3770 
Q 2525 4250 2034 4250 
z
M 2034 4750 
Q 2819 4750 3233 4129 
Q 3647 3509 3647 2328 
Q 3647 1150 3233 529 
Q 2819 -91 2034 -91 
Q 1250 -91 836 529 
Q 422 1150 422 2328 
Q 422 3509 836 4129 
Q 1250 4750 2034 4750 
z
" transform="scale(0.015625)"/>
        <path id="DejaVuSans-2e" d="M 684 794 
L 1344 794 
L 1344 0 
L 684 0 
L 684 794 
z
" transform="scale(0.015625)"/>
        <path id="DejaVuSans-35" d="M 691 4666 
L 3169 4666 
L 3169 4134 
L 1269 4134 
L 1269 2991 
Q 1406 3038 1543 3061 
Q 1681 3084 1819 3084 
Q 2600 3084 3056 2656 
Q 3513 2228 3513 1497 
Q 3513 744 3044 326 
Q 2575 -91 1722 -91 
Q 1428 -91 1123 -41 
Q 819 9 494 109 
L 494 744 
Q 775 591 1075 516 
Q 1375 441 1709 441 
Q 2250 441 2565 725 
Q 2881 1009 2881 1497 
Q 2881 1984 2565 2268 
Q 2250 2553 1709 2553 
Q 1456 2553 1204 2497 
Q 953 2441 691 2322 
L 691 4666 
z
" transform="scale(0.015625)"/>
       </defs>
       <use xlink:href="#DejaVuSans-2212"/>
       <use xlink:href="#DejaVuSans-30" transform="translate(83.789062 0)"/>
       <use xlink:href="#DejaVuSans-2e" transform="translate(147.412109 0)"/>
       <use xlink:href="#DejaVuSans-35" transform="translate(179.199219 0)"/>
      </g>
     </g>
    </g>
    <g id="xtick_2">
     <g id="line2d_2">
      <g>
       <use xlink:href="#mb5d5e55c24" x="123.230525" y="330.421395" style="stroke: #000000; stroke-width: 0.8"/>
      </g>
     </g>
     <g id="text_2">
      <!-- 0.0 -->
      <g transform="translate(115.278962 345.019832) scale(0.1 -0.1)">
       <use xlink:href="#DejaVuSans-30"/>
       <use xlink:href="#DejaVuSans-2e" transform="translate(63.623047 0)"/>
       <use xlink:href="#DejaVuSans-30" transform="translate(95.410156 0)"/>
      </g>
     </g>
    </g>
    <g id="text_3">
     <!-- $\mathbb{E}[\nu\,|\,z]$ -->
     <g transform="translate(89.397404 358.79952) scale(0.1 -0.1)">
      <defs>
       <path id="STIXNonUnicode-Italic-e156" d="M 4250 4179 
L 4192 3942 
L 2150 3942 
L 1709 2266 
L 3514 2266 
L 3443 2029 
L 1645 2029 
L 1165 237 
L 3443 237 
L 3392 0 
L 109 0 
L 1229 4179 
L 4250 4179 
z
M 1914 3942 
L 1414 3942 
L 416 237 
L 928 237 
L 1914 3942 
z
" transform="scale(0.015625)"/>
       <path id="DejaVuSans-5b" d="M 550 4863 
L 1875 4863 
L 1875 4416 
L 1125 4416 
L 1125 -397 
L 1875 -397 
L 1875 -844 
L 550 -844 
L 550 4863 
z
" transform="scale(0.015625)"/>
       <path id="DejaVuSans-Oblique-3bd" d="M 959 0 
L 572 3500 
L 1191 3500 
L 1522 563 
Q 1972 950 2391 1488 
Q 2706 1891 2788 2241 
Q 2825 2406 2809 2719 
Q 2794 3091 2544 3500 
L 3125 3500 
L 3125 3500 
Q 3288 3222 3353 2834 
Q 3416 2478 3369 2234 
Q 3250 1622 2719 1075 
Q 2025 363 1572 0 
L 959 0 
z
" transform="scale(0.015625)"/>
       <path id="DejaVuSans-7c" d="M 1344 4891 
L 1344 -1509 
L 813 -1509 
L 813 4891 
L 1344 4891 
z
" transform="scale(0.015625)"/>
       <path id="DejaVuSans-Oblique-7a" d="M 744 3500 
L 3475 3500 
L 3372 2975 
L 738 459 
L 2913 459 
L 2822 0 
L -19 0 
L 84 525 
L 2719 3041 
L 653 3041 
L 744 3500 
z
" transform="scale(0.015625)"/>
       <path id="DejaVuSans-5d" d="M 1947 4863 
L 1947 -844 
L 622 -844 
L 622 -397 
L 1369 -397 
L 1369 4416 
L 622 4416 
L 622 4863 
L 1947 4863 
z
" transform="scale(0.015625)"/>
      </defs>
      <use xlink:href="#STIXNonUnicode-Italic-e156" transform="translate(0 0.578125)"/>
      <use xlink:href="#DejaVuSans-5b" transform="translate(63.899994 0.578125)"/>
      <use xlink:href="#DejaVuSans-Oblique-3bd" transform="translate(102.913666 0.578125)"/>
      <use xlink:href="#DejaVuSans-7c" transform="translate(175.008717 0.578125)"/>
      <use xlink:href="#DejaVuSans-Oblique-7a" transform="translate(224.9358 0.578125)"/>
      <use xlink:href="#DejaVuSans-5d" transform="translate(277.426034 0.578125)"/>
     </g>
    </g>
   </g>
   <g id="matplotlib.axis_2">
    <g id="ytick_1">
     <g id="line2d_3">
      <defs>
       <path id="m087a4dceaf" d="M 0 0 
L -3.5 0 
" style="stroke: #000000; stroke-width: 0.8"/>
      </defs>
      <g>
       <use xlink:href="#m087a4dceaf" x="40.603125" y="330.421395" style="stroke: #000000; stroke-width: 0.8"/>
      </g>
     </g>
     <g id="text_4">
      <!-- 0 -->
      <g transform="translate(27.240625 334.220614) scale(0.1 -0.1)">
       <use xlink:href="#DejaVuSans-30"/>
      </g>
     </g>
    </g>
    <g id="ytick_2">
     <g id="line2d_4">
      <g>
       <use xlink:href="#m087a4dceaf" x="40.603125" y="274.208978" style="stroke: #000000; stroke-width: 0.8"/>
      </g>
     </g>
     <g id="text_5">
      <!-- 2 -->
      <g transform="translate(27.240625 278.008197) scale(0.1 -0.1)">
       <defs>
        <path id="DejaVuSans-32" d="M 1228 531 
L 3431 531 
L 3431 0 
L 469 0 
L 469 531 
Q 828 903 1448 1529 
Q 2069 2156 2228 2338 
Q 2531 2678 2651 2914 
Q 2772 3150 2772 3378 
Q 2772 3750 2511 3984 
Q 2250 4219 1831 4219 
Q 1534 4219 1204 4116 
Q 875 4013 500 3803 
L 500 4441 
Q 881 4594 1212 4672 
Q 1544 4750 1819 4750 
Q 2544 4750 2975 4387 
Q 3406 4025 3406 3419 
Q 3406 3131 3298 2873 
Q 3191 2616 2906 2266 
Q 2828 2175 2409 1742 
Q 1991 1309 1228 531 
z
" transform="scale(0.015625)"/>
       </defs>
       <use xlink:href="#DejaVuSans-32"/>
      </g>
     </g>
    </g>
    <g id="ytick_3">
     <g id="line2d_5">
      <g>
       <use xlink:href="#m087a4dceaf" x="40.603125" y="217.996562" style="stroke: #000000; stroke-width: 0.8"/>
      </g>
     </g>
     <g id="text_6">
      <!-- 4 -->
      <g transform="translate(27.240625 221.795781) scale(0.1 -0.1)">
       <defs>
        <path id="DejaVuSans-34" d="M 2419 4116 
L 825 1625 
L 2419 1625 
L 2419 4116 
z
M 2253 4666 
L 3047 4666 
L 3047 1625 
L 3713 1625 
L 3713 1100 
L 3047 1100 
L 3047 0 
L 2419 0 
L 2419 1100 
L 313 1100 
L 313 1709 
L 2253 4666 
z
" transform="scale(0.015625)"/>
       </defs>
       <use xlink:href="#DejaVuSans-34"/>
      </g>
     </g>
    </g>
    <g id="ytick_4">
     <g id="line2d_6">
      <g>
       <use xlink:href="#m087a4dceaf" x="40.603125" y="161.784145" style="stroke: #000000; stroke-width: 0.8"/>
      </g>
     </g>
     <g id="text_7">
      <!-- 6 -->
      <g transform="translate(27.240625 165.583364) scale(0.1 -0.1)">
       <defs>
        <path id="DejaVuSans-36" d="M 2113 2584 
Q 1688 2584 1439 2293 
Q 1191 2003 1191 1497 
Q 1191 994 1439 701 
Q 1688 409 2113 409 
Q 2538 409 2786 701 
Q 3034 994 3034 1497 
Q 3034 2003 2786 2293 
Q 2538 2584 2113 2584 
z
M 3366 4563 
L 3366 3988 
Q 3128 4100 2886 4159 
Q 2644 4219 2406 4219 
Q 1781 4219 1451 3797 
Q 1122 3375 1075 2522 
Q 1259 2794 1537 2939 
Q 1816 3084 2150 3084 
Q 2853 3084 3261 2657 
Q 3669 2231 3669 1497 
Q 3669 778 3244 343 
Q 2819 -91 2113 -91 
Q 1303 -91 875 529 
Q 447 1150 447 2328 
Q 447 3434 972 4092 
Q 1497 4750 2381 4750 
Q 2619 4750 2861 4703 
Q 3103 4656 3366 4563 
z
" transform="scale(0.015625)"/>
       </defs>
       <use xlink:href="#DejaVuSans-36"/>
      </g>
     </g>
    </g>
    <g id="ytick_5">
     <g id="line2d_7">
      <g>
       <use xlink:href="#m087a4dceaf" x="40.603125" y="105.571729" style="stroke: #000000; stroke-width: 0.8"/>
      </g>
     </g>
     <g id="text_8">
      <!-- 8 -->
      <g transform="translate(27.240625 109.370948) scale(0.1 -0.1)">
       <defs>
        <path id="DejaVuSans-38" d="M 2034 2216 
Q 1584 2216 1326 1975 
Q 1069 1734 1069 1313 
Q 1069 891 1326 650 
Q 1584 409 2034 409 
Q 2484 409 2743 651 
Q 3003 894 3003 1313 
Q 3003 1734 2745 1975 
Q 2488 2216 2034 2216 
z
M 1403 2484 
Q 997 2584 770 2862 
Q 544 3141 544 3541 
Q 544 4100 942 4425 
Q 1341 4750 2034 4750 
Q 2731 4750 3128 4425 
Q 3525 4100 3525 3541 
Q 3525 3141 3298 2862 
Q 3072 2584 2669 2484 
Q 3125 2378 3379 2068 
Q 3634 1759 3634 1313 
Q 3634 634 3220 271 
Q 2806 -91 2034 -91 
Q 1263 -91 848 271 
Q 434 634 434 1313 
Q 434 1759 690 2068 
Q 947 2378 1403 2484 
z
M 1172 3481 
Q 1172 3119 1398 2916 
Q 1625 2713 2034 2713 
Q 2441 2713 2670 2916 
Q 2900 3119 2900 3481 
Q 2900 3844 2670 4047 
Q 2441 4250 2034 4250 
Q 1625 4250 1398 4047 
Q 1172 3844 1172 3481 
z
" transform="scale(0.015625)"/>
       </defs>
       <use xlink:href="#DejaVuSans-38"/>
      </g>
     </g>
    </g>
    <g id="ytick_6">
     <g id="line2d_8">
      <g>
       <use xlink:href="#m087a4dceaf" x="40.603125" y="49.359312" style="stroke: #000000; stroke-width: 0.8"/>
      </g>
     </g>
     <g id="text_9">
      <!-- 10 -->
      <g transform="translate(20.878125 53.158531) scale(0.1 -0.1)">
       <defs>
        <path id="DejaVuSans-31" d="M 794 531 
L 1825 531 
L 1825 4091 
L 703 3866 
L 703 4441 
L 1819 4666 
L 2450 4666 
L 2450 531 
L 3481 531 
L 3481 0 
L 794 0 
L 794 531 
z
" transform="scale(0.015625)"/>
       </defs>
       <use xlink:href="#DejaVuSans-31"/>
       <use xlink:href="#DejaVuSans-30" transform="translate(63.623047 0)"/>
      </g>
     </g>
    </g>
    <g id="text_10">
     <!-- $z$ (km) -->
     <g transform="translate(14.798438 184.710697) rotate(-90) scale(0.1 -0.1)">
      <defs>
       <path id="DejaVuSans-20" transform="scale(0.015625)"/>
       <path id="DejaVuSans-28" d="M 1984 4856 
Q 1566 4138 1362 3434 
Q 1159 2731 1159 2009 
Q 1159 1288 1364 580 
Q 1569 -128 1984 -844 
L 1484 -844 
Q 1016 -109 783 600 
Q 550 1309 550 2009 
Q 550 2706 781 3412 
Q 1013 4119 1484 4856 
L 1984 4856 
z
" transform="scale(0.015625)"/>
       <path id="DejaVuSans-6b" d="M 581 4863 
L 1159 4863 
L 1159 1991 
L 2875 3500 
L 3609 3500 
L 1753 1863 
L 3688 0 
L 2938 0 
L 1159 1709 
L 1159 0 
L 581 0 
L 581 4863 
z
" transform="scale(0.015625)"/>
       <path id="DejaVuSans-6d" d="M 3328 2828 
Q 3544 3216 3844 3400 
Q 4144 3584 4550 3584 
Q 5097 3584 5394 3201 
Q 5691 2819 5691 2113 
L 5691 0 
L 5113 0 
L 5113 2094 
Q 5113 2597 4934 2840 
Q 4756 3084 4391 3084 
Q 3944 3084 3684 2787 
Q 3425 2491 3425 1978 
L 3425 0 
L 2847 0 
L 2847 2094 
Q 2847 2600 2669 2842 
Q 2491 3084 2119 3084 
Q 1678 3084 1418 2786 
Q 1159 2488 1159 1978 
L 1159 0 
L 581 0 
L 581 3500 
L 1159 3500 
L 1159 2956 
Q 1356 3278 1631 3431 
Q 1906 3584 2284 3584 
Q 2666 3584 2933 3390 
Q 3200 3197 3328 2828 
z
" transform="scale(0.015625)"/>
       <path id="DejaVuSans-29" d="M 513 4856 
L 1013 4856 
Q 1481 4119 1714 3412 
Q 1947 2706 1947 2009 
Q 1947 1309 1714 600 
Q 1481 -109 1013 -844 
L 513 -844 
Q 928 -128 1133 580 
Q 1338 1288 1338 2009 
Q 1338 2731 1133 3434 
Q 928 4138 513 4856 
z
" transform="scale(0.015625)"/>
      </defs>
      <use xlink:href="#DejaVuSans-Oblique-7a" transform="translate(0 0.015625)"/>
      <use xlink:href="#DejaVuSans-20" transform="translate(52.490234 0.015625)"/>
      <use xlink:href="#DejaVuSans-28" transform="translate(84.277344 0.015625)"/>
      <use xlink:href="#DejaVuSans-6b" transform="translate(123.291016 0.015625)"/>
      <use xlink:href="#DejaVuSans-6d" transform="translate(181.201172 0.015625)"/>
      <use xlink:href="#DejaVuSans-29" transform="translate(278.613281 0.015625)"/>
     </g>
    </g>
   </g>
   <g id="line2d_9">
    <path d="M 123.230525 330.421395 
L 123.230525 7.2 
" clip-path="url(#p994106ed80)" style="fill: none; stroke-dasharray: 10,7; stroke-dashoffset: 12; stroke: #ffffff"/>
   </g>
   <g id="line2d_10">
    <path d="M 46.479878 323.675905 
L 61.462813 316.930415 
L 67.28174 310.184925 
L 72.227521 303.439435 
L 71.79338 296.693945 
L 79.742842 289.948455 
L 81.099164 283.202965 
L 79.147874 276.457475 
L 80.253781 269.711985 
L 74.554946 262.966495 
L 77.703606 256.221005 
L 77.85595 249.475515 
L 74.353867 242.730025 
L 75.928444 235.984535 
L 73.708157 229.239045 
L 75.355955 222.493555 
L 74.369087 215.748065 
L 73.519233 209.002575 
L 77.588785 202.257085 
L 78.446778 195.511595 
L 79.753242 188.766105 
L 84.053336 182.020615 
L 81.928293 175.275125 
L 84.107912 168.529635 
L 86.40794 161.784145 
L 86.767441 155.038655 
L 91.318511 148.293165 
L 94.51978 141.547675 
L 98.554935 134.802186 
L 97.62155 128.056696 
L 96.01666 121.311206 
L 98.495863 114.565716 
L 102.759379 107.820226 
L 104.237299 101.074736 
L 105.443521 94.329246 
L 107.823545 87.583756 
L 112.507859 80.838266 
L 116.962389 74.092776 
L 118.427036 67.347286 
L 124.901945 60.601796 
L 124.912661 53.856306 
L 127.595693 47.110816 
L 123.817449 40.365326 
L 127.566618 33.619836 
L 134.998726 26.874346 
L 148.040378 20.128856 
L 143.185947 13.383366 
L 151.684609 6.637876 
L 158.093821 -0.107614 
" clip-path="url(#p994106ed80)" style="fill: none; stroke-dasharray: 12.8,3.2,2,3.2; stroke-dashoffset: 0; stroke: #011959; stroke-width: 2"/>
    <defs>
     <path id="m16fdfab97c" d="M 0 3 
C 0.795609 3 1.55874 2.683901 2.12132 2.12132 
C 2.683901 1.55874 3 0.795609 3 0 
C 3 -0.795609 2.683901 -1.55874 2.12132 -2.12132 
C 1.55874 -2.683901 0.795609 -3 0 -3 
C -0.795609 -3 -1.55874 -2.683901 -2.12132 -2.12132 
C -2.683901 -1.55874 -3 -0.795609 -3 0 
C -3 0.795609 -2.683901 1.55874 -2.12132 2.12132 
C -1.55874 2.683901 -0.795609 3 0 3 
z
" style="stroke: #011959"/>
    </defs>
    <g clip-path="url(#p994106ed80)">
     <use xlink:href="#m16fdfab97c" x="79.147874" y="276.457475" style="fill: #011959; stroke: #011959"/>
     <use xlink:href="#m16fdfab97c" x="75.355955" y="222.493555" style="fill: #011959; stroke: #011959"/>
     <use xlink:href="#m16fdfab97c" x="84.107912" y="168.529635" style="fill: #011959; stroke: #011959"/>
     <use xlink:href="#m16fdfab97c" x="98.495863" y="114.565716" style="fill: #011959; stroke: #011959"/>
     <use xlink:href="#m16fdfab97c" x="124.901945" y="60.601796" style="fill: #011959; stroke: #011959"/>
     <use xlink:href="#m16fdfab97c" x="151.684609" y="6.637876" style="fill: #011959; stroke: #011959"/>
    </g>
   </g>
   <g id="line2d_11">
    <path d="M 83.071417 323.675905 
L 95.066451 316.930415 
L 96.580739 310.184925 
L 97.407731 303.439435 
L 99.45833 296.693945 
L 101.353483 289.948455 
L 103.475912 283.202965 
L 104.538919 276.457475 
L 104.657968 269.711985 
L 104.969615 262.966495 
L 105.219624 256.221005 
L 105.74154 249.475515 
L 105.454351 242.730025 
L 105.873984 235.984535 
L 106.485946 229.239045 
L 106.804394 222.493555 
L 107.6324 215.748065 
L 108.651989 209.002575 
L 109.445488 202.257085 
L 110.244981 195.511595 
L 111.168584 188.766105 
L 112.292893 182.020615 
L 112.86809 175.275125 
L 113.965783 168.529635 
L 114.749049 161.784145 
L 115.600363 155.038655 
L 116.434415 148.293165 
L 117.520248 141.547675 
L 118.480456 134.802186 
L 119.570641 128.056696 
L 120.708963 121.311206 
L 121.665806 114.565716 
L 122.850966 107.820226 
L 123.931863 101.074736 
L 125.065304 94.329246 
L 126.267245 87.583756 
L 127.086012 80.838266 
L 128.123472 74.092776 
L 129.484926 67.347286 
L 130.866665 60.601796 
L 132.285513 53.856306 
L 134.113232 47.110816 
L 135.803262 40.365326 
L 138.068466 33.619836 
L 139.841747 26.874346 
L 141.136276 20.128856 
L 142.353883 13.383366 
L 143.60577 6.637876 
L 145.324049 -0.107614 
" clip-path="url(#p994106ed80)" style="fill: none; stroke-dasharray: 2,3.3; stroke-dashoffset: 0; stroke: #faccfa; stroke-width: 2"/>
    <defs>
     <path id="mf227cc4f37" d="M -3 3 
L 3 3 
L 3 -3 
L -3 -3 
z
" style="stroke: #faccfa; stroke-linejoin: miter"/>
    </defs>
    <g clip-path="url(#p994106ed80)">
     <use xlink:href="#mf227cc4f37" x="95.066451" y="316.930415" style="fill: #faccfa; stroke: #faccfa; stroke-linejoin: miter"/>
     <use xlink:href="#mf227cc4f37" x="104.969615" y="262.966495" style="fill: #faccfa; stroke: #faccfa; stroke-linejoin: miter"/>
     <use xlink:href="#mf227cc4f37" x="108.651989" y="209.002575" style="fill: #faccfa; stroke: #faccfa; stroke-linejoin: miter"/>
     <use xlink:href="#mf227cc4f37" x="115.600363" y="155.038655" style="fill: #faccfa; stroke: #faccfa; stroke-linejoin: miter"/>
     <use xlink:href="#mf227cc4f37" x="123.931863" y="101.074736" style="fill: #faccfa; stroke: #faccfa; stroke-linejoin: miter"/>
     <use xlink:href="#mf227cc4f37" x="134.113232" y="47.110816" style="fill: #faccfa; stroke: #faccfa; stroke-linejoin: miter"/>
    </g>
   </g>
   <g id="line2d_12">
    <path d="M 60.179511 323.675905 
L 73.108952 316.930415 
L 78.11871 310.184925 
L 81.683065 303.439435 
L 83.889048 296.693945 
L 88.819199 289.948455 
L 91.408915 283.202965 
L 90.297576 276.457475 
L 89.423692 269.711985 
L 88.226827 262.966495 
L 89.893231 256.221005 
L 89.297402 249.475515 
L 88.263748 242.730025 
L 86.654685 235.984535 
L 86.264039 229.239045 
L 86.598309 222.493555 
L 87.532262 215.748065 
L 89.198313 209.002575 
L 90.856104 202.257085 
L 91.058107 195.511595 
L 92.536465 188.766105 
L 95.056574 182.020615 
L 96.415944 175.275125 
L 97.08112 168.529635 
L 99.751933 161.784145 
L 101.253151 155.038655 
L 102.943487 148.293165 
L 104.892009 141.547675 
L 108.065036 134.802186 
L 109.868827 128.056696 
L 111.87371 121.311206 
L 112.241635 114.565716 
L 114.398899 107.820226 
L 115.934347 101.074736 
L 118.597166 94.329246 
L 120.95324 87.583756 
L 123.841764 80.838266 
L 126.547231 74.092776 
L 129.421328 67.347286 
L 132.651219 60.601796 
L 135.610856 53.856306 
L 139.871753 47.110816 
L 142.77845 40.365326 
L 145.865047 33.619836 
L 151.76992 26.874346 
L 156.996724 20.128856 
L 158.481637 13.383366 
L 162.83481 6.637876 
L 164.01493 -0.107614 
" clip-path="url(#p994106ed80)" style="fill: none; stroke-dasharray: 7.4,3.2; stroke-dashoffset: 0; stroke: #828231; stroke-width: 2"/>
    <defs>
     <path id="mb9977a61de" d="M -3 3 
L 3 -3 
M -3 -3 
L 3 3 
" style="stroke: #828231"/>
    </defs>
    <g clip-path="url(#p994106ed80)">
     <use xlink:href="#mb9977a61de" x="81.683065" y="303.439435" style="fill: #828231; stroke: #828231"/>
     <use xlink:href="#mb9977a61de" x="89.297402" y="249.475515" style="fill: #828231; stroke: #828231"/>
     <use xlink:href="#mb9977a61de" x="91.058107" y="195.511595" style="fill: #828231; stroke: #828231"/>
     <use xlink:href="#mb9977a61de" x="104.892009" y="141.547675" style="fill: #828231; stroke: #828231"/>
     <use xlink:href="#mb9977a61de" x="120.95324" y="87.583756" style="fill: #828231; stroke: #828231"/>
     <use xlink:href="#mb9977a61de" x="145.865047" y="33.619836" style="fill: #828231; stroke: #828231"/>
    </g>
   </g>
   <g id="line2d_13">
    <path d="M 67.090856 323.675905 
L 89.096238 316.930415 
L 91.748728 310.184925 
L 92.744492 303.439435 
L 93.685558 296.693945 
L 95.387819 289.948455 
L 97.838892 283.202965 
L 97.651326 276.457475 
L 96.942483 269.711985 
L 95.890192 262.966495 
L 96.024943 256.221005 
L 95.627413 249.475515 
L 94.497673 242.730025 
L 93.313679 235.984535 
L 92.374288 229.239045 
L 92.453477 222.493555 
L 92.916549 215.748065 
L 93.92948 209.002575 
L 94.635453 202.257085 
L 95.781543 195.511595 
L 96.972903 188.766105 
L 98.575587 182.020615 
L 99.56422 175.275125 
L 101.066583 168.529635 
L 103.190703 161.784145 
L 104.380768 155.038655 
L 105.74029 148.293165 
L 107.03818 141.547675 
L 109.053466 134.802186 
L 110.196702 128.056696 
L 111.5845 121.311206 
L 112.794901 114.565716 
L 114.774938 107.820226 
L 116.638674 101.074736 
L 119.656104 94.329246 
L 122.272664 87.583756 
L 123.845028 80.838266 
L 126.190304 74.092776 
L 129.34045 67.347286 
L 132.597643 60.601796 
L 136.1372 53.856306 
L 139.505724 47.110816 
L 140.954821 40.365326 
L 143.647239 33.619836 
L 146.676812 26.874346 
L 149.501743 20.128856 
L 153.331261 13.383366 
L 155.050465 6.637876 
L 156.954089 -0.107614 
" clip-path="url(#p994106ed80)" style="fill: none; stroke: #226061; stroke-width: 2; stroke-linecap: square"/>
   </g>
   <g id="patch_3">
    <path d="M 40.603125 330.421395 
L 40.603125 7.2 
" style="fill: none; stroke: #000000; stroke-width: 0.8; stroke-linejoin: miter; stroke-linecap: square"/>
   </g>
   <g id="patch_4">
    <path d="M 169.891683 330.421395 
L 169.891683 7.2 
" style="fill: none; stroke: #000000; stroke-width: 0.8; stroke-linejoin: miter; stroke-linecap: square"/>
   </g>
   <g id="patch_5">
    <path d="M 40.603125 330.421395 
L 169.891683 330.421395 
" style="fill: none; stroke: #000000; stroke-width: 0.8; stroke-linejoin: miter; stroke-linecap: square"/>
   </g>
   <g id="patch_6">
    <path d="M 40.603125 7.2 
L 169.891683 7.2 
" style="fill: none; stroke: #000000; stroke-width: 0.8; stroke-linejoin: miter; stroke-linecap: square"/>
   </g>
  </g>
 </g>
 <defs>
  <clipPath id="p994106ed80">
   <rect x="40.603125" y="7.2" width="129.288558" height="323.221395"/>
  </clipPath>
 </defs>
</svg>
