<?xml version="1.0" encoding="utf-8" standalone="no"?>
<!DOCTYPE svg PUBLIC "-//W3C//DTD SVG 1.1//EN"
  "http://www.w3.org/Graphics/SVG/1.1/DTD/svg11.dtd">
<svg xmlns:xlink="http://www.w3.org/1999/xlink" width="234.776864pt" height="224.39952pt" viewBox="0 0 234.776864 224.39952" xmlns="http://www.w3.org/2000/svg" version="1.1">
 <metadata>
  <rdf:RDF xmlns:dc="http://purl.org/dc/elements/1.1/" xmlns:cc="http://creativecommons.org/ns#" xmlns:rdf="http://www.w3.org/1999/02/22-rdf-syntax-ns#">
   <cc:Work>
    <dc:type rdf:resource="http://purl.org/dc/dcmitype/StillImage"/>
    <dc:date>2025-12-01T16:33:34.513682</dc:date>
    <dc:format>image/svg+xml</dc:format>
    <dc:creator>
     <cc:Agent>
      <dc:title>Matplotlib v3.10.0, https://matplotlib.org/</dc:title>
     </cc:Agent>
    </dc:creator>
   </cc:Work>
  </rdf:RDF>
 </metadata>
 <defs>
  <style type="text/css">*{stroke-linejoin: round; stroke-linecap: butt}</style>
 </defs>
 <g id="figure_1">
  <g id="patch_1">
   <path d="M 0 224.39952 
L 234.776864 224.39952 
L 234.776864 0 
L 0 0 
L 0 224.39952 
z
" style="fill: none"/>
  </g>
  <g id="axes_1">
   <g id="patch_2">
    <path d="M 43.78125 186.84327 
L 219.625301 186.84327 
L 219.625301 10.999219 
L 43.78125 10.999219 
L 43.78125 186.84327 
z
" style="fill: none"/>
   </g>
   <g id="matplotlib.axis_1">
    <g id="xtick_1">
     <g id="line2d_1">
      <defs>
       <path id="m15e32232c7" d="M 0 0 
L 0 3.5 
" style="stroke: #000000; stroke-width: 0.8"/>
      </defs>
      <g>
       <use xlink:href="#m15e32232c7" x="43.78125" y="186.84327" style="stroke: #000000; stroke-width: 0.8"/>
      </g>
     </g>
     <g id="text_1">
      <!-- 0.0 -->
      <g transform="translate(35.829688 201.441708) scale(0.1 -0.1)">
       <defs>
        <path id="DejaVuSans-30" d="M 2034 4250 
Q 1547 4250 1301 3770 
Q 1056 3291 1056 2328 
Q 1056 1369 1301 889 
Q 1547 409 2034 409 
Q 2525 409 2770 889 
Q 3016 1369 3016 2328 
Q 3016 3291 2770 3770 
Q 2525 4250 2034 4250 
z
M 2034 4750 
Q 2819 4750 3233 4129 
Q 3647 3509 3647 2328 
Q 3647 1150 3233 529 
Q 2819 -91 2034 -91 
Q 1250 -91 836 529 
Q 422 1150 422 2328 
Q 422 3509 836 4129 
Q 1250 4750 2034 4750 
z
" transform="scale(0.015625)"/>
        <path id="DejaVuSans-2e" d="M 684 794 
L 1344 794 
L 1344 0 
L 684 0 
L 684 794 
z
" transform="scale(0.015625)"/>
       </defs>
       <use xlink:href="#DejaVuSans-30"/>
       <use xlink:href="#DejaVuSans-2e" transform="translate(63.623047 0)"/>
       <use xlink:href="#DejaVuSans-30" transform="translate(95.410156 0)"/>
      </g>
     </g>
    </g>
    <g id="xtick_2">
     <g id="line2d_2">
      <g>
       <use xlink:href="#m15e32232c7" x="78.95006" y="186.84327" style="stroke: #000000; stroke-width: 0.8"/>
      </g>
     </g>
     <g id="text_2">
      <!-- 0.2 -->
      <g transform="translate(70.998498 201.441708) scale(0.1 -0.1)">
       <defs>
        <path id="DejaVuSans-32" d="M 1228 531 
L 3431 531 
L 3431 0 
L 469 0 
L 469 531 
Q 828 903 1448 1529 
Q 2069 2156 2228 2338 
Q 2531 2678 2651 2914 
Q 2772 3150 2772 3378 
Q 2772 3750 2511 3984 
Q 2250 4219 1831 4219 
Q 1534 4219 1204 4116 
Q 875 4013 500 3803 
L 500 4441 
Q 881 4594 1212 4672 
Q 1544 4750 1819 4750 
Q 2544 4750 2975 4387 
Q 3406 4025 3406 3419 
Q 3406 3131 3298 2873 
Q 3191 2616 2906 2266 
Q 2828 2175 2409 1742 
Q 1991 1309 1228 531 
z
" transform="scale(0.015625)"/>
       </defs>
       <use xlink:href="#DejaVuSans-30"/>
       <use xlink:href="#DejaVuSans-2e" transform="translate(63.623047 0)"/>
       <use xlink:href="#DejaVuSans-32" transform="translate(95.410156 0)"/>
      </g>
     </g>
    </g>
    <g id="xtick_3">
     <g id="line2d_3">
      <g>
       <use xlink:href="#m15e32232c7" x="114.118871" y="186.84327" style="stroke: #000000; stroke-width: 0.8"/>
      </g>
     </g>
     <g id="text_3">
      <!-- 0.4 -->
      <g transform="translate(106.167308 201.441708) scale(0.1 -0.1)">
       <defs>
        <path id="DejaVuSans-34" d="M 2419 4116 
L 825 1625 
L 2419 1625 
L 2419 4116 
z
M 2253 4666 
L 3047 4666 
L 3047 1625 
L 3713 1625 
L 3713 1100 
L 3047 1100 
L 3047 0 
L 2419 0 
L 2419 1100 
L 313 1100 
L 313 1709 
L 2253 4666 
z
" transform="scale(0.015625)"/>
       </defs>
       <use xlink:href="#DejaVuSans-30"/>
       <use xlink:href="#DejaVuSans-2e" transform="translate(63.623047 0)"/>
       <use xlink:href="#DejaVuSans-34" transform="translate(95.410156 0)"/>
      </g>
     </g>
    </g>
    <g id="xtick_4">
     <g id="line2d_4">
      <g>
       <use xlink:href="#m15e32232c7" x="149.287681" y="186.84327" style="stroke: #000000; stroke-width: 0.8"/>
      </g>
     </g>
     <g id="text_4">
      <!-- 0.6 -->
      <g transform="translate(141.336118 201.441708) scale(0.1 -0.1)">
       <defs>
        <path id="DejaVuSans-36" d="M 2113 2584 
Q 1688 2584 1439 2293 
Q 1191 2003 1191 1497 
Q 1191 994 1439 701 
Q 1688 409 2113 409 
Q 2538 409 2786 701 
Q 3034 994 3034 1497 
Q 3034 2003 2786 2293 
Q 2538 2584 2113 2584 
z
M 3366 4563 
L 3366 3988 
Q 3128 4100 2886 4159 
Q 2644 4219 2406 4219 
Q 1781 4219 1451 3797 
Q 1122 3375 1075 2522 
Q 1259 2794 1537 2939 
Q 1816 3084 2150 3084 
Q 2853 3084 3261 2657 
Q 3669 2231 3669 1497 
Q 3669 778 3244 343 
Q 2819 -91 2113 -91 
Q 1303 -91 875 529 
Q 447 1150 447 2328 
Q 447 3434 972 4092 
Q 1497 4750 2381 4750 
Q 2619 4750 2861 4703 
Q 3103 4656 3366 4563 
z
" transform="scale(0.015625)"/>
       </defs>
       <use xlink:href="#DejaVuSans-30"/>
       <use xlink:href="#DejaVuSans-2e" transform="translate(63.623047 0)"/>
       <use xlink:href="#DejaVuSans-36" transform="translate(95.410156 0)"/>
      </g>
     </g>
    </g>
    <g id="xtick_5">
     <g id="line2d_5">
      <g>
       <use xlink:href="#m15e32232c7" x="184.456491" y="186.84327" style="stroke: #000000; stroke-width: 0.8"/>
      </g>
     </g>
     <g id="text_5">
      <!-- 0.8 -->
      <g transform="translate(176.504929 201.441708) scale(0.1 -0.1)">
       <defs>
        <path id="DejaVuSans-38" d="M 2034 2216 
Q 1584 2216 1326 1975 
Q 1069 1734 1069 1313 
Q 1069 891 1326 650 
Q 1584 409 2034 409 
Q 2484 409 2743 651 
Q 3003 894 3003 1313 
Q 3003 1734 2745 1975 
Q 2488 2216 2034 2216 
z
M 1403 2484 
Q 997 2584 770 2862 
Q 544 3141 544 3541 
Q 544 4100 942 4425 
Q 1341 4750 2034 4750 
Q 2731 4750 3128 4425 
Q 3525 4100 3525 3541 
Q 3525 3141 3298 2862 
Q 3072 2584 2669 2484 
Q 3125 2378 3379 2068 
Q 3634 1759 3634 1313 
Q 3634 634 3220 271 
Q 2806 -91 2034 -91 
Q 1263 -91 848 271 
Q 434 634 434 1313 
Q 434 1759 690 2068 
Q 947 2378 1403 2484 
z
M 1172 3481 
Q 1172 3119 1398 2916 
Q 1625 2713 2034 2713 
Q 2441 2713 2670 2916 
Q 2900 3119 2900 3481 
Q 2900 3844 2670 4047 
Q 2441 4250 2034 4250 
Q 1625 4250 1398 4047 
Q 1172 3844 1172 3481 
z
" transform="scale(0.015625)"/>
       </defs>
       <use xlink:href="#DejaVuSans-30"/>
       <use xlink:href="#DejaVuSans-2e" transform="translate(63.623047 0)"/>
       <use xlink:href="#DejaVuSans-38" transform="translate(95.410156 0)"/>
      </g>
     </g>
    </g>
    <g id="xtick_6">
     <g id="line2d_6">
      <g>
       <use xlink:href="#m15e32232c7" x="219.625301" y="186.84327" style="stroke: #000000; stroke-width: 0.8"/>
      </g>
     </g>
     <g id="text_6">
      <!-- 1.0 -->
      <g transform="translate(211.673739 201.441708) scale(0.1 -0.1)">
       <defs>
        <path id="DejaVuSans-31" d="M 794 531 
L 1825 531 
L 1825 4091 
L 703 3866 
L 703 4441 
L 1819 4666 
L 2450 4666 
L 2450 531 
L 3481 531 
L 3481 0 
L 794 0 
L 794 531 
z
" transform="scale(0.015625)"/>
       </defs>
       <use xlink:href="#DejaVuSans-31"/>
       <use xlink:href="#DejaVuSans-2e" transform="translate(63.623047 0)"/>
       <use xlink:href="#DejaVuSans-30" transform="translate(95.410156 0)"/>
      </g>
     </g>
    </g>
    <g id="text_7">
     <!-- $u$, $v$ -->
     <g transform="translate(122.353276 215.119833) scale(0.1 -0.1)">
      <defs>
       <path id="DejaVuSans-Oblique-75" d="M 428 1388 
L 838 3500 
L 1416 3500 
L 1006 1409 
Q 975 1256 961 1147 
Q 947 1038 947 966 
Q 947 700 1109 554 
Q 1272 409 1569 409 
Q 2031 409 2368 721 
Q 2706 1034 2809 1563 
L 3194 3500 
L 3769 3500 
L 3091 0 
L 2516 0 
L 2631 550 
Q 2388 244 2052 76 
Q 1716 -91 1338 -91 
Q 878 -91 622 161 
Q 366 413 366 863 
Q 366 956 381 1097 
Q 397 1238 428 1388 
z
" transform="scale(0.015625)"/>
       <path id="DejaVuSans-2c" d="M 750 794 
L 1409 794 
L 1409 256 
L 897 -744 
L 494 -744 
L 750 256 
L 750 794 
z
" transform="scale(0.015625)"/>
       <path id="DejaVuSans-20" transform="scale(0.015625)"/>
       <path id="DejaVuSans-Oblique-76" d="M 459 3500 
L 1069 3500 
L 1581 525 
L 3256 3500 
L 3866 3500 
L 1875 0 
L 1100 0 
L 459 3500 
z
" transform="scale(0.015625)"/>
      </defs>
      <use xlink:href="#DejaVuSans-Oblique-75" transform="translate(0 0.3125)"/>
      <use xlink:href="#DejaVuSans-2c" transform="translate(63.378906 0.3125)"/>
      <use xlink:href="#DejaVuSans-20" transform="translate(95.166016 0.3125)"/>
      <use xlink:href="#DejaVuSans-Oblique-76" transform="translate(126.953125 0.3125)"/>
     </g>
    </g>
   </g>
   <g id="matplotlib.axis_2">
    <g id="ytick_1">
     <g id="line2d_7">
      <defs>
       <path id="m7a23190db6" d="M 0 0 
L -3.5 0 
" style="stroke: #000000; stroke-width: 0.8"/>
      </defs>
      <g>
       <use xlink:href="#m7a23190db6" x="43.78125" y="186.84327" style="stroke: #000000; stroke-width: 0.8"/>
      </g>
     </g>
     <g id="text_8">
      <!-- 0.0 -->
      <g transform="translate(20.878125 190.642489) scale(0.1 -0.1)">
       <use xlink:href="#DejaVuSans-30"/>
       <use xlink:href="#DejaVuSans-2e" transform="translate(63.623047 0)"/>
       <use xlink:href="#DejaVuSans-30" transform="translate(95.410156 0)"/>
      </g>
     </g>
    </g>
    <g id="ytick_2">
     <g id="line2d_8">
      <g>
       <use xlink:href="#m7a23190db6" x="43.78125" y="151.67446" style="stroke: #000000; stroke-width: 0.8"/>
      </g>
     </g>
     <g id="text_9">
      <!-- 0.2 -->
      <g transform="translate(20.878125 155.473679) scale(0.1 -0.1)">
       <use xlink:href="#DejaVuSans-30"/>
       <use xlink:href="#DejaVuSans-2e" transform="translate(63.623047 0)"/>
       <use xlink:href="#DejaVuSans-32" transform="translate(95.410156 0)"/>
      </g>
     </g>
    </g>
    <g id="ytick_3">
     <g id="line2d_9">
      <g>
       <use xlink:href="#m7a23190db6" x="43.78125" y="116.50565" style="stroke: #000000; stroke-width: 0.8"/>
      </g>
     </g>
     <g id="text_10">
      <!-- 0.4 -->
      <g transform="translate(20.878125 120.304868) scale(0.1 -0.1)">
       <use xlink:href="#DejaVuSans-30"/>
       <use xlink:href="#DejaVuSans-2e" transform="translate(63.623047 0)"/>
       <use xlink:href="#DejaVuSans-34" transform="translate(95.410156 0)"/>
      </g>
     </g>
    </g>
    <g id="ytick_4">
     <g id="line2d_10">
      <g>
       <use xlink:href="#m7a23190db6" x="43.78125" y="81.336839" style="stroke: #000000; stroke-width: 0.8"/>
      </g>
     </g>
     <g id="text_11">
      <!-- 0.6 -->
      <g transform="translate(20.878125 85.136058) scale(0.1 -0.1)">
       <use xlink:href="#DejaVuSans-30"/>
       <use xlink:href="#DejaVuSans-2e" transform="translate(63.623047 0)"/>
       <use xlink:href="#DejaVuSans-36" transform="translate(95.410156 0)"/>
      </g>
     </g>
    </g>
    <g id="ytick_5">
     <g id="line2d_11">
      <g>
       <use xlink:href="#m7a23190db6" x="43.78125" y="46.168029" style="stroke: #000000; stroke-width: 0.8"/>
      </g>
     </g>
     <g id="text_12">
      <!-- 0.8 -->
      <g transform="translate(20.878125 49.967248) scale(0.1 -0.1)">
       <use xlink:href="#DejaVuSans-30"/>
       <use xlink:href="#DejaVuSans-2e" transform="translate(63.623047 0)"/>
       <use xlink:href="#DejaVuSans-38" transform="translate(95.410156 0)"/>
      </g>
     </g>
    </g>
    <g id="ytick_6">
     <g id="line2d_12">
      <g>
       <use xlink:href="#m7a23190db6" x="43.78125" y="10.999219" style="stroke: #000000; stroke-width: 0.8"/>
      </g>
     </g>
     <g id="text_13">
      <!-- 1.0 -->
      <g transform="translate(20.878125 14.798438) scale(0.1 -0.1)">
       <use xlink:href="#DejaVuSans-31"/>
       <use xlink:href="#DejaVuSans-2e" transform="translate(63.623047 0)"/>
       <use xlink:href="#DejaVuSans-30" transform="translate(95.410156 0)"/>
      </g>
     </g>
    </g>
    <g id="text_14">
     <!-- VCF -->
     <g transform="translate(14.798438 108.708744) rotate(-90) scale(0.1 -0.1)">
      <defs>
       <path id="DejaVuSans-56" d="M 1831 0 
L 50 4666 
L 709 4666 
L 2188 738 
L 3669 4666 
L 4325 4666 
L 2547 0 
L 1831 0 
z
" transform="scale(0.015625)"/>
       <path id="DejaVuSans-43" d="M 4122 4306 
L 4122 3641 
Q 3803 3938 3442 4084 
Q 3081 4231 2675 4231 
Q 1875 4231 1450 3742 
Q 1025 3253 1025 2328 
Q 1025 1406 1450 917 
Q 1875 428 2675 428 
Q 3081 428 3442 575 
Q 3803 722 4122 1019 
L 4122 359 
Q 3791 134 3420 21 
Q 3050 -91 2638 -91 
Q 1578 -91 968 557 
Q 359 1206 359 2328 
Q 359 3453 968 4101 
Q 1578 4750 2638 4750 
Q 3056 4750 3426 4639 
Q 3797 4528 4122 4306 
z
" transform="scale(0.015625)"/>
       <path id="DejaVuSans-46" d="M 628 4666 
L 3309 4666 
L 3309 4134 
L 1259 4134 
L 1259 2759 
L 3109 2759 
L 3109 2228 
L 1259 2228 
L 1259 0 
L 628 0 
L 628 4666 
z
" transform="scale(0.015625)"/>
      </defs>
      <use xlink:href="#DejaVuSans-56"/>
      <use xlink:href="#DejaVuSans-43" transform="translate(68.408203 0)"/>
      <use xlink:href="#DejaVuSans-46" transform="translate(138.232422 0)"/>
     </g>
    </g>
   </g>
   <g id="line2d_13">
    <path d="M 43.78125 195.633367 
L 43.805968 195.633367 
L 43.90484 186.837116 
L 44.572227 186.745656 
L 44.671099 186.687696 
L 45.907 186.59119 
L 46.005873 186.565475 
L 47.142902 186.458325 
L 47.241774 186.365013 
L 48.205777 186.254676 
L 48.304649 186.230573 
L 49.095626 186.119632 
L 49.194498 186.077483 
L 49.787731 185.968424 
L 49.886603 185.956622 
L 50.405682 185.846272 
L 50.504554 185.812096 
L 51.073068 185.701308 
L 51.147222 185.683227 
L 51.616865 185.593284 
L 51.715737 185.538042 
L 52.333688 185.428951 
L 52.43256 185.382468 
L 53.025792 185.276565 
L 53.124665 185.232058 
L 53.643743 185.123025 
L 53.742615 185.095797 
L 54.138104 184.986249 
L 54.236976 184.95891 
L 54.657182 184.849165 
L 54.756054 184.818781 
L 55.077389 184.71906 
L 55.176261 184.689767 
L 55.744776 184.579075 
L 55.843648 184.529532 
L 56.239136 184.457789 
L 56.338008 184.401188 
L 56.832369 184.290781 
L 56.906523 184.263075 
L 57.450319 184.154622 
L 57.549192 184.135996 
L 58.018834 184.029765 
L 58.117706 184.013802 
L 58.958119 183.904449 
L 59.056991 183.881484 
L 59.798532 183.770737 
L 59.897404 183.733103 
L 60.441201 183.622647 
L 60.540073 183.60663 
L 60.910843 183.508659 
L 61.009716 183.462446 
L 61.504076 183.37132 
L 61.602948 183.289428 
L 62.047873 183.19023 
L 62.146745 183.165024 
L 62.468079 183.063047 
L 62.566951 183.001487 
L 62.913004 182.89889 
L 63.011876 182.836502 
L 63.407364 182.729286 
L 63.506236 182.683956 
L 63.852289 182.589846 
L 63.951161 182.501442 
L 64.396085 182.395879 
L 64.494957 182.375116 
L 64.865728 182.276021 
L 64.9646 182.221324 
L 65.285934 182.1115 
L 65.384806 182.067244 
L 65.755577 181.958713 
L 65.854449 181.939658 
L 66.225219 181.837283 
L 66.324092 181.801857 
L 66.670144 181.69192 
L 66.769016 181.660295 
L 67.115068 181.549207 
L 67.213941 181.529758 
L 67.535275 181.422168 
L 67.634147 181.386665 
L 68.004917 181.277484 
L 68.10379 181.228336 
L 68.573432 181.124764 
L 68.672304 181.096712 
L 69.018357 180.989052 
L 69.117229 180.956864 
L 69.413845 180.860996 
L 69.512717 180.781282 
L 70.031796 180.674647 
L 70.130668 180.62032 
L 70.402566 180.52678 
L 70.501438 180.460335 
L 70.773337 180.38163 
L 70.872209 180.300883 
L 71.193543 180.191279 
L 71.292415 180.153187 
L 71.539595 180.053768 
L 71.638468 179.996541 
L 71.935084 179.886781 
L 72.033956 179.866911 
L 72.305854 179.765955 
L 72.404726 179.71426 
L 72.577753 179.622755 
L 72.651907 179.57587 
L 72.849651 179.481314 
L 72.948523 179.423501 
L 73.344011 179.320677 
L 73.442884 179.256198 
L 73.665346 179.159697 
L 73.764218 179.115787 
L 74.036116 179.016878 
L 74.134988 178.964123 
L 74.382169 178.853109 
L 74.481041 178.814485 
L 74.876529 178.706954 
L 74.975401 178.679815 
L 75.272018 178.576387 
L 75.37089 178.535253 
L 75.766378 178.426292 
L 75.86525 178.359271 
L 76.236021 178.254668 
L 76.334893 178.205416 
L 76.606791 178.096669 
L 76.705663 178.040893 
L 76.804535 178.00561 
L 76.903408 177.872796 
L 77.101152 177.76302 
L 77.200024 177.730033 
L 77.595512 177.62127 
L 77.694384 177.545768 
L 78.065155 177.438092 
L 78.164027 177.389289 
L 78.559515 177.28167 
L 78.658388 177.229715 
L 79.00444 177.12012 
L 79.103312 177.030178 
L 79.523518 176.94792 
L 79.622391 176.876016 
L 79.919007 176.77165 
L 80.017879 176.697503 
L 80.487522 176.591285 
L 80.586394 176.549557 
L 80.907728 176.446283 
L 81.0066 176.403757 
L 81.25378 176.307947 
L 81.352653 176.20245 
L 81.649269 176.093563 
L 81.748141 176.019818 
L 81.995321 175.924849 
L 82.094193 175.869139 
L 82.291938 175.760049 
L 82.39081 175.728454 
L 82.539118 175.637522 
L 82.63799 175.564643 
L 82.959324 175.47106 
L 83.058197 175.396481 
L 83.255941 175.28857 
L 83.354813 175.251255 
L 83.577275 175.140802 
L 83.676147 175.108509 
L 83.923327 175.020422 
L 84.0222 174.914827 
L 84.219944 174.809349 
L 84.318816 174.727961 
L 84.491842 174.634129 
L 84.590714 174.533343 
L 84.887331 174.42942 
L 84.986203 174.400848 
L 85.134511 174.315784 
L 85.233383 174.24859 
L 85.431127 174.147924 
L 85.529999 174.096004 
L 85.678307 173.993595 
L 85.77718 173.93601 
L 85.999642 173.826907 
L 86.098514 173.699811 
L 86.27154 173.602001 
L 86.370412 173.485843 
L 86.642311 173.377612 
L 86.741183 173.244262 
L 86.864773 173.184398 
L 86.963645 173.09999 
L 87.383851 172.989427 
L 87.482724 172.953902 
L 87.631032 172.856168 
L 87.729904 172.77482 
L 87.977084 172.668541 
L 88.075956 172.619556 
L 88.323136 172.513512 
L 88.422009 172.441487 
L 88.768061 172.338998 
L 88.866933 172.293485 
L 89.114113 172.189599 
L 89.212985 172.097503 
L 89.386012 171.987532 
L 89.484884 171.954927 
L 89.855654 171.856766 
L 89.954526 171.803976 
L 90.078116 171.695218 
L 90.176989 171.642248 
L 90.424169 171.536037 
L 90.523041 171.491558 
L 90.720785 171.425651 
L 90.819657 171.320565 
L 91.04212 171.221814 
L 91.140992 171.109259 
L 91.437608 171.022696 
L 91.53648 170.899325 
L 91.857814 170.800859 
L 91.956687 170.719544 
L 92.228585 170.610331 
L 92.327457 170.481099 
L 92.475765 170.373344 
L 92.574637 170.330849 
L 92.648791 170.22806 
L 92.747663 170.13538 
L 92.945408 170.030897 
L 93.04428 169.996656 
L 93.143152 169.914804 
L 93.242024 169.829483 
L 93.439768 169.720092 
L 93.53864 169.688195 
L 93.761103 169.581474 
L 93.859975 169.553779 
L 94.107155 169.47078 
L 94.206027 169.377735 
L 94.453207 169.270942 
L 94.55208 169.232815 
L 94.774542 169.13915 
L 94.873414 169.070733 
L 95.244184 168.963948 
L 95.343056 168.927333 
L 95.639673 168.823094 
L 95.738545 168.776705 
L 95.886853 168.68107 
L 95.985725 168.626132 
L 96.257623 168.540481 
L 96.356496 168.482191 
L 96.628394 168.371553 
L 96.727266 168.307138 
L 97.023882 168.196182 
L 97.122754 168.152553 
L 97.345217 168.056512 
L 97.444089 168.012467 
L 97.715987 167.910474 
L 97.814859 167.836032 
L 98.012603 167.755801 
L 98.111476 167.627532 
L 98.333938 167.545132 
L 98.43281 167.444481 
L 98.5564 167.390563 
L 98.655272 167.257153 
L 98.951889 167.147307 
L 99.050761 167.038479 
L 99.248505 166.930158 
L 99.347377 166.809369 
L 99.594557 166.712178 
L 99.693429 166.61752 
L 99.94061 166.507692 
L 100.039482 166.409856 
L 100.18779 166.304274 
L 100.286662 166.227536 
L 100.43497 166.120907 
L 100.533842 166.037395 
L 100.830459 165.944195 
L 100.929331 165.852133 
L 101.077639 165.752103 
L 101.176511 165.673134 
L 101.670872 165.572078 
L 101.769744 165.474188 
L 102.06636 165.363104 
L 102.165232 165.334003 
L 102.31354 165.267858 
L 102.412412 165.096244 
L 102.684311 164.99057 
L 102.783183 164.872485 
L 102.882055 164.791467 
L 102.980927 164.694817 
L 103.129235 164.592937 
L 103.228107 164.508139 
L 103.425852 164.41313 
L 103.524724 164.363207 
L 103.870776 164.280205 
L 103.969648 164.173243 
L 104.093238 164.108998 
L 104.19211 164.016206 
L 104.414573 163.919921 
L 104.513445 163.862653 
L 104.810061 163.752416 
L 104.908933 163.649029 
L 105.106677 163.572296 
L 105.20555 163.450317 
L 105.502166 163.352267 
L 105.601038 163.169942 
L 105.774064 163.095197 
L 105.872936 162.92451 
L 106.144835 162.814771 
L 106.243707 162.749054 
L 106.392015 162.63896 
L 106.490887 162.566449 
L 106.688631 162.457746 
L 106.787503 162.364551 
L 107.009966 162.255272 
L 107.108838 162.175096 
L 107.356018 162.066225 
L 107.45489 161.99641 
L 107.751506 161.886154 
L 107.850379 161.865671 
L 108.023405 161.787583 
L 108.122277 161.66455 
L 108.270585 161.572935 
L 108.369457 161.464994 
L 108.517765 161.373106 
L 108.616637 161.214203 
L 108.740228 161.150104 
L 108.8391 161.035081 
L 109.185152 160.930471 
L 109.284024 160.878551 
L 109.432332 160.828494 
L 109.531205 160.671864 
L 109.728949 160.562879 
L 109.827821 160.522961 
L 109.976129 160.415337 
L 110.075001 160.358991 
L 110.248027 160.249571 
L 110.322181 160.213111 
L 110.519926 160.114468 
L 110.618798 159.977815 
L 110.84126 159.869828 
L 110.940132 159.827502 
L 111.08844 159.716455 
L 111.187312 159.674361 
L 111.360339 159.565793 
L 111.459211 159.464022 
L 111.558083 159.35829 
L 111.656955 159.152277 
L 111.904135 159.059671 
L 112.003007 158.983315 
L 112.200752 158.875692 
L 112.299624 158.789439 
L 112.522086 158.699663 
L 112.620958 158.624678 
L 112.793984 158.518552 
L 112.892856 158.455751 
L 113.090601 158.361234 
L 113.189473 158.265845 
L 113.411935 158.166827 
L 113.510807 158.065566 
L 113.659115 157.960168 
L 113.757987 157.904755 
L 113.856859 157.794487 
L 113.955732 157.733402 
L 114.153476 157.625079 
L 114.252348 157.522562 
L 114.400656 157.411661 
L 114.499528 157.373719 
L 114.573682 157.350982 
L 114.672554 157.180175 
L 114.969171 157.087934 
L 115.068043 157.052556 
L 115.191633 156.99593 
L 115.290505 156.821115 
L 115.512967 156.740238 
L 115.611839 156.640299 
L 115.760148 156.5297 
L 115.85902 156.481803 
L 116.081482 156.371794 
L 116.180354 156.285721 
L 116.402816 156.192973 
L 116.501688 156.117711 
L 116.649997 156.024087 
L 116.748869 155.944393 
L 116.921895 155.877908 
L 117.020767 155.73688 
L 117.243229 155.627915 
L 117.342101 155.45662 
L 117.589282 155.361178 
L 117.688154 155.200141 
L 117.86118 155.09365 
L 117.960052 155.04061 
L 118.157796 154.932558 
L 118.256668 154.885125 
L 118.454413 154.799558 
L 118.553285 154.725479 
L 118.775747 154.617657 
L 118.874619 154.56259 
L 119.072363 154.479262 
L 119.171235 154.416768 
L 119.270108 154.339095 
L 119.36898 154.220101 
L 119.61616 154.109152 
L 119.715032 154.012506 
L 119.813904 153.963051 
L 119.912776 153.789877 
L 120.135239 153.691118 
L 120.234111 153.605038 
L 120.530727 153.498357 
L 120.629599 153.423857 
L 120.876779 153.317711 
L 120.975651 153.208706 
L 121.074524 153.157072 
L 121.173396 153.038794 
L 121.321704 152.937438 
L 121.420576 152.832004 
L 121.643038 152.724275 
L 121.74191 152.665651 
L 121.890219 152.568582 
L 121.989091 152.43549 
L 122.112681 152.349409 
L 122.211553 152.229911 
L 122.384579 152.126345 
L 122.483451 152.026897 
L 122.681195 151.940941 
L 122.780068 151.86743 
L 122.977812 151.783494 
L 123.076684 151.608514 
L 123.224992 151.516977 
L 123.323864 151.445657 
L 123.571044 151.337618 
L 123.669917 151.269286 
L 123.719353 151.197034 
L 123.818225 151.066049 
L 123.966533 150.958794 
L 124.065405 150.913414 
L 124.139559 150.857629 
L 124.238431 150.750697 
L 124.411457 150.64076 
L 124.510329 150.511057 
L 124.63392 150.400285 
L 124.732792 150.319958 
L 124.8811 150.209093 
L 124.979972 149.975893 
L 125.25187 149.865553 
L 125.350742 149.817878 
L 125.647359 149.711874 
L 125.746231 149.560282 
L 125.894539 149.467788 
L 125.993411 149.374957 
L 126.141719 149.300935 
L 126.240591 149.162402 
L 126.364182 149.109986 
L 126.463054 148.953631 
L 126.561926 148.853601 
L 126.660798 148.694148 
L 126.75967 148.587444 
L 126.858542 148.446405 
L 127.00685 148.336468 
L 127.105722 148.261348 
L 127.352903 148.159979 
L 127.451775 148.048399 
L 127.501211 147.93808 
L 127.600083 147.840266 
L 127.822545 147.733329 
L 127.921417 147.602661 
L 128.045007 147.508318 
L 128.14388 147.350846 
L 128.341624 147.255707 
L 128.440496 147.216349 
L 128.564086 147.117685 
L 128.662958 147.046863 
L 128.835984 146.944284 
L 128.934856 146.87362 
L 129.083165 146.764837 
L 129.182037 146.605245 
L 129.305627 146.525518 
L 129.404499 146.382162 
L 129.528089 146.284254 
L 129.626961 146.199905 
L 129.824705 146.173334 
L 129.923578 145.928159 
L 130.14604 145.826649 
L 130.244912 145.729825 
L 130.541528 145.644546 
L 130.6404 145.45194 
L 130.838145 145.350848 
L 130.937017 145.25673 
L 131.060607 145.164226 
L 131.159479 145.051537 
L 131.283069 144.951011 
L 131.381941 144.851801 
L 131.456095 144.761393 
L 131.554967 144.692184 
L 131.678558 144.584743 
L 131.77743 144.516214 
L 131.90102 144.417235 
L 131.999892 144.350466 
L 132.197636 144.249441 
L 132.296508 144.183585 
L 132.543689 144.099672 
L 132.642561 144.01597 
L 132.766151 143.94095 
L 132.865023 143.786886 
L 133.112203 143.675889 
L 133.211075 143.633309 
L 133.359384 143.524539 
L 133.458256 143.482101 
L 133.631282 143.396285 
L 133.730154 143.288258 
L 133.804308 143.213457 
L 133.90318 143.11968 
L 134.02677 143.048825 
L 134.125642 142.904598 
L 134.298669 142.835499 
L 134.397541 142.739004 
L 134.521131 142.63261 
L 134.620003 142.5674 
L 134.743593 142.474122 
L 134.842465 142.29611 
L 134.990773 142.216921 
L 135.089645 141.934659 
L 135.188518 141.82495 
L 135.28739 141.594855 
L 135.509852 141.484602 
L 135.608724 141.415083 
L 135.78175 141.307511 
L 135.880622 141.247127 
L 136.028931 141.143732 
L 136.127803 141.06252 
L 136.226675 140.971786 
L 136.325547 140.900859 
L 136.374983 140.797555 
L 136.473855 140.593328 
L 136.548009 140.53355 
L 136.646881 140.343124 
L 136.795189 140.24809 
L 136.894062 140.058991 
L 137.141242 139.949494 
L 137.240114 139.842967 
L 137.388422 139.764501 
L 137.487294 139.599684 
L 137.561448 139.525299 
L 137.66032 139.382141 
L 137.783911 139.285059 
L 137.882783 139.018973 
L 138.006373 138.927264 
L 138.105245 138.713157 
L 138.253553 138.61123 
L 138.352425 138.431991 
L 138.500733 138.325583 
L 138.599605 138.233148 
L 138.723196 138.140454 
L 138.822068 137.970437 
L 138.970376 137.861802 
L 139.069248 137.693109 
L 139.217556 137.600443 
L 139.316428 137.45769 
L 139.464736 137.352775 
L 139.563609 137.210645 
L 139.662481 137.110772 
L 139.761353 136.986403 
L 139.959097 136.88991 
L 140.057969 136.806345 
L 140.280431 136.729384 
L 140.379303 136.50769 
L 140.67592 136.428624 
L 140.774792 136.227135 
L 140.9231 136.126172 
L 141.021972 136.076727 
L 141.29387 135.966488 
L 141.392743 135.809473 
L 141.466897 135.761934 
L 141.565769 135.549227 
L 141.837667 135.446073 
L 141.936539 135.374763 
L 142.159001 135.264493 
L 142.257874 135.218348 
L 142.381464 135.124431 
L 142.480336 134.883073 
L 142.529772 134.87165 
L 142.628644 134.70138 
L 142.727516 134.631506 
L 142.826388 134.507732 
L 142.974696 134.416647 
L 143.073569 134.284328 
L 143.123005 134.234227 
L 143.221877 133.974737 
L 143.320749 133.865425 
L 143.419621 133.777181 
L 143.617365 133.693277 
L 143.716237 133.518318 
L 143.913981 133.413868 
L 144.012854 133.335923 
L 144.161162 133.228031 
L 144.260034 133.146512 
L 144.334188 133.048298 
L 144.43306 132.835773 
L 144.531932 132.758284 
L 144.630804 132.522167 
L 144.80383 132.427346 
L 144.902703 132.268016 
L 145.125165 132.161019 
L 145.224037 132.021889 
L 145.372345 131.91572 
L 145.471217 131.726811 
L 145.545371 131.620136 
L 145.644243 131.548477 
L 145.792552 131.44098 
L 145.891424 131.216335 
L 146.113886 131.111699 
L 146.212758 131.070937 
L 146.336348 130.982182 
L 146.43522 130.826542 
L 146.484656 130.823967 
L 146.583528 130.595844 
L 146.707119 130.552429 
L 146.805991 130.395816 
L 146.954299 130.33866 
L 147.053171 130.09357 
L 147.102607 130.074524 
L 147.201479 129.83008 
L 147.374505 129.741479 
L 147.473377 129.509782 
L 147.621686 129.410334 
L 147.720558 129.307594 
L 147.967738 129.197838 
L 148.06661 129.149739 
L 148.214918 129.05902 
L 148.31379 128.931059 
L 148.462099 128.831104 
L 148.560971 128.681209 
L 148.659843 128.609042 
L 148.758715 128.49474 
L 148.931741 128.393379 
L 149.030613 128.168698 
L 149.203639 128.064838 
L 149.302512 127.871275 
L 149.401384 127.806904 
L 149.500256 127.665751 
L 149.722718 127.559389 
L 149.82159 127.347802 
L 149.895744 127.242901 
L 149.994616 127.151822 
L 150.167643 127.080672 
L 150.266515 126.900208 
L 150.365387 126.803928 
L 150.464259 126.681765 
L 150.587849 126.583772 
L 150.686721 126.317007 
L 150.909183 126.231306 
L 151.008055 126.053987 
L 151.131646 125.956498 
L 151.230518 125.809568 
L 151.354108 125.730727 
L 151.45298 125.640819 
L 151.527134 125.576616 
L 151.626006 125.352126 
L 151.70016 125.297673 
L 151.799032 125.152681 
L 151.897905 125.084093 
L 151.996777 124.902491 
L 152.145085 124.861791 
L 152.243957 124.721084 
L 152.367547 124.621567 
L 152.466419 124.490877 
L 152.491137 124.490877 
L 152.590009 124.291608 
L 152.639445 124.242788 
L 152.738317 124.041823 
L 152.886626 123.956379 
L 152.985498 123.815171 
L 153.010216 123.815171 
L 153.109088 123.608287 
L 153.20796 123.52286 
L 153.306832 123.405514 
L 153.45514 123.307238 
L 153.554012 123.212045 
L 153.702321 123.139237 
L 153.801193 122.894135 
L 153.924783 122.783268 
L 154.023655 122.653621 
L 154.196681 122.59836 
L 154.295553 122.467277 
L 154.468579 122.382721 
L 154.567452 122.173322 
L 154.71576 122.067008 
L 154.814632 121.903944 
L 154.987658 121.79391 
L 155.08653 121.704305 
L 155.284274 121.59429 
L 155.383146 121.410867 
L 155.482019 121.313825 
L 155.580891 121.105449 
L 155.729199 121.022925 
L 155.828071 120.897433 
L 155.926943 120.8109 
L 156.025815 120.647507 
L 156.174123 120.547443 
L 156.272995 120.472948 
L 156.396586 120.436529 
L 156.495458 120.232658 
L 156.59433 120.169999 
L 156.693202 119.965584 
L 156.816792 119.870667 
L 156.915664 119.715164 
L 157.063972 119.618275 
L 157.162844 119.407665 
L 157.311153 119.313563 
L 157.410025 119.25849 
L 157.484179 119.148358 
L 157.583051 119.042273 
L 157.632487 119.03685 
L 157.731359 118.811191 
L 157.904385 118.704393 
L 158.003257 118.572718 
L 158.10213 118.490516 
L 158.201002 118.192057 
L 158.275156 118.122439 
L 158.374028 117.908369 
L 158.571772 117.806087 
L 158.670644 117.64263 
L 158.769516 117.575477 
L 158.868388 117.419553 
L 158.893106 117.419553 
L 158.991979 117.177854 
L 159.115569 117.098487 
L 159.214441 116.868178 
L 159.288595 116.762816 
L 159.387467 116.614783 
L 159.609929 116.504711 
L 159.708801 116.279891 
L 159.807673 116.199725 
L 159.906546 116.032707 
L 160.054854 115.943588 
L 160.153726 115.699141 
L 160.326752 115.606447 
L 160.425624 115.302748 
L 160.549214 115.226536 
L 160.648086 115.065442 
L 160.845831 114.957734 
L 160.944703 114.793003 
L 161.117729 114.689312 
L 161.216601 114.598669 
L 161.315473 114.490232 
L 161.414345 114.340709 
L 161.488499 114.289729 
L 161.587371 114.128634 
L 161.710962 114.064693 
L 161.809834 113.993752 
L 161.933424 113.929599 
L 162.032296 113.741689 
L 162.131168 113.637761 
L 162.23004 113.471694 
L 162.304194 113.427525 
L 162.403066 113.121156 
L 162.47722 113.033098 
L 162.576093 112.812586 
L 162.724401 112.70589 
L 162.823273 112.636695 
L 162.922145 112.550617 
L 163.021017 112.368142 
L 163.144607 112.271104 
L 163.243479 112.180399 
L 163.36707 112.114485 
L 163.465942 111.969877 
L 163.564814 111.860879 
L 163.663686 111.684201 
L 163.811994 111.585403 
L 163.910866 111.474099 
L 164.034456 111.410105 
L 164.133328 111.187602 
L 164.281637 111.104821 
L 164.380509 110.835127 
L 164.578253 110.724523 
L 164.677125 110.517483 
L 164.775997 110.419728 
L 164.874869 110.213197 
L 165.097331 110.107076 
L 165.196204 109.952149 
L 165.319794 109.859125 
L 165.418666 109.493126 
L 165.566974 109.422313 
L 165.665846 109.263679 
L 165.74 109.189466 
L 165.838872 108.860362 
L 166.135489 108.759382 
L 166.234361 108.630689 
L 166.333233 108.541376 
L 166.432105 108.333834 
L 166.555695 108.243282 
L 166.654567 108.020568 
L 166.802875 107.923065 
L 166.901748 107.867773 
L 167.050056 107.77935 
L 167.148928 107.478562 
L 167.297236 107.391004 
L 167.396108 107.136231 
L 167.470262 107.034296 
L 167.569134 106.777736 
L 167.692724 106.685706 
L 167.791597 106.405366 
L 167.890469 106.357585 
L 167.989341 106.208712 
L 168.063495 106.099747 
L 168.162367 105.994628 
L 168.236521 105.920894 
L 168.335393 105.763769 
L 168.458983 105.655881 
L 168.557855 105.48118 
L 168.582573 105.48118 
L 168.681446 105.190499 
L 168.805036 105.095708 
L 168.903908 104.825823 
L 169.027498 104.731381 
L 169.12637 104.546274 
L 169.299396 104.43655 
L 169.398268 104.30365 
L 169.447704 104.24327 
L 169.546577 104.093733 
L 169.596013 104.090449 
L 169.694885 103.859801 
L 169.744321 103.762094 
L 169.843193 103.495109 
L 169.991501 103.385983 
L 170.090373 103.294045 
L 170.238681 103.190859 
L 170.337553 103.034723 
L 170.485862 102.931562 
L 170.584734 102.763723 
L 170.683606 102.700905 
L 170.782478 102.551591 
L 170.807196 102.551591 
L 170.906068 102.151988 
L 171.054376 102.081011 
L 171.153248 101.890972 
L 171.326275 101.789641 
L 171.425147 101.664914 
L 171.524019 101.574031 
L 171.622891 101.382401 
L 171.672327 101.282499 
L 171.771199 101.105798 
L 171.845353 101.0045 
L 171.944225 100.665601 
L 172.043097 100.59225 
L 172.141969 100.376409 
L 172.216124 100.287212 
L 172.314996 100.109663 
L 172.438586 100.036531 
L 172.537458 99.791775 
L 172.685766 99.695823 
L 172.784638 99.58342 
L 172.908228 99.496276 
L 173.0071 99.306179 
L 173.130691 99.200287 
L 173.229563 99.048553 
L 173.377871 98.95587 
L 173.476743 98.633024 
L 173.600333 98.55453 
L 173.699205 98.401164 
L 173.773359 98.307919 
L 173.872231 98.194247 
L 173.971104 98.107152 
L 174.069976 97.682409 
L 174.14413 97.599633 
L 174.243002 97.379743 
L 174.317156 97.271359 
L 174.416028 97.100495 
L 174.465464 97.083179 
L 174.564336 96.81759 
L 174.663208 96.718302 
L 174.76208 96.562252 
L 174.836234 96.459112 
L 174.935107 96.385963 
L 175.009261 96.324497 
L 175.108133 96.126976 
L 175.157569 96.081312 
L 175.256441 95.8025 
L 175.404749 95.71383 
L 175.503621 95.608302 
L 175.676647 95.558044 
L 175.77552 95.404363 
L 175.997982 95.299758 
L 176.096854 95.072071 
L 176.220444 94.982941 
L 176.319316 94.832358 
L 176.467624 94.724256 
L 176.566496 94.620483 
L 176.690087 94.511219 
L 176.788959 94.41806 
L 176.912549 94.311517 
L 177.011421 94.158228 
L 177.085575 94.108133 
L 177.184447 93.92787 
L 177.233883 93.922789 
L 177.332755 93.64136 
L 177.431627 93.545441 
L 177.5305 93.362858 
L 177.629372 93.262422 
L 177.728244 93.140238 
L 177.827116 93.055309 
L 177.925988 92.891242 
L 177.975424 92.804402 
L 178.074296 92.588714 
L 178.14845 92.517459 
L 178.247322 92.357984 
L 178.370913 92.247747 
L 178.469785 91.906477 
L 178.494503 91.906477 
L 178.593375 91.671197 
L 178.692247 91.56698 
L 178.791119 91.348941 
L 178.815837 91.348941 
L 178.914709 91.092572 
L 179.038299 91.017217 
L 179.137171 90.829761 
L 179.28548 90.722147 
L 179.384352 90.548454 
L 179.557378 90.455789 
L 179.65625 90.286017 
L 179.755122 90.247812 
L 179.853994 90.017748 
L 180.02702 89.916232 
L 180.125892 89.736483 
L 180.249483 89.640902 
L 180.348355 89.382325 
L 180.496663 89.277483 
L 180.595535 88.950469 
L 180.644971 88.897721 
L 180.743843 88.77098 
L 180.867433 88.697045 
L 180.941587 88.571464 
L 180.991023 88.571464 
L 181.089896 88.229891 
L 181.188768 88.125392 
L 181.28764 87.920629 
L 181.386512 87.817457 
L 181.485384 87.651036 
L 181.608974 87.550329 
L 181.707846 87.217545 
L 181.782 87.135308 
L 181.880872 87.03412 
L 182.029181 86.932625 
L 182.128053 86.549211 
L 182.202207 86.439065 
L 182.301079 86.24099 
L 182.399951 86.169406 
L 182.498823 85.89335 
L 182.647131 85.798486 
L 182.696567 85.685997 
L 182.869594 85.577388 
L 182.968466 85.338463 
L 182.993184 85.338463 
L 183.092056 85.051128 
L 183.116774 85.051128 
L 183.215646 84.731919 
L 183.314518 84.625854 
L 183.41339 84.495221 
L 183.462826 84.430946 
L 183.561698 84.069434 
L 183.66057 84.043836 
L 183.759443 83.809114 
L 183.784161 83.809114 
L 183.883033 83.52821 
L 183.981905 83.444287 
L 184.080777 83.183726 
L 184.179649 83.072801 
L 184.278521 82.932189 
L 184.327957 82.828151 
L 184.426829 82.68339 
L 184.525701 82.617446 
L 184.624574 82.352327 
L 184.698728 82.271914 
L 184.7976 81.83605 
L 184.945908 81.737851 
L 185.04478 81.347238 
L 185.094216 81.346573 
L 185.193088 80.993552 
L 185.242524 80.974862 
L 185.341396 80.778604 
L 185.41555 80.713457 
L 185.514423 80.271118 
L 185.563859 80.197109 
L 185.662731 80.018176 
L 185.712167 80.015534 
L 185.811039 79.631666 
L 185.909911 79.545109 
L 186.008783 79.276723 
L 186.058219 79.225957 
L 186.157091 79.016123 
L 186.255963 78.924921 
L 186.354836 78.712321 
L 186.453708 78.605928 
L 186.55258 78.375669 
L 186.67617 78.310637 
L 186.775042 78.126143 
L 186.849196 78.03654 
L 186.948068 77.714529 
L 187.071658 77.619117 
L 187.17053 77.362264 
L 187.343557 77.27534 
L 187.442429 77.086029 
L 187.516583 76.98828 
L 187.615455 76.774992 
L 187.664891 76.701326 
L 187.763763 76.34667 
L 187.986225 76.253847 
L 188.085098 76.09423 
L 188.18397 75.994621 
L 188.282842 75.864475 
L 188.332278 75.766103 
L 188.43115 75.541496 
L 188.530022 75.433045 
L 188.628894 75.2716 
L 188.727766 75.219051 
L 188.826638 74.970366 
L 188.950228 74.860233 
L 189.049101 74.718108 
L 189.147973 74.649747 
L 189.246845 74.280821 
L 189.370435 74.17113 
L 189.469307 73.901481 
L 189.518743 73.856231 
L 189.617615 73.681013 
L 189.642333 73.681013 
L 189.741205 73.34996 
L 189.790641 73.27393 
L 189.889514 72.910491 
L 189.93895 72.88542 
L 190.037822 72.5371 
L 190.136694 72.4277 
L 190.235566 72.276477 
L 190.30972 72.185678 
L 190.408592 71.802833 
L 190.458028 71.73849 
L 190.5569 71.536546 
L 190.655772 71.44752 
L 190.754645 71.205705 
L 190.828799 71.154 
L 190.927671 71.000061 
L 190.977107 70.899645 
L 191.075979 70.708392 
L 191.150133 70.601159 
L 191.249005 70.457889 
L 191.372595 70.349971 
L 191.471467 70.102228 
L 191.520903 70.100345 
L 191.619776 69.686471 
L 191.69393 69.586542 
L 191.792802 69.213974 
L 191.866956 69.115893 
L 191.965828 69.023805 
L 192.089418 68.925411 
L 192.18829 68.751815 
L 192.237726 68.736664 
L 192.336598 68.222302 
L 192.484906 68.148028 
L 192.583779 67.963596 
L 192.707369 67.866909 
L 192.806241 67.758983 
L 192.855677 67.67191 
L 192.954549 67.431411 
L 193.078139 67.367898 
L 193.177011 66.962732 
L 193.226447 66.891688 
L 193.325319 66.744652 
L 193.424192 66.647185 
L 193.523064 66.48649 
L 193.5725 66.386794 
L 193.671372 66.034171 
L 193.720808 65.935663 
L 193.81968 65.638132 
L 193.918552 65.561411 
L 194.017424 65.054975 
L 194.091578 64.981959 
L 194.19045 64.646445 
L 194.264605 64.629115 
L 194.363477 64.300912 
L 194.487067 64.23949 
L 194.585939 64.009856 
L 194.684811 63.901383 
L 194.783683 63.850887 
L 194.882555 63.754066 
L 194.981427 63.353348 
L 195.080299 63.270527 
L 195.179172 63.10116 
L 195.278044 63.019751 
L 195.376916 62.718057 
L 195.426352 62.616448 
L 195.525224 62.386409 
L 195.599378 62.356975 
L 195.69825 61.988512 
L 195.920712 61.884494 
L 196.019585 61.447118 
L 196.167893 61.340336 
L 196.266765 61.138738 
L 196.340919 61.084154 
L 196.439791 60.597845 
L 196.464509 60.597845 
L 196.563381 59.996566 
L 196.711689 59.908701 
L 196.810561 59.72354 
L 196.835279 59.72354 
L 196.934152 59.391913 
L 197.033024 59.291837 
L 197.131896 59.212326 
L 197.230768 59.101278 
L 197.32964 58.759053 
L 197.428512 58.67288 
L 197.502666 58.525532 
L 197.675692 58.417839 
L 197.70041 58.381407 
L 197.824001 58.381407 
L 197.922873 57.965917 
L 198.021745 57.867099 
L 198.120617 57.576724 
L 198.194771 57.469605 
L 198.293643 57.353422 
L 198.343079 57.351672 
L 198.441951 56.757173 
L 198.540823 56.711053 
L 198.639695 56.4173 
L 198.71385 56.319851 
L 198.812722 55.986089 
L 198.911594 55.892483 
L 199.010466 55.249971 
L 199.08462 55.143769 
L 199.183492 54.907522 
L 199.20821 54.907522 
L 199.307082 54.479337 
L 199.381236 54.405923 
L 199.480108 53.977758 
L 199.603699 53.90607 
L 199.702571 53.686651 
L 199.801443 53.591163 
L 199.900315 53.358196 
L 199.974469 53.279598 
L 200.073341 52.970326 
L 200.147495 52.86685 
L 200.147495 52.835217 
L 200.320521 52.80184 
L 200.419393 52.548413 
L 200.59242 52.488124 
L 200.691292 52.149418 
L 200.71601 52.149418 
L 200.814882 51.928236 
L 200.913754 51.848208 
L 201.012626 51.391689 
L 201.037344 51.391689 
L 201.136216 51.167141 
L 201.185652 51.06662 
L 201.284524 50.514293 
L 201.333961 50.461729 
L 201.432833 50.201752 
L 201.605859 50.105724 
L 201.704731 49.912998 
L 201.828321 49.805115 
L 201.927193 49.684696 
L 201.976629 49.581431 
L 202.075501 49.400402 
L 202.174373 49.290218 
L 202.273246 49.144411 
L 202.322682 49.085416 
L 202.396836 48.704857 
L 202.569862 48.701126 
L 202.668734 48.419155 
L 202.767606 48.330826 
L 202.866478 48.15383 
L 203.014786 48.075062 
L 203.113659 47.735092 
L 203.187813 47.63425 
L 203.286685 47.511909 
L 203.385557 47.421493 
L 203.484429 47.241721 
L 203.558583 47.180355 
L 203.657455 47.005862 
L 203.781045 46.919676 
L 203.879917 46.589038 
L 204.003508 46.502301 
L 204.003508 46.464746 
L 204.250688 46.461102 
L 204.34956 46.180611 
L 204.497868 46.07674 
L 204.59674 45.882104 
L 204.646176 45.832648 
L 204.745048 45.59902 
L 204.819202 45.557544 
L 204.918075 45.053524 
L 205.091101 44.972112 
L 205.165255 44.686328 
L 205.362999 44.579977 
L 205.461871 44.409731 
L 205.536025 44.32701 
L 205.634897 43.935089 
L 205.709051 43.848843 
L 205.709051 43.779002 
L 205.882078 43.688467 
L 205.98095 43.250191 
L 206.079822 43.142691 
L 206.178694 42.857925 
L 206.22813 42.768656 
L 206.327002 42.525045 
L 206.376438 42.419555 
L 206.47531 42.093523 
L 206.5989 42.025301 
L 206.697773 41.478282 
L 206.796645 41.378912 
L 206.895517 41.19234 
L 206.969671 41.090229 
L 207.068543 40.868174 
L 207.142697 40.761328 
L 207.241569 40.577925 
L 207.315723 40.474031 
L 207.414595 40.33175 
L 207.488749 40.279065 
L 207.587622 40.07925 
L 207.686494 40.035196 
L 207.785366 39.804149 
L 207.85952 39.697939 
L 207.958392 39.45565 
L 208.081982 39.35016 
L 208.180854 39.140928 
L 208.279726 39.047702 
L 208.378599 38.962187 
L 208.502189 38.939317 
L 208.601061 38.47176 
L 208.650497 38.403127 
L 208.749369 38.033746 
L 208.872959 38.011407 
L 208.971831 37.703932 
L 208.996549 37.703932 
L 209.095421 37.122626 
L 209.293166 37.018485 
L 209.392038 36.551928 
L 209.49091 36.44769 
L 209.589782 36.148077 
L 209.73809 36.119798 
L 209.836962 35.803427 
L 209.935834 35.694906 
L 210.009988 35.453237 
L 210.158297 35.378777 
L 210.257169 35.077757 
L 210.356041 34.977953 
L 210.454913 34.382638 
L 210.504349 34.280115 
L 210.603221 33.793818 
L 210.677375 33.69192 
L 210.776247 33.37271 
L 210.800965 33.37271 
L 210.899837 33.170254 
L 210.973991 33.115082 
L 211.072864 32.655769 
L 211.1223 32.597969 
L 211.221172 32.011444 
L 211.270608 31.991594 
L 211.36948 31.502367 
L 211.443634 31.394111 
L 211.542506 31.111919 
L 211.61666 31.009525 
L 211.715532 30.852154 
L 211.764968 30.836741 
L 211.86384 30.523752 
L 211.987431 30.523752 
L 212.086303 30.092389 
L 212.185175 30.00071 
L 212.284047 29.771242 
L 212.333483 29.73686 
L 212.432355 29.047728 
L 212.506509 28.955125 
L 212.580663 28.698555 
L 212.704253 28.606792 
L 212.778407 28.488311 
L 212.87728 28.468693 
L 212.976152 28.001035 
L 213.099742 27.894485 
L 213.198614 27.74473 
L 213.223332 27.74473 
L 213.297486 27.45065 
L 213.396358 27.356805 
L 213.49523 26.995216 
L 213.544666 26.931837 
L 213.643538 26.748248 
L 213.717693 26.656078 
L 213.816565 26.262262 
L 213.841283 26.262262 
L 213.940155 25.871246 
L 213.989591 25.805687 
L 214.088463 25.327253 
L 214.137899 25.279887 
L 214.236771 24.91199 
L 214.310925 24.821068 
L 214.409797 24.171121 
L 214.508669 24.072554 
L 214.582824 23.936815 
L 214.656978 23.936815 
L 214.731132 23.669076 
L 214.805286 23.574733 
L 214.904158 22.894334 
L 214.978312 22.894334 
L 215.077184 22.433559 
L 215.151338 22.391279 
L 215.25021 22.001328 
L 215.324364 21.93067 
L 215.398518 21.675175 
L 215.522109 21.594613 
L 215.620981 21.140167 
L 215.719853 21.031942 
L 215.818725 20.637204 
L 215.892879 20.534313 
L 215.991751 19.896276 
L 216.065905 19.859015 
L 216.164777 19.227064 
L 216.238931 19.162635 
L 216.337804 18.904489 
L 216.461394 18.904489 
L 216.560266 18.243634 
L 216.609702 18.199224 
L 216.708574 17.671082 
L 216.75801 17.668259 
L 216.856882 17.099013 
L 216.906318 17.076904 
L 217.00519 16.842427 
L 217.079344 16.735212 
L 217.178216 16.450197 
L 217.301807 16.360318 
L 217.400679 15.854843 
L 217.450115 15.783117 
L 217.548987 15.327306 
L 217.647859 15.236425 
L 217.746731 14.984353 
L 217.845603 14.918224 
L 217.944475 14.598366 
L 217.993911 14.587873 
L 218.092784 14.358226 
L 218.166938 14.297865 
L 218.26581 14.075208 
L 218.414118 14.048538 
L 218.438836 13.854375 
L 218.562426 13.854375 
L 218.661298 13.350524 
L 218.784888 13.337126 
L 218.88376 12.622395 
L 218.908478 12.622395 
L 219.007351 12.302136 
L 219.032069 12.302136 
L 219.106223 12.164852 
L 219.155659 12.164852 
L 219.180377 11.992688 
L 219.328685 11.992688 
L 219.427557 11.829455 
L 219.452275 11.829455 
L 219.526429 11.498776 
L 219.575865 11.498776 
L 219.625301 2.233484 
L 219.625301 2.233484 
" clip-path="url(#p87fe044c73)" style="fill: none; stroke: #67c7d5; stroke-width: 1.5; stroke-linecap: square"/>
   </g>
   <g id="line2d_14">
    <path d="M 43.78125 195.588517 
L 43.805968 195.588517 
L 43.90484 186.710904 
L 44.15202 186.608677 
L 44.250893 186.506806 
L 44.374483 186.39937 
L 44.448637 186.336578 
L 44.547509 186.277137 
L 44.621663 186.146592 
L 44.819407 186.090544 
L 44.918279 185.93211 
L 45.091305 185.829887 
L 45.190178 185.628891 
L 45.41264 185.530434 
L 45.511512 185.406432 
L 45.635102 185.329413 
L 45.733974 185.153217 
L 45.857564 185.065785 
L 45.931718 184.999158 
L 46.030591 184.888362 
L 46.129463 184.81917 
L 46.253053 184.714131 
L 46.351925 184.619731 
L 46.500233 184.532922 
L 46.599105 184.307416 
L 46.697977 184.247169 
L 46.796849 184.13949 
L 46.945158 184.051272 
L 47.04403 183.91913 
L 48.057469 183.811476 
L 48.156341 183.699932 
L 48.304649 183.589853 
L 48.354085 183.561179 
L 48.67542 183.450115 
L 48.774292 183.394963 
L 48.873164 183.323089 
L 48.972036 183.168229 
L 49.120344 183.065093 
L 49.219216 182.968246 
L 49.392242 182.870381 
L 49.41696 182.822041 
L 49.763013 182.719538 
L 49.861885 182.656486 
L 50.034911 182.580413 
L 50.133783 182.396193 
L 50.232655 182.315111 
L 50.331527 182.079795 
L 50.4304 182.053108 
L 50.529272 181.749394 
L 50.628144 181.667272 
L 50.727016 181.471101 
L 50.900042 181.36182 
L 50.998914 181.287992 
L 51.04835 181.23236 
L 51.147222 181.120708 
L 51.320249 181.019869 
L 51.320249 181.004401 
L 53.075229 180.914249 
L 53.149383 180.820788 
L 53.544871 180.743199 
L 53.643743 180.601768 
L 53.767333 180.505642 
L 53.866205 180.394669 
L 54.06395 180.287628 
L 54.162822 180.207645 
L 54.31113 180.111448 
L 54.410002 180.059716 
L 54.6819 179.966569 
L 54.780772 179.869924 
L 54.978517 179.759043 
L 55.077389 179.610746 
L 55.176261 179.541453 
L 55.275133 179.392904 
L 55.448159 179.284779 
L 55.547031 179.125222 
L 55.596467 179.098847 
L 55.695339 178.912789 
L 55.794212 178.850359 
L 55.893084 178.722485 
L 56.288572 178.664477 
L 56.387444 178.550808 
L 56.56047 178.446353 
L 56.659343 178.309165 
L 56.881805 178.203392 
L 56.931241 178.10417 
L 57.771654 178.051067 
L 57.870526 177.936152 
L 58.463759 177.825626 
L 58.562631 177.747888 
L 58.710939 177.651119 
L 58.809811 177.550446 
L 59.032273 177.461344 
L 59.131145 177.347469 
L 59.254736 177.236396 
L 59.353608 177.109557 
L 59.501916 177.008913 
L 59.600788 176.905391 
L 59.674942 176.795018 
L 59.773814 176.565251 
L 59.971558 176.483735 
L 60.07043 176.327507 
L 60.218739 176.228747 
L 60.317611 175.966758 
L 60.441201 175.908517 
L 60.540073 175.619182 
L 60.737817 175.512142 
L 60.836689 175.37662 
L 61.08387 175.302153 
L 61.158024 175.165532 
L 61.850128 175.070351 
L 61.899565 174.937264 
L 62.418643 174.853903 
L 62.517515 174.680833 
L 62.83885 174.571734 
L 62.937722 174.454013 
L 63.160184 174.353982 
L 63.259056 174.241096 
L 63.432082 174.131957 
L 63.530954 173.890838 
L 63.654545 173.790339 
L 63.753417 173.694047 
L 63.827571 173.594238 
L 63.926443 173.518905 
L 64.050033 173.438329 
L 64.148905 173.342664 
L 64.247777 173.255829 
L 64.346649 173.104407 
L 64.445521 173.041232 
L 64.544394 172.893197 
L 64.618548 172.799613 
L 64.71742 172.720376 
L 64.84101 172.611903 
L 64.939882 172.4953 
L 65.038754 172.386675 
L 65.112908 172.257161 
L 65.730859 172.189599 
L 65.829731 172.054475 
L 66.200501 171.953677 
L 66.299374 171.902231 
L 66.447682 171.808368 
L 66.546554 171.701579 
L 66.769016 171.597202 
L 66.867888 171.544121 
L 66.892606 171.544121 
L 66.991478 171.334841 
L 67.040914 171.294791 
L 67.139786 171.115691 
L 67.263377 171.031322 
L 67.362249 170.962132 
L 67.584711 170.856454 
L 67.683583 170.687343 
L 67.807173 170.654587 
L 67.906045 170.512843 
L 68.153226 170.428063 
L 68.252098 170.306228 
L 68.449842 170.215899 
L 68.548714 170.072384 
L 68.647586 169.980257 
L 68.746458 169.840845 
L 68.894766 169.73737 
L 68.993639 169.617242 
L 69.191383 169.537214 
L 69.290255 169.315914 
L 69.834052 169.258865 
L 69.932924 169.040873 
L 70.402566 168.93936 
L 70.501438 168.735733 
L 70.723901 168.652506 
L 70.822773 168.459173 
L 70.971081 168.386262 
L 71.069953 168.229833 
L 71.144107 168.136456 
L 71.242979 167.901774 
L 71.317133 167.848015 
L 71.416005 167.445823 
L 71.490159 167.337182 
L 71.589032 167.203705 
L 71.73734 167.113767 
L 71.836212 166.935571 
L 71.98452 166.854228 
L 72.083392 166.588836 
L 72.380008 166.50172 
L 72.429444 166.350844 
L 73.121549 166.263483 
L 73.220421 166.117831 
L 73.294575 166.049782 
L 73.294575 165.995309 
L 73.640628 165.884991 
L 73.7395 165.797455 
L 73.838372 165.72069 
L 73.937244 165.523189 
L 73.98668 165.466046 
L 74.085552 165.338444 
L 74.134988 165.301387 
L 74.233861 165.028144 
L 74.332733 164.943346 
L 74.431605 164.752096 
L 74.579913 164.688352 
L 74.678785 164.401295 
L 74.777657 164.293417 
L 74.876529 164.092369 
L 74.925965 164.0678 
L 75.024837 163.886259 
L 75.173146 163.814367 
L 75.272018 163.618584 
L 75.37089 163.563977 
L 75.445044 163.424943 
L 75.98884 163.314317 
L 76.087713 163.26246 
L 76.186585 163.152678 
L 76.236021 163.016166 
L 76.507919 162.936353 
L 76.606791 162.770736 
L 76.631509 162.770736 
L 76.730381 162.57274 
L 76.87869 162.479487 
L 76.977562 162.351057 
L 77.200024 162.252379 
L 77.298896 162.109098 
L 77.37305 162.024213 
L 77.471922 161.836769 
L 77.570794 161.751292 
L 77.669666 161.534602 
L 77.74382 161.449001 
L 77.842693 161.347561 
L 77.892129 161.304077 
L 77.991001 161.065513 
L 78.139309 160.955426 
L 78.238181 160.849175 
L 78.361771 160.742466 
L 78.460643 160.623147 
L 78.633669 160.532631 
L 78.633669 160.486658 
L 79.152748 160.383076 
L 79.25162 160.146374 
L 79.4988 160.118411 
L 79.597673 159.855541 
L 79.770699 159.745154 
L 79.869571 159.651991 
L 80.042597 159.557124 
L 80.141469 159.201582 
L 80.314495 159.101348 
L 80.413368 158.889388 
L 80.487522 158.813378 
L 80.586394 158.663021 
L 80.660548 158.647302 
L 80.75942 158.474284 
L 80.833574 158.452573 
L 80.932446 158.184254 
L 81.031318 158.091867 
L 81.13019 157.988343 
L 81.229062 157.886075 
L 81.327935 157.76576 
L 81.377371 157.757082 
L 81.402089 157.581766 
L 81.797577 157.535928 
L 81.896449 157.387489 
L 81.945885 157.351377 
L 81.995321 157.059238 
L 82.26722 156.975281 
L 82.366092 156.814536 
L 82.5144 156.718867 
L 82.588554 156.631961 
L 82.662708 156.52533 
L 82.76158 156.243659 
L 82.860452 156.168847 
L 82.959324 155.903565 
L 83.033478 155.82859 
L 83.132351 155.720356 
L 83.181787 155.673882 
L 83.280659 155.425106 
L 83.428967 155.330901 
L 83.527839 155.13244 
L 83.601993 155.064744 
L 83.700865 154.871624 
L 83.775019 154.843603 
L 83.799737 154.646642 
L 84.195226 154.594232 
L 84.294098 154.358883 
L 84.467124 154.301725 
L 84.51656 154.129035 
L 84.76374 154.058786 
L 84.862613 153.796335 
L 85.010921 153.695941 
L 85.109793 153.539693 
L 85.282819 153.464828 
L 85.381691 153.349165 
L 85.505281 153.263358 
L 85.604153 152.997205 
L 85.653589 152.922348 
L 85.752462 152.684171 
L 85.876052 152.603994 
L 85.974924 152.444805 
L 86.073796 152.338309 
L 86.172668 152.189104 
L 86.370412 152.089532 
L 86.469284 151.927578 
L 86.543438 151.842326 
L 86.642311 151.735418 
L 87.087235 151.630959 
L 87.186107 151.485496 
L 87.284979 151.398451 
L 87.383851 151.219355 
L 87.65575 151.158349 
L 87.754622 150.953067 
L 87.90293 150.855084 
L 88.001802 150.750226 
L 88.100674 150.728473 
L 88.199546 150.541416 
L 88.347854 150.442439 
L 88.446727 150.158117 
L 88.520881 150.056165 
L 88.619753 149.965125 
L 88.718625 149.858061 
L 88.817497 149.714728 
L 88.990523 149.613179 
L 89.089395 149.410807 
L 89.188267 149.302649 
L 89.28714 149.187626 
L 89.484884 149.082363 
L 89.559038 148.755921 
L 89.855654 148.657715 
L 89.954526 148.537236 
L 90.053398 148.492532 
L 90.152271 148.317909 
L 90.251143 148.219917 
L 90.275861 148.104442 
L 90.646631 147.99885 
L 90.745503 147.812585 
L 90.918529 147.719146 
L 91.017402 147.363681 
L 91.091556 147.346599 
L 91.190428 146.934795 
L 91.363454 146.840591 
L 91.462326 146.562596 
L 91.610634 146.466285 
L 91.709506 146.350283 
L 91.882533 146.248823 
L 91.981405 146.098103 
L 92.080277 146.031837 
L 92.179149 145.912956 
L 92.401611 145.812991 
L 92.500483 145.639154 
L 92.648791 145.540825 
L 92.747663 145.442365 
L 92.846536 145.350571 
L 92.945408 145.167514 
L 93.16787 145.058771 
L 93.266742 144.837312 
L 93.340896 144.741716 
L 93.439768 144.626573 
L 93.513922 144.56172 
L 93.612794 144.398154 
L 93.686949 144.297125 
L 93.785821 144.163178 
L 93.909411 144.059642 
L 94.008283 143.872968 
L 94.156591 143.804436 
L 94.255463 143.639747 
L 94.354335 143.530583 
L 94.453207 143.345412 
L 94.576798 143.330339 
L 94.67567 143.026187 
L 94.947568 142.981657 
L 95.04644 142.591063 
L 95.145312 142.484982 
L 95.244184 142.319518 
L 95.392492 142.229904 
L 95.392492 142.197204 
L 95.689109 142.091989 
L 95.787981 141.903345 
L 95.985725 141.801253 
L 96.084597 141.65361 
L 96.158751 141.597382 
L 96.257623 141.366064 
L 96.331778 141.336257 
L 96.43065 140.947712 
L 96.529522 140.845362 
L 96.628394 140.562623 
L 96.653112 140.562623 
L 96.751984 140.308095 
L 96.850856 140.199839 
L 96.949728 140.105104 
L 96.974446 140.105104 
L 96.974446 139.964053 
L 97.246345 139.925474 
L 97.345217 139.778453 
L 97.444089 139.693492 
L 97.542961 139.439814 
L 97.765423 139.342245 
L 97.839577 139.194033 
L 98.06204 139.093077 
L 98.160912 138.933362 
L 98.18563 138.933362 
L 98.284502 138.386811 
L 98.333938 138.334566 
L 98.43281 137.93684 
L 98.630554 137.83062 
L 98.630554 137.79382 
L 98.80358 137.770512 
L 98.902452 137.465338 
L 98.92717 137.465338 
L 99.026043 137.151336 
L 99.347377 137.066715 
L 99.446249 136.908184 
L 99.520403 136.864304 
L 99.619275 136.559256 
L 99.668711 136.504668 
L 99.767583 136.249052 
L 100.237226 136.142356 
L 100.336098 135.97301 
L 100.509124 135.872729 
L 100.607996 135.396579 
L 100.706869 135.302772 
L 100.805741 134.958309 
L 100.855177 134.8597 
L 100.954049 134.717187 
L 101.028203 134.642072 
L 101.127075 134.423215 
L 101.300101 134.325977 
L 101.374255 134.116104 
L 101.69559 134.011709 
L 101.794462 133.871806 
L 101.868616 133.764261 
L 101.967488 133.482614 
L 102.091078 133.383475 
L 102.165232 133.238421 
L 102.362976 133.172026 
L 102.461848 132.871986 
L 102.610157 132.794468 
L 102.709029 132.621371 
L 102.758465 132.602105 
L 102.857337 132.415349 
L 102.980927 132.324062 
L 103.079799 132.123858 
L 103.129235 132.057014 
L 103.228107 131.782917 
L 103.277543 131.703463 
L 103.376416 131.4118 
L 103.475288 131.308047 
L 103.57416 131.165924 
L 103.94493 131.095249 
L 104.043802 130.902598 
L 104.117956 130.871953 
L 104.216828 130.69267 
L 104.365137 130.59626 
L 104.464009 130.398016 
L 104.538163 130.356612 
L 104.562881 130.246993 
L 104.760625 130.199115 
L 104.859497 129.952548 
L 104.983087 129.854024 
L 105.081959 129.681523 
L 105.20555 129.591718 
L 105.304422 129.288892 
L 105.353858 129.239184 
L 105.45273 128.964027 
L 105.526884 128.867312 
L 105.625756 128.679851 
L 105.675192 128.575226 
L 105.774064 128.486615 
L 105.798782 128.486615 
L 105.897654 128.278208 
L 106.218989 128.202537 
L 106.317861 128.076781 
L 106.367297 128.007481 
L 106.466169 127.833388 
L 106.565041 127.744684 
L 106.663913 127.520502 
L 106.738067 127.462029 
L 106.836939 127.235117 
L 106.911094 127.168281 
L 107.009966 126.906965 
L 107.133556 126.819607 
L 107.232428 126.563549 
L 107.380736 126.48243 
L 107.479608 126.154623 
L 107.504326 126.154623 
L 107.603198 125.671992 
L 107.751506 125.571461 
L 107.751506 125.545064 
L 107.924533 125.482661 
L 107.924533 125.37012 
L 108.245867 125.297852 
L 108.344739 125.03912 
L 108.394175 124.93811 
L 108.493047 124.76926 
L 108.616637 124.65975 
L 108.71551 124.523101 
L 108.764946 124.491944 
L 108.863818 124.320398 
L 109.036844 124.254709 
L 109.135716 124.077817 
L 109.259306 123.984331 
L 109.358178 123.784313 
L 109.481768 123.675925 
L 109.580641 123.546342 
L 109.654795 123.463543 
L 109.753667 123.175596 
L 109.803103 123.093586 
L 109.901975 122.957998 
L 110.099719 122.868809 
L 110.173873 122.613833 
L 110.272745 122.528283 
L 110.346899 122.368746 
L 110.915414 122.28116 
L 111.014286 122.195551 
L 111.113158 122.151083 
L 111.21203 122.007921 
L 111.286184 121.967977 
L 111.385057 121.626815 
L 111.533365 121.560697 
L 111.607519 121.442017 
L 111.755827 121.382068 
L 111.755827 121.306258 
L 112.003007 121.197508 
L 112.101879 121.071679 
L 112.151315 120.971559 
L 112.250188 120.816178 
L 112.398496 120.715075 
L 112.497368 120.521378 
L 112.744548 120.413295 
L 112.84342 120.157128 
L 112.892856 120.143802 
L 112.991728 119.898804 
L 113.140037 119.802017 
L 113.189473 119.616295 
L 113.313063 119.60878 
L 113.411935 119.442277 
L 113.535525 119.332803 
L 113.634397 119.217331 
L 113.733269 119.169182 
L 113.832141 118.99924 
L 113.955732 118.903523 
L 114.054604 118.596986 
L 114.10404 118.56427 
L 114.178194 118.447419 
L 114.326502 118.447419 
L 114.425374 118.16018 
L 114.499528 118.10741 
L 114.5984 117.936885 
L 114.697272 117.890479 
L 114.771426 117.684162 
L 114.895017 117.574796 
L 114.993889 117.346265 
L 115.117479 117.236167 
L 115.216351 117.023742 
L 115.339941 116.915801 
L 115.438813 116.639614 
L 115.710712 116.579573 
L 115.809584 116.212477 
L 115.908456 116.108374 
L 116.007328 115.905685 
L 116.1062 115.857689 
L 116.205072 115.33405 
L 116.328662 115.246446 
L 116.427534 115.035024 
L 116.47697 115.0177 
L 116.575842 114.800195 
L 116.625279 114.796273 
L 116.724151 114.578814 
L 116.921895 114.472609 
L 117.020767 114.361921 
L 117.094921 114.251143 
L 117.193793 114.080214 
L 117.292665 113.977503 
L 117.342101 113.724276 
L 117.465691 113.724276 
L 117.564564 113.341416 
L 117.712872 113.234132 
L 117.811744 113.088196 
L 117.910616 112.979285 
L 118.009488 112.768151 
L 118.083642 112.657394 
L 118.182514 112.510031 
L 118.330822 112.416495 
L 118.355541 112.379009 
L 118.479131 112.333079 
L 118.578003 112.128813 
L 118.676875 112.022777 
L 118.775747 111.835275 
L 118.849901 111.727937 
L 118.948773 111.59946 
L 119.072363 111.507393 
L 119.171235 111.292678 
L 119.270108 111.186808 
L 119.344262 111.078004 
L 119.443134 111.04842 
L 119.542006 110.706944 
L 119.813904 110.644181 
L 119.912776 110.459372 
L 120.085802 110.350647 
L 120.184675 110.044611 
L 120.258829 109.984555 
L 120.357701 109.797224 
L 120.431855 109.734048 
L 120.530727 109.353225 
L 120.753189 109.255362 
L 120.852061 109.144736 
L 120.901497 109.060559 
L 121.000369 108.90223 
L 121.12396 108.791562 
L 121.222832 108.571683 
L 121.321704 108.490741 
L 121.420576 108.318641 
L 121.470012 108.273418 
L 121.568884 107.942036 
L 121.643038 107.885433 
L 121.692474 107.72712 
L 121.989091 107.713447 
L 122.087963 107.435975 
L 122.236271 107.332216 
L 122.335143 107.249632 
L 122.434015 107.141161 
L 122.532887 106.865014 
L 122.582323 106.813178 
L 122.681195 106.5781 
L 122.755349 106.470151 
L 122.780068 106.412053 
L 122.928376 106.308351 
L 123.027248 106.19959 
L 123.12612 106.143856 
L 123.224992 105.938785 
L 123.274428 105.938785 
L 123.3733 105.7157 
L 123.571044 105.61548 
L 123.669917 105.226613 
L 123.719353 105.188365 
L 123.818225 104.877003 
L 124.213713 104.782713 
L 124.312585 104.282079 
L 124.460893 104.173259 
L 124.559766 103.982379 
L 124.683356 103.882444 
L 124.782228 103.576185 
L 124.8811 103.476126 
L 124.8811 103.393248 
L 125.103562 103.391856 
L 125.202434 103.182874 
L 125.25187 103.14322 
L 125.350742 102.842198 
L 125.400178 102.744685 
L 125.499051 102.648232 
L 125.597923 102.547031 
L 125.696795 102.189767 
L 125.746231 102.136781 
L 125.845103 101.953038 
L 126.265309 101.851979 
L 126.364182 101.633133 
L 126.413618 101.60639 
L 126.51249 101.304761 
L 126.611362 101.256273 
L 126.710234 101.04394 
L 126.858542 100.965943 
L 126.957414 100.76935 
L 127.105722 100.669745 
L 127.204595 100.411448 
L 127.303467 100.328896 
L 127.402339 100.080833 
L 127.451775 100.073333 
L 127.550647 99.75642 
L 127.575365 99.75642 
L 127.674237 99.479591 
L 127.723673 99.470452 
L 127.822545 99.179276 
L 127.847263 99.179276 
L 127.946135 98.948616 
L 128.218034 98.921244 
L 128.316906 98.732549 
L 128.465214 98.625046 
L 128.564086 98.390467 
L 128.63824 98.32702 
L 128.737112 98.097031 
L 128.835984 97.997174 
L 128.934856 97.651572 
L 129.033729 97.549505 
L 129.033729 97.432452 
L 129.231473 97.431041 
L 129.330345 97.172744 
L 129.404499 97.086622 
L 129.503371 96.868943 
L 129.552807 96.843184 
L 129.651679 96.518532 
L 129.725833 96.422116 
L 129.824705 96.237326 
L 129.923578 96.139636 
L 129.948296 96.063839 
L 130.121322 95.968572 
L 130.220194 95.610946 
L 130.343784 95.529695 
L 130.442656 95.217805 
L 130.590964 95.117811 
L 130.689836 94.919258 
L 130.813427 94.820522 
L 130.912299 94.469748 
L 131.035889 94.423387 
L 131.134761 94.195123 
L 131.208915 94.091016 
L 131.307787 93.993948 
L 131.480813 93.89414 
L 131.530249 93.779425 
L 131.727994 93.716718 
L 131.826866 93.460109 
L 131.90102 93.449646 
L 131.950456 93.138025 
L 132.247072 93.059776 
L 132.345944 92.756056 
L 132.39538 92.737093 
L 132.494253 92.351179 
L 132.691997 92.245104 
L 132.691997 92.166861 
L 132.963895 92.068244 
L 133.062767 91.7524 
L 133.161639 91.68098 
L 133.235793 91.50322 
L 133.384102 91.401351 
L 133.482974 91.239451 
L 133.53241 91.185966 
L 133.631282 90.860482 
L 133.754872 90.756174 
L 133.853744 90.311448 
L 134.298669 90.311211 
L 134.397541 89.966145 
L 134.570567 89.85837 
L 134.669439 89.68476 
L 134.718875 89.673027 
L 134.817747 89.374614 
L 134.867183 89.34051 
L 134.966055 89.045703 
L 135.040209 88.96546 
L 135.139082 88.76624 
L 135.237954 88.686257 
L 135.28739 88.521053 
L 135.509852 88.421225 
L 135.608724 88.288802 
L 135.633442 88.288802 
L 135.732314 88.027212 
L 135.831186 87.960769 
L 135.930058 87.709138 
L 136.053649 87.614516 
L 136.152521 87.331223 
L 136.226675 87.302446 
L 136.226675 87.207369 
L 136.597445 87.171931 
L 136.696317 86.630579 
L 136.795189 86.601076 
L 136.894062 86.378367 
L 137.04237 86.298039 
L 137.141242 86.165861 
L 137.215396 86.080561 
L 137.314268 85.979668 
L 137.41314 85.922723 
L 137.512012 85.67564 
L 137.53673 85.67564 
L 137.610884 85.493018 
L 137.709756 85.394779 
L 137.808629 85.149878 
L 137.907501 85.082245 
L 138.006373 84.898885 
L 138.031091 84.898885 
L 138.129963 84.594605 
L 138.179399 84.587246 
L 138.204117 84.376996 
L 138.624323 84.267573 
L 138.723196 84.138207 
L 138.846786 84.079746 
L 138.945658 83.768357 
L 139.04453 83.667927 
L 139.143402 83.405593 
L 139.316428 83.305961 
L 139.4153 83.121201 
L 139.514172 83.013005 
L 139.613045 82.775655 
L 139.711917 82.666146 
L 139.810789 82.558197 
L 139.959097 82.520588 
L 140.057969 82.352072 
L 140.107405 82.34283 
L 140.206277 82.158007 
L 140.255713 82.057997 
L 140.354585 81.836579 
L 140.42874 81.759066 
L 140.527612 81.503419 
L 140.601766 81.410763 
L 140.626484 81.347809 
L 141.04669 81.243005 
L 141.145562 81.099186 
L 141.244434 80.992092 
L 141.343307 80.839999 
L 141.392743 80.762823 
L 141.466897 80.532146 
L 141.664641 80.444132 
L 141.763513 80.34065 
L 141.812949 80.274607 
L 141.911821 79.84973 
L 142.060129 79.790839 
L 142.159001 79.579973 
L 142.4309 79.486486 
L 142.529772 79.228551 
L 142.628644 79.183647 
L 142.727516 78.938966 
L 142.776952 78.86121 
L 142.826388 78.70399 
L 142.92526 78.631546 
L 143.024132 78.414689 
L 143.444339 78.32913 
L 143.543211 78.067214 
L 143.666801 77.987429 
L 143.765673 77.717311 
L 143.889263 77.667902 
L 143.988136 77.467749 
L 144.037572 77.446793 
L 144.136444 77.171948 
L 144.358906 77.064269 
L 144.457778 76.724888 
L 144.507214 76.638443 
L 144.606086 76.568187 
L 144.704958 76.461875 
L 144.80383 76.400472 
L 144.877985 76.294747 
L 144.976857 76.160437 
L 145.001575 76.160437 
L 145.100447 75.849543 
L 145.224037 75.747433 
L 145.322909 75.654171 
L 145.446499 75.557034 
L 145.446499 75.498159 
L 145.743116 75.464402 
L 145.841988 75.097988 
L 145.965578 74.987351 
L 146.06445 74.766773 
L 146.237476 74.658078 
L 146.336348 74.564211 
L 146.43522 74.47589 
L 146.534092 74.295686 
L 146.657683 74.206145 
L 146.756555 73.838643 
L 146.904863 73.728867 
L 146.979017 73.635471 
L 147.102607 73.543101 
L 147.201479 73.237456 
L 147.325069 73.143488 
L 147.423941 72.899203 
L 147.522814 72.864741 
L 147.621686 72.626129 
L 147.918302 72.544637 
L 148.017174 72.362231 
L 148.116046 72.265322 
L 148.214918 72.132309 
L 148.289072 72.082216 
L 148.387945 71.846161 
L 148.462099 71.803252 
L 148.560971 71.584003 
L 148.610407 71.489522 
L 148.709279 71.43899 
L 148.783433 71.370769 
L 148.882305 71.159852 
L 148.956459 71.064046 
L 149.055331 70.892457 
L 149.203639 70.784022 
L 149.277794 70.661682 
L 149.426102 70.607372 
L 149.524974 70.340371 
L 149.599128 70.241035 
L 149.698 70.047238 
L 149.796872 70.003598 
L 149.895744 69.735829 
L 150.241797 69.670121 
L 150.340669 69.452889 
L 150.488977 69.385708 
L 150.587849 69.244285 
L 150.662003 69.134246 
L 150.760875 68.913473 
L 150.810311 68.844933 
L 150.909183 68.718314 
L 151.106928 68.619476 
L 151.2058 68.459785 
L 151.255236 68.449161 
L 151.354108 68.252759 
L 151.527134 68.183967 
L 151.626006 68.041972 
L 151.799032 67.935421 
L 151.897905 67.743474 
L 151.972059 67.658994 
L 152.070931 67.505018 
L 152.120367 67.402028 
L 152.219239 67.01751 
L 152.293393 66.964699 
L 152.367547 66.741001 
L 152.590009 66.630892 
L 152.688881 66.490953 
L 152.787754 66.38697 
L 152.886626 66.228064 
L 152.985498 66.12647 
L 153.08437 66.03769 
L 153.158524 65.985366 
L 153.257396 65.760039 
L 153.405704 65.65388 
L 153.504576 65.487114 
L 153.57873 65.427139 
L 153.677603 65.223974 
L 153.776475 65.122541 
L 153.875347 64.995616 
L 153.900065 64.995616 
L 153.998937 64.683228 
L 154.171963 64.58485 
L 154.270835 64.460384 
L 154.320271 64.397912 
L 154.419143 64.296559 
L 154.468579 64.231803 
L 154.567452 64.144198 
L 154.666324 64.058625 
L 154.765196 63.850299 
L 155.234838 63.752434 
L 155.33371 63.501462 
L 155.432583 63.418417 
L 155.531455 63.106956 
L 155.655045 63.026727 
L 155.753917 62.88988 
L 155.852789 62.783181 
L 155.951661 62.584179 
L 156.174123 62.491359 
L 156.272995 62.281683 
L 156.396586 62.173827 
L 156.495458 61.979179 
L 156.544894 61.9286 
L 156.643766 61.798611 
L 156.71792 61.721447 
L 156.816792 61.283115 
L 156.890946 61.214709 
L 156.9651 60.843639 
L 157.385307 60.810731 
L 157.484179 60.547461 
L 157.583051 60.452347 
L 157.681923 60.24767 
L 157.706641 60.24767 
L 157.805513 60.020403 
L 157.879667 59.938704 
L 157.978539 59.734484 
L 158.027975 59.711742 
L 158.077412 59.515812 
L 158.176284 59.507923 
L 158.275156 59.20402 
L 158.398746 59.125504 
L 158.497618 58.863455 
L 158.670644 58.761655 
L 158.769516 58.685741 
L 158.794234 58.685741 
L 158.893106 58.383331 
L 158.967261 58.330811 
L 159.066133 58.218918 
L 159.090851 58.218918 
L 159.189723 58.01999 
L 159.684083 57.926643 
L 159.782955 57.651138 
L 159.881828 57.594767 
L 159.9807 57.380524 
L 160.054854 57.308227 
L 160.153726 57.089151 
L 160.22788 57.053613 
L 160.326752 56.817058 
L 160.400906 56.74465 
L 160.499778 56.389292 
L 160.549214 56.362929 
L 160.648086 56.128486 
L 160.796395 56.021786 
L 160.895267 55.774903 
L 161.043575 55.705333 
L 161.142447 55.530414 
L 161.191883 55.461441 
L 161.290755 55.28518 
L 161.414345 55.232294 
L 161.513217 55.015864 
L 161.98286 54.92558 
L 162.081732 54.735104 
L 162.131168 54.653561 
L 162.23004 54.420497 
L 162.254758 54.420497 
L 162.35363 54.171737 
L 162.403066 54.130778 
L 162.501939 53.940997 
L 162.600811 53.869737 
L 162.699683 53.604952 
L 162.773837 53.523389 
L 162.872709 53.394811 
L 162.922145 53.296227 
L 163.021017 53.190314 
L 163.095171 53.112548 
L 163.194043 52.973787 
L 163.317633 52.86648 
L 163.416506 52.778058 
L 163.564814 52.714551 
L 163.663686 52.552675 
L 163.762558 52.46828 
L 163.86143 52.323599 
L 163.98502 52.220245 
L 164.083892 52.107644 
L 164.504099 52.015313 
L 164.528817 51.901813 
L 164.751279 51.808361 
L 164.850151 51.658871 
L 165.023177 51.56998 
L 165.122049 51.052631 
L 165.319794 50.963776 
L 165.418666 50.7728 
L 165.517538 50.685034 
L 165.61641 50.412541 
L 165.74 50.309151 
L 165.838872 50.074589 
L 165.888308 50.052314 
L 165.98718 49.778106 
L 166.160207 49.686966 
L 166.259079 49.588819 
L 166.333233 49.52458 
L 166.432105 49.3623 
L 166.481541 49.334685 
L 166.580413 49.178385 
L 166.877029 49.087955 
L 166.975902 48.960027 
L 167.074774 48.853863 
L 167.173646 48.724591 
L 167.321954 48.624783 
L 167.420826 48.330916 
L 167.49498 48.301157 
L 167.593852 48.122724 
L 167.668006 48.090238 
L 167.717442 47.891264 
L 167.865751 47.79655 
L 167.964623 47.670878 
L 168.038777 47.561364 
L 168.137649 47.423054 
L 168.236521 47.364575 
L 168.335393 47.122913 
L 168.434265 47.015741 
L 168.533137 46.839868 
L 168.656727 46.764111 
L 168.7556 46.599635 
L 168.87919 46.520218 
L 168.978062 46.261572 
L 169.447704 46.160197 
L 169.546577 45.945754 
L 169.670167 45.838896 
L 169.769039 45.509036 
L 169.892629 45.410539 
L 169.991501 45.319424 
L 170.016219 45.319424 
L 170.115091 45.063994 
L 170.238681 44.954291 
L 170.312835 44.855361 
L 170.436426 44.785105 
L 170.535298 44.486502 
L 170.63417 44.386765 
L 170.733042 44.31013 
L 170.906068 44.205343 
L 171.00494 44.062515 
L 171.103812 43.968735 
L 171.202684 43.85241 
L 171.326275 43.783703 
L 171.425147 43.664023 
L 171.474583 43.593677 
L 171.573455 43.507729 
L 171.672327 43.420855 
L 171.771199 43.329951 
L 172.488022 43.237295 
L 172.586894 43.091523 
L 172.685766 43.01502 
L 172.784638 42.877553 
L 172.858792 42.77255 
L 172.957664 42.642874 
L 173.056536 42.610162 
L 173.155409 42.33397 
L 173.204845 42.260669 
L 173.303717 41.972361 
L 173.402589 41.880557 
L 173.501461 41.573232 
L 173.600333 41.477582 
L 173.699205 41.293947 
L 173.847513 41.19566 
L 173.946385 40.985903 
L 173.995822 40.956158 
L 174.02054 40.806709 
L 174.366592 40.738261 
L 174.465464 40.554744 
L 174.539618 40.459656 
L 174.63849 40.359663 
L 175.009261 40.256731 
L 175.108133 40.030552 
L 175.182287 39.927755 
L 175.281159 39.792142 
L 175.429467 39.722742 
L 175.528339 39.545815 
L 175.676647 39.44531 
L 175.77552 39.290126 
L 175.89911 39.188776 
L 175.997982 39.077962 
L 176.195726 38.974409 
L 176.294598 38.68131 
L 176.418188 38.609983 
L 176.51706 38.425163 
L 176.714805 38.323497 
L 176.714805 38.293893 
L 176.986703 38.188294 
L 177.085575 38.052134 
L 177.258601 37.953885 
L 177.308037 37.846794 
L 177.505782 37.745303 
L 177.604654 37.586633 
L 177.703526 37.511044 
L 177.703526 37.378334 
L 178.173168 37.297481 
L 178.27204 37.151082 
L 178.370913 37.085649 
L 178.469785 36.587105 
L 178.618093 36.486661 
L 178.716965 36.315521 
L 178.791119 36.235549 
L 178.889991 36.151846 
L 179.013581 36.045417 
L 179.112453 35.895422 
L 179.211325 35.815732 
L 179.310198 35.438964 
L 179.40907 35.367016 
L 179.507942 35.250034 
L 179.631532 35.148353 
L 179.730404 34.99879 
L 179.829276 34.889642 
L 179.853994 34.878421 
L 180.125892 34.774228 
L 180.224765 34.693749 
L 180.373073 34.585951 
L 180.471945 34.453361 
L 180.817997 34.375639 
L 180.916869 34.223905 
L 180.991023 34.205264 
L 181.089896 33.834142 
L 181.16405 33.759527 
L 181.262922 33.566659 
L 181.337076 33.486441 
L 181.435948 33.203601 
L 181.510102 33.16241 
L 181.608974 32.868103 
L 181.683128 32.768623 
L 181.782 32.634527 
L 181.880872 32.543165 
L 181.979745 32.235103 
L 182.128053 32.165945 
L 182.226925 32.030512 
L 182.424669 31.922943 
L 182.424669 31.892333 
L 182.721285 31.806411 
L 182.770721 31.686754 
L 183.215646 31.686754 
L 183.240364 31.491511 
L 183.438108 31.420815 
L 183.53698 31.271549 
L 183.586416 31.165535 
L 183.685289 31.010822 
L 183.883033 30.921961 
L 183.981905 30.804029 
L 184.056059 30.726174 
L 184.154931 30.548279 
L 184.253803 30.537447 
L 184.352675 30.32288 
L 184.476265 30.215324 
L 184.575138 30.097163 
L 184.599856 30.097163 
L 184.698728 29.784002 
L 184.772882 29.714124 
L 184.871754 29.47977 
L 184.970626 29.431336 
L 185.069498 29.254751 
L 185.440269 29.153486 
L 185.539141 29.038728 
L 185.860475 28.939954 
L 185.959347 28.854058 
L 186.058219 28.750363 
L 186.157091 28.67886 
L 186.626734 28.583624 
L 186.725606 28.434145 
L 186.775042 28.375177 
L 186.873914 28.217486 
L 187.022222 28.128519 
L 187.121094 27.957091 
L 187.318839 27.847211 
L 187.417711 27.678742 
L 187.566019 27.567885 
L 187.664891 27.444982 
L 187.862635 27.356805 
L 187.961507 27.118096 
L 188.035661 27.024669 
L 188.134534 26.928475 
L 188.208688 26.840177 
L 188.30756 26.700669 
L 188.381714 26.628716 
L 188.480586 26.348159 
L 188.604176 26.280022 
L 188.703048 26.158189 
L 188.950228 26.063863 
L 189.049101 25.980434 
L 189.172691 25.901257 
L 189.222127 25.694655 
L 190.037822 25.586949 
L 190.136694 25.524746 
L 190.18613 25.430615 
L 190.285002 25.247238 
L 190.383874 25.142448 
L 190.482746 25.054862 
L 190.507464 25.054862 
L 190.606336 24.833465 
L 190.655772 24.804869 
L 190.754645 24.579049 
L 190.878235 24.476552 
L 190.977107 24.147695 
L 191.100697 24.044901 
L 191.199569 23.963994 
L 191.249005 23.942191 
L 191.347877 23.700399 
L 191.422031 23.633316 
L 191.520903 23.480739 
L 191.595057 23.445752 
L 191.644494 23.27118 
L 191.965828 23.183301 
L 192.0647 23.108054 
L 192.163572 23.022071 
L 192.237726 22.9454 
L 192.682651 22.857373 
L 192.756805 22.748205 
L 193.69609 22.673246 
L 193.794962 22.356017 
L 193.94327 22.261906 
L 194.042142 22.170064 
L 194.165732 22.064512 
L 194.264605 21.989472 
L 194.412913 21.900996 
L 194.511785 21.771359 
L 194.610657 21.698707 
L 194.709529 21.40768 
L 195.20389 21.305278 
L 195.302762 21.144068 
L 195.376916 21.035095 
L 195.475788 20.981448 
L 195.599378 20.903275 
L 195.673532 20.802113 
L 195.871276 20.725259 
L 195.970148 20.614894 
L 196.093739 20.507124 
L 196.192611 20.392459 
L 196.316201 20.285192 
L 196.415073 20.115404 
L 196.662253 20.004355 
L 196.736407 19.952435 
L 197.725128 19.847693 
L 197.799283 19.793225 
L 198.936312 19.707227 
L 199.035184 19.652685 
L 199.183492 19.550613 
L 199.282364 19.281463 
L 199.702571 19.178012 
L 199.801443 18.995167 
L 199.974469 18.891674 
L 200.073341 18.776926 
L 200.320521 18.776926 
L 200.419393 18.535372 
L 200.542984 18.471524 
L 200.641856 18.354579 
L 200.765446 18.25559 
L 200.864318 18.170861 
L 200.96319 18.103983 
L 201.062062 17.945681 
L 201.111498 17.858095 
L 201.21037 17.663223 
L 201.358679 17.562861 
L 201.457551 17.445117 
L 201.506987 17.411458 
L 201.605859 17.243101 
L 201.803603 17.145532 
L 201.877757 17.086149 
L 202.990068 17.051435 
L 203.088941 16.867285 
L 204.34956 16.768031 
L 204.448432 16.721951 
L 204.695612 16.611695 
L 204.794484 16.491409 
L 204.868639 16.394923 
L 204.967511 16.271463 
L 205.091101 16.215066 
L 205.189973 16.072503 
L 205.313563 15.996301 
L 205.412435 15.884395 
L 205.536025 15.777074 
L 205.634897 15.620503 
L 205.709051 15.569446 
L 205.807924 15.445143 
L 206.055104 15.344683 
L 206.153976 15.233979 
L 206.401156 15.16411 
L 206.425874 15.100974 
L 206.870799 14.994983 
L 206.895517 14.943359 
L 207.142697 14.840162 
L 207.241569 14.778464 
L 207.464031 14.687057 
L 207.562904 14.632127 
L 207.711212 14.524178 
L 207.810084 14.42418 
L 208.304444 14.317031 
L 208.378599 14.259088 
L 209.021267 14.151553 
L 209.120139 14.095781 
L 212.185175 13.985578 
L 212.209893 13.936665 
L 214.706414 13.837296 
L 214.805286 13.69656 
L 215.027748 13.59592 
L 215.12662 13.532724 
L 215.398518 13.441933 
L 215.497391 13.377861 
L 215.670417 13.284332 
L 215.769289 13.227779 
L 216.115341 13.130968 
L 216.214213 13.035145 
L 216.436676 12.929983 
L 216.535548 12.793301 
L 216.75801 12.686657 
L 216.856882 12.594347 
L 217.12878 12.491137 
L 217.227653 12.388038 
L 217.425397 12.28499 
L 217.524269 12.233376 
L 217.623141 12.167474 
L 217.722013 12.034038 
L 217.870321 11.939713 
L 217.969193 11.833802 
L 218.191656 11.724926 
L 218.290528 11.678561 
L 218.414118 11.604413 
L 218.51299 11.488081 
L 218.76017 11.38045 
L 218.859042 11.261744 
L 219.205095 11.165799 
L 219.303967 11.126559 
L 219.625301 11.052346 
L 219.625301 11.016916 
L 219.625301 2.227792 
L 219.625301 2.227792 
" clip-path="url(#p87fe044c73)" style="fill: none; stroke-dasharray: 7.5,1.5; stroke-dashoffset: 0; stroke: #ac7726; stroke-width: 1.5"/>
   </g>
   <g id="patch_3">
    <path d="M 43.78125 186.84327 
L 43.78125 10.999219 
" style="fill: none; stroke: #000000; stroke-width: 0.8; stroke-linejoin: miter; stroke-linecap: square"/>
   </g>
   <g id="patch_4">
    <path d="M 219.625301 186.84327 
L 219.625301 10.999219 
" style="fill: none; stroke: #000000; stroke-width: 0.8; stroke-linejoin: miter; stroke-linecap: square"/>
   </g>
   <g id="patch_5">
    <path d="M 43.78125 186.84327 
L 219.625301 186.84327 
" style="fill: none; stroke: #000000; stroke-width: 0.8; stroke-linejoin: miter; stroke-linecap: square"/>
   </g>
   <g id="patch_6">
    <path d="M 43.78125 10.999219 
L 219.625301 10.999219 
" style="fill: none; stroke: #000000; stroke-width: 0.8; stroke-linejoin: miter; stroke-linecap: square"/>
   </g>
   <g id="legend_1">
    <g id="patch_7">
     <path d="M 50.78125 48.355469 
L 127.757812 48.355469 
Q 129.757812 48.355469 129.757812 46.355469 
L 129.757812 17.999219 
Q 129.757812 15.999219 127.757812 15.999219 
L 50.78125 15.999219 
Q 48.78125 15.999219 48.78125 17.999219 
L 48.78125 46.355469 
Q 48.78125 48.355469 50.78125 48.355469 
z
" style="fill: #ffffff; opacity: 0.8; stroke: #cccccc; stroke-linejoin: miter"/>
    </g>
    <g id="line2d_15">
     <path d="M 52.78125 24.097656 
L 62.78125 24.097656 
L 62.78125 24.097656 
L 72.78125 24.097656 
L 72.78125 24.097656 
" style="fill: none; stroke: #67c7d5; stroke-width: 1.5; stroke-linecap: square"/>
    </g>
    <g id="text_15">
     <!-- ATL09 -->
     <g transform="translate(80.78125 27.597656) scale(0.1 -0.1)">
      <defs>
       <path id="DejaVuSans-41" d="M 2188 4044 
L 1331 1722 
L 3047 1722 
L 2188 4044 
z
M 1831 4666 
L 2547 4666 
L 4325 0 
L 3669 0 
L 3244 1197 
L 1141 1197 
L 716 0 
L 50 0 
L 1831 4666 
z
" transform="scale(0.015625)"/>
       <path id="DejaVuSans-54" d="M -19 4666 
L 3928 4666 
L 3928 4134 
L 2272 4134 
L 2272 0 
L 1638 0 
L 1638 4134 
L -19 4134 
L -19 4666 
z
" transform="scale(0.015625)"/>
       <path id="DejaVuSans-4c" d="M 628 4666 
L 1259 4666 
L 1259 531 
L 3531 531 
L 3531 0 
L 628 0 
L 628 4666 
z
" transform="scale(0.015625)"/>
       <path id="DejaVuSans-39" d="M 703 97 
L 703 672 
Q 941 559 1184 500 
Q 1428 441 1663 441 
Q 2288 441 2617 861 
Q 2947 1281 2994 2138 
Q 2813 1869 2534 1725 
Q 2256 1581 1919 1581 
Q 1219 1581 811 2004 
Q 403 2428 403 3163 
Q 403 3881 828 4315 
Q 1253 4750 1959 4750 
Q 2769 4750 3195 4129 
Q 3622 3509 3622 2328 
Q 3622 1225 3098 567 
Q 2575 -91 1691 -91 
Q 1453 -91 1209 -44 
Q 966 3 703 97 
z
M 1959 2075 
Q 2384 2075 2632 2365 
Q 2881 2656 2881 3163 
Q 2881 3666 2632 3958 
Q 2384 4250 1959 4250 
Q 1534 4250 1286 3958 
Q 1038 3666 1038 3163 
Q 1038 2656 1286 2365 
Q 1534 2075 1959 2075 
z
" transform="scale(0.015625)"/>
      </defs>
      <use xlink:href="#DejaVuSans-41"/>
      <use xlink:href="#DejaVuSans-54" transform="translate(60.658203 0)"/>
      <use xlink:href="#DejaVuSans-4c" transform="translate(121.742188 0)"/>
      <use xlink:href="#DejaVuSans-30" transform="translate(177.455078 0)"/>
      <use xlink:href="#DejaVuSans-39" transform="translate(241.078125 0)"/>
     </g>
    </g>
    <g id="line2d_16">
     <path d="M 52.78125 38.775781 
L 62.78125 38.775781 
L 62.78125 38.775781 
L 72.78125 38.775781 
L 72.78125 38.775781 
" style="fill: none; stroke-dasharray: 7.5,1.5; stroke-dashoffset: 0; stroke: #ac7726; stroke-width: 1.5"/>
    </g>
    <g id="text_16">
     <!-- Cloudnet -->
     <g transform="translate(80.78125 42.275781) scale(0.1 -0.1)">
      <defs>
       <path id="DejaVuSans-6c" d="M 603 4863 
L 1178 4863 
L 1178 0 
L 603 0 
L 603 4863 
z
" transform="scale(0.015625)"/>
       <path id="DejaVuSans-6f" d="M 1959 3097 
Q 1497 3097 1228 2736 
Q 959 2375 959 1747 
Q 959 1119 1226 758 
Q 1494 397 1959 397 
Q 2419 397 2687 759 
Q 2956 1122 2956 1747 
Q 2956 2369 2687 2733 
Q 2419 3097 1959 3097 
z
M 1959 3584 
Q 2709 3584 3137 3096 
Q 3566 2609 3566 1747 
Q 3566 888 3137 398 
Q 2709 -91 1959 -91 
Q 1206 -91 779 398 
Q 353 888 353 1747 
Q 353 2609 779 3096 
Q 1206 3584 1959 3584 
z
" transform="scale(0.015625)"/>
       <path id="DejaVuSans-75" d="M 544 1381 
L 544 3500 
L 1119 3500 
L 1119 1403 
Q 1119 906 1312 657 
Q 1506 409 1894 409 
Q 2359 409 2629 706 
Q 2900 1003 2900 1516 
L 2900 3500 
L 3475 3500 
L 3475 0 
L 2900 0 
L 2900 538 
Q 2691 219 2414 64 
Q 2138 -91 1772 -91 
Q 1169 -91 856 284 
Q 544 659 544 1381 
z
M 1991 3584 
L 1991 3584 
z
" transform="scale(0.015625)"/>
       <path id="DejaVuSans-64" d="M 2906 2969 
L 2906 4863 
L 3481 4863 
L 3481 0 
L 2906 0 
L 2906 525 
Q 2725 213 2448 61 
Q 2172 -91 1784 -91 
Q 1150 -91 751 415 
Q 353 922 353 1747 
Q 353 2572 751 3078 
Q 1150 3584 1784 3584 
Q 2172 3584 2448 3432 
Q 2725 3281 2906 2969 
z
M 947 1747 
Q 947 1113 1208 752 
Q 1469 391 1925 391 
Q 2381 391 2643 752 
Q 2906 1113 2906 1747 
Q 2906 2381 2643 2742 
Q 2381 3103 1925 3103 
Q 1469 3103 1208 2742 
Q 947 2381 947 1747 
z
" transform="scale(0.015625)"/>
       <path id="DejaVuSans-6e" d="M 3513 2113 
L 3513 0 
L 2938 0 
L 2938 2094 
Q 2938 2591 2744 2837 
Q 2550 3084 2163 3084 
Q 1697 3084 1428 2787 
Q 1159 2491 1159 1978 
L 1159 0 
L 581 0 
L 581 3500 
L 1159 3500 
L 1159 2956 
Q 1366 3272 1645 3428 
Q 1925 3584 2291 3584 
Q 2894 3584 3203 3211 
Q 3513 2838 3513 2113 
z
" transform="scale(0.015625)"/>
       <path id="DejaVuSans-65" d="M 3597 1894 
L 3597 1613 
L 953 1613 
Q 991 1019 1311 708 
Q 1631 397 2203 397 
Q 2534 397 2845 478 
Q 3156 559 3463 722 
L 3463 178 
Q 3153 47 2828 -22 
Q 2503 -91 2169 -91 
Q 1331 -91 842 396 
Q 353 884 353 1716 
Q 353 2575 817 3079 
Q 1281 3584 2069 3584 
Q 2775 3584 3186 3129 
Q 3597 2675 3597 1894 
z
M 3022 2063 
Q 3016 2534 2758 2815 
Q 2500 3097 2075 3097 
Q 1594 3097 1305 2825 
Q 1016 2553 972 2059 
L 3022 2063 
z
" transform="scale(0.015625)"/>
       <path id="DejaVuSans-74" d="M 1172 4494 
L 1172 3500 
L 2356 3500 
L 2356 3053 
L 1172 3053 
L 1172 1153 
Q 1172 725 1289 603 
Q 1406 481 1766 481 
L 2356 481 
L 2356 0 
L 1766 0 
Q 1100 0 847 248 
Q 594 497 594 1153 
L 594 3053 
L 172 3053 
L 172 3500 
L 594 3500 
L 594 4494 
L 1172 4494 
z
" transform="scale(0.015625)"/>
      </defs>
      <use xlink:href="#DejaVuSans-43"/>
      <use xlink:href="#DejaVuSans-6c" transform="translate(69.824219 0)"/>
      <use xlink:href="#DejaVuSans-6f" transform="translate(97.607422 0)"/>
      <use xlink:href="#DejaVuSans-75" transform="translate(158.789062 0)"/>
      <use xlink:href="#DejaVuSans-64" transform="translate(222.167969 0)"/>
      <use xlink:href="#DejaVuSans-6e" transform="translate(285.644531 0)"/>
      <use xlink:href="#DejaVuSans-65" transform="translate(349.023438 0)"/>
      <use xlink:href="#DejaVuSans-74" transform="translate(410.546875 0)"/>
     </g>
    </g>
   </g>
  </g>
 </g>
 <defs>
  <clipPath id="p87fe044c73">
   <rect x="43.78125" y="10.999219" width="175.844051" height="175.844051"/>
  </clipPath>
 </defs>
</svg>
