<?xml version="1.0" encoding="utf-8" standalone="no"?>
<!DOCTYPE svg PUBLIC "-//W3C//DTD SVG 1.1//EN"
  "http://www.w3.org/Graphics/SVG/1.1/DTD/svg11.dtd">
<svg xmlns:xlink="http://www.w3.org/1999/xlink" width="288pt" height="216pt" viewBox="0 0 288 216" xmlns="http://www.w3.org/2000/svg" version="1.1">
 <metadata>
  <rdf:RDF xmlns:dc="http://purl.org/dc/elements/1.1/" xmlns:cc="http://creativecommons.org/ns#" xmlns:rdf="http://www.w3.org/1999/02/22-rdf-syntax-ns#">
   <cc:Work>
    <dc:type rdf:resource="http://purl.org/dc/dcmitype/StillImage"/>
    <dc:date>2025-11-27T17:01:57.341532</dc:date>
    <dc:format>image/svg+xml</dc:format>
    <dc:creator>
     <cc:Agent>
      <dc:title>Matplotlib v3.10.0, https://matplotlib.org/</dc:title>
     </cc:Agent>
    </dc:creator>
   </cc:Work>
  </rdf:RDF>
 </metadata>
 <defs>
  <style type="text/css">*{stroke-linejoin: round; stroke-linecap: butt}</style>
 </defs>
 <g id="figure_1">
  <g id="patch_1">
   <path d="M 0 216 
L 288 216 
L 288 0 
L 0 0 
L 0 216 
z
" style="fill: none"/>
  </g>
  <g id="axes_1">
   <g id="patch_2">
    <path d="M 56.077974 182.64351 
L 231.922026 182.64351 
L 231.922026 6.799459 
L 56.077974 6.799459 
L 56.077974 182.64351 
z
" style="fill: none"/>
   </g>
   <g id="matplotlib.axis_1">
    <g id="xtick_1">
     <g id="line2d_1">
      <defs>
       <path id="m698cf49cd9" d="M 0 0 
L 0 3.5 
" style="stroke: #000000; stroke-width: 0.8"/>
      </defs>
      <g>
       <use xlink:href="#m698cf49cd9" x="56.077974" y="182.64351" style="stroke: #000000; stroke-width: 0.8"/>
      </g>
     </g>
     <g id="text_1">
      <!-- 0.0 -->
      <g transform="translate(48.126412 197.241948) scale(0.1 -0.1)">
       <defs>
        <path id="DejaVuSans-30" d="M 2034 4250 
Q 1547 4250 1301 3770 
Q 1056 3291 1056 2328 
Q 1056 1369 1301 889 
Q 1547 409 2034 409 
Q 2525 409 2770 889 
Q 3016 1369 3016 2328 
Q 3016 3291 2770 3770 
Q 2525 4250 2034 4250 
z
M 2034 4750 
Q 2819 4750 3233 4129 
Q 3647 3509 3647 2328 
Q 3647 1150 3233 529 
Q 2819 -91 2034 -91 
Q 1250 -91 836 529 
Q 422 1150 422 2328 
Q 422 3509 836 4129 
Q 1250 4750 2034 4750 
z
" transform="scale(0.015625)"/>
        <path id="DejaVuSans-2e" d="M 684 794 
L 1344 794 
L 1344 0 
L 684 0 
L 684 794 
z
" transform="scale(0.015625)"/>
       </defs>
       <use xlink:href="#DejaVuSans-30"/>
       <use xlink:href="#DejaVuSans-2e" transform="translate(63.623047 0)"/>
       <use xlink:href="#DejaVuSans-30" transform="translate(95.410156 0)"/>
      </g>
     </g>
    </g>
    <g id="xtick_2">
     <g id="line2d_2">
      <g>
       <use xlink:href="#m698cf49cd9" x="91.246785" y="182.64351" style="stroke: #000000; stroke-width: 0.8"/>
      </g>
     </g>
     <g id="text_2">
      <!-- 0.2 -->
      <g transform="translate(83.295222 197.241948) scale(0.1 -0.1)">
       <defs>
        <path id="DejaVuSans-32" d="M 1228 531 
L 3431 531 
L 3431 0 
L 469 0 
L 469 531 
Q 828 903 1448 1529 
Q 2069 2156 2228 2338 
Q 2531 2678 2651 2914 
Q 2772 3150 2772 3378 
Q 2772 3750 2511 3984 
Q 2250 4219 1831 4219 
Q 1534 4219 1204 4116 
Q 875 4013 500 3803 
L 500 4441 
Q 881 4594 1212 4672 
Q 1544 4750 1819 4750 
Q 2544 4750 2975 4387 
Q 3406 4025 3406 3419 
Q 3406 3131 3298 2873 
Q 3191 2616 2906 2266 
Q 2828 2175 2409 1742 
Q 1991 1309 1228 531 
z
" transform="scale(0.015625)"/>
       </defs>
       <use xlink:href="#DejaVuSans-30"/>
       <use xlink:href="#DejaVuSans-2e" transform="translate(63.623047 0)"/>
       <use xlink:href="#DejaVuSans-32" transform="translate(95.410156 0)"/>
      </g>
     </g>
    </g>
    <g id="xtick_3">
     <g id="line2d_3">
      <g>
       <use xlink:href="#m698cf49cd9" x="126.415595" y="182.64351" style="stroke: #000000; stroke-width: 0.8"/>
      </g>
     </g>
     <g id="text_3">
      <!-- 0.4 -->
      <g transform="translate(118.464032 197.241948) scale(0.1 -0.1)">
       <defs>
        <path id="DejaVuSans-34" d="M 2419 4116 
L 825 1625 
L 2419 1625 
L 2419 4116 
z
M 2253 4666 
L 3047 4666 
L 3047 1625 
L 3713 1625 
L 3713 1100 
L 3047 1100 
L 3047 0 
L 2419 0 
L 2419 1100 
L 313 1100 
L 313 1709 
L 2253 4666 
z
" transform="scale(0.015625)"/>
       </defs>
       <use xlink:href="#DejaVuSans-30"/>
       <use xlink:href="#DejaVuSans-2e" transform="translate(63.623047 0)"/>
       <use xlink:href="#DejaVuSans-34" transform="translate(95.410156 0)"/>
      </g>
     </g>
    </g>
    <g id="xtick_4">
     <g id="line2d_4">
      <g>
       <use xlink:href="#m698cf49cd9" x="161.584405" y="182.64351" style="stroke: #000000; stroke-width: 0.8"/>
      </g>
     </g>
     <g id="text_4">
      <!-- 0.6 -->
      <g transform="translate(153.632843 197.241948) scale(0.1 -0.1)">
       <defs>
        <path id="DejaVuSans-36" d="M 2113 2584 
Q 1688 2584 1439 2293 
Q 1191 2003 1191 1497 
Q 1191 994 1439 701 
Q 1688 409 2113 409 
Q 2538 409 2786 701 
Q 3034 994 3034 1497 
Q 3034 2003 2786 2293 
Q 2538 2584 2113 2584 
z
M 3366 4563 
L 3366 3988 
Q 3128 4100 2886 4159 
Q 2644 4219 2406 4219 
Q 1781 4219 1451 3797 
Q 1122 3375 1075 2522 
Q 1259 2794 1537 2939 
Q 1816 3084 2150 3084 
Q 2853 3084 3261 2657 
Q 3669 2231 3669 1497 
Q 3669 778 3244 343 
Q 2819 -91 2113 -91 
Q 1303 -91 875 529 
Q 447 1150 447 2328 
Q 447 3434 972 4092 
Q 1497 4750 2381 4750 
Q 2619 4750 2861 4703 
Q 3103 4656 3366 4563 
z
" transform="scale(0.015625)"/>
       </defs>
       <use xlink:href="#DejaVuSans-30"/>
       <use xlink:href="#DejaVuSans-2e" transform="translate(63.623047 0)"/>
       <use xlink:href="#DejaVuSans-36" transform="translate(95.410156 0)"/>
      </g>
     </g>
    </g>
    <g id="xtick_5">
     <g id="line2d_5">
      <g>
       <use xlink:href="#m698cf49cd9" x="196.753215" y="182.64351" style="stroke: #000000; stroke-width: 0.8"/>
      </g>
     </g>
     <g id="text_5">
      <!-- 0.8 -->
      <g transform="translate(188.801653 197.241948) scale(0.1 -0.1)">
       <defs>
        <path id="DejaVuSans-38" d="M 2034 2216 
Q 1584 2216 1326 1975 
Q 1069 1734 1069 1313 
Q 1069 891 1326 650 
Q 1584 409 2034 409 
Q 2484 409 2743 651 
Q 3003 894 3003 1313 
Q 3003 1734 2745 1975 
Q 2488 2216 2034 2216 
z
M 1403 2484 
Q 997 2584 770 2862 
Q 544 3141 544 3541 
Q 544 4100 942 4425 
Q 1341 4750 2034 4750 
Q 2731 4750 3128 4425 
Q 3525 4100 3525 3541 
Q 3525 3141 3298 2862 
Q 3072 2584 2669 2484 
Q 3125 2378 3379 2068 
Q 3634 1759 3634 1313 
Q 3634 634 3220 271 
Q 2806 -91 2034 -91 
Q 1263 -91 848 271 
Q 434 634 434 1313 
Q 434 1759 690 2068 
Q 947 2378 1403 2484 
z
M 1172 3481 
Q 1172 3119 1398 2916 
Q 1625 2713 2034 2713 
Q 2441 2713 2670 2916 
Q 2900 3119 2900 3481 
Q 2900 3844 2670 4047 
Q 2441 4250 2034 4250 
Q 1625 4250 1398 4047 
Q 1172 3844 1172 3481 
z
" transform="scale(0.015625)"/>
       </defs>
       <use xlink:href="#DejaVuSans-30"/>
       <use xlink:href="#DejaVuSans-2e" transform="translate(63.623047 0)"/>
       <use xlink:href="#DejaVuSans-38" transform="translate(95.410156 0)"/>
      </g>
     </g>
    </g>
    <g id="xtick_6">
     <g id="line2d_6">
      <g>
       <use xlink:href="#m698cf49cd9" x="231.922026" y="182.64351" style="stroke: #000000; stroke-width: 0.8"/>
      </g>
     </g>
     <g id="text_6">
      <!-- 1.0 -->
      <g transform="translate(223.970463 197.241948) scale(0.1 -0.1)">
       <defs>
        <path id="DejaVuSans-31" d="M 794 531 
L 1825 531 
L 1825 4091 
L 703 3866 
L 703 4441 
L 1819 4666 
L 2450 4666 
L 2450 531 
L 3481 531 
L 3481 0 
L 794 0 
L 794 531 
z
" transform="scale(0.015625)"/>
       </defs>
       <use xlink:href="#DejaVuSans-31"/>
       <use xlink:href="#DejaVuSans-2e" transform="translate(63.623047 0)"/>
       <use xlink:href="#DejaVuSans-30" transform="translate(95.410156 0)"/>
      </g>
     </g>
    </g>
    <g id="text_7">
     <!-- $u$, $v$ -->
     <g transform="translate(134.65 210.920073) scale(0.1 -0.1)">
      <defs>
       <path id="DejaVuSans-Oblique-75" d="M 428 1388 
L 838 3500 
L 1416 3500 
L 1006 1409 
Q 975 1256 961 1147 
Q 947 1038 947 966 
Q 947 700 1109 554 
Q 1272 409 1569 409 
Q 2031 409 2368 721 
Q 2706 1034 2809 1563 
L 3194 3500 
L 3769 3500 
L 3091 0 
L 2516 0 
L 2631 550 
Q 2388 244 2052 76 
Q 1716 -91 1338 -91 
Q 878 -91 622 161 
Q 366 413 366 863 
Q 366 956 381 1097 
Q 397 1238 428 1388 
z
" transform="scale(0.015625)"/>
       <path id="DejaVuSans-2c" d="M 750 794 
L 1409 794 
L 1409 256 
L 897 -744 
L 494 -744 
L 750 256 
L 750 794 
z
" transform="scale(0.015625)"/>
       <path id="DejaVuSans-20" transform="scale(0.015625)"/>
       <path id="DejaVuSans-Oblique-76" d="M 459 3500 
L 1069 3500 
L 1581 525 
L 3256 3500 
L 3866 3500 
L 1875 0 
L 1100 0 
L 459 3500 
z
" transform="scale(0.015625)"/>
      </defs>
      <use xlink:href="#DejaVuSans-Oblique-75" transform="translate(0 0.3125)"/>
      <use xlink:href="#DejaVuSans-2c" transform="translate(63.378906 0.3125)"/>
      <use xlink:href="#DejaVuSans-20" transform="translate(95.166016 0.3125)"/>
      <use xlink:href="#DejaVuSans-Oblique-76" transform="translate(126.953125 0.3125)"/>
     </g>
    </g>
   </g>
   <g id="matplotlib.axis_2">
    <g id="ytick_1">
     <g id="line2d_7">
      <defs>
       <path id="m8b6b6b3097" d="M 0 0 
L -3.5 0 
" style="stroke: #000000; stroke-width: 0.8"/>
      </defs>
      <g>
       <use xlink:href="#m8b6b6b3097" x="56.077974" y="182.64351" style="stroke: #000000; stroke-width: 0.8"/>
      </g>
     </g>
     <g id="text_8">
      <!-- 0.0 -->
      <g transform="translate(33.174849 186.442729) scale(0.1 -0.1)">
       <use xlink:href="#DejaVuSans-30"/>
       <use xlink:href="#DejaVuSans-2e" transform="translate(63.623047 0)"/>
       <use xlink:href="#DejaVuSans-30" transform="translate(95.410156 0)"/>
      </g>
     </g>
    </g>
    <g id="ytick_2">
     <g id="line2d_8">
      <g>
       <use xlink:href="#m8b6b6b3097" x="56.077974" y="147.4747" style="stroke: #000000; stroke-width: 0.8"/>
      </g>
     </g>
     <g id="text_9">
      <!-- 0.2 -->
      <g transform="translate(33.174849 151.273918) scale(0.1 -0.1)">
       <use xlink:href="#DejaVuSans-30"/>
       <use xlink:href="#DejaVuSans-2e" transform="translate(63.623047 0)"/>
       <use xlink:href="#DejaVuSans-32" transform="translate(95.410156 0)"/>
      </g>
     </g>
    </g>
    <g id="ytick_3">
     <g id="line2d_9">
      <g>
       <use xlink:href="#m8b6b6b3097" x="56.077974" y="112.305889" style="stroke: #000000; stroke-width: 0.8"/>
      </g>
     </g>
     <g id="text_10">
      <!-- 0.4 -->
      <g transform="translate(33.174849 116.105108) scale(0.1 -0.1)">
       <use xlink:href="#DejaVuSans-30"/>
       <use xlink:href="#DejaVuSans-2e" transform="translate(63.623047 0)"/>
       <use xlink:href="#DejaVuSans-34" transform="translate(95.410156 0)"/>
      </g>
     </g>
    </g>
    <g id="ytick_4">
     <g id="line2d_10">
      <g>
       <use xlink:href="#m8b6b6b3097" x="56.077974" y="77.137079" style="stroke: #000000; stroke-width: 0.8"/>
      </g>
     </g>
     <g id="text_11">
      <!-- 0.6 -->
      <g transform="translate(33.174849 80.936298) scale(0.1 -0.1)">
       <use xlink:href="#DejaVuSans-30"/>
       <use xlink:href="#DejaVuSans-2e" transform="translate(63.623047 0)"/>
       <use xlink:href="#DejaVuSans-36" transform="translate(95.410156 0)"/>
      </g>
     </g>
    </g>
    <g id="ytick_5">
     <g id="line2d_11">
      <g>
       <use xlink:href="#m8b6b6b3097" x="56.077974" y="41.968269" style="stroke: #000000; stroke-width: 0.8"/>
      </g>
     </g>
     <g id="text_12">
      <!-- 0.8 -->
      <g transform="translate(33.174849 45.767488) scale(0.1 -0.1)">
       <use xlink:href="#DejaVuSans-30"/>
       <use xlink:href="#DejaVuSans-2e" transform="translate(63.623047 0)"/>
       <use xlink:href="#DejaVuSans-38" transform="translate(95.410156 0)"/>
      </g>
     </g>
    </g>
    <g id="ytick_6">
     <g id="line2d_12">
      <g>
       <use xlink:href="#m8b6b6b3097" x="56.077974" y="6.799459" style="stroke: #000000; stroke-width: 0.8"/>
      </g>
     </g>
     <g id="text_13">
      <!-- 1.0 -->
      <g transform="translate(33.174849 10.598677) scale(0.1 -0.1)">
       <use xlink:href="#DejaVuSans-31"/>
       <use xlink:href="#DejaVuSans-2e" transform="translate(63.623047 0)"/>
       <use xlink:href="#DejaVuSans-30" transform="translate(95.410156 0)"/>
      </g>
     </g>
    </g>
    <g id="text_14">
     <!-- VCF -->
     <g transform="translate(27.095162 104.508984) rotate(-90) scale(0.1 -0.1)">
      <defs>
       <path id="DejaVuSans-56" d="M 1831 0 
L 50 4666 
L 709 4666 
L 2188 738 
L 3669 4666 
L 4325 4666 
L 2547 0 
L 1831 0 
z
" transform="scale(0.015625)"/>
       <path id="DejaVuSans-43" d="M 4122 4306 
L 4122 3641 
Q 3803 3938 3442 4084 
Q 3081 4231 2675 4231 
Q 1875 4231 1450 3742 
Q 1025 3253 1025 2328 
Q 1025 1406 1450 917 
Q 1875 428 2675 428 
Q 3081 428 3442 575 
Q 3803 722 4122 1019 
L 4122 359 
Q 3791 134 3420 21 
Q 3050 -91 2638 -91 
Q 1578 -91 968 557 
Q 359 1206 359 2328 
Q 359 3453 968 4101 
Q 1578 4750 2638 4750 
Q 3056 4750 3426 4639 
Q 3797 4528 4122 4306 
z
" transform="scale(0.015625)"/>
       <path id="DejaVuSans-46" d="M 628 4666 
L 3309 4666 
L 3309 4134 
L 1259 4134 
L 1259 2759 
L 3109 2759 
L 3109 2228 
L 1259 2228 
L 1259 0 
L 628 0 
L 628 4666 
z
" transform="scale(0.015625)"/>
      </defs>
      <use xlink:href="#DejaVuSans-56"/>
      <use xlink:href="#DejaVuSans-43" transform="translate(68.408203 0)"/>
      <use xlink:href="#DejaVuSans-46" transform="translate(138.232422 0)"/>
     </g>
    </g>
   </g>
   <g id="line2d_13">
    <path d="M 56.077974 191.433607 
L 56.102692 191.433607 
L 56.201565 182.637356 
L 56.868951 182.545896 
L 56.967823 182.487936 
L 58.203725 182.39143 
L 58.302597 182.365715 
L 59.439626 182.258565 
L 59.538498 182.165253 
L 60.502501 182.054916 
L 60.601374 182.030813 
L 61.39235 181.919872 
L 61.491223 181.877723 
L 62.084455 181.768664 
L 62.183327 181.756862 
L 62.702406 181.646512 
L 62.801278 181.612336 
L 63.369793 181.501548 
L 63.443947 181.483467 
L 63.913589 181.393524 
L 64.012461 181.338282 
L 64.630412 181.229191 
L 64.729284 181.182708 
L 65.322517 181.076805 
L 65.421389 181.032298 
L 65.940468 180.923265 
L 66.03934 180.896037 
L 66.434828 180.786489 
L 66.5337 180.75915 
L 66.953907 180.649405 
L 67.052779 180.619021 
L 67.374113 180.5193 
L 67.472985 180.490007 
L 68.0415 180.379315 
L 68.140372 180.329772 
L 68.53586 180.258029 
L 68.634733 180.201428 
L 69.129093 180.091021 
L 69.203247 180.063315 
L 69.747044 179.954862 
L 69.845916 179.936236 
L 70.315559 179.830005 
L 70.414431 179.814042 
L 71.254844 179.704689 
L 71.353716 179.681724 
L 72.095257 179.570977 
L 72.194129 179.533343 
L 72.737925 179.422887 
L 72.836797 179.40687 
L 73.207568 179.308899 
L 73.30644 179.262686 
L 73.8008 179.17156 
L 73.899673 179.089668 
L 74.344597 178.99047 
L 74.443469 178.965264 
L 74.764804 178.863287 
L 74.863676 178.801727 
L 75.209728 178.69913 
L 75.3086 178.636742 
L 75.704089 178.529526 
L 75.802961 178.484196 
L 76.149013 178.390086 
L 76.247885 178.301682 
L 76.69281 178.196119 
L 76.791682 178.175356 
L 77.162452 178.076261 
L 77.261324 178.021564 
L 77.582659 177.91174 
L 77.681531 177.867484 
L 78.052301 177.758953 
L 78.151173 177.739898 
L 78.521944 177.637523 
L 78.620816 177.602097 
L 78.966868 177.49216 
L 79.06574 177.460535 
L 79.411793 177.349447 
L 79.510665 177.329998 
L 79.831999 177.222408 
L 79.930871 177.186905 
L 80.301642 177.077724 
L 80.400514 177.028576 
L 80.870156 176.925004 
L 80.969029 176.896952 
L 81.315081 176.789292 
L 81.413953 176.757104 
L 81.710569 176.661236 
L 81.809442 176.581522 
L 82.32852 176.474887 
L 82.427392 176.42056 
L 82.699291 176.32702 
L 82.798163 176.260575 
L 83.070061 176.18187 
L 83.168933 176.101123 
L 83.490267 175.991519 
L 83.58914 175.953427 
L 83.83632 175.854008 
L 83.935192 175.796781 
L 84.231808 175.687021 
L 84.33068 175.667151 
L 84.602579 175.566195 
L 84.701451 175.5145 
L 84.874477 175.422995 
L 84.948631 175.37611 
L 85.146375 175.281554 
L 85.245247 175.223741 
L 85.640736 175.120917 
L 85.739608 175.056438 
L 85.96207 174.959937 
L 86.060942 174.916027 
L 86.332841 174.817118 
L 86.431713 174.764363 
L 86.678893 174.653349 
L 86.777765 174.614725 
L 87.173254 174.507194 
L 87.272126 174.480055 
L 87.568742 174.376627 
L 87.667614 174.335493 
L 88.063103 174.226532 
L 88.161975 174.159511 
L 88.532745 174.054908 
L 88.631617 174.005656 
L 88.903516 173.896909 
L 89.002388 173.841133 
L 89.10126 173.80585 
L 89.200132 173.673036 
L 89.397876 173.56326 
L 89.496748 173.530273 
L 89.892237 173.42151 
L 89.991109 173.346008 
L 90.361879 173.238332 
L 90.460751 173.189529 
L 90.85624 173.08191 
L 90.955112 173.029955 
L 91.301164 172.92036 
L 91.400036 172.830418 
L 91.820243 172.74816 
L 91.919115 172.676256 
L 92.215731 172.57189 
L 92.314603 172.497743 
L 92.784246 172.391525 
L 92.883118 172.349797 
L 93.204452 172.246523 
L 93.303325 172.203997 
L 93.550505 172.108187 
L 93.649377 172.00269 
L 93.945993 171.893803 
L 94.044865 171.820058 
L 94.292046 171.725089 
L 94.390918 171.669379 
L 94.588662 171.560289 
L 94.687534 171.528694 
L 94.835842 171.437762 
L 94.934714 171.364883 
L 95.256049 171.2713 
L 95.354921 171.196721 
L 95.552665 171.08881 
L 95.651537 171.051495 
L 95.873999 170.941042 
L 95.972872 170.908749 
L 96.220052 170.820662 
L 96.318924 170.715067 
L 96.516668 170.609589 
L 96.61554 170.528201 
L 96.788567 170.434369 
L 96.887439 170.333583 
L 97.184055 170.22966 
L 97.282927 170.201088 
L 97.431235 170.116024 
L 97.530107 170.04883 
L 97.727852 169.948164 
L 97.826724 169.896244 
L 97.975032 169.793835 
L 98.073904 169.73625 
L 98.296366 169.627147 
L 98.395238 169.500051 
L 98.568265 169.402241 
L 98.667137 169.286083 
L 98.939035 169.177852 
L 99.037907 169.044502 
L 99.161497 168.984638 
L 99.260369 168.90023 
L 99.680576 168.789667 
L 99.779448 168.754142 
L 99.927756 168.656408 
L 100.026628 168.57506 
L 100.273808 168.468781 
L 100.372681 168.419796 
L 100.619861 168.313752 
L 100.718733 168.241727 
L 101.064785 168.139238 
L 101.163657 168.093725 
L 101.410838 167.989839 
L 101.50971 167.897743 
L 101.682736 167.787772 
L 101.781608 167.755167 
L 102.152379 167.657006 
L 102.251251 167.604216 
L 102.374841 167.495458 
L 102.473713 167.442488 
L 102.720893 167.336277 
L 102.819765 167.291798 
L 103.01751 167.225891 
L 103.116382 167.120805 
L 103.338844 167.022054 
L 103.437716 166.909499 
L 103.734332 166.822936 
L 103.833204 166.699565 
L 104.154539 166.601099 
L 104.253411 166.519784 
L 104.525309 166.410571 
L 104.624181 166.281339 
L 104.77249 166.173584 
L 104.871362 166.131089 
L 104.945516 166.0283 
L 105.044388 165.93562 
L 105.242132 165.831137 
L 105.341004 165.796896 
L 105.439876 165.715044 
L 105.538748 165.629723 
L 105.736493 165.520332 
L 105.835365 165.488435 
L 106.057827 165.381714 
L 106.156699 165.354019 
L 106.403879 165.27102 
L 106.502752 165.177975 
L 106.749932 165.071182 
L 106.848804 165.033055 
L 107.071266 164.93939 
L 107.170138 164.870973 
L 107.540909 164.764188 
L 107.639781 164.727573 
L 107.936397 164.623334 
L 108.035269 164.576945 
L 108.183577 164.48131 
L 108.28245 164.426372 
L 108.554348 164.340721 
L 108.65322 164.282431 
L 108.925118 164.171793 
L 109.02399 164.107378 
L 109.320607 163.996422 
L 109.419479 163.952793 
L 109.641941 163.856752 
L 109.740813 163.812707 
L 110.012711 163.710714 
L 110.111584 163.636272 
L 110.309328 163.556041 
L 110.4082 163.427772 
L 110.630662 163.345372 
L 110.729534 163.244721 
L 110.853124 163.190803 
L 110.951997 163.057393 
L 111.248613 162.947547 
L 111.347485 162.838719 
L 111.545229 162.730398 
L 111.644101 162.609609 
L 111.891282 162.512418 
L 111.990154 162.41776 
L 112.237334 162.307932 
L 112.336206 162.210096 
L 112.484514 162.104514 
L 112.583386 162.027776 
L 112.731695 161.921147 
L 112.830567 161.837635 
L 113.127183 161.744435 
L 113.226055 161.652373 
L 113.374363 161.552343 
L 113.473235 161.473374 
L 113.967596 161.372318 
L 114.066468 161.274428 
L 114.363084 161.163344 
L 114.461957 161.134243 
L 114.610265 161.068098 
L 114.709137 160.896484 
L 114.981035 160.79081 
L 115.079907 160.672725 
L 115.178779 160.591707 
L 115.277651 160.495057 
L 115.42596 160.393177 
L 115.524832 160.308379 
L 115.722576 160.21337 
L 115.821448 160.163447 
L 116.1675 160.080445 
L 116.266373 159.973483 
L 116.389963 159.909238 
L 116.488835 159.816446 
L 116.711297 159.720161 
L 116.810169 159.662893 
L 117.106786 159.552656 
L 117.205658 159.449269 
L 117.403402 159.372536 
L 117.502274 159.250557 
L 117.79889 159.152507 
L 117.897762 158.970182 
L 118.070789 158.895437 
L 118.169661 158.72475 
L 118.441559 158.615011 
L 118.540431 158.549294 
L 118.688739 158.4392 
L 118.787611 158.366689 
L 118.985356 158.257986 
L 119.084228 158.164791 
L 119.30669 158.055512 
L 119.405562 157.975336 
L 119.652742 157.866465 
L 119.751615 157.79665 
L 120.048231 157.686394 
L 120.147103 157.665911 
L 120.320129 157.587823 
L 120.419001 157.46479 
L 120.567309 157.373175 
L 120.666182 157.265234 
L 120.81449 157.173346 
L 120.913362 157.014443 
L 121.036952 156.950344 
L 121.135824 156.835321 
L 121.481876 156.730711 
L 121.580749 156.678791 
L 121.729057 156.628734 
L 121.827929 156.472104 
L 122.025673 156.363119 
L 122.124545 156.323201 
L 122.272853 156.215577 
L 122.371725 156.159231 
L 122.544752 156.049811 
L 122.618906 156.013351 
L 122.81665 155.914708 
L 122.915522 155.778055 
L 123.137984 155.670068 
L 123.236856 155.627742 
L 123.385165 155.516695 
L 123.484037 155.474601 
L 123.657063 155.366033 
L 123.755935 155.264262 
L 123.854807 155.15853 
L 123.953679 154.952517 
L 124.20086 154.859911 
L 124.299732 154.783555 
L 124.497476 154.675932 
L 124.596348 154.589679 
L 124.81881 154.499903 
L 124.917682 154.424918 
L 125.090709 154.318792 
L 125.189581 154.255991 
L 125.387325 154.161474 
L 125.486197 154.066085 
L 125.708659 153.967067 
L 125.807531 153.865806 
L 125.95584 153.760408 
L 126.054712 153.704995 
L 126.153584 153.594727 
L 126.252456 153.533642 
L 126.4502 153.425319 
L 126.549072 153.322802 
L 126.69738 153.211901 
L 126.796253 153.173959 
L 126.870407 153.151222 
L 126.969279 152.980415 
L 127.265895 152.888174 
L 127.364767 152.852796 
L 127.488357 152.79617 
L 127.587229 152.621355 
L 127.809692 152.540478 
L 127.908564 152.440539 
L 128.056872 152.32994 
L 128.155744 152.282043 
L 128.378206 152.172034 
L 128.477078 152.085961 
L 128.699541 151.993213 
L 128.798413 151.917951 
L 128.946721 151.824327 
L 129.045593 151.744633 
L 129.218619 151.678148 
L 129.317491 151.53712 
L 129.539954 151.428155 
L 129.638826 151.25686 
L 129.886006 151.161418 
L 129.984878 151.000381 
L 130.157904 150.89389 
L 130.256776 150.84085 
L 130.454521 150.732798 
L 130.553393 150.685365 
L 130.751137 150.599798 
L 130.850009 150.525719 
L 131.072471 150.417897 
L 131.171343 150.36283 
L 131.369088 150.279502 
L 131.46796 150.217008 
L 131.566832 150.139335 
L 131.665704 150.020341 
L 131.912884 149.909392 
L 132.011756 149.812746 
L 132.110629 149.763291 
L 132.209501 149.590117 
L 132.431963 149.491358 
L 132.530835 149.405278 
L 132.827451 149.298597 
L 132.926323 149.224097 
L 133.173504 149.117951 
L 133.272376 149.008946 
L 133.371248 148.957312 
L 133.47012 148.839034 
L 133.618428 148.737678 
L 133.7173 148.632244 
L 133.939763 148.524515 
L 134.038635 148.465891 
L 134.186943 148.368822 
L 134.285815 148.23573 
L 134.409405 148.149649 
L 134.508277 148.030151 
L 134.681303 147.926585 
L 134.780176 147.827137 
L 134.97792 147.741181 
L 135.076792 147.66767 
L 135.274536 147.583734 
L 135.373408 147.408754 
L 135.521716 147.317217 
L 135.620589 147.245897 
L 135.867769 147.137858 
L 135.966641 147.069526 
L 136.016077 146.997274 
L 136.114949 146.866289 
L 136.263257 146.759034 
L 136.362129 146.713654 
L 136.436283 146.657869 
L 136.535156 146.550937 
L 136.708182 146.441 
L 136.807054 146.311297 
L 136.930644 146.200525 
L 137.029516 146.120198 
L 137.177824 146.009333 
L 137.276696 145.776133 
L 137.548595 145.665793 
L 137.647467 145.618118 
L 137.944083 145.512114 
L 138.042955 145.360522 
L 138.191263 145.268028 
L 138.290136 145.175197 
L 138.438444 145.101175 
L 138.537316 144.962642 
L 138.660906 144.910226 
L 138.759778 144.753871 
L 138.85865 144.653841 
L 138.957522 144.494388 
L 139.056394 144.387684 
L 139.155267 144.246645 
L 139.303575 144.136708 
L 139.402447 144.061588 
L 139.649627 143.960219 
L 139.748499 143.848639 
L 139.797935 143.73832 
L 139.896807 143.640506 
L 140.11927 143.533569 
L 140.218142 143.402901 
L 140.341732 143.308558 
L 140.440604 143.151086 
L 140.638348 143.055947 
L 140.73722 143.016589 
L 140.86081 142.917925 
L 140.959683 142.847103 
L 141.132709 142.744524 
L 141.231581 142.67386 
L 141.379889 142.565077 
L 141.478761 142.405485 
L 141.602351 142.325758 
L 141.701223 142.182402 
L 141.824814 142.084494 
L 141.923686 142.000145 
L 142.12143 141.973574 
L 142.220302 141.728399 
L 142.442764 141.626889 
L 142.541636 141.530065 
L 142.838253 141.444786 
L 142.937125 141.25218 
L 143.134869 141.151088 
L 143.233741 141.05697 
L 143.357331 140.964466 
L 143.456203 140.851777 
L 143.579794 140.751251 
L 143.678666 140.652041 
L 143.75282 140.561633 
L 143.851692 140.492424 
L 143.975282 140.384983 
L 144.074154 140.316454 
L 144.197744 140.217475 
L 144.296616 140.150706 
L 144.494361 140.049681 
L 144.593233 139.983825 
L 144.840413 139.899912 
L 144.939285 139.81621 
L 145.062875 139.74119 
L 145.161747 139.587126 
L 145.408928 139.476129 
L 145.5078 139.433549 
L 145.656108 139.324779 
L 145.75498 139.282341 
L 145.928006 139.196525 
L 146.026878 139.088498 
L 146.101032 139.013697 
L 146.199904 138.91992 
L 146.323495 138.849065 
L 146.422367 138.704838 
L 146.595393 138.635739 
L 146.694265 138.539244 
L 146.817855 138.43285 
L 146.916727 138.36764 
L 147.040317 138.274362 
L 147.13919 138.09635 
L 147.287498 138.017161 
L 147.38637 137.734899 
L 147.485242 137.62519 
L 147.584114 137.395095 
L 147.806576 137.284842 
L 147.905448 137.215323 
L 148.078475 137.107751 
L 148.177347 137.047367 
L 148.325655 136.943972 
L 148.424527 136.86276 
L 148.523399 136.772026 
L 148.622271 136.701099 
L 148.671707 136.597795 
L 148.770579 136.393568 
L 148.844733 136.33379 
L 148.943606 136.143364 
L 149.091914 136.04833 
L 149.190786 135.859231 
L 149.437966 135.749734 
L 149.536838 135.643207 
L 149.685146 135.564741 
L 149.784019 135.399924 
L 149.858173 135.325539 
L 149.957045 135.182381 
L 150.080635 135.085299 
L 150.179507 134.819213 
L 150.303097 134.727504 
L 150.401969 134.513397 
L 150.550277 134.41147 
L 150.64915 134.232231 
L 150.797458 134.125823 
L 150.89633 134.033388 
L 151.01992 133.940694 
L 151.118792 133.770677 
L 151.2671 133.662042 
L 151.365972 133.493349 
L 151.514281 133.400683 
L 151.613153 133.25793 
L 151.761461 133.153015 
L 151.860333 133.010885 
L 151.959205 132.911012 
L 152.058077 132.786643 
L 152.255821 132.69015 
L 152.354693 132.606585 
L 152.577156 132.529624 
L 152.676028 132.30793 
L 152.972644 132.228864 
L 153.071516 132.027375 
L 153.219824 131.926412 
L 153.318697 131.876967 
L 153.590595 131.766728 
L 153.689467 131.609713 
L 153.763621 131.562174 
L 153.862493 131.349467 
L 154.134391 131.246313 
L 154.233264 131.175003 
L 154.455726 131.064733 
L 154.554598 131.018588 
L 154.678188 130.924671 
L 154.77706 130.683313 
L 154.826496 130.67189 
L 154.925368 130.50162 
L 155.02424 130.431746 
L 155.123113 130.307972 
L 155.271421 130.216887 
L 155.370293 130.084568 
L 155.419729 130.034467 
L 155.518601 129.774977 
L 155.617473 129.665665 
L 155.716345 129.577421 
L 155.914089 129.493517 
L 156.012962 129.318558 
L 156.210706 129.214108 
L 156.309578 129.136163 
L 156.457886 129.028271 
L 156.556758 128.946752 
L 156.630912 128.848538 
L 156.729784 128.636013 
L 156.828657 128.558524 
L 156.927529 128.322407 
L 157.100555 128.227586 
L 157.199427 128.068256 
L 157.421889 127.961259 
L 157.520761 127.822129 
L 157.669069 127.71596 
L 157.767942 127.527051 
L 157.842096 127.420376 
L 157.940968 127.348717 
L 158.089276 127.24122 
L 158.188148 127.016575 
L 158.41061 126.911939 
L 158.509482 126.871177 
L 158.633073 126.782422 
L 158.731945 126.626782 
L 158.781381 126.624207 
L 158.880253 126.396084 
L 159.003843 126.352669 
L 159.102715 126.196056 
L 159.251023 126.1389 
L 159.349895 125.89381 
L 159.399331 125.874764 
L 159.498204 125.63032 
L 159.67123 125.541719 
L 159.770102 125.310022 
L 159.91841 125.210574 
L 160.017282 125.107834 
L 160.264462 124.998078 
L 160.363335 124.949979 
L 160.511643 124.85926 
L 160.610515 124.731299 
L 160.758823 124.631344 
L 160.857695 124.481449 
L 160.956567 124.409282 
L 161.055439 124.29498 
L 161.228466 124.193619 
L 161.327338 123.968938 
L 161.500364 123.865078 
L 161.599236 123.671515 
L 161.698108 123.607144 
L 161.79698 123.465991 
L 162.019442 123.359629 
L 162.118315 123.148042 
L 162.192469 123.043141 
L 162.291341 122.952062 
L 162.464367 122.880912 
L 162.563239 122.700448 
L 162.662111 122.604168 
L 162.760983 122.482005 
L 162.884573 122.384012 
L 162.983446 122.117247 
L 163.205908 122.031546 
L 163.30478 121.854227 
L 163.42837 121.756738 
L 163.527242 121.609808 
L 163.650832 121.530967 
L 163.749704 121.441059 
L 163.823858 121.376856 
L 163.922731 121.152366 
L 163.996885 121.097913 
L 164.095757 120.952921 
L 164.194629 120.884333 
L 164.293501 120.702731 
L 164.441809 120.662031 
L 164.540681 120.521324 
L 164.664271 120.421807 
L 164.763144 120.291117 
L 164.787862 120.291117 
L 164.886734 120.091848 
L 164.93617 120.043028 
L 165.035042 119.842063 
L 165.18335 119.756619 
L 165.282222 119.615411 
L 165.30694 119.615411 
L 165.405812 119.408527 
L 165.504684 119.3231 
L 165.603556 119.205754 
L 165.751865 119.107478 
L 165.850737 119.012285 
L 165.999045 118.939477 
L 166.097917 118.694375 
L 166.221507 118.583508 
L 166.320379 118.453861 
L 166.493405 118.3986 
L 166.592278 118.267517 
L 166.765304 118.182961 
L 166.864176 117.973562 
L 167.012484 117.867248 
L 167.111356 117.704184 
L 167.284382 117.59415 
L 167.383254 117.504545 
L 167.580999 117.39453 
L 167.679871 117.211107 
L 167.778743 117.114065 
L 167.877615 116.905689 
L 168.025923 116.823165 
L 168.124795 116.697673 
L 168.223667 116.61114 
L 168.32254 116.447747 
L 168.470848 116.347683 
L 168.56972 116.273188 
L 168.69331 116.236769 
L 168.792182 116.032898 
L 168.891054 115.970239 
L 168.989926 115.765824 
L 169.113516 115.670907 
L 169.212389 115.515404 
L 169.360697 115.418515 
L 169.459569 115.207905 
L 169.607877 115.113803 
L 169.706749 115.05873 
L 169.780903 114.948598 
L 169.879775 114.842513 
L 169.929211 114.83709 
L 170.028083 114.611431 
L 170.20111 114.504633 
L 170.299982 114.372958 
L 170.398854 114.290756 
L 170.497726 113.992297 
L 170.57188 113.922679 
L 170.670752 113.708609 
L 170.868496 113.606327 
L 170.967369 113.44287 
L 171.066241 113.375717 
L 171.165113 113.219793 
L 171.189831 113.219793 
L 171.288703 112.978094 
L 171.412293 112.898727 
L 171.511165 112.668418 
L 171.585319 112.563056 
L 171.684191 112.415023 
L 171.906654 112.304951 
L 172.005526 112.080131 
L 172.104398 111.999965 
L 172.20327 111.832947 
L 172.351578 111.743828 
L 172.45045 111.499381 
L 172.623476 111.406687 
L 172.722349 111.102988 
L 172.845939 111.026776 
L 172.944811 110.865682 
L 173.142555 110.757974 
L 173.241427 110.593243 
L 173.414453 110.489552 
L 173.513325 110.398909 
L 173.612198 110.290472 
L 173.71107 110.140949 
L 173.785224 110.089969 
L 173.884096 109.928874 
L 174.007686 109.864933 
L 174.106558 109.793992 
L 174.230148 109.729839 
L 174.32902 109.541929 
L 174.427892 109.438001 
L 174.526765 109.271934 
L 174.600919 109.227765 
L 174.699791 108.921396 
L 174.773945 108.833338 
L 174.872817 108.612826 
L 175.021125 108.50613 
L 175.119997 108.436935 
L 175.218869 108.350857 
L 175.317741 108.168382 
L 175.441332 108.071344 
L 175.540204 107.980639 
L 175.663794 107.914725 
L 175.762666 107.770117 
L 175.861538 107.661119 
L 175.96041 107.484441 
L 176.108718 107.385643 
L 176.20759 107.274339 
L 176.331181 107.210345 
L 176.430053 106.987842 
L 176.578361 106.905061 
L 176.677233 106.635367 
L 176.874977 106.524763 
L 176.973849 106.317723 
L 177.072721 106.219968 
L 177.171594 106.013437 
L 177.394056 105.907316 
L 177.492928 105.752389 
L 177.616518 105.659365 
L 177.71539 105.293366 
L 177.863698 105.222553 
L 177.96257 105.063919 
L 178.036725 104.989706 
L 178.135597 104.660602 
L 178.432213 104.559622 
L 178.531085 104.430929 
L 178.629957 104.341616 
L 178.728829 104.134074 
L 178.852419 104.043522 
L 178.951292 103.820808 
L 179.0996 103.723305 
L 179.198472 103.668013 
L 179.34678 103.57959 
L 179.445652 103.278802 
L 179.59396 103.191244 
L 179.692832 102.936471 
L 179.766987 102.834536 
L 179.865859 102.577976 
L 179.989449 102.485946 
L 180.088321 102.205606 
L 180.187193 102.157825 
L 180.286065 102.008952 
L 180.360219 101.899987 
L 180.459091 101.794868 
L 180.533245 101.721134 
L 180.632118 101.564009 
L 180.755708 101.456121 
L 180.85458 101.28142 
L 180.879298 101.28142 
L 180.97817 100.990739 
L 181.10176 100.895948 
L 181.200632 100.626063 
L 181.324222 100.531621 
L 181.423094 100.346514 
L 181.596121 100.23679 
L 181.694993 100.10389 
L 181.744429 100.04351 
L 181.843301 99.893973 
L 181.892737 99.890689 
L 181.991609 99.660041 
L 182.041045 99.562334 
L 182.139917 99.295349 
L 182.288225 99.186223 
L 182.387097 99.094285 
L 182.535406 98.991099 
L 182.634278 98.834963 
L 182.782586 98.731802 
L 182.881458 98.563963 
L 182.98033 98.501145 
L 183.079202 98.351831 
L 183.10392 98.351831 
L 183.202792 97.952228 
L 183.351101 97.881251 
L 183.449973 97.691212 
L 183.622999 97.589881 
L 183.721871 97.465154 
L 183.820743 97.374271 
L 183.919615 97.182641 
L 183.969051 97.082739 
L 184.067923 96.906038 
L 184.142077 96.80474 
L 184.24095 96.465841 
L 184.339822 96.39249 
L 184.438694 96.176649 
L 184.512848 96.087452 
L 184.61172 95.909903 
L 184.73531 95.836771 
L 184.834182 95.592015 
L 184.98249 95.496063 
L 185.081363 95.38366 
L 185.204953 95.296516 
L 185.303825 95.106419 
L 185.427415 95.000527 
L 185.526287 94.848793 
L 185.674595 94.75611 
L 185.773467 94.433264 
L 185.897057 94.35477 
L 185.99593 94.201404 
L 186.070084 94.108159 
L 186.168956 93.994487 
L 186.267828 93.907392 
L 186.3667 93.482649 
L 186.440854 93.399873 
L 186.539726 93.179983 
L 186.61388 93.071599 
L 186.712752 92.900735 
L 186.762188 92.883419 
L 186.861061 92.61783 
L 186.959933 92.518542 
L 187.058805 92.362492 
L 187.132959 92.259352 
L 187.231831 92.186203 
L 187.305985 92.124737 
L 187.404857 91.927216 
L 187.454293 91.881552 
L 187.553165 91.60274 
L 187.701474 91.51407 
L 187.800346 91.408542 
L 187.973372 91.358284 
L 188.072244 91.204603 
L 188.294706 91.099998 
L 188.393578 90.872311 
L 188.517168 90.783181 
L 188.616041 90.632598 
L 188.764349 90.524496 
L 188.863221 90.420723 
L 188.986811 90.311459 
L 189.085683 90.2183 
L 189.209273 90.111757 
L 189.308145 89.958468 
L 189.382299 89.908373 
L 189.481172 89.72811 
L 189.530608 89.723029 
L 189.62948 89.4416 
L 189.728352 89.345681 
L 189.827224 89.163098 
L 189.926096 89.062662 
L 190.024968 88.940478 
L 190.12384 88.855549 
L 190.222712 88.691482 
L 190.272148 88.604642 
L 190.371021 88.388954 
L 190.445175 88.317699 
L 190.544047 88.158224 
L 190.667637 88.047987 
L 190.766509 87.706717 
L 190.791227 87.706717 
L 190.890099 87.471437 
L 190.988971 87.36722 
L 191.087843 87.149181 
L 191.112561 87.149181 
L 191.211433 86.892812 
L 191.335024 86.817457 
L 191.433896 86.630001 
L 191.582204 86.522387 
L 191.681076 86.348694 
L 191.854102 86.256029 
L 191.952974 86.086257 
L 192.051846 86.048052 
L 192.150719 85.817988 
L 192.323745 85.716472 
L 192.422617 85.536723 
L 192.546207 85.441142 
L 192.645079 85.182565 
L 192.793387 85.077723 
L 192.892259 84.750709 
L 192.941695 84.697961 
L 193.040568 84.57122 
L 193.164158 84.497285 
L 193.238312 84.371704 
L 193.287748 84.371704 
L 193.38662 84.030131 
L 193.485492 83.925632 
L 193.584364 83.720869 
L 193.683236 83.617697 
L 193.782108 83.451276 
L 193.905699 83.350569 
L 194.004571 83.017785 
L 194.078725 82.935548 
L 194.177597 82.83436 
L 194.325905 82.732865 
L 194.424777 82.349451 
L 194.498931 82.239305 
L 194.597803 82.04123 
L 194.696675 81.969646 
L 194.795548 81.69359 
L 194.943856 81.598726 
L 194.993292 81.486237 
L 195.166318 81.377628 
L 195.26519 81.138703 
L 195.289908 81.138703 
L 195.38878 80.851368 
L 195.413498 80.851368 
L 195.51237 80.532159 
L 195.611242 80.426094 
L 195.710115 80.295461 
L 195.759551 80.231186 
L 195.858423 79.869674 
L 195.957295 79.844076 
L 196.056167 79.609354 
L 196.080885 79.609354 
L 196.179757 79.32845 
L 196.278629 79.244527 
L 196.377501 78.983966 
L 196.476373 78.873041 
L 196.575246 78.732429 
L 196.624682 78.628391 
L 196.723554 78.48363 
L 196.822426 78.417686 
L 196.921298 78.152567 
L 196.995452 78.072154 
L 197.094324 77.63629 
L 197.242632 77.538091 
L 197.341504 77.147478 
L 197.39094 77.146813 
L 197.489813 76.793792 
L 197.539249 76.775102 
L 197.638121 76.578844 
L 197.712275 76.513697 
L 197.811147 76.071358 
L 197.860583 75.997349 
L 197.959455 75.818416 
L 198.008891 75.815774 
L 198.107763 75.431906 
L 198.206635 75.345349 
L 198.305508 75.076963 
L 198.354944 75.026197 
L 198.453816 74.816363 
L 198.552688 74.725161 
L 198.65156 74.512561 
L 198.750432 74.406168 
L 198.849304 74.175909 
L 198.972894 74.110877 
L 199.071766 73.926383 
L 199.14592 73.83678 
L 199.244793 73.514769 
L 199.368383 73.419357 
L 199.467255 73.162504 
L 199.640281 73.07558 
L 199.739153 72.886269 
L 199.813307 72.78852 
L 199.912179 72.575232 
L 199.961615 72.501566 
L 200.060488 72.14691 
L 200.28295 72.054087 
L 200.381822 71.89447 
L 200.480694 71.794861 
L 200.579566 71.664715 
L 200.629002 71.566343 
L 200.727874 71.341736 
L 200.826746 71.233285 
L 200.925619 71.07184 
L 201.024491 71.019291 
L 201.123363 70.770606 
L 201.246953 70.660473 
L 201.345825 70.518348 
L 201.444697 70.449987 
L 201.543569 70.081061 
L 201.667159 69.97137 
L 201.766031 69.701721 
L 201.815468 69.656471 
L 201.91434 69.481253 
L 201.939058 69.481253 
L 202.03793 69.1502 
L 202.087366 69.07417 
L 202.186238 68.710731 
L 202.235674 68.68566 
L 202.334546 68.33734 
L 202.433418 68.22794 
L 202.53229 68.076717 
L 202.606444 67.985918 
L 202.705317 67.603073 
L 202.754753 67.53873 
L 202.853625 67.336786 
L 202.952497 67.24776 
L 203.051369 67.005945 
L 203.125523 66.95424 
L 203.224395 66.800301 
L 203.273831 66.699885 
L 203.372703 66.508632 
L 203.446857 66.401399 
L 203.545729 66.258129 
L 203.66932 66.150211 
L 203.768192 65.902468 
L 203.817628 65.900585 
L 203.9165 65.486711 
L 203.990654 65.386782 
L 204.089526 65.014214 
L 204.16368 64.916133 
L 204.262552 64.824045 
L 204.386142 64.725651 
L 204.485015 64.552055 
L 204.534451 64.536904 
L 204.633323 64.022542 
L 204.781631 63.948268 
L 204.880503 63.763836 
L 205.004093 63.667149 
L 205.102965 63.559223 
L 205.152401 63.47215 
L 205.251273 63.231651 
L 205.374864 63.168138 
L 205.473736 62.762972 
L 205.523172 62.691928 
L 205.622044 62.544892 
L 205.720916 62.447425 
L 205.819788 62.28673 
L 205.869224 62.187034 
L 205.968096 61.834411 
L 206.017532 61.735903 
L 206.116404 61.438372 
L 206.215276 61.361651 
L 206.314149 60.855215 
L 206.388303 60.782199 
L 206.487175 60.446685 
L 206.561329 60.429355 
L 206.660201 60.101152 
L 206.783791 60.03973 
L 206.882663 59.810096 
L 206.981535 59.701623 
L 207.080407 59.651127 
L 207.17928 59.554306 
L 207.278152 59.153588 
L 207.377024 59.070767 
L 207.475896 58.9014 
L 207.574768 58.819991 
L 207.67364 58.518297 
L 207.723076 58.416688 
L 207.821948 58.186649 
L 207.896102 58.157215 
L 207.994975 57.788752 
L 208.217437 57.684734 
L 208.316309 57.247358 
L 208.464617 57.140576 
L 208.563489 56.938978 
L 208.637643 56.884394 
L 208.736515 56.398085 
L 208.761233 56.398085 
L 208.860105 55.796806 
L 209.008414 55.708941 
L 209.107286 55.52378 
L 209.132004 55.52378 
L 209.230876 55.192153 
L 209.329748 55.092077 
L 209.42862 55.012566 
L 209.527492 54.901518 
L 209.626364 54.559293 
L 209.725236 54.47312 
L 209.799391 54.325772 
L 209.972417 54.218079 
L 209.997135 54.181647 
L 210.120725 54.181647 
L 210.219597 53.766157 
L 210.318469 53.667339 
L 210.417341 53.376964 
L 210.491495 53.269845 
L 210.590367 53.153662 
L 210.639804 53.151912 
L 210.738676 52.557413 
L 210.837548 52.511293 
L 210.93642 52.21754 
L 211.010574 52.120091 
L 211.109446 51.786329 
L 211.208318 51.692723 
L 211.30719 51.050211 
L 211.381344 50.944009 
L 211.480216 50.707762 
L 211.504934 50.707762 
L 211.603807 50.279577 
L 211.677961 50.206163 
L 211.776833 49.777998 
L 211.900423 49.70631 
L 211.999295 49.486891 
L 212.098167 49.391403 
L 212.197039 49.158436 
L 212.271193 49.079838 
L 212.370065 48.770566 
L 212.44422 48.66709 
L 212.44422 48.635457 
L 212.617246 48.60208 
L 212.716118 48.348653 
L 212.889144 48.288364 
L 212.988016 47.949658 
L 213.012734 47.949658 
L 213.111606 47.728476 
L 213.210478 47.648448 
L 213.309351 47.191929 
L 213.334069 47.191929 
L 213.432941 46.967381 
L 213.482377 46.86686 
L 213.581249 46.314533 
L 213.630685 46.261969 
L 213.729557 46.001992 
L 213.902583 45.905964 
L 214.001455 45.713238 
L 214.125045 45.605355 
L 214.223918 45.484936 
L 214.273354 45.381671 
L 214.372226 45.200642 
L 214.471098 45.090458 
L 214.56997 44.944651 
L 214.619406 44.885656 
L 214.69356 44.505097 
L 214.866586 44.501366 
L 214.965458 44.219395 
L 215.064331 44.131066 
L 215.163203 43.95407 
L 215.311511 43.875302 
L 215.410383 43.535332 
L 215.484537 43.43449 
L 215.583409 43.312149 
L 215.682281 43.221733 
L 215.781153 43.041961 
L 215.855307 42.980595 
L 215.95418 42.806102 
L 216.07777 42.719916 
L 216.176642 42.389278 
L 216.300232 42.302541 
L 216.300232 42.264986 
L 216.547412 42.261342 
L 216.646284 41.980851 
L 216.794592 41.87698 
L 216.893465 41.682344 
L 216.942901 41.632888 
L 217.041773 41.39926 
L 217.115927 41.357784 
L 217.214799 40.853764 
L 217.387825 40.772352 
L 217.461979 40.486568 
L 217.659723 40.380217 
L 217.758596 40.209971 
L 217.83275 40.12725 
L 217.931622 39.735329 
L 218.005776 39.649083 
L 218.005776 39.579242 
L 218.178802 39.488707 
L 218.277674 39.050431 
L 218.376546 38.942931 
L 218.475418 38.658165 
L 218.524854 38.568896 
L 218.623727 38.325285 
L 218.673163 38.219795 
L 218.772035 37.893763 
L 218.895625 37.825541 
L 218.994497 37.278522 
L 219.093369 37.179152 
L 219.192241 36.99258 
L 219.266395 36.890469 
L 219.365267 36.668414 
L 219.439421 36.561568 
L 219.538294 36.378165 
L 219.612448 36.274271 
L 219.71132 36.13199 
L 219.785474 36.079305 
L 219.884346 35.87949 
L 219.983218 35.835436 
L 220.08209 35.604389 
L 220.156244 35.498179 
L 220.255116 35.25589 
L 220.378707 35.1504 
L 220.477579 34.941168 
L 220.576451 34.847942 
L 220.675323 34.762427 
L 220.798913 34.739557 
L 220.897785 34.272 
L 220.947221 34.203367 
L 221.046093 33.833986 
L 221.169683 33.811647 
L 221.268556 33.504172 
L 221.293274 33.504172 
L 221.392146 32.922866 
L 221.58989 32.818725 
L 221.688762 32.352168 
L 221.787634 32.24793 
L 221.886506 31.948317 
L 222.034814 31.920038 
L 222.133687 31.603667 
L 222.232559 31.495146 
L 222.306713 31.253477 
L 222.455021 31.179017 
L 222.553893 30.877997 
L 222.652765 30.778193 
L 222.751637 30.182878 
L 222.801073 30.080355 
L 222.899945 29.594058 
L 222.974099 29.49216 
L 223.072972 29.17295 
L 223.09769 29.17295 
L 223.196562 28.970494 
L 223.270716 28.915322 
L 223.369588 28.456009 
L 223.419024 28.398209 
L 223.517896 27.811684 
L 223.567332 27.791834 
L 223.666204 27.302607 
L 223.740358 27.194351 
L 223.83923 26.912159 
L 223.913385 26.809765 
L 224.012257 26.652394 
L 224.061693 26.636981 
L 224.160565 26.323992 
L 224.284155 26.323992 
L 224.383027 25.892629 
L 224.481899 25.80095 
L 224.580771 25.571482 
L 224.630207 25.5371 
L 224.729079 24.847968 
L 224.803234 24.755365 
L 224.877388 24.498795 
L 225.000978 24.407032 
L 225.075132 24.288551 
L 225.174004 24.268933 
L 225.272876 23.801275 
L 225.396466 23.694725 
L 225.495338 23.54497 
L 225.520056 23.54497 
L 225.59421 23.25089 
L 225.693083 23.157045 
L 225.791955 22.795456 
L 225.841391 22.732077 
L 225.940263 22.548488 
L 226.014417 22.456318 
L 226.113289 22.062502 
L 226.138007 22.062502 
L 226.236879 21.671486 
L 226.286315 21.605927 
L 226.385187 21.127493 
L 226.434623 21.080127 
L 226.533496 20.71223 
L 226.60765 20.621308 
L 226.706522 19.971361 
L 226.805394 19.872794 
L 226.879548 19.737055 
L 226.953702 19.737055 
L 227.027856 19.469316 
L 227.10201 19.374973 
L 227.200882 18.694574 
L 227.275036 18.694574 
L 227.373908 18.233799 
L 227.448063 18.191519 
L 227.546935 17.801568 
L 227.621089 17.73091 
L 227.695243 17.475415 
L 227.818833 17.394853 
L 227.917705 16.940407 
L 228.016577 16.832182 
L 228.115449 16.437444 
L 228.189603 16.334553 
L 228.288476 15.696516 
L 228.36263 15.659255 
L 228.461502 15.027304 
L 228.535656 14.962875 
L 228.634528 14.704729 
L 228.758118 14.704729 
L 228.85699 14.043874 
L 228.906426 13.999464 
L 229.005298 13.471322 
L 229.054734 13.468499 
L 229.153606 12.899253 
L 229.203043 12.877144 
L 229.301915 12.642667 
L 229.376069 12.535452 
L 229.474941 12.250437 
L 229.598531 12.160558 
L 229.697403 11.655083 
L 229.746839 11.583357 
L 229.845711 11.127546 
L 229.944583 11.036665 
L 230.043455 10.784593 
L 230.142328 10.718464 
L 230.2412 10.398606 
L 230.290636 10.388113 
L 230.389508 10.158466 
L 230.463662 10.098105 
L 230.562534 9.875448 
L 230.710842 9.848778 
L 230.73556 9.654615 
L 230.85915 9.654615 
L 230.958023 9.150764 
L 231.081613 9.137366 
L 231.180485 8.422635 
L 231.205203 8.422635 
L 231.304075 8.102376 
L 231.328793 8.102376 
L 231.402947 7.965092 
L 231.452383 7.965092 
L 231.477101 7.792928 
L 231.625409 7.792928 
L 231.724281 7.629695 
L 231.748999 7.629695 
L 231.823154 7.299016 
L 231.87259 7.299016 
L 231.922026 -1 
L 231.922026 -1 
" clip-path="url(#pd55593bdad)" style="fill: none; stroke: #67c7d5; stroke-width: 1.5; stroke-linecap: square"/>
   </g>
   <g id="line2d_14">
    <path d="M 56.077974 191.388757 
L 56.102692 191.388757 
L 56.201565 182.511144 
L 56.448745 182.408917 
L 56.547617 182.307046 
L 56.671207 182.19961 
L 56.745361 182.136818 
L 56.844233 182.077377 
L 56.918387 181.946832 
L 57.116132 181.890784 
L 57.215004 181.73235 
L 57.38803 181.630127 
L 57.486902 181.429131 
L 57.709364 181.330674 
L 57.808236 181.206672 
L 57.931826 181.129653 
L 58.030699 180.953457 
L 58.154289 180.866025 
L 58.228443 180.799398 
L 58.327315 180.688602 
L 58.426187 180.61941 
L 58.549777 180.514371 
L 58.648649 180.419971 
L 58.796957 180.333162 
L 58.89583 180.107656 
L 58.994702 180.047409 
L 59.093574 179.93973 
L 59.241882 179.851512 
L 59.340754 179.71937 
L 60.354193 179.611716 
L 60.453065 179.500172 
L 60.601374 179.390093 
L 60.65081 179.361419 
L 60.972144 179.250355 
L 61.071016 179.195203 
L 61.169888 179.123329 
L 61.26876 178.968469 
L 61.417068 178.865333 
L 61.515941 178.768486 
L 61.688967 178.670621 
L 61.713685 178.622281 
L 62.059737 178.519778 
L 62.158609 178.456726 
L 62.331635 178.380653 
L 62.430508 178.196433 
L 62.52938 178.115351 
L 62.628252 177.880035 
L 62.727124 177.853348 
L 62.825996 177.549634 
L 62.924868 177.467512 
L 63.02374 177.271341 
L 63.196766 177.16206 
L 63.295639 177.088232 
L 63.345075 177.0326 
L 63.443947 176.920948 
L 63.616973 176.820109 
L 63.616973 176.804641 
L 65.371953 176.714489 
L 65.446107 176.621028 
L 65.841595 176.543439 
L 65.940468 176.402008 
L 66.064058 176.305882 
L 66.16293 176.194909 
L 66.360674 176.087868 
L 66.459546 176.007885 
L 66.607854 175.911688 
L 66.706726 175.859956 
L 66.978625 175.766809 
L 67.077497 175.670164 
L 67.275241 175.559283 
L 67.374113 175.410986 
L 67.472985 175.341693 
L 67.571857 175.193144 
L 67.744884 175.085019 
L 67.843756 174.925462 
L 67.893192 174.899087 
L 67.992064 174.713029 
L 68.090936 174.650599 
L 68.189808 174.522725 
L 68.585297 174.464717 
L 68.684169 174.351048 
L 68.857195 174.246593 
L 68.956067 174.109405 
L 69.178529 174.003632 
L 69.227965 173.90441 
L 70.068378 173.851307 
L 70.16725 173.736392 
L 70.760483 173.625866 
L 70.859355 173.548128 
L 71.007663 173.451359 
L 71.106535 173.350686 
L 71.328998 173.261584 
L 71.42787 173.147709 
L 71.55146 173.036636 
L 71.650332 172.909797 
L 71.79864 172.809153 
L 71.897512 172.705631 
L 71.971666 172.595258 
L 72.070538 172.365491 
L 72.268283 172.283975 
L 72.367155 172.127747 
L 72.515463 172.028987 
L 72.614335 171.766998 
L 72.737925 171.708757 
L 72.836797 171.419422 
L 73.034542 171.312382 
L 73.133414 171.17686 
L 73.380594 171.102393 
L 73.454748 170.965772 
L 74.146853 170.870591 
L 74.196289 170.737504 
L 74.715367 170.654143 
L 74.81424 170.481073 
L 75.135574 170.371974 
L 75.234446 170.254253 
L 75.456908 170.154222 
L 75.55578 170.041336 
L 75.728807 169.932197 
L 75.827679 169.691078 
L 75.951269 169.590579 
L 76.050141 169.494287 
L 76.124295 169.394478 
L 76.223167 169.319145 
L 76.346757 169.238569 
L 76.445629 169.142904 
L 76.544502 169.056069 
L 76.643374 168.904647 
L 76.742246 168.841472 
L 76.841118 168.693437 
L 76.915272 168.599853 
L 77.014144 168.520616 
L 77.137734 168.412143 
L 77.236606 168.29554 
L 77.335478 168.186915 
L 77.409633 168.057401 
L 78.027583 167.989839 
L 78.126455 167.854715 
L 78.497226 167.753917 
L 78.596098 167.702471 
L 78.744406 167.608608 
L 78.843278 167.501819 
L 79.06574 167.397442 
L 79.164613 167.344361 
L 79.189331 167.344361 
L 79.288203 167.135081 
L 79.337639 167.095031 
L 79.436511 166.915931 
L 79.560101 166.831562 
L 79.658973 166.762372 
L 79.881435 166.656694 
L 79.980307 166.487583 
L 80.103898 166.454827 
L 80.20277 166.313083 
L 80.44995 166.228303 
L 80.548822 166.106468 
L 80.746566 166.016139 
L 80.845438 165.872624 
L 80.944311 165.780497 
L 81.043183 165.641085 
L 81.191491 165.53761 
L 81.290363 165.417482 
L 81.488107 165.337454 
L 81.586979 165.116154 
L 82.130776 165.059105 
L 82.229648 164.841113 
L 82.699291 164.7396 
L 82.798163 164.535973 
L 83.020625 164.452746 
L 83.119497 164.259413 
L 83.267805 164.186502 
L 83.366677 164.030073 
L 83.440831 163.936696 
L 83.539703 163.702014 
L 83.613858 163.648255 
L 83.71273 163.246063 
L 83.786884 163.137422 
L 83.885756 163.003945 
L 84.034064 162.914007 
L 84.132936 162.735811 
L 84.281244 162.654468 
L 84.380116 162.389076 
L 84.676733 162.30196 
L 84.726169 162.151084 
L 85.418274 162.063723 
L 85.517146 161.918071 
L 85.5913 161.850022 
L 85.5913 161.795549 
L 85.937352 161.685231 
L 86.036224 161.597695 
L 86.135096 161.52093 
L 86.233969 161.323429 
L 86.283405 161.266286 
L 86.382277 161.138684 
L 86.431713 161.101627 
L 86.530585 160.828384 
L 86.629457 160.743586 
L 86.728329 160.552336 
L 86.876637 160.488592 
L 86.975509 160.201535 
L 87.074381 160.093657 
L 87.173254 159.892609 
L 87.22269 159.86804 
L 87.321562 159.686499 
L 87.46987 159.614607 
L 87.568742 159.418824 
L 87.667614 159.364217 
L 87.741768 159.225183 
L 88.285565 159.114557 
L 88.384437 159.0627 
L 88.483309 158.952918 
L 88.532745 158.816406 
L 88.804643 158.736593 
L 88.903516 158.570976 
L 88.928234 158.570976 
L 89.027106 158.37298 
L 89.175414 158.279727 
L 89.274286 158.151297 
L 89.496748 158.052619 
L 89.59562 157.909338 
L 89.669774 157.824453 
L 89.768647 157.637009 
L 89.867519 157.551532 
L 89.966391 157.334842 
L 90.040545 157.249241 
L 90.139417 157.147801 
L 90.188853 157.104317 
L 90.287725 156.865753 
L 90.436033 156.755666 
L 90.534905 156.649415 
L 90.658496 156.542706 
L 90.757368 156.423387 
L 90.930394 156.332871 
L 90.930394 156.286898 
L 91.449472 156.183316 
L 91.548345 155.946614 
L 91.795525 155.918651 
L 91.894397 155.655781 
L 92.067423 155.545394 
L 92.166295 155.452231 
L 92.339321 155.357364 
L 92.438194 155.001822 
L 92.61122 154.901588 
L 92.710092 154.689628 
L 92.784246 154.613618 
L 92.883118 154.463261 
L 92.957272 154.447542 
L 93.056144 154.274524 
L 93.130298 154.252813 
L 93.22917 153.984494 
L 93.328043 153.892107 
L 93.426915 153.788583 
L 93.525787 153.686315 
L 93.624659 153.566 
L 93.674095 153.557322 
L 93.698813 153.382006 
L 94.094301 153.336168 
L 94.193174 153.187729 
L 94.24261 153.151617 
L 94.292046 152.859478 
L 94.563944 152.775521 
L 94.662816 152.614776 
L 94.811124 152.519107 
L 94.885278 152.432201 
L 94.959432 152.32557 
L 95.058305 152.043899 
L 95.157177 151.969087 
L 95.256049 151.703805 
L 95.330203 151.62883 
L 95.429075 151.520596 
L 95.478511 151.474122 
L 95.577383 151.225346 
L 95.725691 151.131141 
L 95.824563 150.93268 
L 95.898717 150.864984 
L 95.99759 150.671864 
L 96.071744 150.643843 
L 96.096462 150.446882 
L 96.49195 150.394472 
L 96.590822 150.159123 
L 96.763848 150.101965 
L 96.813285 149.929275 
L 97.060465 149.859026 
L 97.159337 149.596575 
L 97.307645 149.496181 
L 97.406517 149.339933 
L 97.579543 149.265068 
L 97.678416 149.149405 
L 97.802006 149.063598 
L 97.900878 148.797445 
L 97.950314 148.722588 
L 98.049186 148.484411 
L 98.172776 148.404234 
L 98.271648 148.245045 
L 98.37052 148.138549 
L 98.469392 147.989344 
L 98.667137 147.889772 
L 98.766009 147.727818 
L 98.840163 147.642566 
L 98.939035 147.535658 
L 99.383959 147.431199 
L 99.482832 147.285736 
L 99.581704 147.198691 
L 99.680576 147.019595 
L 99.952474 146.958589 
L 100.051346 146.753307 
L 100.199654 146.655324 
L 100.298526 146.550466 
L 100.397399 146.528713 
L 100.496271 146.341656 
L 100.644579 146.242679 
L 100.743451 145.958357 
L 100.817605 145.856405 
L 100.916477 145.765365 
L 101.015349 145.658301 
L 101.114221 145.514968 
L 101.287248 145.413419 
L 101.38612 145.211047 
L 101.484992 145.102889 
L 101.583864 144.987866 
L 101.781608 144.882603 
L 101.855762 144.556161 
L 102.152379 144.457955 
L 102.251251 144.337476 
L 102.350123 144.292772 
L 102.448995 144.118149 
L 102.547867 144.020157 
L 102.572585 143.904682 
L 102.943355 143.79909 
L 103.042228 143.612825 
L 103.215254 143.519386 
L 103.314126 143.163921 
L 103.38828 143.146839 
L 103.487152 142.735035 
L 103.660178 142.640831 
L 103.75905 142.362836 
L 103.907359 142.266525 
L 104.006231 142.150523 
L 104.179257 142.049063 
L 104.278129 141.898343 
L 104.377001 141.832077 
L 104.475873 141.713196 
L 104.698335 141.613231 
L 104.797208 141.439394 
L 104.945516 141.341065 
L 105.044388 141.242605 
L 105.14326 141.150811 
L 105.242132 140.967754 
L 105.464594 140.859011 
L 105.563466 140.637552 
L 105.637621 140.541956 
L 105.736493 140.426813 
L 105.810647 140.36196 
L 105.909519 140.198394 
L 105.983673 140.097365 
L 106.082545 139.963418 
L 106.206135 139.859882 
L 106.305007 139.673208 
L 106.453315 139.604676 
L 106.552188 139.439987 
L 106.65106 139.330823 
L 106.749932 139.145652 
L 106.873522 139.130579 
L 106.972394 138.826427 
L 107.244292 138.781897 
L 107.343164 138.391303 
L 107.442037 138.285222 
L 107.540909 138.119758 
L 107.689217 138.030144 
L 107.689217 137.997444 
L 107.985833 137.892229 
L 108.084705 137.703585 
L 108.28245 137.601493 
L 108.381322 137.45385 
L 108.455476 137.397622 
L 108.554348 137.166304 
L 108.628502 137.136497 
L 108.727374 136.747952 
L 108.826246 136.645602 
L 108.925118 136.362863 
L 108.949836 136.362863 
L 109.048708 136.108335 
L 109.147581 136.000079 
L 109.246453 135.905344 
L 109.271171 135.905344 
L 109.271171 135.764293 
L 109.543069 135.725714 
L 109.641941 135.578693 
L 109.740813 135.493732 
L 109.839685 135.240054 
L 110.062148 135.142485 
L 110.136302 134.994273 
L 110.358764 134.893317 
L 110.457636 134.733602 
L 110.482354 134.733602 
L 110.581226 134.187051 
L 110.630662 134.134806 
L 110.729534 133.73708 
L 110.927279 133.63086 
L 110.927279 133.59406 
L 111.100305 133.570752 
L 111.199177 133.265578 
L 111.223895 133.265578 
L 111.322767 132.951576 
L 111.644101 132.866955 
L 111.742973 132.708424 
L 111.817128 132.664544 
L 111.916 132.359496 
L 111.965436 132.304908 
L 112.064308 132.049292 
L 112.53395 131.942596 
L 112.632822 131.77325 
L 112.805849 131.672969 
L 112.904721 131.196819 
L 113.003593 131.103012 
L 113.102465 130.758549 
L 113.151901 130.65994 
L 113.250773 130.517427 
L 113.324927 130.442312 
L 113.423799 130.223455 
L 113.596826 130.126217 
L 113.67098 129.916344 
L 113.992314 129.811949 
L 114.091186 129.672046 
L 114.16534 129.564501 
L 114.264212 129.282854 
L 114.387802 129.183715 
L 114.461957 129.038661 
L 114.659701 128.972266 
L 114.758573 128.672226 
L 114.906881 128.594708 
L 115.005753 128.421611 
L 115.055189 128.402345 
L 115.154061 128.215589 
L 115.277651 128.124302 
L 115.376524 127.924098 
L 115.42596 127.857254 
L 115.524832 127.583157 
L 115.574268 127.503703 
L 115.67314 127.21204 
L 115.772012 127.108287 
L 115.870884 126.966164 
L 116.241655 126.895489 
L 116.340527 126.702838 
L 116.414681 126.672193 
L 116.513553 126.49291 
L 116.661861 126.3965 
L 116.760733 126.198256 
L 116.834887 126.156852 
L 116.859605 126.047233 
L 117.057349 125.999355 
L 117.156222 125.752788 
L 117.279812 125.654264 
L 117.378684 125.481763 
L 117.502274 125.391958 
L 117.601146 125.089132 
L 117.650582 125.039424 
L 117.749454 124.764267 
L 117.823608 124.667552 
L 117.92248 124.480091 
L 117.971917 124.375466 
L 118.070789 124.286855 
L 118.095507 124.286855 
L 118.194379 124.078448 
L 118.515713 124.002777 
L 118.614585 123.877021 
L 118.664021 123.807721 
L 118.762893 123.633628 
L 118.861766 123.544924 
L 118.960638 123.320742 
L 119.034792 123.262269 
L 119.133664 123.035357 
L 119.207818 122.968521 
L 119.30669 122.707205 
L 119.43028 122.619847 
L 119.529152 122.363789 
L 119.67746 122.28267 
L 119.776333 121.954863 
L 119.801051 121.954863 
L 119.899923 121.472232 
L 120.048231 121.371701 
L 120.048231 121.345304 
L 120.221257 121.282901 
L 120.221257 121.17036 
L 120.542591 121.098092 
L 120.641464 120.83936 
L 120.6909 120.73835 
L 120.789772 120.5695 
L 120.913362 120.45999 
L 121.012234 120.323341 
L 121.06167 120.292184 
L 121.160542 120.120638 
L 121.333568 120.054949 
L 121.43244 119.878057 
L 121.556031 119.784571 
L 121.654903 119.584553 
L 121.778493 119.476165 
L 121.877365 119.346582 
L 121.951519 119.263783 
L 122.050391 118.975836 
L 122.099827 118.893826 
L 122.198699 118.758238 
L 122.396444 118.669049 
L 122.470598 118.414073 
L 122.56947 118.328523 
L 122.643624 118.168986 
L 123.212138 118.0814 
L 123.311011 117.995791 
L 123.409883 117.951323 
L 123.508755 117.808161 
L 123.582909 117.768217 
L 123.681781 117.427055 
L 123.830089 117.360937 
L 123.904243 117.242257 
L 124.052551 117.182308 
L 124.052551 117.106498 
L 124.299732 116.997748 
L 124.398604 116.871919 
L 124.44804 116.771799 
L 124.546912 116.616418 
L 124.69522 116.515315 
L 124.794092 116.321618 
L 125.041273 116.213535 
L 125.140145 115.957368 
L 125.189581 115.944042 
L 125.288453 115.699044 
L 125.436761 115.602257 
L 125.486197 115.416535 
L 125.609787 115.40902 
L 125.708659 115.242517 
L 125.832249 115.133043 
L 125.931122 115.017571 
L 126.029994 114.969422 
L 126.128866 114.79948 
L 126.252456 114.703763 
L 126.351328 114.397226 
L 126.400764 114.36451 
L 126.474918 114.247659 
L 126.623226 114.247659 
L 126.722098 113.96042 
L 126.796253 113.90765 
L 126.895125 113.737125 
L 126.993997 113.690719 
L 127.068151 113.484402 
L 127.191741 113.375036 
L 127.290613 113.146505 
L 127.414203 113.036407 
L 127.513075 112.823982 
L 127.636665 112.716041 
L 127.735538 112.439854 
L 128.007436 112.379813 
L 128.106308 112.012717 
L 128.20518 111.908614 
L 128.304052 111.705925 
L 128.402924 111.657929 
L 128.501796 111.13429 
L 128.625387 111.046686 
L 128.724259 110.835264 
L 128.773695 110.81794 
L 128.872567 110.600435 
L 128.922003 110.596513 
L 129.020875 110.379054 
L 129.218619 110.272849 
L 129.317491 110.162161 
L 129.391645 110.051383 
L 129.490518 109.880454 
L 129.58939 109.777743 
L 129.638826 109.524516 
L 129.762416 109.524516 
L 129.861288 109.141656 
L 130.009596 109.034372 
L 130.108468 108.888436 
L 130.20734 108.779525 
L 130.306212 108.568391 
L 130.380367 108.457634 
L 130.479239 108.310271 
L 130.627547 108.216735 
L 130.652265 108.179249 
L 130.775855 108.133319 
L 130.874727 107.929053 
L 130.973599 107.823017 
L 131.072471 107.635515 
L 131.146625 107.528177 
L 131.245498 107.3997 
L 131.369088 107.307633 
L 131.46796 107.092918 
L 131.566832 106.987048 
L 131.640986 106.878244 
L 131.739858 106.84866 
L 131.83873 106.507184 
L 132.110629 106.444421 
L 132.209501 106.259612 
L 132.382527 106.150887 
L 132.481399 105.844851 
L 132.555553 105.784795 
L 132.654425 105.597464 
L 132.728579 105.534288 
L 132.827451 105.153465 
L 133.049914 105.055602 
L 133.148786 104.944976 
L 133.198222 104.860799 
L 133.297094 104.70247 
L 133.420684 104.591802 
L 133.519556 104.371923 
L 133.618428 104.290981 
L 133.7173 104.118881 
L 133.766736 104.073658 
L 133.865609 103.742276 
L 133.939763 103.685673 
L 133.989199 103.52736 
L 134.285815 103.513687 
L 134.384687 103.236215 
L 134.532995 103.132456 
L 134.631867 103.049872 
L 134.730739 102.941401 
L 134.829612 102.665254 
L 134.879048 102.613418 
L 134.97792 102.37834 
L 135.052074 102.270391 
L 135.076792 102.212293 
L 135.2251 102.108591 
L 135.323972 101.99983 
L 135.422844 101.944096 
L 135.521716 101.739025 
L 135.571152 101.739025 
L 135.670025 101.51594 
L 135.867769 101.41572 
L 135.966641 101.026853 
L 136.016077 100.988605 
L 136.114949 100.677243 
L 136.510438 100.582953 
L 136.60931 100.082319 
L 136.757618 99.973499 
L 136.85649 99.782619 
L 136.98008 99.682684 
L 137.078952 99.376425 
L 137.177824 99.276366 
L 137.177824 99.193488 
L 137.400287 99.192096 
L 137.499159 98.983114 
L 137.548595 98.94346 
L 137.647467 98.642438 
L 137.696903 98.544925 
L 137.795775 98.448472 
L 137.894647 98.347271 
L 137.993519 97.990007 
L 138.042955 97.937021 
L 138.141827 97.753278 
L 138.562034 97.652219 
L 138.660906 97.433373 
L 138.710342 97.40663 
L 138.809214 97.105001 
L 138.908086 97.056513 
L 139.006958 96.84418 
L 139.155267 96.766183 
L 139.254139 96.56959 
L 139.402447 96.469985 
L 139.501319 96.211688 
L 139.600191 96.129136 
L 139.699063 95.881073 
L 139.748499 95.873573 
L 139.847371 95.55666 
L 139.872089 95.55666 
L 139.970961 95.279831 
L 140.020397 95.270692 
L 140.11927 94.979516 
L 140.143988 94.979516 
L 140.24286 94.748856 
L 140.514758 94.721484 
L 140.61363 94.532789 
L 140.761938 94.425286 
L 140.86081 94.190707 
L 140.934965 94.12726 
L 141.033837 93.897271 
L 141.132709 93.797414 
L 141.231581 93.451812 
L 141.330453 93.349745 
L 141.330453 93.232692 
L 141.528197 93.231281 
L 141.627069 92.972984 
L 141.701223 92.886862 
L 141.800096 92.669183 
L 141.849532 92.643424 
L 141.948404 92.318772 
L 142.022558 92.222356 
L 142.12143 92.037566 
L 142.220302 91.939876 
L 142.24502 91.864079 
L 142.418046 91.768812 
L 142.516918 91.411186 
L 142.640508 91.329935 
L 142.739381 91.018045 
L 142.887689 90.918051 
L 142.986561 90.719498 
L 143.110151 90.620762 
L 143.209023 90.269988 
L 143.332613 90.223627 
L 143.431485 89.995363 
L 143.505639 89.891256 
L 143.604512 89.794188 
L 143.777538 89.69438 
L 143.826974 89.579665 
L 144.024718 89.516958 
L 144.12359 89.260349 
L 144.197744 89.249886 
L 144.24718 88.938265 
L 144.543797 88.860016 
L 144.642669 88.556296 
L 144.692105 88.537333 
L 144.790977 88.151419 
L 144.988721 88.045344 
L 144.988721 87.967101 
L 145.260619 87.868484 
L 145.359492 87.55264 
L 145.458364 87.48122 
L 145.532518 87.30346 
L 145.680826 87.201591 
L 145.779698 87.039691 
L 145.829134 86.986206 
L 145.928006 86.660722 
L 146.051596 86.556414 
L 146.150468 86.111688 
L 146.595393 86.111451 
L 146.694265 85.766385 
L 146.867291 85.65861 
L 146.966163 85.485 
L 147.015599 85.473267 
L 147.114472 85.174854 
L 147.163908 85.14075 
L 147.26278 84.845943 
L 147.336934 84.7657 
L 147.435806 84.56648 
L 147.534678 84.486497 
L 147.584114 84.321293 
L 147.806576 84.221465 
L 147.905448 84.089042 
L 147.930166 84.089042 
L 148.029039 83.827452 
L 148.127911 83.761009 
L 148.226783 83.509378 
L 148.350373 83.414756 
L 148.449245 83.131463 
L 148.523399 83.102686 
L 148.523399 83.007609 
L 148.89417 82.972171 
L 148.993042 82.430819 
L 149.091914 82.401316 
L 149.190786 82.178607 
L 149.339094 82.098279 
L 149.437966 81.966101 
L 149.51212 81.880801 
L 149.610992 81.779908 
L 149.709864 81.722963 
L 149.808737 81.47588 
L 149.833455 81.47588 
L 149.907609 81.293258 
L 150.006481 81.195019 
L 150.105353 80.950118 
L 150.204225 80.882485 
L 150.303097 80.699125 
L 150.327815 80.699125 
L 150.426687 80.394845 
L 150.476123 80.387486 
L 150.500841 80.177236 
L 150.921048 80.067813 
L 151.01992 79.938447 
L 151.14351 79.879986 
L 151.242382 79.568597 
L 151.341254 79.468167 
L 151.440126 79.205833 
L 151.613153 79.106201 
L 151.712025 78.921441 
L 151.810897 78.813245 
L 151.909769 78.575895 
L 152.008641 78.466386 
L 152.107513 78.358437 
L 152.255821 78.320828 
L 152.354693 78.152312 
L 152.40413 78.14307 
L 152.503002 77.958247 
L 152.552438 77.858237 
L 152.65131 77.636819 
L 152.725464 77.559306 
L 152.824336 77.303659 
L 152.89849 77.211003 
L 152.923208 77.148049 
L 153.343415 77.043245 
L 153.442287 76.899426 
L 153.541159 76.792332 
L 153.640031 76.640239 
L 153.689467 76.563063 
L 153.763621 76.332386 
L 153.961365 76.244372 
L 154.060237 76.14089 
L 154.109673 76.074847 
L 154.208546 75.64997 
L 154.356854 75.591079 
L 154.455726 75.380213 
L 154.727624 75.286726 
L 154.826496 75.028791 
L 154.925368 74.983887 
L 155.02424 74.739206 
L 155.073677 74.66145 
L 155.123113 74.50423 
L 155.221985 74.431786 
L 155.320857 74.214929 
L 155.741063 74.12937 
L 155.839935 73.867454 
L 155.963526 73.787669 
L 156.062398 73.517551 
L 156.185988 73.468142 
L 156.28486 73.267989 
L 156.334296 73.247033 
L 156.433168 72.972188 
L 156.65563 72.864509 
L 156.754502 72.525128 
L 156.803939 72.438683 
L 156.902811 72.368427 
L 157.001683 72.262115 
L 157.100555 72.200712 
L 157.174709 72.094987 
L 157.273581 71.960677 
L 157.298299 71.960677 
L 157.397171 71.649783 
L 157.520761 71.547673 
L 157.619633 71.454411 
L 157.743224 71.357274 
L 157.743224 71.298399 
L 158.03984 71.264642 
L 158.138712 70.898228 
L 158.262302 70.787591 
L 158.361174 70.567013 
L 158.5342 70.458318 
L 158.633073 70.364451 
L 158.731945 70.27613 
L 158.830817 70.095926 
L 158.954407 70.006385 
L 159.053279 69.638883 
L 159.201587 69.529107 
L 159.275741 69.435711 
L 159.399331 69.343341 
L 159.498204 69.037696 
L 159.621794 68.943728 
L 159.720666 68.699443 
L 159.819538 68.664981 
L 159.91841 68.426369 
L 160.215026 68.344877 
L 160.313898 68.162471 
L 160.412771 68.065562 
L 160.511643 67.932549 
L 160.585797 67.882456 
L 160.684669 67.646401 
L 160.758823 67.603492 
L 160.857695 67.384243 
L 160.907131 67.289762 
L 161.006003 67.23923 
L 161.080157 67.171009 
L 161.179029 66.960092 
L 161.253184 66.864286 
L 161.352056 66.692697 
L 161.500364 66.584262 
L 161.574518 66.461922 
L 161.722826 66.407612 
L 161.821698 66.140611 
L 161.895852 66.041275 
L 161.994724 65.847478 
L 162.093597 65.803838 
L 162.192469 65.536069 
L 162.538521 65.470361 
L 162.637393 65.253129 
L 162.785701 65.185948 
L 162.884573 65.044525 
L 162.958727 64.934486 
L 163.0576 64.713713 
L 163.107036 64.645173 
L 163.205908 64.518554 
L 163.403652 64.419716 
L 163.502524 64.260025 
L 163.55196 64.249401 
L 163.650832 64.052999 
L 163.823858 63.984207 
L 163.922731 63.842212 
L 164.095757 63.735661 
L 164.194629 63.543714 
L 164.268783 63.459234 
L 164.367655 63.305258 
L 164.417091 63.202268 
L 164.515963 62.81775 
L 164.590117 62.764939 
L 164.664271 62.541241 
L 164.886734 62.431132 
L 164.985606 62.291193 
L 165.084478 62.18721 
L 165.18335 62.028304 
L 165.282222 61.92671 
L 165.381094 61.83793 
L 165.455248 61.785606 
L 165.55412 61.560279 
L 165.702429 61.45412 
L 165.801301 61.287354 
L 165.875455 61.227379 
L 165.974327 61.024214 
L 166.073199 60.922781 
L 166.172071 60.795856 
L 166.196789 60.795856 
L 166.295661 60.483468 
L 166.468687 60.38509 
L 166.56756 60.260624 
L 166.616996 60.198152 
L 166.715868 60.096799 
L 166.765304 60.032043 
L 166.864176 59.944438 
L 166.963048 59.858865 
L 167.06192 59.650539 
L 167.531563 59.552674 
L 167.630435 59.301702 
L 167.729307 59.218657 
L 167.828179 58.907196 
L 167.951769 58.826967 
L 168.050641 58.69012 
L 168.149513 58.583421 
L 168.248385 58.384419 
L 168.470848 58.291599 
L 168.56972 58.081923 
L 168.69331 57.974067 
L 168.792182 57.779419 
L 168.841618 57.72884 
L 168.94049 57.598851 
L 169.014644 57.521687 
L 169.113516 57.083355 
L 169.187671 57.014949 
L 169.261825 56.643879 
L 169.682031 56.610971 
L 169.780903 56.347701 
L 169.879775 56.252587 
L 169.978647 56.04791 
L 170.003365 56.04791 
L 170.102238 55.820643 
L 170.176392 55.738944 
L 170.275264 55.534724 
L 170.3247 55.511982 
L 170.374136 55.316052 
L 170.473008 55.308163 
L 170.57188 55.00426 
L 170.69547 54.925744 
L 170.794342 54.663695 
L 170.967369 54.561895 
L 171.066241 54.485981 
L 171.090959 54.485981 
L 171.189831 54.183571 
L 171.263985 54.131051 
L 171.362857 54.019158 
L 171.387575 54.019158 
L 171.486447 53.82023 
L 171.980808 53.726883 
L 172.07968 53.451378 
L 172.178552 53.395007 
L 172.277424 53.180764 
L 172.351578 53.108467 
L 172.45045 52.889391 
L 172.524604 52.853853 
L 172.623476 52.617298 
L 172.697631 52.54489 
L 172.796503 52.189532 
L 172.845939 52.163169 
L 172.944811 51.928726 
L 173.093119 51.822026 
L 173.191991 51.575143 
L 173.340299 51.505573 
L 173.439171 51.330654 
L 173.488607 51.261681 
L 173.58748 51.08542 
L 173.71107 51.032534 
L 173.809942 50.816104 
L 174.279584 50.72582 
L 174.378456 50.535344 
L 174.427892 50.453801 
L 174.526765 50.220737 
L 174.551483 50.220737 
L 174.650355 49.971977 
L 174.699791 49.931018 
L 174.798663 49.741237 
L 174.897535 49.669977 
L 174.996407 49.405192 
L 175.070561 49.323629 
L 175.169433 49.195051 
L 175.218869 49.096467 
L 175.317741 48.990554 
L 175.391896 48.912788 
L 175.490768 48.774027 
L 175.614358 48.66672 
L 175.71323 48.578298 
L 175.861538 48.514791 
L 175.96041 48.352915 
L 176.059282 48.26852 
L 176.158154 48.123839 
L 176.281745 48.020485 
L 176.380617 47.907884 
L 176.800823 47.815553 
L 176.825541 47.702053 
L 177.048003 47.608601 
L 177.146876 47.459111 
L 177.319902 47.37022 
L 177.418774 46.852871 
L 177.616518 46.764016 
L 177.71539 46.57304 
L 177.814262 46.485274 
L 177.913134 46.212781 
L 178.036725 46.109391 
L 178.135597 45.874829 
L 178.185033 45.852554 
L 178.283905 45.578346 
L 178.456931 45.487206 
L 178.555803 45.389059 
L 178.629957 45.32482 
L 178.728829 45.16254 
L 178.778265 45.134925 
L 178.877138 44.978625 
L 179.173754 44.888195 
L 179.272626 44.760267 
L 179.371498 44.654103 
L 179.47037 44.524831 
L 179.618678 44.425023 
L 179.71755 44.131156 
L 179.791705 44.101397 
L 179.890577 43.922964 
L 179.964731 43.890478 
L 180.014167 43.691504 
L 180.162475 43.59679 
L 180.261347 43.471118 
L 180.335501 43.361604 
L 180.434373 43.223294 
L 180.533245 43.164815 
L 180.632118 42.923153 
L 180.73099 42.815981 
L 180.829862 42.640108 
L 180.953452 42.564351 
L 181.052324 42.399875 
L 181.175914 42.320458 
L 181.274786 42.061812 
L 181.744429 41.960437 
L 181.843301 41.745994 
L 181.966891 41.639136 
L 182.065763 41.309276 
L 182.189353 41.210779 
L 182.288225 41.119664 
L 182.312943 41.119664 
L 182.411816 40.864234 
L 182.535406 40.754531 
L 182.60956 40.655601 
L 182.73315 40.585345 
L 182.832022 40.286742 
L 182.930894 40.187005 
L 183.029766 40.11037 
L 183.202792 40.005583 
L 183.301665 39.862755 
L 183.400537 39.768975 
L 183.499409 39.65265 
L 183.622999 39.583943 
L 183.721871 39.464263 
L 183.771307 39.393917 
L 183.870179 39.307969 
L 183.969051 39.221095 
L 184.067923 39.130191 
L 184.784746 39.037535 
L 184.883618 38.891763 
L 184.98249 38.81526 
L 185.081363 38.677793 
L 185.155517 38.57279 
L 185.254389 38.443114 
L 185.353261 38.410402 
L 185.452133 38.13421 
L 185.501569 38.060909 
L 185.600441 37.772601 
L 185.699313 37.680797 
L 185.798185 37.373472 
L 185.897057 37.277822 
L 185.99593 37.094187 
L 186.144238 36.9959 
L 186.24311 36.786143 
L 186.292546 36.756398 
L 186.317264 36.606949 
L 186.663316 36.538501 
L 186.762188 36.354984 
L 186.836343 36.259896 
L 186.935215 36.159903 
L 187.305985 36.056971 
L 187.404857 35.830792 
L 187.479011 35.727995 
L 187.577883 35.592382 
L 187.726192 35.522982 
L 187.825064 35.346055 
L 187.973372 35.24555 
L 188.072244 35.090366 
L 188.195834 34.989016 
L 188.294706 34.878202 
L 188.49245 34.774649 
L 188.591323 34.48155 
L 188.714913 34.410223 
L 188.813785 34.225403 
L 189.011529 34.123737 
L 189.011529 34.094133 
L 189.283427 33.988534 
L 189.382299 33.852374 
L 189.555326 33.754125 
L 189.604762 33.647034 
L 189.802506 33.545543 
L 189.901378 33.386873 
L 190.00025 33.311284 
L 190.00025 33.178574 
L 190.469893 33.097721 
L 190.568765 32.951322 
L 190.667637 32.885889 
L 190.766509 32.387345 
L 190.914817 32.286901 
L 191.013689 32.115761 
L 191.087843 32.035789 
L 191.186715 31.952086 
L 191.310306 31.845657 
L 191.409178 31.695662 
L 191.50805 31.615972 
L 191.606922 31.239204 
L 191.705794 31.167256 
L 191.804666 31.050274 
L 191.928256 30.948593 
L 192.027128 30.79903 
L 192.126001 30.689882 
L 192.150719 30.678661 
L 192.422617 30.574468 
L 192.521489 30.493989 
L 192.669797 30.386191 
L 192.768669 30.253601 
L 193.114722 30.175879 
L 193.213594 30.024145 
L 193.287748 30.005504 
L 193.38662 29.634382 
L 193.460774 29.559767 
L 193.559646 29.366899 
L 193.6338 29.286681 
L 193.732672 29.003841 
L 193.806826 28.96265 
L 193.905699 28.668343 
L 193.979853 28.568863 
L 194.078725 28.434767 
L 194.177597 28.343405 
L 194.276469 28.035343 
L 194.424777 27.966185 
L 194.523649 27.830752 
L 194.721393 27.723183 
L 194.721393 27.692573 
L 195.01801 27.606651 
L 195.067446 27.486994 
L 195.51237 27.486994 
L 195.537088 27.291751 
L 195.734833 27.221055 
L 195.833705 27.071789 
L 195.883141 26.965775 
L 195.982013 26.811062 
L 196.179757 26.722201 
L 196.278629 26.604269 
L 196.352783 26.526414 
L 196.451655 26.348519 
L 196.550528 26.337687 
L 196.6494 26.12312 
L 196.77299 26.015564 
L 196.871862 25.897403 
L 196.89658 25.897403 
L 196.995452 25.584242 
L 197.069606 25.514364 
L 197.168478 25.28001 
L 197.26735 25.231576 
L 197.366222 25.054991 
L 197.736993 24.953726 
L 197.835865 24.838968 
L 198.157199 24.740194 
L 198.256071 24.654298 
L 198.354944 24.550603 
L 198.453816 24.4791 
L 198.923458 24.383864 
L 199.02233 24.234385 
L 199.071766 24.175417 
L 199.170639 24.017726 
L 199.318947 23.928759 
L 199.417819 23.757331 
L 199.615563 23.647451 
L 199.714435 23.478982 
L 199.862743 23.368125 
L 199.961615 23.245222 
L 200.15936 23.157045 
L 200.258232 22.918336 
L 200.332386 22.824909 
L 200.431258 22.728715 
L 200.505412 22.640417 
L 200.604284 22.500909 
L 200.678438 22.428956 
L 200.77731 22.148399 
L 200.9009 22.080262 
L 200.999773 21.958429 
L 201.246953 21.864103 
L 201.345825 21.780674 
L 201.469415 21.701497 
L 201.518851 21.494895 
L 202.334546 21.387189 
L 202.433418 21.324986 
L 202.482854 21.230855 
L 202.581726 21.047478 
L 202.680598 20.942688 
L 202.779471 20.855102 
L 202.804189 20.855102 
L 202.903061 20.633705 
L 202.952497 20.605109 
L 203.051369 20.379289 
L 203.174959 20.276792 
L 203.273831 19.947935 
L 203.397421 19.845141 
L 203.496293 19.764234 
L 203.545729 19.742431 
L 203.644602 19.500639 
L 203.718756 19.433556 
L 203.817628 19.280979 
L 203.891782 19.245992 
L 203.941218 19.07142 
L 204.262552 18.983541 
L 204.361424 18.908294 
L 204.460297 18.822311 
L 204.534451 18.74564 
L 204.979375 18.657613 
L 205.053529 18.548445 
L 205.992814 18.473486 
L 206.091686 18.156257 
L 206.239995 18.062146 
L 206.338867 17.970304 
L 206.462457 17.864752 
L 206.561329 17.789712 
L 206.709637 17.701236 
L 206.808509 17.571599 
L 206.907381 17.498947 
L 207.006253 17.20792 
L 207.500614 17.105518 
L 207.599486 16.944308 
L 207.67364 16.835335 
L 207.772512 16.781688 
L 207.896102 16.703515 
L 207.970256 16.602353 
L 208.168001 16.525499 
L 208.266873 16.415134 
L 208.390463 16.307364 
L 208.489335 16.192699 
L 208.612925 16.085432 
L 208.711797 15.915644 
L 208.958978 15.804595 
L 209.033132 15.752675 
L 210.021853 15.647933 
L 210.096007 15.593465 
L 211.233036 15.507467 
L 211.331908 15.452925 
L 211.480216 15.350853 
L 211.579089 15.081703 
L 211.999295 14.978252 
L 212.098167 14.795407 
L 212.271193 14.691914 
L 212.370065 14.577166 
L 212.617246 14.577166 
L 212.716118 14.335612 
L 212.839708 14.271764 
L 212.93858 14.154819 
L 213.06217 14.05583 
L 213.161042 13.971101 
L 213.259914 13.904223 
L 213.358787 13.745921 
L 213.408223 13.658335 
L 213.507095 13.463463 
L 213.655403 13.363101 
L 213.754275 13.245357 
L 213.803711 13.211698 
L 213.902583 13.043341 
L 214.100327 12.945772 
L 214.174482 12.886389 
L 215.286793 12.851675 
L 215.385665 12.667525 
L 216.646284 12.568271 
L 216.745156 12.522191 
L 216.992337 12.411935 
L 217.091209 12.291649 
L 217.165363 12.195163 
L 217.264235 12.071703 
L 217.387825 12.015306 
L 217.486697 11.872743 
L 217.610287 11.796541 
L 217.70916 11.684635 
L 217.83275 11.577314 
L 217.931622 11.420743 
L 218.005776 11.369686 
L 218.104648 11.245383 
L 218.351828 11.144923 
L 218.4507 11.034219 
L 218.697881 10.96435 
L 218.722599 10.901214 
L 219.167523 10.795223 
L 219.192241 10.743599 
L 219.439421 10.640402 
L 219.538294 10.578704 
L 219.760756 10.487297 
L 219.859628 10.432367 
L 220.007936 10.324418 
L 220.106808 10.22442 
L 220.601169 10.117271 
L 220.675323 10.059328 
L 221.317992 9.951793 
L 221.416864 9.896021 
L 224.481899 9.785818 
L 224.506617 9.736905 
L 227.003138 9.637536 
L 227.10201 9.4968 
L 227.324472 9.39616 
L 227.423345 9.332964 
L 227.695243 9.242173 
L 227.794115 9.178101 
L 227.967141 9.084572 
L 228.066013 9.028019 
L 228.412066 8.931208 
L 228.510938 8.835385 
L 228.7334 8.730223 
L 228.832272 8.593541 
L 229.054734 8.486897 
L 229.153606 8.394587 
L 229.425505 8.291377 
L 229.524377 8.188278 
L 229.722121 8.08523 
L 229.820993 8.033616 
L 229.919865 7.967714 
L 230.018737 7.834278 
L 230.167046 7.739953 
L 230.265918 7.634042 
L 230.48838 7.525166 
L 230.587252 7.478801 
L 230.710842 7.404653 
L 230.809714 7.288321 
L 231.056895 7.18069 
L 231.155767 7.061984 
L 231.501819 6.966039 
L 231.600691 6.926799 
L 231.922026 6.852586 
L 231.922026 6.817156 
L 231.922026 -1 
L 231.922026 -1 
" clip-path="url(#pd55593bdad)" style="fill: none; stroke-dasharray: 7.5,1.5; stroke-dashoffset: 0; stroke: #ac7726; stroke-width: 1.5"/>
   </g>
   <g id="patch_3">
    <path d="M 56.077974 182.64351 
L 56.077974 6.799459 
" style="fill: none; stroke: #000000; stroke-width: 0.8; stroke-linejoin: miter; stroke-linecap: square"/>
   </g>
   <g id="patch_4">
    <path d="M 231.922026 182.64351 
L 231.922026 6.799459 
" style="fill: none; stroke: #000000; stroke-width: 0.8; stroke-linejoin: miter; stroke-linecap: square"/>
   </g>
   <g id="patch_5">
    <path d="M 56.077974 182.64351 
L 231.922026 182.64351 
" style="fill: none; stroke: #000000; stroke-width: 0.8; stroke-linejoin: miter; stroke-linecap: square"/>
   </g>
   <g id="patch_6">
    <path d="M 56.077974 6.799459 
L 231.922026 6.799459 
" style="fill: none; stroke: #000000; stroke-width: 0.8; stroke-linejoin: miter; stroke-linecap: square"/>
   </g>
   <g id="legend_1">
    <g id="patch_7">
     <path d="M 63.077974 44.155709 
L 140.054537 44.155709 
Q 142.054537 44.155709 142.054537 42.155709 
L 142.054537 13.799459 
Q 142.054537 11.799459 140.054537 11.799459 
L 63.077974 11.799459 
Q 61.077974 11.799459 61.077974 13.799459 
L 61.077974 42.155709 
Q 61.077974 44.155709 63.077974 44.155709 
z
" style="fill: #ffffff; opacity: 0.8; stroke: #cccccc; stroke-linejoin: miter"/>
    </g>
    <g id="line2d_15">
     <path d="M 65.077974 19.897896 
L 75.077974 19.897896 
L 75.077974 19.897896 
L 85.077974 19.897896 
L 85.077974 19.897896 
" style="fill: none; stroke: #67c7d5; stroke-width: 1.5; stroke-linecap: square"/>
    </g>
    <g id="text_15">
     <!-- ATL09 -->
     <g transform="translate(93.077974 23.397896) scale(0.1 -0.1)">
      <defs>
       <path id="DejaVuSans-41" d="M 2188 4044 
L 1331 1722 
L 3047 1722 
L 2188 4044 
z
M 1831 4666 
L 2547 4666 
L 4325 0 
L 3669 0 
L 3244 1197 
L 1141 1197 
L 716 0 
L 50 0 
L 1831 4666 
z
" transform="scale(0.015625)"/>
       <path id="DejaVuSans-54" d="M -19 4666 
L 3928 4666 
L 3928 4134 
L 2272 4134 
L 2272 0 
L 1638 0 
L 1638 4134 
L -19 4134 
L -19 4666 
z
" transform="scale(0.015625)"/>
       <path id="DejaVuSans-4c" d="M 628 4666 
L 1259 4666 
L 1259 531 
L 3531 531 
L 3531 0 
L 628 0 
L 628 4666 
z
" transform="scale(0.015625)"/>
       <path id="DejaVuSans-39" d="M 703 97 
L 703 672 
Q 941 559 1184 500 
Q 1428 441 1663 441 
Q 2288 441 2617 861 
Q 2947 1281 2994 2138 
Q 2813 1869 2534 1725 
Q 2256 1581 1919 1581 
Q 1219 1581 811 2004 
Q 403 2428 403 3163 
Q 403 3881 828 4315 
Q 1253 4750 1959 4750 
Q 2769 4750 3195 4129 
Q 3622 3509 3622 2328 
Q 3622 1225 3098 567 
Q 2575 -91 1691 -91 
Q 1453 -91 1209 -44 
Q 966 3 703 97 
z
M 1959 2075 
Q 2384 2075 2632 2365 
Q 2881 2656 2881 3163 
Q 2881 3666 2632 3958 
Q 2384 4250 1959 4250 
Q 1534 4250 1286 3958 
Q 1038 3666 1038 3163 
Q 1038 2656 1286 2365 
Q 1534 2075 1959 2075 
z
" transform="scale(0.015625)"/>
      </defs>
      <use xlink:href="#DejaVuSans-41"/>
      <use xlink:href="#DejaVuSans-54" transform="translate(60.658203 0)"/>
      <use xlink:href="#DejaVuSans-4c" transform="translate(121.742188 0)"/>
      <use xlink:href="#DejaVuSans-30" transform="translate(177.455078 0)"/>
      <use xlink:href="#DejaVuSans-39" transform="translate(241.078125 0)"/>
     </g>
    </g>
    <g id="line2d_16">
     <path d="M 65.077974 34.576021 
L 75.077974 34.576021 
L 75.077974 34.576021 
L 85.077974 34.576021 
L 85.077974 34.576021 
" style="fill: none; stroke-dasharray: 7.5,1.5; stroke-dashoffset: 0; stroke: #ac7726; stroke-width: 1.5"/>
    </g>
    <g id="text_16">
     <!-- Cloudnet -->
     <g transform="translate(93.077974 38.076021) scale(0.1 -0.1)">
      <defs>
       <path id="DejaVuSans-6c" d="M 603 4863 
L 1178 4863 
L 1178 0 
L 603 0 
L 603 4863 
z
" transform="scale(0.015625)"/>
       <path id="DejaVuSans-6f" d="M 1959 3097 
Q 1497 3097 1228 2736 
Q 959 2375 959 1747 
Q 959 1119 1226 758 
Q 1494 397 1959 397 
Q 2419 397 2687 759 
Q 2956 1122 2956 1747 
Q 2956 2369 2687 2733 
Q 2419 3097 1959 3097 
z
M 1959 3584 
Q 2709 3584 3137 3096 
Q 3566 2609 3566 1747 
Q 3566 888 3137 398 
Q 2709 -91 1959 -91 
Q 1206 -91 779 398 
Q 353 888 353 1747 
Q 353 2609 779 3096 
Q 1206 3584 1959 3584 
z
" transform="scale(0.015625)"/>
       <path id="DejaVuSans-75" d="M 544 1381 
L 544 3500 
L 1119 3500 
L 1119 1403 
Q 1119 906 1312 657 
Q 1506 409 1894 409 
Q 2359 409 2629 706 
Q 2900 1003 2900 1516 
L 2900 3500 
L 3475 3500 
L 3475 0 
L 2900 0 
L 2900 538 
Q 2691 219 2414 64 
Q 2138 -91 1772 -91 
Q 1169 -91 856 284 
Q 544 659 544 1381 
z
M 1991 3584 
L 1991 3584 
z
" transform="scale(0.015625)"/>
       <path id="DejaVuSans-64" d="M 2906 2969 
L 2906 4863 
L 3481 4863 
L 3481 0 
L 2906 0 
L 2906 525 
Q 2725 213 2448 61 
Q 2172 -91 1784 -91 
Q 1150 -91 751 415 
Q 353 922 353 1747 
Q 353 2572 751 3078 
Q 1150 3584 1784 3584 
Q 2172 3584 2448 3432 
Q 2725 3281 2906 2969 
z
M 947 1747 
Q 947 1113 1208 752 
Q 1469 391 1925 391 
Q 2381 391 2643 752 
Q 2906 1113 2906 1747 
Q 2906 2381 2643 2742 
Q 2381 3103 1925 3103 
Q 1469 3103 1208 2742 
Q 947 2381 947 1747 
z
" transform="scale(0.015625)"/>
       <path id="DejaVuSans-6e" d="M 3513 2113 
L 3513 0 
L 2938 0 
L 2938 2094 
Q 2938 2591 2744 2837 
Q 2550 3084 2163 3084 
Q 1697 3084 1428 2787 
Q 1159 2491 1159 1978 
L 1159 0 
L 581 0 
L 581 3500 
L 1159 3500 
L 1159 2956 
Q 1366 3272 1645 3428 
Q 1925 3584 2291 3584 
Q 2894 3584 3203 3211 
Q 3513 2838 3513 2113 
z
" transform="scale(0.015625)"/>
       <path id="DejaVuSans-65" d="M 3597 1894 
L 3597 1613 
L 953 1613 
Q 991 1019 1311 708 
Q 1631 397 2203 397 
Q 2534 397 2845 478 
Q 3156 559 3463 722 
L 3463 178 
Q 3153 47 2828 -22 
Q 2503 -91 2169 -91 
Q 1331 -91 842 396 
Q 353 884 353 1716 
Q 353 2575 817 3079 
Q 1281 3584 2069 3584 
Q 2775 3584 3186 3129 
Q 3597 2675 3597 1894 
z
M 3022 2063 
Q 3016 2534 2758 2815 
Q 2500 3097 2075 3097 
Q 1594 3097 1305 2825 
Q 1016 2553 972 2059 
L 3022 2063 
z
" transform="scale(0.015625)"/>
       <path id="DejaVuSans-74" d="M 1172 4494 
L 1172 3500 
L 2356 3500 
L 2356 3053 
L 1172 3053 
L 1172 1153 
Q 1172 725 1289 603 
Q 1406 481 1766 481 
L 2356 481 
L 2356 0 
L 1766 0 
Q 1100 0 847 248 
Q 594 497 594 1153 
L 594 3053 
L 172 3053 
L 172 3500 
L 594 3500 
L 594 4494 
L 1172 4494 
z
" transform="scale(0.015625)"/>
      </defs>
      <use xlink:href="#DejaVuSans-43"/>
      <use xlink:href="#DejaVuSans-6c" transform="translate(69.824219 0)"/>
      <use xlink:href="#DejaVuSans-6f" transform="translate(97.607422 0)"/>
      <use xlink:href="#DejaVuSans-75" transform="translate(158.789062 0)"/>
      <use xlink:href="#DejaVuSans-64" transform="translate(222.167969 0)"/>
      <use xlink:href="#DejaVuSans-6e" transform="translate(285.644531 0)"/>
      <use xlink:href="#DejaVuSans-65" transform="translate(349.023438 0)"/>
      <use xlink:href="#DejaVuSans-74" transform="translate(410.546875 0)"/>
     </g>
    </g>
   </g>
  </g>
 </g>
 <defs>
  <clipPath id="pd55593bdad">
   <rect x="56.077974" y="6.799459" width="175.844051" height="175.844051"/>
  </clipPath>
 </defs>
</svg>
