<?xml version="1.0" encoding="utf-8" standalone="no"?>
<!DOCTYPE svg PUBLIC "-//W3C//DTD SVG 1.1//EN"
  "http://www.w3.org/Graphics/SVG/1.1/DTD/svg11.dtd">
<svg xmlns:xlink="http://www.w3.org/1999/xlink" width="234.776864pt" height="224.39952pt" viewBox="0 0 234.776864 224.39952" xmlns="http://www.w3.org/2000/svg" version="1.1">
 <metadata>
  <rdf:RDF xmlns:dc="http://purl.org/dc/elements/1.1/" xmlns:cc="http://creativecommons.org/ns#" xmlns:rdf="http://www.w3.org/1999/02/22-rdf-syntax-ns#">
   <cc:Work>
    <dc:type rdf:resource="http://purl.org/dc/dcmitype/StillImage"/>
    <dc:date>2025-12-01T16:33:35.131815</dc:date>
    <dc:format>image/svg+xml</dc:format>
    <dc:creator>
     <cc:Agent>
      <dc:title>Matplotlib v3.10.0, https://matplotlib.org/</dc:title>
     </cc:Agent>
    </dc:creator>
   </cc:Work>
  </rdf:RDF>
 </metadata>
 <defs>
  <style type="text/css">*{stroke-linejoin: round; stroke-linecap: butt}</style>
 </defs>
 <g id="figure_1">
  <g id="patch_1">
   <path d="M 0 224.39952 
L 234.776864 224.39952 
L 234.776864 0 
L 0 0 
L 0 224.39952 
z
" style="fill: none"/>
  </g>
  <g id="axes_1">
   <g id="patch_2">
    <path d="M 43.78125 186.84327 
L 219.625301 186.84327 
L 219.625301 10.999219 
L 43.78125 10.999219 
L 43.78125 186.84327 
z
" style="fill: none"/>
   </g>
   <g id="matplotlib.axis_1">
    <g id="xtick_1">
     <g id="line2d_1">
      <defs>
       <path id="mab2626b478" d="M 0 0 
L 0 3.5 
" style="stroke: #000000; stroke-width: 0.8"/>
      </defs>
      <g>
       <use xlink:href="#mab2626b478" x="43.78125" y="186.84327" style="stroke: #000000; stroke-width: 0.8"/>
      </g>
     </g>
     <g id="text_1">
      <!-- 0.0 -->
      <g transform="translate(35.829688 201.441708) scale(0.1 -0.1)">
       <defs>
        <path id="DejaVuSans-30" d="M 2034 4250 
Q 1547 4250 1301 3770 
Q 1056 3291 1056 2328 
Q 1056 1369 1301 889 
Q 1547 409 2034 409 
Q 2525 409 2770 889 
Q 3016 1369 3016 2328 
Q 3016 3291 2770 3770 
Q 2525 4250 2034 4250 
z
M 2034 4750 
Q 2819 4750 3233 4129 
Q 3647 3509 3647 2328 
Q 3647 1150 3233 529 
Q 2819 -91 2034 -91 
Q 1250 -91 836 529 
Q 422 1150 422 2328 
Q 422 3509 836 4129 
Q 1250 4750 2034 4750 
z
" transform="scale(0.015625)"/>
        <path id="DejaVuSans-2e" d="M 684 794 
L 1344 794 
L 1344 0 
L 684 0 
L 684 794 
z
" transform="scale(0.015625)"/>
       </defs>
       <use xlink:href="#DejaVuSans-30"/>
       <use xlink:href="#DejaVuSans-2e" transform="translate(63.623047 0)"/>
       <use xlink:href="#DejaVuSans-30" transform="translate(95.410156 0)"/>
      </g>
     </g>
    </g>
    <g id="xtick_2">
     <g id="line2d_2">
      <g>
       <use xlink:href="#mab2626b478" x="78.95006" y="186.84327" style="stroke: #000000; stroke-width: 0.8"/>
      </g>
     </g>
     <g id="text_2">
      <!-- 0.2 -->
      <g transform="translate(70.998498 201.441708) scale(0.1 -0.1)">
       <defs>
        <path id="DejaVuSans-32" d="M 1228 531 
L 3431 531 
L 3431 0 
L 469 0 
L 469 531 
Q 828 903 1448 1529 
Q 2069 2156 2228 2338 
Q 2531 2678 2651 2914 
Q 2772 3150 2772 3378 
Q 2772 3750 2511 3984 
Q 2250 4219 1831 4219 
Q 1534 4219 1204 4116 
Q 875 4013 500 3803 
L 500 4441 
Q 881 4594 1212 4672 
Q 1544 4750 1819 4750 
Q 2544 4750 2975 4387 
Q 3406 4025 3406 3419 
Q 3406 3131 3298 2873 
Q 3191 2616 2906 2266 
Q 2828 2175 2409 1742 
Q 1991 1309 1228 531 
z
" transform="scale(0.015625)"/>
       </defs>
       <use xlink:href="#DejaVuSans-30"/>
       <use xlink:href="#DejaVuSans-2e" transform="translate(63.623047 0)"/>
       <use xlink:href="#DejaVuSans-32" transform="translate(95.410156 0)"/>
      </g>
     </g>
    </g>
    <g id="xtick_3">
     <g id="line2d_3">
      <g>
       <use xlink:href="#mab2626b478" x="114.118871" y="186.84327" style="stroke: #000000; stroke-width: 0.8"/>
      </g>
     </g>
     <g id="text_3">
      <!-- 0.4 -->
      <g transform="translate(106.167308 201.441708) scale(0.1 -0.1)">
       <defs>
        <path id="DejaVuSans-34" d="M 2419 4116 
L 825 1625 
L 2419 1625 
L 2419 4116 
z
M 2253 4666 
L 3047 4666 
L 3047 1625 
L 3713 1625 
L 3713 1100 
L 3047 1100 
L 3047 0 
L 2419 0 
L 2419 1100 
L 313 1100 
L 313 1709 
L 2253 4666 
z
" transform="scale(0.015625)"/>
       </defs>
       <use xlink:href="#DejaVuSans-30"/>
       <use xlink:href="#DejaVuSans-2e" transform="translate(63.623047 0)"/>
       <use xlink:href="#DejaVuSans-34" transform="translate(95.410156 0)"/>
      </g>
     </g>
    </g>
    <g id="xtick_4">
     <g id="line2d_4">
      <g>
       <use xlink:href="#mab2626b478" x="149.287681" y="186.84327" style="stroke: #000000; stroke-width: 0.8"/>
      </g>
     </g>
     <g id="text_4">
      <!-- 0.6 -->
      <g transform="translate(141.336118 201.441708) scale(0.1 -0.1)">
       <defs>
        <path id="DejaVuSans-36" d="M 2113 2584 
Q 1688 2584 1439 2293 
Q 1191 2003 1191 1497 
Q 1191 994 1439 701 
Q 1688 409 2113 409 
Q 2538 409 2786 701 
Q 3034 994 3034 1497 
Q 3034 2003 2786 2293 
Q 2538 2584 2113 2584 
z
M 3366 4563 
L 3366 3988 
Q 3128 4100 2886 4159 
Q 2644 4219 2406 4219 
Q 1781 4219 1451 3797 
Q 1122 3375 1075 2522 
Q 1259 2794 1537 2939 
Q 1816 3084 2150 3084 
Q 2853 3084 3261 2657 
Q 3669 2231 3669 1497 
Q 3669 778 3244 343 
Q 2819 -91 2113 -91 
Q 1303 -91 875 529 
Q 447 1150 447 2328 
Q 447 3434 972 4092 
Q 1497 4750 2381 4750 
Q 2619 4750 2861 4703 
Q 3103 4656 3366 4563 
z
" transform="scale(0.015625)"/>
       </defs>
       <use xlink:href="#DejaVuSans-30"/>
       <use xlink:href="#DejaVuSans-2e" transform="translate(63.623047 0)"/>
       <use xlink:href="#DejaVuSans-36" transform="translate(95.410156 0)"/>
      </g>
     </g>
    </g>
    <g id="xtick_5">
     <g id="line2d_5">
      <g>
       <use xlink:href="#mab2626b478" x="184.456491" y="186.84327" style="stroke: #000000; stroke-width: 0.8"/>
      </g>
     </g>
     <g id="text_5">
      <!-- 0.8 -->
      <g transform="translate(176.504929 201.441708) scale(0.1 -0.1)">
       <defs>
        <path id="DejaVuSans-38" d="M 2034 2216 
Q 1584 2216 1326 1975 
Q 1069 1734 1069 1313 
Q 1069 891 1326 650 
Q 1584 409 2034 409 
Q 2484 409 2743 651 
Q 3003 894 3003 1313 
Q 3003 1734 2745 1975 
Q 2488 2216 2034 2216 
z
M 1403 2484 
Q 997 2584 770 2862 
Q 544 3141 544 3541 
Q 544 4100 942 4425 
Q 1341 4750 2034 4750 
Q 2731 4750 3128 4425 
Q 3525 4100 3525 3541 
Q 3525 3141 3298 2862 
Q 3072 2584 2669 2484 
Q 3125 2378 3379 2068 
Q 3634 1759 3634 1313 
Q 3634 634 3220 271 
Q 2806 -91 2034 -91 
Q 1263 -91 848 271 
Q 434 634 434 1313 
Q 434 1759 690 2068 
Q 947 2378 1403 2484 
z
M 1172 3481 
Q 1172 3119 1398 2916 
Q 1625 2713 2034 2713 
Q 2441 2713 2670 2916 
Q 2900 3119 2900 3481 
Q 2900 3844 2670 4047 
Q 2441 4250 2034 4250 
Q 1625 4250 1398 4047 
Q 1172 3844 1172 3481 
z
" transform="scale(0.015625)"/>
       </defs>
       <use xlink:href="#DejaVuSans-30"/>
       <use xlink:href="#DejaVuSans-2e" transform="translate(63.623047 0)"/>
       <use xlink:href="#DejaVuSans-38" transform="translate(95.410156 0)"/>
      </g>
     </g>
    </g>
    <g id="xtick_6">
     <g id="line2d_6">
      <g>
       <use xlink:href="#mab2626b478" x="219.625301" y="186.84327" style="stroke: #000000; stroke-width: 0.8"/>
      </g>
     </g>
     <g id="text_6">
      <!-- 1.0 -->
      <g transform="translate(211.673739 201.441708) scale(0.1 -0.1)">
       <defs>
        <path id="DejaVuSans-31" d="M 794 531 
L 1825 531 
L 1825 4091 
L 703 3866 
L 703 4441 
L 1819 4666 
L 2450 4666 
L 2450 531 
L 3481 531 
L 3481 0 
L 794 0 
L 794 531 
z
" transform="scale(0.015625)"/>
       </defs>
       <use xlink:href="#DejaVuSans-31"/>
       <use xlink:href="#DejaVuSans-2e" transform="translate(63.623047 0)"/>
       <use xlink:href="#DejaVuSans-30" transform="translate(95.410156 0)"/>
      </g>
     </g>
    </g>
    <g id="text_7">
     <!-- $u$, $v$ -->
     <g transform="translate(122.353276 215.119833) scale(0.1 -0.1)">
      <defs>
       <path id="DejaVuSans-Oblique-75" d="M 428 1388 
L 838 3500 
L 1416 3500 
L 1006 1409 
Q 975 1256 961 1147 
Q 947 1038 947 966 
Q 947 700 1109 554 
Q 1272 409 1569 409 
Q 2031 409 2368 721 
Q 2706 1034 2809 1563 
L 3194 3500 
L 3769 3500 
L 3091 0 
L 2516 0 
L 2631 550 
Q 2388 244 2052 76 
Q 1716 -91 1338 -91 
Q 878 -91 622 161 
Q 366 413 366 863 
Q 366 956 381 1097 
Q 397 1238 428 1388 
z
" transform="scale(0.015625)"/>
       <path id="DejaVuSans-2c" d="M 750 794 
L 1409 794 
L 1409 256 
L 897 -744 
L 494 -744 
L 750 256 
L 750 794 
z
" transform="scale(0.015625)"/>
       <path id="DejaVuSans-20" transform="scale(0.015625)"/>
       <path id="DejaVuSans-Oblique-76" d="M 459 3500 
L 1069 3500 
L 1581 525 
L 3256 3500 
L 3866 3500 
L 1875 0 
L 1100 0 
L 459 3500 
z
" transform="scale(0.015625)"/>
      </defs>
      <use xlink:href="#DejaVuSans-Oblique-75" transform="translate(0 0.3125)"/>
      <use xlink:href="#DejaVuSans-2c" transform="translate(63.378906 0.3125)"/>
      <use xlink:href="#DejaVuSans-20" transform="translate(95.166016 0.3125)"/>
      <use xlink:href="#DejaVuSans-Oblique-76" transform="translate(126.953125 0.3125)"/>
     </g>
    </g>
   </g>
   <g id="matplotlib.axis_2">
    <g id="ytick_1">
     <g id="line2d_7">
      <defs>
       <path id="m3fde2a1da1" d="M 0 0 
L -3.5 0 
" style="stroke: #000000; stroke-width: 0.8"/>
      </defs>
      <g>
       <use xlink:href="#m3fde2a1da1" x="43.78125" y="186.84327" style="stroke: #000000; stroke-width: 0.8"/>
      </g>
     </g>
     <g id="text_8">
      <!-- 0.0 -->
      <g transform="translate(20.878125 190.642489) scale(0.1 -0.1)">
       <use xlink:href="#DejaVuSans-30"/>
       <use xlink:href="#DejaVuSans-2e" transform="translate(63.623047 0)"/>
       <use xlink:href="#DejaVuSans-30" transform="translate(95.410156 0)"/>
      </g>
     </g>
    </g>
    <g id="ytick_2">
     <g id="line2d_8">
      <g>
       <use xlink:href="#m3fde2a1da1" x="43.78125" y="151.67446" style="stroke: #000000; stroke-width: 0.8"/>
      </g>
     </g>
     <g id="text_9">
      <!-- 0.2 -->
      <g transform="translate(20.878125 155.473679) scale(0.1 -0.1)">
       <use xlink:href="#DejaVuSans-30"/>
       <use xlink:href="#DejaVuSans-2e" transform="translate(63.623047 0)"/>
       <use xlink:href="#DejaVuSans-32" transform="translate(95.410156 0)"/>
      </g>
     </g>
    </g>
    <g id="ytick_3">
     <g id="line2d_9">
      <g>
       <use xlink:href="#m3fde2a1da1" x="43.78125" y="116.50565" style="stroke: #000000; stroke-width: 0.8"/>
      </g>
     </g>
     <g id="text_10">
      <!-- 0.4 -->
      <g transform="translate(20.878125 120.304868) scale(0.1 -0.1)">
       <use xlink:href="#DejaVuSans-30"/>
       <use xlink:href="#DejaVuSans-2e" transform="translate(63.623047 0)"/>
       <use xlink:href="#DejaVuSans-34" transform="translate(95.410156 0)"/>
      </g>
     </g>
    </g>
    <g id="ytick_4">
     <g id="line2d_10">
      <g>
       <use xlink:href="#m3fde2a1da1" x="43.78125" y="81.336839" style="stroke: #000000; stroke-width: 0.8"/>
      </g>
     </g>
     <g id="text_11">
      <!-- 0.6 -->
      <g transform="translate(20.878125 85.136058) scale(0.1 -0.1)">
       <use xlink:href="#DejaVuSans-30"/>
       <use xlink:href="#DejaVuSans-2e" transform="translate(63.623047 0)"/>
       <use xlink:href="#DejaVuSans-36" transform="translate(95.410156 0)"/>
      </g>
     </g>
    </g>
    <g id="ytick_5">
     <g id="line2d_11">
      <g>
       <use xlink:href="#m3fde2a1da1" x="43.78125" y="46.168029" style="stroke: #000000; stroke-width: 0.8"/>
      </g>
     </g>
     <g id="text_12">
      <!-- 0.8 -->
      <g transform="translate(20.878125 49.967248) scale(0.1 -0.1)">
       <use xlink:href="#DejaVuSans-30"/>
       <use xlink:href="#DejaVuSans-2e" transform="translate(63.623047 0)"/>
       <use xlink:href="#DejaVuSans-38" transform="translate(95.410156 0)"/>
      </g>
     </g>
    </g>
    <g id="ytick_6">
     <g id="line2d_12">
      <g>
       <use xlink:href="#m3fde2a1da1" x="43.78125" y="10.999219" style="stroke: #000000; stroke-width: 0.8"/>
      </g>
     </g>
     <g id="text_13">
      <!-- 1.0 -->
      <g transform="translate(20.878125 14.798438) scale(0.1 -0.1)">
       <use xlink:href="#DejaVuSans-31"/>
       <use xlink:href="#DejaVuSans-2e" transform="translate(63.623047 0)"/>
       <use xlink:href="#DejaVuSans-30" transform="translate(95.410156 0)"/>
      </g>
     </g>
    </g>
    <g id="text_14">
     <!-- VCF -->
     <g transform="translate(14.798438 108.708744) rotate(-90) scale(0.1 -0.1)">
      <defs>
       <path id="DejaVuSans-56" d="M 1831 0 
L 50 4666 
L 709 4666 
L 2188 738 
L 3669 4666 
L 4325 4666 
L 2547 0 
L 1831 0 
z
" transform="scale(0.015625)"/>
       <path id="DejaVuSans-43" d="M 4122 4306 
L 4122 3641 
Q 3803 3938 3442 4084 
Q 3081 4231 2675 4231 
Q 1875 4231 1450 3742 
Q 1025 3253 1025 2328 
Q 1025 1406 1450 917 
Q 1875 428 2675 428 
Q 3081 428 3442 575 
Q 3803 722 4122 1019 
L 4122 359 
Q 3791 134 3420 21 
Q 3050 -91 2638 -91 
Q 1578 -91 968 557 
Q 359 1206 359 2328 
Q 359 3453 968 4101 
Q 1578 4750 2638 4750 
Q 3056 4750 3426 4639 
Q 3797 4528 4122 4306 
z
" transform="scale(0.015625)"/>
       <path id="DejaVuSans-46" d="M 628 4666 
L 3309 4666 
L 3309 4134 
L 1259 4134 
L 1259 2759 
L 3109 2759 
L 3109 2228 
L 1259 2228 
L 1259 0 
L 628 0 
L 628 4666 
z
" transform="scale(0.015625)"/>
      </defs>
      <use xlink:href="#DejaVuSans-56"/>
      <use xlink:href="#DejaVuSans-43" transform="translate(68.408203 0)"/>
      <use xlink:href="#DejaVuSans-46" transform="translate(138.232422 0)"/>
     </g>
    </g>
   </g>
   <g id="line2d_13">
    <path d="M 43.78125 195.634072 
L 43.790103 195.634072 
L 43.896343 186.839276 
L 45.507642 186.730932 
L 45.613881 186.697592 
L 48.783359 186.589527 
L 48.889598 186.558007 
L 50.713376 186.448045 
L 50.819616 186.422089 
L 51.943984 186.311215 
L 52.050223 186.296415 
L 53.210004 186.185712 
L 53.298537 186.178936 
L 54.387492 186.071841 
L 54.493731 186.05118 
L 55.662366 185.941506 
L 55.768605 185.92716 
L 56.653934 185.817752 
L 56.760174 185.808571 
L 57.379904 185.701308 
L 57.486143 185.690861 
L 58.477712 185.5808 
L 58.583951 185.559013 
L 59.44272 185.452229 
L 59.54896 185.432586 
L 60.257223 185.324478 
L 60.363463 185.307076 
L 60.965486 185.200281 
L 61.062873 185.179131 
L 61.797696 185.073553 
L 61.903935 185.045484 
L 62.736144 184.935219 
L 62.842384 184.921107 
L 63.541794 184.812788 
L 63.648033 184.790098 
L 64.462536 184.679036 
L 64.568776 184.653641 
L 65.321305 184.544306 
L 65.427545 184.527019 
L 66.038422 184.417143 
L 66.144661 184.397143 
L 66.923751 184.286866 
L 67.02999 184.263075 
L 67.614307 184.152814 
L 67.720547 184.130401 
L 68.366837 184.019446 
L 68.446517 184.006946 
L 69.110513 183.898122 
L 69.216753 183.875438 
L 69.951576 183.766436 
L 70.057816 183.748415 
L 70.633279 183.639016 
L 70.739519 183.620998 
L 71.288423 183.510414 
L 71.385809 183.501036 
L 71.934713 183.392321 
L 72.040953 183.372773 
L 72.607563 183.262115 
L 72.713803 183.239131 
L 73.21844 183.128954 
L 73.32468 183.110949 
L 73.882437 183.001487 
L 73.988676 182.964357 
L 74.440194 182.857472 
L 74.546434 182.8241 
L 75.139604 182.7147 
L 75.245844 182.683956 
L 75.653095 182.580445 
L 75.759334 182.548307 
L 76.157733 182.437747 
L 76.263972 182.401979 
L 76.697783 182.291583 
L 76.804023 182.257925 
L 77.246687 182.149161 
L 77.352927 182.120148 
L 77.831004 182.01186 
L 77.937244 181.972861 
L 78.379908 181.861852 
L 78.486148 181.838255 
L 78.902252 181.729719 
L 79.008492 181.690573 
L 79.43345 181.582592 
L 79.539689 181.544768 
L 79.929234 181.434099 
L 80.035474 181.389479 
L 80.486991 181.280337 
L 80.593231 181.246893 
L 81.071309 181.135908 
L 81.177548 181.110081 
L 81.637919 181.000325 
L 81.744159 180.968672 
L 82.09829 180.860996 
L 82.20453 180.829364 
L 82.487835 180.727918 
L 82.594075 180.696515 
L 82.974766 180.585475 
L 83.081005 180.552612 
L 83.479404 180.442816 
L 83.585643 180.409626 
L 83.789269 180.300883 
L 83.895508 180.264071 
L 84.2762 180.153187 
L 84.382439 180.119821 
L 84.763131 180.011695 
L 84.86937 179.975122 
L 85.285475 179.865331 
L 85.391714 179.831423 
L 85.639606 179.722228 
L 85.745846 179.684933 
L 86.038004 179.57587 
L 86.144244 179.537593 
L 86.409843 179.434053 
L 86.516082 179.391853 
L 86.825947 179.283008 
L 86.932187 179.22931 
L 87.206639 179.122336 
L 87.312878 179.077279 
L 87.66701 178.967385 
L 87.773249 178.93159 
L 88.047701 178.824569 
L 88.153941 178.78392 
L 88.472659 178.67378 
L 88.578899 178.648598 
L 89.01271 178.539892 
L 89.118949 178.51578 
L 89.402255 178.405318 
L 89.508494 178.357666 
L 89.898039 178.247241 
L 90.004278 178.194911 
L 90.30529 178.084494 
L 90.41153 178.025739 
L 90.668275 177.916321 
L 90.774515 177.872796 
L 91.013554 177.762719 
L 91.119793 177.730155 
L 91.509338 177.619889 
L 91.615577 177.547549 
L 91.978562 177.438049 
L 92.084802 177.389289 
L 92.421227 177.279615 
L 92.527466 177.225033 
L 92.810771 177.114326 
L 92.917011 177.061739 
L 93.235729 176.952937 
L 93.341969 176.886158 
L 93.651834 176.775972 
L 93.758074 176.708176 
L 94.085645 176.598297 
L 94.191885 176.563392 
L 94.466337 176.459025 
L 94.572576 176.409473 
L 94.785055 176.302539 
L 94.891295 176.244594 
L 95.183453 176.134818 
L 95.289693 176.084329 
L 95.564145 175.975328 
L 95.670384 175.938987 
L 95.944836 175.828212 
L 96.051076 175.766899 
L 96.343234 175.660376 
L 96.449474 175.610177 
L 96.750486 175.505881 
L 96.856725 175.437956 
L 97.14003 175.328815 
L 97.24627 175.282588 
L 97.485309 175.177048 
L 97.591548 175.122338 
L 97.883707 175.016769 
L 97.989946 174.975764 
L 98.202425 174.869179 
L 98.308665 174.805415 
L 98.600823 174.697012 
L 98.707063 174.646629 
L 98.910688 174.536272 
L 99.016928 174.473394 
L 99.335646 174.36234 
L 99.441886 174.296092 
L 99.742898 174.185939 
L 99.849137 174.140535 
L 100.097029 174.038009 
L 100.203269 173.975475 
L 100.433454 173.874571 
L 100.539694 173.780569 
L 100.752173 173.680421 
L 100.858412 173.595701 
L 101.017772 173.485843 
L 101.124011 173.43034 
L 101.30993 173.329662 
L 101.41617 173.284324 
L 101.602089 173.183374 
L 101.708328 173.102425 
L 102.044753 172.991618 
L 102.150993 172.930928 
L 102.363472 172.823753 
L 102.469711 172.767404 
L 102.646777 172.66003 
L 102.753016 172.595929 
L 103.045175 172.486632 
L 103.151415 172.426757 
L 103.425867 172.330028 
L 103.532106 172.246975 
L 103.797705 172.138035 
L 103.903944 172.075668 
L 104.178396 171.96695 
L 104.284636 171.927469 
L 104.550234 171.81918 
L 104.656474 171.757391 
L 104.8601 171.652625 
L 104.966339 171.598434 
L 105.196525 171.491558 
L 105.302764 171.454514 
L 105.577216 171.34584 
L 105.683456 171.294172 
L 105.895935 171.188156 
L 106.002174 171.099158 
L 106.250066 170.990452 
L 106.356306 170.895151 
L 106.613051 170.785878 
L 106.71929 170.720917 
L 106.931769 170.610331 
L 107.038009 170.523103 
L 107.259341 170.421785 
L 107.356727 170.341485 
L 107.560353 170.236829 
L 107.666593 170.168379 
L 107.861365 170.059388 
L 107.967604 170.008007 
L 108.17123 169.898029 
L 108.27747 169.828568 
L 108.498802 169.718232 
L 108.605041 169.680468 
L 108.808667 169.569807 
L 108.914906 169.516768 
L 109.145092 169.407767 
L 109.251332 169.360042 
L 109.499224 169.250842 
L 109.605463 169.192257 
L 109.809089 169.08146 
L 109.915328 169.042262 
L 110.2429 168.937076 
L 110.34914 168.893732 
L 110.561618 168.785107 
L 110.667858 168.749554 
L 110.844924 168.639724 
L 110.951163 168.59987 
L 111.234469 168.494342 
L 111.340708 168.412795 
L 111.61516 168.305175 
L 111.721399 168.245977 
L 111.995851 168.136223 
L 112.102091 168.056512 
L 112.358836 167.948211 
L 112.465076 167.877059 
L 112.642142 167.775369 
L 112.748381 167.654913 
L 112.978567 167.545132 
L 113.084806 167.472672 
L 113.350405 167.364763 
L 113.456644 167.299738 
L 113.66027 167.196002 
L 113.76651 167.1384 
L 113.952429 167.030561 
L 114.058668 166.977582 
L 114.191467 166.870983 
L 114.297707 166.793235 
L 114.483626 166.686041 
L 114.589866 166.597277 
L 114.828904 166.493796 
L 114.935144 166.414609 
L 115.156476 166.304274 
L 115.262716 166.227536 
L 115.448635 166.120907 
L 115.554874 166.066916 
L 115.73194 165.95841 
L 115.838179 165.887974 
L 115.997539 165.78629 
L 116.103778 165.703998 
L 116.369377 165.593142 
L 116.475616 165.54202 
L 116.643829 165.445782 
L 116.750068 165.379933 
L 116.99796 165.274725 
L 117.1042 165.201215 
L 117.343239 165.091479 
L 117.449478 165.02238 
L 117.635397 164.913482 
L 117.741637 164.82516 
L 117.839023 164.717122 
L 117.945263 164.670674 
L 118.166595 164.560645 
L 118.272834 164.490668 
L 118.47646 164.380429 
L 118.582699 164.320035 
L 118.688939 164.218186 
L 118.795178 164.126755 
L 118.936831 164.015663 
L 119.043071 163.956944 
L 119.22899 163.849225 
L 119.335229 163.779938 
L 119.565415 163.669996 
L 119.671654 163.572417 
L 119.831013 163.467308 
L 119.937253 163.409753 
L 120.149732 163.306162 
L 120.255971 163.247507 
L 120.459597 163.137008 
L 120.565836 163.037826 
L 120.680929 162.930815 
L 120.787169 162.851452 
L 121.008501 162.740782 
L 121.11474 162.69402 
L 121.282953 162.590908 
L 121.389192 162.514403 
L 121.583965 162.414614 
L 121.690204 162.340367 
L 121.902683 162.232253 
L 122.008923 162.133158 
L 122.194842 162.031941 
L 122.301081 161.957253 
L 122.54012 161.855215 
L 122.64636 161.755931 
L 122.911958 161.645352 
L 123.018198 161.560389 
L 123.177557 161.452578 
L 123.283797 161.31319 
L 123.416596 161.205014 
L 123.522835 161.086392 
L 123.691048 160.982391 
L 123.797287 160.930471 
L 123.99206 160.820858 
L 124.098299 160.712431 
L 124.248805 160.605671 
L 124.355045 160.543803 
L 124.461284 160.448934 
L 124.567524 160.350871 
L 124.656057 160.249571 
L 124.762296 160.171786 
L 124.930509 160.073059 
L 125.036748 159.992075 
L 125.213814 159.885291 
L 125.320053 159.826993 
L 125.435146 159.716455 
L 125.541386 159.651249 
L 125.691892 159.540521 
L 125.798131 159.389738 
L 125.966344 159.278912 
L 126.072583 159.128931 
L 126.249649 159.020347 
L 126.355888 158.939873 
L 126.497541 158.831493 
L 126.60378 158.765353 
L 126.771993 158.666061 
L 126.878232 158.569482 
L 127.019885 158.458451 
L 127.126125 158.361234 
L 127.267777 158.254822 
L 127.374017 158.189225 
L 127.533376 158.080993 
L 127.639615 158.002016 
L 127.807828 157.900904 
L 127.914067 157.80088 
L 128.126546 157.690482 
L 128.232786 157.571463 
L 128.409852 157.461185 
L 128.516091 157.384656 
L 128.613477 157.277959 
L 128.719717 157.180175 
L 128.932196 157.087934 
L 129.038435 157.007639 
L 129.180088 156.898788 
L 129.286327 156.826228 
L 129.45454 156.733549 
L 129.560779 156.610127 
L 129.773258 156.515146 
L 129.879498 156.422464 
L 130.012297 156.315045 
L 130.118537 156.234356 
L 130.260189 156.124681 
L 130.366429 155.997958 
L 130.534641 155.896661 
L 130.640881 155.805635 
L 130.809093 155.695194 
L 130.915333 155.650661 
L 131.092399 155.54398 
L 131.198638 155.448119 
L 131.322584 155.348614 
L 131.428824 155.212673 
L 131.543916 155.103577 
L 131.650156 155.023576 
L 131.782955 154.921336 
L 131.889195 154.838581 
L 132.013141 154.727983 
L 132.11938 154.65446 
L 132.287593 154.545408 
L 132.393832 154.449187 
L 132.535485 154.339095 
L 132.641724 154.220101 
L 132.809937 154.109152 
L 132.916176 154.034721 
L 133.013563 153.953685 
L 133.119802 153.754091 
L 133.270308 153.655249 
L 133.376547 153.58254 
L 133.535907 153.474419 
L 133.642146 153.378135 
L 133.819212 153.267476 
L 133.925451 153.184588 
L 134.075957 153.078602 
L 134.182197 152.961223 
L 134.306143 152.853237 
L 134.412382 152.764284 
L 134.589448 152.6554 
L 134.695688 152.580298 
L 134.828487 152.47718 
L 134.934727 152.349409 
L 135.023259 152.242925 
L 135.129499 152.177931 
L 135.235738 152.069091 
L 135.341978 151.943091 
L 135.483631 151.8345 
L 135.58987 151.677309 
L 135.713816 151.570101 
L 135.820056 151.464585 
L 135.979415 151.362361 
L 136.085654 151.275567 
L 136.174187 151.183303 
L 136.280427 151.063336 
L 136.430933 150.958794 
L 136.537172 150.875169 
L 136.687678 150.766421 
L 136.793918 150.704771 
L 136.953277 150.597474 
L 137.059516 150.46811 
L 137.192316 150.372829 
L 137.298555 150.248381 
L 137.457914 150.140463 
L 137.564154 150.001578 
L 137.679247 149.892896 
L 137.785486 149.822827 
L 137.953699 149.711874 
L 138.059938 149.614955 
L 138.166178 149.518185 
L 138.272417 149.381523 
L 138.431776 149.286473 
L 138.538016 149.165048 
L 138.679668 149.061456 
L 138.785908 148.982683 
L 138.901001 148.891713 
L 139.00724 148.761623 
L 139.140039 148.658171 
L 139.246279 148.571945 
L 139.352518 148.464608 
L 139.458758 148.363156 
L 139.65353 148.254217 
L 139.75977 148.197808 
L 139.866009 148.110948 
L 139.972249 147.93808 
L 140.113901 147.828976 
L 140.220141 147.753737 
L 140.344087 147.643524 
L 140.450326 147.547106 
L 140.574272 147.452078 
L 140.680512 147.340118 
L 140.813311 147.2358 
L 140.919551 147.194487 
L 140.99923 147.113392 
L 141.10547 147.007966 
L 141.264829 146.910487 
L 141.371069 146.825515 
L 141.530428 146.731728 
L 141.636667 146.612592 
L 141.7252 146.515382 
L 141.83144 146.434305 
L 141.937679 146.326208 
L 142.043919 146.241799 
L 142.238691 146.139232 
L 142.344931 146.015316 
L 142.433463 145.910488 
L 142.539703 145.810098 
L 142.716769 145.69941 
L 142.823008 145.644546 
L 142.946954 145.534354 
L 143.053194 145.390034 
L 143.194846 145.283477 
L 143.301086 145.210735 
L 143.416179 145.105872 
L 143.522418 145.026088 
L 143.646364 144.915468 
L 143.752604 144.797045 
L 143.858843 144.692184 
L 143.965083 144.557354 
L 144.080175 144.449459 
L 144.186415 144.360818 
L 144.301508 144.251052 
L 144.407747 144.173113 
L 144.593666 144.070393 
L 144.699906 143.980894 
L 144.859265 143.870628 
L 144.965504 143.763835 
L 145.107157 143.652729 
L 145.213397 143.51019 
L 145.363903 143.40603 
L 145.470142 143.280999 
L 145.549822 143.182262 
L 145.656061 143.103348 
L 145.735741 143.022528 
L 145.84198 142.882257 
L 145.965926 142.774761 
L 146.072166 142.695127 
L 146.187258 142.592782 
L 146.293498 142.509181 
L 146.373178 142.411481 
L 146.479417 142.285498 
L 146.612216 142.184463 
L 146.718456 142.028534 
L 146.815842 141.934659 
L 146.922082 141.7652 
L 146.992908 141.672082 
L 147.099147 141.550105 
L 147.231947 141.446091 
L 147.338186 141.32618 
L 147.488692 141.215385 
L 147.594932 141.101481 
L 147.710024 141.005254 
L 147.816264 140.859497 
L 147.91365 140.761 
L 148.01989 140.56636 
L 148.073009 140.47525 
L 148.179249 140.333426 
L 148.267782 140.222603 
L 148.374021 140.043749 
L 148.53338 139.934957 
L 148.63962 139.810516 
L 148.701593 139.712926 
L 148.807832 139.503426 
L 148.878659 139.410036 
L 148.984898 139.266052 
L 149.029165 139.186984 
L 149.135404 139.03591 
L 149.23279 138.927264 
L 149.33903 138.786351 
L 149.445269 138.690635 
L 149.551509 138.553648 
L 149.666602 138.446484 
L 149.772841 138.325859 
L 149.861374 138.226637 
L 149.967613 138.026112 
L 150.056146 137.968802 
L 150.162386 137.81993 
L 150.268625 137.720915 
L 150.374865 137.631567 
L 150.498811 137.527723 
L 150.60505 137.369283 
L 150.73785 137.272555 
L 150.844089 137.114777 
L 150.976889 137.009028 
L 151.083128 136.958855 
L 151.215927 136.851419 
L 151.322167 136.761927 
L 151.38414 136.679784 
L 151.490379 136.52822 
L 151.738271 136.428624 
L 151.844511 136.286294 
L 151.968457 136.176166 
L 152.074697 136.078509 
L 152.216349 135.971411 
L 152.322589 135.809473 
L 152.437681 135.710078 
L 152.543921 135.57747 
L 152.667867 135.468084 
L 152.774106 135.379128 
L 152.898053 135.269727 
L 153.004292 135.162684 
L 153.092825 135.083238 
L 153.199064 134.843201 
L 153.269891 134.740272 
L 153.37613 134.569848 
L 153.491223 134.483261 
L 153.597462 134.346951 
L 153.668289 134.249113 
L 153.774528 134.056789 
L 153.898474 133.959064 
L 154.004714 133.797714 
L 154.137513 133.687017 
L 154.243753 133.557194 
L 154.438525 133.447327 
L 154.544765 133.384275 
L 154.659857 133.275632 
L 154.766097 133.16429 
L 154.88119 133.055678 
L 154.987429 132.835773 
L 155.075962 132.737029 
L 155.182201 132.666037 
L 155.288441 132.566272 
L 155.39468 132.439272 
L 155.509773 132.330489 
L 155.616013 132.161019 
L 155.695692 132.056875 
L 155.801932 131.971946 
L 155.925878 131.862731 
L 156.032117 131.630699 
L 156.138357 131.52089 
L 156.244596 131.370982 
L 156.333129 131.260843 
L 156.439369 131.13769 
L 156.581021 131.026742 
L 156.687261 130.894853 
L 156.758087 130.823967 
L 156.864327 130.644645 
L 157.023686 130.537582 
L 157.129925 130.426221 
L 157.298138 130.317121 
L 157.404377 130.128464 
L 157.475204 130.028056 
L 157.581443 129.821921 
L 157.669976 129.741479 
L 157.776215 129.609279 
L 157.882455 129.503899 
L 157.988694 129.391363 
L 158.121494 129.283524 
L 158.227733 129.183899 
L 158.369386 129.088 
L 158.475625 128.918478 
L 158.537598 128.819956 
L 158.643838 128.644797 
L 158.714664 128.54904 
L 158.820904 128.433605 
L 158.882877 128.330052 
L 158.989116 128.109253 
L 159.130769 128.00378 
L 159.237008 127.871275 
L 159.343248 127.760473 
L 159.449487 127.648295 
L 159.573433 127.547949 
L 159.679673 127.388778 
L 159.723939 127.326822 
L 159.830179 127.111373 
L 159.936418 127.009381 
L 160.042658 126.829283 
L 160.157751 126.734594 
L 160.26399 126.576593 
L 160.325963 126.52658 
L 160.432203 126.317007 
L 160.565002 126.231306 
L 160.671241 126.055306 
L 160.821747 125.953389 
L 160.927987 125.809568 
L 160.98996 125.730727 
L 161.096199 125.604505 
L 161.193585 125.495449 
L 161.299825 125.361247 
L 161.432624 125.267221 
L 161.538864 125.077506 
L 161.60969 124.97925 
L 161.71593 124.858609 
L 161.831022 124.759181 
L 161.937262 124.634249 
L 162.043501 124.527078 
L 162.149741 124.34071 
L 162.247127 124.242788 
L 162.353367 124.069806 
L 162.441899 123.987207 
L 162.548139 123.815171 
L 162.601259 123.704266 
L 162.707498 123.554024 
L 162.796031 123.449229 
L 162.902271 123.332445 
L 163.026217 123.222976 
L 163.132456 123.097434 
L 163.203282 122.99412 
L 163.309522 122.871678 
L 163.389201 122.771643 
L 163.495441 122.615185 
L 163.583974 122.509083 
L 163.690213 122.427925 
L 163.76104 122.321046 
L 163.867279 122.148557 
L 164.008932 122.058764 
L 164.115171 121.903944 
L 164.239117 121.79391 
L 164.345357 121.632411 
L 164.398477 121.578619 
L 164.504716 121.349514 
L 164.646369 121.244054 
L 164.752608 121.080017 
L 164.814581 120.975056 
L 164.920821 120.8109 
L 164.956234 120.709856 
L 165.062473 120.565305 
L 165.204126 120.455541 
L 165.310365 120.326952 
L 165.434312 120.220241 
L 165.540551 120.082078 
L 165.620231 119.973545 
L 165.72647 119.797301 
L 165.83271 119.711923 
L 165.938949 119.483654 
L 166.062895 119.378448 
L 166.169135 119.288053 
L 166.293081 119.18867 
L 166.39932 119.047068 
L 166.479 118.937323 
L 166.585239 118.817316 
L 166.691479 118.709655 
L 166.797718 118.572718 
L 166.877398 118.471124 
L 166.983637 118.341825 
L 167.081024 118.23846 
L 167.187263 118.065626 
L 167.320062 117.958492 
L 167.426302 117.850136 
L 167.505981 117.754052 
L 167.612221 117.555827 
L 167.736167 117.44946 
L 167.842406 117.21447 
L 167.948646 117.10858 
L 168.054885 116.886322 
L 168.143418 116.780022 
L 168.249658 116.59684 
L 168.338191 116.504711 
L 168.44443 116.280165 
L 168.559523 116.169584 
L 168.665762 116.013511 
L 168.754295 115.910735 
L 168.860535 115.745602 
L 168.957921 115.635384 
L 169.064161 115.492316 
L 169.11728 115.382096 
L 169.22352 115.209435 
L 169.294346 115.131822 
L 169.400586 114.998057 
L 169.515678 114.896411 
L 169.621918 114.718344 
L 169.754717 114.615184 
L 169.860957 114.430829 
L 169.92293 114.340709 
L 170.029169 114.128634 
L 170.099996 114.054338 
L 170.206235 113.943458 
L 170.285915 113.859782 
L 170.392154 113.726792 
L 170.480687 113.626818 
L 170.586926 113.44399 
L 170.693166 113.349917 
L 170.799405 113.168052 
L 170.870232 113.062316 
L 170.976471 112.935053 
L 171.047298 112.847544 
L 171.153537 112.699735 
L 171.277483 112.592004 
L 171.383723 112.400827 
L 171.454549 112.299969 
L 171.560788 112.174492 
L 171.649321 112.086677 
L 171.755561 111.879712 
L 171.817534 111.778478 
L 171.923773 111.591004 
L 172.003453 111.496941 
L 172.109692 111.320504 
L 172.189372 111.211679 
L 172.295611 111.068742 
L 172.357585 110.975382 
L 172.463824 110.83718 
L 172.552357 110.731984 
L 172.658596 110.517483 
L 172.720569 110.418022 
L 172.826809 110.182344 
L 172.924195 110.076062 
L 173.030435 109.931796 
L 173.101261 109.823347 
L 173.2075 109.560226 
L 173.296033 109.458925 
L 173.402273 109.302487 
L 173.481952 109.206622 
L 173.588192 108.978068 
L 173.632458 108.879203 
L 173.738698 108.82267 
L 173.862644 108.716925 
L 173.968883 108.526408 
L 174.030856 108.43584 
L 174.137096 108.253462 
L 174.234482 108.150941 
L 174.340722 107.979142 
L 174.446961 107.868547 
L 174.553201 107.697872 
L 174.588614 107.597959 
L 174.694853 107.415846 
L 174.747973 107.316572 
L 174.854212 107.162902 
L 174.951599 107.087518 
L 175.057838 106.784 
L 175.164078 106.685706 
L 175.270317 106.492896 
L 175.349997 106.392671 
L 175.456236 106.260736 
L 175.544769 106.180293 
L 175.651009 106.000816 
L 175.695275 105.920894 
L 175.801514 105.702169 
L 175.881194 105.592924 
L 175.987434 105.349019 
L 176.05826 105.247668 
L 176.164499 105.095708 
L 176.253032 104.984812 
L 176.359272 104.749996 
L 176.430098 104.641331 
L 176.536338 104.447847 
L 176.607164 104.352313 
L 176.713403 104.225822 
L 176.775376 104.116403 
L 176.881616 103.958624 
L 176.925882 103.859801 
L 177.032122 103.541633 
L 177.102948 103.449314 
L 177.209188 103.286339 
L 177.29772 103.183077 
L 177.40396 103.019355 
L 177.492493 102.9177 
L 177.598732 102.767109 
L 177.678412 102.677434 
L 177.784651 102.534478 
L 177.855478 102.443701 
L 177.961717 102.278856 
L 178.014837 102.186621 
L 178.121076 101.962846 
L 178.218463 101.853222 
L 178.324702 101.70199 
L 178.413235 101.615143 
L 178.519475 101.389693 
L 178.572594 101.282499 
L 178.678834 101.08102 
L 178.7231 100.997092 
L 178.82934 100.722466 
L 178.926726 100.616321 
L 179.032965 100.34221 
L 179.130352 100.243006 
L 179.236591 100.038533 
L 179.298564 99.938445 
L 179.404804 99.76229 
L 179.519896 99.655811 
L 179.626136 99.509809 
L 179.732375 99.40211 
L 179.838615 99.210162 
L 179.900588 99.107101 
L 180.006827 98.92022 
L 180.059947 98.820992 
L 180.166187 98.589251 
L 180.2016 98.489122 
L 180.307839 98.279648 
L 180.387519 98.191688 
L 180.493758 98.026981 
L 180.555731 97.928076 
L 180.661971 97.690924 
L 180.732797 97.593324 
L 180.839037 97.391287 
L 180.909863 97.29928 
L 181.016102 97.100495 
L 181.060369 97.031347 
L 181.166608 96.772115 
L 181.255141 96.680067 
L 181.361381 96.426938 
L 181.449914 96.324497 
L 181.556153 96.130069 
L 181.618126 96.057942 
L 181.724366 95.796969 
L 181.812899 95.68919 
L 181.919138 95.576891 
L 181.972258 95.480964 
L 182.078497 95.328854 
L 182.184737 95.223507 
L 182.290976 95.050895 
L 182.352949 94.966038 
L 182.459189 94.788089 
L 182.547722 94.690584 
L 182.653961 94.56677 
L 182.715934 94.481707 
L 182.822174 94.355689 
L 182.884147 94.262672 
L 182.990386 94.044481 
L 183.061212 93.945625 
L 183.167452 93.724 
L 183.273691 93.619232 
L 183.379931 93.404658 
L 183.468464 93.305092 
L 183.574703 93.134302 
L 183.627823 93.055309 
L 183.734063 92.831638 
L 183.796036 92.741129 
L 183.902275 92.429152 
L 183.981955 92.339252 
L 184.088194 92.162163 
L 184.150167 92.081094 
L 184.256407 91.717587 
L 184.353793 91.627894 
L 184.460032 91.472743 
L 184.539712 91.372035 
L 184.645951 91.187201 
L 184.734484 91.077053 
L 184.840724 90.821084 
L 184.929257 90.722147 
L 185.035496 90.525878 
L 185.168296 90.439588 
L 185.274535 90.261883 
L 185.309948 90.151112 
L 185.416188 89.978433 
L 185.495867 89.891824 
L 185.602107 89.622812 
L 185.628667 89.516906 
L 185.734906 89.302627 
L 185.788026 89.20764 
L 185.894265 88.92731 
L 185.956238 88.822093 
L 186.062478 88.697045 
L 186.142157 88.587506 
L 186.248397 88.318244 
L 186.319223 88.212007 
L 186.425463 88.036738 
L 186.478582 87.929042 
L 186.584822 87.742897 
L 186.691061 87.644951 
L 186.797301 87.332624 
L 186.850421 87.251924 
L 186.95666 87.03412 
L 187.045193 86.930927 
L 187.151433 86.624926 
L 187.239965 86.537208 
L 187.346205 86.330486 
L 187.381618 86.24099 
L 187.487858 85.974181 
L 187.567537 85.872569 
L 187.664923 85.685997 
L 187.753456 85.577388 
L 187.859696 85.338463 
L 187.921669 85.235159 
L 188.027908 85.051128 
L 188.072175 84.977057 
L 188.178414 84.76594 
L 188.249241 84.688433 
L 188.35548 84.470159 
L 188.4086 84.378891 
L 188.514839 84.060698 
L 188.576812 83.951022 
L 188.683052 83.661573 
L 188.736172 83.595387 
L 188.842411 83.339409 
L 188.904384 83.243182 
L 189.010624 82.93872 
L 189.090303 82.828151 
L 189.196543 82.617446 
L 189.223102 82.509152 
L 189.329342 82.315876 
L 189.373608 82.234912 
L 189.479848 81.944421 
L 189.515261 81.83605 
L 189.621501 81.542296 
L 189.683474 81.44799 
L 189.789713 81.231772 
L 189.869393 81.138707 
L 189.975632 80.92788 
L 190.037605 80.841118 
L 190.143845 80.60908 
L 190.214671 80.500905 
L 190.32091 80.261307 
L 190.365177 80.151374 
L 190.471416 80.018176 
L 190.515683 79.974958 
L 190.621922 79.707391 
L 190.666189 79.606799 
L 190.772428 79.350033 
L 190.825548 79.272644 
L 190.931788 79.016123 
L 191.011467 78.909095 
L 191.117707 78.630726 
L 191.188533 78.552491 
L 191.294772 78.273902 
L 191.330186 78.234005 
L 191.436425 77.949053 
L 191.471838 77.849481 
L 191.578078 77.62287 
L 191.657757 77.537612 
L 191.763997 77.347772 
L 191.896796 77.240857 
L 192.003036 76.98077 
L 192.065009 76.875746 
L 192.171248 76.460311 
L 192.268634 76.355308 
L 192.374874 76.253847 
L 192.436847 76.15073 
L 192.543086 75.943781 
L 192.596206 75.836364 
L 192.702446 75.473673 
L 192.764419 75.369417 
L 192.870658 75.164831 
L 192.906071 75.071934 
L 193.012311 74.839518 
L 193.074284 74.736207 
L 193.180523 74.535868 
L 193.233643 74.426395 
L 193.339882 74.244862 
L 193.375296 74.158017 
L 193.481535 73.856231 
L 193.534655 73.754356 
L 193.640894 73.596807 
L 193.658601 73.504258 
L 193.76484 73.27393 
L 193.782547 73.248717 
L 193.888786 72.88542 
L 193.933053 72.777048 
L 194.039292 72.569131 
L 194.127825 72.460532 
L 194.234065 72.219 
L 194.287185 72.145067 
L 194.393424 71.856066 
L 194.43769 71.746573 
L 194.54393 71.515165 
L 194.588196 71.417544 
L 194.694436 71.17174 
L 194.747556 71.06931 
L 194.853795 70.978284 
L 194.898062 70.874595 
L 195.004301 70.586454 
L 195.075127 70.511572 
L 195.181367 70.383758 
L 195.225633 70.287196 
L 195.331873 69.958695 
L 195.402699 69.865449 
L 195.508939 69.656269 
L 195.553205 69.567638 
L 195.659445 69.310199 
L 195.721418 69.213974 
L 195.827657 69.019523 
L 195.91619 68.910526 
L 196.022429 68.736664 
L 196.110962 68.641556 
L 196.217202 68.386277 
L 196.243762 68.291024 
L 196.350001 68.095387 
L 196.420827 67.991203 
L 196.527067 67.832971 
L 196.606747 67.758983 
L 196.712986 67.460579 
L 196.810372 67.367898 
L 196.916612 67.07869 
L 196.960878 67.000643 
L 197.067118 66.7368 
L 197.155651 66.627979 
L 197.26189 66.360301 
L 197.306156 66.262092 
L 197.412396 65.937215 
L 197.447809 65.838733 
L 197.554049 65.633697 
L 197.607168 65.543381 
L 197.713408 65.243171 
L 197.837354 65.139308 
L 197.943593 64.810155 
L 198.01442 64.699794 
L 198.120659 64.512812 
L 198.173779 64.421014 
L 198.280018 64.184874 
L 198.324285 64.082797 
L 198.430524 63.886311 
L 198.519057 63.775754 
L 198.625297 63.56665 
L 198.643003 63.557002 
L 198.749243 63.257804 
L 198.820069 63.149298 
L 198.926309 63.031396 
L 198.961722 62.929882 
L 199.067961 62.616448 
L 199.085668 62.534953 
L 199.191907 62.386409 
L 199.236174 62.287745 
L 199.342413 62.116285 
L 199.395533 62.019172 
L 199.439799 61.902246 
L 199.528332 61.837503 
L 199.634572 61.43084 
L 199.696545 61.335534 
L 199.802784 61.084154 
L 199.873611 60.980732 
L 199.97985 60.660371 
L 200.00641 60.597845 
L 200.11265 60.160483 
L 200.165769 60.085258 
L 200.272009 59.880135 
L 200.325128 59.772289 
L 200.431368 59.439958 
L 200.475634 59.361162 
L 200.581874 59.101278 
L 200.661554 59.003634 
L 200.767793 58.624403 
L 200.865179 58.516981 
L 200.971419 58.224645 
L 201.068805 58.126934 
L 201.175044 57.845559 
L 201.245871 57.736884 
L 201.35211 57.539816 
L 201.414083 57.451024 
L 201.520323 57.233722 
L 201.555736 57.183969 
L 201.661975 56.729398 
L 201.732802 56.672998 
L 201.839041 56.408229 
L 201.892161 56.319851 
L 201.9984 56.016868 
L 202.086933 55.920109 
L 202.193173 55.539123 
L 202.237439 55.432974 
L 202.343679 55.226706 
L 202.414505 55.12176 
L 202.520744 54.907522 
L 202.547304 54.799381 
L 202.653544 54.479337 
L 202.706664 54.404845 
L 202.812903 53.971861 
L 202.857169 53.90607 
L 202.963409 53.624515 
L 202.998822 53.53539 
L 203.105062 53.30638 
L 203.122768 53.279598 
L 203.229008 52.948943 
L 203.255568 52.86685 
L 203.361807 52.663462 
L 203.441487 52.576765 
L 203.547726 52.406562 
L 203.591993 52.29635 
L 203.698232 51.986476 
L 203.760205 51.897016 
L 203.866445 51.482712 
L 203.919564 51.391689 
L 204.025804 51.116889 
L 204.078924 51.03146 
L 204.185163 50.505374 
L 204.220576 50.401299 
L 204.317962 50.16544 
L 204.468468 50.054512 
L 204.574708 49.845715 
L 204.636681 49.751578 
L 204.71636 49.552084 
L 204.8226 49.445954 
L 204.928839 49.23351 
L 204.981959 49.126588 
L 205.088199 48.892347 
L 205.114759 48.816124 
L 205.132465 48.704857 
L 205.265264 48.643949 
L 205.371504 48.4605 
L 205.424624 48.369204 
L 205.530863 48.15383 
L 205.592836 48.075062 
L 205.699076 47.821264 
L 205.752195 47.735092 
L 205.858435 47.489733 
L 205.893848 47.421493 
L 206.000088 47.139605 
L 206.053207 47.029269 
L 206.159447 46.819303 
L 206.19486 46.738715 
L 206.27454 46.464746 
L 206.380779 46.4103 
L 206.487018 46.07674 
L 206.575551 45.965828 
L 206.681791 45.768892 
L 206.752617 45.681984 
L 206.84115 45.48549 
L 206.956243 45.375788 
L 207.062482 45.126847 
L 207.142162 45.016261 
L 207.248401 44.70539 
L 207.354641 44.606041 
L 207.46088 44.32701 
L 207.505147 44.240165 
L 207.611386 43.763047 
L 207.735332 43.655907 
L 207.841572 43.223405 
L 207.903545 43.113825 
L 208.009784 42.739615 
L 208.142584 42.635324 
L 208.248823 42.163168 
L 208.29309 42.06868 
L 208.399329 41.925951 
L 208.443596 41.816098 
L 208.549835 41.478282 
L 208.611808 41.378912 
L 208.718048 41.090229 
L 208.744608 40.984545 
L 208.850847 40.736287 
L 208.895113 40.638991 
L 208.91282 40.582732 
L 209.054473 40.474031 
L 209.160712 40.266696 
L 209.196125 40.171504 
L 209.284658 39.918996 
L 209.444017 39.846973 
L 209.550257 39.738922 
L 209.576817 39.665465 
L 209.683056 39.37728 
L 209.718469 39.277683 
L 209.824709 39.04087 
L 209.939802 38.939317 
L 210.046041 38.466765 
L 210.108014 38.357315 
L 210.169987 38.022326 
L 210.25852 37.949214 
L 210.36476 37.459562 
L 210.426733 37.361028 
L 210.532972 37.029681 
L 210.586092 36.974239 
L 210.692331 36.581919 
L 210.727745 36.486174 
L 210.798571 36.148077 
L 210.895957 36.08243 
L 211.002197 35.718214 
L 211.06417 35.618431 
L 211.081876 35.453237 
L 211.267795 35.358425 
L 211.374035 34.95996 
L 211.427154 34.895815 
L 211.533394 34.382638 
L 211.586514 34.280115 
L 211.692753 33.793818 
L 211.745873 33.684094 
L 211.852112 33.316825 
L 211.914085 33.226863 
L 212.020325 32.951492 
L 212.064591 32.859613 
L 212.170831 32.451361 
L 212.206244 32.396438 
L 212.294777 31.899865 
L 212.33019 31.899865 
L 212.43643 31.461599 
L 212.489549 31.362112 
L 212.595789 31.080709 
L 212.675468 30.981542 
L 212.781708 30.758751 
L 212.834828 30.688594 
L 212.914507 30.405646 
L 212.994187 30.321055 
L 213.091573 29.982867 
L 213.171253 29.874574 
L 213.277492 29.630883 
L 213.357172 29.521459 
L 213.463411 29.034506 
L 213.507678 28.953126 
L 213.613917 28.716675 
L 213.70245 28.606792 
L 213.80869 28.316505 
L 213.906076 28.209961 
L 214.012315 27.95034 
L 214.065435 27.839892 
L 214.171674 27.523811 
L 214.215941 27.45065 
L 214.32218 27.122123 
L 214.366447 27.043384 
L 214.472686 26.686577 
L 214.508099 26.636165 
L 214.614339 26.163368 
L 214.649752 26.089804 
L 214.747138 25.689675 
L 214.782551 25.651832 
L 214.888791 25.228146 
L 214.924204 25.148796 
L 215.030444 24.785577 
L 215.065857 24.682786 
L 215.172096 24.308635 
L 215.198656 24.261424 
L 215.304896 23.953913 
L 215.331455 23.930591 
L 215.437695 23.588992 
L 215.535081 23.485241 
L 215.641321 22.9391 
L 215.721 22.880834 
L 215.82724 22.452597 
L 215.898066 22.347309 
L 215.968892 22.001328 
L 216.066279 21.93067 
L 216.172518 21.594613 
L 216.199078 21.493782 
L 216.305317 21.122612 
L 216.36729 21.031942 
L 216.47353 20.534313 
L 216.517796 20.431467 
L 216.624036 19.885981 
L 216.712569 19.810576 
L 216.818808 19.420869 
L 216.854221 19.315721 
L 216.916194 18.948084 
L 217.057847 18.904489 
L 217.164087 18.711677 
L 217.217206 18.629782 
L 217.323446 17.977789 
L 217.341152 17.968648 
L 217.447392 17.191227 
L 217.500512 17.099013 
L 217.606751 16.809421 
L 217.712991 16.715868 
L 217.81923 16.384343 
L 217.87235 16.360318 
L 217.978589 16.119176 
L 218.014002 16.04664 
L 218.093682 15.648542 
L 218.146802 15.548418 
L 218.253041 15.19848 
L 218.297308 15.092279 
L 218.385841 14.64414 
L 218.527493 14.587873 
L 218.633733 14.227274 
L 218.651439 14.135466 
L 218.757679 14.048538 
L 218.801945 14.048538 
L 218.863918 13.717581 
L 218.987864 13.655975 
L 219.094104 12.664409 
L 219.120664 12.622395 
L 219.21805 12.172093 
L 219.29773 12.164852 
L 219.395116 11.834186 
L 219.457089 11.82711 
L 219.527915 11.28003 
L 219.572182 11.28003 
L 219.625301 2.233451 
L 219.625301 2.233451 
" clip-path="url(#p4135353c8c)" style="fill: none; stroke: #67c7d5; stroke-width: 1.5; stroke-linecap: square"/>
   </g>
   <g id="line2d_14">
    <path d="M 43.78125 195.634602 
L 43.790103 195.634602 
L 43.896343 186.831698 
L 45.020711 186.721071 
L 45.12695 186.706586 
L 45.941453 186.59548 
L 46.047692 186.575427 
L 46.738249 186.466876 
L 46.844488 186.434528 
L 47.393392 186.325406 
L 47.499632 186.288142 
L 47.862617 186.177583 
L 47.968856 186.145697 
L 48.482347 186.036646 
L 48.588587 186.011244 
L 48.986985 185.900458 
L 49.093224 185.850758 
L 49.411943 185.741663 
L 49.518182 185.683823 
L 49.91658 185.573654 
L 50.02282 185.547553 
L 50.394658 185.43674 
L 50.500897 185.393964 
L 50.819616 185.283615 
L 50.925855 185.230957 
L 51.271134 185.121132 
L 51.377373 185.081076 
L 51.758065 184.97497 
L 51.864304 184.90846 
L 52.06793 184.805756 
L 52.174169 184.755957 
L 52.501741 184.648441 
L 52.60798 184.596968 
L 52.935552 184.48593 
L 53.041792 184.447544 
L 53.325097 184.339935 
L 53.431336 184.258085 
L 53.688082 184.148506 
L 53.794321 184.128113 
L 54.051067 184.017952 
L 54.157306 183.971983 
L 54.449465 183.862423 
L 54.555704 183.792548 
L 54.918689 183.688111 
L 55.024929 183.627494 
L 55.255114 183.51779 
L 55.361354 183.473363 
L 55.671219 183.365913 
L 55.777458 183.318266 
L 56.18471 183.210468 
L 56.290949 183.170543 
L 56.565401 183.063871 
L 56.671641 182.991586 
L 56.946093 182.880617 
L 57.052332 182.831192 
L 57.291371 182.721925 
L 57.39761 182.686691 
L 57.680916 182.576937 
L 57.787155 182.528321 
L 58.043901 182.42163 
L 58.15014 182.355583 
L 58.380326 182.247897 
L 58.486565 182.202941 
L 58.743311 182.101499 
L 58.84955 182.041107 
L 59.097442 181.93006 
L 59.203682 181.902679 
L 59.416161 181.792031 
L 59.5224 181.726462 
L 59.743732 181.620108 
L 59.849972 181.553894 
L 60.124424 181.448643 
L 60.230663 181.399745 
L 60.425436 181.292839 
L 60.531675 181.263639 
L 60.708741 181.15294 
L 60.81498 181.090253 
L 61.098286 180.98475 
L 61.204525 180.940695 
L 61.319618 180.831103 
L 61.425857 180.809278 
L 61.611777 180.699914 
L 61.718016 180.647972 
L 61.974761 180.537003 
L 62.081001 180.436432 
L 62.417426 180.325602 
L 62.523665 180.281387 
L 62.771558 180.171218 
L 62.877797 180.125857 
L 63.072569 180.015153 
L 63.178809 179.957573 
L 63.355875 179.852386 
L 63.462114 179.769729 
L 63.701153 179.662984 
L 63.807393 179.614086 
L 64.046431 179.503497 
L 64.152671 179.445123 
L 64.320883 179.341355 
L 64.427123 179.29552 
L 64.666162 179.18459 
L 64.772401 179.135719 
L 65.055707 179.025446 
L 65.161946 178.992271 
L 65.312452 178.881981 
L 65.418691 178.805985 
L 65.613464 178.695082 
L 65.719703 178.626519 
L 65.905622 178.516455 
L 66.011862 178.447279 
L 66.259754 178.340958 
L 66.365993 178.291394 
L 66.578472 178.180725 
L 66.684712 178.10005 
L 66.852924 177.99057 
L 66.959164 177.93879 
L 67.189349 177.8288 
L 67.295589 177.74509 
L 67.490361 177.637023 
L 67.596601 177.59314 
L 67.800226 177.484434 
L 67.906466 177.437419 
L 68.154358 177.32646 
L 68.260598 177.266952 
L 68.437663 177.180207 
L 68.543903 177.099624 
L 68.827208 176.997606 
L 68.933448 176.947611 
L 69.163633 176.837457 
L 69.269873 176.7837 
L 69.464645 176.679234 
L 69.570885 176.623077 
L 69.818777 176.513712 
L 69.925016 176.411648 
L 70.102082 176.313689 
L 70.208321 176.234782 
L 70.465067 176.126607 
L 70.571306 176.051562 
L 70.774932 175.95292 
L 70.881172 175.851897 
L 71.058237 175.744918 
L 71.164477 175.655855 
L 71.359249 175.545452 
L 71.465489 175.485489 
L 71.624848 175.377268 
L 71.731087 175.316907 
L 71.908153 175.210113 
L 72.014393 175.14008 
L 72.164899 175.051585 
L 72.271138 174.950669 
L 72.483617 174.846839 
L 72.589857 174.793004 
L 72.802335 174.704544 
L 72.908575 174.615036 
L 73.112201 174.51013 
L 73.21844 174.438819 
L 73.351239 174.352784 
L 73.457479 174.25739 
L 73.696518 174.147949 
L 73.802757 174.113518 
L 73.988676 174.008317 
L 74.094916 173.929577 
L 74.325101 173.820137 
L 74.431341 173.759844 
L 74.608407 173.654873 
L 74.714646 173.573748 
L 74.918272 173.466704 
L 75.024511 173.384759 
L 75.21043 173.274891 
L 75.31667 173.225032 
L 75.467176 173.133475 
L 75.573415 173.061437 
L 75.9364 172.951031 
L 76.04264 172.885672 
L 76.290532 172.776837 
L 76.396771 172.709418 
L 76.58269 172.600214 
L 76.68893 172.550384 
L 76.954529 172.441786 
L 77.060768 172.342612 
L 77.246687 172.236742 
L 77.352927 172.171917 
L 77.512286 172.061399 
L 77.618525 171.99753 
L 77.857564 171.899676 
L 77.963804 171.809303 
L 78.202843 171.702802 
L 78.309082 171.65451 
L 78.495001 171.552572 
L 78.601241 171.506631 
L 78.893399 171.402617 
L 78.999639 171.330877 
L 79.158998 171.22004 
L 79.265237 171.172447 
L 79.495423 171.068409 
L 79.601662 171.008286 
L 79.734462 170.915837 
L 79.840701 170.831895 
L 80.062034 170.722142 
L 80.168273 170.665183 
L 80.345339 170.558033 
L 80.451578 170.501979 
L 80.708324 170.394086 
L 80.814563 170.335816 
L 80.956216 170.228919 
L 81.062455 170.164586 
L 81.37232 170.054862 
L 81.47856 169.984792 
L 81.673332 169.875026 
L 81.779572 169.807564 
L 81.930078 169.698475 
L 82.036317 169.612122 
L 82.248796 169.507346 
L 82.355036 169.447887 
L 82.567515 169.340745 
L 82.673754 169.255792 
L 82.833113 169.149514 
L 82.939353 169.070755 
L 83.178392 168.962153 
L 83.284631 168.886976 
L 83.435137 168.779571 
L 83.541377 168.722419 
L 83.753856 168.614634 
L 83.860095 168.556268 
L 84.028308 168.446027 
L 84.134547 168.365778 
L 84.311613 168.257357 
L 84.417852 168.174641 
L 84.577212 168.076812 
L 84.683451 167.969679 
L 84.81625 167.865681 
L 84.92249 167.762199 
L 85.143822 167.65127 
L 85.250062 167.607323 
L 85.444834 167.50415 
L 85.551073 167.382326 
L 85.728139 167.274133 
L 85.834379 167.2005 
L 86.064564 167.090066 
L 86.170804 167.034316 
L 86.400989 166.924053 
L 86.507229 166.801385 
L 86.675441 166.695328 
L 86.781681 166.613257 
L 86.99416 166.508178 
L 87.100399 166.434805 
L 87.357145 166.323894 
L 87.463384 166.266306 
L 87.746689 166.161601 
L 87.852929 166.057894 
L 88.021141 165.947962 
L 88.127381 165.8832 
L 88.322153 165.776659 
L 88.428393 165.734685 
L 88.711698 165.625422 
L 88.817938 165.560221 
L 89.003857 165.45138 
L 89.110096 165.409356 
L 89.357988 165.300348 
L 89.464228 165.237959 
L 89.694413 165.127529 
L 89.800653 165.049289 
L 90.075105 164.943008 
L 90.181344 164.878001 
L 90.27873 164.776556 
L 90.38497 164.691742 
L 90.588596 164.584808 
L 90.694835 164.523116 
L 90.925021 164.417157 
L 91.03126 164.365754 
L 91.199473 164.255174 
L 91.305712 164.174588 
L 91.518191 164.070065 
L 91.624431 164.007451 
L 91.81035 163.897909 
L 91.916589 163.834857 
L 92.075948 163.726426 
L 92.182188 163.68211 
L 92.332694 163.572752 
L 92.438933 163.503064 
L 92.669119 163.397949 
L 92.775358 163.314297 
L 92.943571 163.203842 
L 93.04981 163.135509 
L 93.271143 163.02479 
L 93.377382 162.981372 
L 93.545595 162.87364 
L 93.651834 162.793874 
L 93.908579 162.683664 
L 94.014819 162.634213 
L 94.174178 162.527681 
L 94.280418 162.445148 
L 94.484043 162.339887 
L 94.590283 162.238634 
L 94.811615 162.128566 
L 94.917855 162.062385 
L 95.1746 161.953645 
L 95.280839 161.867974 
L 95.528732 161.760335 
L 95.634971 161.720308 
L 95.803184 161.618543 
L 95.909423 161.540661 
L 96.148462 161.433419 
L 96.254701 161.368902 
L 96.46718 161.260071 
L 96.57342 161.207354 
L 96.768192 161.102546 
L 96.874432 161.034796 
L 97.024938 160.929433 
L 97.131177 160.845926 
L 97.27283 160.74073 
L 97.379069 160.68237 
L 97.476455 160.584441 
L 97.582695 160.500125 
L 97.706641 160.389162 
L 97.81288 160.303667 
L 98.025359 160.206827 
L 98.131599 160.110941 
L 98.264398 160.006207 
L 98.370638 159.90731 
L 98.574263 159.800914 
L 98.680503 159.7302 
L 98.884129 159.627308 
L 98.990368 159.575661 
L 99.176287 159.46756 
L 99.282527 159.39112 
L 99.486152 159.280704 
L 99.592392 159.234757 
L 99.804871 159.131624 
L 99.91111 159.042112 
L 100.132443 158.932705 
L 100.238682 158.894277 
L 100.424601 158.783282 
L 100.530841 158.712027 
L 100.814146 158.601716 
L 100.920385 158.537352 
L 101.062038 158.430464 
L 101.168277 158.371777 
L 101.318783 158.272878 
L 101.425023 158.208259 
L 101.593235 158.101387 
L 101.699475 158.024541 
L 101.894247 157.914129 
L 102.000487 157.838984 
L 102.159846 157.753117 
L 102.266085 157.645796 
L 102.505124 157.535169 
L 102.611364 157.462994 
L 102.76187 157.353417 
L 102.868109 157.27332 
L 103.071735 157.16451 
L 103.177974 157.072917 
L 103.390453 156.978377 
L 103.496693 156.905877 
L 103.700319 156.79502 
L 103.806558 156.691293 
L 103.957064 156.585008 
L 104.063303 156.532758 
L 104.302342 156.423079 
L 104.408582 156.327292 
L 104.656474 156.221552 
L 104.762713 156.161193 
L 104.939779 156.055801 
L 105.046019 155.964053 
L 105.223084 155.854649 
L 105.329324 155.80115 
L 105.603776 155.693223 
L 105.710015 155.631555 
L 105.949054 155.520562 
L 106.055294 155.45907 
L 106.214653 155.354452 
L 106.320892 155.301946 
L 106.568785 155.190934 
L 106.675024 155.141462 
L 106.931769 155.039505 
L 107.038009 154.963479 
L 107.241635 154.854589 
L 107.347874 154.743234 
L 107.516087 154.632673 
L 107.622326 154.573485 
L 107.808245 154.468322 
L 107.914485 154.368464 
L 108.109257 154.258609 
L 108.215497 154.187034 
L 108.410269 154.080307 
L 108.516508 154.016135 
L 108.702428 153.908272 
L 108.808667 153.827397 
L 108.97688 153.716804 
L 109.083119 153.654065 
L 109.260185 153.548683 
L 109.366424 153.46508 
L 109.59661 153.356282 
L 109.702849 153.267699 
L 109.879915 153.160952 
L 109.986155 153.101647 
L 110.16322 153.005588 
L 110.26946 152.938353 
L 110.464232 152.832371 
L 110.570472 152.786337 
L 110.765244 152.676682 
L 110.871484 152.622614 
L 110.986576 152.525506 
L 111.092816 152.467962 
L 111.314148 152.357403 
L 111.420388 152.293224 
L 111.66828 152.183212 
L 111.774519 152.111966 
L 111.933878 152.002964 
L 112.040118 151.94993 
L 112.137504 151.852736 
L 112.243744 151.758685 
L 112.518196 151.651312 
L 112.624435 151.573195 
L 112.854621 151.463796 
L 112.96086 151.360363 
L 113.288432 151.250433 
L 113.394671 151.101038 
L 113.509764 151.000139 
L 113.616004 150.942944 
L 113.846189 150.837501 
L 113.952429 150.748119 
L 114.226881 150.639078 
L 114.33312 150.569516 
L 114.536746 150.461547 
L 114.642985 150.384352 
L 114.864318 150.282392 
L 114.970557 150.214885 
L 115.13877 150.104567 
L 115.245009 150.03145 
L 115.368955 149.926383 
L 115.475195 149.844162 
L 115.661114 149.73942 
L 115.767353 149.674971 
L 115.988685 149.567896 
L 116.094925 149.500172 
L 116.298551 149.39089 
L 116.40479 149.320671 
L 116.599562 149.214588 
L 116.705802 149.175502 
L 116.944841 149.06792 
L 117.05108 148.969716 
L 117.254706 148.863571 
L 117.360945 148.77599 
L 117.538011 148.666776 
L 117.644251 148.600475 
L 117.85673 148.498303 
L 117.962969 148.409206 
L 118.202008 148.299165 
L 118.308247 148.211231 
L 118.538433 148.100616 
L 118.644672 148.048841 
L 118.874858 147.946453 
L 118.981098 147.852353 
L 119.14931 147.751648 
L 119.25555 147.646323 
L 119.432615 147.544014 
L 119.538855 147.482787 
L 119.751334 147.373448 
L 119.857573 147.326958 
L 120.008079 147.2367 
L 120.114319 147.160145 
L 120.335651 147.053437 
L 120.44189 146.94314 
L 120.618956 146.833175 
L 120.725196 146.770586 
L 120.999648 146.663048 
L 121.105887 146.601835 
L 121.282953 146.493243 
L 121.389192 146.400198 
L 121.583965 146.289624 
L 121.690204 146.220438 
L 121.89383 146.117614 
L 122.000069 146.029819 
L 122.141722 145.945215 
L 122.247962 145.829521 
L 122.504707 145.721451 
L 122.610947 145.633851 
L 122.849985 145.531373 
L 122.956225 145.47711 
L 123.150997 145.367869 
L 123.257237 145.281314 
L 123.434303 145.175715 
L 123.540542 145.115596 
L 123.735314 145.004789 
L 123.841554 144.919435 
L 124.027473 144.808698 
L 124.133712 144.769088 
L 124.266512 144.66378 
L 124.372751 144.610982 
L 124.656057 144.501551 
L 124.762296 144.429867 
L 124.903949 144.318978 
L 125.010188 144.256751 
L 125.134134 144.151503 
L 125.240374 144.096074 
L 125.426293 143.989054 
L 125.532532 143.849539 
L 125.727305 143.741225 
L 125.833544 143.652988 
L 126.001757 143.542799 
L 126.107996 143.452661 
L 126.302769 143.345216 
L 126.409008 143.233743 
L 126.648047 143.124623 
L 126.754286 143.073809 
L 126.931352 142.967552 
L 127.037592 142.869451 
L 127.232364 142.760501 
L 127.338604 142.67703 
L 127.497963 142.574662 
L 127.604202 142.466175 
L 127.807828 142.360791 
L 127.914067 142.284003 
L 128.117693 142.176904 
L 128.223933 142.130414 
L 128.409852 142.023211 
L 128.516091 141.965192 
L 128.684304 141.854679 
L 128.790543 141.78973 
L 129.011875 141.68323 
L 129.118115 141.619402 
L 129.357154 141.513783 
L 129.463393 141.432093 
L 129.675872 141.326227 
L 129.782112 141.239109 
L 130.030004 141.128959 
L 130.136243 141.032023 
L 130.286749 140.921246 
L 130.392989 140.853955 
L 130.570054 140.751137 
L 130.676294 140.699487 
L 130.817947 140.603315 
L 130.924186 140.5139 
L 131.083545 140.40665 
L 131.189785 140.365294 
L 131.340291 140.256944 
L 131.44653 140.168063 
L 131.667862 140.058697 
L 131.774102 140.004363 
L 131.995434 139.895265 
L 132.101674 139.7687 
L 132.22562 139.676767 
L 132.331859 139.609618 
L 132.526632 139.5 
L 132.632871 139.392111 
L 132.809937 139.282657 
L 132.916176 139.224714 
L 133.084389 139.146741 
L 133.190628 139.057507 
L 133.394254 138.957362 
L 133.500494 138.87642 
L 133.704119 138.7784 
L 133.810359 138.68129 
L 134.093664 138.574676 
L 134.199903 138.4862 
L 134.368116 138.379462 
L 134.474355 138.317034 
L 134.624861 138.215589 
L 134.731101 138.119405 
L 134.94358 138.017432 
L 135.049819 137.935752 
L 135.200325 137.831713 
L 135.306565 137.751649 
L 135.501337 137.642854 
L 135.607577 137.574803 
L 135.855469 137.464724 
L 135.961708 137.353101 
L 136.103361 137.245785 
L 136.2096 137.182666 
L 136.457492 137.071709 
L 136.563732 137.027875 
L 136.802771 136.917416 
L 136.90901 136.86129 
L 137.183462 136.756328 
L 137.289702 136.654849 
L 137.457914 136.548046 
L 137.564154 136.462961 
L 137.696953 136.354758 
L 137.803193 136.299647 
L 137.918285 136.190508 
L 138.024525 136.108579 
L 138.175031 135.999914 
L 138.28127 135.917448 
L 138.449483 135.814672 
L 138.555722 135.744976 
L 138.723935 135.645812 
L 138.830174 135.589528 
L 139.016093 135.48699 
L 139.122333 135.378357 
L 139.317105 135.287389 
L 139.423345 135.23013 
L 139.573851 135.134891 
L 139.68009 135.071934 
L 139.892569 134.964298 
L 139.998809 134.863204 
L 140.113901 134.756717 
L 140.220141 134.670516 
L 140.32638 134.559488 
L 140.43262 134.476425 
L 140.662805 134.366361 
L 140.769045 134.277714 
L 140.954964 134.169589 
L 141.061203 134.134701 
L 141.229416 134.033156 
L 141.335655 133.944595 
L 141.512721 133.836818 
L 141.618961 133.755721 
L 141.849146 133.648568 
L 141.955386 133.565532 
L 142.088185 133.455064 
L 142.194425 133.383227 
L 142.389197 133.274697 
L 142.495436 133.208033 
L 142.690209 133.100252 
L 142.796448 132.995863 
L 143.000074 132.888433 
L 143.106313 132.823097 
L 143.247966 132.728499 
L 143.354206 132.639747 
L 143.593244 132.532108 
L 143.699484 132.386353 
L 143.90311 132.281438 
L 144.009349 132.187737 
L 144.168708 132.100446 
L 144.274948 131.980988 
L 144.44316 131.872166 
L 144.5494 131.76145 
L 144.770732 131.650803 
L 144.876972 131.582786 
L 145.027477 131.473836 
L 145.133717 131.408929 
L 145.27537 131.305492 
L 145.381609 131.201412 
L 145.532115 131.097011 
L 145.638355 131.014715 
L 145.753447 130.904352 
L 145.859687 130.81083 
L 146.001339 130.702917 
L 146.107579 130.597176 
L 146.275791 130.497144 
L 146.382031 130.410926 
L 146.54139 130.300833 
L 146.64763 130.242691 
L 146.833549 130.137208 
L 146.939788 130.03983 
L 147.099147 129.929085 
L 147.205387 129.818092 
L 147.417866 129.707293 
L 147.524105 129.647896 
L 147.639198 129.540239 
L 147.745438 129.448146 
L 147.895944 129.341635 
L 148.002183 129.255119 
L 148.179249 129.148401 
L 148.285488 129.046544 
L 148.382874 128.960053 
L 148.489114 128.864567 
L 148.66618 128.753863 
L 148.772419 128.655501 
L 148.905219 128.545616 
L 149.011458 128.482001 
L 149.223937 128.377877 
L 149.330177 128.309447 
L 149.586922 128.202799 
L 149.693161 128.130675 
L 149.808254 128.030345 
L 149.914494 127.94031 
L 150.09156 127.830257 
L 150.197799 127.740281 
L 150.357158 127.63347 
L 150.463398 127.527929 
L 150.596197 127.428176 
L 150.702437 127.327695 
L 150.879502 127.222413 
L 150.985742 127.141685 
L 151.233634 127.034413 
L 151.339873 126.95136 
L 151.516939 126.847799 
L 151.623179 126.770244 
L 151.755978 126.661853 
L 151.862218 126.552662 
L 152.05699 126.443723 
L 152.163229 126.357667 
L 152.313735 126.248135 
L 152.419975 126.178355 
L 152.65016 126.072926 
L 152.7564 126.004561 
L 152.915759 125.918696 
L 153.021999 125.809362 
L 153.154798 125.706522 
L 153.261037 125.58385 
L 153.446957 125.473101 
L 153.553196 125.412692 
L 153.730262 125.30389 
L 153.836501 125.231881 
L 153.978154 125.126324 
L 154.084393 125.032691 
L 154.226046 124.947568 
L 154.332286 124.779511 
L 154.465085 124.67108 
L 154.571324 124.577305 
L 154.712977 124.4797 
L 154.819217 124.341045 
L 154.943163 124.233512 
L 155.049402 124.13099 
L 155.155642 124.027558 
L 155.261881 123.909758 
L 155.42124 123.802723 
L 155.52748 123.670955 
L 155.731105 123.571406 
L 155.837345 123.488646 
L 155.961291 123.378251 
L 156.06753 123.229825 
L 156.209183 123.132086 
L 156.315423 123.02726 
L 156.483635 122.924003 
L 156.589875 122.816744 
L 156.704967 122.734579 
L 156.811207 122.596734 
L 156.961713 122.493269 
L 157.067952 122.400272 
L 157.253871 122.290763 
L 157.360111 122.182943 
L 157.563736 122.08002 
L 157.669976 121.957012 
L 157.829335 121.858247 
L 157.935575 121.761567 
L 158.086081 121.656584 
L 158.19232 121.567607 
L 158.387092 121.472971 
L 158.493332 121.339382 
L 158.617278 121.232058 
L 158.723518 121.138578 
L 158.81205 121.033607 
L 158.91829 120.956539 
L 159.059943 120.850283 
L 159.166182 120.794399 
L 159.396368 120.68485 
L 159.502607 120.579705 
L 159.697379 120.476296 
L 159.803619 120.397075 
L 159.883299 120.290078 
L 159.989538 120.226768 
L 160.157751 120.128277 
L 160.26399 120.039032 
L 160.441056 119.930213 
L 160.547295 119.858052 
L 160.653535 119.777582 
L 160.759774 119.618937 
L 160.981107 119.508122 
L 161.087346 119.429014 
L 161.237852 119.320269 
L 161.344091 119.24217 
L 161.468037 119.131344 
L 161.574277 119.075276 
L 161.698223 118.967281 
L 161.804463 118.863303 
L 161.981528 118.757262 
L 162.087768 118.685789 
L 162.22942 118.57891 
L 162.33566 118.453408 
L 162.441899 118.343492 
L 162.548139 118.299969 
L 162.645525 118.196262 
L 162.751765 118.099333 
L 162.92883 117.99416 
L 163.03507 117.913103 
L 163.159016 117.804976 
L 163.265255 117.723391 
L 163.424615 117.620756 
L 163.530854 117.552408 
L 163.73448 117.45002 
L 163.840719 117.335642 
L 164.000079 117.23208 
L 164.106318 117.092222 
L 164.274531 116.986591 
L 164.38077 116.909609 
L 164.513569 116.805073 
L 164.619809 116.699254 
L 164.743755 116.591989 
L 164.849994 116.526395 
L 165.009354 116.422145 
L 165.115593 116.350511 
L 165.328072 116.241465 
L 165.434312 116.156824 
L 165.602524 116.052852 
L 165.708764 115.930535 
L 165.868123 115.824714 
L 165.974362 115.703822 
L 166.142575 115.613073 
L 166.248814 115.494411 
L 166.417027 115.402329 
L 166.523266 115.289026 
L 166.744598 115.17796 
L 166.850838 115.064756 
L 167.04561 114.960344 
L 167.15185 114.863004 
L 167.302356 114.766034 
L 167.408595 114.615199 
L 167.585661 114.50515 
L 167.691901 114.412832 
L 167.833553 114.302628 
L 167.939793 114.240172 
L 168.028326 114.145146 
L 168.134565 114.046544 
L 168.258511 113.94358 
L 168.364751 113.866117 
L 168.541816 113.755539 
L 168.648056 113.649137 
L 168.869388 113.539678 
L 168.975628 113.479243 
L 169.11728 113.370533 
L 169.22352 113.228678 
L 169.365172 113.125691 
L 169.471412 113.003249 
L 169.613065 112.900446 
L 169.719304 112.8208 
L 169.887517 112.712612 
L 169.993756 112.60537 
L 170.135409 112.514016 
L 170.241648 112.365528 
L 170.365594 112.259139 
L 170.471834 112.190867 
L 170.62234 112.080176 
L 170.728579 111.980143 
L 170.861378 111.877093 
L 170.967618 111.758288 
L 171.144684 111.6515 
L 171.250923 111.560464 
L 171.383723 111.452033 
L 171.489962 111.342102 
L 171.702441 111.232974 
L 171.808681 111.12107 
L 171.906067 111.021186 
L 172.012306 110.870769 
L 172.189372 110.76577 
L 172.295611 110.651941 
L 172.401851 110.55351 
L 172.50809 110.39872 
L 172.632037 110.296943 
L 172.738276 110.180454 
L 172.879929 110.069938 
L 172.986168 109.987064 
L 173.154381 109.886351 
L 173.26062 109.787923 
L 173.375713 109.6838 
L 173.481952 109.573088 
L 173.543925 109.47507 
L 173.650165 109.3743 
L 173.756404 109.265027 
L 173.862644 109.18843 
L 174.022003 109.086429 
L 174.128243 109.003582 
L 174.252189 108.897012 
L 174.358428 108.796239 
L 174.508934 108.689239 
L 174.615174 108.576428 
L 174.694853 108.477366 
L 174.801093 108.376157 
L 174.978158 108.267967 
L 175.084398 108.16263 
L 175.217197 108.077727 
L 175.323437 107.959274 
L 175.465089 107.851964 
L 175.571329 107.770076 
L 175.712982 107.675749 
L 175.819221 107.576358 
L 175.95202 107.465545 
L 176.05826 107.38575 
L 176.217619 107.275325 
L 176.323859 107.194328 
L 176.474364 107.086236 
L 176.580604 106.990986 
L 176.713403 106.887937 
L 176.819643 106.798576 
L 176.943589 106.706991 
L 177.049828 106.537073 
L 177.191481 106.436038 
L 177.29772 106.340838 
L 177.448226 106.234893 
L 177.554466 106.133347 
L 177.687265 106.031989 
L 177.793505 105.946172 
L 177.890891 105.849508 
L 177.99713 105.731661 
L 178.15649 105.622825 
L 178.262729 105.480675 
L 178.422088 105.376156 
L 178.528328 105.261401 
L 178.687687 105.152974 
L 178.793927 105.015884 
L 178.900166 104.910336 
L 179.006406 104.806042 
L 179.183471 104.703574 
L 179.289711 104.553678 
L 179.457923 104.446899 
L 179.564163 104.327482 
L 179.652696 104.216662 
L 179.758935 104.103736 
L 179.847468 103.999328 
L 179.953708 103.877894 
L 180.077654 103.778014 
L 180.183893 103.626392 
L 180.334399 103.522426 
L 180.440639 103.408062 
L 180.573438 103.299011 
L 180.679677 103.192409 
L 180.777064 103.089445 
L 180.883303 102.932624 
L 181.033809 102.833268 
L 181.140048 102.677796 
L 181.237435 102.581885 
L 181.343674 102.42786 
L 181.46762 102.319206 
L 181.57386 102.17854 
L 181.671246 102.069897 
L 181.777485 101.928411 
L 181.936845 101.819397 
L 182.043084 101.748423 
L 182.14047 101.645539 
L 182.24671 101.529184 
L 182.344096 101.440678 
L 182.450335 101.257665 
L 182.556575 101.153992 
L 182.662814 100.986675 
L 182.742494 100.879527 
L 182.848733 100.747036 
L 182.990386 100.666003 
L 183.096626 100.525617 
L 183.202865 100.455799 
L 183.309105 100.289082 
L 183.48617 100.187897 
L 183.59241 100.059091 
L 183.716356 99.953523 
L 183.822595 99.857365 
L 183.919982 99.765124 
L 184.026221 99.638103 
L 184.132461 99.536792 
L 184.2387 99.390524 
L 184.353793 99.296416 
L 184.460032 99.212253 
L 184.548565 99.101331 
L 184.654805 98.911655 
L 184.769897 98.802656 
L 184.876137 98.651822 
L 184.982376 98.543421 
L 185.088616 98.414383 
L 185.212562 98.309924 
L 185.318801 98.174671 
L 185.425041 98.081414 
L 185.53128 97.949576 
L 185.619813 97.840029 
L 185.726053 97.689183 
L 185.841146 97.584403 
L 185.947385 97.460728 
L 186.106744 97.350425 
L 186.212984 97.237151 
L 186.328077 97.141308 
L 186.434316 96.988418 
L 186.584822 96.883091 
L 186.691061 96.726477 
L 186.868127 96.620958 
L 186.974367 96.491963 
L 187.071753 96.383614 
L 187.177992 96.216349 
L 187.319645 96.132288 
L 187.425885 95.991742 
L 187.549831 95.887946 
L 187.65607 95.775908 
L 187.73575 95.679879 
L 187.841989 95.52149 
L 187.930522 95.417386 
L 188.036762 95.178912 
L 188.116441 95.069104 
L 188.222681 94.892517 
L 188.399746 94.792535 
L 188.505986 94.602934 
L 188.647639 94.493264 
L 188.753878 94.372036 
L 188.851264 94.264256 
L 188.957504 94.191576 
L 189.090303 94.087133 
L 189.196543 93.97479 
L 189.311635 93.867395 
L 189.417875 93.742461 
L 189.559528 93.636814 
L 189.665767 93.446189 
L 189.816273 93.33531 
L 189.922512 93.184194 
L 190.011045 93.073749 
L 190.117285 92.942759 
L 190.223524 92.831661 
L 190.329764 92.699433 
L 190.409443 92.595808 
L 190.515683 92.405168 
L 190.648482 92.317293 
L 190.754722 92.171345 
L 190.852108 92.094261 
L 190.958347 91.980005 
L 191.029174 91.875216 
L 191.135413 91.727645 
L 191.206239 91.620897 
L 191.312479 91.514552 
L 191.383305 91.413925 
L 191.489545 91.116904 
L 191.560371 91.038221 
L 191.666611 90.854206 
L 191.755143 90.747415 
L 191.861383 90.638298 
L 191.985329 90.529207 
L 192.091569 90.411417 
L 192.197808 90.306707 
L 192.304047 90.179705 
L 192.410287 90.080485 
L 192.516526 89.931175 
L 192.560793 89.862802 
L 192.667032 89.651816 
L 192.799832 89.544429 
L 192.906071 89.390392 
L 192.985751 89.293721 
L 193.09199 89.176839 
L 193.260203 89.08602 
L 193.366442 88.880564 
L 193.446122 88.775516 
L 193.552361 88.600444 
L 193.587775 88.502538 
L 193.694014 88.3587 
L 193.809107 88.254063 
L 193.915346 88.0927 
L 194.021586 87.984203 
L 194.127825 87.868966 
L 194.180945 87.785144 
L 194.287185 87.581956 
L 194.366864 87.471611 
L 194.473104 87.32856 
L 194.561637 87.242067 
L 194.667876 87.062333 
L 194.774115 86.951682 
L 194.880355 86.817527 
L 194.951181 86.726905 
L 195.057421 86.50844 
L 195.154807 86.398442 
L 195.261046 86.232185 
L 195.358433 86.128751 
L 195.464672 85.913133 
L 195.544352 85.804989 
L 195.650591 85.6468 
L 195.747977 85.537339 
L 195.854217 85.42047 
L 195.951603 85.33191 
L 196.057843 85.156276 
L 196.146375 85.050201 
L 196.252615 84.85975 
L 196.394268 84.754191 
L 196.500507 84.610127 
L 196.606747 84.510683 
L 196.712986 84.290471 
L 196.810372 84.183119 
L 196.916612 84.067889 
L 196.943172 84.014047 
L 197.049411 83.799533 
L 197.18221 83.692323 
L 197.28845 83.51366 
L 197.36813 83.416252 
L 197.474369 83.256483 
L 197.571755 83.156687 
L 197.677995 83.071589 
L 197.837354 82.968518 
L 197.943593 82.745663 
L 198.058686 82.637584 
L 198.164926 82.542837 
L 198.253459 82.432831 
L 198.359698 82.347396 
L 198.403964 82.24687 
L 198.510204 82.108436 
L 198.545617 82.004744 
L 198.651857 81.80668 
L 198.758096 81.698707 
L 198.864336 81.531742 
L 198.979428 81.425073 
L 199.085668 81.251123 
L 199.165347 81.143536 
L 199.271587 80.979986 
L 199.324707 80.870114 
L 199.430946 80.690723 
L 199.492919 80.629103 
L 199.599159 80.42368 
L 199.687692 80.327399 
L 199.793931 80.13422 
L 199.864757 80.026326 
L 199.970997 79.907635 
L 200.068383 79.804063 
L 200.174623 79.705655 
L 200.254302 79.598473 
L 200.360542 79.429998 
L 200.431368 79.321513 
L 200.537607 79.165096 
L 200.608434 79.071782 
L 200.714673 78.844177 
L 200.820913 78.739019 
L 200.927152 78.513586 
L 201.006832 78.413872 
L 201.113071 78.191305 
L 201.166191 78.080462 
L 201.272431 77.923943 
L 201.343257 77.818335 
L 201.449496 77.551882 
L 201.529176 77.453784 
L 201.635415 77.200296 
L 201.723948 77.089667 
L 201.830188 76.894095 
L 201.883308 76.80239 
L 201.989547 76.52567 
L 202.095787 76.417853 
L 202.202026 76.283561 
L 202.281706 76.183168 
L 202.387945 76.026711 
L 202.467625 75.923902 
L 202.573864 75.735947 
L 202.600424 75.67482 
L 202.706664 75.36734 
L 202.768637 75.26404 
L 202.874876 75.083145 
L 202.919143 74.98289 
L 203.025382 74.621204 
L 203.105062 74.534424 
L 203.211301 74.34281 
L 203.264421 74.265904 
L 203.37066 73.957448 
L 203.468047 73.857751 
L 203.574286 73.505586 
L 203.609699 73.481935 
L 203.715939 73.220847 
L 203.769058 73.112947 
L 203.875298 72.82719 
L 203.928418 72.741585 
L 204.034657 72.436463 
L 204.12319 72.33244 
L 204.229429 72.105757 
L 204.300256 72.007871 
L 204.406495 71.65655 
L 204.468468 71.596184 
L 204.574708 71.277778 
L 204.618974 71.187407 
L 204.725214 70.879155 
L 204.831453 70.798289 
L 204.937693 70.478052 
L 205.017372 70.390694 
L 205.123612 70.17241 
L 205.203291 70.072251 
L 205.309531 69.822892 
L 205.362651 69.719152 
L 205.46889 69.562186 
L 205.539716 69.451319 
L 205.645956 69.314882 
L 205.707929 69.226389 
L 205.814168 68.969529 
L 205.884995 68.887828 
L 205.991234 68.4758 
L 206.053207 68.36741 
L 206.159447 68.219821 
L 206.212566 68.112828 
L 206.318806 67.804792 
L 206.363072 67.705575 
L 206.469312 67.520084 
L 206.504725 67.4251 
L 206.610965 67.110619 
L 206.690644 67.023781 
L 206.796884 66.746333 
L 206.832297 66.663992 
L 206.938536 66.361114 
L 206.982803 66.270142 
L 207.089042 66.01123 
L 207.142162 65.914621 
L 207.248401 65.682014 
L 207.328081 65.584356 
L 207.434321 65.250868 
L 207.469734 65.15783 
L 207.575973 64.885491 
L 207.611386 64.807439 
L 207.717626 64.494388 
L 207.744186 64.442605 
L 207.850425 64.080458 
L 207.938958 63.969902 
L 208.045198 63.681842 
L 208.054051 63.681842 
L 208.16029 63.189163 
L 208.222263 63.082392 
L 208.328503 62.598532 
L 208.408182 62.502819 
L 208.514422 62.0698 
L 208.540982 61.985494 
L 208.647221 61.633258 
L 208.700341 61.55877 
L 208.806581 61.265887 
L 208.868554 61.171999 
L 208.974793 60.856115 
L 209.027913 60.75365 
L 209.134152 60.366629 
L 209.213832 60.258676 
L 209.320071 59.761887 
L 209.390898 59.66234 
L 209.497137 58.964757 
L 209.523697 58.867877 
L 209.629937 58.440229 
L 209.69191 58.330675 
L 209.798149 58.139264 
L 209.842416 58.039739 
L 209.948655 57.680272 
L 210.028335 57.585097 
L 210.134574 57.282091 
L 210.178841 57.227848 
L 210.28508 56.901131 
L 210.329346 56.816138 
L 210.435586 56.500162 
L 210.532972 56.399291 
L 210.639212 56.19341 
L 210.683478 56.092954 
L 210.789718 55.656474 
L 210.816277 55.563851 
L 210.922517 55.192412 
L 210.95793 55.111152 
L 211.06417 54.646167 
L 211.090729 54.593217 
L 211.196969 54.084459 
L 211.250089 53.981035 
L 211.356328 53.489565 
L 211.382888 53.388601 
L 211.489127 53.157438 
L 211.533394 53.05718 
L 211.639633 52.604256 
L 211.701606 52.497441 
L 211.807846 52.131993 
L 211.843259 52.035307 
L 211.949499 51.632241 
L 211.993765 51.52161 
L 212.100005 50.893745 
L 212.153124 50.842921 
L 212.259364 50.37286 
L 212.294777 50.278475 
L 212.401016 49.946066 
L 212.427576 49.874489 
L 212.533816 49.438087 
L 212.542669 49.438087 
L 212.648909 49.097312 
L 212.666615 49.051371 
L 212.772855 48.687857 
L 212.817121 48.597061 
L 212.923361 48.241552 
L 212.941067 48.223764 
L 213.047307 47.580776 
L 213.073866 47.530681 
L 213.180106 46.971342 
L 213.215519 46.863894 
L 213.321759 46.501436 
L 213.348318 46.435894 
L 213.454558 45.772955 
L 213.516531 45.669658 
L 213.62277 45.330035 
L 213.64933 45.245792 
L 213.75557 44.846501 
L 213.790983 44.739913 
L 213.897222 44.406097 
L 213.923782 44.320771 
L 214.030022 43.757361 
L 214.056582 43.662812 
L 214.162821 43.118855 
L 214.189381 43.010361 
L 214.295621 42.488534 
L 214.32218 42.415797 
L 214.42842 41.873632 
L 214.463833 41.803564 
L 214.570073 41.270315 
L 214.596632 41.163639 
L 214.702872 40.674029 
L 214.738285 40.613396 
L 214.844525 40.222852 
L 214.871084 40.133105 
L 214.977324 39.609247 
L 215.02159 39.506924 
L 215.12783 38.980336 
L 215.163243 38.888167 
L 215.269482 38.221782 
L 215.322602 38.12987 
L 215.428842 37.891517 
L 215.446548 37.861361 
L 215.552788 36.89059 
L 215.588201 36.809369 
L 215.69444 36.146639 
L 215.712147 36.124908 
L 215.818386 35.733539 
L 215.862653 35.651925 
L 215.968892 35.093459 
L 215.995452 35.025521 
L 216.101692 34.287452 
L 216.119398 34.198877 
L 216.225638 33.590728 
L 216.261051 33.549367 
L 216.36729 32.718291 
L 216.376144 32.718291 
L 216.482383 31.951773 
L 216.508943 31.893205 
L 216.615183 31.08497 
L 216.659449 30.979035 
L 216.765688 30.39122 
L 216.809955 30.306482 
L 216.916194 29.597842 
L 216.925048 29.597842 
L 217.031287 28.637166 
L 217.04014 28.637166 
L 217.14638 27.87738 
L 217.164087 27.766978 
L 217.270326 27.301211 
L 217.288033 27.247885 
L 217.394272 26.032031 
L 217.420832 25.948105 
L 217.527071 25.18293 
L 217.544778 25.07804 
L 217.651018 24.258446 
L 217.659871 24.258446 
L 217.76611 22.95619 
L 217.783817 22.882768 
L 217.890056 21.823836 
L 217.916616 21.735128 
L 218.022856 20.582996 
L 218.058269 20.474769 
L 218.164508 19.592746 
L 218.191068 19.560259 
L 218.297308 18.575828 
L 218.315014 18.535391 
L 218.421254 17.485353 
L 218.430107 17.485353 
L 218.536347 16.683841 
L 218.562906 16.6598 
L 218.669146 15.663405 
L 218.677999 15.663405 
L 218.784239 14.849999 
L 218.810799 14.789049 
L 218.917038 13.677772 
L 218.934745 13.595032 
L 219.040984 12.805102 
L 219.058691 12.708814 
L 219.16493 12.224057 
L 219.182637 12.185047 
L 219.288876 11.457751 
L 219.386262 11.367457 
L 219.492502 11.21217 
L 219.616448 11.133465 
L 219.625301 2.222918 
L 219.625301 2.222918 
" clip-path="url(#p4135353c8c)" style="fill: none; stroke-dasharray: 7.5,1.5; stroke-dashoffset: 0; stroke: #ac7726; stroke-width: 1.5"/>
   </g>
   <g id="patch_3">
    <path d="M 43.78125 186.84327 
L 43.78125 10.999219 
" style="fill: none; stroke: #000000; stroke-width: 0.8; stroke-linejoin: miter; stroke-linecap: square"/>
   </g>
   <g id="patch_4">
    <path d="M 219.625301 186.84327 
L 219.625301 10.999219 
" style="fill: none; stroke: #000000; stroke-width: 0.8; stroke-linejoin: miter; stroke-linecap: square"/>
   </g>
   <g id="patch_5">
    <path d="M 43.78125 186.84327 
L 219.625301 186.84327 
" style="fill: none; stroke: #000000; stroke-width: 0.8; stroke-linejoin: miter; stroke-linecap: square"/>
   </g>
   <g id="patch_6">
    <path d="M 43.78125 10.999219 
L 219.625301 10.999219 
" style="fill: none; stroke: #000000; stroke-width: 0.8; stroke-linejoin: miter; stroke-linecap: square"/>
   </g>
   <g id="legend_1">
    <g id="patch_7">
     <path d="M 50.78125 48.355469 
L 127.757812 48.355469 
Q 129.757812 48.355469 129.757812 46.355469 
L 129.757812 17.999219 
Q 129.757812 15.999219 127.757812 15.999219 
L 50.78125 15.999219 
Q 48.78125 15.999219 48.78125 17.999219 
L 48.78125 46.355469 
Q 48.78125 48.355469 50.78125 48.355469 
z
" style="fill: #ffffff; opacity: 0.8; stroke: #cccccc; stroke-linejoin: miter"/>
    </g>
    <g id="line2d_15">
     <path d="M 52.78125 24.097656 
L 62.78125 24.097656 
L 62.78125 24.097656 
L 72.78125 24.097656 
L 72.78125 24.097656 
" style="fill: none; stroke: #67c7d5; stroke-width: 1.5; stroke-linecap: square"/>
    </g>
    <g id="text_15">
     <!-- ATL09 -->
     <g transform="translate(80.78125 27.597656) scale(0.1 -0.1)">
      <defs>
       <path id="DejaVuSans-41" d="M 2188 4044 
L 1331 1722 
L 3047 1722 
L 2188 4044 
z
M 1831 4666 
L 2547 4666 
L 4325 0 
L 3669 0 
L 3244 1197 
L 1141 1197 
L 716 0 
L 50 0 
L 1831 4666 
z
" transform="scale(0.015625)"/>
       <path id="DejaVuSans-54" d="M -19 4666 
L 3928 4666 
L 3928 4134 
L 2272 4134 
L 2272 0 
L 1638 0 
L 1638 4134 
L -19 4134 
L -19 4666 
z
" transform="scale(0.015625)"/>
       <path id="DejaVuSans-4c" d="M 628 4666 
L 1259 4666 
L 1259 531 
L 3531 531 
L 3531 0 
L 628 0 
L 628 4666 
z
" transform="scale(0.015625)"/>
       <path id="DejaVuSans-39" d="M 703 97 
L 703 672 
Q 941 559 1184 500 
Q 1428 441 1663 441 
Q 2288 441 2617 861 
Q 2947 1281 2994 2138 
Q 2813 1869 2534 1725 
Q 2256 1581 1919 1581 
Q 1219 1581 811 2004 
Q 403 2428 403 3163 
Q 403 3881 828 4315 
Q 1253 4750 1959 4750 
Q 2769 4750 3195 4129 
Q 3622 3509 3622 2328 
Q 3622 1225 3098 567 
Q 2575 -91 1691 -91 
Q 1453 -91 1209 -44 
Q 966 3 703 97 
z
M 1959 2075 
Q 2384 2075 2632 2365 
Q 2881 2656 2881 3163 
Q 2881 3666 2632 3958 
Q 2384 4250 1959 4250 
Q 1534 4250 1286 3958 
Q 1038 3666 1038 3163 
Q 1038 2656 1286 2365 
Q 1534 2075 1959 2075 
z
" transform="scale(0.015625)"/>
      </defs>
      <use xlink:href="#DejaVuSans-41"/>
      <use xlink:href="#DejaVuSans-54" transform="translate(60.658203 0)"/>
      <use xlink:href="#DejaVuSans-4c" transform="translate(121.742188 0)"/>
      <use xlink:href="#DejaVuSans-30" transform="translate(177.455078 0)"/>
      <use xlink:href="#DejaVuSans-39" transform="translate(241.078125 0)"/>
     </g>
    </g>
    <g id="line2d_16">
     <path d="M 52.78125 38.775781 
L 62.78125 38.775781 
L 62.78125 38.775781 
L 72.78125 38.775781 
L 72.78125 38.775781 
" style="fill: none; stroke-dasharray: 7.5,1.5; stroke-dashoffset: 0; stroke: #ac7726; stroke-width: 1.5"/>
    </g>
    <g id="text_16">
     <!-- Cloudnet -->
     <g transform="translate(80.78125 42.275781) scale(0.1 -0.1)">
      <defs>
       <path id="DejaVuSans-6c" d="M 603 4863 
L 1178 4863 
L 1178 0 
L 603 0 
L 603 4863 
z
" transform="scale(0.015625)"/>
       <path id="DejaVuSans-6f" d="M 1959 3097 
Q 1497 3097 1228 2736 
Q 959 2375 959 1747 
Q 959 1119 1226 758 
Q 1494 397 1959 397 
Q 2419 397 2687 759 
Q 2956 1122 2956 1747 
Q 2956 2369 2687 2733 
Q 2419 3097 1959 3097 
z
M 1959 3584 
Q 2709 3584 3137 3096 
Q 3566 2609 3566 1747 
Q 3566 888 3137 398 
Q 2709 -91 1959 -91 
Q 1206 -91 779 398 
Q 353 888 353 1747 
Q 353 2609 779 3096 
Q 1206 3584 1959 3584 
z
" transform="scale(0.015625)"/>
       <path id="DejaVuSans-75" d="M 544 1381 
L 544 3500 
L 1119 3500 
L 1119 1403 
Q 1119 906 1312 657 
Q 1506 409 1894 409 
Q 2359 409 2629 706 
Q 2900 1003 2900 1516 
L 2900 3500 
L 3475 3500 
L 3475 0 
L 2900 0 
L 2900 538 
Q 2691 219 2414 64 
Q 2138 -91 1772 -91 
Q 1169 -91 856 284 
Q 544 659 544 1381 
z
M 1991 3584 
L 1991 3584 
z
" transform="scale(0.015625)"/>
       <path id="DejaVuSans-64" d="M 2906 2969 
L 2906 4863 
L 3481 4863 
L 3481 0 
L 2906 0 
L 2906 525 
Q 2725 213 2448 61 
Q 2172 -91 1784 -91 
Q 1150 -91 751 415 
Q 353 922 353 1747 
Q 353 2572 751 3078 
Q 1150 3584 1784 3584 
Q 2172 3584 2448 3432 
Q 2725 3281 2906 2969 
z
M 947 1747 
Q 947 1113 1208 752 
Q 1469 391 1925 391 
Q 2381 391 2643 752 
Q 2906 1113 2906 1747 
Q 2906 2381 2643 2742 
Q 2381 3103 1925 3103 
Q 1469 3103 1208 2742 
Q 947 2381 947 1747 
z
" transform="scale(0.015625)"/>
       <path id="DejaVuSans-6e" d="M 3513 2113 
L 3513 0 
L 2938 0 
L 2938 2094 
Q 2938 2591 2744 2837 
Q 2550 3084 2163 3084 
Q 1697 3084 1428 2787 
Q 1159 2491 1159 1978 
L 1159 0 
L 581 0 
L 581 3500 
L 1159 3500 
L 1159 2956 
Q 1366 3272 1645 3428 
Q 1925 3584 2291 3584 
Q 2894 3584 3203 3211 
Q 3513 2838 3513 2113 
z
" transform="scale(0.015625)"/>
       <path id="DejaVuSans-65" d="M 3597 1894 
L 3597 1613 
L 953 1613 
Q 991 1019 1311 708 
Q 1631 397 2203 397 
Q 2534 397 2845 478 
Q 3156 559 3463 722 
L 3463 178 
Q 3153 47 2828 -22 
Q 2503 -91 2169 -91 
Q 1331 -91 842 396 
Q 353 884 353 1716 
Q 353 2575 817 3079 
Q 1281 3584 2069 3584 
Q 2775 3584 3186 3129 
Q 3597 2675 3597 1894 
z
M 3022 2063 
Q 3016 2534 2758 2815 
Q 2500 3097 2075 3097 
Q 1594 3097 1305 2825 
Q 1016 2553 972 2059 
L 3022 2063 
z
" transform="scale(0.015625)"/>
       <path id="DejaVuSans-74" d="M 1172 4494 
L 1172 3500 
L 2356 3500 
L 2356 3053 
L 1172 3053 
L 1172 1153 
Q 1172 725 1289 603 
Q 1406 481 1766 481 
L 2356 481 
L 2356 0 
L 1766 0 
Q 1100 0 847 248 
Q 594 497 594 1153 
L 594 3053 
L 172 3053 
L 172 3500 
L 594 3500 
L 594 4494 
L 1172 4494 
z
" transform="scale(0.015625)"/>
      </defs>
      <use xlink:href="#DejaVuSans-43"/>
      <use xlink:href="#DejaVuSans-6c" transform="translate(69.824219 0)"/>
      <use xlink:href="#DejaVuSans-6f" transform="translate(97.607422 0)"/>
      <use xlink:href="#DejaVuSans-75" transform="translate(158.789062 0)"/>
      <use xlink:href="#DejaVuSans-64" transform="translate(222.167969 0)"/>
      <use xlink:href="#DejaVuSans-6e" transform="translate(285.644531 0)"/>
      <use xlink:href="#DejaVuSans-65" transform="translate(349.023438 0)"/>
      <use xlink:href="#DejaVuSans-74" transform="translate(410.546875 0)"/>
     </g>
    </g>
   </g>
  </g>
 </g>
 <defs>
  <clipPath id="p4135353c8c">
   <rect x="43.78125" y="10.999219" width="175.844051" height="175.844051"/>
  </clipPath>
 </defs>
</svg>
