<?xml version="1.0" encoding="utf-8" standalone="no"?>
<!DOCTYPE svg PUBLIC "-//W3C//DTD SVG 1.1//EN"
  "http://www.w3.org/Graphics/SVG/1.1/DTD/svg11.dtd">
<svg xmlns:xlink="http://www.w3.org/1999/xlink" width="288pt" height="216pt" viewBox="0 0 288 216" xmlns="http://www.w3.org/2000/svg" version="1.1">
 <metadata>
  <rdf:RDF xmlns:dc="http://purl.org/dc/elements/1.1/" xmlns:cc="http://creativecommons.org/ns#" xmlns:rdf="http://www.w3.org/1999/02/22-rdf-syntax-ns#">
   <cc:Work>
    <dc:type rdf:resource="http://purl.org/dc/dcmitype/StillImage"/>
    <dc:date>2025-11-27T16:32:30.767823</dc:date>
    <dc:format>image/svg+xml</dc:format>
    <dc:creator>
     <cc:Agent>
      <dc:title>Matplotlib v3.10.0, https://matplotlib.org/</dc:title>
     </cc:Agent>
    </dc:creator>
   </cc:Work>
  </rdf:RDF>
 </metadata>
 <defs>
  <style type="text/css">*{stroke-linejoin: round; stroke-linecap: butt}</style>
 </defs>
 <g id="figure_1">
  <g id="patch_1">
   <path d="M 0 216 
L 288 216 
L 288 0 
L 0 0 
L 0 216 
z
" style="fill: none"/>
  </g>
  <g id="axes_1">
   <g id="patch_2">
    <path d="M 56.077974 182.64351 
L 231.922026 182.64351 
L 231.922026 6.799459 
L 56.077974 6.799459 
L 56.077974 182.64351 
z
" style="fill: none"/>
   </g>
   <g id="matplotlib.axis_1">
    <g id="xtick_1">
     <g id="line2d_1">
      <defs>
       <path id="m1b65c85b62" d="M 0 0 
L 0 3.5 
" style="stroke: #000000; stroke-width: 0.8"/>
      </defs>
      <g>
       <use xlink:href="#m1b65c85b62" x="56.077974" y="182.64351" style="stroke: #000000; stroke-width: 0.8"/>
      </g>
     </g>
     <g id="text_1">
      <!-- 0.0 -->
      <g transform="translate(48.126412 197.241948) scale(0.1 -0.1)">
       <defs>
        <path id="DejaVuSans-30" d="M 2034 4250 
Q 1547 4250 1301 3770 
Q 1056 3291 1056 2328 
Q 1056 1369 1301 889 
Q 1547 409 2034 409 
Q 2525 409 2770 889 
Q 3016 1369 3016 2328 
Q 3016 3291 2770 3770 
Q 2525 4250 2034 4250 
z
M 2034 4750 
Q 2819 4750 3233 4129 
Q 3647 3509 3647 2328 
Q 3647 1150 3233 529 
Q 2819 -91 2034 -91 
Q 1250 -91 836 529 
Q 422 1150 422 2328 
Q 422 3509 836 4129 
Q 1250 4750 2034 4750 
z
" transform="scale(0.015625)"/>
        <path id="DejaVuSans-2e" d="M 684 794 
L 1344 794 
L 1344 0 
L 684 0 
L 684 794 
z
" transform="scale(0.015625)"/>
       </defs>
       <use xlink:href="#DejaVuSans-30"/>
       <use xlink:href="#DejaVuSans-2e" transform="translate(63.623047 0)"/>
       <use xlink:href="#DejaVuSans-30" transform="translate(95.410156 0)"/>
      </g>
     </g>
    </g>
    <g id="xtick_2">
     <g id="line2d_2">
      <g>
       <use xlink:href="#m1b65c85b62" x="91.246785" y="182.64351" style="stroke: #000000; stroke-width: 0.8"/>
      </g>
     </g>
     <g id="text_2">
      <!-- 0.2 -->
      <g transform="translate(83.295222 197.241948) scale(0.1 -0.1)">
       <defs>
        <path id="DejaVuSans-32" d="M 1228 531 
L 3431 531 
L 3431 0 
L 469 0 
L 469 531 
Q 828 903 1448 1529 
Q 2069 2156 2228 2338 
Q 2531 2678 2651 2914 
Q 2772 3150 2772 3378 
Q 2772 3750 2511 3984 
Q 2250 4219 1831 4219 
Q 1534 4219 1204 4116 
Q 875 4013 500 3803 
L 500 4441 
Q 881 4594 1212 4672 
Q 1544 4750 1819 4750 
Q 2544 4750 2975 4387 
Q 3406 4025 3406 3419 
Q 3406 3131 3298 2873 
Q 3191 2616 2906 2266 
Q 2828 2175 2409 1742 
Q 1991 1309 1228 531 
z
" transform="scale(0.015625)"/>
       </defs>
       <use xlink:href="#DejaVuSans-30"/>
       <use xlink:href="#DejaVuSans-2e" transform="translate(63.623047 0)"/>
       <use xlink:href="#DejaVuSans-32" transform="translate(95.410156 0)"/>
      </g>
     </g>
    </g>
    <g id="xtick_3">
     <g id="line2d_3">
      <g>
       <use xlink:href="#m1b65c85b62" x="126.415595" y="182.64351" style="stroke: #000000; stroke-width: 0.8"/>
      </g>
     </g>
     <g id="text_3">
      <!-- 0.4 -->
      <g transform="translate(118.464032 197.241948) scale(0.1 -0.1)">
       <defs>
        <path id="DejaVuSans-34" d="M 2419 4116 
L 825 1625 
L 2419 1625 
L 2419 4116 
z
M 2253 4666 
L 3047 4666 
L 3047 1625 
L 3713 1625 
L 3713 1100 
L 3047 1100 
L 3047 0 
L 2419 0 
L 2419 1100 
L 313 1100 
L 313 1709 
L 2253 4666 
z
" transform="scale(0.015625)"/>
       </defs>
       <use xlink:href="#DejaVuSans-30"/>
       <use xlink:href="#DejaVuSans-2e" transform="translate(63.623047 0)"/>
       <use xlink:href="#DejaVuSans-34" transform="translate(95.410156 0)"/>
      </g>
     </g>
    </g>
    <g id="xtick_4">
     <g id="line2d_4">
      <g>
       <use xlink:href="#m1b65c85b62" x="161.584405" y="182.64351" style="stroke: #000000; stroke-width: 0.8"/>
      </g>
     </g>
     <g id="text_4">
      <!-- 0.6 -->
      <g transform="translate(153.632843 197.241948) scale(0.1 -0.1)">
       <defs>
        <path id="DejaVuSans-36" d="M 2113 2584 
Q 1688 2584 1439 2293 
Q 1191 2003 1191 1497 
Q 1191 994 1439 701 
Q 1688 409 2113 409 
Q 2538 409 2786 701 
Q 3034 994 3034 1497 
Q 3034 2003 2786 2293 
Q 2538 2584 2113 2584 
z
M 3366 4563 
L 3366 3988 
Q 3128 4100 2886 4159 
Q 2644 4219 2406 4219 
Q 1781 4219 1451 3797 
Q 1122 3375 1075 2522 
Q 1259 2794 1537 2939 
Q 1816 3084 2150 3084 
Q 2853 3084 3261 2657 
Q 3669 2231 3669 1497 
Q 3669 778 3244 343 
Q 2819 -91 2113 -91 
Q 1303 -91 875 529 
Q 447 1150 447 2328 
Q 447 3434 972 4092 
Q 1497 4750 2381 4750 
Q 2619 4750 2861 4703 
Q 3103 4656 3366 4563 
z
" transform="scale(0.015625)"/>
       </defs>
       <use xlink:href="#DejaVuSans-30"/>
       <use xlink:href="#DejaVuSans-2e" transform="translate(63.623047 0)"/>
       <use xlink:href="#DejaVuSans-36" transform="translate(95.410156 0)"/>
      </g>
     </g>
    </g>
    <g id="xtick_5">
     <g id="line2d_5">
      <g>
       <use xlink:href="#m1b65c85b62" x="196.753215" y="182.64351" style="stroke: #000000; stroke-width: 0.8"/>
      </g>
     </g>
     <g id="text_5">
      <!-- 0.8 -->
      <g transform="translate(188.801653 197.241948) scale(0.1 -0.1)">
       <defs>
        <path id="DejaVuSans-38" d="M 2034 2216 
Q 1584 2216 1326 1975 
Q 1069 1734 1069 1313 
Q 1069 891 1326 650 
Q 1584 409 2034 409 
Q 2484 409 2743 651 
Q 3003 894 3003 1313 
Q 3003 1734 2745 1975 
Q 2488 2216 2034 2216 
z
M 1403 2484 
Q 997 2584 770 2862 
Q 544 3141 544 3541 
Q 544 4100 942 4425 
Q 1341 4750 2034 4750 
Q 2731 4750 3128 4425 
Q 3525 4100 3525 3541 
Q 3525 3141 3298 2862 
Q 3072 2584 2669 2484 
Q 3125 2378 3379 2068 
Q 3634 1759 3634 1313 
Q 3634 634 3220 271 
Q 2806 -91 2034 -91 
Q 1263 -91 848 271 
Q 434 634 434 1313 
Q 434 1759 690 2068 
Q 947 2378 1403 2484 
z
M 1172 3481 
Q 1172 3119 1398 2916 
Q 1625 2713 2034 2713 
Q 2441 2713 2670 2916 
Q 2900 3119 2900 3481 
Q 2900 3844 2670 4047 
Q 2441 4250 2034 4250 
Q 1625 4250 1398 4047 
Q 1172 3844 1172 3481 
z
" transform="scale(0.015625)"/>
       </defs>
       <use xlink:href="#DejaVuSans-30"/>
       <use xlink:href="#DejaVuSans-2e" transform="translate(63.623047 0)"/>
       <use xlink:href="#DejaVuSans-38" transform="translate(95.410156 0)"/>
      </g>
     </g>
    </g>
    <g id="xtick_6">
     <g id="line2d_6">
      <g>
       <use xlink:href="#m1b65c85b62" x="231.922026" y="182.64351" style="stroke: #000000; stroke-width: 0.8"/>
      </g>
     </g>
     <g id="text_6">
      <!-- 1.0 -->
      <g transform="translate(223.970463 197.241948) scale(0.1 -0.1)">
       <defs>
        <path id="DejaVuSans-31" d="M 794 531 
L 1825 531 
L 1825 4091 
L 703 3866 
L 703 4441 
L 1819 4666 
L 2450 4666 
L 2450 531 
L 3481 531 
L 3481 0 
L 794 0 
L 794 531 
z
" transform="scale(0.015625)"/>
       </defs>
       <use xlink:href="#DejaVuSans-31"/>
       <use xlink:href="#DejaVuSans-2e" transform="translate(63.623047 0)"/>
       <use xlink:href="#DejaVuSans-30" transform="translate(95.410156 0)"/>
      </g>
     </g>
    </g>
    <g id="text_7">
     <!-- $u$, $v$ -->
     <g transform="translate(134.65 210.920073) scale(0.1 -0.1)">
      <defs>
       <path id="DejaVuSans-Oblique-75" d="M 428 1388 
L 838 3500 
L 1416 3500 
L 1006 1409 
Q 975 1256 961 1147 
Q 947 1038 947 966 
Q 947 700 1109 554 
Q 1272 409 1569 409 
Q 2031 409 2368 721 
Q 2706 1034 2809 1563 
L 3194 3500 
L 3769 3500 
L 3091 0 
L 2516 0 
L 2631 550 
Q 2388 244 2052 76 
Q 1716 -91 1338 -91 
Q 878 -91 622 161 
Q 366 413 366 863 
Q 366 956 381 1097 
Q 397 1238 428 1388 
z
" transform="scale(0.015625)"/>
       <path id="DejaVuSans-2c" d="M 750 794 
L 1409 794 
L 1409 256 
L 897 -744 
L 494 -744 
L 750 256 
L 750 794 
z
" transform="scale(0.015625)"/>
       <path id="DejaVuSans-20" transform="scale(0.015625)"/>
       <path id="DejaVuSans-Oblique-76" d="M 459 3500 
L 1069 3500 
L 1581 525 
L 3256 3500 
L 3866 3500 
L 1875 0 
L 1100 0 
L 459 3500 
z
" transform="scale(0.015625)"/>
      </defs>
      <use xlink:href="#DejaVuSans-Oblique-75" transform="translate(0 0.3125)"/>
      <use xlink:href="#DejaVuSans-2c" transform="translate(63.378906 0.3125)"/>
      <use xlink:href="#DejaVuSans-20" transform="translate(95.166016 0.3125)"/>
      <use xlink:href="#DejaVuSans-Oblique-76" transform="translate(126.953125 0.3125)"/>
     </g>
    </g>
   </g>
   <g id="matplotlib.axis_2">
    <g id="ytick_1">
     <g id="line2d_7">
      <defs>
       <path id="mc5bd17b1f8" d="M 0 0 
L -3.5 0 
" style="stroke: #000000; stroke-width: 0.8"/>
      </defs>
      <g>
       <use xlink:href="#mc5bd17b1f8" x="56.077974" y="182.64351" style="stroke: #000000; stroke-width: 0.8"/>
      </g>
     </g>
     <g id="text_8">
      <!-- 0.0 -->
      <g transform="translate(33.174849 186.442729) scale(0.1 -0.1)">
       <use xlink:href="#DejaVuSans-30"/>
       <use xlink:href="#DejaVuSans-2e" transform="translate(63.623047 0)"/>
       <use xlink:href="#DejaVuSans-30" transform="translate(95.410156 0)"/>
      </g>
     </g>
    </g>
    <g id="ytick_2">
     <g id="line2d_8">
      <g>
       <use xlink:href="#mc5bd17b1f8" x="56.077974" y="147.4747" style="stroke: #000000; stroke-width: 0.8"/>
      </g>
     </g>
     <g id="text_9">
      <!-- 0.2 -->
      <g transform="translate(33.174849 151.273918) scale(0.1 -0.1)">
       <use xlink:href="#DejaVuSans-30"/>
       <use xlink:href="#DejaVuSans-2e" transform="translate(63.623047 0)"/>
       <use xlink:href="#DejaVuSans-32" transform="translate(95.410156 0)"/>
      </g>
     </g>
    </g>
    <g id="ytick_3">
     <g id="line2d_9">
      <g>
       <use xlink:href="#mc5bd17b1f8" x="56.077974" y="112.305889" style="stroke: #000000; stroke-width: 0.8"/>
      </g>
     </g>
     <g id="text_10">
      <!-- 0.4 -->
      <g transform="translate(33.174849 116.105108) scale(0.1 -0.1)">
       <use xlink:href="#DejaVuSans-30"/>
       <use xlink:href="#DejaVuSans-2e" transform="translate(63.623047 0)"/>
       <use xlink:href="#DejaVuSans-34" transform="translate(95.410156 0)"/>
      </g>
     </g>
    </g>
    <g id="ytick_4">
     <g id="line2d_10">
      <g>
       <use xlink:href="#mc5bd17b1f8" x="56.077974" y="77.137079" style="stroke: #000000; stroke-width: 0.8"/>
      </g>
     </g>
     <g id="text_11">
      <!-- 0.6 -->
      <g transform="translate(33.174849 80.936298) scale(0.1 -0.1)">
       <use xlink:href="#DejaVuSans-30"/>
       <use xlink:href="#DejaVuSans-2e" transform="translate(63.623047 0)"/>
       <use xlink:href="#DejaVuSans-36" transform="translate(95.410156 0)"/>
      </g>
     </g>
    </g>
    <g id="ytick_5">
     <g id="line2d_11">
      <g>
       <use xlink:href="#mc5bd17b1f8" x="56.077974" y="41.968269" style="stroke: #000000; stroke-width: 0.8"/>
      </g>
     </g>
     <g id="text_12">
      <!-- 0.8 -->
      <g transform="translate(33.174849 45.767488) scale(0.1 -0.1)">
       <use xlink:href="#DejaVuSans-30"/>
       <use xlink:href="#DejaVuSans-2e" transform="translate(63.623047 0)"/>
       <use xlink:href="#DejaVuSans-38" transform="translate(95.410156 0)"/>
      </g>
     </g>
    </g>
    <g id="ytick_6">
     <g id="line2d_12">
      <g>
       <use xlink:href="#mc5bd17b1f8" x="56.077974" y="6.799459" style="stroke: #000000; stroke-width: 0.8"/>
      </g>
     </g>
     <g id="text_13">
      <!-- 1.0 -->
      <g transform="translate(33.174849 10.598677) scale(0.1 -0.1)">
       <use xlink:href="#DejaVuSans-31"/>
       <use xlink:href="#DejaVuSans-2e" transform="translate(63.623047 0)"/>
       <use xlink:href="#DejaVuSans-30" transform="translate(95.410156 0)"/>
      </g>
     </g>
    </g>
    <g id="text_14">
     <!-- VCF -->
     <g transform="translate(27.095162 104.508984) rotate(-90) scale(0.1 -0.1)">
      <defs>
       <path id="DejaVuSans-56" d="M 1831 0 
L 50 4666 
L 709 4666 
L 2188 738 
L 3669 4666 
L 4325 4666 
L 2547 0 
L 1831 0 
z
" transform="scale(0.015625)"/>
       <path id="DejaVuSans-43" d="M 4122 4306 
L 4122 3641 
Q 3803 3938 3442 4084 
Q 3081 4231 2675 4231 
Q 1875 4231 1450 3742 
Q 1025 3253 1025 2328 
Q 1025 1406 1450 917 
Q 1875 428 2675 428 
Q 3081 428 3442 575 
Q 3803 722 4122 1019 
L 4122 359 
Q 3791 134 3420 21 
Q 3050 -91 2638 -91 
Q 1578 -91 968 557 
Q 359 1206 359 2328 
Q 359 3453 968 4101 
Q 1578 4750 2638 4750 
Q 3056 4750 3426 4639 
Q 3797 4528 4122 4306 
z
" transform="scale(0.015625)"/>
       <path id="DejaVuSans-46" d="M 628 4666 
L 3309 4666 
L 3309 4134 
L 1259 4134 
L 1259 2759 
L 3109 2759 
L 3109 2228 
L 1259 2228 
L 1259 0 
L 628 0 
L 628 4666 
z
" transform="scale(0.015625)"/>
      </defs>
      <use xlink:href="#DejaVuSans-56"/>
      <use xlink:href="#DejaVuSans-43" transform="translate(68.408203 0)"/>
      <use xlink:href="#DejaVuSans-46" transform="translate(138.232422 0)"/>
     </g>
    </g>
   </g>
   <g id="line2d_13">
    <path d="M 56.077974 191.434312 
L 56.086828 191.434312 
L 56.193067 182.639516 
L 57.804366 182.531172 
L 57.910605 182.497832 
L 61.080083 182.389767 
L 61.186323 182.358247 
L 63.010101 182.248285 
L 63.11634 182.222329 
L 64.240708 182.111455 
L 64.346947 182.096655 
L 65.506729 181.985952 
L 65.595261 181.979176 
L 66.684216 181.872081 
L 66.790456 181.85142 
L 67.95909 181.741746 
L 68.065329 181.7274 
L 68.950658 181.617992 
L 69.056898 181.608811 
L 69.676628 181.501548 
L 69.782868 181.491101 
L 70.774436 181.38104 
L 70.880676 181.359253 
L 71.739445 181.252469 
L 71.845684 181.232826 
L 72.553948 181.124718 
L 72.660187 181.107316 
L 73.262211 181.000521 
L 73.359597 180.979371 
L 74.09442 180.873793 
L 74.20066 180.845724 
L 75.032869 180.735459 
L 75.139108 180.721347 
L 75.838518 180.613028 
L 75.944758 180.590338 
L 76.75926 180.479276 
L 76.8655 180.453881 
L 77.61803 180.344546 
L 77.724269 180.327259 
L 78.335146 180.217383 
L 78.441386 180.197383 
L 79.220475 180.087106 
L 79.326715 180.063315 
L 79.911032 179.953054 
L 80.017271 179.930641 
L 80.663561 179.819686 
L 80.743241 179.807186 
L 81.407238 179.698362 
L 81.513477 179.675678 
L 82.2483 179.566676 
L 82.35454 179.548655 
L 82.930004 179.439256 
L 83.036243 179.421238 
L 83.585147 179.310654 
L 83.682533 179.301276 
L 84.231437 179.192561 
L 84.337677 179.173013 
L 84.904287 179.062355 
L 85.010527 179.039371 
L 85.515165 178.929194 
L 85.621404 178.911189 
L 86.179161 178.801727 
L 86.285401 178.764597 
L 86.736919 178.657712 
L 86.843158 178.62434 
L 87.436328 178.51494 
L 87.542568 178.484196 
L 87.949819 178.380685 
L 88.056059 178.348547 
L 88.454457 178.237987 
L 88.560696 178.202219 
L 88.994508 178.091823 
L 89.100747 178.058165 
L 89.543412 177.949401 
L 89.649651 177.920388 
L 90.127729 177.8121 
L 90.233968 177.773101 
L 90.676633 177.662092 
L 90.782872 177.638495 
L 91.198977 177.529959 
L 91.305216 177.490813 
L 91.730174 177.382832 
L 91.836414 177.345008 
L 92.225959 177.234339 
L 92.332198 177.189719 
L 92.783716 177.080577 
L 92.889955 177.047133 
L 93.368033 176.936148 
L 93.474272 176.910321 
L 93.934644 176.800565 
L 94.040883 176.768912 
L 94.395015 176.661236 
L 94.501254 176.629604 
L 94.784559 176.528158 
L 94.890799 176.496755 
L 95.27149 176.385715 
L 95.37773 176.352852 
L 95.776128 176.243056 
L 95.882367 176.209866 
L 96.085993 176.101123 
L 96.192233 176.064311 
L 96.572924 175.953427 
L 96.679164 175.920061 
L 97.059855 175.811935 
L 97.166094 175.775362 
L 97.582199 175.665571 
L 97.688439 175.631663 
L 97.936331 175.522468 
L 98.04257 175.485173 
L 98.334729 175.37611 
L 98.440968 175.337833 
L 98.706567 175.234293 
L 98.812806 175.192093 
L 99.122672 175.083248 
L 99.228911 175.02955 
L 99.503363 174.922576 
L 99.609603 174.877519 
L 99.963734 174.767625 
L 100.069974 174.73183 
L 100.344426 174.624809 
L 100.450665 174.58416 
L 100.769384 174.47402 
L 100.875623 174.448838 
L 101.309434 174.340132 
L 101.415674 174.31602 
L 101.698979 174.205558 
L 101.805219 174.157906 
L 102.194763 174.047481 
L 102.301003 173.995151 
L 102.602015 173.884734 
L 102.708254 173.825979 
L 102.965 173.716561 
L 103.071239 173.673036 
L 103.310278 173.562959 
L 103.416517 173.530395 
L 103.806062 173.420129 
L 103.912302 173.347789 
L 104.275287 173.238289 
L 104.381526 173.189529 
L 104.717951 173.079855 
L 104.824191 173.025273 
L 105.107496 172.914566 
L 105.213735 172.861979 
L 105.532454 172.753177 
L 105.638693 172.686398 
L 105.948558 172.576212 
L 106.054798 172.508416 
L 106.38237 172.398537 
L 106.488609 172.363632 
L 106.763061 172.259265 
L 106.869301 172.209713 
L 107.08178 172.102779 
L 107.188019 172.044834 
L 107.480178 171.935058 
L 107.586417 171.884569 
L 107.860869 171.775568 
L 107.967109 171.739227 
L 108.241561 171.628452 
L 108.3478 171.567139 
L 108.639959 171.460616 
L 108.746198 171.410417 
L 109.04721 171.306121 
L 109.15345 171.238196 
L 109.436755 171.129055 
L 109.542994 171.082828 
L 109.782033 170.977288 
L 109.888273 170.922578 
L 110.180431 170.817009 
L 110.286671 170.776004 
L 110.49915 170.669419 
L 110.605389 170.605655 
L 110.897548 170.497252 
L 111.003787 170.446869 
L 111.207413 170.336512 
L 111.313652 170.273634 
L 111.632371 170.16258 
L 111.73861 170.096332 
L 112.039622 169.986179 
L 112.145862 169.940775 
L 112.393754 169.838249 
L 112.499993 169.775715 
L 112.730179 169.674811 
L 112.836418 169.580809 
L 113.048897 169.480661 
L 113.155137 169.395941 
L 113.314496 169.286083 
L 113.420735 169.23058 
L 113.606655 169.129902 
L 113.712894 169.084564 
L 113.898813 168.983614 
L 114.005053 168.902665 
L 114.341478 168.791858 
L 114.447717 168.731168 
L 114.660196 168.623993 
L 114.766436 168.567644 
L 114.943501 168.46027 
L 115.049741 168.396169 
L 115.341899 168.286872 
L 115.448139 168.226997 
L 115.722591 168.130268 
L 115.82883 168.047215 
L 116.094429 167.938275 
L 116.200669 167.875908 
L 116.475121 167.76719 
L 116.58136 167.727709 
L 116.846959 167.61942 
L 116.953198 167.557631 
L 117.156824 167.452865 
L 117.263063 167.398674 
L 117.493249 167.291798 
L 117.599488 167.254754 
L 117.87394 167.14608 
L 117.98018 167.094412 
L 118.192659 166.988396 
L 118.298898 166.899398 
L 118.54679 166.790692 
L 118.65303 166.695391 
L 118.909775 166.586118 
L 119.016015 166.521157 
L 119.228494 166.410571 
L 119.334733 166.323343 
L 119.556066 166.222025 
L 119.653452 166.141725 
L 119.857077 166.037069 
L 119.963317 165.968619 
L 120.158089 165.859628 
L 120.264329 165.808247 
L 120.467954 165.698269 
L 120.574194 165.628808 
L 120.795526 165.518472 
L 120.901766 165.480708 
L 121.105391 165.370047 
L 121.211631 165.317008 
L 121.441816 165.208007 
L 121.548056 165.160282 
L 121.795948 165.051082 
L 121.902187 164.992497 
L 122.105813 164.8817 
L 122.212053 164.842502 
L 122.539624 164.737316 
L 122.645864 164.693972 
L 122.858343 164.585347 
L 122.964582 164.549794 
L 123.141648 164.439964 
L 123.247888 164.40011 
L 123.531193 164.294582 
L 123.637432 164.213035 
L 123.911884 164.105415 
L 124.018124 164.046217 
L 124.292576 163.936463 
L 124.398815 163.856752 
L 124.655561 163.748451 
L 124.7618 163.677299 
L 124.938866 163.575609 
L 125.045106 163.455153 
L 125.275291 163.345372 
L 125.381531 163.272912 
L 125.647129 163.165003 
L 125.753369 163.099978 
L 125.956994 162.996242 
L 126.063234 162.93864 
L 126.249153 162.830801 
L 126.355393 162.777822 
L 126.488192 162.671223 
L 126.594431 162.593475 
L 126.78035 162.486281 
L 126.88659 162.397517 
L 127.125629 162.294036 
L 127.231868 162.214849 
L 127.4532 162.104514 
L 127.55944 162.027776 
L 127.745359 161.921147 
L 127.851599 161.867156 
L 128.028664 161.75865 
L 128.134904 161.688214 
L 128.294263 161.58653 
L 128.400503 161.504238 
L 128.666101 161.393382 
L 128.772341 161.34226 
L 128.940553 161.246022 
L 129.046793 161.180173 
L 129.294685 161.074965 
L 129.400924 161.001455 
L 129.639963 160.891719 
L 129.746203 160.82262 
L 129.932122 160.713722 
L 130.038361 160.6254 
L 130.135747 160.517362 
L 130.241987 160.470914 
L 130.463319 160.360885 
L 130.569559 160.290908 
L 130.773184 160.180669 
L 130.879424 160.120275 
L 130.985663 160.018426 
L 131.091903 159.926995 
L 131.233555 159.815903 
L 131.339795 159.757184 
L 131.525714 159.649465 
L 131.631953 159.580178 
L 131.862139 159.470236 
L 131.968379 159.372657 
L 132.127738 159.267548 
L 132.233977 159.209993 
L 132.446456 159.106402 
L 132.552696 159.047747 
L 132.756321 158.937248 
L 132.862561 158.838066 
L 132.977654 158.731055 
L 133.083893 158.651692 
L 133.305225 158.541022 
L 133.411465 158.49426 
L 133.579677 158.391148 
L 133.685917 158.314643 
L 133.880689 158.214854 
L 133.986929 158.140607 
L 134.199408 158.032493 
L 134.305647 157.933398 
L 134.491566 157.832181 
L 134.597806 157.757493 
L 134.836845 157.655455 
L 134.943084 157.556171 
L 135.208683 157.445592 
L 135.314922 157.360629 
L 135.474281 157.252817 
L 135.580521 157.11343 
L 135.71332 157.005254 
L 135.81956 156.886632 
L 135.987772 156.782631 
L 136.094012 156.730711 
L 136.288784 156.621098 
L 136.395024 156.512671 
L 136.54553 156.405911 
L 136.651769 156.344043 
L 136.758009 156.249174 
L 136.864248 156.151111 
L 136.952781 156.049811 
L 137.05902 155.972026 
L 137.227233 155.873299 
L 137.333472 155.792315 
L 137.510538 155.685531 
L 137.616778 155.627233 
L 137.73187 155.516695 
L 137.83811 155.451489 
L 137.988616 155.340761 
L 138.094855 155.189978 
L 138.263068 155.079152 
L 138.369307 154.929171 
L 138.546373 154.820587 
L 138.652613 154.740113 
L 138.794265 154.631733 
L 138.900505 154.565593 
L 139.068717 154.466301 
L 139.174957 154.369722 
L 139.316609 154.258691 
L 139.422849 154.161474 
L 139.564502 154.055062 
L 139.670741 153.989465 
L 139.8301 153.881233 
L 139.93634 153.802256 
L 140.104552 153.701144 
L 140.210792 153.60112 
L 140.423271 153.490722 
L 140.52951 153.371703 
L 140.706576 153.261425 
L 140.812816 153.184896 
L 140.910202 153.078199 
L 141.016441 152.980415 
L 141.22892 152.888174 
L 141.33516 152.807879 
L 141.476812 152.699028 
L 141.583052 152.626468 
L 141.751264 152.533789 
L 141.857504 152.410367 
L 142.069983 152.315386 
L 142.176222 152.222704 
L 142.309022 152.115285 
L 142.415261 152.034596 
L 142.556914 151.924921 
L 142.663153 151.798198 
L 142.831366 151.696901 
L 142.937605 151.605875 
L 143.105818 151.495434 
L 143.212057 151.450901 
L 143.389123 151.34422 
L 143.495362 151.248359 
L 143.619309 151.148854 
L 143.725548 151.012913 
L 143.840641 150.903817 
L 143.94688 150.823816 
L 144.07968 150.721576 
L 144.185919 150.638821 
L 144.309865 150.528223 
L 144.416105 150.4547 
L 144.584317 150.345648 
L 144.690557 150.249427 
L 144.832209 150.139335 
L 144.938449 150.020341 
L 145.106661 149.909392 
L 145.212901 149.834961 
L 145.310287 149.753925 
L 145.416526 149.554331 
L 145.567032 149.455489 
L 145.673272 149.38278 
L 145.832631 149.274659 
L 145.938871 149.178375 
L 146.115936 149.067716 
L 146.222176 148.984828 
L 146.372682 148.878842 
L 146.478921 148.761463 
L 146.602867 148.653477 
L 146.709107 148.564524 
L 146.886173 148.45564 
L 146.992412 148.380538 
L 147.125211 148.27742 
L 147.231451 148.149649 
L 147.319984 148.043165 
L 147.426223 147.978171 
L 147.532463 147.869331 
L 147.638702 147.743331 
L 147.780355 147.63474 
L 147.886594 147.477549 
L 148.01054 147.370341 
L 148.11678 147.264825 
L 148.276139 147.162601 
L 148.382379 147.075807 
L 148.470912 146.983543 
L 148.577151 146.863576 
L 148.727657 146.759034 
L 148.833896 146.675409 
L 148.984402 146.566661 
L 149.090642 146.505011 
L 149.250001 146.397714 
L 149.356241 146.26835 
L 149.48904 146.173069 
L 149.595279 146.048621 
L 149.754639 145.940703 
L 149.860878 145.801818 
L 149.975971 145.693136 
L 150.08221 145.623067 
L 150.250423 145.512114 
L 150.356662 145.415195 
L 150.462902 145.318425 
L 150.569141 145.181763 
L 150.728501 145.086713 
L 150.83474 144.965288 
L 150.976393 144.861696 
L 151.082632 144.782923 
L 151.197725 144.691953 
L 151.303964 144.561863 
L 151.436764 144.458411 
L 151.543003 144.372185 
L 151.649243 144.264848 
L 151.755482 144.163396 
L 151.950255 144.054457 
L 152.056494 143.998048 
L 152.162734 143.911188 
L 152.268973 143.73832 
L 152.410626 143.629216 
L 152.516865 143.553977 
L 152.640811 143.443764 
L 152.747051 143.347346 
L 152.870997 143.252318 
L 152.977236 143.140358 
L 153.110036 143.03604 
L 153.216275 142.994727 
L 153.295955 142.913632 
L 153.402194 142.808206 
L 153.561553 142.710727 
L 153.667793 142.625755 
L 153.827152 142.531968 
L 153.933392 142.412832 
L 154.021925 142.315622 
L 154.128164 142.234545 
L 154.234404 142.126447 
L 154.340643 142.042039 
L 154.535415 141.939472 
L 154.641655 141.815556 
L 154.730188 141.710728 
L 154.836427 141.610338 
L 155.013493 141.49965 
L 155.119733 141.444786 
L 155.243679 141.334594 
L 155.349918 141.190274 
L 155.491571 141.083717 
L 155.59781 141.010975 
L 155.712903 140.906112 
L 155.819143 140.826328 
L 155.943089 140.715708 
L 156.049328 140.597285 
L 156.155568 140.492424 
L 156.261807 140.357594 
L 156.3769 140.249699 
L 156.483139 140.161058 
L 156.598232 140.051292 
L 156.704472 139.973353 
L 156.890391 139.870633 
L 156.99663 139.781134 
L 157.155989 139.670868 
L 157.262229 139.564075 
L 157.403881 139.452969 
L 157.510121 139.31043 
L 157.660627 139.20627 
L 157.766866 139.081239 
L 157.846546 138.982502 
L 157.952785 138.903588 
L 158.032465 138.822768 
L 158.138705 138.682497 
L 158.262651 138.575001 
L 158.36889 138.495367 
L 158.483983 138.393022 
L 158.590222 138.309421 
L 158.669902 138.211721 
L 158.776141 138.085738 
L 158.908941 137.984703 
L 159.01518 137.828774 
L 159.112566 137.734899 
L 159.218806 137.56544 
L 159.289632 137.472322 
L 159.395872 137.350345 
L 159.528671 137.246331 
L 159.634911 137.12642 
L 159.785417 137.015625 
L 159.891656 136.901721 
L 160.006749 136.805494 
L 160.112988 136.659737 
L 160.210374 136.56124 
L 160.316614 136.3666 
L 160.369734 136.27549 
L 160.475973 136.133666 
L 160.564506 136.022843 
L 160.670746 135.843989 
L 160.830105 135.735197 
L 160.936344 135.610756 
L 160.998317 135.513166 
L 161.104557 135.303666 
L 161.175383 135.210276 
L 161.281623 135.066292 
L 161.325889 134.987224 
L 161.432129 134.83615 
L 161.529515 134.727504 
L 161.635754 134.586591 
L 161.741994 134.490875 
L 161.848233 134.353888 
L 161.963326 134.246724 
L 162.069565 134.126099 
L 162.158098 134.026877 
L 162.264338 133.826352 
L 162.352871 133.769042 
L 162.45911 133.62017 
L 162.56535 133.521155 
L 162.671589 133.431807 
L 162.795535 133.327963 
L 162.901775 133.169523 
L 163.034574 133.072795 
L 163.140814 132.915017 
L 163.273613 132.809268 
L 163.379852 132.759095 
L 163.512652 132.651659 
L 163.618891 132.562167 
L 163.680864 132.480024 
L 163.787104 132.32846 
L 164.034996 132.228864 
L 164.141235 132.086534 
L 164.265181 131.976406 
L 164.371421 131.878749 
L 164.513074 131.771651 
L 164.619313 131.609713 
L 164.734406 131.510318 
L 164.840645 131.37771 
L 164.964591 131.268324 
L 165.070831 131.179368 
L 165.194777 131.069967 
L 165.301016 130.962924 
L 165.389549 130.883478 
L 165.495789 130.643441 
L 165.566615 130.540512 
L 165.672855 130.370088 
L 165.787947 130.283501 
L 165.894187 130.147191 
L 165.965013 130.049353 
L 166.071253 129.857029 
L 166.195199 129.759304 
L 166.301438 129.597954 
L 166.434238 129.487257 
L 166.540477 129.357434 
L 166.735249 129.247567 
L 166.841489 129.184515 
L 166.956582 129.075872 
L 167.062821 128.96453 
L 167.177914 128.855918 
L 167.284153 128.636013 
L 167.372686 128.537269 
L 167.478926 128.466277 
L 167.585165 128.366512 
L 167.691405 128.239512 
L 167.806498 128.130729 
L 167.912737 127.961259 
L 167.992417 127.857115 
L 168.098656 127.772186 
L 168.222602 127.662971 
L 168.328842 127.430939 
L 168.435081 127.32113 
L 168.541321 127.171222 
L 168.629854 127.061083 
L 168.736093 126.93793 
L 168.877746 126.826982 
L 168.983985 126.695093 
L 169.054811 126.624207 
L 169.161051 126.444885 
L 169.32041 126.337822 
L 169.42665 126.226461 
L 169.594862 126.117361 
L 169.701102 125.928704 
L 169.771928 125.828296 
L 169.878167 125.622161 
L 169.9667 125.541719 
L 170.07294 125.409519 
L 170.179179 125.304139 
L 170.285419 125.191603 
L 170.418218 125.083764 
L 170.524458 124.984139 
L 170.66611 124.88824 
L 170.77235 124.718718 
L 170.834323 124.620196 
L 170.940562 124.445037 
L 171.011389 124.34928 
L 171.117628 124.233845 
L 171.179601 124.130292 
L 171.285841 123.909493 
L 171.427493 123.80402 
L 171.533733 123.671515 
L 171.639972 123.560713 
L 171.746212 123.448535 
L 171.870158 123.348189 
L 171.976397 123.189018 
L 172.020664 123.127062 
L 172.126903 122.911613 
L 172.233143 122.809621 
L 172.339382 122.629523 
L 172.454475 122.534834 
L 172.560714 122.376833 
L 172.622687 122.32682 
L 172.728927 122.117247 
L 172.861726 122.031546 
L 172.967966 121.855546 
L 173.118472 121.753629 
L 173.224711 121.609808 
L 173.286684 121.530967 
L 173.392924 121.404745 
L 173.49031 121.295689 
L 173.596549 121.161487 
L 173.729349 121.067461 
L 173.835588 120.877746 
L 173.906415 120.77949 
L 174.012654 120.658849 
L 174.127747 120.559421 
L 174.233986 120.434489 
L 174.340226 120.327318 
L 174.446465 120.14095 
L 174.543851 120.043028 
L 174.650091 119.870046 
L 174.738624 119.787447 
L 174.844863 119.615411 
L 174.897983 119.504506 
L 175.004223 119.354264 
L 175.092755 119.249469 
L 175.198995 119.132685 
L 175.322941 119.023216 
L 175.42918 118.897674 
L 175.500007 118.79436 
L 175.606246 118.671918 
L 175.685926 118.571883 
L 175.792165 118.415425 
L 175.880698 118.309323 
L 175.986938 118.228165 
L 176.057764 118.121286 
L 176.164004 117.948797 
L 176.305656 117.859004 
L 176.411896 117.704184 
L 176.535842 117.59415 
L 176.642081 117.432651 
L 176.695201 117.378859 
L 176.80144 117.149754 
L 176.943093 117.044294 
L 177.049333 116.880257 
L 177.111306 116.775296 
L 177.217545 116.61114 
L 177.252958 116.510096 
L 177.359198 116.365545 
L 177.50085 116.255781 
L 177.60709 116.127192 
L 177.731036 116.020481 
L 177.837275 115.882318 
L 177.916955 115.773785 
L 178.023194 115.597541 
L 178.129434 115.512163 
L 178.235673 115.283894 
L 178.35962 115.178688 
L 178.465859 115.088293 
L 178.589805 114.98891 
L 178.696045 114.847308 
L 178.775724 114.737563 
L 178.881964 114.617556 
L 178.988203 114.509895 
L 179.094443 114.372958 
L 179.174122 114.271364 
L 179.280362 114.142065 
L 179.377748 114.0387 
L 179.483987 113.865866 
L 179.616787 113.758732 
L 179.723026 113.650376 
L 179.802706 113.554292 
L 179.908945 113.356067 
L 180.032891 113.2497 
L 180.139131 113.01471 
L 180.24537 112.90882 
L 180.35161 112.686562 
L 180.440143 112.580262 
L 180.546382 112.39708 
L 180.634915 112.304951 
L 180.741155 112.080405 
L 180.856247 111.969824 
L 180.962487 111.813751 
L 181.05102 111.710975 
L 181.157259 111.545842 
L 181.254645 111.435624 
L 181.360885 111.292556 
L 181.414005 111.182336 
L 181.520244 111.009675 
L 181.59107 110.932062 
L 181.69731 110.798297 
L 181.812403 110.696651 
L 181.918642 110.518584 
L 182.051442 110.415424 
L 182.157681 110.231069 
L 182.219654 110.140949 
L 182.325894 109.928874 
L 182.39672 109.854578 
L 182.502959 109.743698 
L 182.582639 109.660022 
L 182.688878 109.527032 
L 182.777411 109.427058 
L 182.883651 109.24423 
L 182.98989 109.150157 
L 183.09613 108.968292 
L 183.166956 108.862556 
L 183.273196 108.735293 
L 183.344022 108.647784 
L 183.450261 108.499975 
L 183.574207 108.392244 
L 183.680447 108.201067 
L 183.751273 108.100209 
L 183.857513 107.974732 
L 183.946046 107.886917 
L 184.052285 107.679952 
L 184.114258 107.578718 
L 184.220498 107.391244 
L 184.300177 107.297181 
L 184.406417 107.120744 
L 184.486096 107.011919 
L 184.592336 106.868982 
L 184.654309 106.775622 
L 184.760548 106.63742 
L 184.849081 106.532224 
L 184.955321 106.317723 
L 185.017294 106.218262 
L 185.123533 105.982584 
L 185.220919 105.876302 
L 185.327159 105.732036 
L 185.397985 105.623587 
L 185.504225 105.360466 
L 185.592758 105.259165 
L 185.698997 105.102727 
L 185.778677 105.006862 
L 185.884916 104.778308 
L 185.929183 104.679443 
L 186.035422 104.62291 
L 186.159368 104.517165 
L 186.265608 104.326648 
L 186.327581 104.23608 
L 186.43382 104.053702 
L 186.531206 103.951181 
L 186.637446 103.779382 
L 186.743685 103.668787 
L 186.849925 103.498112 
L 186.885338 103.398199 
L 186.991578 103.216086 
L 187.044697 103.116812 
L 187.150937 102.963142 
L 187.248323 102.887758 
L 187.354562 102.58424 
L 187.460802 102.485946 
L 187.567041 102.293136 
L 187.646721 102.192911 
L 187.75296 102.060976 
L 187.841493 101.980533 
L 187.947733 101.801056 
L 187.991999 101.721134 
L 188.098239 101.502409 
L 188.177918 101.393164 
L 188.284158 101.149259 
L 188.354984 101.047908 
L 188.461224 100.895948 
L 188.549757 100.785052 
L 188.655996 100.550236 
L 188.726822 100.441571 
L 188.833062 100.248087 
L 188.903888 100.152553 
L 189.010128 100.026062 
L 189.072101 99.916643 
L 189.17834 99.758864 
L 189.222607 99.660041 
L 189.328846 99.341873 
L 189.399672 99.249554 
L 189.505912 99.086579 
L 189.594445 98.983317 
L 189.700684 98.819595 
L 189.789217 98.71794 
L 189.895457 98.567349 
L 189.975136 98.477674 
L 190.081376 98.334718 
L 190.152202 98.243941 
L 190.258442 98.079096 
L 190.311561 97.986861 
L 190.417801 97.763086 
L 190.515187 97.653462 
L 190.621427 97.50223 
L 190.709959 97.415383 
L 190.816199 97.189933 
L 190.869319 97.082739 
L 190.975558 96.88126 
L 191.019825 96.797332 
L 191.126064 96.522706 
L 191.22345 96.416561 
L 191.32969 96.14245 
L 191.427076 96.043246 
L 191.533315 95.838773 
L 191.595288 95.738685 
L 191.701528 95.56253 
L 191.816621 95.456051 
L 191.92286 95.310049 
L 192.0291 95.20235 
L 192.135339 95.010402 
L 192.197312 94.907341 
L 192.303552 94.72046 
L 192.356671 94.621232 
L 192.462911 94.389491 
L 192.498324 94.289362 
L 192.604564 94.079888 
L 192.684243 93.991928 
L 192.790483 93.827221 
L 192.852456 93.728316 
L 192.958695 93.491164 
L 193.029521 93.393564 
L 193.135761 93.191527 
L 193.206587 93.09952 
L 193.312827 92.900735 
L 193.357093 92.831587 
L 193.463333 92.572355 
L 193.551866 92.480307 
L 193.658105 92.227178 
L 193.746638 92.124737 
L 193.852877 91.930309 
L 193.914851 91.858182 
L 194.02109 91.597209 
L 194.109623 91.48943 
L 194.215862 91.377131 
L 194.268982 91.281204 
L 194.375222 91.129094 
L 194.481461 91.023747 
L 194.587701 90.851135 
L 194.649674 90.766278 
L 194.755913 90.588329 
L 194.844446 90.490824 
L 194.950685 90.36701 
L 195.012659 90.281947 
L 195.118898 90.155929 
L 195.180871 90.062912 
L 195.287111 89.844721 
L 195.357937 89.745865 
L 195.464176 89.52424 
L 195.570416 89.419472 
L 195.676655 89.204898 
L 195.765188 89.105332 
L 195.871428 88.934542 
L 195.924547 88.855549 
L 196.030787 88.631878 
L 196.09276 88.541369 
L 196.198999 88.229392 
L 196.278679 88.139492 
L 196.384918 87.962403 
L 196.446892 87.881334 
L 196.553131 87.517827 
L 196.650517 87.428134 
L 196.756757 87.272983 
L 196.836436 87.172275 
L 196.942676 86.987441 
L 197.031209 86.877293 
L 197.137448 86.621324 
L 197.225981 86.522387 
L 197.332221 86.326118 
L 197.46502 86.239828 
L 197.571259 86.062123 
L 197.606673 85.951352 
L 197.712912 85.778673 
L 197.792592 85.692064 
L 197.898831 85.423052 
L 197.925391 85.317146 
L 198.03163 85.102867 
L 198.08475 85.00788 
L 198.19099 84.72755 
L 198.252963 84.622333 
L 198.359202 84.497285 
L 198.438882 84.387746 
L 198.545121 84.118484 
L 198.615948 84.012247 
L 198.722187 83.836978 
L 198.775307 83.729282 
L 198.881546 83.543137 
L 198.987786 83.445191 
L 199.094025 83.132864 
L 199.147145 83.052164 
L 199.253385 82.83436 
L 199.341917 82.731167 
L 199.448157 82.425166 
L 199.53669 82.337448 
L 199.642929 82.130726 
L 199.678342 82.04123 
L 199.784582 81.774421 
L 199.864262 81.672809 
L 199.961648 81.486237 
L 200.050181 81.377628 
L 200.15642 81.138703 
L 200.218393 81.035399 
L 200.324633 80.851368 
L 200.368899 80.777297 
L 200.475139 80.56618 
L 200.545965 80.488673 
L 200.652204 80.270399 
L 200.705324 80.179131 
L 200.811564 79.860938 
L 200.873537 79.751262 
L 200.979776 79.461813 
L 201.032896 79.395627 
L 201.139135 79.139649 
L 201.201108 79.043422 
L 201.307348 78.73896 
L 201.387027 78.628391 
L 201.493267 78.417686 
L 201.519827 78.309392 
L 201.626066 78.116116 
L 201.670333 78.035152 
L 201.776572 77.744661 
L 201.811985 77.63629 
L 201.918225 77.342536 
L 201.980198 77.24823 
L 202.086437 77.032012 
L 202.166117 76.938947 
L 202.272357 76.72812 
L 202.33433 76.641358 
L 202.440569 76.40932 
L 202.511395 76.301145 
L 202.617635 76.061547 
L 202.661901 75.951614 
L 202.768141 75.818416 
L 202.812407 75.775198 
L 202.918647 75.507631 
L 202.962913 75.407039 
L 203.069153 75.150273 
L 203.122272 75.072884 
L 203.228512 74.816363 
L 203.308191 74.709335 
L 203.414431 74.430966 
L 203.485257 74.352731 
L 203.591497 74.074142 
L 203.62691 74.034245 
L 203.733149 73.749293 
L 203.768563 73.649721 
L 203.874802 73.42311 
L 203.954482 73.337852 
L 204.060721 73.148012 
L 204.193521 73.041097 
L 204.29976 72.78101 
L 204.361733 72.675986 
L 204.467973 72.260551 
L 204.565359 72.155548 
L 204.671598 72.054087 
L 204.733571 71.95097 
L 204.839811 71.744021 
L 204.89293 71.636604 
L 204.99917 71.273913 
L 205.061143 71.169657 
L 205.167382 70.965071 
L 205.202796 70.872174 
L 205.309035 70.639758 
L 205.371008 70.536447 
L 205.477248 70.336108 
L 205.530367 70.226635 
L 205.636607 70.045102 
L 205.67202 69.958257 
L 205.778259 69.656471 
L 205.831379 69.554596 
L 205.937619 69.397047 
L 205.955325 69.304498 
L 206.061565 69.07417 
L 206.079271 69.048957 
L 206.185511 68.68566 
L 206.229777 68.577288 
L 206.336017 68.369371 
L 206.42455 68.260772 
L 206.530789 68.01924 
L 206.583909 67.945307 
L 206.690148 67.656306 
L 206.734415 67.546813 
L 206.840654 67.315405 
L 206.884921 67.217784 
L 206.99116 66.97198 
L 207.04428 66.86955 
L 207.150519 66.778524 
L 207.194786 66.674835 
L 207.301025 66.386694 
L 207.371852 66.311812 
L 207.478091 66.183998 
L 207.522358 66.087436 
L 207.628597 65.758935 
L 207.699423 65.665689 
L 207.805663 65.456509 
L 207.849929 65.367878 
L 207.956169 65.110439 
L 208.018142 65.014214 
L 208.124381 64.819763 
L 208.212914 64.710766 
L 208.319154 64.536904 
L 208.407687 64.441796 
L 208.513926 64.186517 
L 208.540486 64.091264 
L 208.646726 63.895627 
L 208.717552 63.791443 
L 208.823791 63.633211 
L 208.903471 63.559223 
L 209.00971 63.260819 
L 209.107097 63.168138 
L 209.213336 62.87893 
L 209.257603 62.800883 
L 209.363842 62.53704 
L 209.452375 62.428219 
L 209.558614 62.160541 
L 209.602881 62.062332 
L 209.70912 61.737455 
L 209.744534 61.638973 
L 209.850773 61.433937 
L 209.903893 61.343621 
L 210.010132 61.043411 
L 210.134078 60.939548 
L 210.240318 60.610395 
L 210.311144 60.500034 
L 210.417384 60.313052 
L 210.470503 60.221254 
L 210.576743 59.985114 
L 210.621009 59.883037 
L 210.727249 59.686551 
L 210.815782 59.575994 
L 210.922021 59.36689 
L 210.939728 59.357242 
L 211.045967 59.058044 
L 211.116794 58.949538 
L 211.223033 58.831636 
L 211.258446 58.730122 
L 211.364686 58.416688 
L 211.382392 58.335193 
L 211.488632 58.186649 
L 211.532898 58.087985 
L 211.639138 57.916525 
L 211.692257 57.819412 
L 211.736524 57.702486 
L 211.825057 57.637743 
L 211.931296 57.23108 
L 211.993269 57.135774 
L 212.099509 56.884394 
L 212.170335 56.780972 
L 212.276575 56.460611 
L 212.303134 56.398085 
L 212.409374 55.960723 
L 212.462494 55.885498 
L 212.568733 55.680375 
L 212.621853 55.572529 
L 212.728092 55.240198 
L 212.772359 55.161402 
L 212.878598 54.901518 
L 212.958278 54.803874 
L 213.064517 54.424643 
L 213.161904 54.317221 
L 213.268143 54.024885 
L 213.365529 53.927174 
L 213.471769 53.645799 
L 213.542595 53.537124 
L 213.648835 53.340056 
L 213.710808 53.251264 
L 213.817047 53.033962 
L 213.85246 52.984209 
L 213.9587 52.529638 
L 214.029526 52.473238 
L 214.135765 52.208469 
L 214.188885 52.120091 
L 214.295125 51.817108 
L 214.383658 51.720349 
L 214.489897 51.339363 
L 214.534164 51.233214 
L 214.640403 51.026946 
L 214.711229 50.922 
L 214.817469 50.707762 
L 214.844029 50.599621 
L 214.950268 50.279577 
L 215.003388 50.205085 
L 215.109627 49.772101 
L 215.153894 49.70631 
L 215.260133 49.424755 
L 215.295547 49.33563 
L 215.401786 49.10662 
L 215.419493 49.079838 
L 215.525732 48.749183 
L 215.552292 48.66709 
L 215.658531 48.463702 
L 215.738211 48.377005 
L 215.844451 48.206802 
L 215.888717 48.09659 
L 215.994956 47.786716 
L 216.056929 47.697256 
L 216.163169 47.282952 
L 216.216289 47.191929 
L 216.322528 46.917129 
L 216.375648 46.8317 
L 216.481887 46.305614 
L 216.517301 46.201539 
L 216.614687 45.96568 
L 216.765193 45.854752 
L 216.871432 45.645955 
L 216.933405 45.551818 
L 217.013085 45.352324 
L 217.119324 45.246194 
L 217.225564 45.03375 
L 217.278684 44.926828 
L 217.384923 44.692587 
L 217.411483 44.616364 
L 217.429189 44.505097 
L 217.561989 44.444189 
L 217.668228 44.26074 
L 217.721348 44.169444 
L 217.827588 43.95407 
L 217.889561 43.875302 
L 217.9958 43.621504 
L 218.04892 43.535332 
L 218.155159 43.289973 
L 218.190572 43.221733 
L 218.296812 42.939845 
L 218.349932 42.829509 
L 218.456171 42.619543 
L 218.491584 42.538955 
L 218.571264 42.264986 
L 218.677503 42.21054 
L 218.783743 41.87698 
L 218.872276 41.766068 
L 218.978515 41.569132 
L 219.049342 41.482224 
L 219.137874 41.28573 
L 219.252967 41.176028 
L 219.359207 40.927087 
L 219.438886 40.816501 
L 219.545126 40.50563 
L 219.651365 40.406281 
L 219.757605 40.12725 
L 219.801871 40.040405 
L 219.908111 39.563287 
L 220.032057 39.456147 
L 220.138296 39.023645 
L 220.200269 38.914065 
L 220.306509 38.539855 
L 220.439308 38.435564 
L 220.545548 37.963408 
L 220.589814 37.86892 
L 220.696054 37.726191 
L 220.74032 37.616338 
L 220.84656 37.278522 
L 220.908533 37.179152 
L 221.014772 36.890469 
L 221.041332 36.784785 
L 221.147571 36.536527 
L 221.191838 36.439231 
L 221.209544 36.382972 
L 221.351197 36.274271 
L 221.457437 36.066936 
L 221.49285 35.971744 
L 221.581383 35.719236 
L 221.740742 35.647213 
L 221.846981 35.539162 
L 221.873541 35.465705 
L 221.979781 35.17752 
L 222.015194 35.077923 
L 222.121433 34.84111 
L 222.236526 34.739557 
L 222.342766 34.267005 
L 222.404739 34.157555 
L 222.466712 33.822566 
L 222.555245 33.749454 
L 222.661484 33.259802 
L 222.723457 33.161268 
L 222.829697 32.829921 
L 222.882816 32.774479 
L 222.989056 32.382159 
L 223.024469 32.286414 
L 223.095295 31.948317 
L 223.192681 31.88267 
L 223.298921 31.518454 
L 223.360894 31.418671 
L 223.378601 31.253477 
L 223.56452 31.158665 
L 223.670759 30.7602 
L 223.723879 30.696055 
L 223.830118 30.182878 
L 223.883238 30.080355 
L 223.989478 29.594058 
L 224.042597 29.484334 
L 224.148837 29.117065 
L 224.21081 29.027103 
L 224.317049 28.751732 
L 224.361316 28.659853 
L 224.467555 28.251601 
L 224.502968 28.196678 
L 224.591501 27.700105 
L 224.626914 27.700105 
L 224.733154 27.261839 
L 224.786274 27.162352 
L 224.892513 26.880949 
L 224.972193 26.781782 
L 225.078432 26.558991 
L 225.131552 26.488834 
L 225.211232 26.205886 
L 225.290911 26.121295 
L 225.388297 25.783107 
L 225.467977 25.674814 
L 225.574217 25.431123 
L 225.653896 25.321699 
L 225.760136 24.834746 
L 225.804402 24.753366 
L 225.910642 24.516915 
L 225.999174 24.407032 
L 226.105414 24.116745 
L 226.2028 24.010201 
L 226.30904 23.75058 
L 226.362159 23.640132 
L 226.468399 23.324051 
L 226.512665 23.25089 
L 226.618905 22.922363 
L 226.663171 22.843624 
L 226.769411 22.486817 
L 226.804824 22.436405 
L 226.911063 21.963608 
L 226.946476 21.890044 
L 227.043863 21.489915 
L 227.079276 21.452072 
L 227.185515 21.028386 
L 227.220928 20.949036 
L 227.327168 20.585817 
L 227.362581 20.483026 
L 227.468821 20.108875 
L 227.49538 20.061664 
L 227.60162 19.754153 
L 227.62818 19.730831 
L 227.734419 19.389232 
L 227.831806 19.285481 
L 227.938045 18.73934 
L 228.017725 18.681074 
L 228.123964 18.252837 
L 228.19479 18.147549 
L 228.265617 17.801568 
L 228.363003 17.73091 
L 228.469242 17.394853 
L 228.495802 17.294022 
L 228.602042 16.922852 
L 228.664015 16.832182 
L 228.770254 16.334553 
L 228.814521 16.231707 
L 228.92076 15.686221 
L 229.009293 15.610816 
L 229.115533 15.221109 
L 229.150946 15.115961 
L 229.212919 14.748324 
L 229.354571 14.704729 
L 229.460811 14.511917 
L 229.513931 14.430022 
L 229.62017 13.778029 
L 229.637877 13.768888 
L 229.744116 12.991467 
L 229.797236 12.899253 
L 229.903475 12.609661 
L 230.009715 12.516108 
L 230.115954 12.184583 
L 230.169074 12.160558 
L 230.275314 11.919416 
L 230.310727 11.84688 
L 230.390406 11.448782 
L 230.443526 11.348658 
L 230.549766 10.99872 
L 230.594032 10.892519 
L 230.682565 10.44438 
L 230.824218 10.388113 
L 230.930457 10.027514 
L 230.948164 9.935706 
L 231.054403 9.848778 
L 231.09867 9.848778 
L 231.160643 9.517821 
L 231.284589 9.456215 
L 231.390828 8.464649 
L 231.417388 8.422635 
L 231.514774 7.972333 
L 231.594454 7.965092 
L 231.69184 7.634426 
L 231.753813 7.62735 
L 231.824639 7.08027 
L 231.868906 7.08027 
L 231.922026 -1 
L 231.922026 -1 
" clip-path="url(#pab58c76013)" style="fill: none; stroke: #67c7d5; stroke-width: 1.5; stroke-linecap: square"/>
   </g>
   <g id="line2d_14">
    <path d="M 56.077974 191.434842 
L 56.086828 191.434842 
L 56.193067 182.631938 
L 57.317435 182.521311 
L 57.423674 182.506826 
L 58.238177 182.39572 
L 58.344417 182.375667 
L 59.034973 182.267116 
L 59.141213 182.234768 
L 59.690117 182.125646 
L 59.796356 182.088382 
L 60.159341 181.977823 
L 60.265581 181.945937 
L 60.779072 181.836886 
L 60.885311 181.811484 
L 61.283709 181.700698 
L 61.389949 181.650998 
L 61.708667 181.541903 
L 61.814906 181.484063 
L 62.213305 181.373894 
L 62.319544 181.347793 
L 62.691382 181.23698 
L 62.797622 181.194204 
L 63.11634 181.083855 
L 63.22258 181.031197 
L 63.567858 180.921372 
L 63.674097 180.881316 
L 64.054789 180.77521 
L 64.161028 180.7087 
L 64.364654 180.605996 
L 64.470894 180.556197 
L 64.798465 180.448681 
L 64.904705 180.397208 
L 65.232277 180.28617 
L 65.338516 180.247784 
L 65.621821 180.140175 
L 65.728061 180.058325 
L 65.984806 179.948746 
L 66.091046 179.928353 
L 66.347791 179.818192 
L 66.454031 179.772223 
L 66.746189 179.662663 
L 66.852429 179.592788 
L 67.215414 179.488351 
L 67.321653 179.427734 
L 67.551839 179.31803 
L 67.658078 179.273603 
L 67.967943 179.166153 
L 68.074183 179.118506 
L 68.481434 179.010708 
L 68.587674 178.970783 
L 68.862126 178.864111 
L 68.968365 178.791826 
L 69.242817 178.680857 
L 69.349056 178.631432 
L 69.588095 178.522165 
L 69.694335 178.486931 
L 69.97764 178.377177 
L 70.08388 178.328561 
L 70.340625 178.22187 
L 70.446864 178.155823 
L 70.67705 178.048137 
L 70.78329 178.003181 
L 71.040035 177.901739 
L 71.146274 177.841347 
L 71.394167 177.7303 
L 71.500406 177.702919 
L 71.712885 177.592271 
L 71.819124 177.526702 
L 72.040457 177.420348 
L 72.146696 177.354134 
L 72.421148 177.248883 
L 72.527388 177.199985 
L 72.72216 177.093079 
L 72.8284 177.063879 
L 73.005465 176.95318 
L 73.111705 176.890493 
L 73.39501 176.78499 
L 73.50125 176.740935 
L 73.616342 176.631343 
L 73.722582 176.609518 
L 73.908501 176.500154 
L 74.01474 176.448212 
L 74.271486 176.337243 
L 74.377725 176.236672 
L 74.71415 176.125842 
L 74.82039 176.081627 
L 75.068282 175.971458 
L 75.174521 175.926097 
L 75.369294 175.815393 
L 75.475533 175.757813 
L 75.652599 175.652626 
L 75.758839 175.569969 
L 75.997877 175.463224 
L 76.104117 175.414326 
L 76.343156 175.303737 
L 76.449395 175.245363 
L 76.617608 175.141595 
L 76.723847 175.09576 
L 76.962886 174.98483 
L 77.069126 174.935959 
L 77.352431 174.825686 
L 77.45867 174.792511 
L 77.609176 174.682221 
L 77.715416 174.606225 
L 77.910188 174.495322 
L 78.016428 174.426759 
L 78.202347 174.316695 
L 78.308586 174.247519 
L 78.556478 174.141198 
L 78.662718 174.091634 
L 78.875197 173.980965 
L 78.981436 173.90029 
L 79.149649 173.79081 
L 79.255888 173.73903 
L 79.486074 173.62904 
L 79.592313 173.54533 
L 79.787086 173.437263 
L 79.893325 173.39338 
L 80.096951 173.284674 
L 80.20319 173.237659 
L 80.451082 173.1267 
L 80.557322 173.067192 
L 80.734388 172.980447 
L 80.840627 172.899864 
L 81.123933 172.797846 
L 81.230172 172.747851 
L 81.460358 172.637697 
L 81.566597 172.58394 
L 81.761369 172.479474 
L 81.867609 172.423317 
L 82.115501 172.313952 
L 82.221741 172.211888 
L 82.398806 172.113929 
L 82.505046 172.035022 
L 82.761791 171.926847 
L 82.868031 171.851802 
L 83.071656 171.75316 
L 83.177896 171.652137 
L 83.354962 171.545158 
L 83.461201 171.456095 
L 83.655974 171.345692 
L 83.762213 171.285729 
L 83.921572 171.177508 
L 84.027812 171.117147 
L 84.204878 171.010353 
L 84.311117 170.94032 
L 84.461623 170.851825 
L 84.567862 170.750909 
L 84.780341 170.647079 
L 84.886581 170.593244 
L 85.09906 170.504784 
L 85.205299 170.415276 
L 85.408925 170.31037 
L 85.515165 170.239059 
L 85.647964 170.153024 
L 85.754203 170.05763 
L 85.993242 169.948189 
L 86.099482 169.913758 
L 86.285401 169.808557 
L 86.39164 169.729817 
L 86.621826 169.620377 
L 86.728065 169.560084 
L 86.905131 169.455113 
L 87.011371 169.373988 
L 87.214996 169.266944 
L 87.321236 169.184999 
L 87.507155 169.075131 
L 87.613394 169.025272 
L 87.7639 168.933715 
L 87.87014 168.861677 
L 88.233125 168.751271 
L 88.339364 168.685912 
L 88.587256 168.577077 
L 88.693496 168.509658 
L 88.879415 168.400454 
L 88.985654 168.350624 
L 89.251253 168.242026 
L 89.357492 168.142852 
L 89.543412 168.036982 
L 89.649651 167.972157 
L 89.80901 167.861639 
L 89.91525 167.79777 
L 90.154289 167.699916 
L 90.260528 167.609543 
L 90.499567 167.503042 
L 90.605806 167.45475 
L 90.791726 167.352812 
L 90.897965 167.306871 
L 91.190124 167.202857 
L 91.296363 167.131117 
L 91.455722 167.02028 
L 91.561962 166.972687 
L 91.792147 166.868649 
L 91.898387 166.808526 
L 92.031186 166.716077 
L 92.137426 166.632135 
L 92.358758 166.522382 
L 92.464997 166.465423 
L 92.642063 166.358273 
L 92.748303 166.302219 
L 93.005048 166.194326 
L 93.111288 166.136056 
L 93.25294 166.029159 
L 93.35918 165.964826 
L 93.669045 165.855102 
L 93.775284 165.785032 
L 93.970057 165.675266 
L 94.076296 165.607804 
L 94.226802 165.498715 
L 94.333042 165.412362 
L 94.545521 165.307586 
L 94.65176 165.248127 
L 94.864239 165.140985 
L 94.970479 165.056032 
L 95.129838 164.949754 
L 95.236077 164.870995 
L 95.475116 164.762393 
L 95.581356 164.687216 
L 95.731861 164.579811 
L 95.838101 164.522659 
L 96.05058 164.414874 
L 96.156819 164.356508 
L 96.325032 164.246267 
L 96.431271 164.166018 
L 96.608337 164.057597 
L 96.714577 163.974881 
L 96.873936 163.877052 
L 96.980175 163.769919 
L 97.112975 163.665921 
L 97.219214 163.562439 
L 97.440546 163.45151 
L 97.546786 163.407563 
L 97.741558 163.30439 
L 97.847798 163.182566 
L 98.024864 163.074373 
L 98.131103 163.00074 
L 98.361289 162.890306 
L 98.467528 162.834556 
L 98.697714 162.724293 
L 98.803953 162.601625 
L 98.972166 162.495568 
L 99.078405 162.413497 
L 99.290884 162.308418 
L 99.397124 162.235045 
L 99.653869 162.124134 
L 99.760109 162.066546 
L 100.043414 161.961841 
L 100.149653 161.858134 
L 100.317866 161.748202 
L 100.424105 161.68344 
L 100.618878 161.576899 
L 100.725117 161.534925 
L 101.008422 161.425662 
L 101.114662 161.360461 
L 101.300581 161.25162 
L 101.406821 161.209596 
L 101.654713 161.100588 
L 101.760952 161.038199 
L 101.991138 160.927769 
L 102.097377 160.849529 
L 102.371829 160.743248 
L 102.478069 160.678241 
L 102.575455 160.576796 
L 102.681694 160.491982 
L 102.88532 160.385048 
L 102.991559 160.323356 
L 103.221745 160.217397 
L 103.327985 160.165994 
L 103.496197 160.055414 
L 103.602437 159.974828 
L 103.814915 159.870305 
L 103.921155 159.807691 
L 104.107074 159.698149 
L 104.213314 159.635097 
L 104.372673 159.526666 
L 104.478912 159.48235 
L 104.629418 159.372992 
L 104.735658 159.303304 
L 104.965843 159.198189 
L 105.072083 159.114537 
L 105.240295 159.004082 
L 105.346535 158.935749 
L 105.567867 158.82503 
L 105.674106 158.781612 
L 105.842319 158.67388 
L 105.948558 158.594114 
L 106.205304 158.483904 
L 106.311543 158.434453 
L 106.470903 158.327921 
L 106.577142 158.245388 
L 106.780768 158.140127 
L 106.887007 158.038874 
L 107.108339 157.928806 
L 107.214579 157.862625 
L 107.471324 157.753885 
L 107.577564 157.668214 
L 107.825456 157.560575 
L 107.931695 157.520548 
L 108.099908 157.418783 
L 108.206147 157.340901 
L 108.445186 157.233659 
L 108.551426 157.169142 
L 108.763905 157.060311 
L 108.870144 157.007594 
L 109.064917 156.902786 
L 109.171156 156.835036 
L 109.321662 156.729673 
L 109.427902 156.646166 
L 109.569554 156.54097 
L 109.675794 156.48261 
L 109.77318 156.384681 
L 109.879419 156.300365 
L 110.003365 156.189402 
L 110.109605 156.103907 
L 110.322084 156.007067 
L 110.428323 155.911181 
L 110.561123 155.806447 
L 110.667362 155.70755 
L 110.870988 155.601154 
L 110.977227 155.53044 
L 111.180853 155.427548 
L 111.287092 155.375901 
L 111.473012 155.2678 
L 111.579251 155.19136 
L 111.782877 155.080944 
L 111.889116 155.034997 
L 112.101595 154.931864 
L 112.207835 154.842352 
L 112.429167 154.732945 
L 112.535406 154.694517 
L 112.721325 154.583522 
L 112.827565 154.512267 
L 113.11087 154.401956 
L 113.21711 154.337592 
L 113.358762 154.230704 
L 113.465002 154.172017 
L 113.615508 154.073118 
L 113.721747 154.008499 
L 113.88996 153.901627 
L 113.996199 153.824781 
L 114.190972 153.714369 
L 114.297211 153.639224 
L 114.45657 153.553357 
L 114.56281 153.446036 
L 114.801849 153.335409 
L 114.908088 153.263234 
L 115.058594 153.153657 
L 115.164834 153.07356 
L 115.368459 152.96475 
L 115.474699 152.873157 
L 115.687178 152.778617 
L 115.793417 152.706117 
L 115.997043 152.59526 
L 116.103282 152.491533 
L 116.253788 152.385248 
L 116.360028 152.332998 
L 116.599067 152.223319 
L 116.705306 152.127532 
L 116.953198 152.021792 
L 117.059438 151.961433 
L 117.236504 151.856041 
L 117.342743 151.764293 
L 117.519809 151.654889 
L 117.626048 151.60139 
L 117.9005 151.493463 
L 118.00674 151.431795 
L 118.245779 151.320802 
L 118.352018 151.25931 
L 118.511377 151.154692 
L 118.617617 151.102186 
L 118.865509 150.991174 
L 118.971748 150.941702 
L 119.228494 150.839745 
L 119.334733 150.763719 
L 119.538359 150.654829 
L 119.644598 150.543474 
L 119.812811 150.432913 
L 119.91905 150.373725 
L 120.10497 150.268562 
L 120.211209 150.168704 
L 120.405981 150.058849 
L 120.512221 149.987274 
L 120.706993 149.880547 
L 120.813233 149.816375 
L 120.999152 149.708512 
L 121.105391 149.627637 
L 121.273604 149.517044 
L 121.379843 149.454305 
L 121.556909 149.348923 
L 121.663149 149.26532 
L 121.893334 149.156522 
L 121.999574 149.067939 
L 122.176639 148.961192 
L 122.282879 148.901887 
L 122.459945 148.805828 
L 122.566184 148.738593 
L 122.760957 148.632611 
L 122.867196 148.586577 
L 123.061969 148.476922 
L 123.168208 148.422854 
L 123.283301 148.325746 
L 123.38954 148.268202 
L 123.610873 148.157643 
L 123.717112 148.093464 
L 123.965004 147.983452 
L 124.071244 147.912206 
L 124.230603 147.803204 
L 124.336842 147.75017 
L 124.434229 147.652976 
L 124.540468 147.558925 
L 124.81492 147.451552 
L 124.921159 147.373435 
L 125.151345 147.264036 
L 125.257585 147.160603 
L 125.585156 147.050673 
L 125.691396 146.901278 
L 125.806489 146.800379 
L 125.912728 146.743184 
L 126.142914 146.637741 
L 126.249153 146.548359 
L 126.523605 146.439318 
L 126.629844 146.369756 
L 126.83347 146.261787 
L 126.93971 146.184592 
L 127.161042 146.082632 
L 127.267281 146.015125 
L 127.435494 145.904807 
L 127.541733 145.83169 
L 127.665679 145.726623 
L 127.771919 145.644402 
L 127.957838 145.53966 
L 128.064078 145.475211 
L 128.28541 145.368136 
L 128.391649 145.300412 
L 128.595275 145.19113 
L 128.701514 145.120911 
L 128.896287 145.014828 
L 129.002526 144.975742 
L 129.241565 144.86816 
L 129.347805 144.769956 
L 129.55143 144.663811 
L 129.65767 144.57623 
L 129.834736 144.467016 
L 129.940975 144.400715 
L 130.153454 144.298543 
L 130.259694 144.209446 
L 130.498732 144.099405 
L 130.604972 144.011471 
L 130.835157 143.900856 
L 130.941397 143.849081 
L 131.171582 143.746693 
L 131.277822 143.652593 
L 131.446034 143.551888 
L 131.552274 143.446563 
L 131.72934 143.344254 
L 131.835579 143.283027 
L 132.048058 143.173688 
L 132.154298 143.127198 
L 132.304804 143.03694 
L 132.411043 142.960385 
L 132.632375 142.853677 
L 132.738615 142.74338 
L 132.915681 142.633415 
L 133.02192 142.570826 
L 133.296372 142.463288 
L 133.402612 142.402075 
L 133.579677 142.293483 
L 133.685917 142.200438 
L 133.880689 142.089864 
L 133.986929 142.020678 
L 134.190554 141.917854 
L 134.296794 141.830059 
L 134.438447 141.745455 
L 134.544686 141.629761 
L 134.801431 141.521691 
L 134.907671 141.434091 
L 135.14671 141.331613 
L 135.252949 141.27735 
L 135.447722 141.168109 
L 135.553961 141.081554 
L 135.731027 140.975955 
L 135.837266 140.915836 
L 136.032039 140.805029 
L 136.138278 140.719675 
L 136.324197 140.608938 
L 136.430437 140.569328 
L 136.563236 140.46402 
L 136.669476 140.411222 
L 136.952781 140.301791 
L 137.05902 140.230107 
L 137.200673 140.119218 
L 137.306913 140.056991 
L 137.430859 139.951743 
L 137.537098 139.896314 
L 137.723017 139.789294 
L 137.829257 139.649779 
L 138.024029 139.541465 
L 138.130269 139.453228 
L 138.298481 139.343039 
L 138.404721 139.252901 
L 138.599493 139.145456 
L 138.705732 139.033983 
L 138.944771 138.924863 
L 139.051011 138.874049 
L 139.228077 138.767792 
L 139.334316 138.669691 
L 139.529088 138.560741 
L 139.635328 138.47727 
L 139.794687 138.374902 
L 139.900927 138.266415 
L 140.104552 138.161031 
L 140.210792 138.084243 
L 140.414417 137.977144 
L 140.520657 137.930654 
L 140.706576 137.823451 
L 140.812816 137.765432 
L 140.981028 137.654919 
L 141.087268 137.58997 
L 141.3086 137.48347 
L 141.414839 137.419642 
L 141.653878 137.314023 
L 141.760118 137.232333 
L 141.972597 137.126467 
L 142.078836 137.039349 
L 142.326728 136.929199 
L 142.432968 136.832263 
L 142.583474 136.721486 
L 142.689713 136.654195 
L 142.866779 136.551377 
L 142.973018 136.499727 
L 143.114671 136.403555 
L 143.22091 136.31414 
L 143.38027 136.20689 
L 143.486509 136.165534 
L 143.637015 136.057184 
L 143.743255 135.968303 
L 143.964587 135.858937 
L 144.070826 135.804603 
L 144.292159 135.695505 
L 144.398398 135.56894 
L 144.522344 135.477007 
L 144.628584 135.409858 
L 144.823356 135.30024 
L 144.929595 135.192351 
L 145.106661 135.082897 
L 145.212901 135.024954 
L 145.381113 134.946981 
L 145.487353 134.857747 
L 145.690978 134.757602 
L 145.797218 134.67666 
L 146.000844 134.57864 
L 146.107083 134.48153 
L 146.390388 134.374916 
L 146.496628 134.28644 
L 146.66484 134.179702 
L 146.77108 134.117274 
L 146.921586 134.015829 
L 147.027825 133.919645 
L 147.240304 133.817672 
L 147.346544 133.735992 
L 147.49705 133.631953 
L 147.603289 133.551889 
L 147.798062 133.443094 
L 147.904301 133.375043 
L 148.152193 133.264964 
L 148.258433 133.153341 
L 148.400085 133.046025 
L 148.506325 132.982906 
L 148.754217 132.871949 
L 148.860456 132.828115 
L 149.099495 132.717656 
L 149.205735 132.66153 
L 149.480187 132.556568 
L 149.586426 132.455089 
L 149.754639 132.348286 
L 149.860878 132.263201 
L 149.993678 132.154998 
L 150.099917 132.099887 
L 150.21501 131.990748 
L 150.321249 131.908819 
L 150.471755 131.800154 
L 150.577995 131.717688 
L 150.746207 131.614912 
L 150.852447 131.545216 
L 151.020659 131.446052 
L 151.126899 131.389768 
L 151.312818 131.28723 
L 151.419057 131.178597 
L 151.61383 131.087629 
L 151.720069 131.03037 
L 151.870575 130.935131 
L 151.976815 130.872174 
L 152.189293 130.764538 
L 152.295533 130.663444 
L 152.410626 130.556957 
L 152.516865 130.470756 
L 152.623105 130.359728 
L 152.729344 130.276665 
L 152.95953 130.166601 
L 153.065769 130.077954 
L 153.251688 129.969829 
L 153.357928 129.934941 
L 153.52614 129.833396 
L 153.63238 129.744835 
L 153.809446 129.637058 
L 153.915685 129.555961 
L 154.145871 129.448808 
L 154.25211 129.365772 
L 154.384909 129.255304 
L 154.491149 129.183467 
L 154.685921 129.074937 
L 154.792161 129.008273 
L 154.986933 128.900492 
L 155.093173 128.796103 
L 155.296798 128.688673 
L 155.403038 128.623337 
L 155.544691 128.528739 
L 155.65093 128.439987 
L 155.889969 128.332348 
L 155.996208 128.186593 
L 156.199834 128.081678 
L 156.306073 127.987977 
L 156.465433 127.900686 
L 156.571672 127.781228 
L 156.739885 127.672406 
L 156.846124 127.56169 
L 157.067456 127.451043 
L 157.173696 127.383026 
L 157.324202 127.274076 
L 157.430441 127.209169 
L 157.572094 127.105732 
L 157.678333 127.001652 
L 157.828839 126.897251 
L 157.935079 126.814955 
L 158.050172 126.704592 
L 158.156411 126.61107 
L 158.298064 126.503157 
L 158.404303 126.397416 
L 158.572516 126.297384 
L 158.678755 126.211166 
L 158.838114 126.101073 
L 158.944354 126.042931 
L 159.130273 125.937448 
L 159.236513 125.84007 
L 159.395872 125.729325 
L 159.502111 125.618332 
L 159.71459 125.507533 
L 159.82083 125.448136 
L 159.935922 125.340479 
L 160.042162 125.248386 
L 160.192668 125.141875 
L 160.298907 125.055359 
L 160.475973 124.948641 
L 160.582213 124.846784 
L 160.679599 124.760293 
L 160.785838 124.664807 
L 160.962904 124.554103 
L 161.069144 124.455741 
L 161.201943 124.345856 
L 161.308182 124.282241 
L 161.520661 124.178117 
L 161.626901 124.109687 
L 161.883646 124.003039 
L 161.989886 123.930915 
L 162.104979 123.830585 
L 162.211218 123.74055 
L 162.388284 123.630497 
L 162.494523 123.540521 
L 162.653883 123.43371 
L 162.760122 123.328169 
L 162.892921 123.228416 
L 162.999161 123.127935 
L 163.176227 123.022653 
L 163.282466 122.941925 
L 163.530358 122.834653 
L 163.636598 122.7516 
L 163.813664 122.648039 
L 163.919903 122.570484 
L 164.052702 122.462093 
L 164.158942 122.352902 
L 164.353714 122.243963 
L 164.459954 122.157907 
L 164.61046 122.048375 
L 164.716699 121.978595 
L 164.946885 121.873166 
L 165.053124 121.804801 
L 165.212483 121.718936 
L 165.318723 121.609602 
L 165.451522 121.506762 
L 165.557762 121.38409 
L 165.743681 121.273341 
L 165.84992 121.212932 
L 166.026986 121.10413 
L 166.133226 121.032121 
L 166.274878 120.926564 
L 166.381118 120.832931 
L 166.52277 120.747808 
L 166.62901 120.579751 
L 166.761809 120.47132 
L 166.868049 120.377545 
L 167.009701 120.27994 
L 167.115941 120.141285 
L 167.239887 120.033752 
L 167.346126 119.93123 
L 167.452366 119.827798 
L 167.558605 119.709998 
L 167.717965 119.602963 
L 167.824204 119.471195 
L 168.02783 119.371646 
L 168.134069 119.288886 
L 168.258015 119.178491 
L 168.364255 119.030065 
L 168.505907 118.932326 
L 168.612147 118.8275 
L 168.780359 118.724243 
L 168.886599 118.616984 
L 169.001692 118.534819 
L 169.107931 118.396974 
L 169.258437 118.293509 
L 169.364677 118.200512 
L 169.550596 118.091003 
L 169.656835 117.983183 
L 169.860461 117.88026 
L 169.9667 117.757252 
L 170.12606 117.658487 
L 170.232299 117.561807 
L 170.382805 117.456824 
L 170.489044 117.367847 
L 170.683817 117.273211 
L 170.790056 117.139622 
L 170.914002 117.032298 
L 171.020242 116.938818 
L 171.108775 116.833847 
L 171.215014 116.756779 
L 171.356667 116.650523 
L 171.462906 116.594639 
L 171.693092 116.48509 
L 171.799331 116.379945 
L 171.994104 116.276536 
L 172.100343 116.197315 
L 172.180023 116.090318 
L 172.286262 116.027008 
L 172.454475 115.928517 
L 172.560714 115.839272 
L 172.73778 115.730453 
L 172.84402 115.658292 
L 172.950259 115.577822 
L 173.056499 115.419177 
L 173.277831 115.308362 
L 173.38407 115.229254 
L 173.534576 115.120509 
L 173.640816 115.04241 
L 173.764762 114.931584 
L 173.871001 114.875516 
L 173.994947 114.767521 
L 174.101187 114.663543 
L 174.278253 114.557502 
L 174.384492 114.486029 
L 174.526145 114.37915 
L 174.632384 114.253648 
L 174.738624 114.143732 
L 174.844863 114.100209 
L 174.942249 113.996502 
L 175.048489 113.899573 
L 175.225555 113.7944 
L 175.331794 113.713343 
L 175.45574 113.605216 
L 175.56198 113.523631 
L 175.721339 113.420996 
L 175.827579 113.352648 
L 176.031204 113.25026 
L 176.137444 113.135882 
L 176.296803 113.03232 
L 176.403042 112.892462 
L 176.571255 112.786831 
L 176.677494 112.709849 
L 176.810294 112.605313 
L 176.916533 112.499494 
L 177.040479 112.392229 
L 177.146719 112.326635 
L 177.306078 112.222385 
L 177.412317 112.150751 
L 177.624796 112.041705 
L 177.731036 111.957064 
L 177.899248 111.853092 
L 178.005488 111.730775 
L 178.164847 111.624954 
L 178.271087 111.504062 
L 178.439299 111.413313 
L 178.545539 111.294651 
L 178.713751 111.202569 
L 178.819991 111.089266 
L 179.041323 110.9782 
L 179.147562 110.864996 
L 179.342335 110.760584 
L 179.448574 110.663244 
L 179.59908 110.566274 
L 179.70532 110.415439 
L 179.882385 110.30539 
L 179.988625 110.213072 
L 180.130278 110.102868 
L 180.236517 110.040412 
L 180.32505 109.945386 
L 180.431289 109.846784 
L 180.555236 109.74382 
L 180.661475 109.666357 
L 180.838541 109.555779 
L 180.94478 109.449377 
L 181.166113 109.339918 
L 181.272352 109.279483 
L 181.414005 109.170773 
L 181.520244 109.028918 
L 181.661897 108.925931 
L 181.768136 108.803489 
L 181.909789 108.700686 
L 182.016028 108.62104 
L 182.184241 108.512852 
L 182.29048 108.40561 
L 182.432133 108.314256 
L 182.538373 108.165768 
L 182.662319 108.059379 
L 182.768558 107.991107 
L 182.919064 107.880416 
L 183.025303 107.780383 
L 183.158103 107.677333 
L 183.264342 107.558528 
L 183.441408 107.45174 
L 183.547648 107.360704 
L 183.680447 107.252273 
L 183.786686 107.142342 
L 183.999165 107.033214 
L 184.105405 106.92131 
L 184.202791 106.821426 
L 184.309031 106.671009 
L 184.486096 106.56601 
L 184.592336 106.452181 
L 184.698575 106.35375 
L 184.804815 106.19896 
L 184.928761 106.097183 
L 185.035 105.980694 
L 185.176653 105.870178 
L 185.282893 105.787304 
L 185.451105 105.686591 
L 185.557345 105.588163 
L 185.672437 105.48404 
L 185.778677 105.373328 
L 185.84065 105.27531 
L 185.946889 105.17454 
L 186.053129 105.065267 
L 186.159368 104.98867 
L 186.318727 104.886669 
L 186.424967 104.803822 
L 186.548913 104.697252 
L 186.655152 104.596479 
L 186.805658 104.489479 
L 186.911898 104.376668 
L 186.991578 104.277606 
L 187.097817 104.176397 
L 187.274883 104.068207 
L 187.381122 103.96287 
L 187.513922 103.877967 
L 187.620161 103.759514 
L 187.761814 103.652204 
L 187.868053 103.570316 
L 188.009706 103.475989 
L 188.115945 103.376598 
L 188.248745 103.265785 
L 188.354984 103.18599 
L 188.514343 103.075565 
L 188.620583 102.994568 
L 188.771089 102.886476 
L 188.877328 102.791226 
L 189.010128 102.688177 
L 189.116367 102.598816 
L 189.240313 102.507231 
L 189.346553 102.337313 
L 189.488205 102.236278 
L 189.594445 102.141078 
L 189.744951 102.035133 
L 189.85119 101.933587 
L 189.98399 101.832229 
L 190.090229 101.746412 
L 190.187615 101.649748 
L 190.293855 101.531901 
L 190.453214 101.423065 
L 190.559454 101.280915 
L 190.718813 101.176396 
L 190.825052 101.061641 
L 190.984411 100.953214 
L 191.090651 100.816124 
L 191.19689 100.710576 
L 191.30313 100.606282 
L 191.480196 100.503814 
L 191.586435 100.353918 
L 191.754648 100.247139 
L 191.860887 100.127722 
L 191.94942 100.016902 
L 192.05566 99.903976 
L 192.144192 99.799568 
L 192.250432 99.678134 
L 192.374378 99.578254 
L 192.480617 99.426632 
L 192.631123 99.322666 
L 192.737363 99.208302 
L 192.870162 99.099251 
L 192.976402 98.992649 
L 193.073788 98.889685 
L 193.180027 98.732864 
L 193.330533 98.633508 
L 193.436773 98.478036 
L 193.534159 98.382125 
L 193.640399 98.2281 
L 193.764345 98.119446 
L 193.870584 97.97878 
L 193.96797 97.870137 
L 194.07421 97.728651 
L 194.233569 97.619637 
L 194.339808 97.548663 
L 194.437195 97.445779 
L 194.543434 97.329424 
L 194.64082 97.240918 
L 194.74706 97.057905 
L 194.853299 96.954232 
L 194.959539 96.786915 
L 195.039218 96.679767 
L 195.145458 96.547276 
L 195.287111 96.466243 
L 195.39335 96.325857 
L 195.499589 96.256039 
L 195.605829 96.089322 
L 195.782895 95.988137 
L 195.889134 95.859331 
L 196.01308 95.753763 
L 196.11932 95.657605 
L 196.216706 95.565364 
L 196.322945 95.438343 
L 196.429185 95.337032 
L 196.535424 95.190764 
L 196.650517 95.096656 
L 196.756757 95.012493 
L 196.84529 94.901571 
L 196.951529 94.711895 
L 197.066622 94.602896 
L 197.172861 94.452062 
L 197.279101 94.343661 
L 197.38534 94.214623 
L 197.509286 94.110164 
L 197.615526 93.974911 
L 197.721765 93.881654 
L 197.828005 93.749816 
L 197.916538 93.640269 
L 198.022777 93.489423 
L 198.13787 93.384643 
L 198.244109 93.260968 
L 198.403469 93.150665 
L 198.509708 93.037391 
L 198.624801 92.941548 
L 198.73104 92.788658 
L 198.881546 92.683331 
L 198.987786 92.526717 
L 199.164852 92.421198 
L 199.271091 92.292203 
L 199.368477 92.183854 
L 199.474717 92.016589 
L 199.616369 91.932528 
L 199.722609 91.791982 
L 199.846555 91.688186 
L 199.952794 91.576148 
L 200.032474 91.480119 
L 200.138714 91.32173 
L 200.227246 91.217626 
L 200.333486 90.979152 
L 200.413166 90.869344 
L 200.519405 90.692757 
L 200.696471 90.592775 
L 200.80271 90.403174 
L 200.944363 90.293504 
L 201.050602 90.172276 
L 201.147989 90.064496 
L 201.254228 89.991816 
L 201.387027 89.887373 
L 201.493267 89.77503 
L 201.60836 89.667635 
L 201.714599 89.542701 
L 201.856252 89.437054 
L 201.962491 89.246429 
L 202.112997 89.13555 
L 202.219237 88.984434 
L 202.30777 88.873989 
L 202.414009 88.742999 
L 202.520249 88.631901 
L 202.626488 88.499673 
L 202.706168 88.396048 
L 202.812407 88.205408 
L 202.945207 88.117533 
L 203.051446 87.971585 
L 203.148832 87.894501 
L 203.255072 87.780245 
L 203.325898 87.675456 
L 203.432138 87.527885 
L 203.502964 87.421137 
L 203.609203 87.314792 
L 203.68003 87.214165 
L 203.786269 86.917144 
L 203.857095 86.838461 
L 203.963335 86.654446 
L 204.051868 86.547655 
L 204.158107 86.438538 
L 204.282053 86.329447 
L 204.388293 86.211657 
L 204.494532 86.106947 
L 204.600772 85.979945 
L 204.707011 85.880725 
L 204.813251 85.731415 
L 204.857517 85.663042 
L 204.963757 85.452056 
L 205.096556 85.344669 
L 205.202796 85.190632 
L 205.282475 85.093961 
L 205.388715 84.977079 
L 205.556927 84.88626 
L 205.663167 84.680804 
L 205.742846 84.575756 
L 205.849086 84.400684 
L 205.884499 84.302778 
L 205.990738 84.15894 
L 206.105831 84.054303 
L 206.212071 83.89294 
L 206.31831 83.784443 
L 206.42455 83.669206 
L 206.477669 83.585384 
L 206.583909 83.382196 
L 206.663588 83.271851 
L 206.769828 83.1288 
L 206.858361 83.042307 
L 206.9646 82.862573 
L 207.07084 82.751922 
L 207.177079 82.617767 
L 207.247906 82.527145 
L 207.354145 82.30868 
L 207.451531 82.198682 
L 207.557771 82.032425 
L 207.655157 81.928991 
L 207.761396 81.713373 
L 207.841076 81.605229 
L 207.947316 81.44704 
L 208.044702 81.337579 
L 208.150941 81.22071 
L 208.248327 81.13215 
L 208.354567 80.956516 
L 208.4431 80.850441 
L 208.549339 80.65999 
L 208.690992 80.554431 
L 208.797231 80.410367 
L 208.903471 80.310923 
L 209.00971 80.090711 
L 209.107097 79.983359 
L 209.213336 79.868129 
L 209.239896 79.814287 
L 209.346135 79.599773 
L 209.478935 79.492563 
L 209.585174 79.3139 
L 209.664854 79.216492 
L 209.771093 79.056723 
L 209.86848 78.956927 
L 209.974719 78.871829 
L 210.134078 78.768758 
L 210.240318 78.545903 
L 210.355411 78.437824 
L 210.46165 78.343077 
L 210.550183 78.233071 
L 210.656422 78.147636 
L 210.700689 78.04711 
L 210.806928 77.908676 
L 210.842342 77.804984 
L 210.948581 77.60692 
L 211.05482 77.498947 
L 211.16106 77.331982 
L 211.276153 77.225313 
L 211.382392 77.051363 
L 211.462072 76.943776 
L 211.568311 76.780226 
L 211.621431 76.670354 
L 211.727671 76.490963 
L 211.789644 76.429343 
L 211.895883 76.22392 
L 211.984416 76.127639 
L 212.090655 75.93446 
L 212.161482 75.826566 
L 212.267721 75.707875 
L 212.365107 75.604303 
L 212.471347 75.505895 
L 212.551027 75.398713 
L 212.657266 75.230238 
L 212.728092 75.121753 
L 212.834332 74.965336 
L 212.905158 74.872022 
L 213.011398 74.644417 
L 213.117637 74.539259 
L 213.223877 74.313826 
L 213.303556 74.214112 
L 213.409796 73.991545 
L 213.462915 73.880702 
L 213.569155 73.724183 
L 213.639981 73.618575 
L 213.746221 73.352122 
L 213.8259 73.254024 
L 213.93214 73.000536 
L 214.020673 72.889907 
L 214.126912 72.694335 
L 214.180032 72.60263 
L 214.286271 72.32591 
L 214.392511 72.218093 
L 214.49875 72.083801 
L 214.57843 71.983408 
L 214.684669 71.826951 
L 214.764349 71.724142 
L 214.870589 71.536187 
L 214.897148 71.47506 
L 215.003388 71.16758 
L 215.065361 71.06428 
L 215.1716 70.883385 
L 215.215867 70.78313 
L 215.322106 70.421444 
L 215.401786 70.334664 
L 215.508025 70.14305 
L 215.561145 70.066144 
L 215.667385 69.757688 
L 215.764771 69.657991 
L 215.87101 69.305826 
L 215.906424 69.282175 
L 216.012663 69.021087 
L 216.065783 68.913187 
L 216.172022 68.62743 
L 216.225142 68.541825 
L 216.331381 68.236703 
L 216.419914 68.13268 
L 216.526154 67.905997 
L 216.59698 67.808111 
L 216.70322 67.45679 
L 216.765193 67.396424 
L 216.871432 67.078018 
L 216.915699 66.987647 
L 217.021938 66.679395 
L 217.128178 66.598529 
L 217.234417 66.278292 
L 217.314097 66.190934 
L 217.420336 65.97265 
L 217.500016 65.872491 
L 217.606255 65.623132 
L 217.659375 65.519392 
L 217.765614 65.362426 
L 217.836441 65.251559 
L 217.94268 65.115122 
L 218.004653 65.026629 
L 218.110893 64.769769 
L 218.181719 64.688068 
L 218.287959 64.27604 
L 218.349932 64.16765 
L 218.456171 64.020061 
L 218.509291 63.913068 
L 218.61553 63.605032 
L 218.659797 63.505815 
L 218.766036 63.320324 
L 218.801449 63.22534 
L 218.907689 62.910859 
L 218.987369 62.824021 
L 219.093608 62.546573 
L 219.129021 62.464232 
L 219.235261 62.161354 
L 219.279527 62.070382 
L 219.385767 61.81147 
L 219.438886 61.714861 
L 219.545126 61.482254 
L 219.624805 61.384596 
L 219.731045 61.051108 
L 219.766458 60.95807 
L 219.872698 60.685731 
L 219.908111 60.607679 
L 220.01435 60.294628 
L 220.04091 60.242845 
L 220.14715 59.880698 
L 220.235682 59.770142 
L 220.341922 59.482082 
L 220.350775 59.482082 
L 220.457015 58.989403 
L 220.518988 58.882632 
L 220.625227 58.398772 
L 220.704907 58.303059 
L 220.811146 57.87004 
L 220.837706 57.785734 
L 220.943946 57.433498 
L 220.997065 57.35901 
L 221.103305 57.066127 
L 221.165278 56.972239 
L 221.271517 56.656355 
L 221.324637 56.55389 
L 221.430877 56.166869 
L 221.510556 56.058916 
L 221.616796 55.562127 
L 221.687622 55.46258 
L 221.793862 54.764997 
L 221.820421 54.668117 
L 221.926661 54.240469 
L 221.988634 54.130915 
L 222.094873 53.939504 
L 222.13914 53.839979 
L 222.245379 53.480512 
L 222.325059 53.385337 
L 222.431298 53.082331 
L 222.475565 53.028088 
L 222.581804 52.701371 
L 222.626071 52.616378 
L 222.73231 52.300402 
L 222.829697 52.199531 
L 222.935936 51.99365 
L 222.980202 51.893194 
L 223.086442 51.456714 
L 223.113002 51.364091 
L 223.219241 50.992652 
L 223.254654 50.911392 
L 223.360894 50.446407 
L 223.387454 50.393457 
L 223.493693 49.884699 
L 223.546813 49.781275 
L 223.653053 49.289805 
L 223.679612 49.188841 
L 223.785852 48.957678 
L 223.830118 48.85742 
L 223.936358 48.404496 
L 223.998331 48.297681 
L 224.10457 47.932233 
L 224.139983 47.835547 
L 224.246223 47.432481 
L 224.290489 47.32185 
L 224.396729 46.693985 
L 224.449849 46.643161 
L 224.556088 46.1731 
L 224.591501 46.078715 
L 224.697741 45.746306 
L 224.724301 45.674729 
L 224.83054 45.238327 
L 224.839393 45.238327 
L 224.945633 44.897552 
L 224.963339 44.851611 
L 225.069579 44.488097 
L 225.113845 44.397301 
L 225.220085 44.041792 
L 225.237791 44.024004 
L 225.344031 43.381016 
L 225.370591 43.330921 
L 225.47683 42.771582 
L 225.512243 42.664134 
L 225.618483 42.301676 
L 225.645043 42.236134 
L 225.751282 41.573195 
L 225.813255 41.469898 
L 225.919495 41.130275 
L 225.946055 41.046032 
L 226.052294 40.646741 
L 226.087707 40.540153 
L 226.193947 40.206337 
L 226.220507 40.121011 
L 226.326746 39.557601 
L 226.353306 39.463052 
L 226.459546 38.919095 
L 226.486105 38.810601 
L 226.592345 38.288774 
L 226.618905 38.216037 
L 226.725144 37.673872 
L 226.760557 37.603804 
L 226.866797 37.070555 
L 226.893357 36.963879 
L 226.999596 36.474269 
L 227.035009 36.413636 
L 227.141249 36.023092 
L 227.167809 35.933345 
L 227.274048 35.409487 
L 227.318315 35.307164 
L 227.424554 34.780576 
L 227.459967 34.688407 
L 227.566207 34.022022 
L 227.619327 33.93011 
L 227.725566 33.691757 
L 227.743273 33.661601 
L 227.849512 32.69083 
L 227.884925 32.609609 
L 227.991165 31.946879 
L 228.008871 31.925148 
L 228.115111 31.533779 
L 228.159377 31.452165 
L 228.265617 30.893699 
L 228.292177 30.825761 
L 228.398416 30.087692 
L 228.416123 29.999117 
L 228.522362 29.390968 
L 228.557775 29.349607 
L 228.664015 28.518531 
L 228.672868 28.518531 
L 228.779108 27.752013 
L 228.805667 27.693445 
L 228.911907 26.88521 
L 228.956173 26.779275 
L 229.062413 26.19146 
L 229.106679 26.106722 
L 229.212919 25.398082 
L 229.221772 25.398082 
L 229.328012 24.437406 
L 229.336865 24.437406 
L 229.443104 23.67762 
L 229.460811 23.567218 
L 229.56705 23.101451 
L 229.584757 23.048125 
L 229.690996 21.832271 
L 229.717556 21.748345 
L 229.823796 20.98317 
L 229.841502 20.87828 
L 229.947742 20.058686 
L 229.956595 20.058686 
L 230.062835 18.75643 
L 230.080541 18.683008 
L 230.186781 17.624076 
L 230.213341 17.535368 
L 230.31958 16.383236 
L 230.354993 16.275009 
L 230.461233 15.392986 
L 230.487793 15.360499 
L 230.594032 14.376068 
L 230.611739 14.335631 
L 230.717978 13.285593 
L 230.726831 13.285593 
L 230.833071 12.484081 
L 230.859631 12.46004 
L 230.96587 11.463645 
L 230.974724 11.463645 
L 231.080963 10.650239 
L 231.107523 10.589289 
L 231.213762 9.478012 
L 231.231469 9.395272 
L 231.337708 8.605342 
L 231.355415 8.509054 
L 231.461655 8.024297 
L 231.479361 7.985287 
L 231.585601 7.257991 
L 231.682987 7.167697 
L 231.789226 7.01241 
L 231.913172 6.933705 
L 231.922026 -1 
L 231.922026 -1 
" clip-path="url(#pab58c76013)" style="fill: none; stroke-dasharray: 7.5,1.5; stroke-dashoffset: 0; stroke: #ac7726; stroke-width: 1.5"/>
   </g>
   <g id="patch_3">
    <path d="M 56.077974 182.64351 
L 56.077974 6.799459 
" style="fill: none; stroke: #000000; stroke-width: 0.8; stroke-linejoin: miter; stroke-linecap: square"/>
   </g>
   <g id="patch_4">
    <path d="M 231.922026 182.64351 
L 231.922026 6.799459 
" style="fill: none; stroke: #000000; stroke-width: 0.8; stroke-linejoin: miter; stroke-linecap: square"/>
   </g>
   <g id="patch_5">
    <path d="M 56.077974 182.64351 
L 231.922026 182.64351 
" style="fill: none; stroke: #000000; stroke-width: 0.8; stroke-linejoin: miter; stroke-linecap: square"/>
   </g>
   <g id="patch_6">
    <path d="M 56.077974 6.799459 
L 231.922026 6.799459 
" style="fill: none; stroke: #000000; stroke-width: 0.8; stroke-linejoin: miter; stroke-linecap: square"/>
   </g>
   <g id="legend_1">
    <g id="patch_7">
     <path d="M 63.077974 44.155709 
L 140.054537 44.155709 
Q 142.054537 44.155709 142.054537 42.155709 
L 142.054537 13.799459 
Q 142.054537 11.799459 140.054537 11.799459 
L 63.077974 11.799459 
Q 61.077974 11.799459 61.077974 13.799459 
L 61.077974 42.155709 
Q 61.077974 44.155709 63.077974 44.155709 
z
" style="fill: #ffffff; opacity: 0.8; stroke: #cccccc; stroke-linejoin: miter"/>
    </g>
    <g id="line2d_15">
     <path d="M 65.077974 19.897896 
L 75.077974 19.897896 
L 75.077974 19.897896 
L 85.077974 19.897896 
L 85.077974 19.897896 
" style="fill: none; stroke: #67c7d5; stroke-width: 1.5; stroke-linecap: square"/>
    </g>
    <g id="text_15">
     <!-- ATL09 -->
     <g transform="translate(93.077974 23.397896) scale(0.1 -0.1)">
      <defs>
       <path id="DejaVuSans-41" d="M 2188 4044 
L 1331 1722 
L 3047 1722 
L 2188 4044 
z
M 1831 4666 
L 2547 4666 
L 4325 0 
L 3669 0 
L 3244 1197 
L 1141 1197 
L 716 0 
L 50 0 
L 1831 4666 
z
" transform="scale(0.015625)"/>
       <path id="DejaVuSans-54" d="M -19 4666 
L 3928 4666 
L 3928 4134 
L 2272 4134 
L 2272 0 
L 1638 0 
L 1638 4134 
L -19 4134 
L -19 4666 
z
" transform="scale(0.015625)"/>
       <path id="DejaVuSans-4c" d="M 628 4666 
L 1259 4666 
L 1259 531 
L 3531 531 
L 3531 0 
L 628 0 
L 628 4666 
z
" transform="scale(0.015625)"/>
       <path id="DejaVuSans-39" d="M 703 97 
L 703 672 
Q 941 559 1184 500 
Q 1428 441 1663 441 
Q 2288 441 2617 861 
Q 2947 1281 2994 2138 
Q 2813 1869 2534 1725 
Q 2256 1581 1919 1581 
Q 1219 1581 811 2004 
Q 403 2428 403 3163 
Q 403 3881 828 4315 
Q 1253 4750 1959 4750 
Q 2769 4750 3195 4129 
Q 3622 3509 3622 2328 
Q 3622 1225 3098 567 
Q 2575 -91 1691 -91 
Q 1453 -91 1209 -44 
Q 966 3 703 97 
z
M 1959 2075 
Q 2384 2075 2632 2365 
Q 2881 2656 2881 3163 
Q 2881 3666 2632 3958 
Q 2384 4250 1959 4250 
Q 1534 4250 1286 3958 
Q 1038 3666 1038 3163 
Q 1038 2656 1286 2365 
Q 1534 2075 1959 2075 
z
" transform="scale(0.015625)"/>
      </defs>
      <use xlink:href="#DejaVuSans-41"/>
      <use xlink:href="#DejaVuSans-54" transform="translate(60.658203 0)"/>
      <use xlink:href="#DejaVuSans-4c" transform="translate(121.742188 0)"/>
      <use xlink:href="#DejaVuSans-30" transform="translate(177.455078 0)"/>
      <use xlink:href="#DejaVuSans-39" transform="translate(241.078125 0)"/>
     </g>
    </g>
    <g id="line2d_16">
     <path d="M 65.077974 34.576021 
L 75.077974 34.576021 
L 75.077974 34.576021 
L 85.077974 34.576021 
L 85.077974 34.576021 
" style="fill: none; stroke-dasharray: 7.5,1.5; stroke-dashoffset: 0; stroke: #ac7726; stroke-width: 1.5"/>
    </g>
    <g id="text_16">
     <!-- Cloudnet -->
     <g transform="translate(93.077974 38.076021) scale(0.1 -0.1)">
      <defs>
       <path id="DejaVuSans-6c" d="M 603 4863 
L 1178 4863 
L 1178 0 
L 603 0 
L 603 4863 
z
" transform="scale(0.015625)"/>
       <path id="DejaVuSans-6f" d="M 1959 3097 
Q 1497 3097 1228 2736 
Q 959 2375 959 1747 
Q 959 1119 1226 758 
Q 1494 397 1959 397 
Q 2419 397 2687 759 
Q 2956 1122 2956 1747 
Q 2956 2369 2687 2733 
Q 2419 3097 1959 3097 
z
M 1959 3584 
Q 2709 3584 3137 3096 
Q 3566 2609 3566 1747 
Q 3566 888 3137 398 
Q 2709 -91 1959 -91 
Q 1206 -91 779 398 
Q 353 888 353 1747 
Q 353 2609 779 3096 
Q 1206 3584 1959 3584 
z
" transform="scale(0.015625)"/>
       <path id="DejaVuSans-75" d="M 544 1381 
L 544 3500 
L 1119 3500 
L 1119 1403 
Q 1119 906 1312 657 
Q 1506 409 1894 409 
Q 2359 409 2629 706 
Q 2900 1003 2900 1516 
L 2900 3500 
L 3475 3500 
L 3475 0 
L 2900 0 
L 2900 538 
Q 2691 219 2414 64 
Q 2138 -91 1772 -91 
Q 1169 -91 856 284 
Q 544 659 544 1381 
z
M 1991 3584 
L 1991 3584 
z
" transform="scale(0.015625)"/>
       <path id="DejaVuSans-64" d="M 2906 2969 
L 2906 4863 
L 3481 4863 
L 3481 0 
L 2906 0 
L 2906 525 
Q 2725 213 2448 61 
Q 2172 -91 1784 -91 
Q 1150 -91 751 415 
Q 353 922 353 1747 
Q 353 2572 751 3078 
Q 1150 3584 1784 3584 
Q 2172 3584 2448 3432 
Q 2725 3281 2906 2969 
z
M 947 1747 
Q 947 1113 1208 752 
Q 1469 391 1925 391 
Q 2381 391 2643 752 
Q 2906 1113 2906 1747 
Q 2906 2381 2643 2742 
Q 2381 3103 1925 3103 
Q 1469 3103 1208 2742 
Q 947 2381 947 1747 
z
" transform="scale(0.015625)"/>
       <path id="DejaVuSans-6e" d="M 3513 2113 
L 3513 0 
L 2938 0 
L 2938 2094 
Q 2938 2591 2744 2837 
Q 2550 3084 2163 3084 
Q 1697 3084 1428 2787 
Q 1159 2491 1159 1978 
L 1159 0 
L 581 0 
L 581 3500 
L 1159 3500 
L 1159 2956 
Q 1366 3272 1645 3428 
Q 1925 3584 2291 3584 
Q 2894 3584 3203 3211 
Q 3513 2838 3513 2113 
z
" transform="scale(0.015625)"/>
       <path id="DejaVuSans-65" d="M 3597 1894 
L 3597 1613 
L 953 1613 
Q 991 1019 1311 708 
Q 1631 397 2203 397 
Q 2534 397 2845 478 
Q 3156 559 3463 722 
L 3463 178 
Q 3153 47 2828 -22 
Q 2503 -91 2169 -91 
Q 1331 -91 842 396 
Q 353 884 353 1716 
Q 353 2575 817 3079 
Q 1281 3584 2069 3584 
Q 2775 3584 3186 3129 
Q 3597 2675 3597 1894 
z
M 3022 2063 
Q 3016 2534 2758 2815 
Q 2500 3097 2075 3097 
Q 1594 3097 1305 2825 
Q 1016 2553 972 2059 
L 3022 2063 
z
" transform="scale(0.015625)"/>
       <path id="DejaVuSans-74" d="M 1172 4494 
L 1172 3500 
L 2356 3500 
L 2356 3053 
L 1172 3053 
L 1172 1153 
Q 1172 725 1289 603 
Q 1406 481 1766 481 
L 2356 481 
L 2356 0 
L 1766 0 
Q 1100 0 847 248 
Q 594 497 594 1153 
L 594 3053 
L 172 3053 
L 172 3500 
L 594 3500 
L 594 4494 
L 1172 4494 
z
" transform="scale(0.015625)"/>
      </defs>
      <use xlink:href="#DejaVuSans-43"/>
      <use xlink:href="#DejaVuSans-6c" transform="translate(69.824219 0)"/>
      <use xlink:href="#DejaVuSans-6f" transform="translate(97.607422 0)"/>
      <use xlink:href="#DejaVuSans-75" transform="translate(158.789062 0)"/>
      <use xlink:href="#DejaVuSans-64" transform="translate(222.167969 0)"/>
      <use xlink:href="#DejaVuSans-6e" transform="translate(285.644531 0)"/>
      <use xlink:href="#DejaVuSans-65" transform="translate(349.023438 0)"/>
      <use xlink:href="#DejaVuSans-74" transform="translate(410.546875 0)"/>
     </g>
    </g>
   </g>
  </g>
 </g>
 <defs>
  <clipPath id="pab58c76013">
   <rect x="56.077974" y="6.799459" width="175.844051" height="175.844051"/>
  </clipPath>
 </defs>
</svg>
