<?xml version="1.0" encoding="utf-8" standalone="no"?>
<!DOCTYPE svg PUBLIC "-//W3C//DTD SVG 1.1//EN"
  "http://www.w3.org/Graphics/SVG/1.1/DTD/svg11.dtd">
<svg xmlns:xlink="http://www.w3.org/1999/xlink" width="288pt" height="216pt" viewBox="0 0 288 216" xmlns="http://www.w3.org/2000/svg" version="1.1">
 <metadata>
  <rdf:RDF xmlns:dc="http://purl.org/dc/elements/1.1/" xmlns:cc="http://creativecommons.org/ns#" xmlns:rdf="http://www.w3.org/1999/02/22-rdf-syntax-ns#">
   <cc:Work>
    <dc:type rdf:resource="http://purl.org/dc/dcmitype/StillImage"/>
    <dc:date>2025-11-27T17:01:58.600886</dc:date>
    <dc:format>image/svg+xml</dc:format>
    <dc:creator>
     <cc:Agent>
      <dc:title>Matplotlib v3.10.0, https://matplotlib.org/</dc:title>
     </cc:Agent>
    </dc:creator>
   </cc:Work>
  </rdf:RDF>
 </metadata>
 <defs>
  <style type="text/css">*{stroke-linejoin: round; stroke-linecap: butt}</style>
 </defs>
 <g id="figure_1">
  <g id="patch_1">
   <path d="M 0 216 
L 288 216 
L 288 0 
L 0 0 
L 0 216 
z
" style="fill: none"/>
  </g>
  <g id="axes_1">
   <g id="patch_2">
    <path d="M 56.077974 182.64351 
L 231.922026 182.64351 
L 231.922026 6.799459 
L 56.077974 6.799459 
L 56.077974 182.64351 
z
" style="fill: none"/>
   </g>
   <g id="matplotlib.axis_1">
    <g id="xtick_1">
     <g id="line2d_1">
      <defs>
       <path id="m5e4d5fbf63" d="M 0 0 
L 0 3.5 
" style="stroke: #000000; stroke-width: 0.8"/>
      </defs>
      <g>
       <use xlink:href="#m5e4d5fbf63" x="56.077974" y="182.64351" style="stroke: #000000; stroke-width: 0.8"/>
      </g>
     </g>
     <g id="text_1">
      <!-- 0.0 -->
      <g transform="translate(48.126412 197.241948) scale(0.1 -0.1)">
       <defs>
        <path id="DejaVuSans-30" d="M 2034 4250 
Q 1547 4250 1301 3770 
Q 1056 3291 1056 2328 
Q 1056 1369 1301 889 
Q 1547 409 2034 409 
Q 2525 409 2770 889 
Q 3016 1369 3016 2328 
Q 3016 3291 2770 3770 
Q 2525 4250 2034 4250 
z
M 2034 4750 
Q 2819 4750 3233 4129 
Q 3647 3509 3647 2328 
Q 3647 1150 3233 529 
Q 2819 -91 2034 -91 
Q 1250 -91 836 529 
Q 422 1150 422 2328 
Q 422 3509 836 4129 
Q 1250 4750 2034 4750 
z
" transform="scale(0.015625)"/>
        <path id="DejaVuSans-2e" d="M 684 794 
L 1344 794 
L 1344 0 
L 684 0 
L 684 794 
z
" transform="scale(0.015625)"/>
       </defs>
       <use xlink:href="#DejaVuSans-30"/>
       <use xlink:href="#DejaVuSans-2e" transform="translate(63.623047 0)"/>
       <use xlink:href="#DejaVuSans-30" transform="translate(95.410156 0)"/>
      </g>
     </g>
    </g>
    <g id="xtick_2">
     <g id="line2d_2">
      <g>
       <use xlink:href="#m5e4d5fbf63" x="91.246785" y="182.64351" style="stroke: #000000; stroke-width: 0.8"/>
      </g>
     </g>
     <g id="text_2">
      <!-- 0.2 -->
      <g transform="translate(83.295222 197.241948) scale(0.1 -0.1)">
       <defs>
        <path id="DejaVuSans-32" d="M 1228 531 
L 3431 531 
L 3431 0 
L 469 0 
L 469 531 
Q 828 903 1448 1529 
Q 2069 2156 2228 2338 
Q 2531 2678 2651 2914 
Q 2772 3150 2772 3378 
Q 2772 3750 2511 3984 
Q 2250 4219 1831 4219 
Q 1534 4219 1204 4116 
Q 875 4013 500 3803 
L 500 4441 
Q 881 4594 1212 4672 
Q 1544 4750 1819 4750 
Q 2544 4750 2975 4387 
Q 3406 4025 3406 3419 
Q 3406 3131 3298 2873 
Q 3191 2616 2906 2266 
Q 2828 2175 2409 1742 
Q 1991 1309 1228 531 
z
" transform="scale(0.015625)"/>
       </defs>
       <use xlink:href="#DejaVuSans-30"/>
       <use xlink:href="#DejaVuSans-2e" transform="translate(63.623047 0)"/>
       <use xlink:href="#DejaVuSans-32" transform="translate(95.410156 0)"/>
      </g>
     </g>
    </g>
    <g id="xtick_3">
     <g id="line2d_3">
      <g>
       <use xlink:href="#m5e4d5fbf63" x="126.415595" y="182.64351" style="stroke: #000000; stroke-width: 0.8"/>
      </g>
     </g>
     <g id="text_3">
      <!-- 0.4 -->
      <g transform="translate(118.464032 197.241948) scale(0.1 -0.1)">
       <defs>
        <path id="DejaVuSans-34" d="M 2419 4116 
L 825 1625 
L 2419 1625 
L 2419 4116 
z
M 2253 4666 
L 3047 4666 
L 3047 1625 
L 3713 1625 
L 3713 1100 
L 3047 1100 
L 3047 0 
L 2419 0 
L 2419 1100 
L 313 1100 
L 313 1709 
L 2253 4666 
z
" transform="scale(0.015625)"/>
       </defs>
       <use xlink:href="#DejaVuSans-30"/>
       <use xlink:href="#DejaVuSans-2e" transform="translate(63.623047 0)"/>
       <use xlink:href="#DejaVuSans-34" transform="translate(95.410156 0)"/>
      </g>
     </g>
    </g>
    <g id="xtick_4">
     <g id="line2d_4">
      <g>
       <use xlink:href="#m5e4d5fbf63" x="161.584405" y="182.64351" style="stroke: #000000; stroke-width: 0.8"/>
      </g>
     </g>
     <g id="text_4">
      <!-- 0.6 -->
      <g transform="translate(153.632843 197.241948) scale(0.1 -0.1)">
       <defs>
        <path id="DejaVuSans-36" d="M 2113 2584 
Q 1688 2584 1439 2293 
Q 1191 2003 1191 1497 
Q 1191 994 1439 701 
Q 1688 409 2113 409 
Q 2538 409 2786 701 
Q 3034 994 3034 1497 
Q 3034 2003 2786 2293 
Q 2538 2584 2113 2584 
z
M 3366 4563 
L 3366 3988 
Q 3128 4100 2886 4159 
Q 2644 4219 2406 4219 
Q 1781 4219 1451 3797 
Q 1122 3375 1075 2522 
Q 1259 2794 1537 2939 
Q 1816 3084 2150 3084 
Q 2853 3084 3261 2657 
Q 3669 2231 3669 1497 
Q 3669 778 3244 343 
Q 2819 -91 2113 -91 
Q 1303 -91 875 529 
Q 447 1150 447 2328 
Q 447 3434 972 4092 
Q 1497 4750 2381 4750 
Q 2619 4750 2861 4703 
Q 3103 4656 3366 4563 
z
" transform="scale(0.015625)"/>
       </defs>
       <use xlink:href="#DejaVuSans-30"/>
       <use xlink:href="#DejaVuSans-2e" transform="translate(63.623047 0)"/>
       <use xlink:href="#DejaVuSans-36" transform="translate(95.410156 0)"/>
      </g>
     </g>
    </g>
    <g id="xtick_5">
     <g id="line2d_5">
      <g>
       <use xlink:href="#m5e4d5fbf63" x="196.753215" y="182.64351" style="stroke: #000000; stroke-width: 0.8"/>
      </g>
     </g>
     <g id="text_5">
      <!-- 0.8 -->
      <g transform="translate(188.801653 197.241948) scale(0.1 -0.1)">
       <defs>
        <path id="DejaVuSans-38" d="M 2034 2216 
Q 1584 2216 1326 1975 
Q 1069 1734 1069 1313 
Q 1069 891 1326 650 
Q 1584 409 2034 409 
Q 2484 409 2743 651 
Q 3003 894 3003 1313 
Q 3003 1734 2745 1975 
Q 2488 2216 2034 2216 
z
M 1403 2484 
Q 997 2584 770 2862 
Q 544 3141 544 3541 
Q 544 4100 942 4425 
Q 1341 4750 2034 4750 
Q 2731 4750 3128 4425 
Q 3525 4100 3525 3541 
Q 3525 3141 3298 2862 
Q 3072 2584 2669 2484 
Q 3125 2378 3379 2068 
Q 3634 1759 3634 1313 
Q 3634 634 3220 271 
Q 2806 -91 2034 -91 
Q 1263 -91 848 271 
Q 434 634 434 1313 
Q 434 1759 690 2068 
Q 947 2378 1403 2484 
z
M 1172 3481 
Q 1172 3119 1398 2916 
Q 1625 2713 2034 2713 
Q 2441 2713 2670 2916 
Q 2900 3119 2900 3481 
Q 2900 3844 2670 4047 
Q 2441 4250 2034 4250 
Q 1625 4250 1398 4047 
Q 1172 3844 1172 3481 
z
" transform="scale(0.015625)"/>
       </defs>
       <use xlink:href="#DejaVuSans-30"/>
       <use xlink:href="#DejaVuSans-2e" transform="translate(63.623047 0)"/>
       <use xlink:href="#DejaVuSans-38" transform="translate(95.410156 0)"/>
      </g>
     </g>
    </g>
    <g id="xtick_6">
     <g id="line2d_6">
      <g>
       <use xlink:href="#m5e4d5fbf63" x="231.922026" y="182.64351" style="stroke: #000000; stroke-width: 0.8"/>
      </g>
     </g>
     <g id="text_6">
      <!-- 1.0 -->
      <g transform="translate(223.970463 197.241948) scale(0.1 -0.1)">
       <defs>
        <path id="DejaVuSans-31" d="M 794 531 
L 1825 531 
L 1825 4091 
L 703 3866 
L 703 4441 
L 1819 4666 
L 2450 4666 
L 2450 531 
L 3481 531 
L 3481 0 
L 794 0 
L 794 531 
z
" transform="scale(0.015625)"/>
       </defs>
       <use xlink:href="#DejaVuSans-31"/>
       <use xlink:href="#DejaVuSans-2e" transform="translate(63.623047 0)"/>
       <use xlink:href="#DejaVuSans-30" transform="translate(95.410156 0)"/>
      </g>
     </g>
    </g>
    <g id="text_7">
     <!-- $u$, $v$ -->
     <g transform="translate(134.65 210.920073) scale(0.1 -0.1)">
      <defs>
       <path id="DejaVuSans-Oblique-75" d="M 428 1388 
L 838 3500 
L 1416 3500 
L 1006 1409 
Q 975 1256 961 1147 
Q 947 1038 947 966 
Q 947 700 1109 554 
Q 1272 409 1569 409 
Q 2031 409 2368 721 
Q 2706 1034 2809 1563 
L 3194 3500 
L 3769 3500 
L 3091 0 
L 2516 0 
L 2631 550 
Q 2388 244 2052 76 
Q 1716 -91 1338 -91 
Q 878 -91 622 161 
Q 366 413 366 863 
Q 366 956 381 1097 
Q 397 1238 428 1388 
z
" transform="scale(0.015625)"/>
       <path id="DejaVuSans-2c" d="M 750 794 
L 1409 794 
L 1409 256 
L 897 -744 
L 494 -744 
L 750 256 
L 750 794 
z
" transform="scale(0.015625)"/>
       <path id="DejaVuSans-20" transform="scale(0.015625)"/>
       <path id="DejaVuSans-Oblique-76" d="M 459 3500 
L 1069 3500 
L 1581 525 
L 3256 3500 
L 3866 3500 
L 1875 0 
L 1100 0 
L 459 3500 
z
" transform="scale(0.015625)"/>
      </defs>
      <use xlink:href="#DejaVuSans-Oblique-75" transform="translate(0 0.3125)"/>
      <use xlink:href="#DejaVuSans-2c" transform="translate(63.378906 0.3125)"/>
      <use xlink:href="#DejaVuSans-20" transform="translate(95.166016 0.3125)"/>
      <use xlink:href="#DejaVuSans-Oblique-76" transform="translate(126.953125 0.3125)"/>
     </g>
    </g>
   </g>
   <g id="matplotlib.axis_2">
    <g id="ytick_1">
     <g id="line2d_7">
      <defs>
       <path id="mf3a87dde64" d="M 0 0 
L -3.5 0 
" style="stroke: #000000; stroke-width: 0.8"/>
      </defs>
      <g>
       <use xlink:href="#mf3a87dde64" x="56.077974" y="182.64351" style="stroke: #000000; stroke-width: 0.8"/>
      </g>
     </g>
     <g id="text_8">
      <!-- 0.0 -->
      <g transform="translate(33.174849 186.442729) scale(0.1 -0.1)">
       <use xlink:href="#DejaVuSans-30"/>
       <use xlink:href="#DejaVuSans-2e" transform="translate(63.623047 0)"/>
       <use xlink:href="#DejaVuSans-30" transform="translate(95.410156 0)"/>
      </g>
     </g>
    </g>
    <g id="ytick_2">
     <g id="line2d_8">
      <g>
       <use xlink:href="#mf3a87dde64" x="56.077974" y="147.4747" style="stroke: #000000; stroke-width: 0.8"/>
      </g>
     </g>
     <g id="text_9">
      <!-- 0.2 -->
      <g transform="translate(33.174849 151.273918) scale(0.1 -0.1)">
       <use xlink:href="#DejaVuSans-30"/>
       <use xlink:href="#DejaVuSans-2e" transform="translate(63.623047 0)"/>
       <use xlink:href="#DejaVuSans-32" transform="translate(95.410156 0)"/>
      </g>
     </g>
    </g>
    <g id="ytick_3">
     <g id="line2d_9">
      <g>
       <use xlink:href="#mf3a87dde64" x="56.077974" y="112.305889" style="stroke: #000000; stroke-width: 0.8"/>
      </g>
     </g>
     <g id="text_10">
      <!-- 0.4 -->
      <g transform="translate(33.174849 116.105108) scale(0.1 -0.1)">
       <use xlink:href="#DejaVuSans-30"/>
       <use xlink:href="#DejaVuSans-2e" transform="translate(63.623047 0)"/>
       <use xlink:href="#DejaVuSans-34" transform="translate(95.410156 0)"/>
      </g>
     </g>
    </g>
    <g id="ytick_4">
     <g id="line2d_10">
      <g>
       <use xlink:href="#mf3a87dde64" x="56.077974" y="77.137079" style="stroke: #000000; stroke-width: 0.8"/>
      </g>
     </g>
     <g id="text_11">
      <!-- 0.6 -->
      <g transform="translate(33.174849 80.936298) scale(0.1 -0.1)">
       <use xlink:href="#DejaVuSans-30"/>
       <use xlink:href="#DejaVuSans-2e" transform="translate(63.623047 0)"/>
       <use xlink:href="#DejaVuSans-36" transform="translate(95.410156 0)"/>
      </g>
     </g>
    </g>
    <g id="ytick_5">
     <g id="line2d_11">
      <g>
       <use xlink:href="#mf3a87dde64" x="56.077974" y="41.968269" style="stroke: #000000; stroke-width: 0.8"/>
      </g>
     </g>
     <g id="text_12">
      <!-- 0.8 -->
      <g transform="translate(33.174849 45.767488) scale(0.1 -0.1)">
       <use xlink:href="#DejaVuSans-30"/>
       <use xlink:href="#DejaVuSans-2e" transform="translate(63.623047 0)"/>
       <use xlink:href="#DejaVuSans-38" transform="translate(95.410156 0)"/>
      </g>
     </g>
    </g>
    <g id="ytick_6">
     <g id="line2d_12">
      <g>
       <use xlink:href="#mf3a87dde64" x="56.077974" y="6.799459" style="stroke: #000000; stroke-width: 0.8"/>
      </g>
     </g>
     <g id="text_13">
      <!-- 1.0 -->
      <g transform="translate(33.174849 10.598677) scale(0.1 -0.1)">
       <use xlink:href="#DejaVuSans-31"/>
       <use xlink:href="#DejaVuSans-2e" transform="translate(63.623047 0)"/>
       <use xlink:href="#DejaVuSans-30" transform="translate(95.410156 0)"/>
      </g>
     </g>
    </g>
    <g id="text_14">
     <!-- VCF -->
     <g transform="translate(27.095162 104.508984) rotate(-90) scale(0.1 -0.1)">
      <defs>
       <path id="DejaVuSans-56" d="M 1831 0 
L 50 4666 
L 709 4666 
L 2188 738 
L 3669 4666 
L 4325 4666 
L 2547 0 
L 1831 0 
z
" transform="scale(0.015625)"/>
       <path id="DejaVuSans-43" d="M 4122 4306 
L 4122 3641 
Q 3803 3938 3442 4084 
Q 3081 4231 2675 4231 
Q 1875 4231 1450 3742 
Q 1025 3253 1025 2328 
Q 1025 1406 1450 917 
Q 1875 428 2675 428 
Q 3081 428 3442 575 
Q 3803 722 4122 1019 
L 4122 359 
Q 3791 134 3420 21 
Q 3050 -91 2638 -91 
Q 1578 -91 968 557 
Q 359 1206 359 2328 
Q 359 3453 968 4101 
Q 1578 4750 2638 4750 
Q 3056 4750 3426 4639 
Q 3797 4528 4122 4306 
z
" transform="scale(0.015625)"/>
       <path id="DejaVuSans-46" d="M 628 4666 
L 3309 4666 
L 3309 4134 
L 1259 4134 
L 1259 2759 
L 3109 2759 
L 3109 2228 
L 1259 2228 
L 1259 0 
L 628 0 
L 628 4666 
z
" transform="scale(0.015625)"/>
      </defs>
      <use xlink:href="#DejaVuSans-56"/>
      <use xlink:href="#DejaVuSans-43" transform="translate(68.408203 0)"/>
      <use xlink:href="#DejaVuSans-46" transform="translate(138.232422 0)"/>
     </g>
    </g>
   </g>
   <g id="line2d_13">
    <path d="M 56.077974 191.413626 
L 56.080167 191.413626 
L 56.189811 182.641581 
L 59.338772 182.530528 
L 59.448416 182.525505 
L 61.612778 182.414409 
L 61.722422 182.407601 
L 63.667497 182.296591 
L 63.777141 182.28892 
L 65.149878 182.178026 
L 65.259521 182.170953 
L 66.551121 182.060049 
L 66.660765 182.04836 
L 67.706764 181.937275 
L 67.816407 181.925412 
L 68.919421 181.814577 
L 69.029065 181.800451 
L 70.009277 181.689488 
L 70.118921 181.676406 
L 71.000455 181.565348 
L 71.110098 181.549051 
L 72.070575 181.438005 
L 72.180219 181.427585 
L 73.10561 181.316649 
L 73.215253 181.302812 
L 74.072665 181.191928 
L 74.182309 181.173443 
L 75.009021 181.062509 
L 75.118664 181.046208 
L 75.883976 180.935714 
L 75.99362 180.917034 
L 76.701917 180.806135 
L 76.81156 180.788958 
L 77.52205 180.677901 
L 77.631693 180.665615 
L 78.285169 180.554697 
L 78.394812 180.535063 
L 79.059252 180.424284 
L 79.168895 180.406705 
L 79.798249 180.295853 
L 79.907893 180.28091 
L 80.521896 180.170026 
L 80.63154 180.154814 
L 81.311329 180.043709 
L 81.420973 180.024101 
L 82.122691 179.913104 
L 82.232335 179.893634 
L 82.813445 179.782713 
L 82.923089 179.761282 
L 83.572178 179.650776 
L 83.681822 179.629524 
L 84.341876 179.51887 
L 84.451519 179.499433 
L 85.09403 179.388727 
L 85.203674 179.367104 
L 85.830834 179.257176 
L 85.940478 179.238099 
L 86.521588 179.127086 
L 86.631232 179.106465 
L 87.236464 178.995511 
L 87.346107 178.975351 
L 88.02809 178.865135 
L 88.137734 178.84281 
L 88.712265 178.731842 
L 88.821909 178.711407 
L 89.407405 178.600338 
L 89.517049 178.583991 
L 90.067459 178.472989 
L 90.177103 178.447117 
L 90.736284 178.33722 
L 90.845928 178.317756 
L 91.492825 178.206809 
L 91.602468 178.184176 
L 92.144107 178.073421 
L 92.253751 178.050864 
L 92.804161 177.940114 
L 92.913804 177.920728 
L 93.4379 177.809864 
L 93.547544 177.785073 
L 94.076025 177.674492 
L 94.185669 177.654215 
L 94.731694 177.543108 
L 94.841337 177.516909 
L 95.387362 177.406611 
L 95.497005 177.383903 
L 96.062766 177.273305 
L 96.172409 177.248228 
L 96.766677 177.137484 
L 96.87632 177.112162 
L 97.404802 177.001278 
L 97.514446 176.977716 
L 98.005648 176.86719 
L 98.115292 176.843827 
L 98.683245 176.733276 
L 98.792889 176.711781 
L 99.281899 176.601754 
L 99.391542 176.577092 
L 99.950724 176.466209 
L 100.060368 176.444137 
L 100.672178 176.333092 
L 100.781822 176.309671 
L 101.279603 176.19899 
L 101.389247 176.17461 
L 101.91115 176.063645 
L 102.020793 176.042369 
L 102.503225 175.931421 
L 102.612868 175.897425 
L 103.090914 175.786998 
L 103.200557 175.76049 
L 103.67641 175.649745 
L 103.786054 175.628211 
L 104.283835 175.517476 
L 104.393479 175.492886 
L 104.926346 175.383554 
L 105.03599 175.349978 
L 105.489914 175.238993 
L 105.599557 175.215111 
L 106.099532 175.104549 
L 106.209175 175.080362 
L 106.636785 174.969514 
L 106.746428 174.944545 
L 107.209124 174.833505 
L 107.318767 174.807799 
L 107.792427 174.697008 
L 107.902071 174.670953 
L 108.393274 174.560332 
L 108.502917 174.529869 
L 108.94807 174.419331 
L 109.057713 174.398271 
L 109.575231 174.288121 
L 109.684874 174.262226 
L 110.171691 174.151296 
L 110.281335 174.125714 
L 110.746223 174.016999 
L 110.855867 173.989202 
L 111.307598 173.88007 
L 111.417241 173.852219 
L 111.88213 173.742056 
L 111.991773 173.708823 
L 112.450083 173.597727 
L 112.559727 173.570485 
L 113.013651 173.459536 
L 113.123294 173.434738 
L 113.537747 173.323638 
L 113.64739 173.298372 
L 114.048685 173.1873 
L 114.158329 173.155922 
L 114.61006 173.044992 
L 114.719704 173.015172 
L 115.204328 172.904319 
L 115.313971 172.878584 
L 115.811753 172.768573 
L 115.921396 172.742991 
L 116.342427 172.632227 
L 116.452071 172.604339 
L 116.838016 172.49374 
L 116.947659 172.467846 
L 117.351148 172.357032 
L 117.460791 172.325582 
L 117.899365 172.214743 
L 118.009008 172.188524 
L 118.451968 172.078585 
L 118.561612 172.042849 
L 118.982643 171.931742 
L 119.092286 171.891216 
L 119.493581 171.780381 
L 119.603225 171.745286 
L 120.061535 171.634197 
L 120.171178 171.608762 
L 120.574666 171.49803 
L 120.68431 171.473097 
L 121.103148 171.362043 
L 121.212792 171.33444 
L 121.625051 171.223908 
L 121.734695 171.197105 
L 122.173269 171.08602 
L 122.282912 171.055524 
L 122.673243 170.944482 
L 122.782886 170.922071 
L 123.230232 170.811329 
L 123.339875 170.77605 
L 123.692928 170.664982 
L 123.802571 170.627493 
L 124.179745 170.516904 
L 124.289388 170.490165 
L 124.68849 170.379079 
L 124.798134 170.346685 
L 125.1775 170.236374 
L 125.287144 170.204506 
L 125.648968 170.094142 
L 125.758611 170.063018 
L 126.100699 169.953897 
L 126.210342 169.918704 
L 126.563394 169.808637 
L 126.673038 169.778106 
L 127.034861 169.66701 
L 127.144505 169.627965 
L 127.5458 169.517438 
L 127.655444 169.483649 
L 128.041389 169.373604 
L 128.151032 169.345695 
L 128.50847 169.235627 
L 128.618113 169.203896 
L 128.988709 169.094825 
L 129.098352 169.056195 
L 129.473333 168.945278 
L 129.582976 168.909059 
L 129.927257 168.797992 
L 130.0369 168.76663 
L 130.436003 168.656523 
L 130.545646 168.624826 
L 130.903084 168.513896 
L 131.012728 168.477595 
L 131.378937 168.366574 
L 131.48858 168.328693 
L 131.848211 168.217635 
L 131.957854 168.181533 
L 132.335028 168.070544 
L 132.444672 168.029304 
L 132.799917 167.918931 
L 132.90956 167.883103 
L 133.280155 167.773124 
L 133.389799 167.733247 
L 133.690222 167.62245 
L 133.799865 167.586554 
L 134.17046 167.475623 
L 134.280104 167.437411 
L 134.619999 167.326519 
L 134.729642 167.288781 
L 135.069537 167.177831 
L 135.17918 167.144871 
L 135.49934 167.037129 
L 135.608983 166.993812 
L 135.935721 166.883813 
L 136.045364 166.849088 
L 136.356752 166.7394 
L 136.466395 166.702948 
L 136.777783 166.592331 
L 136.887426 166.557721 
L 137.143992 166.447336 
L 137.253635 166.405608 
L 137.584759 166.295126 
L 137.694402 166.260022 
L 138.038683 166.149571 
L 138.148326 166.120532 
L 138.477257 166.010451 
L 138.5869 165.965628 
L 138.924602 165.856307 
L 139.034246 165.813965 
L 139.350019 165.703035 
L 139.459663 165.650464 
L 139.773243 165.539504 
L 139.882887 165.498157 
L 140.233746 165.387996 
L 140.343389 165.350887 
L 140.696441 165.240194 
L 140.806085 165.205894 
L 141.152558 165.095556 
L 141.262202 165.054963 
L 141.542889 164.944298 
L 141.652533 164.907708 
L 141.996813 164.797606 
L 142.106457 164.762663 
L 142.417844 164.651957 
L 142.527488 164.6087 
L 142.862997 164.497781 
L 142.97264 164.460092 
L 143.266485 164.351262 
L 143.376128 164.309068 
L 143.687516 164.198892 
L 143.79716 164.140556 
L 144.086618 164.029878 
L 144.196262 163.991825 
L 144.551507 163.880737 
L 144.66115 163.843972 
L 145.020781 163.733072 
L 145.130424 163.682747 
L 145.419883 163.572574 
L 145.529527 163.528429 
L 145.827757 163.418395 
L 145.937401 163.377442 
L 146.270717 163.267432 
L 146.38036 163.226614 
L 146.667626 163.115664 
L 146.77727 163.069524 
L 147.033836 162.959847 
L 147.143479 162.914699 
L 147.404431 162.804893 
L 147.514074 162.758473 
L 147.805726 162.649999 
L 147.915369 162.601718 
L 148.22895 162.492385 
L 148.338593 162.457638 
L 148.654367 162.346669 
L 148.76401 162.305536 
L 149.044697 162.195602 
L 149.154341 162.144009 
L 149.404328 162.0333 
L 149.513972 161.990278 
L 149.78808 161.879865 
L 149.897724 161.839766 
L 150.180604 161.728872 
L 150.290248 161.680099 
L 150.586285 161.56961 
L 150.695929 161.526733 
L 150.989773 161.417222 
L 151.099417 161.372345 
L 151.39984 161.261468 
L 151.509483 161.227963 
L 151.774821 161.11686 
L 151.884464 161.073895 
L 152.169537 160.964166 
L 152.279181 160.925487 
L 152.551097 160.815629 
L 152.66074 160.760066 
L 152.926077 160.649246 
L 153.035721 160.60428 
L 153.30983 160.493452 
L 153.419473 160.451323 
L 153.704546 160.340614 
L 153.81419 160.293106 
L 154.053212 160.182017 
L 154.162856 160.143232 
L 154.434772 160.034883 
L 154.544415 159.994017 
L 154.759317 159.884777 
L 154.86896 159.823159 
L 155.169383 159.712223 
L 155.279027 159.666309 
L 155.513664 159.555587 
L 155.623307 159.510762 
L 155.842594 159.404192 
L 155.952238 159.339097 
L 156.257047 159.228098 
L 156.36669 159.175198 
L 156.636413 159.064181 
L 156.746057 159.02191 
L 157.009201 158.91242 
L 157.118845 158.871436 
L 157.425846 158.760503 
L 157.53549 158.712685 
L 157.778899 158.602203 
L 157.888542 158.555538 
L 158.158265 158.444919 
L 158.267909 158.388447 
L 158.502546 158.278149 
L 158.612189 158.236324 
L 158.886298 158.125774 
L 158.995941 158.067674 
L 159.232771 157.956646 
L 159.342415 157.913926 
L 159.577052 157.805412 
L 159.686695 157.76019 
L 159.958611 157.649132 
L 160.068255 157.607948 
L 160.320435 157.500459 
L 160.430078 157.445335 
L 160.671294 157.334466 
L 160.780938 157.280866 
L 161.046275 157.172684 
L 161.155918 157.122378 
L 161.390555 157.011345 
L 161.500199 156.959614 
L 161.767729 156.848645 
L 161.877373 156.800011 
L 162.107624 156.688936 
L 162.217267 156.638728 
L 162.445326 156.528428 
L 162.554969 156.465003 
L 162.840042 156.354332 
L 162.949686 156.304842 
L 163.173359 156.193927 
L 163.283002 156.14059 
L 163.500096 156.029916 
L 163.60974 155.977923 
L 163.850956 155.866844 
L 163.960599 155.816525 
L 164.133836 155.70605 
L 164.243479 155.65311 
L 164.486888 155.542042 
L 164.596531 155.492209 
L 164.820204 155.382472 
L 164.929848 155.333053 
L 165.160099 155.222914 
L 165.269742 155.166759 
L 165.50438 155.058871 
L 165.614023 155.004052 
L 165.837696 154.893424 
L 165.947339 154.836293 
L 166.135926 154.727167 
L 166.24557 154.67788 
L 166.451699 154.568574 
L 166.561343 154.503959 
L 166.81133 154.393284 
L 166.920974 154.34471 
L 167.153418 154.234792 
L 167.263061 154.174859 
L 167.493313 154.064143 
L 167.602956 154.007633 
L 167.826629 153.897468 
L 167.936272 153.828653 
L 168.144595 153.719679 
L 168.254238 153.65607 
L 168.493261 153.546021 
L 168.602905 153.485411 
L 168.778334 153.374897 
L 168.887978 153.323979 
L 169.107265 153.214037 
L 169.216908 153.155002 
L 169.453738 153.044081 
L 169.563382 152.987807 
L 169.830912 152.877344 
L 169.940555 152.808465 
L 170.148878 152.699715 
L 170.258522 152.64151 
L 170.451494 152.531183 
L 170.561138 152.476181 
L 170.793582 152.366339 
L 170.903225 152.303821 
L 171.129091 152.194555 
L 171.238735 152.14241 
L 171.471179 152.031837 
L 171.580822 151.984117 
L 171.791338 151.87393 
L 171.900981 151.815165 
L 172.080797 151.705411 
L 172.19044 151.650748 
L 172.389991 151.540171 
L 172.499635 151.483437 
L 172.743043 151.377997 
L 172.852687 151.303632 
L 173.025924 151.194956 
L 173.135567 151.123961 
L 173.365818 151.013101 
L 173.475462 150.941848 
L 173.677206 150.831528 
L 173.786849 150.756619 
L 174.010522 150.646467 
L 174.120166 150.586347 
L 174.308753 150.47535 
L 174.418396 150.41271 
L 174.602597 150.305668 
L 174.712241 150.240938 
L 174.91837 150.129924 
L 175.028014 150.069643 
L 175.253879 149.959278 
L 175.363523 149.889782 
L 175.556496 149.778679 
L 175.666139 149.717577 
L 175.874462 149.606807 
L 175.984105 149.550871 
L 176.152956 149.440858 
L 176.2626 149.369309 
L 176.462151 149.258885 
L 176.571794 149.188465 
L 176.773538 149.081803 
L 176.883182 149.020015 
L 177.102469 148.91258 
L 177.212112 148.845537 
L 177.396313 148.735535 
L 177.505957 148.663997 
L 177.687965 148.554664 
L 177.797609 148.488839 
L 177.990581 148.37821 
L 178.100225 148.323894 
L 178.297583 148.212975 
L 178.407227 148.131513 
L 178.558535 148.023238 
L 178.668178 147.95357 
L 178.847993 147.843072 
L 178.957637 147.794876 
L 179.115524 147.683826 
L 179.225167 147.61398 
L 179.389632 147.503317 
L 179.499276 147.435861 
L 179.68567 147.324802 
L 179.795313 147.259682 
L 179.972936 147.150807 
L 180.082579 147.066207 
L 180.233887 146.956109 
L 180.343531 146.905466 
L 180.571589 146.794689 
L 180.681233 146.727338 
L 180.861048 146.624103 
L 180.970692 146.552659 
L 181.124192 146.442293 
L 181.233836 146.360683 
L 181.415844 146.250482 
L 181.525488 146.189637 
L 181.685567 146.081028 
L 181.795211 145.999834 
L 181.942133 145.889537 
L 182.051776 145.829724 
L 182.225013 145.718684 
L 182.334657 145.652779 
L 182.505701 145.542472 
L 182.615344 145.450395 
L 182.766652 145.339454 
L 182.876296 145.269118 
L 183.058304 145.15843 
L 183.167947 145.08774 
L 183.328027 144.977331 
L 183.43767 144.915445 
L 183.584593 144.80823 
L 183.694236 144.734578 
L 183.852123 144.624741 
L 183.961766 144.554415 
L 184.135003 144.446469 
L 184.244646 144.334154 
L 184.409112 144.225992 
L 184.518755 144.140608 
L 184.676642 144.029981 
L 184.786285 143.963108 
L 184.937593 143.852294 
L 185.047237 143.777478 
L 185.220474 143.666565 
L 185.330117 143.562033 
L 185.483618 143.45229 
L 185.593261 143.356141 
L 185.744569 143.248945 
L 185.854213 143.178791 
L 186.009907 143.068674 
L 186.11955 142.973887 
L 186.266473 142.863007 
L 186.376116 142.799647 
L 186.512074 142.689199 
L 186.621717 142.617774 
L 186.788376 142.50806 
L 186.898019 142.434444 
L 187.071256 142.323985 
L 187.180899 142.234757 
L 187.351943 142.123797 
L 187.461587 142.023182 
L 187.608509 141.918793 
L 187.718152 141.824179 
L 187.873846 141.714619 
L 187.98349 141.632471 
L 188.112869 141.522024 
L 188.222513 141.428399 
L 188.360663 141.321759 
L 188.470307 141.22976 
L 188.610651 141.120892 
L 188.720294 141.054461 
L 188.847481 140.944964 
L 188.957124 140.848274 
L 189.082118 140.737807 
L 189.191761 140.654912 
L 189.347455 140.544041 
L 189.457098 140.440839 
L 189.634721 140.331618 
L 189.744364 140.231436 
L 189.867165 140.122747 
L 189.976809 140.048492 
L 190.130309 139.9402 
L 190.239953 139.850834 
L 190.384682 139.74155 
L 190.494326 139.644951 
L 190.645634 139.536663 
L 190.755277 139.454916 
L 190.9022 139.344361 
L 191.011843 139.226685 
L 191.114908 139.116025 
L 191.224552 139.008574 
L 191.371474 138.898123 
L 191.481117 138.813091 
L 191.619268 138.703807 
L 191.728912 138.607615 
L 191.84952 138.497171 
L 191.959163 138.403016 
L 192.11705 138.293871 
L 192.226693 138.206652 
L 192.373615 138.097888 
L 192.483259 138.020427 
L 192.619217 137.911346 
L 192.72886 137.824975 
L 192.860433 137.718639 
L 192.970076 137.617235 
L 193.084105 137.508474 
L 193.193749 137.422413 
L 193.334092 137.312637 
L 193.443736 137.207066 
L 193.542415 137.09706 
L 193.652059 137.002346 
L 193.807752 136.891796 
L 193.917396 136.798933 
L 194.048968 136.690259 
L 194.158612 136.600933 
L 194.287991 136.489855 
L 194.397634 136.37891 
L 194.527014 136.268086 
L 194.636657 136.156167 
L 194.752879 136.052869 
L 194.862523 135.955389 
L 194.991902 135.844772 
L 195.101546 135.753184 
L 195.206803 135.642819 
L 195.316447 135.534236 
L 195.456791 135.423898 
L 195.566434 135.343588 
L 195.678271 135.235848 
L 195.787914 135.1493 
L 195.943608 135.038551 
L 196.053251 134.93563 
L 196.171666 134.824926 
L 196.28131 134.723298 
L 196.384375 134.617712 
L 196.494018 134.500266 
L 196.654098 134.389546 
L 196.763741 134.265972 
L 196.901892 134.157 
L 197.011535 134.057424 
L 197.121179 133.948702 
L 197.230822 133.841487 
L 197.347045 133.733842 
L 197.456688 133.62084 
L 197.57291 133.513365 
L 197.682554 133.420515 
L 197.798776 133.313124 
L 197.908419 133.211239 
L 198.022449 133.103777 
L 198.132092 132.997651 
L 198.241736 132.887103 
L 198.351379 132.797861 
L 198.450058 132.690367 
L 198.559702 132.585278 
L 198.653995 132.476824 
L 198.763639 132.381676 
L 198.906175 132.273722 
L 199.015819 132.173065 
L 199.162741 132.062513 
L 199.272384 131.930937 
L 199.403957 131.823147 
L 199.5136 131.688178 
L 199.634208 131.578552 
L 199.743851 131.468693 
L 199.860074 131.361876 
L 199.969717 131.248074 
L 200.077168 131.142644 
L 200.186811 131.023637 
L 200.283297 130.912942 
L 200.392941 130.808361 
L 200.511356 130.698907 
L 200.620999 130.592296 
L 200.745993 130.485548 
L 200.855637 130.363783 
L 200.93458 130.253783 
L 201.044223 130.123446 
L 201.191146 130.01599 
L 201.300789 129.904677 
L 201.419204 129.799085 
L 201.528848 129.649315 
L 201.618755 129.543519 
L 201.728399 129.438644 
L 201.844621 129.331931 
L 201.954264 129.213721 
L 202.059522 129.102905 
L 202.169166 128.976178 
L 202.259073 128.873877 
L 202.368717 128.736394 
L 202.473975 128.631419 
L 202.583618 128.464593 
L 202.680104 128.354785 
L 202.789748 128.225029 
L 202.916934 128.114224 
L 203.026578 127.973012 
L 203.134028 127.863594 
L 203.243672 127.788588 
L 203.362087 127.678014 
L 203.47173 127.549584 
L 203.57041 127.439394 
L 203.680053 127.305736 
L 203.754611 127.195067 
L 203.864254 127.06521 
L 203.993633 126.956586 
L 204.103277 126.790614 
L 204.188799 126.68733 
L 204.298442 126.540724 
L 204.4037 126.430409 
L 204.513344 126.287621 
L 204.627373 126.179399 
L 204.737016 126.05421 
L 204.829117 125.943442 
L 204.93876 125.808475 
L 205.035247 125.697784 
L 205.14489 125.566185 
L 205.221641 125.456464 
L 205.331284 125.312401 
L 205.445313 125.201309 
L 205.554957 125.045629 
L 205.653636 124.939099 
L 205.76328 124.777422 
L 205.853187 124.666554 
L 205.962831 124.515033 
L 206.059317 124.403999 
L 206.168961 124.257991 
L 206.272025 124.150102 
L 206.381669 124.021402 
L 206.469384 123.913197 
L 206.579027 123.802177 
L 206.677706 123.691113 
L 206.78735 123.534689 
L 206.850943 123.432749 
L 206.960587 123.268 
L 207.052687 123.161788 
L 207.162331 123.008166 
L 207.243467 122.897474 
L 207.35311 122.758687 
L 207.410125 122.65294 
L 207.519768 122.527166 
L 207.594326 122.416961 
L 207.70397 122.273774 
L 207.800456 122.162933 
L 207.910099 122.044922 
L 207.982464 121.94525 
L 208.092107 121.759509 
L 208.197365 121.65127 
L 208.307009 121.507666 
L 208.388145 121.398871 
L 208.497788 121.245514 
L 208.581118 121.135555 
L 208.690761 120.983211 
L 208.749968 120.876958 
L 208.859612 120.720791 
L 208.929784 120.613915 
L 209.039427 120.493885 
L 209.116178 120.384519 
L 209.225821 120.231108 
L 209.295993 120.1243 
L 209.405637 119.936709 
L 209.495544 119.827716 
L 209.605188 119.655904 
L 209.684131 119.5472 
L 209.793775 119.417162 
L 209.863946 119.306504 
L 209.97359 119.159954 
L 210.061305 119.049236 
L 210.170948 118.867085 
L 210.252084 118.75896 
L 210.361728 118.534074 
L 210.458214 118.424825 
L 210.567858 118.241396 
L 210.63803 118.131536 
L 210.747673 117.987161 
L 210.824423 117.877725 
L 210.934067 117.719778 
L 210.988889 117.613787 
L 211.098532 117.410543 
L 211.162125 117.30174 
L 211.271769 117.149063 
L 211.337555 117.0404 
L 211.447199 116.857182 
L 211.521756 116.746956 
L 211.6314 116.59585 
L 211.703764 116.484853 
L 211.813408 116.309867 
L 211.890158 116.199896 
L 211.999802 116.004523 
L 212.087517 115.894127 
L 212.19716 115.718724 
L 212.276103 115.608175 
L 212.385747 115.382167 
L 212.46469 115.273642 
L 212.574334 115.080032 
L 212.644506 114.970858 
L 212.754149 114.826922 
L 212.815549 114.716666 
L 212.925193 114.517126 
L 212.9844 114.407343 
L 213.094044 114.234349 
L 213.164216 114.128406 
L 213.273859 113.977567 
L 213.361574 113.866588 
L 213.471218 113.662188 
L 213.506303 113.560062 
L 213.615947 113.363065 
L 213.677347 113.252299 
L 213.786991 113.060274 
L 213.841813 112.953975 
L 213.951456 112.733369 
L 214.030399 112.625756 
L 214.140043 112.425996 
L 214.208022 112.319149 
L 214.317665 112.116835 
L 214.368101 112.0138 
L 214.477745 111.830176 
L 214.541338 111.728765 
L 214.650982 111.53171 
L 214.718961 111.421174 
L 214.828604 111.274887 
L 214.87904 111.166112 
L 214.988684 110.92803 
L 215.052277 110.821388 
L 215.16192 110.585833 
L 215.221128 110.481002 
L 215.330771 110.267008 
L 215.392172 110.158178 
L 215.501815 109.931006 
L 215.57418 109.819971 
L 215.683823 109.549153 
L 215.743031 109.444243 
L 215.852674 109.181202 
L 215.927232 109.072093 
L 216.036875 108.832139 
L 216.104854 108.728356 
L 216.214498 108.557703 
L 216.26932 108.448573 
L 216.378963 108.229397 
L 216.440364 108.120112 
L 216.550007 107.884344 
L 216.593864 107.774621 
L 216.703508 107.526184 
L 216.751751 107.423835 
L 216.861395 107.158444 
L 216.920602 107.055443 
L 217.030246 106.826223 
L 217.091646 106.717667 
L 217.201289 106.54681 
L 217.236375 106.441052 
L 217.346019 106.156358 
L 217.394262 106.04855 
L 217.503905 105.815377 
L 217.558727 105.707059 
L 217.668371 105.416491 
L 217.718807 105.305438 
L 217.82845 105.093411 
L 217.8745 104.983843 
L 217.984144 104.690247 
L 218.036773 104.579327 
L 218.146416 104.375811 
L 218.205624 104.270146 
L 218.315267 103.903486 
L 218.365703 103.793207 
L 218.475347 103.550062 
L 218.514819 103.447647 
L 218.624462 103.178609 
L 218.688055 103.072278 
L 218.797699 102.785709 
L 218.850328 102.678741 
L 218.959971 102.372583 
L 219.014793 102.262207 
L 219.124436 102.022664 
L 219.161715 101.917933 
L 219.271359 101.629699 
L 219.308637 101.525352 
L 219.418281 101.262377 
L 219.466524 101.155701 
L 219.576168 100.856238 
L 219.628796 100.75561 
L 219.73844 100.45192 
L 219.777912 100.345658 
L 219.887555 100.058283 
L 219.924834 99.960936 
L 220.034477 99.701639 
L 220.054213 99.594248 
L 220.163857 99.323834 
L 220.203328 99.223939 
L 220.312972 98.944637 
L 220.359022 98.843374 
L 220.468666 98.490073 
L 220.51033 98.38286 
L 220.619974 98.021677 
L 220.663831 97.910784 
L 220.773475 97.665969 
L 220.819525 97.556182 
L 220.929168 97.282911 
L 220.964254 97.178255 
L 221.073898 96.806211 
L 221.108984 96.700831 
L 221.218627 96.387395 
L 221.262485 96.27734 
L 221.372128 95.927399 
L 221.415986 95.839473 
L 221.525629 95.527366 
L 221.578258 95.423457 
L 221.687901 95.024733 
L 221.716409 94.920986 
L 221.826052 94.513116 
L 221.858945 94.402957 
L 221.968589 94.114423 
L 222.014639 94.010689 
L 222.124283 93.627958 
L 222.161561 93.519345 
L 222.271205 93.155884 
L 222.319448 93.050447 
L 222.429091 92.757217 
L 222.457599 92.650613 
L 222.567242 92.263303 
L 222.615485 92.154928 
L 222.725129 91.74605 
L 222.777758 91.639975 
L 222.887401 91.218415 
L 222.929066 91.112817 
L 223.038709 90.776988 
L 223.075988 90.669947 
L 223.185632 90.25359 
L 223.233875 90.152718 
L 223.343518 89.794193 
L 223.38299 89.694516 
L 223.492633 89.19301 
L 223.521141 89.08902 
L 223.630784 88.617885 
L 223.668063 88.509745 
L 223.777706 88.161068 
L 223.801828 88.057745 
L 223.911472 87.697811 
L 223.942172 87.611968 
L 224.051815 87.157076 
L 224.07813 87.056704 
L 224.187773 86.644711 
L 224.203123 86.544943 
L 224.312767 86.192704 
L 224.343467 86.085548 
L 224.45311 85.717763 
L 224.496968 85.621181 
L 224.606611 85.142736 
L 224.630733 85.038227 
L 224.740376 84.506279 
L 224.764498 84.398652 
L 224.874141 84.020686 
L 224.898263 83.912008 
L 225.007907 83.510353 
L 225.029835 83.407757 
L 225.139479 82.876412 
L 225.174565 82.782334 
L 225.284208 82.26953 
L 225.301751 82.173085 
L 225.411395 81.69949 
L 225.446481 81.594573 
L 225.556124 81.048509 
L 225.571474 80.94167 
L 225.681118 80.530837 
L 225.714011 80.426425 
L 225.823654 79.919638 
L 225.845583 79.812928 
L 225.955226 79.37601 
L 225.981541 79.267553 
L 226.091184 78.716512 
L 226.119692 78.611489 
L 226.229335 78.06831 
L 226.249071 77.96427 
L 226.358714 77.419106 
L 226.3938 77.312915 
L 226.503444 76.716357 
L 226.529758 76.614806 
L 226.639402 76.008261 
L 226.661331 75.911244 
L 226.770974 75.136417 
L 226.80606 75.034241 
L 226.915703 74.406079 
L 226.937632 74.297634 
L 227.047276 73.780317 
L 227.080169 73.673948 
L 227.189812 72.953228 
L 227.224898 72.84385 
L 227.334542 72.078828 
L 227.360856 71.984001 
L 227.4705 71.308791 
L 227.496814 71.227132 
L 227.606457 70.658397 
L 227.637158 70.55108 
L 227.746801 69.923943 
L 227.76873 69.816905 
L 227.878373 69.102245 
L 227.895916 69.006668 
L 228.00556 68.030197 
L 228.027489 67.925663 
L 228.137132 67.168124 
L 228.148096 67.0675 
L 228.25774 66.467121 
L 228.277476 66.364595 
L 228.387119 65.618491 
L 228.411241 65.51451 
L 228.520884 64.915819 
L 228.54062 64.812071 
L 228.650264 64.073233 
L 228.663421 63.97577 
L 228.773064 63.389633 
L 228.786222 63.28299 
L 228.895865 62.43526 
L 228.909022 62.332502 
L 229.018666 61.381244 
L 229.042787 61.271702 
L 229.152431 60.529484 
L 229.167781 60.430595 
L 229.277424 59.407516 
L 229.294967 59.315217 
L 229.404611 58.133698 
L 229.411189 58.058013 
L 229.520833 56.975359 
L 229.53399 56.89925 
L 229.643634 55.950929 
L 229.658984 55.844164 
L 229.768627 54.720937 
L 229.773013 54.639026 
L 229.882657 53.216993 
L 229.887042 53.200976 
L 229.996686 51.618468 
L 230.020807 51.508828 
L 230.130451 50.345367 
L 230.147994 50.245434 
L 230.257637 48.755743 
L 230.268602 48.656318 
L 230.378245 47.130258 
L 230.393595 47.049747 
L 230.503239 45.468872 
L 230.51201 45.38457 
L 230.621654 43.280337 
L 230.628232 43.222903 
L 230.737876 41.717491 
L 230.746647 41.618546 
L 230.856291 39.513294 
L 230.862869 39.467432 
L 230.972513 36.99709 
L 230.981284 36.886358 
L 231.090928 34.49866 
L 231.097507 34.42434 
L 231.20715 31.864447 
L 231.211536 31.830212 
L 231.321179 28.121263 
L 231.334336 28.026953 
L 231.44398 24.696253 
L 231.448366 24.617156 
L 231.558009 21.08639 
L 231.560202 21.08639 
L 231.669846 16.792099 
L 231.676424 16.714825 
L 231.786068 12.340951 
L 231.790453 12.235731 
L 231.900097 8.358903 
L 231.906676 8.293884 
L 231.922026 -1 
L 231.922026 -1 
" clip-path="url(#p90647ea001)" style="fill: none; stroke: #67c7d5; stroke-width: 1.5; stroke-linecap: square"/>
   </g>
   <g id="line2d_14">
    <path d="M 56.077974 191.431744 
L 56.080167 191.431744 
L 56.189811 182.540076 
L 56.417869 182.432358 
L 56.523127 182.362881 
L 56.663471 182.253884 
L 56.770921 182.167351 
L 56.906879 182.058866 
L 57.01433 181.965538 
L 57.191952 181.860299 
L 57.301596 181.791877 
L 57.47264 181.680871 
L 57.582283 181.574465 
L 57.718241 181.467825 
L 57.827885 181.389245 
L 58.036207 181.278655 
L 58.145851 181.177446 
L 58.251109 181.067713 
L 58.360752 180.970346 
L 58.54276 180.861022 
L 58.650211 180.783308 
L 58.781783 180.672861 
L 58.891427 180.612798 
L 59.086592 180.503948 
L 59.194043 180.42177 
L 59.312458 180.311627 
L 59.419908 180.219468 
L 59.615074 180.110005 
L 59.724717 179.994306 
L 59.873832 179.885824 
L 59.976897 179.831759 
L 60.15452 179.723745 
L 60.165484 179.713471 
L 62.279411 179.603353 
L 62.384668 179.504329 
L 62.564484 179.396576 
L 62.674127 179.336678 
L 62.921922 179.227349 
L 63.031565 179.132641 
L 63.130244 179.024871 
L 63.233309 178.930104 
L 63.378039 178.819588 
L 63.487682 178.708851 
L 63.63899 178.602888 
L 63.682847 178.560079 
L 64.101686 178.452275 
L 64.209136 178.363718 
L 64.310008 178.261361 
L 64.419652 178.156518 
L 64.579731 178.045627 
L 64.689375 177.942857 
L 64.842876 177.834521 
L 64.952519 177.715159 
L 65.116984 177.604694 
L 65.226628 177.492371 
L 65.369165 177.382361 
L 65.478808 177.290256 
L 65.638888 177.180627 
L 65.746338 177.088232 
L 65.87791 176.984942 
L 65.985361 176.905416 
L 66.152019 176.799607 
L 66.154212 176.787276 
L 68.410675 176.676992 
L 68.518126 176.597491 
L 68.893107 176.48694 
L 69.00275 176.379855 
L 69.169408 176.2716 
L 69.279052 176.183372 
L 69.404045 176.073519 
L 69.463253 176.008869 
L 69.691311 175.897878 
L 69.798762 175.864675 
L 69.93472 175.75397 
L 70.044363 175.688024 
L 70.1562 175.578515 
L 70.265843 175.474345 
L 70.384258 175.364378 
L 70.493902 175.26732 
L 70.610124 175.160207 
L 70.713189 175.086141 
L 70.875461 174.976983 
L 70.985105 174.897647 
L 71.096941 174.791906 
L 71.202199 174.686483 
L 71.3557 174.577015 
L 71.465343 174.520872 
L 71.818395 174.40986 
L 71.928039 174.310654 
L 72.121011 174.20013 
L 72.228462 174.103676 
L 72.377577 174.003632 
L 72.48722 173.929385 
L 73.60997 173.823228 
L 73.719613 173.726097 
L 74.294145 173.615218 
L 74.364317 173.55474 
L 74.601147 173.444797 
L 74.710791 173.362544 
L 74.868677 173.252418 
L 74.978321 173.15952 
L 75.1077 173.051749 
L 75.217344 172.917401 
L 75.362073 172.809153 
L 75.471717 172.705987 
L 75.618639 172.595114 
L 75.704161 172.499364 
L 75.857662 172.388426 
L 75.967305 172.299742 
L 76.050634 172.190162 
L 76.160278 172.070044 
L 76.280886 171.966605 
L 76.390529 171.853974 
L 76.522101 171.743226 
L 76.629552 171.655103 
L 76.783053 171.547706 
L 76.892696 171.455499 
L 77.015497 171.344644 
L 77.12514 171.224293 
L 77.228205 171.123335 
L 77.337849 171.014116 
L 78.298326 170.90484 
L 78.407969 170.81521 
L 78.960573 170.705716 
L 79.070216 170.61816 
L 79.27196 170.507595 
L 79.381604 170.413882 
L 79.710534 170.303577 
L 79.820178 170.196977 
L 79.9364 170.090147 
L 80.046043 170.008279 
L 80.160073 169.898041 
L 80.26533 169.780866 
L 80.37936 169.674316 
L 80.48681 169.56026 
L 80.609611 169.452602 
L 80.719254 169.348643 
L 80.815741 169.237728 
L 80.925384 169.136155 
L 81.081078 169.026328 
L 81.190721 168.916183 
L 81.293786 168.809215 
L 81.401237 168.700168 
L 81.504302 168.590717 
L 81.611752 168.496531 
L 81.730167 168.391757 
L 81.839811 168.286037 
L 81.936297 168.180847 
L 82.045941 168.083382 
L 82.866074 167.97887 
L 82.975718 167.863418 
L 83.072204 167.753083 
L 83.07659 167.747542 
L 83.517357 167.637946 
L 83.627 167.533824 
L 83.830937 167.423197 
L 83.936195 167.295158 
L 84.034874 167.184773 
L 84.144517 167.047706 
L 84.247582 166.942476 
L 84.357226 166.840368 
L 84.482219 166.729456 
L 84.591863 166.626064 
L 84.697121 166.516997 
L 84.806764 166.420249 
L 84.947108 166.309449 
L 84.975615 166.286125 
L 85.203674 166.18303 
L 85.313317 166.056551 
L 85.471204 165.946906 
L 85.580847 165.87832 
L 85.692684 165.767372 
L 85.802327 165.676592 
L 85.898813 165.569063 
L 86.008457 165.478821 
L 86.1181 165.368421 
L 86.225551 165.247473 
L 86.350545 165.137451 
L 86.420716 165.060733 
L 87.282514 164.951321 
L 87.392158 164.819277 
L 87.769331 164.710198 
L 87.878975 164.542509 
L 88.060983 164.435027 
L 88.170627 164.298441 
L 88.293427 164.188513 
L 88.403071 164.081651 
L 88.499557 163.971994 
L 88.609201 163.8379 
L 88.732001 163.728624 
L 88.841645 163.61632 
L 88.942517 163.505989 
L 89.05216 163.3951 
L 89.122332 163.284488 
L 89.231976 163.157931 
L 89.363548 163.049254 
L 89.473191 162.917144 
L 89.576256 162.807713 
L 89.6859 162.70409 
L 89.817472 162.597778 
L 89.924923 162.508389 
L 90.052109 162.398619 
L 90.161753 162.32043 
L 90.271396 162.213582 
L 90.38104 162.192442 
L 90.975307 162.082001 
L 91.082758 161.954889 
L 91.196787 161.846025 
L 91.242837 161.78948 
L 91.569575 161.681882 
L 91.679219 161.591184 
L 91.795441 161.481593 
L 91.905084 161.409661 
L 91.992799 161.305014 
L 92.102442 161.147028 
L 92.185772 161.044758 
L 92.295415 160.885075 
L 92.394094 160.774699 
L 92.477423 160.665311 
L 92.622153 160.556321 
L 92.731796 160.432782 
L 92.821704 160.329235 
L 92.931347 160.161337 
L 93.051955 160.051778 
L 93.161599 159.923344 
L 93.242735 159.817104 
L 93.352378 159.655662 
L 93.431322 159.545488 
L 93.540965 159.433725 
L 93.668152 159.322933 
L 93.762445 159.199265 
L 94.343556 159.088209 
L 94.433463 158.982908 
L 94.556264 158.871843 
L 94.600121 158.800815 
L 94.961945 158.691273 
L 95.071588 158.570504 
L 95.174653 158.459617 
L 95.284297 158.366668 
L 95.372012 158.257552 
L 95.481655 158.148175 
L 95.676821 158.044571 
L 95.786464 157.93095 
L 95.88295 157.820223 
L 95.992594 157.683947 
L 96.080309 157.577552 
L 96.189952 157.487088 
L 96.275474 157.377772 
L 96.385118 157.219221 
L 96.475025 157.111098 
L 96.584669 156.936896 
L 96.674576 156.828179 
L 96.78422 156.698603 
L 96.880706 156.589435 
L 96.988157 156.476696 
L 97.095607 156.366607 
L 97.172358 156.270283 
L 97.713997 156.160697 
L 97.82364 156.044264 
L 97.946441 155.933698 
L 98.007841 155.823002 
L 98.262214 155.715866 
L 98.371858 155.592056 
L 98.520973 155.4869 
L 98.628424 155.377698 
L 98.806046 155.268469 
L 98.91569 155.115352 
L 98.996826 155.005062 
L 99.106469 154.877616 
L 99.178834 154.773011 
L 99.288477 154.640194 
L 99.382771 154.529165 
L 99.492414 154.342549 
L 99.593286 154.232314 
L 99.70293 154.087661 
L 99.858624 153.981789 
L 99.968267 153.829343 
L 100.053789 153.7191 
L 100.163433 153.591756 
L 100.23799 153.483626 
L 100.336669 153.339424 
L 100.91778 153.234458 
L 101.027423 153.061846 
L 101.119524 152.950755 
L 101.209432 152.843643 
L 101.463804 152.734918 
L 101.573448 152.597313 
L 101.680899 152.488456 
L 101.779578 152.326701 
L 101.893607 152.226863 
L 102.00325 152.081264 
L 102.108508 151.970481 
L 102.218152 151.822629 
L 102.290516 151.712021 
L 102.40016 151.60896 
L 102.485682 151.499902 
L 102.595325 151.368457 
L 102.654533 151.261268 
L 102.764176 151.135488 
L 102.836541 151.024555 
L 102.946185 150.861449 
L 103.014164 150.752831 
L 103.123807 150.65628 
L 103.200557 150.546245 
L 103.310201 150.407238 
L 103.829911 150.299874 
L 103.939555 150.167781 
L 104.04262 150.062901 
L 104.152263 149.945771 
L 104.437336 149.835119 
L 104.54698 149.70326 
L 104.661009 149.592662 
L 104.748724 149.467078 
L 104.884682 149.356098 
L 104.994325 149.275847 
L 105.077654 149.172629 
L 105.187298 149.076095 
L 105.27282 148.974049 
L 105.375885 148.831733 
L 105.465792 148.722588 
L 105.575436 148.549142 
L 105.660958 148.446011 
L 105.768408 148.302726 
L 105.845159 148.196057 
L 105.954802 148.037439 
L 106.042517 147.926634 
L 106.15216 147.785361 
L 106.222332 147.679836 
L 106.331976 147.507608 
L 106.693799 147.416867 
L 106.803443 147.259132 
L 106.899929 147.148906 
L 107.009573 146.982079 
L 107.248595 146.87183 
L 107.356046 146.737531 
L 107.456918 146.627825 
L 107.566562 146.512876 
L 107.656469 146.402158 
L 107.74857 146.268947 
L 107.877949 146.161338 
L 107.987593 145.982781 
L 108.053379 145.873272 
L 108.163022 145.798231 
L 108.22223 145.68775 
L 108.331873 145.542399 
L 108.461253 145.43225 
L 108.568703 145.266334 
L 108.649839 145.163194 
L 108.759483 145.030685 
L 108.858162 144.922396 
L 108.967806 144.742712 
L 109.051135 144.63183 
L 109.125692 144.547222 
L 109.619088 144.437984 
L 109.728731 144.277535 
L 109.833989 144.166491 
L 109.943633 143.993636 
L 110.217741 143.887122 
L 110.327385 143.700019 
L 110.388785 143.593169 
L 110.498429 143.424329 
L 110.586144 143.316827 
L 110.649737 143.232311 
L 110.787888 143.128274 
L 110.897531 142.922729 
L 110.99621 142.814562 
L 111.101468 142.678953 
L 111.167254 142.57474 
L 111.276898 142.430972 
L 111.36242 142.321238 
L 111.472063 142.150523 
L 111.579514 142.044932 
L 111.689157 141.881196 
L 111.779065 141.772539 
L 111.888708 141.66615 
L 112.298775 141.557295 
L 112.408419 141.403438 
L 112.482976 141.294818 
L 112.59262 141.17077 
L 112.682527 141.0623 
L 112.776821 140.925651 
L 113.044351 140.817262 
L 113.151801 140.677546 
L 113.230745 140.57652 
L 113.340388 140.413253 
L 113.414946 140.309206 
L 113.482925 140.19884 
L 113.590375 140.09174 
L 113.700019 139.924341 
L 113.787734 139.821003 
L 113.897377 139.65282 
L 113.976321 139.554569 
L 114.085964 139.422617 
L 114.180258 139.311861 
L 114.289901 139.133671 
L 114.360073 139.02503 
L 114.469716 138.817714 
L 114.537695 138.706853 
L 114.546467 138.682641 
L 114.932412 138.571809 
L 115.042055 138.406021 
L 115.112227 138.301266 
L 115.221871 138.129666 
L 115.311778 138.024851 
L 115.377565 137.942644 
L 115.627552 137.837906 
L 115.728424 137.666029 
L 115.842453 137.556376 
L 115.952096 137.4168 
L 116.013497 137.307314 
L 116.120947 137.174227 
L 116.234977 137.072252 
L 116.34462 136.917812 
L 116.412599 136.807523 
L 116.522243 136.640358 
L 116.614343 136.530435 
L 116.723987 136.362863 
L 116.774423 136.256499 
L 116.884066 136.129738 
L 116.960817 136.02058 
L 117.07046 135.883395 
L 117.145018 135.77307 
L 117.147211 135.754241 
L 117.59017 135.645509 
L 117.699814 135.483337 
L 117.763407 135.375367 
L 117.873051 135.243382 
L 117.94103 135.142485 
L 118.050673 134.994273 
L 118.250224 134.888365 
L 118.359868 134.749646 
L 118.441004 134.641805 
L 118.550647 134.460807 
L 118.636169 134.352563 
L 118.745813 134.195702 
L 118.890542 134.089892 
L 119.000186 133.92239 
L 119.068165 133.812561 
L 119.173422 133.667904 
L 119.30938 133.565336 
L 119.419024 133.364245 
L 119.48481 133.259029 
L 119.594453 133.091463 
L 119.669011 132.982042 
L 119.778655 132.827675 
L 120.1646 132.724049 
L 120.274243 132.578327 
L 120.331258 132.469136 
L 120.440901 132.335625 
L 120.519845 132.226592 
L 120.627295 132.005693 
L 120.850968 131.899842 
L 120.960611 131.73007 
L 121.037362 131.62105 
L 121.147005 131.448694 
L 121.199634 131.339298 
L 121.309278 131.113212 
L 121.41015 131.004348 
L 121.519793 130.782684 
L 121.60093 130.678479 
L 121.710573 130.514898 
L 121.776359 130.404428 
L 121.886003 130.220842 
L 121.96056 130.111575 
L 122.070204 129.948956 
L 122.429834 129.838197 
L 122.539478 129.655116 
L 122.631578 129.544234 
L 122.741222 129.455338 
L 122.789465 129.344511 
L 122.899109 129.13726 
L 122.978052 129.028127 
L 123.006559 128.997588 
L 123.212689 128.887192 
L 123.322332 128.741523 
L 123.363997 128.634245 
L 123.473641 128.504563 
L 123.565741 128.393743 
L 123.660034 128.21561 
L 123.771871 128.105473 
L 123.881514 127.959531 
L 123.953879 127.850742 
L 124.063523 127.680953 
L 124.135887 127.575085 
L 124.245531 127.389017 
L 124.315703 127.279233 
L 124.425346 127.083556 
L 124.502097 126.973866 
L 124.506482 126.966164 
L 124.846377 126.856117 
L 124.956021 126.71325 
L 125.043735 126.604411 
L 125.151186 126.465436 
L 125.230129 126.355844 
L 125.339773 126.206022 
L 125.409945 126.102673 
L 125.460381 126.01805 
L 125.622653 125.907367 
L 125.732297 125.749172 
L 125.800276 125.640129 
L 125.909919 125.454391 
L 126.028334 125.344472 
L 126.137978 125.17094 
L 126.214728 125.061273 
L 126.324371 124.955866 
L 126.398929 124.848892 
L 126.508573 124.66124 
L 126.56778 124.557419 
L 126.677424 124.373573 
L 126.75856 124.264748 
L 126.86601 124.10275 
L 127.269498 123.991665 
L 127.379142 123.811551 
L 127.451507 123.705416 
L 127.56115 123.557161 
L 127.618165 123.450298 
L 127.727808 123.277277 
L 127.802366 123.169854 
L 127.909816 123.035374 
L 128.091825 122.924643 
L 128.201468 122.764979 
L 128.289183 122.658694 
L 128.398826 122.469224 
L 128.473384 122.363293 
L 128.583028 122.195464 
L 128.646621 122.089624 
L 128.756264 121.96475 
L 128.826436 121.860177 
L 128.93608 121.703286 
L 128.986516 121.592748 
L 129.096159 121.406925 
L 129.238696 121.302562 
L 129.335182 121.098668 
L 129.688234 120.988173 
L 129.797878 120.826029 
L 129.889978 120.722258 
L 129.999622 120.579859 
L 130.056636 120.470602 
L 130.16628 120.28 
L 130.236452 120.171862 
L 130.304431 120.055019 
L 130.49521 119.947416 
L 130.604854 119.792424 
L 130.681604 119.683701 
L 130.791248 119.567459 
L 130.863612 119.458314 
L 130.973256 119.242888 
L 131.056585 119.132876 
L 131.164036 118.975836 
L 131.218857 118.873937 
L 131.328501 118.722793 
L 131.409637 118.611907 
L 131.51928 118.433387 
L 131.60261 118.324049 
L 131.670589 118.168986 
L 132.017062 118.062267 
L 132.126705 117.907766 
L 132.218806 117.80122 
L 132.32845 117.633058 
L 132.378886 117.539764 
L 132.488529 117.322845 
L 132.631066 117.213165 
L 132.714395 117.07661 
L 132.913946 116.971108 
L 133.023589 116.792547 
L 133.109111 116.682315 
L 133.218755 116.533276 
L 133.280155 116.422504 
L 133.389799 116.274853 
L 133.468742 116.163773 
L 133.578385 115.9689 
L 133.655136 115.861109 
L 133.764779 115.681173 
L 133.863458 115.571912 
L 133.966523 115.412021 
L 134.032309 115.304949 
L 134.071781 115.238252 
L 134.365626 115.127201 
L 134.475269 114.990313 
L 134.53667 114.880052 
L 134.646313 114.821721 
L 134.723064 114.715946 
L 134.832707 114.567422 
L 134.894107 114.459082 
L 135.003751 114.303223 
L 135.100237 114.194469 
L 135.146287 114.095505 
L 135.301981 113.988624 
L 135.411625 113.825615 
L 135.486182 113.714545 
L 135.595826 113.5102 
L 135.655033 113.401105 
L 135.764677 113.200141 
L 135.88967 113.100381 
L 135.98835 112.91333 
L 136.087029 112.80273 
L 136.194479 112.628422 
L 136.25588 112.519254 
L 136.365523 112.362938 
L 136.703225 112.260724 
L 136.812869 112.02792 
L 136.869883 111.921512 
L 136.979527 111.742343 
L 137.056277 111.632014 
L 137.154956 111.474871 
L 137.227321 111.367533 
L 137.336965 111.137633 
L 137.50143 111.031044 
L 137.611073 110.867074 
L 137.674667 110.758991 
L 137.782117 110.575134 
L 137.83036 110.464922 
L 137.940004 110.287773 
L 138.02114 110.181919 
L 138.130783 110.000809 
L 138.170255 109.910036 
L 138.279899 109.767951 
L 138.328142 109.669257 
L 138.437785 109.428258 
L 138.73163 109.324302 
L 138.841273 109.105484 
L 138.964074 108.995591 
L 139.073718 108.820211 
L 139.137311 108.716495 
L 139.246954 108.52828 
L 139.310548 108.419417 
L 139.420191 108.255265 
L 139.483784 108.153882 
L 139.593428 108.131971 
L 139.650442 108.033319 
L 139.760086 107.831071 
L 139.839029 107.721871 
L 139.94648 107.558757 
L 140.029809 107.44832 
L 140.139452 107.279597 
L 140.194274 107.175862 
L 140.303918 106.999659 
L 140.376282 106.88863 
L 140.485926 106.747419 
L 140.560483 106.638226 
L 140.670127 106.456994 
L 140.972743 106.349187 
L 141.082386 106.150887 
L 141.141594 106.050198 
L 141.251237 105.89233 
L 141.323602 105.782735 
L 141.433246 105.597464 
L 141.492453 105.489105 
L 141.602097 105.208491 
L 141.773141 105.0997 
L 141.854277 104.958221 
L 141.974885 104.850501 
L 142.084528 104.653743 
L 142.128385 104.543247 
L 142.238029 104.355574 
L 142.308201 104.245127 
L 142.417844 104.069978 
L 142.477052 103.960146 
L 142.586695 103.816866 
L 142.637131 103.706999 
L 142.744582 103.515315 
L 143.040619 103.409491 
L 143.150263 103.239522 
L 143.211663 103.130635 
L 143.321307 103.015654 
L 143.376128 102.906123 
L 143.485772 102.714533 
L 143.588837 102.603962 
L 143.69848 102.409651 
L 143.764266 102.299662 
L 143.821281 102.178603 
L 143.941889 102.074871 
L 144.051532 101.881311 
L 144.119511 101.773859 
L 144.229155 101.540263 
L 144.308098 101.430514 
L 144.417742 101.162318 
L 144.472563 101.059112 
L 144.582207 100.858962 
L 144.751058 100.749533 
L 144.825616 100.594611 
L 145.126039 100.485973 
L 145.235682 100.213851 
L 145.327783 100.103297 
L 145.437426 99.927742 
L 145.496634 99.822177 
L 145.606277 99.639122 
L 145.656713 99.532269 
L 145.766357 99.346738 
L 145.851879 99.241117 
L 145.869422 99.193488 
L 146.053623 99.089045 
L 146.163266 98.91385 
L 146.229052 98.80285 
L 146.338696 98.635639 
L 146.408868 98.533153 
L 146.518511 98.302989 
L 146.577719 98.194333 
L 146.687362 98.001227 
L 146.757534 97.894752 
L 146.867178 97.704638 
L 147.169794 97.595902 
L 147.279437 97.453427 
L 147.351802 97.342374 
L 147.461445 97.164199 
L 147.53381 97.056513 
L 147.643453 96.84418 
L 147.757483 96.736709 
L 147.867126 96.502748 
L 147.939491 96.401945 
L 148.049134 96.228645 
L 148.191671 96.12356 
L 148.301314 95.931001 
L 148.380258 95.829181 
L 148.489901 95.653258 
L 148.546916 95.553546 
L 148.656559 95.371979 
L 148.739888 95.263982 
L 148.849532 95.090586 
L 148.917511 94.979516 
L 149.027154 94.796121 
L 149.448185 94.688654 
L 149.557829 94.502777 
L 149.625808 94.392352 
L 149.735451 94.204532 
L 149.814395 94.096881 
L 149.924038 93.898832 
L 150.013946 93.789797 
L 150.121397 93.63649 
L 150.187183 93.527384 
L 150.296826 93.366785 
L 150.360419 93.257041 
L 150.470063 93.199324 
L 150.509535 93.089109 
L 150.619178 92.896821 
L 150.674 92.786069 
L 150.783643 92.642384 
L 150.845044 92.531488 
L 150.954687 92.29403 
L 151.005123 92.18345 
L 151.114767 91.967319 
L 151.16301 91.861379 
L 151.195903 91.797859 
L 151.575269 91.68969 
L 151.684913 91.374542 
L 151.772628 91.266229 
L 151.882271 91.056651 
L 151.932707 90.946159 
L 152.040158 90.735071 
L 152.112523 90.639824 
L 152.222166 90.483589 
L 152.276988 90.377178 
L 152.325231 90.254734 
L 152.494082 90.145445 
L 152.603725 89.925604 
L 152.658547 89.826914 
L 152.768191 89.652247 
L 152.855905 89.54951 
L 152.965549 89.35414 
L 153.026949 89.249886 
L 153.136593 89.095478 
L 153.1958 88.98589 
L 153.261586 88.866659 
L 153.540081 88.761497 
L 153.634374 88.588352 
L 153.759368 88.478326 
L 153.869011 88.203479 
L 153.928219 88.094953 
L 154.037862 87.940289 
L 154.125577 87.833529 
L 154.235221 87.595587 
L 154.294428 87.489883 
L 154.393107 87.271118 
L 154.561958 87.163439 
L 154.671602 86.964666 
L 154.741774 86.860076 
L 154.851417 86.676712 
L 154.925975 86.569491 
L 155.035618 86.413081 
L 155.123333 86.30767 
L 155.232976 86.085316 
L 155.298763 85.979061 
L 155.309727 85.930934 
L 155.623307 85.82925 
L 155.711022 85.628003 
L 155.822859 85.52363 
L 155.932502 85.329978 
L 155.993902 85.218953 
L 156.103546 84.959753 
L 156.167139 84.851167 
L 156.276783 84.595633 
L 156.384233 84.486497 
L 156.487298 84.293365 
L 156.623256 84.184381 
L 156.7329 83.978031 
L 156.781143 83.868001 
L 156.890786 83.697859 
L 156.945608 83.58724 
L 157.055251 83.386941 
L 157.118845 83.275916 
L 157.199981 83.110782 
L 157.276731 83.003413 
L 157.278924 82.998653 
L 157.642941 82.888922 
L 157.750391 82.720578 
L 157.816177 82.612649 
L 157.925821 82.487318 
L 157.989414 82.378412 
L 158.096865 82.19904 
L 158.188965 82.088338 
L 158.298609 81.866259 
L 158.35343 81.764391 
L 158.463074 81.500661 
L 158.533246 81.399515 
L 158.642889 81.272184 
L 158.721833 81.166453 
L 158.829283 80.984551 
L 158.888491 80.882485 
L 158.998134 80.662164 
L 159.052956 80.552009 
L 159.1626 80.398574 
L 159.210843 80.290088 
L 159.320486 80.069618 
L 159.631874 79.96581 
L 159.741517 79.791329 
L 159.818268 79.683429 
L 159.927911 79.544406 
L 160.000276 79.440681 
L 160.109919 79.205033 
L 160.184477 79.095324 
L 160.29412 78.882175 
L 160.342364 78.776145 
L 160.452007 78.585003 
L 160.502443 78.478915 
L 160.568229 78.33118 
L 160.76778 78.222074 
L 160.877424 78.004083 
L 160.951981 77.895367 
L 161.061625 77.689171 
L 161.127411 77.580961 
L 161.237055 77.307454 
L 161.296262 77.196639 
L 161.313805 77.138374 
L 161.664664 77.027656 
L 161.774308 76.857854 
L 161.829129 76.747738 
L 161.934387 76.539703 
L 162.041838 76.429297 
L 162.151481 76.290845 
L 162.208496 76.181117 
L 162.318139 75.959695 
L 162.392697 75.849558 
L 162.502341 75.640711 
L 162.581284 75.535651 
L 162.688734 75.348968 
L 162.855393 75.240586 
L 162.965036 75.050936 
L 163.017665 74.943439 
L 163.122923 74.744323 
L 163.188709 74.637951 
L 163.298352 74.43903 
L 163.390453 74.332595 
L 163.447467 74.207973 
L 163.752276 74.097337 
L 163.86192 73.873433 
L 163.93867 73.762445 
L 164.048314 73.515746 
L 164.142607 73.410091 
L 164.252251 73.2134 
L 164.333387 73.111852 
L 164.44303 72.917048 
L 164.511009 72.81533 
L 164.620653 72.598356 
L 164.671089 72.496968 
L 164.706175 72.379145 
L 164.87064 72.275581 
L 164.980284 72.153696 
L 165.048263 72.052905 
L 165.157906 71.831046 
L 165.221499 71.719984 
L 165.32895 71.534948 
L 165.394736 71.425736 
L 165.462715 71.278227 
L 165.77191 71.177558 
L 165.881553 70.999602 
L 165.927603 70.895592 
L 166.037247 70.74275 
L 166.092069 70.632378 
L 166.173205 70.47396 
L 166.287234 70.364451 
L 166.396878 70.165295 
L 166.473628 70.054254 
L 166.583272 69.835223 
L 166.631515 69.73144 
L 166.741158 69.566234 
L 166.81133 69.455747 
L 166.837644 69.392656 
L 167.013074 69.28337 
L 167.122718 69.098457 
L 167.188504 68.990355 
L 167.298147 68.778287 
L 167.37709 68.668773 
L 167.486734 68.498789 
L 167.543749 68.388738 
L 167.554713 68.352164 
L 167.859522 68.247897 
L 167.969165 68.066907 
L 168.017409 67.962607 
L 168.127052 67.73374 
L 168.188452 67.623484 
L 168.298096 67.478747 
L 168.401161 67.369593 
L 168.510804 67.10682 
L 168.574397 67.003041 
L 168.681848 66.793937 
L 168.784913 66.684023 
L 168.894557 66.485418 
L 169.089722 66.377165 
L 169.199365 66.124778 
L 169.269537 66.018969 
L 169.379181 65.811054 
L 169.43181 65.702002 
L 169.541453 65.493963 
L 169.929591 65.394763 
L 170.039235 65.205696 
L 170.105021 65.095498 
L 170.212471 64.826878 
L 170.269486 64.726059 
L 170.379129 64.502982 
L 170.469037 64.401513 
L 170.578681 64.190675 
L 170.629117 64.086147 
L 170.73876 63.975327 
L 170.808932 63.866333 
L 170.918576 63.674043 
L 170.984362 63.567021 
L 171.052341 63.430709 
L 171.218999 63.324017 
L 171.328642 63.168462 
L 171.398814 63.057987 
L 171.508458 62.795053 
L 171.563279 62.685888 
L 171.67073 62.483552 
L 172.032553 62.372523 
L 172.142197 62.185103 
L 172.19044 62.076051 
L 172.300084 61.885129 
L 172.35052 61.774811 
L 172.460163 61.580147 
L 172.543492 61.478635 
L 172.622435 61.372538 
L 172.721115 61.263373 
L 172.830758 61.103614 
L 172.909701 60.993062 
L 173.019345 60.819403 
L 173.078552 60.722896 
L 173.186003 60.477515 
L 173.337311 60.370766 
L 173.446955 60.147741 
L 173.510548 60.047098 
L 173.620191 59.951479 
L 173.705713 59.843613 
L 173.815357 59.650539 
L 174.126744 59.544782 
L 174.236388 59.325013 
L 174.30656 59.218657 
L 174.416203 58.987424 
L 174.471025 58.876452 
L 174.580668 58.696057 
L 174.661805 58.587125 
L 174.771448 58.396557 
L 174.876706 58.286827 
L 174.986349 58.086603 
L 175.045557 57.975508 
L 175.1552 57.741362 
L 175.223179 57.630286 
L 175.332823 57.468815 
L 175.468781 57.358353 
L 175.578424 57.121157 
L 175.661753 57.014949 
L 175.771397 56.843759 
L 175.826219 56.732769 
L 175.86569 56.63726 
L 176.242864 56.530737 
L 176.352507 56.344468 
L 176.427065 56.239543 
L 176.536708 56.051634 
L 176.578373 55.941705 
L 176.688016 55.820643 
L 176.75161 55.711731 
L 176.85906 55.521109 
L 176.902918 55.41161 
L 177.012561 55.286606 
L 177.069576 55.182013 
L 177.179219 54.993659 
L 177.264741 54.882923 
L 177.374385 54.689878 
L 177.4621 54.579007 
L 177.505957 54.48746 
L 177.734015 54.382547 
L 177.841466 54.158188 
L 177.946724 54.049612 
L 178.056367 53.906206 
L 178.119961 53.797409 
L 178.172589 53.694462 
L 178.514677 53.58484 
L 178.624321 53.368523 
L 178.696685 53.2596 
L 178.801943 53.044132 
L 178.863343 52.934244 
L 178.972987 52.744685 
L 179.060702 52.635548 
L 179.170345 52.362014 
L 179.247096 52.25239 
L 179.356739 52.036056 
L 179.422525 51.928726 
L 179.492697 51.78626 
L 179.593569 51.691745 
L 179.694441 51.505808 
L 179.854521 51.398573 
L 179.961971 51.203406 
L 180.0146 51.095251 
L 180.124244 50.9442 
L 180.19003 50.835108 
L 180.22073 50.7621 
L 180.586939 50.651049 
L 180.696583 50.470754 
L 180.742633 50.361059 
L 180.852277 50.171046 
L 180.887362 50.066228 
L 180.997006 49.877475 
L 181.084721 49.767267 
L 181.194364 49.574971 
L 181.246993 49.465265 
L 181.356637 49.272522 
L 181.45093 49.169358 
L 181.560574 48.987639 
L 181.613202 48.879901 
L 181.722846 48.711338 
L 181.834682 48.600617 
L 181.865382 48.531911 
L 182.069319 48.421732 
L 182.178963 48.255554 
L 182.262292 48.146418 
L 182.371935 47.964955 
L 182.439914 47.861002 
L 182.442107 47.840707 
L 182.795159 47.735704 
L 182.904803 47.659092 
L 182.961817 47.548207 
L 183.071461 47.386803 
L 183.17014 47.285612 
L 183.279784 47.04822 
L 183.347763 46.940201 
L 183.457406 46.735627 
L 183.527578 46.626211 
L 183.637221 46.440918 
L 183.707393 46.33893 
L 183.770986 46.21732 
L 183.882823 46.109391 
L 183.992466 45.91068 
L 184.069217 45.801404 
L 184.17886 45.559044 
L 184.356483 45.450039 
L 184.466126 45.239985 
L 184.525334 45.134925 
L 184.634977 44.935163 
L 184.966101 44.824151 
L 185.075744 44.622994 
L 185.137144 44.512318 
L 185.246788 44.353889 
L 185.303803 44.250677 
L 185.413446 44.032873 
L 185.477039 43.922964 
L 185.586683 43.759296 
L 185.663433 43.655707 
L 185.773077 43.569811 
L 185.83667 43.470525 
L 185.946314 43.291014 
L 186.051571 43.180987 
L 186.159022 42.966703 
L 186.218229 42.857368 
L 186.32568 42.691691 
L 186.398045 42.587737 
L 186.404623 42.56712 
L 186.591017 42.45906 
L 186.700661 42.301429 
L 186.748904 42.194462 
L 186.856355 41.969897 
L 187.220371 41.865701 
L 187.330014 41.68992 
L 187.389222 41.587038 
L 187.498865 41.38964 
L 187.575616 41.283203 
L 187.685259 41.119664 
L 187.729117 41.012531 
L 187.83876 40.83549 
L 187.926475 40.729078 
L 188.036119 40.609465 
L 188.088747 40.498966 
L 188.198391 40.268728 
L 188.275141 40.165732 
L 188.382592 40.028712 
L 188.492236 39.918059 
L 188.599686 39.765126 
L 188.667665 39.657115 
L 188.702751 39.584649 
L 188.937388 39.475226 
L 189.047032 39.305697 
L 189.119396 39.200432 
L 189.224654 39.041774 
L 189.582092 38.93967 
L 189.682964 38.778317 
L 189.766293 38.677793 
L 189.875937 38.459476 
L 189.95488 38.357256 
L 190.064523 38.154331 
L 190.132502 38.045293 
L 190.239953 37.866514 
L 190.323282 37.760085 
L 190.432926 37.567268 
L 190.503097 37.458782 
L 190.612741 37.30678 
L 190.71142 37.200701 
L 190.821063 37.085737 
L 190.889042 36.97569 
L 190.998686 36.783097 
L 191.053508 36.676983 
L 191.099558 36.606541 
L 191.356124 36.500101 
L 191.465767 36.302003 
L 191.533746 36.191443 
L 191.571025 36.109871 
L 191.95697 36.004865 
L 192.060035 35.830792 
L 192.136785 35.720686 
L 192.246429 35.576024 
L 192.312215 35.466195 
L 192.421859 35.37366 
L 192.494223 35.264004 
L 192.603867 35.037086 
L 192.665267 34.931171 
L 192.772718 34.79 
L 192.838504 34.683227 
L 192.948147 34.553695 
L 193.011741 34.443566 
L 193.121384 34.215326 
L 193.193749 34.109467 
L 193.303392 34.016675 
L 193.388914 33.907507 
L 193.498558 33.79809 
L 193.579694 33.691835 
L 193.625744 33.626397 
L 193.85161 33.520814 
L 193.961253 33.355978 
L 194.035811 33.259653 
L 194.07309 33.176225 
L 194.467806 33.066644 
L 194.57745 32.929004 
L 194.649814 32.819179 
L 194.759458 32.622414 
L 194.820858 32.513718 
L 194.930502 32.311199 
L 195.005059 32.207833 
L 195.114703 32.035789 
L 195.219961 31.92686 
L 195.329604 31.718346 
L 195.428283 31.61023 
L 195.537927 31.39037 
L 195.678271 31.280372 
L 195.787914 31.140921 
L 195.895365 31.035355 
L 196.005008 30.892109 
L 196.081759 30.783807 
L 196.167281 30.650705 
L 196.401918 30.541531 
L 196.511561 30.386191 
L 196.597083 30.275493 
L 196.608047 30.245849 
L 197.090479 30.135042 
L 197.169422 30.026317 
L 197.272487 29.916199 
L 197.38213 29.748039 
L 197.46546 29.640138 
L 197.575103 29.50892 
L 197.636503 29.399219 
L 197.746147 29.236844 
L 197.796583 29.129479 
L 197.904034 28.96265 
L 198.00052 28.853181 
L 198.110163 28.694752 
L 198.180335 28.590428 
L 198.289979 28.378117 
L 198.349186 28.271629 
L 198.45883 28.086395 
L 198.56628 27.9754 
L 198.675924 27.850495 
L 198.800917 27.742955 
L 198.860125 27.666491 
L 199.134234 27.556592 
L 199.243877 27.383774 
L 199.664908 27.277636 
L 199.774552 27.170568 
L 199.895159 27.06223 
L 200.004803 26.928693 
L 200.092518 26.817811 
L 200.202161 26.707158 
L 200.305226 26.604269 
L 200.41487 26.407487 
L 200.500392 26.296424 
L 200.610035 26.114619 
L 200.693364 26.008033 
L 200.803008 25.804522 
L 200.87318 25.69639 
L 200.98063 25.508923 
L 201.048609 25.399662 
L 201.158253 25.206516 
L 201.26351 25.097007 
L 201.322718 24.994985 
L 201.476219 24.886251 
L 201.583669 24.744957 
L 201.864357 24.634091 
L 201.974 24.457642 
L 202.419153 24.346902 
L 202.528796 24.222699 
L 202.598968 24.111742 
L 202.708612 23.954976 
L 202.789748 23.851986 
L 202.899391 23.726118 
L 202.980528 23.617099 
L 203.090171 23.457554 
L 203.191043 23.3495 
L 203.300687 23.177732 
L 203.436645 23.070597 
L 203.546288 22.944176 
L 203.612074 22.837428 
L 203.721718 22.696426 
L 203.805047 22.587322 
L 203.91469 22.430584 
L 203.984862 22.32369 
L 204.094506 22.16775 
L 204.169063 22.058324 
L 204.254585 21.961344 
L 204.408086 21.853211 
L 204.515537 21.703313 
L 204.776488 21.593479 
L 204.864203 21.456082 
L 205.568114 21.345602 
L 205.677758 21.232872 
L 205.752315 21.126935 
L 205.861959 20.973474 
L 205.965024 20.862516 
L 206.074667 20.704569 
L 206.160189 20.601496 
L 206.26764 20.449231 
L 206.383862 20.342814 
L 206.493505 20.150455 
L 206.600956 20.039976 
L 206.710599 19.917365 
L 206.807086 19.806426 
L 206.916729 19.684822 
L 207.00883 19.58161 
L 207.118473 19.420089 
L 207.217152 19.31058 
L 207.326796 19.160497 
L 207.557047 19.050858 
L 207.666691 18.955724 
L 207.802649 18.845078 
L 207.912292 18.734904 
L 208.30043 18.625665 
L 208.364023 18.52254 
L 209.078899 18.419495 
L 209.188542 18.269665 
L 209.302572 18.159715 
L 209.407829 18.023547 
L 209.510894 17.914955 
L 209.600802 17.790119 
L 209.743339 17.681787 
L 209.852982 17.554439 
L 209.947276 17.445575 
L 210.056919 17.286635 
L 210.133669 17.178523 
L 210.153405 17.144117 
L 210.352956 17.038149 
L 210.4626 16.899358 
L 210.543736 16.790347 
L 210.65338 16.705013 
L 210.754252 16.59635 
L 210.863895 16.498182 
L 210.986696 16.387915 
L 211.094147 16.277034 
L 211.18844 16.168619 
L 211.298083 16.003565 
L 211.475706 15.894841 
L 211.585349 15.778747 
L 212.232246 15.675689 
L 212.311189 15.593465 
L 213.284824 15.484036 
L 213.394467 15.388477 
L 213.519461 15.284599 
L 213.585247 15.176033 
L 213.771641 15.067711 
L 213.857163 14.982107 
L 214.194865 14.878518 
L 214.304508 14.765302 
L 214.442659 14.657557 
L 214.552302 14.520386 
L 214.721153 14.414554 
L 214.824218 14.288419 
L 214.896583 14.179363 
L 215.004034 14.081585 
L 215.120256 13.971101 
L 215.229899 13.884545 
L 215.335157 13.776079 
L 215.444801 13.658335 
L 215.600494 13.548728 
L 215.710138 13.461641 
L 215.91846 13.350798 
L 216.025911 13.235662 
L 216.100469 13.126113 
L 216.210112 13.006332 
L 216.337299 12.895463 
L 216.36142 12.863614 
L 217.205675 12.753584 
L 217.260497 12.662555 
L 218.567447 12.553528 
L 218.670512 12.477858 
L 218.808663 12.366826 
L 218.918307 12.252596 
L 219.05865 12.151854 
L 219.163908 12.042517 
L 219.29548 11.93273 
L 219.402931 11.823574 
L 219.505996 11.716389 
L 219.615639 11.593687 
L 219.72309 11.483018 
L 219.826155 11.358954 
L 219.92922 11.24834 
L 220.038863 11.158671 
L 220.157278 11.047848 
L 220.244993 10.989396 
L 220.613395 10.879664 
L 220.723039 10.795781 
L 220.839261 10.689416 
L 220.948904 10.587167 
L 221.106791 10.476544 
L 221.216434 10.431958 
L 221.332656 10.32259 
L 221.440107 10.218213 
L 221.856752 10.110212 
L 221.918153 10.059326 
L 222.205419 9.949039 
L 222.308484 9.885952 
L 224.784234 9.776183 
L 224.808355 9.733621 
L 227.466114 9.622829 
L 227.575757 9.570182 
L 227.748994 9.470601 
L 227.854252 9.379035 
L 228.055996 9.269378 
L 228.165639 9.181168 
L 228.373962 9.070841 
L 228.472641 9.021595 
L 228.639299 8.914857 
L 228.737978 8.836354 
L 228.919987 8.729648 
L 229.02963 8.624692 
L 229.22041 8.522424 
L 229.314703 8.426774 
L 229.450661 8.317726 
L 229.560305 8.211757 
L 229.737927 8.100702 
L 229.845378 8.040062 
L 230.031772 7.929045 
L 230.141415 7.835749 
L 230.371667 7.73286 
L 230.476924 7.644478 
L 230.637004 7.540196 
L 230.746647 7.471335 
L 230.884798 7.369642 
L 230.994442 7.291984 
L 231.226886 7.180954 
L 231.336529 7.085854 
L 231.582131 6.977428 
L 231.689581 6.928747 
L 231.915447 6.823365 
L 231.922026 -1 
L 231.922026 -1 
" clip-path="url(#p90647ea001)" style="fill: none; stroke-dasharray: 7.5,1.5; stroke-dashoffset: 0; stroke: #ac7726; stroke-width: 1.5"/>
   </g>
   <g id="patch_3">
    <path d="M 56.077974 182.64351 
L 56.077974 6.799459 
" style="fill: none; stroke: #000000; stroke-width: 0.8; stroke-linejoin: miter; stroke-linecap: square"/>
   </g>
   <g id="patch_4">
    <path d="M 231.922026 182.64351 
L 231.922026 6.799459 
" style="fill: none; stroke: #000000; stroke-width: 0.8; stroke-linejoin: miter; stroke-linecap: square"/>
   </g>
   <g id="patch_5">
    <path d="M 56.077974 182.64351 
L 231.922026 182.64351 
" style="fill: none; stroke: #000000; stroke-width: 0.8; stroke-linejoin: miter; stroke-linecap: square"/>
   </g>
   <g id="patch_6">
    <path d="M 56.077974 6.799459 
L 231.922026 6.799459 
" style="fill: none; stroke: #000000; stroke-width: 0.8; stroke-linejoin: miter; stroke-linecap: square"/>
   </g>
   <g id="legend_1">
    <g id="patch_7">
     <path d="M 63.077974 44.155709 
L 140.054537 44.155709 
Q 142.054537 44.155709 142.054537 42.155709 
L 142.054537 13.799459 
Q 142.054537 11.799459 140.054537 11.799459 
L 63.077974 11.799459 
Q 61.077974 11.799459 61.077974 13.799459 
L 61.077974 42.155709 
Q 61.077974 44.155709 63.077974 44.155709 
z
" style="fill: #ffffff; opacity: 0.8; stroke: #cccccc; stroke-linejoin: miter"/>
    </g>
    <g id="line2d_15">
     <path d="M 65.077974 19.897896 
L 75.077974 19.897896 
L 75.077974 19.897896 
L 85.077974 19.897896 
L 85.077974 19.897896 
" style="fill: none; stroke: #67c7d5; stroke-width: 1.5; stroke-linecap: square"/>
    </g>
    <g id="text_15">
     <!-- ATL09 -->
     <g transform="translate(93.077974 23.397896) scale(0.1 -0.1)">
      <defs>
       <path id="DejaVuSans-41" d="M 2188 4044 
L 1331 1722 
L 3047 1722 
L 2188 4044 
z
M 1831 4666 
L 2547 4666 
L 4325 0 
L 3669 0 
L 3244 1197 
L 1141 1197 
L 716 0 
L 50 0 
L 1831 4666 
z
" transform="scale(0.015625)"/>
       <path id="DejaVuSans-54" d="M -19 4666 
L 3928 4666 
L 3928 4134 
L 2272 4134 
L 2272 0 
L 1638 0 
L 1638 4134 
L -19 4134 
L -19 4666 
z
" transform="scale(0.015625)"/>
       <path id="DejaVuSans-4c" d="M 628 4666 
L 1259 4666 
L 1259 531 
L 3531 531 
L 3531 0 
L 628 0 
L 628 4666 
z
" transform="scale(0.015625)"/>
       <path id="DejaVuSans-39" d="M 703 97 
L 703 672 
Q 941 559 1184 500 
Q 1428 441 1663 441 
Q 2288 441 2617 861 
Q 2947 1281 2994 2138 
Q 2813 1869 2534 1725 
Q 2256 1581 1919 1581 
Q 1219 1581 811 2004 
Q 403 2428 403 3163 
Q 403 3881 828 4315 
Q 1253 4750 1959 4750 
Q 2769 4750 3195 4129 
Q 3622 3509 3622 2328 
Q 3622 1225 3098 567 
Q 2575 -91 1691 -91 
Q 1453 -91 1209 -44 
Q 966 3 703 97 
z
M 1959 2075 
Q 2384 2075 2632 2365 
Q 2881 2656 2881 3163 
Q 2881 3666 2632 3958 
Q 2384 4250 1959 4250 
Q 1534 4250 1286 3958 
Q 1038 3666 1038 3163 
Q 1038 2656 1286 2365 
Q 1534 2075 1959 2075 
z
" transform="scale(0.015625)"/>
      </defs>
      <use xlink:href="#DejaVuSans-41"/>
      <use xlink:href="#DejaVuSans-54" transform="translate(60.658203 0)"/>
      <use xlink:href="#DejaVuSans-4c" transform="translate(121.742188 0)"/>
      <use xlink:href="#DejaVuSans-30" transform="translate(177.455078 0)"/>
      <use xlink:href="#DejaVuSans-39" transform="translate(241.078125 0)"/>
     </g>
    </g>
    <g id="line2d_16">
     <path d="M 65.077974 34.576021 
L 75.077974 34.576021 
L 75.077974 34.576021 
L 85.077974 34.576021 
L 85.077974 34.576021 
" style="fill: none; stroke-dasharray: 7.5,1.5; stroke-dashoffset: 0; stroke: #ac7726; stroke-width: 1.5"/>
    </g>
    <g id="text_16">
     <!-- Cloudnet -->
     <g transform="translate(93.077974 38.076021) scale(0.1 -0.1)">
      <defs>
       <path id="DejaVuSans-6c" d="M 603 4863 
L 1178 4863 
L 1178 0 
L 603 0 
L 603 4863 
z
" transform="scale(0.015625)"/>
       <path id="DejaVuSans-6f" d="M 1959 3097 
Q 1497 3097 1228 2736 
Q 959 2375 959 1747 
Q 959 1119 1226 758 
Q 1494 397 1959 397 
Q 2419 397 2687 759 
Q 2956 1122 2956 1747 
Q 2956 2369 2687 2733 
Q 2419 3097 1959 3097 
z
M 1959 3584 
Q 2709 3584 3137 3096 
Q 3566 2609 3566 1747 
Q 3566 888 3137 398 
Q 2709 -91 1959 -91 
Q 1206 -91 779 398 
Q 353 888 353 1747 
Q 353 2609 779 3096 
Q 1206 3584 1959 3584 
z
" transform="scale(0.015625)"/>
       <path id="DejaVuSans-75" d="M 544 1381 
L 544 3500 
L 1119 3500 
L 1119 1403 
Q 1119 906 1312 657 
Q 1506 409 1894 409 
Q 2359 409 2629 706 
Q 2900 1003 2900 1516 
L 2900 3500 
L 3475 3500 
L 3475 0 
L 2900 0 
L 2900 538 
Q 2691 219 2414 64 
Q 2138 -91 1772 -91 
Q 1169 -91 856 284 
Q 544 659 544 1381 
z
M 1991 3584 
L 1991 3584 
z
" transform="scale(0.015625)"/>
       <path id="DejaVuSans-64" d="M 2906 2969 
L 2906 4863 
L 3481 4863 
L 3481 0 
L 2906 0 
L 2906 525 
Q 2725 213 2448 61 
Q 2172 -91 1784 -91 
Q 1150 -91 751 415 
Q 353 922 353 1747 
Q 353 2572 751 3078 
Q 1150 3584 1784 3584 
Q 2172 3584 2448 3432 
Q 2725 3281 2906 2969 
z
M 947 1747 
Q 947 1113 1208 752 
Q 1469 391 1925 391 
Q 2381 391 2643 752 
Q 2906 1113 2906 1747 
Q 2906 2381 2643 2742 
Q 2381 3103 1925 3103 
Q 1469 3103 1208 2742 
Q 947 2381 947 1747 
z
" transform="scale(0.015625)"/>
       <path id="DejaVuSans-6e" d="M 3513 2113 
L 3513 0 
L 2938 0 
L 2938 2094 
Q 2938 2591 2744 2837 
Q 2550 3084 2163 3084 
Q 1697 3084 1428 2787 
Q 1159 2491 1159 1978 
L 1159 0 
L 581 0 
L 581 3500 
L 1159 3500 
L 1159 2956 
Q 1366 3272 1645 3428 
Q 1925 3584 2291 3584 
Q 2894 3584 3203 3211 
Q 3513 2838 3513 2113 
z
" transform="scale(0.015625)"/>
       <path id="DejaVuSans-65" d="M 3597 1894 
L 3597 1613 
L 953 1613 
Q 991 1019 1311 708 
Q 1631 397 2203 397 
Q 2534 397 2845 478 
Q 3156 559 3463 722 
L 3463 178 
Q 3153 47 2828 -22 
Q 2503 -91 2169 -91 
Q 1331 -91 842 396 
Q 353 884 353 1716 
Q 353 2575 817 3079 
Q 1281 3584 2069 3584 
Q 2775 3584 3186 3129 
Q 3597 2675 3597 1894 
z
M 3022 2063 
Q 3016 2534 2758 2815 
Q 2500 3097 2075 3097 
Q 1594 3097 1305 2825 
Q 1016 2553 972 2059 
L 3022 2063 
z
" transform="scale(0.015625)"/>
       <path id="DejaVuSans-74" d="M 1172 4494 
L 1172 3500 
L 2356 3500 
L 2356 3053 
L 1172 3053 
L 1172 1153 
Q 1172 725 1289 603 
Q 1406 481 1766 481 
L 2356 481 
L 2356 0 
L 1766 0 
Q 1100 0 847 248 
Q 594 497 594 1153 
L 594 3053 
L 172 3053 
L 172 3500 
L 594 3500 
L 594 4494 
L 1172 4494 
z
" transform="scale(0.015625)"/>
      </defs>
      <use xlink:href="#DejaVuSans-43"/>
      <use xlink:href="#DejaVuSans-6c" transform="translate(69.824219 0)"/>
      <use xlink:href="#DejaVuSans-6f" transform="translate(97.607422 0)"/>
      <use xlink:href="#DejaVuSans-75" transform="translate(158.789062 0)"/>
      <use xlink:href="#DejaVuSans-64" transform="translate(222.167969 0)"/>
      <use xlink:href="#DejaVuSans-6e" transform="translate(285.644531 0)"/>
      <use xlink:href="#DejaVuSans-65" transform="translate(349.023438 0)"/>
      <use xlink:href="#DejaVuSans-74" transform="translate(410.546875 0)"/>
     </g>
    </g>
   </g>
  </g>
 </g>
 <defs>
  <clipPath id="p90647ea001">
   <rect x="56.077974" y="6.799459" width="175.844051" height="175.844051"/>
  </clipPath>
 </defs>
</svg>
