<?xml version="1.0" encoding="utf-8" standalone="no"?>
<!DOCTYPE svg PUBLIC "-//W3C//DTD SVG 1.1//EN"
  "http://www.w3.org/Graphics/SVG/1.1/DTD/svg11.dtd">
<svg xmlns:xlink="http://www.w3.org/1999/xlink" width="234.776864pt" height="224.39952pt" viewBox="0 0 234.776864 224.39952" xmlns="http://www.w3.org/2000/svg" version="1.1">
 <metadata>
  <rdf:RDF xmlns:dc="http://purl.org/dc/elements/1.1/" xmlns:cc="http://creativecommons.org/ns#" xmlns:rdf="http://www.w3.org/1999/02/22-rdf-syntax-ns#">
   <cc:Work>
    <dc:type rdf:resource="http://purl.org/dc/dcmitype/StillImage"/>
    <dc:date>2025-12-01T16:03:40.978472</dc:date>
    <dc:format>image/svg+xml</dc:format>
    <dc:creator>
     <cc:Agent>
      <dc:title>Matplotlib v3.10.0, https://matplotlib.org/</dc:title>
     </cc:Agent>
    </dc:creator>
   </cc:Work>
  </rdf:RDF>
 </metadata>
 <defs>
  <style type="text/css">*{stroke-linejoin: round; stroke-linecap: butt}</style>
 </defs>
 <g id="figure_1">
  <g id="patch_1">
   <path d="M 0 224.39952 
L 234.776864 224.39952 
L 234.776864 0 
L 0 0 
L 0 224.39952 
z
" style="fill: none"/>
  </g>
  <g id="axes_1">
   <g id="patch_2">
    <path d="M 43.78125 186.84327 
L 219.625301 186.84327 
L 219.625301 10.999219 
L 43.78125 10.999219 
L 43.78125 186.84327 
z
" style="fill: none"/>
   </g>
   <g id="matplotlib.axis_1">
    <g id="xtick_1">
     <g id="line2d_1">
      <defs>
       <path id="m3344467a76" d="M 0 0 
L 0 3.5 
" style="stroke: #000000; stroke-width: 0.8"/>
      </defs>
      <g>
       <use xlink:href="#m3344467a76" x="43.78125" y="186.84327" style="stroke: #000000; stroke-width: 0.8"/>
      </g>
     </g>
     <g id="text_1">
      <!-- 0.0 -->
      <g transform="translate(35.829688 201.441708) scale(0.1 -0.1)">
       <defs>
        <path id="DejaVuSans-30" d="M 2034 4250 
Q 1547 4250 1301 3770 
Q 1056 3291 1056 2328 
Q 1056 1369 1301 889 
Q 1547 409 2034 409 
Q 2525 409 2770 889 
Q 3016 1369 3016 2328 
Q 3016 3291 2770 3770 
Q 2525 4250 2034 4250 
z
M 2034 4750 
Q 2819 4750 3233 4129 
Q 3647 3509 3647 2328 
Q 3647 1150 3233 529 
Q 2819 -91 2034 -91 
Q 1250 -91 836 529 
Q 422 1150 422 2328 
Q 422 3509 836 4129 
Q 1250 4750 2034 4750 
z
" transform="scale(0.015625)"/>
        <path id="DejaVuSans-2e" d="M 684 794 
L 1344 794 
L 1344 0 
L 684 0 
L 684 794 
z
" transform="scale(0.015625)"/>
       </defs>
       <use xlink:href="#DejaVuSans-30"/>
       <use xlink:href="#DejaVuSans-2e" transform="translate(63.623047 0)"/>
       <use xlink:href="#DejaVuSans-30" transform="translate(95.410156 0)"/>
      </g>
     </g>
    </g>
    <g id="xtick_2">
     <g id="line2d_2">
      <g>
       <use xlink:href="#m3344467a76" x="78.95006" y="186.84327" style="stroke: #000000; stroke-width: 0.8"/>
      </g>
     </g>
     <g id="text_2">
      <!-- 0.2 -->
      <g transform="translate(70.998498 201.441708) scale(0.1 -0.1)">
       <defs>
        <path id="DejaVuSans-32" d="M 1228 531 
L 3431 531 
L 3431 0 
L 469 0 
L 469 531 
Q 828 903 1448 1529 
Q 2069 2156 2228 2338 
Q 2531 2678 2651 2914 
Q 2772 3150 2772 3378 
Q 2772 3750 2511 3984 
Q 2250 4219 1831 4219 
Q 1534 4219 1204 4116 
Q 875 4013 500 3803 
L 500 4441 
Q 881 4594 1212 4672 
Q 1544 4750 1819 4750 
Q 2544 4750 2975 4387 
Q 3406 4025 3406 3419 
Q 3406 3131 3298 2873 
Q 3191 2616 2906 2266 
Q 2828 2175 2409 1742 
Q 1991 1309 1228 531 
z
" transform="scale(0.015625)"/>
       </defs>
       <use xlink:href="#DejaVuSans-30"/>
       <use xlink:href="#DejaVuSans-2e" transform="translate(63.623047 0)"/>
       <use xlink:href="#DejaVuSans-32" transform="translate(95.410156 0)"/>
      </g>
     </g>
    </g>
    <g id="xtick_3">
     <g id="line2d_3">
      <g>
       <use xlink:href="#m3344467a76" x="114.118871" y="186.84327" style="stroke: #000000; stroke-width: 0.8"/>
      </g>
     </g>
     <g id="text_3">
      <!-- 0.4 -->
      <g transform="translate(106.167308 201.441708) scale(0.1 -0.1)">
       <defs>
        <path id="DejaVuSans-34" d="M 2419 4116 
L 825 1625 
L 2419 1625 
L 2419 4116 
z
M 2253 4666 
L 3047 4666 
L 3047 1625 
L 3713 1625 
L 3713 1100 
L 3047 1100 
L 3047 0 
L 2419 0 
L 2419 1100 
L 313 1100 
L 313 1709 
L 2253 4666 
z
" transform="scale(0.015625)"/>
       </defs>
       <use xlink:href="#DejaVuSans-30"/>
       <use xlink:href="#DejaVuSans-2e" transform="translate(63.623047 0)"/>
       <use xlink:href="#DejaVuSans-34" transform="translate(95.410156 0)"/>
      </g>
     </g>
    </g>
    <g id="xtick_4">
     <g id="line2d_4">
      <g>
       <use xlink:href="#m3344467a76" x="149.287681" y="186.84327" style="stroke: #000000; stroke-width: 0.8"/>
      </g>
     </g>
     <g id="text_4">
      <!-- 0.6 -->
      <g transform="translate(141.336118 201.441708) scale(0.1 -0.1)">
       <defs>
        <path id="DejaVuSans-36" d="M 2113 2584 
Q 1688 2584 1439 2293 
Q 1191 2003 1191 1497 
Q 1191 994 1439 701 
Q 1688 409 2113 409 
Q 2538 409 2786 701 
Q 3034 994 3034 1497 
Q 3034 2003 2786 2293 
Q 2538 2584 2113 2584 
z
M 3366 4563 
L 3366 3988 
Q 3128 4100 2886 4159 
Q 2644 4219 2406 4219 
Q 1781 4219 1451 3797 
Q 1122 3375 1075 2522 
Q 1259 2794 1537 2939 
Q 1816 3084 2150 3084 
Q 2853 3084 3261 2657 
Q 3669 2231 3669 1497 
Q 3669 778 3244 343 
Q 2819 -91 2113 -91 
Q 1303 -91 875 529 
Q 447 1150 447 2328 
Q 447 3434 972 4092 
Q 1497 4750 2381 4750 
Q 2619 4750 2861 4703 
Q 3103 4656 3366 4563 
z
" transform="scale(0.015625)"/>
       </defs>
       <use xlink:href="#DejaVuSans-30"/>
       <use xlink:href="#DejaVuSans-2e" transform="translate(63.623047 0)"/>
       <use xlink:href="#DejaVuSans-36" transform="translate(95.410156 0)"/>
      </g>
     </g>
    </g>
    <g id="xtick_5">
     <g id="line2d_5">
      <g>
       <use xlink:href="#m3344467a76" x="184.456491" y="186.84327" style="stroke: #000000; stroke-width: 0.8"/>
      </g>
     </g>
     <g id="text_5">
      <!-- 0.8 -->
      <g transform="translate(176.504929 201.441708) scale(0.1 -0.1)">
       <defs>
        <path id="DejaVuSans-38" d="M 2034 2216 
Q 1584 2216 1326 1975 
Q 1069 1734 1069 1313 
Q 1069 891 1326 650 
Q 1584 409 2034 409 
Q 2484 409 2743 651 
Q 3003 894 3003 1313 
Q 3003 1734 2745 1975 
Q 2488 2216 2034 2216 
z
M 1403 2484 
Q 997 2584 770 2862 
Q 544 3141 544 3541 
Q 544 4100 942 4425 
Q 1341 4750 2034 4750 
Q 2731 4750 3128 4425 
Q 3525 4100 3525 3541 
Q 3525 3141 3298 2862 
Q 3072 2584 2669 2484 
Q 3125 2378 3379 2068 
Q 3634 1759 3634 1313 
Q 3634 634 3220 271 
Q 2806 -91 2034 -91 
Q 1263 -91 848 271 
Q 434 634 434 1313 
Q 434 1759 690 2068 
Q 947 2378 1403 2484 
z
M 1172 3481 
Q 1172 3119 1398 2916 
Q 1625 2713 2034 2713 
Q 2441 2713 2670 2916 
Q 2900 3119 2900 3481 
Q 2900 3844 2670 4047 
Q 2441 4250 2034 4250 
Q 1625 4250 1398 4047 
Q 1172 3844 1172 3481 
z
" transform="scale(0.015625)"/>
       </defs>
       <use xlink:href="#DejaVuSans-30"/>
       <use xlink:href="#DejaVuSans-2e" transform="translate(63.623047 0)"/>
       <use xlink:href="#DejaVuSans-38" transform="translate(95.410156 0)"/>
      </g>
     </g>
    </g>
    <g id="xtick_6">
     <g id="line2d_6">
      <g>
       <use xlink:href="#m3344467a76" x="219.625301" y="186.84327" style="stroke: #000000; stroke-width: 0.8"/>
      </g>
     </g>
     <g id="text_6">
      <!-- 1.0 -->
      <g transform="translate(211.673739 201.441708) scale(0.1 -0.1)">
       <defs>
        <path id="DejaVuSans-31" d="M 794 531 
L 1825 531 
L 1825 4091 
L 703 3866 
L 703 4441 
L 1819 4666 
L 2450 4666 
L 2450 531 
L 3481 531 
L 3481 0 
L 794 0 
L 794 531 
z
" transform="scale(0.015625)"/>
       </defs>
       <use xlink:href="#DejaVuSans-31"/>
       <use xlink:href="#DejaVuSans-2e" transform="translate(63.623047 0)"/>
       <use xlink:href="#DejaVuSans-30" transform="translate(95.410156 0)"/>
      </g>
     </g>
    </g>
    <g id="text_7">
     <!-- $u$, $v$ -->
     <g transform="translate(122.353276 215.119833) scale(0.1 -0.1)">
      <defs>
       <path id="DejaVuSans-Oblique-75" d="M 428 1388 
L 838 3500 
L 1416 3500 
L 1006 1409 
Q 975 1256 961 1147 
Q 947 1038 947 966 
Q 947 700 1109 554 
Q 1272 409 1569 409 
Q 2031 409 2368 721 
Q 2706 1034 2809 1563 
L 3194 3500 
L 3769 3500 
L 3091 0 
L 2516 0 
L 2631 550 
Q 2388 244 2052 76 
Q 1716 -91 1338 -91 
Q 878 -91 622 161 
Q 366 413 366 863 
Q 366 956 381 1097 
Q 397 1238 428 1388 
z
" transform="scale(0.015625)"/>
       <path id="DejaVuSans-2c" d="M 750 794 
L 1409 794 
L 1409 256 
L 897 -744 
L 494 -744 
L 750 256 
L 750 794 
z
" transform="scale(0.015625)"/>
       <path id="DejaVuSans-20" transform="scale(0.015625)"/>
       <path id="DejaVuSans-Oblique-76" d="M 459 3500 
L 1069 3500 
L 1581 525 
L 3256 3500 
L 3866 3500 
L 1875 0 
L 1100 0 
L 459 3500 
z
" transform="scale(0.015625)"/>
      </defs>
      <use xlink:href="#DejaVuSans-Oblique-75" transform="translate(0 0.3125)"/>
      <use xlink:href="#DejaVuSans-2c" transform="translate(63.378906 0.3125)"/>
      <use xlink:href="#DejaVuSans-20" transform="translate(95.166016 0.3125)"/>
      <use xlink:href="#DejaVuSans-Oblique-76" transform="translate(126.953125 0.3125)"/>
     </g>
    </g>
   </g>
   <g id="matplotlib.axis_2">
    <g id="ytick_1">
     <g id="line2d_7">
      <defs>
       <path id="mf85bddbba1" d="M 0 0 
L -3.5 0 
" style="stroke: #000000; stroke-width: 0.8"/>
      </defs>
      <g>
       <use xlink:href="#mf85bddbba1" x="43.78125" y="186.84327" style="stroke: #000000; stroke-width: 0.8"/>
      </g>
     </g>
     <g id="text_8">
      <!-- 0.0 -->
      <g transform="translate(20.878125 190.642489) scale(0.1 -0.1)">
       <use xlink:href="#DejaVuSans-30"/>
       <use xlink:href="#DejaVuSans-2e" transform="translate(63.623047 0)"/>
       <use xlink:href="#DejaVuSans-30" transform="translate(95.410156 0)"/>
      </g>
     </g>
    </g>
    <g id="ytick_2">
     <g id="line2d_8">
      <g>
       <use xlink:href="#mf85bddbba1" x="43.78125" y="151.67446" style="stroke: #000000; stroke-width: 0.8"/>
      </g>
     </g>
     <g id="text_9">
      <!-- 0.2 -->
      <g transform="translate(20.878125 155.473679) scale(0.1 -0.1)">
       <use xlink:href="#DejaVuSans-30"/>
       <use xlink:href="#DejaVuSans-2e" transform="translate(63.623047 0)"/>
       <use xlink:href="#DejaVuSans-32" transform="translate(95.410156 0)"/>
      </g>
     </g>
    </g>
    <g id="ytick_3">
     <g id="line2d_9">
      <g>
       <use xlink:href="#mf85bddbba1" x="43.78125" y="116.50565" style="stroke: #000000; stroke-width: 0.8"/>
      </g>
     </g>
     <g id="text_10">
      <!-- 0.4 -->
      <g transform="translate(20.878125 120.304868) scale(0.1 -0.1)">
       <use xlink:href="#DejaVuSans-30"/>
       <use xlink:href="#DejaVuSans-2e" transform="translate(63.623047 0)"/>
       <use xlink:href="#DejaVuSans-34" transform="translate(95.410156 0)"/>
      </g>
     </g>
    </g>
    <g id="ytick_4">
     <g id="line2d_10">
      <g>
       <use xlink:href="#mf85bddbba1" x="43.78125" y="81.336839" style="stroke: #000000; stroke-width: 0.8"/>
      </g>
     </g>
     <g id="text_11">
      <!-- 0.6 -->
      <g transform="translate(20.878125 85.136058) scale(0.1 -0.1)">
       <use xlink:href="#DejaVuSans-30"/>
       <use xlink:href="#DejaVuSans-2e" transform="translate(63.623047 0)"/>
       <use xlink:href="#DejaVuSans-36" transform="translate(95.410156 0)"/>
      </g>
     </g>
    </g>
    <g id="ytick_5">
     <g id="line2d_11">
      <g>
       <use xlink:href="#mf85bddbba1" x="43.78125" y="46.168029" style="stroke: #000000; stroke-width: 0.8"/>
      </g>
     </g>
     <g id="text_12">
      <!-- 0.8 -->
      <g transform="translate(20.878125 49.967248) scale(0.1 -0.1)">
       <use xlink:href="#DejaVuSans-30"/>
       <use xlink:href="#DejaVuSans-2e" transform="translate(63.623047 0)"/>
       <use xlink:href="#DejaVuSans-38" transform="translate(95.410156 0)"/>
      </g>
     </g>
    </g>
    <g id="ytick_6">
     <g id="line2d_12">
      <g>
       <use xlink:href="#mf85bddbba1" x="43.78125" y="10.999219" style="stroke: #000000; stroke-width: 0.8"/>
      </g>
     </g>
     <g id="text_13">
      <!-- 1.0 -->
      <g transform="translate(20.878125 14.798438) scale(0.1 -0.1)">
       <use xlink:href="#DejaVuSans-31"/>
       <use xlink:href="#DejaVuSans-2e" transform="translate(63.623047 0)"/>
       <use xlink:href="#DejaVuSans-30" transform="translate(95.410156 0)"/>
      </g>
     </g>
    </g>
    <g id="text_14">
     <!-- VCF -->
     <g transform="translate(14.798438 108.708744) rotate(-90) scale(0.1 -0.1)">
      <defs>
       <path id="DejaVuSans-56" d="M 1831 0 
L 50 4666 
L 709 4666 
L 2188 738 
L 3669 4666 
L 4325 4666 
L 2547 0 
L 1831 0 
z
" transform="scale(0.015625)"/>
       <path id="DejaVuSans-43" d="M 4122 4306 
L 4122 3641 
Q 3803 3938 3442 4084 
Q 3081 4231 2675 4231 
Q 1875 4231 1450 3742 
Q 1025 3253 1025 2328 
Q 1025 1406 1450 917 
Q 1875 428 2675 428 
Q 3081 428 3442 575 
Q 3803 722 4122 1019 
L 4122 359 
Q 3791 134 3420 21 
Q 3050 -91 2638 -91 
Q 1578 -91 968 557 
Q 359 1206 359 2328 
Q 359 3453 968 4101 
Q 1578 4750 2638 4750 
Q 3056 4750 3426 4639 
Q 3797 4528 4122 4306 
z
" transform="scale(0.015625)"/>
       <path id="DejaVuSans-46" d="M 628 4666 
L 3309 4666 
L 3309 4134 
L 1259 4134 
L 1259 2759 
L 3109 2759 
L 3109 2228 
L 1259 2228 
L 1259 0 
L 628 0 
L 628 4666 
z
" transform="scale(0.015625)"/>
      </defs>
      <use xlink:href="#DejaVuSans-56"/>
      <use xlink:href="#DejaVuSans-43" transform="translate(68.408203 0)"/>
      <use xlink:href="#DejaVuSans-46" transform="translate(138.232422 0)"/>
     </g>
    </g>
   </g>
   <g id="line2d_13">
    <path d="M 43.78125 195.613386 
L 43.783443 195.613386 
L 43.893086 186.841341 
L 47.042048 186.730288 
L 47.151691 186.725265 
L 49.316054 186.614169 
L 49.425697 186.607361 
L 51.370773 186.496351 
L 51.480417 186.48868 
L 52.853153 186.377786 
L 52.962797 186.370713 
L 54.254397 186.259809 
L 54.364041 186.24812 
L 55.41004 186.137035 
L 55.519683 186.125172 
L 56.622697 186.014337 
L 56.73234 186.000211 
L 57.712553 185.889248 
L 57.822197 185.876166 
L 58.70373 185.765108 
L 58.813374 185.748811 
L 59.773851 185.637765 
L 59.883494 185.627345 
L 60.808885 185.516409 
L 60.918529 185.502572 
L 61.775941 185.391688 
L 61.885585 185.373203 
L 62.712297 185.262269 
L 62.82194 185.245968 
L 63.587252 185.135474 
L 63.696895 185.116794 
L 64.405192 185.005895 
L 64.514836 184.988718 
L 65.225326 184.877661 
L 65.334969 184.865375 
L 65.988444 184.754457 
L 66.098088 184.734823 
L 66.762527 184.624044 
L 66.872171 184.606465 
L 67.501525 184.495613 
L 67.611168 184.48067 
L 68.225172 184.369786 
L 68.334815 184.354574 
L 69.014605 184.243469 
L 69.124248 184.223861 
L 69.825967 184.112864 
L 69.93561 184.093394 
L 70.516721 183.982473 
L 70.626364 183.961042 
L 71.275454 183.850536 
L 71.385097 183.829284 
L 72.045151 183.71863 
L 72.154795 183.699193 
L 72.797306 183.588487 
L 72.906949 183.566864 
L 73.53411 183.456936 
L 73.643753 183.437859 
L 74.224864 183.326846 
L 74.334508 183.306225 
L 74.93974 183.195271 
L 75.049383 183.175111 
L 75.731366 183.064895 
L 75.841009 183.04257 
L 76.415541 182.931602 
L 76.525185 182.911167 
L 77.110681 182.800098 
L 77.220324 182.783751 
L 77.770735 182.672749 
L 77.880378 182.646877 
L 78.43956 182.53698 
L 78.549204 182.517516 
L 79.1961 182.406569 
L 79.305744 182.383936 
L 79.847383 182.273181 
L 79.957026 182.250624 
L 80.507437 182.139874 
L 80.61708 182.120488 
L 81.141176 182.009624 
L 81.250819 181.984833 
L 81.779301 181.874252 
L 81.888945 181.853975 
L 82.434969 181.742868 
L 82.544613 181.716669 
L 83.090637 181.606371 
L 83.200281 181.583663 
L 83.766041 181.473065 
L 83.875685 181.447988 
L 84.469953 181.337244 
L 84.579596 181.311922 
L 85.108078 181.201038 
L 85.217721 181.177476 
L 85.708924 181.06695 
L 85.818568 181.043587 
L 86.386521 180.933036 
L 86.496164 180.911541 
L 86.985174 180.801514 
L 87.094818 180.776852 
L 87.654 180.665969 
L 87.763643 180.643897 
L 88.375454 180.532852 
L 88.485098 180.509431 
L 88.982879 180.39875 
L 89.092523 180.37437 
L 89.614426 180.263405 
L 89.724069 180.242129 
L 90.2065 180.131181 
L 90.316144 180.097185 
L 90.79419 179.986758 
L 90.903833 179.96025 
L 91.379686 179.849505 
L 91.489329 179.827971 
L 91.987111 179.717236 
L 92.096754 179.692646 
L 92.629622 179.583314 
L 92.739265 179.549738 
L 93.193189 179.438753 
L 93.302833 179.414871 
L 93.802807 179.304309 
L 93.912451 179.280122 
L 94.34006 179.169274 
L 94.449704 179.144305 
L 94.912399 179.033265 
L 95.022043 179.007559 
L 95.495703 178.896768 
L 95.605346 178.870713 
L 96.096549 178.760092 
L 96.206193 178.729629 
L 96.651345 178.619091 
L 96.760989 178.598031 
L 97.278506 178.487881 
L 97.38815 178.461986 
L 97.874967 178.351056 
L 97.98461 178.325474 
L 98.449499 178.216759 
L 98.559142 178.188962 
L 99.010873 178.07983 
L 99.120517 178.051979 
L 99.585405 177.941816 
L 99.695049 177.908583 
L 100.153359 177.797487 
L 100.263002 177.770245 
L 100.716926 177.659296 
L 100.82657 177.634498 
L 101.241022 177.523398 
L 101.350666 177.498132 
L 101.751961 177.38706 
L 101.861604 177.355682 
L 102.313336 177.244752 
L 102.422979 177.214932 
L 102.907603 177.104079 
L 103.017247 177.078344 
L 103.515028 176.968333 
L 103.624672 176.942751 
L 104.045703 176.831987 
L 104.155346 176.804099 
L 104.541292 176.6935 
L 104.650935 176.667606 
L 105.054423 176.556792 
L 105.164067 176.525342 
L 105.602641 176.414503 
L 105.712284 176.388284 
L 106.155244 176.278345 
L 106.264887 176.242609 
L 106.685918 176.131502 
L 106.795562 176.090976 
L 107.196857 175.980141 
L 107.306501 175.945046 
L 107.76481 175.833957 
L 107.874454 175.808522 
L 108.277942 175.69779 
L 108.387586 175.672857 
L 108.806424 175.561803 
L 108.916067 175.5342 
L 109.328327 175.423668 
L 109.43797 175.396865 
L 109.876544 175.28578 
L 109.986188 175.255284 
L 110.376519 175.144242 
L 110.486162 175.121831 
L 110.933508 175.011089 
L 111.043151 174.97581 
L 111.396203 174.864742 
L 111.505847 174.827253 
L 111.88302 174.716664 
L 111.992664 174.689925 
L 112.391766 174.578839 
L 112.50141 174.546445 
L 112.880776 174.436134 
L 112.99042 174.404266 
L 113.352243 174.293902 
L 113.461887 174.262778 
L 113.803974 174.153657 
L 113.913618 174.118464 
L 114.26667 174.008397 
L 114.376313 173.977866 
L 114.738137 173.86677 
L 114.84778 173.827725 
L 115.249076 173.717198 
L 115.358719 173.683409 
L 115.744664 173.573364 
L 115.854308 173.545455 
L 116.211746 173.435387 
L 116.321389 173.403656 
L 116.691984 173.294585 
L 116.801628 173.255955 
L 117.176608 173.145038 
L 117.286252 173.108819 
L 117.630532 172.997752 
L 117.740176 172.96639 
L 118.139278 172.856283 
L 118.248922 172.824586 
L 118.60636 172.713656 
L 118.716003 172.677355 
L 119.082212 172.566334 
L 119.191856 172.528453 
L 119.551487 172.417395 
L 119.66113 172.381293 
L 120.038304 172.270304 
L 120.147947 172.229064 
L 120.503192 172.118691 
L 120.612836 172.082863 
L 120.983431 171.972884 
L 121.093074 171.933007 
L 121.393497 171.82221 
L 121.503141 171.786314 
L 121.873736 171.675383 
L 121.983379 171.637171 
L 122.323274 171.526279 
L 122.432918 171.488541 
L 122.772813 171.377591 
L 122.882456 171.344631 
L 123.202615 171.236889 
L 123.312259 171.193572 
L 123.638996 171.083573 
L 123.74864 171.048848 
L 124.060027 170.93916 
L 124.169671 170.902708 
L 124.481058 170.792091 
L 124.590702 170.757481 
L 124.847268 170.647096 
L 124.956911 170.605368 
L 125.288034 170.494886 
L 125.397678 170.459782 
L 125.741959 170.349331 
L 125.851602 170.320292 
L 126.180533 170.210211 
L 126.290176 170.165388 
L 126.627878 170.056067 
L 126.737522 170.013725 
L 127.053295 169.902795 
L 127.162938 169.850224 
L 127.476519 169.739264 
L 127.586162 169.697917 
L 127.937021 169.587756 
L 128.046665 169.550647 
L 128.399717 169.439954 
L 128.50936 169.405654 
L 128.855834 169.295316 
L 128.965477 169.254723 
L 129.246165 169.144058 
L 129.355808 169.107468 
L 129.700089 168.997366 
L 129.809732 168.962423 
L 130.12112 168.851717 
L 130.230763 168.80846 
L 130.566273 168.697541 
L 130.675916 168.659852 
L 130.969761 168.551022 
L 131.079404 168.508828 
L 131.390792 168.398652 
L 131.500435 168.340316 
L 131.789894 168.229638 
L 131.899537 168.191585 
L 132.254782 168.080497 
L 132.364426 168.043732 
L 132.724057 167.932832 
L 132.8337 167.882507 
L 133.123159 167.772334 
L 133.232802 167.728189 
L 133.531033 167.618155 
L 133.640676 167.577202 
L 133.973992 167.467192 
L 134.083636 167.426374 
L 134.370902 167.315424 
L 134.480545 167.269284 
L 134.737111 167.159607 
L 134.846755 167.114459 
L 135.107706 167.004653 
L 135.21735 166.958233 
L 135.509001 166.849759 
L 135.618645 166.801478 
L 135.932225 166.692145 
L 136.041869 166.657398 
L 136.357642 166.546429 
L 136.467286 166.505296 
L 136.747973 166.395362 
L 136.857617 166.343769 
L 137.107604 166.23306 
L 137.217247 166.190038 
L 137.491356 166.079625 
L 137.600999 166.039526 
L 137.88388 165.928632 
L 137.993523 165.879859 
L 138.289561 165.76937 
L 138.399204 165.726493 
L 138.693049 165.616982 
L 138.802692 165.572105 
L 139.103115 165.461228 
L 139.212759 165.427723 
L 139.478096 165.31662 
L 139.58774 165.273655 
L 139.872813 165.163926 
L 139.982456 165.125247 
L 140.254372 165.015389 
L 140.364016 164.959826 
L 140.629353 164.849006 
L 140.738996 164.80404 
L 141.013105 164.693212 
L 141.122749 164.651083 
L 141.407822 164.540374 
L 141.517465 164.492866 
L 141.756488 164.381777 
L 141.866132 164.342992 
L 142.138047 164.234643 
L 142.247691 164.193777 
L 142.462592 164.084537 
L 142.572236 164.022919 
L 142.872659 163.911983 
L 142.982302 163.866069 
L 143.216939 163.755347 
L 143.326583 163.710522 
L 143.54587 163.603952 
L 143.655513 163.538857 
L 143.960322 163.427858 
L 144.069966 163.374958 
L 144.339689 163.263941 
L 144.449332 163.22167 
L 144.712477 163.11218 
L 144.82212 163.071196 
L 145.129122 162.960263 
L 145.238766 162.912445 
L 145.482174 162.801963 
L 145.591818 162.755298 
L 145.861541 162.644679 
L 145.971184 162.588207 
L 146.205821 162.477909 
L 146.315465 162.436084 
L 146.589574 162.325534 
L 146.699217 162.267434 
L 146.936047 162.156406 
L 147.04569 162.113686 
L 147.280328 162.005172 
L 147.389971 161.95995 
L 147.661887 161.848892 
L 147.77153 161.807708 
L 148.02371 161.700219 
L 148.133354 161.645095 
L 148.37457 161.534226 
L 148.484213 161.480626 
L 148.74955 161.372444 
L 148.859194 161.322138 
L 149.093831 161.211105 
L 149.203475 161.159374 
L 149.471005 161.048405 
L 149.580648 160.999771 
L 149.8109 160.888696 
L 149.920543 160.838488 
L 150.148602 160.728188 
L 150.258245 160.664763 
L 150.543318 160.554092 
L 150.652962 160.504602 
L 150.876634 160.393687 
L 150.986278 160.34035 
L 151.203372 160.229676 
L 151.313015 160.177683 
L 151.554231 160.066604 
L 151.663875 160.016285 
L 151.837111 159.90581 
L 151.946755 159.85287 
L 152.190163 159.741802 
L 152.299807 159.691969 
L 152.52348 159.582232 
L 152.633123 159.532813 
L 152.863375 159.422674 
L 152.973018 159.366519 
L 153.207655 159.258631 
L 153.317299 159.203812 
L 153.540971 159.093184 
L 153.650615 159.036053 
L 153.839202 158.926927 
L 153.948845 158.87764 
L 154.154975 158.768334 
L 154.264618 158.703719 
L 154.514606 158.593044 
L 154.624249 158.54447 
L 154.856693 158.434552 
L 154.966337 158.374619 
L 155.196588 158.263903 
L 155.306232 158.207393 
L 155.529904 158.097228 
L 155.639548 158.028413 
L 155.847871 157.919439 
L 155.957514 157.85583 
L 156.196537 157.745781 
L 156.30618 157.685171 
L 156.48161 157.574657 
L 156.591254 157.523739 
L 156.810541 157.413797 
L 156.920184 157.354762 
L 157.157014 157.243841 
L 157.266657 157.187567 
L 157.534188 157.077104 
L 157.643831 157.008225 
L 157.852154 156.899475 
L 157.961797 156.84127 
L 158.15477 156.730943 
L 158.264413 156.675941 
L 158.496858 156.566099 
L 158.606501 156.503581 
L 158.832367 156.394315 
L 158.94201 156.34217 
L 159.174454 156.231597 
L 159.284098 156.183877 
L 159.494613 156.07369 
L 159.604257 156.014925 
L 159.784072 155.905171 
L 159.893716 155.850508 
L 160.093267 155.739931 
L 160.20291 155.683197 
L 160.446319 155.577757 
L 160.555962 155.503392 
L 160.729199 155.394716 
L 160.838843 155.323721 
L 161.069094 155.212861 
L 161.178738 155.141608 
L 161.380482 155.031288 
L 161.490125 154.956379 
L 161.713798 154.846227 
L 161.823441 154.786107 
L 162.012028 154.67511 
L 162.121672 154.61247 
L 162.305873 154.505428 
L 162.415516 154.440698 
L 162.621646 154.329684 
L 162.731289 154.269403 
L 162.957155 154.159038 
L 163.066799 154.089542 
L 163.259771 153.978439 
L 163.369415 153.917337 
L 163.577737 153.806567 
L 163.687381 153.750631 
L 163.856232 153.640618 
L 163.965875 153.569069 
L 164.165426 153.458645 
L 164.27507 153.388225 
L 164.476814 153.281563 
L 164.586457 153.219775 
L 164.805744 153.11234 
L 164.915388 153.045297 
L 165.099589 152.935295 
L 165.209233 152.863757 
L 165.391241 152.754424 
L 165.500884 152.688599 
L 165.693857 152.57797 
L 165.8035 152.523654 
L 166.000859 152.412735 
L 166.110502 152.331273 
L 166.26181 152.222998 
L 166.371454 152.15333 
L 166.551269 152.042832 
L 166.660912 151.994636 
L 166.818799 151.883586 
L 166.928443 151.81374 
L 167.092908 151.703077 
L 167.202551 151.635621 
L 167.388945 151.524562 
L 167.498589 151.459442 
L 167.676211 151.350567 
L 167.785855 151.265967 
L 167.937163 151.155869 
L 168.046806 151.105226 
L 168.274865 150.994449 
L 168.384508 150.927098 
L 168.564324 150.823863 
L 168.673967 150.752419 
L 168.827468 150.642053 
L 168.937112 150.560443 
L 169.11912 150.450242 
L 169.228763 150.389397 
L 169.388843 150.280788 
L 169.498486 150.199594 
L 169.645409 150.089297 
L 169.755052 150.029484 
L 169.928289 149.918444 
L 170.037932 149.852539 
L 170.208976 149.742232 
L 170.31862 149.650155 
L 170.469928 149.539214 
L 170.579571 149.468878 
L 170.761579 149.35819 
L 170.871223 149.2875 
L 171.031302 149.177091 
L 171.140946 149.115205 
L 171.287868 149.00799 
L 171.397512 148.934338 
L 171.555398 148.824501 
L 171.665042 148.754175 
L 171.838279 148.646229 
L 171.947922 148.533914 
L 172.112387 148.425752 
L 172.222031 148.340368 
L 172.379917 148.229741 
L 172.489561 148.162868 
L 172.640869 148.052054 
L 172.750512 147.977238 
L 172.923749 147.866325 
L 173.033393 147.761793 
L 173.186894 147.65205 
L 173.296537 147.555901 
L 173.447845 147.448705 
L 173.557489 147.378551 
L 173.713182 147.268434 
L 173.822826 147.173647 
L 173.969748 147.062767 
L 174.079392 146.999407 
L 174.21535 146.888959 
L 174.324993 146.817534 
L 174.491651 146.70782 
L 174.601295 146.634204 
L 174.774531 146.523745 
L 174.884175 146.434517 
L 175.055219 146.323557 
L 175.164862 146.222942 
L 175.311785 146.118553 
L 175.421428 146.023939 
L 175.577122 145.914379 
L 175.686765 145.832231 
L 175.816145 145.721784 
L 175.925788 145.628159 
L 176.063939 145.521519 
L 176.173582 145.42952 
L 176.313926 145.320652 
L 176.42357 145.254221 
L 176.550756 145.144724 
L 176.6604 145.048034 
L 176.785393 144.937567 
L 176.895037 144.854672 
L 177.05073 144.743801 
L 177.160374 144.640599 
L 177.337996 144.531378 
L 177.44764 144.431196 
L 177.570441 144.322507 
L 177.680084 144.248252 
L 177.833585 144.13996 
L 177.943229 144.050594 
L 178.087958 143.94131 
L 178.197601 143.844711 
L 178.34891 143.736423 
L 178.458553 143.654676 
L 178.605475 143.544121 
L 178.715119 143.426445 
L 178.818184 143.315785 
L 178.927827 143.208334 
L 179.074749 143.097883 
L 179.184393 143.012851 
L 179.322544 142.903567 
L 179.432187 142.807375 
L 179.552795 142.696931 
L 179.662439 142.602776 
L 179.820325 142.493631 
L 179.929969 142.406412 
L 180.076891 142.297648 
L 180.186535 142.220187 
L 180.322493 142.111106 
L 180.432136 142.024735 
L 180.563708 141.918399 
L 180.673352 141.816995 
L 180.787381 141.708234 
L 180.897024 141.622173 
L 181.037368 141.512397 
L 181.147012 141.406826 
L 181.245691 141.29682 
L 181.355334 141.202106 
L 181.511028 141.091556 
L 181.620672 140.998693 
L 181.752244 140.890019 
L 181.861887 140.800693 
L 181.991267 140.689615 
L 182.10091 140.57867 
L 182.230289 140.467846 
L 182.339933 140.355927 
L 182.456155 140.252629 
L 182.565798 140.155149 
L 182.695178 140.044532 
L 182.804821 139.952944 
L 182.910079 139.842579 
L 183.019723 139.733996 
L 183.160066 139.623658 
L 183.26971 139.543348 
L 183.381546 139.435608 
L 183.49119 139.34906 
L 183.646883 139.238311 
L 183.756527 139.13539 
L 183.874942 139.024686 
L 183.984585 138.923058 
L 184.08765 138.817472 
L 184.197294 138.700026 
L 184.357373 138.589306 
L 184.467017 138.465732 
L 184.605168 138.35676 
L 184.714811 138.257184 
L 184.824455 138.148462 
L 184.934098 138.041247 
L 185.05032 137.933602 
L 185.159964 137.8206 
L 185.276186 137.713125 
L 185.385829 137.620275 
L 185.502051 137.512884 
L 185.611695 137.410999 
L 185.725724 137.303537 
L 185.835368 137.197411 
L 185.945011 137.086863 
L 186.054655 136.997621 
L 186.153334 136.890127 
L 186.262977 136.785038 
L 186.357271 136.676584 
L 186.466914 136.581436 
L 186.609451 136.473482 
L 186.719094 136.372825 
L 186.866017 136.262273 
L 186.97566 136.130697 
L 187.107232 136.022907 
L 187.216876 135.887938 
L 187.337484 135.778312 
L 187.447127 135.668453 
L 187.563349 135.561636 
L 187.672993 135.447834 
L 187.780443 135.342404 
L 187.890087 135.223397 
L 187.986573 135.112702 
L 188.096217 135.008121 
L 188.214632 134.898667 
L 188.324275 134.792056 
L 188.449269 134.685308 
L 188.558912 134.563543 
L 188.637855 134.453543 
L 188.747499 134.323206 
L 188.894421 134.21575 
L 189.004065 134.104437 
L 189.12248 133.998845 
L 189.232123 133.849075 
L 189.322031 133.743279 
L 189.431674 133.638404 
L 189.547897 133.531691 
L 189.65754 133.413481 
L 189.762798 133.302665 
L 189.872441 133.175938 
L 189.962349 133.073637 
L 190.071992 132.936154 
L 190.17725 132.831179 
L 190.286894 132.664353 
L 190.38338 132.554545 
L 190.493023 132.424789 
L 190.62021 132.313984 
L 190.729853 132.172772 
L 190.837304 132.063354 
L 190.946948 131.988348 
L 191.065363 131.877774 
L 191.175006 131.749344 
L 191.273685 131.639154 
L 191.383329 131.505496 
L 191.457886 131.394827 
L 191.56753 131.26497 
L 191.696909 131.156346 
L 191.806553 130.990374 
L 191.892075 130.88709 
L 192.001718 130.740484 
L 192.106976 130.630169 
L 192.216619 130.487381 
L 192.330649 130.379159 
L 192.440292 130.25397 
L 192.532393 130.143202 
L 192.642036 130.008235 
L 192.738522 129.897544 
L 192.848166 129.765945 
L 192.924916 129.656224 
L 193.03456 129.512161 
L 193.148589 129.401069 
L 193.258233 129.245389 
L 193.356912 129.138859 
L 193.466555 128.977182 
L 193.556463 128.866314 
L 193.666106 128.714793 
L 193.762593 128.603759 
L 193.872236 128.457751 
L 193.975301 128.349862 
L 194.084945 128.221162 
L 194.172659 128.112957 
L 194.282303 128.001937 
L 194.380982 127.890873 
L 194.490625 127.734449 
L 194.554219 127.632509 
L 194.663862 127.46776 
L 194.755963 127.361548 
L 194.865606 127.207926 
L 194.946742 127.097234 
L 195.056386 126.958447 
L 195.113401 126.8527 
L 195.223044 126.726926 
L 195.297602 126.616721 
L 195.407245 126.473534 
L 195.503731 126.362693 
L 195.613375 126.244682 
L 195.68574 126.14501 
L 195.795383 125.959269 
L 195.900641 125.85103 
L 196.010284 125.707426 
L 196.091421 125.598631 
L 196.201064 125.445274 
L 196.284393 125.335315 
L 196.394037 125.182971 
L 196.453244 125.076718 
L 196.562888 124.920551 
L 196.633059 124.813675 
L 196.742703 124.693645 
L 196.819453 124.584279 
L 196.929097 124.430868 
L 196.999269 124.32406 
L 197.108912 124.136469 
L 197.19882 124.027476 
L 197.308463 123.855664 
L 197.387407 123.74696 
L 197.49705 123.616922 
L 197.567222 123.506264 
L 197.676866 123.359714 
L 197.76458 123.248996 
L 197.874224 123.066845 
L 197.95536 122.95872 
L 198.065004 122.733834 
L 198.16149 122.624585 
L 198.271133 122.441156 
L 198.341305 122.331296 
L 198.450949 122.186921 
L 198.527699 122.077485 
L 198.637343 121.919538 
L 198.692164 121.813547 
L 198.801808 121.610303 
L 198.865401 121.5015 
L 198.975045 121.348823 
L 199.040831 121.24016 
L 199.150474 121.056942 
L 199.225032 120.946716 
L 199.334675 120.79561 
L 199.40704 120.684613 
L 199.516683 120.509627 
L 199.593434 120.399656 
L 199.703077 120.204283 
L 199.790792 120.093887 
L 199.900436 119.918484 
L 199.979379 119.807935 
L 200.089023 119.581927 
L 200.167966 119.473402 
L 200.277609 119.279792 
L 200.347781 119.170618 
L 200.457425 119.026682 
L 200.518825 118.916426 
L 200.628469 118.716886 
L 200.687676 118.607103 
L 200.79732 118.434109 
L 200.867491 118.328166 
L 200.977135 118.177327 
L 201.06485 118.066348 
L 201.174493 117.861948 
L 201.209579 117.759822 
L 201.319223 117.562825 
L 201.380623 117.452059 
L 201.490266 117.260034 
L 201.545088 117.153735 
L 201.654732 116.933129 
L 201.733675 116.825516 
L 201.843319 116.625756 
L 201.911298 116.518909 
L 202.020941 116.316595 
L 202.071377 116.21356 
L 202.181021 116.029936 
L 202.244614 115.928525 
L 202.354257 115.73147 
L 202.422236 115.620934 
L 202.53188 115.474647 
L 202.582316 115.365872 
L 202.691959 115.12779 
L 202.755552 115.021148 
L 202.865196 114.785593 
L 202.924403 114.680762 
L 203.034047 114.466768 
L 203.095447 114.357938 
L 203.205091 114.130766 
L 203.277456 114.019731 
L 203.387099 113.748913 
L 203.446306 113.644003 
L 203.55595 113.380962 
L 203.630508 113.271853 
L 203.740151 113.031899 
L 203.80813 112.928116 
L 203.917774 112.757463 
L 203.972595 112.648333 
L 204.082239 112.429157 
L 204.143639 112.319872 
L 204.253283 112.084104 
L 204.29714 111.974381 
L 204.406784 111.725944 
L 204.455027 111.623595 
L 204.56467 111.358204 
L 204.623878 111.255203 
L 204.733521 111.025983 
L 204.794922 110.917427 
L 204.904565 110.74657 
L 204.939651 110.640812 
L 205.049294 110.356118 
L 205.097538 110.24831 
L 205.207181 110.015137 
L 205.262003 109.906819 
L 205.371646 109.616251 
L 205.422082 109.505198 
L 205.531726 109.293171 
L 205.577776 109.183603 
L 205.68742 108.890007 
L 205.740049 108.779087 
L 205.849692 108.575571 
L 205.908899 108.469906 
L 206.018543 108.103246 
L 206.068979 107.992967 
L 206.178623 107.749822 
L 206.218094 107.647407 
L 206.327738 107.378369 
L 206.391331 107.272038 
L 206.500974 106.985469 
L 206.553603 106.878501 
L 206.663247 106.572343 
L 206.718069 106.461967 
L 206.827712 106.222424 
L 206.864991 106.117693 
L 206.974634 105.829459 
L 207.011913 105.725112 
L 207.121557 105.462137 
L 207.1698 105.355461 
L 207.279443 105.055998 
L 207.332072 104.95537 
L 207.441716 104.65168 
L 207.481187 104.545418 
L 207.590831 104.258043 
L 207.62811 104.160696 
L 207.737753 103.901399 
L 207.757489 103.794008 
L 207.867132 103.523594 
L 207.906604 103.423699 
L 208.016248 103.144397 
L 208.062298 103.043134 
L 208.171941 102.689833 
L 208.213606 102.58262 
L 208.323249 102.221437 
L 208.367107 102.110544 
L 208.47675 101.865729 
L 208.522801 101.755942 
L 208.632444 101.482671 
L 208.66753 101.378015 
L 208.777173 101.005971 
L 208.812259 100.900591 
L 208.921903 100.587155 
L 208.96576 100.4771 
L 209.075404 100.127159 
L 209.119261 100.039233 
L 209.228905 99.727126 
L 209.281534 99.623217 
L 209.391177 99.224493 
L 209.419684 99.120746 
L 209.529328 98.712876 
L 209.562221 98.602717 
L 209.671864 98.314183 
L 209.717915 98.210449 
L 209.827558 97.827718 
L 209.864837 97.719105 
L 209.97448 97.355644 
L 210.022724 97.250207 
L 210.132367 96.956977 
L 210.160874 96.850373 
L 210.270518 96.463063 
L 210.318761 96.354688 
L 210.428405 95.94581 
L 210.481033 95.839735 
L 210.590677 95.418175 
L 210.632341 95.312577 
L 210.741985 94.976748 
L 210.779264 94.869707 
L 210.888907 94.45335 
L 210.93715 94.352478 
L 211.046794 93.993953 
L 211.086266 93.894276 
L 211.195909 93.39277 
L 211.224416 93.28878 
L 211.33406 92.817645 
L 211.371339 92.709505 
L 211.480982 92.360828 
L 211.505104 92.257505 
L 211.614747 91.897571 
L 211.645447 91.811728 
L 211.755091 91.356836 
L 211.781405 91.256464 
L 211.891049 90.844471 
L 211.906399 90.744703 
L 212.016042 90.392464 
L 212.046743 90.285308 
L 212.156386 89.917523 
L 212.200243 89.820941 
L 212.309887 89.342496 
L 212.334009 89.237987 
L 212.443652 88.706039 
L 212.467774 88.598412 
L 212.577417 88.220446 
L 212.601539 88.111768 
L 212.711182 87.710113 
L 212.733111 87.607517 
L 212.842754 87.076172 
L 212.87784 86.982094 
L 212.987484 86.46929 
L 213.005027 86.372845 
L 213.11467 85.89925 
L 213.149756 85.794333 
L 213.2594 85.248269 
L 213.27475 85.14143 
L 213.384393 84.730597 
L 213.417286 84.626185 
L 213.52693 84.119398 
L 213.548859 84.012688 
L 213.658502 83.57577 
L 213.684816 83.467313 
L 213.79446 82.916272 
L 213.822967 82.811249 
L 213.932611 82.26807 
L 213.952347 82.16403 
L 214.06199 81.618866 
L 214.097076 81.512675 
L 214.20672 80.916117 
L 214.233034 80.814566 
L 214.342677 80.208021 
L 214.364606 80.111004 
L 214.47425 79.336177 
L 214.509336 79.234001 
L 214.618979 78.605839 
L 214.640908 78.497394 
L 214.750551 77.980077 
L 214.783444 77.873708 
L 214.893088 77.152988 
L 214.928174 77.04361 
L 215.037817 76.278588 
L 215.064132 76.183761 
L 215.173775 75.508551 
L 215.20009 75.426892 
L 215.309733 74.858157 
L 215.340433 74.75084 
L 215.450077 74.123703 
L 215.472005 74.016665 
L 215.581649 73.302005 
L 215.599192 73.206428 
L 215.708835 72.229957 
L 215.730764 72.125423 
L 215.840408 71.367884 
L 215.851372 71.26726 
L 215.961016 70.666881 
L 215.980751 70.564355 
L 216.090395 69.818251 
L 216.114516 69.71427 
L 216.22416 69.115579 
L 216.243896 69.011831 
L 216.353539 68.272993 
L 216.366696 68.17553 
L 216.47634 67.589393 
L 216.489497 67.48275 
L 216.599141 66.63502 
L 216.612298 66.532262 
L 216.721941 65.581004 
L 216.746063 65.471462 
L 216.855706 64.729244 
L 216.871057 64.630355 
L 216.9807 63.607276 
L 216.998243 63.514977 
L 217.107887 62.333458 
L 217.114465 62.257773 
L 217.224109 61.175119 
L 217.237266 61.09901 
L 217.346909 60.150689 
L 217.362259 60.043924 
L 217.471903 58.920697 
L 217.476289 58.838786 
L 217.585932 57.416753 
L 217.590318 57.400736 
L 217.699961 55.818228 
L 217.724083 55.708588 
L 217.833726 54.545127 
L 217.851269 54.445194 
L 217.960913 52.955503 
L 217.971877 52.856078 
L 218.081521 51.330018 
L 218.096871 51.249507 
L 218.206514 49.668632 
L 218.215286 49.58433 
L 218.324929 47.480097 
L 218.331508 47.422663 
L 218.441151 45.917251 
L 218.449923 45.818306 
L 218.559566 43.713054 
L 218.566145 43.667192 
L 218.675789 41.19685 
L 218.68456 41.086118 
L 218.794204 38.69842 
L 218.800782 38.6241 
L 218.910426 36.064207 
L 218.914811 36.029972 
L 219.024455 32.321023 
L 219.037612 32.226713 
L 219.147256 28.896013 
L 219.151641 28.816916 
L 219.261285 25.28615 
L 219.263478 25.28615 
L 219.373121 20.991859 
L 219.3797 20.914585 
L 219.489343 16.540711 
L 219.493729 16.435491 
L 219.603373 12.558663 
L 219.609951 12.493644 
L 219.625301 2.670461 
L 219.625301 2.670461 
" clip-path="url(#p1fad5db5f0)" style="fill: none; stroke: #67c7d5; stroke-width: 1.5; stroke-linecap: square"/>
   </g>
   <g id="line2d_14">
    <path d="M 43.78125 195.631504 
L 43.783443 195.631504 
L 43.893086 186.739836 
L 44.121145 186.632118 
L 44.226403 186.562641 
L 44.366746 186.453644 
L 44.474197 186.367111 
L 44.610155 186.258626 
L 44.717605 186.165298 
L 44.895228 186.060059 
L 45.004871 185.991637 
L 45.175915 185.880631 
L 45.285559 185.774225 
L 45.421517 185.667585 
L 45.53116 185.589005 
L 45.739483 185.478415 
L 45.849126 185.377206 
L 45.954384 185.267473 
L 46.064028 185.170106 
L 46.246036 185.060782 
L 46.353486 184.983068 
L 46.485059 184.872621 
L 46.594702 184.812558 
L 46.789868 184.703708 
L 46.897318 184.62153 
L 47.015733 184.511387 
L 47.123184 184.419228 
L 47.318349 184.309765 
L 47.427993 184.194066 
L 47.577108 184.085584 
L 47.680173 184.031519 
L 47.857795 183.923505 
L 47.86876 183.913231 
L 49.982686 183.803113 
L 50.087944 183.704089 
L 50.267759 183.596336 
L 50.377403 183.536438 
L 50.625197 183.427109 
L 50.734841 183.332401 
L 50.83352 183.224631 
L 50.936585 183.129864 
L 51.081314 183.019348 
L 51.190958 182.908611 
L 51.342266 182.802648 
L 51.386123 182.759839 
L 51.804961 182.652035 
L 51.912412 182.563478 
L 52.013284 182.461121 
L 52.122927 182.356278 
L 52.283007 182.245387 
L 52.39265 182.142617 
L 52.546151 182.034281 
L 52.655795 181.914919 
L 52.82026 181.804454 
L 52.929904 181.692131 
L 53.07244 181.582121 
L 53.182084 181.490016 
L 53.342163 181.380387 
L 53.449614 181.287992 
L 53.581186 181.184702 
L 53.688637 181.105176 
L 53.855295 180.999367 
L 53.857488 180.987036 
L 56.113951 180.876752 
L 56.221401 180.797251 
L 56.596382 180.6867 
L 56.706026 180.579615 
L 56.872684 180.47136 
L 56.982327 180.383132 
L 57.107321 180.273279 
L 57.166528 180.208629 
L 57.394587 180.097638 
L 57.502037 180.064435 
L 57.637995 179.95373 
L 57.747639 179.887784 
L 57.859475 179.778275 
L 57.969119 179.674105 
L 58.087534 179.564138 
L 58.197177 179.46708 
L 58.313399 179.359967 
L 58.416464 179.285901 
L 58.578737 179.176743 
L 58.68838 179.097407 
L 58.800217 178.991666 
L 58.905474 178.886243 
L 59.058975 178.776775 
L 59.168619 178.720632 
L 59.521671 178.60962 
L 59.631314 178.510414 
L 59.824287 178.39989 
L 59.931737 178.303436 
L 60.080853 178.203392 
L 60.190496 178.129145 
L 61.313246 178.022988 
L 61.422889 177.925857 
L 61.997421 177.814978 
L 62.067593 177.7545 
L 62.304423 177.644557 
L 62.414066 177.562304 
L 62.571953 177.452178 
L 62.681596 177.35928 
L 62.810976 177.251509 
L 62.920619 177.117161 
L 63.065349 177.008913 
L 63.174992 176.905747 
L 63.321914 176.794874 
L 63.407436 176.699124 
L 63.560937 176.588186 
L 63.670581 176.499502 
L 63.75391 176.389922 
L 63.863553 176.269804 
L 63.984161 176.166365 
L 64.093805 176.053734 
L 64.225377 175.942986 
L 64.332828 175.854863 
L 64.486328 175.747466 
L 64.595972 175.655259 
L 64.718773 175.544404 
L 64.828416 175.424053 
L 64.931481 175.323095 
L 65.041125 175.213876 
L 66.001602 175.1046 
L 66.111245 175.01497 
L 66.663848 174.905476 
L 66.773492 174.81792 
L 66.975236 174.707355 
L 67.084879 174.613642 
L 67.41381 174.503337 
L 67.523453 174.396737 
L 67.639675 174.289907 
L 67.749319 174.208039 
L 67.863348 174.097801 
L 67.968606 173.980626 
L 68.082635 173.874076 
L 68.190086 173.76002 
L 68.312887 173.652362 
L 68.42253 173.548403 
L 68.519016 173.437488 
L 68.62866 173.335915 
L 68.784354 173.226088 
L 68.893997 173.115943 
L 68.997062 173.008975 
L 69.104513 172.899928 
L 69.207577 172.790477 
L 69.315028 172.696291 
L 69.433443 172.591517 
L 69.543087 172.485797 
L 69.639573 172.380607 
L 69.749216 172.283142 
L 70.56935 172.17863 
L 70.678993 172.063178 
L 70.77548 171.952843 
L 70.779865 171.947302 
L 71.220632 171.837706 
L 71.330276 171.733584 
L 71.534213 171.622957 
L 71.63947 171.494918 
L 71.738149 171.384533 
L 71.847793 171.247466 
L 71.950858 171.142236 
L 72.060501 171.040128 
L 72.185495 170.929216 
L 72.295138 170.825824 
L 72.400396 170.716757 
L 72.51004 170.620009 
L 72.650383 170.509209 
L 72.678891 170.485885 
L 72.906949 170.38279 
L 73.016593 170.256311 
L 73.174479 170.146666 
L 73.284123 170.07808 
L 73.395959 169.967132 
L 73.505603 169.876352 
L 73.602089 169.768823 
L 73.711732 169.678581 
L 73.821376 169.568181 
L 73.928827 169.447233 
L 74.05382 169.337211 
L 74.123992 169.260493 
L 74.98579 169.151081 
L 75.095433 169.019037 
L 75.472607 168.909958 
L 75.582251 168.742269 
L 75.764259 168.634787 
L 75.873902 168.498201 
L 75.996703 168.388273 
L 76.106346 168.281411 
L 76.202833 168.171754 
L 76.312476 168.03766 
L 76.435277 167.928384 
L 76.54492 167.81608 
L 76.645792 167.705749 
L 76.755436 167.59486 
L 76.825608 167.484248 
L 76.935251 167.357691 
L 77.066824 167.249014 
L 77.176467 167.116904 
L 77.279532 167.007473 
L 77.389175 166.90385 
L 77.520748 166.797538 
L 77.628198 166.708149 
L 77.755385 166.598379 
L 77.865028 166.52019 
L 77.974672 166.413342 
L 78.084315 166.392202 
L 78.678583 166.281761 
L 78.786034 166.154649 
L 78.900063 166.045785 
L 78.946113 165.98924 
L 79.272851 165.881642 
L 79.382494 165.790944 
L 79.498716 165.681353 
L 79.60836 165.609421 
L 79.696075 165.504774 
L 79.805718 165.346788 
L 79.889047 165.244518 
L 79.998691 165.084835 
L 80.09737 164.974459 
L 80.180699 164.865071 
L 80.325428 164.756081 
L 80.435072 164.632542 
L 80.524979 164.528995 
L 80.634623 164.361097 
L 80.755231 164.251538 
L 80.864874 164.123104 
L 80.946011 164.016864 
L 81.055654 163.855422 
L 81.134597 163.745248 
L 81.244241 163.633485 
L 81.371427 163.522693 
L 81.465721 163.399025 
L 82.046831 163.287969 
L 82.136739 163.182668 
L 82.25954 163.071603 
L 82.303397 163.000575 
L 82.665221 162.891033 
L 82.774864 162.770264 
L 82.877929 162.659377 
L 82.987572 162.566428 
L 83.075287 162.457312 
L 83.184931 162.347935 
L 83.380096 162.244331 
L 83.48974 162.13071 
L 83.586226 162.019983 
L 83.695869 161.883707 
L 83.783584 161.777312 
L 83.893228 161.686848 
L 83.97875 161.577532 
L 84.088393 161.418981 
L 84.178301 161.310858 
L 84.287944 161.136656 
L 84.377852 161.027939 
L 84.487496 160.898363 
L 84.583982 160.789195 
L 84.691432 160.676456 
L 84.798883 160.566367 
L 84.875634 160.470043 
L 85.417272 160.360457 
L 85.526916 160.244024 
L 85.649717 160.133458 
L 85.711117 160.022762 
L 85.96549 159.915626 
L 86.075133 159.791816 
L 86.224249 159.68666 
L 86.331699 159.577458 
L 86.509322 159.468229 
L 86.618965 159.315112 
L 86.700101 159.204822 
L 86.809745 159.077376 
L 86.88211 158.972771 
L 86.991753 158.839954 
L 87.086046 158.728925 
L 87.19569 158.542309 
L 87.296562 158.432074 
L 87.406205 158.287421 
L 87.561899 158.181549 
L 87.671543 158.029103 
L 87.757065 157.91886 
L 87.866708 157.791516 
L 87.941266 157.683386 
L 88.039945 157.539184 
L 88.621055 157.434218 
L 88.730699 157.261606 
L 88.822799 157.150515 
L 88.912707 157.043403 
L 89.16708 156.934678 
L 89.276724 156.797073 
L 89.384174 156.688216 
L 89.482853 156.526461 
L 89.596883 156.426623 
L 89.706526 156.281024 
L 89.811784 156.170241 
L 89.921427 156.022389 
L 89.993792 155.911781 
L 90.103436 155.80872 
L 90.188957 155.699662 
L 90.298601 155.568217 
L 90.357808 155.461028 
L 90.467452 155.335248 
L 90.539817 155.224315 
L 90.64946 155.061209 
L 90.717439 154.952591 
L 90.827083 154.85604 
L 90.903833 154.746005 
L 91.013477 154.606998 
L 91.533187 154.499634 
L 91.64283 154.367541 
L 91.745895 154.262661 
L 91.855539 154.145531 
L 92.140612 154.034879 
L 92.250255 153.90302 
L 92.364285 153.792422 
L 92.451999 153.666838 
L 92.587957 153.555858 
L 92.697601 153.475607 
L 92.78093 153.372389 
L 92.890573 153.275855 
L 92.976095 153.173809 
L 93.07916 153.031493 
L 93.169068 152.922348 
L 93.278711 152.748902 
L 93.364233 152.645771 
L 93.471684 152.502486 
L 93.548434 152.395817 
L 93.658078 152.237199 
L 93.745793 152.126394 
L 93.855436 151.985121 
L 93.925608 151.879596 
L 94.035251 151.707368 
L 94.397075 151.616627 
L 94.506718 151.458892 
L 94.603205 151.348666 
L 94.712848 151.181839 
L 94.951871 151.07159 
L 95.059322 150.937291 
L 95.160194 150.827585 
L 95.269837 150.712636 
L 95.359745 150.601918 
L 95.451845 150.468707 
L 95.581225 150.361098 
L 95.690868 150.182541 
L 95.756654 150.073032 
L 95.866298 149.997991 
L 95.925505 149.88751 
L 96.035149 149.742159 
L 96.164528 149.63201 
L 96.271979 149.466094 
L 96.353115 149.362954 
L 96.462759 149.230445 
L 96.561438 149.122156 
L 96.671081 148.942472 
L 96.75441 148.83159 
L 96.828968 148.746982 
L 97.322364 148.637744 
L 97.432007 148.477295 
L 97.537265 148.366251 
L 97.646908 148.193396 
L 97.921017 148.086882 
L 98.030661 147.899779 
L 98.092061 147.792929 
L 98.201704 147.624089 
L 98.289419 147.516587 
L 98.353012 147.432071 
L 98.491163 147.328034 
L 98.600807 147.122489 
L 98.699486 147.014322 
L 98.804744 146.878713 
L 98.87053 146.7745 
L 98.980173 146.630732 
L 99.065695 146.520998 
L 99.175339 146.350283 
L 99.282789 146.244692 
L 99.392433 146.080956 
L 99.48234 145.972299 
L 99.591984 145.86591 
L 100.002051 145.757055 
L 100.111694 145.603198 
L 100.186252 145.494578 
L 100.295895 145.37053 
L 100.385803 145.26206 
L 100.480096 145.125411 
L 100.747626 145.017022 
L 100.855077 144.877306 
L 100.93402 144.77628 
L 101.043664 144.613013 
L 101.118222 144.508966 
L 101.1862 144.3986 
L 101.293651 144.2915 
L 101.403295 144.124101 
L 101.491009 144.020763 
L 101.600653 143.85258 
L 101.679596 143.754329 
L 101.78924 143.622377 
L 101.883533 143.511621 
L 101.993177 143.333431 
L 102.063348 143.22479 
L 102.172992 143.017474 
L 102.240971 142.906613 
L 102.249742 142.882401 
L 102.635688 142.771569 
L 102.745331 142.605781 
L 102.815503 142.501026 
L 102.925146 142.329426 
L 103.015054 142.224611 
L 103.08084 142.142404 
L 103.330827 142.037666 
L 103.431699 141.865789 
L 103.545729 141.756136 
L 103.655372 141.61656 
L 103.716772 141.507074 
L 103.824223 141.373987 
L 103.938252 141.272012 
L 104.047896 141.117572 
L 104.115875 141.007283 
L 104.225518 140.840118 
L 104.317619 140.730195 
L 104.427262 140.562623 
L 104.477698 140.456259 
L 104.587342 140.329498 
L 104.664092 140.22034 
L 104.773736 140.083155 
L 104.848293 139.97283 
L 104.850486 139.954001 
L 105.293446 139.845269 
L 105.403089 139.683097 
L 105.466683 139.575127 
L 105.576326 139.443142 
L 105.644305 139.342245 
L 105.753949 139.194033 
L 105.9535 139.088125 
L 106.063143 138.949406 
L 106.14428 138.841565 
L 106.253923 138.660567 
L 106.339445 138.552323 
L 106.449088 138.395462 
L 106.593818 138.289652 
L 106.703461 138.12215 
L 106.77144 138.012321 
L 106.876698 137.867664 
L 107.012656 137.765096 
L 107.1223 137.564005 
L 107.188086 137.458789 
L 107.297729 137.291223 
L 107.372287 137.181802 
L 107.48193 137.027435 
L 107.867875 136.923809 
L 107.977519 136.778087 
L 108.034533 136.668896 
L 108.144177 136.535385 
L 108.22312 136.426352 
L 108.330571 136.205453 
L 108.554244 136.099602 
L 108.663887 135.92983 
L 108.740638 135.82081 
L 108.850281 135.648454 
L 108.90291 135.539058 
L 109.012553 135.312972 
L 109.113425 135.204108 
L 109.223069 134.982444 
L 109.304205 134.878239 
L 109.413849 134.714658 
L 109.479635 134.604188 
L 109.589278 134.420602 
L 109.663836 134.311335 
L 109.773479 134.148716 
L 110.13311 134.037957 
L 110.242754 133.854876 
L 110.334854 133.743994 
L 110.444498 133.655098 
L 110.492741 133.544271 
L 110.602384 133.33702 
L 110.681328 133.227887 
L 110.709835 133.197348 
L 110.915965 133.086952 
L 111.025608 132.941283 
L 111.067273 132.834005 
L 111.176916 132.704323 
L 111.269017 132.593503 
L 111.36331 132.41537 
L 111.475146 132.305233 
L 111.58479 132.159291 
L 111.657155 132.050502 
L 111.766798 131.880713 
L 111.839163 131.774845 
L 111.948806 131.588777 
L 112.018978 131.478993 
L 112.128622 131.283316 
L 112.205372 131.173626 
L 112.209758 131.165924 
L 112.549653 131.055877 
L 112.659296 130.91301 
L 112.747011 130.804171 
L 112.854462 130.665196 
L 112.933405 130.555604 
L 113.043048 130.405782 
L 113.11322 130.302433 
L 113.163656 130.21781 
L 113.325929 130.107127 
L 113.435572 129.948932 
L 113.503551 129.839889 
L 113.613195 129.654151 
L 113.73161 129.544232 
L 113.841253 129.3707 
L 113.918004 129.261033 
L 114.027647 129.155626 
L 114.102205 129.048652 
L 114.211848 128.861 
L 114.271056 128.757179 
L 114.380699 128.573333 
L 114.461835 128.464508 
L 114.569286 128.30251 
L 114.972774 128.191425 
L 115.082418 128.011311 
L 115.154782 127.905176 
L 115.264426 127.756921 
L 115.32144 127.650058 
L 115.431084 127.477037 
L 115.505641 127.369614 
L 115.613092 127.235134 
L 115.7951 127.124403 
L 115.904744 126.964739 
L 115.992459 126.858454 
L 116.102102 126.668984 
L 116.17666 126.563053 
L 116.286303 126.395224 
L 116.349896 126.289384 
L 116.45954 126.16451 
L 116.529712 126.059937 
L 116.639355 125.903046 
L 116.689791 125.792508 
L 116.799435 125.606685 
L 116.941971 125.502322 
L 117.038458 125.298428 
L 117.39151 125.187933 
L 117.501153 125.025789 
L 117.593254 124.922018 
L 117.702897 124.779619 
L 117.759912 124.670362 
L 117.869555 124.47976 
L 117.939727 124.371622 
L 118.007706 124.254779 
L 118.198486 124.147176 
L 118.308129 123.992184 
L 118.38488 123.883461 
L 118.494523 123.767219 
L 118.566888 123.658074 
L 118.676531 123.442648 
L 118.759861 123.332636 
L 118.867311 123.175596 
L 118.922133 123.073697 
L 119.031776 122.922553 
L 119.112913 122.811667 
L 119.222556 122.633147 
L 119.305885 122.523809 
L 119.373864 122.368746 
L 119.720338 122.262027 
L 119.829981 122.107526 
L 119.922082 122.00098 
L 120.031725 121.832818 
L 120.082161 121.739524 
L 120.191805 121.522605 
L 120.334341 121.412925 
L 120.41767 121.27637 
L 120.617221 121.170868 
L 120.726865 120.992307 
L 120.812387 120.882075 
L 120.92203 120.733036 
L 120.983431 120.622264 
L 121.093074 120.474613 
L 121.172018 120.363533 
L 121.281661 120.16866 
L 121.358411 120.060869 
L 121.468055 119.880933 
L 121.566734 119.771672 
L 121.669799 119.611781 
L 121.735585 119.504709 
L 121.775057 119.438012 
L 122.068901 119.326961 
L 122.178545 119.190073 
L 122.239945 119.079812 
L 122.349589 119.021481 
L 122.426339 118.915706 
L 122.535983 118.767182 
L 122.597383 118.658842 
L 122.707027 118.502983 
L 122.803513 118.394229 
L 122.849563 118.295265 
L 123.005257 118.188384 
L 123.1149 118.025375 
L 123.189458 117.914305 
L 123.299101 117.70996 
L 123.358309 117.600865 
L 123.467952 117.399901 
L 123.592946 117.300141 
L 123.691625 117.11309 
L 123.790304 117.00249 
L 123.897755 116.828182 
L 123.959155 116.719014 
L 124.068799 116.562698 
L 124.406501 116.460484 
L 124.516144 116.22768 
L 124.573159 116.121272 
L 124.682802 115.942103 
L 124.759553 115.831774 
L 124.858232 115.674631 
L 124.930597 115.567293 
L 125.04024 115.337393 
L 125.204705 115.230804 
L 125.314349 115.066834 
L 125.377942 114.958751 
L 125.485393 114.774894 
L 125.533636 114.664682 
L 125.643279 114.487533 
L 125.724416 114.381679 
L 125.834059 114.200569 
L 125.873531 114.109796 
L 125.983174 113.967711 
L 126.031417 113.869017 
L 126.141061 113.628018 
L 126.434905 113.524062 
L 126.544549 113.305244 
L 126.66735 113.195351 
L 126.776993 113.019971 
L 126.840586 112.916255 
L 126.95023 112.72804 
L 127.013823 112.619177 
L 127.123467 112.455025 
L 127.18706 112.353642 
L 127.296703 112.331731 
L 127.353718 112.233079 
L 127.463362 112.030831 
L 127.542305 111.921631 
L 127.649755 111.758517 
L 127.733085 111.64808 
L 127.842728 111.479357 
L 127.89755 111.375622 
L 128.007193 111.199419 
L 128.079558 111.08839 
L 128.189201 110.947179 
L 128.263759 110.837986 
L 128.373403 110.656754 
L 128.676019 110.548947 
L 128.785662 110.350647 
L 128.84487 110.249958 
L 128.954513 110.09209 
L 129.026878 109.982495 
L 129.136521 109.797224 
L 129.195729 109.688865 
L 129.305372 109.408251 
L 129.476416 109.29946 
L 129.557552 109.157981 
L 129.67816 109.050261 
L 129.787804 108.853503 
L 129.831661 108.743007 
L 129.941305 108.555334 
L 130.011476 108.444887 
L 130.12112 108.269738 
L 130.180327 108.159906 
L 130.289971 108.016626 
L 130.340407 107.906759 
L 130.447858 107.715075 
L 130.743895 107.609251 
L 130.853539 107.439282 
L 130.914939 107.330395 
L 131.024582 107.215414 
L 131.079404 107.105883 
L 131.189048 106.914293 
L 131.292113 106.803722 
L 131.401756 106.609411 
L 131.467542 106.499422 
L 131.524557 106.378363 
L 131.645165 106.274631 
L 131.754808 106.081071 
L 131.822787 105.973619 
L 131.932431 105.740023 
L 132.011374 105.630274 
L 132.121017 105.362078 
L 132.175839 105.258872 
L 132.285483 105.058722 
L 132.454334 104.949293 
L 132.528891 104.794371 
L 132.829314 104.685733 
L 132.938958 104.413611 
L 133.031058 104.303057 
L 133.140702 104.127502 
L 133.199909 104.021937 
L 133.309553 103.838882 
L 133.359989 103.732029 
L 133.469632 103.546498 
L 133.555154 103.440877 
L 133.572697 103.393248 
L 133.756898 103.288805 
L 133.866542 103.11361 
L 133.932328 103.00261 
L 134.041971 102.835399 
L 134.112143 102.732913 
L 134.221787 102.502749 
L 134.280994 102.394093 
L 134.390638 102.200987 
L 134.46081 102.094512 
L 134.570453 101.904398 
L 134.873069 101.795662 
L 134.982713 101.653187 
L 135.055077 101.542134 
L 135.164721 101.363959 
L 135.237086 101.256273 
L 135.346729 101.04394 
L 135.460758 100.936469 
L 135.570402 100.702508 
L 135.642767 100.601705 
L 135.75241 100.428405 
L 135.894947 100.32332 
L 136.00459 100.130761 
L 136.083533 100.028941 
L 136.193177 99.853018 
L 136.250192 99.753306 
L 136.359835 99.571739 
L 136.443164 99.463742 
L 136.552808 99.290346 
L 136.620787 99.179276 
L 136.73043 98.995881 
L 137.151461 98.888414 
L 137.261105 98.702537 
L 137.329084 98.592112 
L 137.438727 98.404292 
L 137.51767 98.296641 
L 137.627314 98.098592 
L 137.717222 97.989557 
L 137.824672 97.83625 
L 137.890458 97.727144 
L 138.000102 97.566545 
L 138.063695 97.456801 
L 138.173339 97.399084 
L 138.21281 97.288869 
L 138.322454 97.096581 
L 138.377275 96.985829 
L 138.486919 96.842144 
L 138.548319 96.731248 
L 138.657963 96.49379 
L 138.708399 96.38321 
L 138.818042 96.167079 
L 138.866285 96.061139 
L 138.899178 95.997619 
L 139.278545 95.88945 
L 139.388188 95.574302 
L 139.475903 95.465989 
L 139.585547 95.256411 
L 139.635983 95.145919 
L 139.743433 94.934831 
L 139.815798 94.839584 
L 139.925442 94.683349 
L 139.980263 94.576938 
L 140.028507 94.454494 
L 140.197358 94.345205 
L 140.307001 94.125364 
L 140.361823 94.026674 
L 140.471466 93.852007 
L 140.559181 93.74927 
L 140.668825 93.5539 
L 140.730225 93.449646 
L 140.839868 93.295238 
L 140.899076 93.18565 
L 140.964862 93.066419 
L 141.243356 92.961257 
L 141.33765 92.788112 
L 141.462643 92.678086 
L 141.572287 92.403239 
L 141.631494 92.294713 
L 141.741138 92.140049 
L 141.828853 92.033289 
L 141.938496 91.795347 
L 141.997704 91.689643 
L 142.096383 91.470878 
L 142.265234 91.363199 
L 142.374877 91.164426 
L 142.445049 91.059836 
L 142.554693 90.876472 
L 142.62925 90.769251 
L 142.738894 90.612841 
L 142.826609 90.50743 
L 142.936252 90.285076 
L 143.002038 90.178821 
L 143.013003 90.130694 
L 143.326583 90.02901 
L 143.414298 89.827763 
L 143.526134 89.72339 
L 143.635778 89.529738 
L 143.697178 89.418713 
L 143.806822 89.159513 
L 143.870415 89.050927 
L 143.980058 88.795393 
L 144.087509 88.686257 
L 144.190574 88.493125 
L 144.326532 88.384141 
L 144.436175 88.177791 
L 144.484418 88.067761 
L 144.594062 87.897619 
L 144.648884 87.787 
L 144.758527 87.586701 
L 144.82212 87.475676 
L 144.903257 87.310542 
L 144.980007 87.203173 
L 144.9822 87.198413 
L 145.346216 87.088682 
L 145.453667 86.920338 
L 145.519453 86.812409 
L 145.629096 86.687078 
L 145.69269 86.578172 
L 145.80014 86.3988 
L 145.892241 86.288098 
L 146.001884 86.066019 
L 146.056706 85.964151 
L 146.16635 85.700421 
L 146.236521 85.599275 
L 146.346165 85.471944 
L 146.425108 85.366213 
L 146.532559 85.184311 
L 146.591766 85.082245 
L 146.70141 84.861924 
L 146.756232 84.751769 
L 146.865875 84.598334 
L 146.914118 84.489848 
L 147.023762 84.269378 
L 147.335149 84.16557 
L 147.444793 83.991089 
L 147.521543 83.883189 
L 147.631187 83.744166 
L 147.703551 83.640441 
L 147.813195 83.404793 
L 147.887753 83.295084 
L 147.997396 83.081935 
L 148.045639 82.975905 
L 148.155283 82.784763 
L 148.205719 82.678675 
L 148.271505 82.53094 
L 148.471056 82.421834 
L 148.580699 82.203843 
L 148.655257 82.095127 
L 148.764901 81.888931 
L 148.830687 81.780721 
L 148.94033 81.507214 
L 148.999538 81.396399 
L 149.017081 81.338134 
L 149.36794 81.227416 
L 149.477583 81.057614 
L 149.532405 80.947498 
L 149.637663 80.739463 
L 149.745113 80.629057 
L 149.854757 80.490605 
L 149.911772 80.380877 
L 150.021415 80.159455 
L 150.095973 80.049318 
L 150.205616 79.840471 
L 150.284559 79.735411 
L 150.39201 79.548728 
L 150.558668 79.440346 
L 150.668312 79.250696 
L 150.720941 79.143199 
L 150.826198 78.944083 
L 150.891984 78.837711 
L 151.001628 78.63879 
L 151.093728 78.532355 
L 151.150743 78.407733 
L 151.455552 78.297097 
L 151.565196 78.073193 
L 151.641946 77.962205 
L 151.751589 77.715506 
L 151.845883 77.609851 
L 151.955526 77.41316 
L 152.036663 77.311612 
L 152.146306 77.116808 
L 152.214285 77.01509 
L 152.323929 76.798116 
L 152.374365 76.696728 
L 152.40945 76.578905 
L 152.573916 76.475341 
L 152.683559 76.353456 
L 152.751538 76.252665 
L 152.861182 76.030806 
L 152.924775 75.919744 
L 153.032226 75.734708 
L 153.098012 75.625496 
L 153.165991 75.477987 
L 153.475185 75.377318 
L 153.584829 75.199362 
L 153.630879 75.095352 
L 153.740523 74.94251 
L 153.795344 74.832138 
L 153.87648 74.67372 
L 153.99051 74.564211 
L 154.100153 74.365055 
L 154.176904 74.254014 
L 154.286547 74.034983 
L 154.33479 73.9312 
L 154.444434 73.765994 
L 154.514606 73.655507 
L 154.54092 73.592416 
L 154.71635 73.48313 
L 154.825993 73.298217 
L 154.891779 73.190115 
L 155.001423 72.978047 
L 155.080366 72.868533 
L 155.19001 72.698549 
L 155.247024 72.588498 
L 155.257989 72.551924 
L 155.562797 72.447657 
L 155.672441 72.266667 
L 155.720684 72.162367 
L 155.830328 71.9335 
L 155.891728 71.823244 
L 156.001371 71.678507 
L 156.104436 71.569353 
L 156.21408 71.30658 
L 156.277673 71.202801 
L 156.385124 70.993697 
L 156.488189 70.883783 
L 156.597832 70.685178 
L 156.792998 70.576925 
L 156.902641 70.324538 
L 156.972813 70.218729 
L 157.082456 70.010814 
L 157.135085 69.901762 
L 157.244729 69.693723 
L 157.632867 69.594523 
L 157.74251 69.405456 
L 157.808296 69.295258 
L 157.915747 69.026638 
L 157.972762 68.925819 
L 158.082405 68.702742 
L 158.172313 68.601273 
L 158.281956 68.390435 
L 158.332392 68.285907 
L 158.442036 68.175087 
L 158.512208 68.066093 
L 158.621851 67.873803 
L 158.687637 67.766781 
L 158.755616 67.630469 
L 158.922274 67.523777 
L 159.031918 67.368222 
L 159.10209 67.257747 
L 159.211733 66.994813 
L 159.266555 66.885648 
L 159.374006 66.683312 
L 159.735829 66.572283 
L 159.845473 66.384863 
L 159.893716 66.275811 
L 160.003359 66.084889 
L 160.053795 65.974571 
L 160.163439 65.779907 
L 160.246768 65.678395 
L 160.325711 65.572298 
L 160.42439 65.463133 
L 160.534034 65.303374 
L 160.612977 65.192822 
L 160.722621 65.019163 
L 160.781828 64.922656 
L 160.889279 64.677275 
L 161.040587 64.570526 
L 161.15023 64.347501 
L 161.213823 64.246858 
L 161.323467 64.151239 
L 161.408989 64.043373 
L 161.518632 63.850299 
L 161.83002 63.744542 
L 161.939663 63.524773 
L 162.009835 63.418417 
L 162.119479 63.187184 
L 162.174301 63.076212 
L 162.283944 62.895817 
L 162.36508 62.786885 
L 162.474724 62.596317 
L 162.579981 62.486587 
L 162.689625 62.286363 
L 162.748832 62.175268 
L 162.858476 61.941122 
L 162.926455 61.830046 
L 163.036098 61.668575 
L 163.172056 61.558113 
L 163.2817 61.320917 
L 163.365029 61.214709 
L 163.474672 61.043519 
L 163.529494 60.932529 
L 163.568966 60.83702 
L 163.946139 60.730497 
L 164.055783 60.544228 
L 164.130341 60.439303 
L 164.239984 60.251394 
L 164.281649 60.141465 
L 164.391292 60.020403 
L 164.454885 59.911491 
L 164.562336 59.720869 
L 164.606193 59.61137 
L 164.715837 59.486366 
L 164.772851 59.381773 
L 164.882495 59.193419 
L 164.968017 59.082683 
L 165.07766 58.889638 
L 165.165375 58.778767 
L 165.209233 58.68722 
L 165.437291 58.582307 
L 165.544742 58.357948 
L 165.649999 58.249372 
L 165.759643 58.105966 
L 165.823236 57.997169 
L 165.875865 57.894222 
L 166.217953 57.7846 
L 166.327596 57.568283 
L 166.399961 57.45936 
L 166.505219 57.243892 
L 166.566619 57.134004 
L 166.676263 56.944445 
L 166.763977 56.835308 
L 166.873621 56.561774 
L 166.950371 56.45215 
L 167.060015 56.235816 
L 167.125801 56.128486 
L 167.195973 55.98602 
L 167.296845 55.891505 
L 167.397717 55.705568 
L 167.557796 55.598333 
L 167.665247 55.403166 
L 167.717876 55.295011 
L 167.827519 55.14396 
L 167.893305 55.034868 
L 167.924006 54.96186 
L 168.290215 54.850809 
L 168.399858 54.670514 
L 168.445909 54.560819 
L 168.555552 54.370806 
L 168.590638 54.265988 
L 168.700282 54.077235 
L 168.787996 53.967027 
L 168.89764 53.774731 
L 168.950269 53.665025 
L 169.059912 53.472282 
L 169.154206 53.369118 
L 169.263849 53.187399 
L 169.316478 53.079661 
L 169.426122 52.911098 
L 169.537958 52.800377 
L 169.568658 52.731671 
L 169.772595 52.621492 
L 169.882239 52.455314 
L 169.965568 52.346178 
L 170.075211 52.164715 
L 170.14319 52.060762 
L 170.145383 52.040467 
L 170.498435 51.935464 
L 170.608078 51.858852 
L 170.665093 51.747967 
L 170.774737 51.586563 
L 170.873416 51.485372 
L 170.983059 51.24798 
L 171.051038 51.139961 
L 171.160682 50.935387 
L 171.230854 50.825971 
L 171.340497 50.640678 
L 171.410669 50.53869 
L 171.474262 50.41708 
L 171.586098 50.309151 
L 171.695742 50.11044 
L 171.772492 50.001164 
L 171.882136 49.758804 
L 172.059758 49.649799 
L 172.169402 49.439745 
L 172.228609 49.334685 
L 172.338253 49.134923 
L 172.669376 49.023911 
L 172.77902 48.822754 
L 172.84042 48.712078 
L 172.950064 48.553649 
L 173.007078 48.450437 
L 173.116722 48.232633 
L 173.180315 48.122724 
L 173.289958 47.959056 
L 173.366709 47.855467 
L 173.476352 47.769571 
L 173.539946 47.670285 
L 173.649589 47.490774 
L 173.754847 47.380747 
L 173.862298 47.166463 
L 173.921505 47.057128 
L 174.028956 46.891451 
L 174.10132 46.787497 
L 174.107899 46.76688 
L 174.294293 46.65882 
L 174.403936 46.501189 
L 174.45218 46.394222 
L 174.55963 46.169657 
L 174.923647 46.065461 
L 175.03329 45.88968 
L 175.092498 45.786798 
L 175.202141 45.5894 
L 175.278892 45.482963 
L 175.388535 45.319424 
L 175.432392 45.212291 
L 175.542036 45.03525 
L 175.629751 44.928838 
L 175.739394 44.809225 
L 175.792023 44.698726 
L 175.901667 44.468488 
L 175.978417 44.365492 
L 176.085868 44.228472 
L 176.195511 44.117819 
L 176.302962 43.964886 
L 176.370941 43.856875 
L 176.406027 43.784409 
L 176.640664 43.674986 
L 176.750307 43.505457 
L 176.822672 43.400192 
L 176.92793 43.241534 
L 177.285368 43.13943 
L 177.38624 42.978077 
L 177.469569 42.877553 
L 177.579212 42.659236 
L 177.658155 42.557016 
L 177.767799 42.354091 
L 177.835778 42.245053 
L 177.943229 42.066274 
L 178.026558 41.959845 
L 178.136201 41.767028 
L 178.206373 41.658542 
L 178.316016 41.50654 
L 178.414696 41.400461 
L 178.524339 41.285497 
L 178.592318 41.17545 
L 178.701962 40.982857 
L 178.756783 40.876743 
L 178.802834 40.806301 
L 179.059399 40.699861 
L 179.169043 40.501763 
L 179.237022 40.391203 
L 179.274301 40.309631 
L 179.660246 40.204625 
L 179.763311 40.030552 
L 179.840061 39.920446 
L 179.949705 39.775784 
L 180.015491 39.665955 
L 180.125134 39.57342 
L 180.197499 39.463764 
L 180.307142 39.236846 
L 180.368543 39.130931 
L 180.475993 38.98976 
L 180.54178 38.882987 
L 180.651423 38.753455 
L 180.715016 38.643326 
L 180.82466 38.415086 
L 180.897024 38.309227 
L 181.006668 38.216435 
L 181.09219 38.107267 
L 181.201833 37.99785 
L 181.28297 37.891595 
L 181.32902 37.826157 
L 181.554885 37.720574 
L 181.664529 37.555738 
L 181.739087 37.459413 
L 181.776365 37.375985 
L 182.171082 37.266404 
L 182.280725 37.128764 
L 182.35309 37.018939 
L 182.462734 36.822174 
L 182.524134 36.713478 
L 182.633777 36.510959 
L 182.708335 36.407593 
L 182.817979 36.235549 
L 182.923236 36.12662 
L 183.03288 35.918106 
L 183.131559 35.80999 
L 183.241202 35.59013 
L 183.381546 35.480132 
L 183.49119 35.340681 
L 183.59864 35.235115 
L 183.708284 35.091869 
L 183.785034 34.983567 
L 183.870556 34.850465 
L 184.105193 34.741291 
L 184.214837 34.585951 
L 184.300359 34.475253 
L 184.311323 34.445609 
L 184.793754 34.334802 
L 184.872698 34.226077 
L 184.975763 34.115959 
L 185.085406 33.947799 
L 185.168735 33.839898 
L 185.278379 33.70868 
L 185.339779 33.598979 
L 185.449423 33.436604 
L 185.499859 33.329239 
L 185.607309 33.16241 
L 185.703795 33.052941 
L 185.813439 32.894512 
L 185.883611 32.790188 
L 185.993254 32.577877 
L 186.052462 32.471389 
L 186.162105 32.286155 
L 186.269556 32.17516 
L 186.379199 32.050255 
L 186.504193 31.942715 
L 186.5634 31.866251 
L 186.837509 31.756352 
L 186.947153 31.583534 
L 187.368184 31.477396 
L 187.477827 31.370328 
L 187.598435 31.26199 
L 187.708079 31.128453 
L 187.795793 31.017571 
L 187.905437 30.906918 
L 188.008502 30.804029 
L 188.118145 30.607247 
L 188.203667 30.496184 
L 188.313311 30.314379 
L 188.39664 30.207793 
L 188.506283 30.004282 
L 188.576455 29.89615 
L 188.683906 29.708683 
L 188.751885 29.599422 
L 188.861528 29.406276 
L 188.966786 29.296767 
L 189.025993 29.194745 
L 189.179494 29.086011 
L 189.286945 28.944717 
L 189.567632 28.833851 
L 189.677276 28.657402 
L 190.122428 28.546662 
L 190.232072 28.422459 
L 190.302244 28.311502 
L 190.411887 28.154736 
L 190.493023 28.051746 
L 190.602667 27.925878 
L 190.683803 27.816859 
L 190.793447 27.657314 
L 190.894319 27.54926 
L 191.003962 27.377492 
L 191.13992 27.270357 
L 191.249564 27.143936 
L 191.31535 27.037188 
L 191.424993 26.896186 
L 191.508322 26.787082 
L 191.617966 26.630344 
L 191.688138 26.52345 
L 191.797781 26.36751 
L 191.872339 26.258084 
L 191.957861 26.161104 
L 192.111362 26.052971 
L 192.218812 25.903073 
L 192.479764 25.793239 
L 192.567479 25.655842 
L 193.27139 25.545362 
L 193.381033 25.432632 
L 193.455591 25.326695 
L 193.565234 25.173234 
L 193.668299 25.062276 
L 193.777943 24.904329 
L 193.863465 24.801256 
L 193.970915 24.648991 
L 194.087137 24.542574 
L 194.196781 24.350215 
L 194.304232 24.239736 
L 194.413875 24.117125 
L 194.510361 24.006186 
L 194.620005 23.884582 
L 194.712105 23.78137 
L 194.821749 23.619849 
L 194.920428 23.51034 
L 195.030071 23.360257 
L 195.260323 23.250618 
L 195.369966 23.155484 
L 195.505924 23.044838 
L 195.615568 22.934664 
L 196.003706 22.825425 
L 196.067299 22.7223 
L 196.782175 22.619255 
L 196.891818 22.469425 
L 197.005847 22.359475 
L 197.111105 22.223307 
L 197.21417 22.114715 
L 197.304078 21.989879 
L 197.446614 21.881547 
L 197.556258 21.754199 
L 197.650551 21.645335 
L 197.760195 21.486395 
L 197.836945 21.378283 
L 197.856681 21.343877 
L 198.056232 21.237909 
L 198.165876 21.099118 
L 198.247012 20.990107 
L 198.356655 20.904773 
L 198.457527 20.79611 
L 198.567171 20.697942 
L 198.689972 20.587675 
L 198.797422 20.476794 
L 198.891716 20.368379 
L 199.001359 20.203325 
L 199.178982 20.094601 
L 199.288625 19.978507 
L 199.935522 19.875449 
L 200.014465 19.793225 
L 200.988099 19.683796 
L 201.097743 19.588237 
L 201.222736 19.484359 
L 201.288522 19.375793 
L 201.474916 19.267471 
L 201.560438 19.181867 
L 201.89814 19.078278 
L 202.007784 18.965062 
L 202.145935 18.857317 
L 202.255578 18.720146 
L 202.424429 18.614314 
L 202.527494 18.488179 
L 202.599859 18.379123 
L 202.707309 18.281345 
L 202.823531 18.170861 
L 202.933175 18.084305 
L 203.038433 17.975839 
L 203.148076 17.858095 
L 203.30377 17.748488 
L 203.413413 17.661401 
L 203.621736 17.550558 
L 203.729187 17.435422 
L 203.803744 17.325873 
L 203.913388 17.206092 
L 204.040574 17.095223 
L 204.064696 17.063374 
L 204.908951 16.953344 
L 204.963773 16.862315 
L 206.270723 16.753288 
L 206.373788 16.677618 
L 206.511939 16.566586 
L 206.621582 16.452356 
L 206.761926 16.351614 
L 206.867184 16.242277 
L 206.998756 16.13249 
L 207.106207 16.023335 
L 207.209271 15.916149 
L 207.318915 15.793447 
L 207.426366 15.682778 
L 207.52943 15.558714 
L 207.632495 15.4481 
L 207.742139 15.358431 
L 207.860554 15.247608 
L 207.948269 15.189156 
L 208.316671 15.079424 
L 208.426314 14.995541 
L 208.542536 14.889176 
L 208.65218 14.786927 
L 208.810066 14.676304 
L 208.91971 14.631718 
L 209.035932 14.52235 
L 209.143383 14.417973 
L 209.560028 14.309972 
L 209.621428 14.259086 
L 209.908694 14.148799 
L 210.011759 14.085712 
L 212.487509 13.975943 
L 212.511631 13.933381 
L 215.169389 13.822589 
L 215.279033 13.769942 
L 215.45227 13.670361 
L 215.557527 13.578795 
L 215.759271 13.469138 
L 215.868915 13.380928 
L 216.077238 13.270601 
L 216.175917 13.221355 
L 216.342575 13.114617 
L 216.441254 13.036114 
L 216.623262 12.929408 
L 216.732906 12.824452 
L 216.923685 12.722184 
L 217.017979 12.626534 
L 217.153937 12.517486 
L 217.26358 12.411517 
L 217.441203 12.300462 
L 217.548653 12.239822 
L 217.735047 12.128805 
L 217.844691 12.035509 
L 218.074942 11.93262 
L 218.1802 11.844238 
L 218.340279 11.739956 
L 218.449923 11.671095 
L 218.588074 11.569402 
L 218.697717 11.491744 
L 218.930161 11.380714 
L 219.039805 11.285614 
L 219.285406 11.177188 
L 219.392857 11.128507 
L 219.618723 11.023125 
L 219.625301 2.210985 
L 219.625301 2.210985 
" clip-path="url(#p1fad5db5f0)" style="fill: none; stroke-dasharray: 7.5,1.5; stroke-dashoffset: 0; stroke: #ac7726; stroke-width: 1.5"/>
   </g>
   <g id="patch_3">
    <path d="M 43.78125 186.84327 
L 43.78125 10.999219 
" style="fill: none; stroke: #000000; stroke-width: 0.8; stroke-linejoin: miter; stroke-linecap: square"/>
   </g>
   <g id="patch_4">
    <path d="M 219.625301 186.84327 
L 219.625301 10.999219 
" style="fill: none; stroke: #000000; stroke-width: 0.8; stroke-linejoin: miter; stroke-linecap: square"/>
   </g>
   <g id="patch_5">
    <path d="M 43.78125 186.84327 
L 219.625301 186.84327 
" style="fill: none; stroke: #000000; stroke-width: 0.8; stroke-linejoin: miter; stroke-linecap: square"/>
   </g>
   <g id="patch_6">
    <path d="M 43.78125 10.999219 
L 219.625301 10.999219 
" style="fill: none; stroke: #000000; stroke-width: 0.8; stroke-linejoin: miter; stroke-linecap: square"/>
   </g>
   <g id="legend_1">
    <g id="patch_7">
     <path d="M 50.78125 48.355469 
L 127.757812 48.355469 
Q 129.757812 48.355469 129.757812 46.355469 
L 129.757812 17.999219 
Q 129.757812 15.999219 127.757812 15.999219 
L 50.78125 15.999219 
Q 48.78125 15.999219 48.78125 17.999219 
L 48.78125 46.355469 
Q 48.78125 48.355469 50.78125 48.355469 
z
" style="fill: #ffffff; opacity: 0.8; stroke: #cccccc; stroke-linejoin: miter"/>
    </g>
    <g id="line2d_15">
     <path d="M 52.78125 24.097656 
L 62.78125 24.097656 
L 62.78125 24.097656 
L 72.78125 24.097656 
L 72.78125 24.097656 
" style="fill: none; stroke: #67c7d5; stroke-width: 1.5; stroke-linecap: square"/>
    </g>
    <g id="text_15">
     <!-- ATL09 -->
     <g transform="translate(80.78125 27.597656) scale(0.1 -0.1)">
      <defs>
       <path id="DejaVuSans-41" d="M 2188 4044 
L 1331 1722 
L 3047 1722 
L 2188 4044 
z
M 1831 4666 
L 2547 4666 
L 4325 0 
L 3669 0 
L 3244 1197 
L 1141 1197 
L 716 0 
L 50 0 
L 1831 4666 
z
" transform="scale(0.015625)"/>
       <path id="DejaVuSans-54" d="M -19 4666 
L 3928 4666 
L 3928 4134 
L 2272 4134 
L 2272 0 
L 1638 0 
L 1638 4134 
L -19 4134 
L -19 4666 
z
" transform="scale(0.015625)"/>
       <path id="DejaVuSans-4c" d="M 628 4666 
L 1259 4666 
L 1259 531 
L 3531 531 
L 3531 0 
L 628 0 
L 628 4666 
z
" transform="scale(0.015625)"/>
       <path id="DejaVuSans-39" d="M 703 97 
L 703 672 
Q 941 559 1184 500 
Q 1428 441 1663 441 
Q 2288 441 2617 861 
Q 2947 1281 2994 2138 
Q 2813 1869 2534 1725 
Q 2256 1581 1919 1581 
Q 1219 1581 811 2004 
Q 403 2428 403 3163 
Q 403 3881 828 4315 
Q 1253 4750 1959 4750 
Q 2769 4750 3195 4129 
Q 3622 3509 3622 2328 
Q 3622 1225 3098 567 
Q 2575 -91 1691 -91 
Q 1453 -91 1209 -44 
Q 966 3 703 97 
z
M 1959 2075 
Q 2384 2075 2632 2365 
Q 2881 2656 2881 3163 
Q 2881 3666 2632 3958 
Q 2384 4250 1959 4250 
Q 1534 4250 1286 3958 
Q 1038 3666 1038 3163 
Q 1038 2656 1286 2365 
Q 1534 2075 1959 2075 
z
" transform="scale(0.015625)"/>
      </defs>
      <use xlink:href="#DejaVuSans-41"/>
      <use xlink:href="#DejaVuSans-54" transform="translate(60.658203 0)"/>
      <use xlink:href="#DejaVuSans-4c" transform="translate(121.742188 0)"/>
      <use xlink:href="#DejaVuSans-30" transform="translate(177.455078 0)"/>
      <use xlink:href="#DejaVuSans-39" transform="translate(241.078125 0)"/>
     </g>
    </g>
    <g id="line2d_16">
     <path d="M 52.78125 38.775781 
L 62.78125 38.775781 
L 62.78125 38.775781 
L 72.78125 38.775781 
L 72.78125 38.775781 
" style="fill: none; stroke-dasharray: 7.5,1.5; stroke-dashoffset: 0; stroke: #ac7726; stroke-width: 1.5"/>
    </g>
    <g id="text_16">
     <!-- Cloudnet -->
     <g transform="translate(80.78125 42.275781) scale(0.1 -0.1)">
      <defs>
       <path id="DejaVuSans-6c" d="M 603 4863 
L 1178 4863 
L 1178 0 
L 603 0 
L 603 4863 
z
" transform="scale(0.015625)"/>
       <path id="DejaVuSans-6f" d="M 1959 3097 
Q 1497 3097 1228 2736 
Q 959 2375 959 1747 
Q 959 1119 1226 758 
Q 1494 397 1959 397 
Q 2419 397 2687 759 
Q 2956 1122 2956 1747 
Q 2956 2369 2687 2733 
Q 2419 3097 1959 3097 
z
M 1959 3584 
Q 2709 3584 3137 3096 
Q 3566 2609 3566 1747 
Q 3566 888 3137 398 
Q 2709 -91 1959 -91 
Q 1206 -91 779 398 
Q 353 888 353 1747 
Q 353 2609 779 3096 
Q 1206 3584 1959 3584 
z
" transform="scale(0.015625)"/>
       <path id="DejaVuSans-75" d="M 544 1381 
L 544 3500 
L 1119 3500 
L 1119 1403 
Q 1119 906 1312 657 
Q 1506 409 1894 409 
Q 2359 409 2629 706 
Q 2900 1003 2900 1516 
L 2900 3500 
L 3475 3500 
L 3475 0 
L 2900 0 
L 2900 538 
Q 2691 219 2414 64 
Q 2138 -91 1772 -91 
Q 1169 -91 856 284 
Q 544 659 544 1381 
z
M 1991 3584 
L 1991 3584 
z
" transform="scale(0.015625)"/>
       <path id="DejaVuSans-64" d="M 2906 2969 
L 2906 4863 
L 3481 4863 
L 3481 0 
L 2906 0 
L 2906 525 
Q 2725 213 2448 61 
Q 2172 -91 1784 -91 
Q 1150 -91 751 415 
Q 353 922 353 1747 
Q 353 2572 751 3078 
Q 1150 3584 1784 3584 
Q 2172 3584 2448 3432 
Q 2725 3281 2906 2969 
z
M 947 1747 
Q 947 1113 1208 752 
Q 1469 391 1925 391 
Q 2381 391 2643 752 
Q 2906 1113 2906 1747 
Q 2906 2381 2643 2742 
Q 2381 3103 1925 3103 
Q 1469 3103 1208 2742 
Q 947 2381 947 1747 
z
" transform="scale(0.015625)"/>
       <path id="DejaVuSans-6e" d="M 3513 2113 
L 3513 0 
L 2938 0 
L 2938 2094 
Q 2938 2591 2744 2837 
Q 2550 3084 2163 3084 
Q 1697 3084 1428 2787 
Q 1159 2491 1159 1978 
L 1159 0 
L 581 0 
L 581 3500 
L 1159 3500 
L 1159 2956 
Q 1366 3272 1645 3428 
Q 1925 3584 2291 3584 
Q 2894 3584 3203 3211 
Q 3513 2838 3513 2113 
z
" transform="scale(0.015625)"/>
       <path id="DejaVuSans-65" d="M 3597 1894 
L 3597 1613 
L 953 1613 
Q 991 1019 1311 708 
Q 1631 397 2203 397 
Q 2534 397 2845 478 
Q 3156 559 3463 722 
L 3463 178 
Q 3153 47 2828 -22 
Q 2503 -91 2169 -91 
Q 1331 -91 842 396 
Q 353 884 353 1716 
Q 353 2575 817 3079 
Q 1281 3584 2069 3584 
Q 2775 3584 3186 3129 
Q 3597 2675 3597 1894 
z
M 3022 2063 
Q 3016 2534 2758 2815 
Q 2500 3097 2075 3097 
Q 1594 3097 1305 2825 
Q 1016 2553 972 2059 
L 3022 2063 
z
" transform="scale(0.015625)"/>
       <path id="DejaVuSans-74" d="M 1172 4494 
L 1172 3500 
L 2356 3500 
L 2356 3053 
L 1172 3053 
L 1172 1153 
Q 1172 725 1289 603 
Q 1406 481 1766 481 
L 2356 481 
L 2356 0 
L 1766 0 
Q 1100 0 847 248 
Q 594 497 594 1153 
L 594 3053 
L 172 3053 
L 172 3500 
L 594 3500 
L 594 4494 
L 1172 4494 
z
" transform="scale(0.015625)"/>
      </defs>
      <use xlink:href="#DejaVuSans-43"/>
      <use xlink:href="#DejaVuSans-6c" transform="translate(69.824219 0)"/>
      <use xlink:href="#DejaVuSans-6f" transform="translate(97.607422 0)"/>
      <use xlink:href="#DejaVuSans-75" transform="translate(158.789062 0)"/>
      <use xlink:href="#DejaVuSans-64" transform="translate(222.167969 0)"/>
      <use xlink:href="#DejaVuSans-6e" transform="translate(285.644531 0)"/>
      <use xlink:href="#DejaVuSans-65" transform="translate(349.023438 0)"/>
      <use xlink:href="#DejaVuSans-74" transform="translate(410.546875 0)"/>
     </g>
    </g>
   </g>
  </g>
 </g>
 <defs>
  <clipPath id="p1fad5db5f0">
   <rect x="43.78125" y="10.999219" width="175.844051" height="175.844051"/>
  </clipPath>
 </defs>
</svg>
