<?xml version="1.0" encoding="utf-8" standalone="no"?>
<!DOCTYPE svg PUBLIC "-//W3C//DTD SVG 1.1//EN"
  "http://www.w3.org/Graphics/SVG/1.1/DTD/svg11.dtd">
<svg xmlns:xlink="http://www.w3.org/1999/xlink" width="234.776864pt" height="224.39952pt" viewBox="0 0 234.776864 224.39952" xmlns="http://www.w3.org/2000/svg" version="1.1">
 <metadata>
  <rdf:RDF xmlns:dc="http://purl.org/dc/elements/1.1/" xmlns:cc="http://creativecommons.org/ns#" xmlns:rdf="http://www.w3.org/1999/02/22-rdf-syntax-ns#">
   <cc:Work>
    <dc:type rdf:resource="http://purl.org/dc/dcmitype/StillImage"/>
    <dc:date>2025-12-01T16:33:38.065062</dc:date>
    <dc:format>image/svg+xml</dc:format>
    <dc:creator>
     <cc:Agent>
      <dc:title>Matplotlib v3.10.0, https://matplotlib.org/</dc:title>
     </cc:Agent>
    </dc:creator>
   </cc:Work>
  </rdf:RDF>
 </metadata>
 <defs>
  <style type="text/css">*{stroke-linejoin: round; stroke-linecap: butt}</style>
 </defs>
 <g id="figure_1">
  <g id="patch_1">
   <path d="M 0 224.39952 
L 234.776864 224.39952 
L 234.776864 0 
L 0 0 
L 0 224.39952 
z
" style="fill: none"/>
  </g>
  <g id="axes_1">
   <g id="patch_2">
    <path d="M 43.78125 186.84327 
L 219.625301 186.84327 
L 219.625301 10.999219 
L 43.78125 10.999219 
L 43.78125 186.84327 
z
" style="fill: none"/>
   </g>
   <g id="matplotlib.axis_1">
    <g id="xtick_1">
     <g id="line2d_1">
      <defs>
       <path id="m431deaeb50" d="M 0 0 
L 0 3.5 
" style="stroke: #000000; stroke-width: 0.8"/>
      </defs>
      <g>
       <use xlink:href="#m431deaeb50" x="43.78125" y="186.84327" style="stroke: #000000; stroke-width: 0.8"/>
      </g>
     </g>
     <g id="text_1">
      <!-- 0.0 -->
      <g transform="translate(35.829688 201.441708) scale(0.1 -0.1)">
       <defs>
        <path id="DejaVuSans-30" d="M 2034 4250 
Q 1547 4250 1301 3770 
Q 1056 3291 1056 2328 
Q 1056 1369 1301 889 
Q 1547 409 2034 409 
Q 2525 409 2770 889 
Q 3016 1369 3016 2328 
Q 3016 3291 2770 3770 
Q 2525 4250 2034 4250 
z
M 2034 4750 
Q 2819 4750 3233 4129 
Q 3647 3509 3647 2328 
Q 3647 1150 3233 529 
Q 2819 -91 2034 -91 
Q 1250 -91 836 529 
Q 422 1150 422 2328 
Q 422 3509 836 4129 
Q 1250 4750 2034 4750 
z
" transform="scale(0.015625)"/>
        <path id="DejaVuSans-2e" d="M 684 794 
L 1344 794 
L 1344 0 
L 684 0 
L 684 794 
z
" transform="scale(0.015625)"/>
       </defs>
       <use xlink:href="#DejaVuSans-30"/>
       <use xlink:href="#DejaVuSans-2e" transform="translate(63.623047 0)"/>
       <use xlink:href="#DejaVuSans-30" transform="translate(95.410156 0)"/>
      </g>
     </g>
    </g>
    <g id="xtick_2">
     <g id="line2d_2">
      <g>
       <use xlink:href="#m431deaeb50" x="78.95006" y="186.84327" style="stroke: #000000; stroke-width: 0.8"/>
      </g>
     </g>
     <g id="text_2">
      <!-- 0.2 -->
      <g transform="translate(70.998498 201.441708) scale(0.1 -0.1)">
       <defs>
        <path id="DejaVuSans-32" d="M 1228 531 
L 3431 531 
L 3431 0 
L 469 0 
L 469 531 
Q 828 903 1448 1529 
Q 2069 2156 2228 2338 
Q 2531 2678 2651 2914 
Q 2772 3150 2772 3378 
Q 2772 3750 2511 3984 
Q 2250 4219 1831 4219 
Q 1534 4219 1204 4116 
Q 875 4013 500 3803 
L 500 4441 
Q 881 4594 1212 4672 
Q 1544 4750 1819 4750 
Q 2544 4750 2975 4387 
Q 3406 4025 3406 3419 
Q 3406 3131 3298 2873 
Q 3191 2616 2906 2266 
Q 2828 2175 2409 1742 
Q 1991 1309 1228 531 
z
" transform="scale(0.015625)"/>
       </defs>
       <use xlink:href="#DejaVuSans-30"/>
       <use xlink:href="#DejaVuSans-2e" transform="translate(63.623047 0)"/>
       <use xlink:href="#DejaVuSans-32" transform="translate(95.410156 0)"/>
      </g>
     </g>
    </g>
    <g id="xtick_3">
     <g id="line2d_3">
      <g>
       <use xlink:href="#m431deaeb50" x="114.118871" y="186.84327" style="stroke: #000000; stroke-width: 0.8"/>
      </g>
     </g>
     <g id="text_3">
      <!-- 0.4 -->
      <g transform="translate(106.167308 201.441708) scale(0.1 -0.1)">
       <defs>
        <path id="DejaVuSans-34" d="M 2419 4116 
L 825 1625 
L 2419 1625 
L 2419 4116 
z
M 2253 4666 
L 3047 4666 
L 3047 1625 
L 3713 1625 
L 3713 1100 
L 3047 1100 
L 3047 0 
L 2419 0 
L 2419 1100 
L 313 1100 
L 313 1709 
L 2253 4666 
z
" transform="scale(0.015625)"/>
       </defs>
       <use xlink:href="#DejaVuSans-30"/>
       <use xlink:href="#DejaVuSans-2e" transform="translate(63.623047 0)"/>
       <use xlink:href="#DejaVuSans-34" transform="translate(95.410156 0)"/>
      </g>
     </g>
    </g>
    <g id="xtick_4">
     <g id="line2d_4">
      <g>
       <use xlink:href="#m431deaeb50" x="149.287681" y="186.84327" style="stroke: #000000; stroke-width: 0.8"/>
      </g>
     </g>
     <g id="text_4">
      <!-- 0.6 -->
      <g transform="translate(141.336118 201.441708) scale(0.1 -0.1)">
       <defs>
        <path id="DejaVuSans-36" d="M 2113 2584 
Q 1688 2584 1439 2293 
Q 1191 2003 1191 1497 
Q 1191 994 1439 701 
Q 1688 409 2113 409 
Q 2538 409 2786 701 
Q 3034 994 3034 1497 
Q 3034 2003 2786 2293 
Q 2538 2584 2113 2584 
z
M 3366 4563 
L 3366 3988 
Q 3128 4100 2886 4159 
Q 2644 4219 2406 4219 
Q 1781 4219 1451 3797 
Q 1122 3375 1075 2522 
Q 1259 2794 1537 2939 
Q 1816 3084 2150 3084 
Q 2853 3084 3261 2657 
Q 3669 2231 3669 1497 
Q 3669 778 3244 343 
Q 2819 -91 2113 -91 
Q 1303 -91 875 529 
Q 447 1150 447 2328 
Q 447 3434 972 4092 
Q 1497 4750 2381 4750 
Q 2619 4750 2861 4703 
Q 3103 4656 3366 4563 
z
" transform="scale(0.015625)"/>
       </defs>
       <use xlink:href="#DejaVuSans-30"/>
       <use xlink:href="#DejaVuSans-2e" transform="translate(63.623047 0)"/>
       <use xlink:href="#DejaVuSans-36" transform="translate(95.410156 0)"/>
      </g>
     </g>
    </g>
    <g id="xtick_5">
     <g id="line2d_5">
      <g>
       <use xlink:href="#m431deaeb50" x="184.456491" y="186.84327" style="stroke: #000000; stroke-width: 0.8"/>
      </g>
     </g>
     <g id="text_5">
      <!-- 0.8 -->
      <g transform="translate(176.504929 201.441708) scale(0.1 -0.1)">
       <defs>
        <path id="DejaVuSans-38" d="M 2034 2216 
Q 1584 2216 1326 1975 
Q 1069 1734 1069 1313 
Q 1069 891 1326 650 
Q 1584 409 2034 409 
Q 2484 409 2743 651 
Q 3003 894 3003 1313 
Q 3003 1734 2745 1975 
Q 2488 2216 2034 2216 
z
M 1403 2484 
Q 997 2584 770 2862 
Q 544 3141 544 3541 
Q 544 4100 942 4425 
Q 1341 4750 2034 4750 
Q 2731 4750 3128 4425 
Q 3525 4100 3525 3541 
Q 3525 3141 3298 2862 
Q 3072 2584 2669 2484 
Q 3125 2378 3379 2068 
Q 3634 1759 3634 1313 
Q 3634 634 3220 271 
Q 2806 -91 2034 -91 
Q 1263 -91 848 271 
Q 434 634 434 1313 
Q 434 1759 690 2068 
Q 947 2378 1403 2484 
z
M 1172 3481 
Q 1172 3119 1398 2916 
Q 1625 2713 2034 2713 
Q 2441 2713 2670 2916 
Q 2900 3119 2900 3481 
Q 2900 3844 2670 4047 
Q 2441 4250 2034 4250 
Q 1625 4250 1398 4047 
Q 1172 3844 1172 3481 
z
" transform="scale(0.015625)"/>
       </defs>
       <use xlink:href="#DejaVuSans-30"/>
       <use xlink:href="#DejaVuSans-2e" transform="translate(63.623047 0)"/>
       <use xlink:href="#DejaVuSans-38" transform="translate(95.410156 0)"/>
      </g>
     </g>
    </g>
    <g id="xtick_6">
     <g id="line2d_6">
      <g>
       <use xlink:href="#m431deaeb50" x="219.625301" y="186.84327" style="stroke: #000000; stroke-width: 0.8"/>
      </g>
     </g>
     <g id="text_6">
      <!-- 1.0 -->
      <g transform="translate(211.673739 201.441708) scale(0.1 -0.1)">
       <defs>
        <path id="DejaVuSans-31" d="M 794 531 
L 1825 531 
L 1825 4091 
L 703 3866 
L 703 4441 
L 1819 4666 
L 2450 4666 
L 2450 531 
L 3481 531 
L 3481 0 
L 794 0 
L 794 531 
z
" transform="scale(0.015625)"/>
       </defs>
       <use xlink:href="#DejaVuSans-31"/>
       <use xlink:href="#DejaVuSans-2e" transform="translate(63.623047 0)"/>
       <use xlink:href="#DejaVuSans-30" transform="translate(95.410156 0)"/>
      </g>
     </g>
    </g>
    <g id="text_7">
     <!-- $u$, $v$ -->
     <g transform="translate(122.353276 215.119833) scale(0.1 -0.1)">
      <defs>
       <path id="DejaVuSans-Oblique-75" d="M 428 1388 
L 838 3500 
L 1416 3500 
L 1006 1409 
Q 975 1256 961 1147 
Q 947 1038 947 966 
Q 947 700 1109 554 
Q 1272 409 1569 409 
Q 2031 409 2368 721 
Q 2706 1034 2809 1563 
L 3194 3500 
L 3769 3500 
L 3091 0 
L 2516 0 
L 2631 550 
Q 2388 244 2052 76 
Q 1716 -91 1338 -91 
Q 878 -91 622 161 
Q 366 413 366 863 
Q 366 956 381 1097 
Q 397 1238 428 1388 
z
" transform="scale(0.015625)"/>
       <path id="DejaVuSans-2c" d="M 750 794 
L 1409 794 
L 1409 256 
L 897 -744 
L 494 -744 
L 750 256 
L 750 794 
z
" transform="scale(0.015625)"/>
       <path id="DejaVuSans-20" transform="scale(0.015625)"/>
       <path id="DejaVuSans-Oblique-76" d="M 459 3500 
L 1069 3500 
L 1581 525 
L 3256 3500 
L 3866 3500 
L 1875 0 
L 1100 0 
L 459 3500 
z
" transform="scale(0.015625)"/>
      </defs>
      <use xlink:href="#DejaVuSans-Oblique-75" transform="translate(0 0.3125)"/>
      <use xlink:href="#DejaVuSans-2c" transform="translate(63.378906 0.3125)"/>
      <use xlink:href="#DejaVuSans-20" transform="translate(95.166016 0.3125)"/>
      <use xlink:href="#DejaVuSans-Oblique-76" transform="translate(126.953125 0.3125)"/>
     </g>
    </g>
   </g>
   <g id="matplotlib.axis_2">
    <g id="ytick_1">
     <g id="line2d_7">
      <defs>
       <path id="mc79b25e92e" d="M 0 0 
L -3.5 0 
" style="stroke: #000000; stroke-width: 0.8"/>
      </defs>
      <g>
       <use xlink:href="#mc79b25e92e" x="43.78125" y="186.84327" style="stroke: #000000; stroke-width: 0.8"/>
      </g>
     </g>
     <g id="text_8">
      <!-- 0.0 -->
      <g transform="translate(20.878125 190.642489) scale(0.1 -0.1)">
       <use xlink:href="#DejaVuSans-30"/>
       <use xlink:href="#DejaVuSans-2e" transform="translate(63.623047 0)"/>
       <use xlink:href="#DejaVuSans-30" transform="translate(95.410156 0)"/>
      </g>
     </g>
    </g>
    <g id="ytick_2">
     <g id="line2d_8">
      <g>
       <use xlink:href="#mc79b25e92e" x="43.78125" y="151.67446" style="stroke: #000000; stroke-width: 0.8"/>
      </g>
     </g>
     <g id="text_9">
      <!-- 0.2 -->
      <g transform="translate(20.878125 155.473679) scale(0.1 -0.1)">
       <use xlink:href="#DejaVuSans-30"/>
       <use xlink:href="#DejaVuSans-2e" transform="translate(63.623047 0)"/>
       <use xlink:href="#DejaVuSans-32" transform="translate(95.410156 0)"/>
      </g>
     </g>
    </g>
    <g id="ytick_3">
     <g id="line2d_9">
      <g>
       <use xlink:href="#mc79b25e92e" x="43.78125" y="116.50565" style="stroke: #000000; stroke-width: 0.8"/>
      </g>
     </g>
     <g id="text_10">
      <!-- 0.4 -->
      <g transform="translate(20.878125 120.304868) scale(0.1 -0.1)">
       <use xlink:href="#DejaVuSans-30"/>
       <use xlink:href="#DejaVuSans-2e" transform="translate(63.623047 0)"/>
       <use xlink:href="#DejaVuSans-34" transform="translate(95.410156 0)"/>
      </g>
     </g>
    </g>
    <g id="ytick_4">
     <g id="line2d_10">
      <g>
       <use xlink:href="#mc79b25e92e" x="43.78125" y="81.336839" style="stroke: #000000; stroke-width: 0.8"/>
      </g>
     </g>
     <g id="text_11">
      <!-- 0.6 -->
      <g transform="translate(20.878125 85.136058) scale(0.1 -0.1)">
       <use xlink:href="#DejaVuSans-30"/>
       <use xlink:href="#DejaVuSans-2e" transform="translate(63.623047 0)"/>
       <use xlink:href="#DejaVuSans-36" transform="translate(95.410156 0)"/>
      </g>
     </g>
    </g>
    <g id="ytick_5">
     <g id="line2d_11">
      <g>
       <use xlink:href="#mc79b25e92e" x="43.78125" y="46.168029" style="stroke: #000000; stroke-width: 0.8"/>
      </g>
     </g>
     <g id="text_12">
      <!-- 0.8 -->
      <g transform="translate(20.878125 49.967248) scale(0.1 -0.1)">
       <use xlink:href="#DejaVuSans-30"/>
       <use xlink:href="#DejaVuSans-2e" transform="translate(63.623047 0)"/>
       <use xlink:href="#DejaVuSans-38" transform="translate(95.410156 0)"/>
      </g>
     </g>
    </g>
    <g id="ytick_6">
     <g id="line2d_12">
      <g>
       <use xlink:href="#mc79b25e92e" x="43.78125" y="10.999219" style="stroke: #000000; stroke-width: 0.8"/>
      </g>
     </g>
     <g id="text_13">
      <!-- 1.0 -->
      <g transform="translate(20.878125 14.798438) scale(0.1 -0.1)">
       <use xlink:href="#DejaVuSans-31"/>
       <use xlink:href="#DejaVuSans-2e" transform="translate(63.623047 0)"/>
       <use xlink:href="#DejaVuSans-30" transform="translate(95.410156 0)"/>
      </g>
     </g>
    </g>
    <g id="text_14">
     <!-- VCF -->
     <g transform="translate(14.798438 108.708744) rotate(-90) scale(0.1 -0.1)">
      <defs>
       <path id="DejaVuSans-56" d="M 1831 0 
L 50 4666 
L 709 4666 
L 2188 738 
L 3669 4666 
L 4325 4666 
L 2547 0 
L 1831 0 
z
" transform="scale(0.015625)"/>
       <path id="DejaVuSans-43" d="M 4122 4306 
L 4122 3641 
Q 3803 3938 3442 4084 
Q 3081 4231 2675 4231 
Q 1875 4231 1450 3742 
Q 1025 3253 1025 2328 
Q 1025 1406 1450 917 
Q 1875 428 2675 428 
Q 3081 428 3442 575 
Q 3803 722 4122 1019 
L 4122 359 
Q 3791 134 3420 21 
Q 3050 -91 2638 -91 
Q 1578 -91 968 557 
Q 359 1206 359 2328 
Q 359 3453 968 4101 
Q 1578 4750 2638 4750 
Q 3056 4750 3426 4639 
Q 3797 4528 4122 4306 
z
" transform="scale(0.015625)"/>
       <path id="DejaVuSans-46" d="M 628 4666 
L 3309 4666 
L 3309 4134 
L 1259 4134 
L 1259 2759 
L 3109 2759 
L 3109 2228 
L 1259 2228 
L 1259 0 
L 628 0 
L 628 4666 
z
" transform="scale(0.015625)"/>
      </defs>
      <use xlink:href="#DejaVuSans-56"/>
      <use xlink:href="#DejaVuSans-43" transform="translate(68.408203 0)"/>
      <use xlink:href="#DejaVuSans-46" transform="translate(138.232422 0)"/>
     </g>
    </g>
   </g>
   <g id="line2d_13">
    <path d="M 43.78125 195.631748 
L 43.781693 195.631748 
L 43.892784 186.842301 
L 49.100805 186.73125 
L 49.211896 186.727231 
L 52.520297 186.616132 
L 52.631388 186.612377 
L 55.257307 186.501297 
L 55.368398 186.495031 
L 57.425582 186.383926 
L 57.536674 186.377947 
L 59.342463 186.266852 
L 59.453554 186.260247 
L 61.015474 186.149144 
L 61.126565 186.139939 
L 62.535346 186.028877 
L 62.646438 186.018482 
L 63.952537 185.907396 
L 64.063628 185.89493 
L 65.245801 185.783836 
L 65.356892 185.773063 
L 66.465594 185.661968 
L 66.576685 185.651253 
L 67.677863 185.540147 
L 67.788954 185.528381 
L 68.809579 185.417333 
L 68.920671 185.404178 
L 69.919609 185.29317 
L 70.0307 185.279966 
L 70.960593 185.168886 
L 71.071684 185.156172 
L 71.976792 185.045075 
L 72.087884 185.031972 
L 73.007154 184.920933 
L 73.118246 184.906569 
L 73.981307 184.795665 
L 74.092398 184.779613 
L 74.94705 184.668537 
L 75.058142 184.653517 
L 75.889336 184.542509 
L 76.000427 184.52628 
L 76.787362 184.415255 
L 76.898453 184.400009 
L 77.679192 184.288951 
L 77.790283 184.273013 
L 78.605101 184.161969 
L 78.716193 184.1469 
L 79.472146 184.03582 
L 79.583237 184.018653 
L 80.296701 183.907623 
L 80.407793 183.890398 
L 81.163746 183.779316 
L 81.274837 183.762774 
L 81.990071 183.65182 
L 82.101163 183.636046 
L 82.801791 183.524948 
L 82.912883 183.508442 
L 83.625461 183.397344 
L 83.736553 183.38054 
L 84.431428 183.269433 
L 84.542519 183.250433 
L 85.233411 183.13939 
L 85.344502 183.120557 
L 86.014149 183.009566 
L 86.12524 182.990079 
L 86.796658 182.879023 
L 86.907749 182.86173 
L 87.557479 182.751075 
L 87.668571 182.731316 
L 88.317858 182.620367 
L 88.42895 182.602673 
L 89.081335 182.491768 
L 89.192427 182.473515 
L 89.845698 182.362431 
L 89.956789 182.34207 
L 90.575537 182.231023 
L 90.686629 182.210229 
L 91.299181 182.099133 
L 91.410272 182.079532 
L 91.994056 181.96849 
L 92.105147 181.947747 
L 92.69911 181.836641 
L 92.810202 181.817082 
L 93.402395 181.706192 
L 93.513486 181.685577 
L 94.118514 181.574492 
L 94.229605 181.551389 
L 94.806307 181.440448 
L 94.917399 181.421101 
L 95.489675 181.310045 
L 95.600766 181.288806 
L 96.181009 181.177737 
L 96.2921 181.15642 
L 96.841361 181.04538 
L 96.952453 181.023855 
L 97.505697 180.913026 
L 97.616788 180.888352 
L 98.155869 180.777446 
L 98.266961 180.75592 
L 98.834811 180.644819 
L 98.945902 180.621292 
L 99.48941 180.510246 
L 99.600501 180.48836 
L 100.136041 180.377421 
L 100.247133 180.351678 
L 100.779575 180.240742 
L 100.890667 180.216905 
L 101.409831 180.106043 
L 101.520923 180.081486 
L 102.036104 179.970548 
L 102.147195 179.945387 
L 102.69026 179.834386 
L 102.801351 179.808791 
L 103.305467 179.697822 
L 103.416559 179.673385 
L 103.960509 179.562282 
L 104.0716 179.539468 
L 104.584126 179.428405 
L 104.695217 179.40169 
L 105.211726 179.290825 
L 105.322817 179.265539 
L 105.778691 179.155109 
L 105.889782 179.127172 
L 106.392128 179.016068 
L 106.503219 178.990827 
L 106.981222 178.879901 
L 107.092314 178.854541 
L 107.576513 178.743684 
L 107.687605 178.716098 
L 108.184197 178.605047 
L 108.295288 178.581141 
L 108.770636 178.470217 
L 108.881727 178.445211 
L 109.33406 178.334103 
L 109.445151 178.306439 
L 109.930236 178.195376 
L 110.041327 178.167871 
L 110.518445 178.056837 
L 110.629537 178.028735 
L 111.115949 177.917625 
L 111.22704 177.88894 
L 111.69929 177.777859 
L 111.810381 177.751425 
L 112.283958 177.64036 
L 112.39505 177.61179 
L 112.84694 177.500691 
L 112.958031 177.473484 
L 113.39443 177.362392 
L 113.505522 177.333308 
L 113.932184 177.222294 
L 114.043275 177.194229 
L 114.509771 177.08325 
L 114.620862 177.05615 
L 115.08603 176.945401 
L 115.197121 176.916727 
L 115.625111 176.805664 
L 115.736203 176.774505 
L 116.167291 176.663461 
L 116.278382 176.634273 
L 116.705487 176.523477 
L 116.816578 176.495063 
L 117.256518 176.384135 
L 117.36761 176.351607 
L 117.796927 176.240528 
L 117.908019 176.213449 
L 118.298388 176.10265 
L 118.409479 176.06962 
L 118.825076 175.958678 
L 118.936168 175.92895 
L 119.371682 175.81793 
L 119.482773 175.786082 
L 119.888633 175.675236 
L 119.999725 175.643982 
L 120.403814 175.532883 
L 120.514906 175.50249 
L 120.91811 175.391444 
L 121.029202 175.360404 
L 121.436832 175.249333 
L 121.547923 175.218554 
L 121.944489 175.107468 
L 122.05558 175.077935 
L 122.44949 174.966924 
L 122.560582 174.932366 
L 122.96777 174.821279 
L 123.078861 174.788544 
L 123.476312 174.677502 
L 123.587403 174.644936 
L 123.98087 174.533882 
L 124.091962 174.50415 
L 124.476577 174.393458 
L 124.587669 174.358739 
L 124.949269 174.24792 
L 125.060361 174.215829 
L 125.410454 174.104912 
L 125.521545 174.073266 
L 125.893768 173.962241 
L 126.004859 173.926022 
L 126.368673 173.815691 
L 126.479764 173.779328 
L 126.859954 173.668263 
L 126.971045 173.637268 
L 127.351677 173.52618 
L 127.462769 173.49116 
L 127.827467 173.38005 
L 127.938559 173.346607 
L 128.285996 173.235575 
L 128.397088 173.203312 
L 128.75559 173.09224 
L 128.866681 173.061164 
L 129.227839 172.950273 
L 129.338931 172.915221 
L 129.703187 172.804382 
L 129.814278 172.772041 
L 130.155077 172.661226 
L 130.266168 172.627308 
L 130.628211 172.516268 
L 130.739303 172.481136 
L 131.081872 172.370146 
L 131.192963 172.334591 
L 131.528893 172.223768 
L 131.639984 172.187395 
L 131.980783 172.076661 
L 132.091874 172.039901 
L 132.458786 171.929098 
L 132.569877 171.887342 
L 132.892087 171.776242 
L 133.003178 171.741995 
L 133.353714 171.630899 
L 133.464805 171.591854 
L 133.800735 171.480784 
L 133.911827 171.445488 
L 134.26192 171.334443 
L 134.373011 171.301118 
L 134.722219 171.190143 
L 134.833311 171.152495 
L 135.192698 171.041403 
L 135.303789 171.003845 
L 135.613164 170.893011 
L 135.724255 170.856808 
L 136.051776 170.745868 
L 136.162867 170.705704 
L 136.465602 170.594824 
L 136.576694 170.553738 
L 136.917935 170.442703 
L 137.029026 170.405732 
L 137.362301 170.294794 
L 137.473392 170.260476 
L 137.812863 170.14946 
L 137.923954 170.112201 
L 138.22669 170.001284 
L 138.337781 169.956658 
L 138.646713 169.845683 
L 138.757804 169.80991 
L 139.069391 169.699047 
L 139.180483 169.66003 
L 139.501365 169.549366 
L 139.612456 169.508371 
L 139.951042 169.397464 
L 140.062133 169.358205 
L 140.357344 169.247137 
L 140.468436 169.206343 
L 140.788432 169.09551 
L 140.899524 169.05769 
L 141.215094 168.946788 
L 141.326186 168.900903 
L 141.64751 168.789841 
L 141.758601 168.750768 
L 142.059124 168.639701 
L 142.170215 168.601251 
L 142.467197 168.490188 
L 142.578288 168.450152 
L 142.886777 168.339257 
L 142.997869 168.294036 
L 143.3068 168.183105 
L 143.417892 168.144284 
L 143.747625 168.033197 
L 143.858717 167.995461 
L 144.15083 167.884676 
L 144.261921 167.843688 
L 144.552264 167.732631 
L 144.663355 167.68677 
L 144.958566 167.576635 
L 145.069658 167.53511 
L 145.355132 167.424347 
L 145.466223 167.377829 
L 145.75037 167.266808 
L 145.861461 167.219744 
L 146.157115 167.108932 
L 146.268206 167.063399 
L 146.556336 166.952329 
L 146.667427 166.909934 
L 146.948033 166.799006 
L 147.059124 166.755446 
L 147.34327 166.644719 
L 147.454362 166.599908 
L 147.753556 166.488961 
L 147.864648 166.446714 
L 148.118255 166.335651 
L 148.229347 166.286804 
L 148.507296 166.176256 
L 148.618388 166.132124 
L 148.886601 166.021079 
L 148.997692 165.977268 
L 149.274314 165.866299 
L 149.385406 165.818796 
L 149.652733 165.707888 
L 149.763825 165.663554 
L 150.031153 165.552639 
L 150.142244 165.506877 
L 150.435685 165.39624 
L 150.546776 165.348037 
L 150.807022 165.237104 
L 150.918114 165.193769 
L 151.196064 165.082702 
L 151.307155 165.038706 
L 151.576253 164.927782 
L 151.687345 164.880775 
L 151.953345 164.769898 
L 152.064436 164.722415 
L 152.309634 164.611542 
L 152.420725 164.559132 
L 152.681857 164.448435 
L 152.792948 164.397671 
L 153.051424 164.286697 
L 153.162515 164.235546 
L 153.415237 164.125121 
L 153.526329 164.073117 
L 153.770199 163.962066 
L 153.88129 163.911483 
L 154.119407 163.800386 
L 154.230498 163.752096 
L 154.474368 163.640993 
L 154.58546 163.59058 
L 154.845706 163.479699 
L 154.956797 163.434454 
L 155.208191 163.323376 
L 155.319283 163.272136 
L 155.566694 163.161069 
L 155.677785 163.109177 
L 155.917672 162.998252 
L 156.028763 162.950876 
L 156.261568 162.839784 
L 156.37266 162.795022 
L 156.605023 162.683939 
L 156.716114 162.629091 
L 156.952903 162.51839 
L 157.063994 162.469377 
L 157.313175 162.358324 
L 157.424267 162.303456 
L 157.665039 162.192496 
L 157.77613 162.138638 
L 158.004509 162.027533 
L 158.115601 161.97043 
L 158.350619 161.859328 
L 158.46171 161.808873 
L 158.675041 161.698678 
L 158.786133 161.647803 
L 159.018495 161.536749 
L 159.129587 161.481114 
L 159.372572 161.370006 
L 159.483663 161.321882 
L 159.705846 161.211105 
L 159.816938 161.155726 
L 160.049743 161.044635 
L 160.160834 160.994872 
L 160.387001 160.884046 
L 160.498092 160.830574 
L 160.716734 160.719792 
L 160.827826 160.663454 
L 161.048681 160.553054 
L 161.159772 160.494639 
L 161.371333 160.383571 
L 161.482424 160.322597 
L 161.69664 160.211564 
L 161.807732 160.152883 
L 162.01885 160.042178 
L 162.129941 159.976216 
L 162.338404 159.865266 
L 162.449495 159.811562 
L 162.668137 159.700849 
L 162.779229 159.639864 
L 163.008051 159.528862 
L 163.119142 159.474442 
L 163.322736 159.364255 
L 163.433828 159.30982 
L 163.632995 159.198828 
L 163.744087 159.138044 
L 163.955205 159.026969 
L 164.066296 158.964994 
L 164.260153 158.854126 
L 164.371245 158.790448 
L 164.565544 158.679484 
L 164.676635 158.617734 
L 164.89395 158.506957 
L 165.005041 158.442165 
L 165.221913 158.331147 
L 165.333005 158.273815 
L 165.540139 158.163714 
L 165.651231 158.108023 
L 165.838006 157.996987 
L 165.949097 157.940127 
L 166.146052 157.829038 
L 166.257144 157.765614 
L 166.465606 157.654527 
L 166.576698 157.587608 
L 166.769669 157.476659 
L 166.880761 157.415535 
L 167.08524 157.30536 
L 167.196331 157.236094 
L 167.393729 157.125126 
L 167.50482 157.05849 
L 167.710185 156.947845 
L 167.821276 156.882466 
L 168.004511 156.77138 
L 168.115602 156.707703 
L 168.310787 156.596965 
L 168.421878 156.528151 
L 168.613522 156.41704 
L 168.724613 156.349596 
L 168.910946 156.238534 
L 169.022037 156.178882 
L 169.207485 156.067884 
L 169.318576 156.005928 
L 169.508892 155.895031 
L 169.619984 155.83194 
L 169.814283 155.721102 
L 169.925375 155.656091 
L 170.102856 155.545343 
L 170.213947 155.468597 
L 170.395854 155.357599 
L 170.506945 155.291231 
L 170.679115 155.180558 
L 170.790206 155.120317 
L 170.974326 155.009272 
L 171.085417 154.930294 
L 171.272635 154.819454 
L 171.383727 154.751871 
L 171.568732 154.640938 
L 171.679823 154.572548 
L 171.86173 154.461497 
L 171.972821 154.384151 
L 172.152958 154.273607 
L 172.264049 154.206358 
L 172.434891 154.095929 
L 172.545982 154.018813 
L 172.730987 153.907832 
L 172.842079 153.835465 
L 173.027526 153.724483 
L 173.138618 153.655127 
L 173.303706 153.545038 
L 173.414797 153.470929 
L 173.576787 153.360387 
L 173.687879 153.290148 
L 173.861819 153.179224 
L 173.97291 153.111622 
L 174.143752 153.000839 
L 174.254843 152.927345 
L 174.417718 152.816261 
L 174.52881 152.736351 
L 174.691685 152.625454 
L 174.802776 152.549491 
L 174.96034 152.438543 
L 175.071432 152.356483 
L 175.239176 152.245554 
L 175.350267 152.162007 
L 175.515798 152.051004 
L 175.626889 151.980084 
L 175.787551 151.86947 
L 175.898643 151.792582 
L 176.060633 151.681658 
L 176.171724 151.602417 
L 176.346549 151.49142 
L 176.457641 151.412316 
L 176.611664 151.301477 
L 176.722755 151.223093 
L 176.883418 151.11201 
L 176.994509 151.036681 
L 177.153843 150.925694 
L 177.264935 150.849799 
L 177.430466 150.738813 
L 177.541557 150.664446 
L 177.679647 150.553412 
L 177.790738 150.477767 
L 177.941221 150.366986 
L 178.052312 150.290907 
L 178.197041 150.179887 
L 178.308132 150.094136 
L 178.475876 149.983032 
L 178.586967 149.897432 
L 178.746302 149.786416 
L 178.857393 149.709576 
L 179.000352 149.598533 
L 179.111443 149.505776 
L 179.268122 149.394882 
L 179.379213 149.318317 
L 179.538105 149.207552 
L 179.649196 149.125922 
L 179.819596 149.015031 
L 179.930687 148.92055 
L 180.080727 148.809669 
L 180.191818 148.720182 
L 180.334777 148.609356 
L 180.445868 148.516846 
L 180.595023 148.405883 
L 180.706114 148.319712 
L 180.857039 148.209886 
L 180.968131 148.123168 
L 181.111089 148.012342 
L 181.222181 147.922193 
L 181.357172 147.811226 
L 181.468264 147.720864 
L 181.603698 147.610226 
L 181.714789 147.524266 
L 181.840486 147.413389 
L 181.951578 147.331634 
L 182.082586 147.220866 
L 182.193678 147.131632 
L 182.329554 147.020636 
L 182.440646 146.937049 
L 182.573424 146.826357 
L 182.684516 146.729938 
L 182.827474 146.619004 
L 182.938566 146.532088 
L 183.078868 146.421306 
L 183.18996 146.332441 
L 183.320968 146.221474 
L 183.43206 146.123036 
L 183.565281 146.011966 
L 183.676372 145.918072 
L 183.79366 145.807312 
L 183.904752 145.71638 
L 184.029563 145.60574 
L 184.140655 145.515605 
L 184.272991 145.404716 
L 184.384082 145.315631 
L 184.517304 145.205599 
L 184.628395 145.10463 
L 184.750109 144.993604 
L 184.8612 144.893121 
L 185.002831 144.782051 
L 185.113922 144.685501 
L 185.244488 144.57451 
L 185.355579 144.480307 
L 185.481719 144.370049 
L 185.592811 144.259115 
L 185.718508 144.148719 
L 185.829599 144.050594 
L 185.957067 143.939514 
L 186.068158 143.839729 
L 186.188544 143.729482 
L 186.299635 143.62634 
L 186.415595 143.51533 
L 186.526687 143.409966 
L 186.632467 143.299252 
L 186.743559 143.188746 
L 186.871026 143.077673 
L 186.982118 142.979022 
L 187.102504 142.868105 
L 187.213595 142.764462 
L 187.331768 142.653364 
L 187.442859 142.553681 
L 187.56236 142.443116 
L 187.673452 142.346466 
L 187.798264 142.236314 
L 187.909355 142.130874 
L 188.023987 142.020026 
L 188.135079 141.918399 
L 188.236876 141.807753 
L 188.347967 141.701 
L 188.467025 141.589926 
L 188.578117 141.471001 
L 188.683012 141.359919 
L 188.793661 141.254155 
L 188.910063 141.143198 
L 189.021155 141.036614 
L 189.129591 140.92608 
L 189.240682 140.824683 
L 189.355757 140.714059 
L 189.466848 140.594722 
L 189.579268 140.483615 
L 189.690359 140.366567 
L 189.79968 140.255523 
L 189.910772 140.14759 
L 190.01788 140.036736 
L 190.128971 139.923134 
L 190.225014 139.81208 
L 190.336106 139.695016 
L 190.452066 139.584108 
L 190.563157 139.472898 
L 190.673806 139.362094 
L 190.784898 139.248601 
L 190.893776 139.138193 
L 191.004867 139.008843 
L 191.112418 138.897914 
L 191.22351 138.771261 
L 191.330175 138.660582 
L 191.441267 138.55479 
L 191.543949 138.443751 
L 191.65504 138.325374 
L 191.754182 138.214526 
L 191.865273 138.095009 
L 191.967513 137.984381 
L 192.078604 137.870004 
L 192.178631 137.759318 
L 192.289722 137.64835 
L 192.387536 137.537796 
L 192.498627 137.419491 
L 192.586261 137.308921 
L 192.697352 137.187551 
L 192.792068 137.07708 
L 192.903159 136.957204 
L 193.001415 136.84637 
L 193.112507 136.715295 
L 193.203239 136.604267 
L 193.31433 136.490243 
L 193.411259 136.380824 
L 193.52235 136.257058 
L 193.616623 136.146022 
L 193.727715 136.007913 
L 193.815791 135.896806 
L 193.926883 135.769635 
L 194.014516 135.658641 
L 194.125608 135.518114 
L 194.216783 135.40734 
L 194.327874 135.275084 
L 194.423032 135.164894 
L 194.534123 135.034475 
L 194.631937 134.923862 
L 194.743029 134.785944 
L 194.838629 134.675414 
L 194.949721 134.53818 
L 195.041338 134.427197 
L 195.152429 134.300936 
L 195.247587 134.190449 
L 195.358679 134.059761 
L 195.454279 133.949059 
L 195.565371 133.805449 
L 195.647251 133.694647 
L 195.758342 133.549413 
L 195.862352 133.438442 
L 195.973444 133.302232 
L 196.062406 133.191901 
L 196.173497 133.038189 
L 196.268212 132.927301 
L 196.379304 132.771502 
L 196.45543 132.664016 
L 196.566522 132.518691 
L 196.650172 132.407603 
L 196.761264 132.254954 
L 196.839603 132.145244 
L 196.950695 131.993894 
L 197.048066 131.882851 
L 197.159157 131.740805 
L 197.234841 131.630293 
L 197.345932 131.490364 
L 197.429583 131.37971 
L 197.540674 131.22735 
L 197.626538 131.116722 
L 197.737629 130.971713 
L 197.824378 130.862729 
L 197.935469 130.703242 
L 198.025759 130.592251 
L 198.13685 130.448304 
L 198.221829 130.33737 
L 198.33292 130.185515 
L 198.415243 130.07499 
L 198.526334 129.915234 
L 198.599363 129.804304 
L 198.710454 129.637078 
L 198.791449 129.526744 
L 198.90254 129.358341 
L 198.975126 129.247963 
L 199.086218 129.091309 
L 199.151279 128.98086 
L 199.262371 128.796923 
L 199.335399 128.687555 
L 199.44649 128.52132 
L 199.525272 128.411602 
L 199.636364 128.243146 
L 199.712047 128.132317 
L 199.823139 127.987798 
L 199.890856 127.87698 
L 200.001947 127.692393 
L 200.057272 127.581405 
L 200.168363 127.405665 
L 200.248473 127.295498 
L 200.359565 127.102937 
L 200.427724 126.99262 
L 200.538816 126.807628 
L 200.610074 126.696856 
L 200.721165 126.529677 
L 200.793308 126.419447 
L 200.9044 126.261671 
L 200.978756 126.151096 
L 201.089847 125.965309 
L 201.171285 125.855086 
L 201.282376 125.685769 
L 201.353191 125.575004 
L 201.464283 125.37622 
L 201.528017 125.265933 
L 201.639108 125.069874 
L 201.708595 124.959238 
L 201.819687 124.79329 
L 201.883863 124.682367 
L 201.994955 124.509599 
L 202.060459 124.398855 
L 202.17155 124.191476 
L 202.232628 124.08272 
L 202.34372 123.889859 
L 202.410552 123.778986 
L 202.521643 123.588453 
L 202.584934 123.478348 
L 202.696026 123.269739 
L 202.74958 123.160274 
L 202.860671 122.95872 
L 202.923077 122.847838 
L 203.034169 122.634946 
L 203.100116 122.524058 
L 203.211207 122.299087 
L 203.271843 122.192279 
L 203.382934 121.98478 
L 203.436045 121.874338 
L 203.547137 121.639704 
L 203.601134 121.530571 
L 203.712225 121.330168 
L 203.765336 121.219207 
L 203.876428 120.995859 
L 203.932638 120.88645 
L 204.043729 120.665658 
L 204.097283 120.556404 
L 204.208374 120.348486 
L 204.263699 120.237549 
L 204.37479 120.02011 
L 204.428787 119.909884 
L 204.539878 119.684 
L 204.595645 119.573021 
L 204.706737 119.344278 
L 204.757193 119.234237 
L 204.868284 119.020936 
L 204.927149 118.911353 
L 205.038241 118.676119 
L 205.094008 118.565558 
L 205.205099 118.343601 
L 205.259539 118.233516 
L 205.37063 118.011859 
L 205.424627 117.902272 
L 205.535718 117.65428 
L 205.583961 117.543749 
L 205.695053 117.305913 
L 205.741082 117.196562 
L 205.852174 116.947173 
L 205.906171 116.836851 
L 206.017262 116.594326 
L 206.061964 116.483888 
L 206.173056 116.232392 
L 206.224839 116.121639 
L 206.335931 115.880098 
L 206.382846 115.769152 
L 206.493937 115.523515 
L 206.536426 115.413801 
L 206.647518 115.135989 
L 206.689564 115.024959 
L 206.800656 114.77728 
L 206.849341 114.667729 
L 206.960433 114.40133 
L 207.001594 114.291261 
L 207.112686 114.008539 
L 207.153847 113.90016 
L 207.264939 113.621429 
L 207.314067 113.514384 
L 207.425158 113.237869 
L 207.473844 113.12905 
L 207.584935 112.857675 
L 207.639817 112.749283 
L 207.750908 112.475011 
L 207.794283 112.365955 
L 207.905374 112.118634 
L 207.94565 112.007875 
L 208.056742 111.719975 
L 208.098788 111.611207 
L 208.20988 111.308055 
L 208.246173 111.198028 
L 208.357264 110.946738 
L 208.397098 110.835954 
L 208.508189 110.551392 
L 208.549351 110.440732 
L 208.660442 110.101914 
L 208.69762 109.991865 
L 208.808711 109.699601 
L 208.846332 109.588975 
L 208.957423 109.301561 
L 208.992389 109.194616 
L 209.10348 108.856261 
L 209.148182 108.746439 
L 209.259274 108.461524 
L 209.295566 108.351179 
L 209.406658 108.042411 
L 209.451803 107.931887 
L 209.562894 107.594848 
L 209.600072 107.484941 
L 209.711164 107.159123 
L 209.743473 107.048345 
L 209.854564 106.711625 
L 209.888644 106.605142 
L 209.999736 106.270735 
L 210.033816 106.16036 
L 210.144907 105.769775 
L 210.178102 105.659053 
L 210.289193 105.31272 
L 210.321945 105.205291 
L 210.433037 104.852576 
L 210.465346 104.741557 
L 210.576438 104.384828 
L 210.608747 104.275214 
L 210.719839 103.919407 
L 210.740641 103.808705 
L 210.851732 103.427129 
L 210.888025 103.316859 
L 210.999116 102.896452 
L 211.030541 102.7855 
L 211.141632 102.356078 
L 211.165532 102.246081 
L 211.276624 101.870291 
L 211.30672 101.762837 
L 211.417812 101.377089 
L 211.448351 101.267188 
L 211.559442 100.850454 
L 211.590866 100.74122 
L 211.701958 100.297943 
L 211.732939 100.189023 
L 211.844031 99.732106 
L 211.875898 99.621355 
L 211.986989 99.175967 
L 212.018414 99.071276 
L 212.129505 98.602717 
L 212.158716 98.495778 
L 212.269808 98.095162 
L 212.295036 97.985084 
L 212.406127 97.544037 
L 212.43047 97.436042 
L 212.541561 97.007242 
L 212.569002 96.896754 
L 212.680094 96.406128 
L 212.706649 96.296898 
L 212.817741 95.857894 
L 212.838543 95.748047 
L 212.949634 95.279287 
L 212.973092 95.171731 
L 213.084183 94.671988 
L 213.105871 94.564396 
L 213.216962 94.067297 
L 213.24396 93.957808 
L 213.355052 93.414983 
L 213.38028 93.307717 
L 213.491371 92.757789 
L 213.518812 92.647024 
L 213.629903 92.152258 
L 213.655131 92.045199 
L 213.766223 91.496778 
L 213.783484 91.389507 
L 213.894576 90.799012 
L 213.917148 90.688038 
L 214.028239 90.182624 
L 214.053467 90.072646 
L 214.164559 89.56668 
L 214.185361 89.458353 
L 214.296452 88.887153 
L 214.314156 88.776679 
L 214.425247 88.220446 
L 214.438968 88.111768 
L 214.550059 87.46086 
L 214.569534 87.351563 
L 214.680625 86.825366 
L 214.699214 86.714578 
L 214.810306 86.055791 
L 214.83155 85.944919 
L 214.942642 85.311718 
L 214.959903 85.206037 
L 215.070994 84.528279 
L 215.089141 84.417222 
L 215.200232 83.700576 
L 215.22369 83.59292 
L 215.334781 82.877625 
L 215.35514 82.770449 
L 215.466232 81.948488 
L 215.482608 81.839592 
L 215.593699 81.108886 
L 215.608748 81.003235 
L 215.719839 80.161042 
L 215.738428 80.056545 
L 215.84952 79.21749 
L 215.865896 79.109728 
L 215.976987 78.292247 
L 215.992921 78.183427 
L 216.104012 77.398819 
L 216.118618 77.288705 
L 216.229709 76.376199 
L 216.247413 76.268009 
L 216.358504 75.444218 
L 216.371782 75.335221 
L 216.482874 74.46633 
L 216.498807 74.357092 
L 216.609899 73.431732 
L 216.622734 73.32427 
L 216.733825 72.267421 
L 216.745775 72.156999 
L 216.856867 71.128674 
L 216.867932 71.019049 
L 216.979023 69.92466 
L 216.986547 69.818251 
L 217.097639 68.73705 
L 217.112244 68.629958 
L 217.223336 67.616699 
L 217.233958 67.516045 
L 217.34505 66.340337 
L 217.354344 66.230922 
L 217.465436 65.080574 
L 217.476943 64.97023 
L 217.588034 63.675014 
L 217.595116 63.574709 
L 217.706207 62.160384 
L 217.718158 62.053793 
L 217.829249 60.622582 
L 217.835445 60.519997 
L 217.946537 58.951629 
L 217.952733 58.863467 
L 218.063825 57.154958 
L 218.068251 57.045355 
L 218.179342 55.118042 
L 218.185096 55.011478 
L 218.296187 53.21605 
L 218.303711 53.131185 
L 218.414803 51.138193 
L 218.423212 51.03729 
L 218.534304 48.787872 
L 218.5405 48.683413 
L 218.651591 46.503915 
L 218.657788 46.404961 
L 218.768879 43.947034 
L 218.776846 43.846719 
L 218.887937 41.094125 
L 218.893691 40.996491 
L 219.004782 38.113214 
L 219.008766 38.011723 
L 219.119857 34.851629 
L 219.124283 34.742584 
L 219.235375 30.657074 
L 219.238473 30.556924 
L 219.349564 26.089248 
L 219.353105 25.991023 
L 219.464197 21.095766 
L 219.46818 20.991859 
L 219.579271 14.586132 
L 219.580599 14.487615 
L 219.625301 2.284901 
L 219.625301 2.284901 
" clip-path="url(#pb1c3aaf51b)" style="fill: none; stroke: #67c7d5; stroke-width: 1.5; stroke-linecap: square"/>
   </g>
   <g id="line2d_14">
    <path d="M 43.78125 195.634966 
L 43.781693 195.634966 
L 43.892341 186.835287 
L 46.18056 186.724252 
L 46.290766 186.719654 
L 47.890306 186.608686 
L 48.000955 186.598877 
L 49.141966 186.48778 
L 49.252172 186.476737 
L 50.268814 186.365681 
L 50.379905 186.35422 
L 51.289439 186.24312 
L 51.400088 186.230967 
L 52.19853 186.120004 
L 52.309621 186.107848 
L 53.10231 185.996749 
L 53.213401 185.978463 
L 53.888359 185.868027 
L 53.999451 185.847574 
L 54.662016 185.736617 
L 54.773108 185.71605 
L 55.344941 185.604982 
L 55.456032 185.584466 
L 56.006178 185.473407 
L 56.11727 185.451301 
L 56.669186 185.340284 
L 56.779835 185.316573 
L 57.33662 185.205506 
L 57.447269 185.180892 
L 57.991219 185.07 
L 58.101425 185.043463 
L 58.606427 184.932372 
L 58.717518 184.90846 
L 59.18003 184.797451 
L 59.291122 184.77176 
L 59.788599 184.660867 
L 59.899691 184.631693 
L 60.420625 184.520615 
L 60.531717 184.48973 
L 60.98582 184.378658 
L 61.096911 184.351294 
L 61.554555 184.240359 
L 61.665646 184.215766 
L 62.085669 184.104679 
L 62.196761 184.070455 
L 62.63493 183.95982 
L 62.746022 183.929089 
L 63.170471 183.818071 
L 63.279792 183.792115 
L 63.705569 183.681017 
L 63.81666 183.650538 
L 64.18844 183.539454 
L 64.299532 183.510768 
L 64.701408 183.399699 
L 64.8125 183.368003 
L 65.222786 183.256943 
L 65.333877 183.226346 
L 65.71805 183.115372 
L 65.829142 183.084517 
L 66.206675 182.973534 
L 66.317767 182.937871 
L 66.697071 182.826865 
L 66.808163 182.793926 
L 67.218449 182.683234 
L 67.328212 182.648096 
L 67.707074 182.536999 
L 67.818165 182.507775 
L 68.183307 182.396878 
L 68.294398 182.36395 
L 68.636524 182.252999 
L 68.747616 182.219129 
L 69.099922 182.108026 
L 69.211013 182.073893 
L 69.578367 181.962863 
L 69.688131 181.928671 
L 70.036011 181.817575 
L 70.147103 181.782307 
L 70.476394 181.67145 
L 70.587485 181.635173 
L 70.936693 181.524178 
L 71.046457 181.4933 
L 71.40009 181.382219 
L 71.511182 181.348289 
L 71.853308 181.237321 
L 71.964399 181.195828 
L 72.283953 181.084753 
L 72.395045 181.04561 
L 72.722123 180.934617 
L 72.833214 180.898718 
L 73.154539 180.78764 
L 73.264745 180.746629 
L 73.628116 180.635573 
L 73.739207 180.594472 
L 74.0654 180.483366 
L 74.176491 180.451311 
L 74.522158 180.340335 
L 74.63325 180.302563 
L 74.947493 180.191851 
L 75.058584 180.149777 
L 75.392744 180.038865 
L 75.503393 179.999424 
L 75.813652 179.888352 
L 75.924743 179.848466 
L 76.235003 179.737355 
L 76.346094 179.698229 
L 76.647944 179.587828 
L 76.759036 179.552027 
L 77.068853 179.441061 
L 77.179944 179.399503 
L 77.505694 179.288442 
L 77.616786 179.248304 
L 77.929701 179.137621 
L 78.040792 179.096417 
L 78.343527 178.985343 
L 78.454619 178.940679 
L 78.753813 178.830037 
L 78.86402 178.784106 
L 79.161886 178.673051 
L 79.272978 178.629933 
L 79.59563 178.51884 
L 79.706721 178.473666 
L 79.981573 178.36273 
L 80.092222 178.321786 
L 80.381679 178.210864 
L 80.492771 178.166981 
L 80.790195 178.056262 
L 80.901286 178.00798 
L 81.192072 177.896898 
L 81.303163 177.845972 
L 81.600587 177.734898 
L 81.711679 177.692498 
L 82.002021 177.581775 
L 82.112228 177.539183 
L 82.416733 177.428465 
L 82.527382 177.384749 
L 82.81684 177.273735 
L 82.927931 177.228532 
L 83.185079 177.117514 
L 83.29617 177.072019 
L 83.586956 176.960932 
L 83.698047 176.913991 
L 83.960506 176.802968 
L 84.071598 176.759827 
L 84.328303 176.64885 
L 84.439394 176.600938 
L 84.732393 176.489965 
L 84.843484 176.437403 
L 85.119221 176.326475 
L 85.230312 176.279931 
L 85.499853 176.168885 
L 85.610944 176.127237 
L 85.863224 176.016286 
L 85.974315 175.965682 
L 86.23766 175.854796 
L 86.348751 175.815152 
L 86.615194 175.705184 
L 86.726285 175.649023 
L 87.00335 175.537968 
L 87.114441 175.49307 
L 87.37513 175.382521 
L 87.486221 175.337402 
L 87.732304 175.226532 
L 87.843396 175.179274 
L 88.114707 175.068273 
L 88.225798 175.021455 
L 88.472324 174.91052 
L 88.583415 174.862934 
L 88.861365 174.751933 
L 88.972457 174.706626 
L 89.229162 174.595562 
L 89.340254 174.54502 
L 89.602713 174.43405 
L 89.713804 174.388063 
L 89.968739 174.277 
L 90.079831 174.227254 
L 90.328127 174.116528 
L 90.439218 174.065135 
L 90.713627 173.954074 
L 90.824719 173.90491 
L 91.090719 173.793802 
L 91.201367 173.741393 
L 91.447008 173.630952 
L 91.558099 173.576965 
L 91.817018 173.465975 
L 91.928109 173.415189 
L 92.155603 173.304608 
L 92.266695 173.250229 
L 92.518974 173.139452 
L 92.630065 173.086951 
L 92.886328 172.976434 
L 92.99742 172.926487 
L 93.245273 172.815943 
L 93.356365 172.762233 
L 93.609972 172.651453 
L 93.721063 172.604765 
L 93.974228 172.493854 
L 94.085319 172.440283 
L 94.333615 172.329187 
L 94.444707 172.286856 
L 94.70274 172.175772 
L 94.813831 172.126947 
L 95.045309 172.01601 
L 95.1564 171.972468 
L 95.404254 171.861456 
L 95.515345 171.81522 
L 95.757002 171.704148 
L 95.868094 171.659825 
L 96.094703 171.549038 
L 96.205794 171.502701 
L 96.453205 171.392161 
L 96.564296 171.340577 
L 96.80374 171.22947 
L 96.914832 171.178851 
L 97.175078 171.067993 
L 97.286169 171.014536 
L 97.54553 170.903516 
L 97.656622 170.853818 
L 97.91377 170.74282 
L 98.024861 170.687754 
L 98.270502 170.576733 
L 98.381593 170.527595 
L 98.628119 170.41707 
L 98.73921 170.362739 
L 98.988834 170.252116 
L 99.099926 170.198524 
L 99.349107 170.088615 
L 99.460198 170.035561 
L 99.701855 169.92448 
L 99.812947 169.874903 
L 100.051948 169.763935 
L 100.16304 169.713066 
L 100.40868 169.602083 
L 100.519772 169.544294 
L 100.758331 169.433395 
L 100.869422 169.379119 
L 101.112407 169.268234 
L 101.223498 169.213808 
L 101.454976 169.103427 
L 101.566067 169.057448 
L 101.803298 168.946367 
L 101.91439 168.89291 
L 102.154277 168.781914 
L 102.265368 168.727015 
L 102.528712 168.615978 
L 102.639804 168.564431 
L 102.870396 168.453427 
L 102.981488 168.402468 
L 103.204998 168.291765 
L 103.31609 168.23747 
L 103.533847 168.12648 
L 103.644938 168.079211 
L 103.891906 167.968147 
L 104.002998 167.907174 
L 104.227394 167.796556 
L 104.338485 167.740909 
L 104.575274 167.629923 
L 104.686365 167.571379 
L 104.906778 167.460364 
L 105.017869 167.413261 
L 105.239167 167.302473 
L 105.350258 167.248072 
L 105.591915 167.137283 
L 105.703007 167.085987 
L 105.93891 166.974978 
L 106.050002 166.917251 
L 106.269972 166.806371 
L 106.381063 166.749289 
L 106.601918 166.638232 
L 106.71301 166.579817 
L 106.940504 166.468851 
L 107.051153 166.414643 
L 107.260058 166.303763 
L 107.371149 166.258647 
L 107.600856 166.147892 
L 107.711948 166.097687 
L 107.959801 165.986921 
L 108.070892 165.932526 
L 108.291305 165.821828 
L 108.402396 165.76151 
L 108.649807 165.650411 
L 108.760899 165.595711 
L 108.986622 165.485243 
L 109.097714 165.427548 
L 109.326093 165.316556 
L 109.436742 165.261076 
L 109.662466 165.150078 
L 109.773557 165.091537 
L 110.004149 164.980669 
L 110.115241 164.926281 
L 110.316622 164.815386 
L 110.427713 164.75567 
L 110.658305 164.64459 
L 110.769397 164.588326 
L 111.004858 164.477901 
L 111.115949 164.418202 
L 111.354065 164.30714 
L 111.465157 164.24557 
L 111.668308 164.134497 
L 111.7794 164.080463 
L 111.996271 163.96956 
L 112.107363 163.915896 
L 112.322464 163.804868 
L 112.433556 163.753121 
L 112.655296 163.642114 
L 112.766387 163.584777 
L 112.972194 163.473737 
L 113.083286 163.413969 
L 113.277143 163.303782 
L 113.388234 163.247694 
L 113.5905 163.136862 
L 113.701149 163.08576 
L 113.930856 162.975937 
L 114.041947 162.912849 
L 114.265458 162.802321 
L 114.376107 162.744336 
L 114.588553 162.633599 
L 114.699644 162.581609 
L 114.916516 162.470519 
L 115.027607 162.406186 
L 115.234742 162.295204 
L 115.345834 162.241205 
L 115.591917 162.130264 
L 115.703008 162.072465 
L 115.930502 161.962478 
L 116.041151 161.906117 
L 116.266432 161.795898 
L 116.377524 161.742396 
L 116.60369 161.63136 
L 116.714781 161.574681 
L 116.951127 161.463777 
L 117.062219 161.404401 
L 117.273779 161.2933 
L 117.384871 161.238337 
L 117.602628 161.127784 
L 117.713719 161.068373 
L 117.942098 160.957342 
L 118.05319 160.900488 
L 118.296617 160.789384 
L 118.407709 160.731151 
L 118.630777 160.62005 
L 118.741868 160.560039 
L 118.955199 160.449124 
L 119.066291 160.388093 
L 119.285818 160.277002 
L 119.39691 160.218261 
L 119.590766 160.107151 
L 119.701858 160.048304 
L 119.892174 159.937472 
L 120.003265 159.881047 
L 120.22235 159.770055 
L 120.333442 159.712313 
L 120.542347 159.601307 
L 120.653438 159.546252 
L 120.84641 159.435638 
L 120.957501 159.371139 
L 121.181012 159.260043 
L 121.291661 159.200301 
L 121.516057 159.089497 
L 121.627148 159.032405 
L 121.82366 158.921503 
L 121.934752 158.852183 
L 122.13392 158.74112 
L 122.245011 158.676178 
L 122.444179 158.565175 
L 122.555271 158.510069 
L 122.757094 158.398974 
L 122.868186 158.338182 
L 123.060715 158.227272 
L 123.171806 158.160796 
L 123.361237 158.050365 
L 123.472328 157.989767 
L 123.67548 157.878983 
L 123.786571 157.819904 
L 123.995034 157.708812 
L 124.106125 157.645085 
L 124.315473 157.53417 
L 124.426564 157.474412 
L 124.618208 157.363479 
L 124.729299 157.305959 
L 124.920058 157.195208 
L 125.031149 157.132403 
L 125.235629 157.021535 
L 125.34672 156.958957 
L 125.538806 156.84803 
L 125.649898 156.784668 
L 125.835788 156.674003 
L 125.946879 156.610895 
L 126.150473 156.500075 
L 126.261565 156.435129 
L 126.452323 156.324518 
L 126.563415 156.264282 
L 126.778959 156.153185 
L 126.89005 156.093369 
L 127.110905 155.982313 
L 127.221997 155.923432 
L 127.419837 155.812474 
L 127.530928 155.750534 
L 127.741161 155.639447 
L 127.852253 155.575548 
L 128.064256 155.464584 
L 128.175347 155.401937 
L 128.36168 155.291375 
L 128.472772 155.2298 
L 128.676365 155.119682 
L 128.787457 155.060237 
L 128.992821 154.950017 
L 129.103913 154.886206 
L 129.306621 154.775097 
L 129.417713 154.709511 
L 129.62352 154.598487 
L 129.734611 154.539676 
L 129.92537 154.428621 
L 130.036461 154.368097 
L 130.220581 154.257038 
L 130.331672 154.20374 
L 130.533496 154.092866 
L 130.644587 154.029154 
L 130.838887 153.918169 
L 130.949978 153.848459 
L 131.152244 153.737412 
L 131.263336 153.678 
L 131.467815 153.5669 
L 131.578906 153.502951 
L 131.761256 153.391991 
L 131.872347 153.320257 
L 132.068859 153.209297 
L 132.179951 153.141083 
L 132.379561 153.030441 
L 132.490653 152.963077 
L 132.68805 152.852621 
L 132.799142 152.787683 
L 132.997425 152.676682 
L 133.108516 152.610028 
L 133.291751 152.499154 
L 133.402842 152.441711 
L 133.604223 152.330636 
L 133.715314 152.264681 
L 133.907843 152.153795 
L 134.018935 152.087686 
L 134.20571 151.977002 
L 134.316802 151.906876 
L 134.490299 151.795824 
L 134.601391 151.730522 
L 134.812509 151.619789 
L 134.9236 151.558391 
L 135.096212 151.447949 
L 135.207304 151.378607 
L 135.403373 151.268082 
L 135.514465 151.199447 
L 135.691503 151.088538 
L 135.802595 151.023245 
L 135.988042 150.912181 
L 136.099133 150.847332 
L 136.273959 150.736637 
L 136.38505 150.673888 
L 136.566072 150.562802 
L 136.677163 150.500005 
L 136.880757 150.389433 
L 136.991848 150.32766 
L 137.183492 150.216705 
L 137.294584 150.145229 
L 137.477376 150.034133 
L 137.588467 149.967798 
L 137.773472 149.856965 
L 137.884563 149.791598 
L 138.072224 149.681018 
L 138.183315 149.613802 
L 138.351502 149.503008 
L 138.462593 149.437401 
L 138.655565 149.326447 
L 138.766656 149.257236 
L 138.950776 149.1464 
L 139.061867 149.079539 
L 139.23802 148.968555 
L 139.349112 148.906989 
L 139.523494 148.79618 
L 139.634586 148.733314 
L 139.821361 148.622411 
L 139.932453 148.55358 
L 140.114802 148.442756 
L 140.225893 148.374537 
L 140.40957 148.263936 
L 140.520662 148.195622 
L 140.691504 148.084614 
L 140.802595 148.018569 
L 140.992026 147.907908 
L 141.103117 147.838269 
L 141.277057 147.727747 
L 141.388149 147.665344 
L 141.568728 147.55471 
L 141.679819 147.485247 
L 141.863939 147.374478 
L 141.97503 147.302619 
L 142.148528 147.191858 
L 142.259619 147.11524 
L 142.439313 147.004567 
L 142.550405 146.936359 
L 142.711067 146.826277 
L 142.822158 146.751401 
L 142.969985 146.640766 
L 143.081076 146.573052 
L 143.249705 146.461949 
L 143.360797 146.390889 
L 143.515263 146.280039 
L 143.626354 146.214376 
L 143.781705 146.10424 
L 143.892796 146.038403 
L 144.090637 145.927354 
L 144.201728 145.854913 
L 144.376111 145.743831 
L 144.487202 145.668216 
L 144.666453 145.557133 
L 144.777545 145.490943 
L 144.96432 145.380135 
L 145.075411 145.303811 
L 145.2405 145.192748 
L 145.351148 145.1233 
L 145.524203 145.012453 
L 145.635295 144.938271 
L 145.802153 144.828201 
L 145.913245 144.759572 
L 146.081431 144.648659 
L 146.192522 144.581672 
L 146.361151 144.470997 
L 146.472243 144.393422 
L 146.640872 144.282536 
L 146.751963 144.217445 
L 146.931657 144.106447 
L 147.042748 144.036685 
L 147.201197 143.925673 
L 147.312289 143.854423 
L 147.472066 143.743522 
L 147.583157 143.668583 
L 147.742049 143.557775 
L 147.85314 143.486843 
L 148.030179 143.375825 
L 148.14127 143.29377 
L 148.298834 143.183676 
L 148.409925 143.10268 
L 148.58121 142.991597 
L 148.692301 142.924464 
L 148.862701 142.813572 
L 148.973792 142.738591 
L 149.132684 142.627606 
L 149.243775 142.558971 
L 149.396913 142.447864 
L 149.508005 142.374051 
L 149.666454 142.263048 
L 149.777545 142.184894 
L 149.957239 142.073923 
L 150.068331 141.994249 
L 150.238287 141.883229 
L 150.349379 141.798333 
L 150.506057 141.688045 
L 150.617149 141.607777 
L 150.795072 141.497215 
L 150.906164 141.422834 
L 151.061957 141.312616 
L 151.173049 141.246607 
L 151.339907 141.135601 
L 151.450999 141.060228 
L 151.60635 140.949225 
L 151.717441 140.876468 
L 151.883414 140.765491 
L 151.994506 140.697281 
L 152.156938 140.586594 
L 152.26803 140.508295 
L 152.432233 140.397216 
L 152.543324 140.306671 
L 152.697347 140.195562 
L 152.808439 140.117934 
L 152.956266 140.00731 
L 153.067357 139.936814 
L 153.21961 139.82592 
L 153.330702 139.753193 
L 153.499773 139.642159 
L 153.610422 139.568841 
L 153.771084 139.457982 
L 153.881733 139.381134 
L 154.036641 139.270477 
L 154.147733 139.19378 
L 154.305739 139.0827 
L 154.416831 139.001209 
L 154.577493 138.890119 
L 154.688584 138.817599 
L 154.844378 138.706972 
L 154.955469 138.626421 
L 155.109935 138.515978 
L 155.221027 138.435155 
L 155.383902 138.324071 
L 155.494551 138.24374 
L 155.645033 138.1335 
L 155.756125 138.051087 
L 155.923426 137.93998 
L 156.034517 137.861107 
L 156.196064 137.750228 
L 156.307156 137.676518 
L 156.482424 137.565801 
L 156.593515 137.488916 
L 156.743998 137.377924 
L 156.855089 137.297693 
L 157.014866 137.186726 
L 157.125515 137.105709 
L 157.282194 136.995053 
L 157.393285 136.921504 
L 157.549521 136.811065 
L 157.660613 136.734208 
L 157.807997 136.623285 
L 157.919088 136.54088 
L 158.060719 136.430149 
L 158.171368 136.344301 
L 158.323178 136.233729 
L 158.434269 136.1481 
L 158.581211 136.037201 
L 158.692303 135.957117 
L 158.842342 135.846435 
L 158.953434 135.756918 
L 159.095064 135.64581 
L 159.206156 135.559666 
L 159.350442 135.448771 
L 159.461533 135.370313 
L 159.608033 135.259263 
L 159.719124 135.179938 
L 159.870492 135.069193 
L 159.981583 134.988348 
L 160.12764 134.877243 
L 160.238731 134.797449 
L 160.394525 134.686505 
L 160.505616 134.596047 
L 160.638395 134.485129 
L 160.749486 134.409792 
L 160.888461 134.298699 
L 160.999553 134.212762 
L 161.155346 134.101794 
L 161.265995 134.033206 
L 161.41869 133.922668 
L 161.529782 133.836342 
L 161.683805 133.725448 
L 161.794897 133.638653 
L 161.953788 133.5277 
L 162.06488 133.432788 
L 162.212707 133.321682 
L 162.323798 133.24206 
L 162.476936 133.131591 
L 162.588028 133.046636 
L 162.736297 132.936075 
L 162.847389 132.850553 
L 162.989019 132.739656 
L 163.100111 132.657278 
L 163.249708 132.546171 
L 163.360799 132.453015 
L 163.519248 132.341978 
L 163.63034 132.246253 
L 163.767102 132.135385 
L 163.878193 132.047196 
L 164.011415 131.93647 
L 164.122506 131.853346 
L 164.258825 131.742332 
L 164.369917 131.656716 
L 164.495614 131.545614 
L 164.606705 131.455097 
L 164.735501 131.344341 
L 164.846592 131.254761 
L 164.983797 131.143739 
L 165.094888 131.05775 
L 165.225454 130.946921 
L 165.336545 130.847312 
L 165.486585 130.736243 
L 165.597677 130.648442 
L 165.739307 130.537427 
L 165.850399 130.444325 
L 165.994242 130.333484 
L 166.105334 130.246631 
L 166.253603 130.135647 
L 166.364694 130.055529 
L 166.496588 129.945436 
L 166.607679 129.847301 
L 166.750195 129.736271 
L 166.861287 129.643985 
L 167.001147 129.533168 
L 167.112238 129.442594 
L 167.256082 129.33201 
L 167.367173 129.242577 
L 167.501722 129.131857 
L 167.612814 129.039401 
L 167.721692 128.928493 
L 167.832784 128.833893 
L 167.967775 128.723096 
L 168.078867 128.628276 
L 168.213858 128.51725 
L 168.32495 128.429885 
L 168.457728 128.319021 
L 168.56882 128.228129 
L 168.69673 128.117305 
L 168.807821 128.016487 
L 168.954763 127.905657 
L 169.065854 127.813958 
L 169.196863 127.703065 
L 169.307954 127.60508 
L 169.45224 127.494177 
L 169.563332 127.398062 
L 169.696553 127.287341 
L 169.807644 127.184476 
L 169.942193 127.073383 
L 170.053285 126.984785 
L 170.184736 126.873762 
L 170.295827 126.770901 
L 170.417983 126.660236 
L 170.529075 126.548399 
L 170.664067 126.438066 
L 170.775158 126.342088 
L 170.8982 126.231205 
L 171.009291 126.138343 
L 171.145168 126.027331 
L 171.256259 125.938864 
L 171.381956 125.829006 
L 171.493048 125.726731 
L 171.622728 125.616421 
L 171.73382 125.517691 
L 171.876778 125.406604 
L 171.987869 125.31012 
L 172.101174 125.199381 
L 172.212265 125.099391 
L 172.338848 124.988664 
L 172.449939 124.892377 
L 172.566342 124.781523 
L 172.677433 124.671769 
L 172.800917 124.562777 
L 172.912009 124.449075 
L 173.021772 124.338196 
L 173.132864 124.240753 
L 173.253692 124.13008 
L 173.364784 124.028329 
L 173.488711 123.917409 
L 173.599802 123.8191 
L 173.72727 123.708203 
L 173.838361 123.606814 
L 173.963173 123.495771 
L 174.074264 123.384164 
L 174.195093 123.273543 
L 174.306184 123.178607 
L 174.428783 123.067629 
L 174.539875 122.969878 
L 174.665129 122.858874 
L 174.776221 122.748923 
L 174.903246 122.638223 
L 175.014337 122.536229 
L 175.136936 122.425152 
L 175.248027 122.322713 
L 175.365758 122.211617 
L 175.476849 122.09496 
L 175.588826 121.98448 
L 175.699917 121.883711 
L 175.811451 121.772908 
L 175.922543 121.672094 
L 176.037618 121.5612 
L 176.148709 121.455092 
L 176.25626 121.344179 
L 176.367351 121.24361 
L 176.489065 121.132538 
L 176.600156 121.02889 
L 176.702839 120.917877 
L 176.81393 120.802533 
L 176.93166 120.692578 
L 177.042752 120.583968 
L 177.159155 120.473073 
L 177.270246 120.365291 
L 177.375141 120.255085 
L 177.486233 120.155926 
L 177.593341 120.044851 
L 177.704432 119.925037 
L 177.823933 119.814633 
L 177.935024 119.69204 
L 178.042575 119.581824 
L 178.153666 119.472522 
L 178.268741 119.362049 
L 178.379833 119.241132 
L 178.488269 119.130747 
L 178.59936 119.026691 
L 178.726828 118.915641 
L 178.837919 118.798371 
L 178.945027 118.687503 
L 179.056119 118.581235 
L 179.154817 118.470438 
L 179.265909 118.3465 
L 179.380541 118.236253 
L 179.491632 118.113838 
L 179.612904 118.002764 
L 179.723995 117.893212 
L 179.828448 117.782797 
L 179.939539 117.662261 
L 180.052843 117.552408 
L 180.163935 117.416868 
L 180.275912 117.305763 
L 180.387003 117.191802 
L 180.494111 117.08102 
L 180.605203 116.975383 
L 180.719835 116.865149 
L 180.830926 116.736309 
L 180.927855 116.625462 
L 181.038946 116.501017 
L 181.147825 116.391634 
L 181.258916 116.261194 
L 181.364254 116.151529 
L 181.475345 116.058523 
L 181.585994 115.948015 
L 181.697086 115.818863 
L 181.787375 115.708273 
L 181.898466 115.589795 
L 182.00646 115.478843 
L 182.117109 115.35041 
L 182.223331 115.240438 
L 182.334423 115.099933 
L 182.453039 114.98958 
L 182.56413 114.870016 
L 182.660616 114.759217 
L 182.771707 114.628313 
L 182.875717 114.517612 
L 182.986809 114.38625 
L 183.097015 114.27661 
L 183.208106 114.143143 
L 183.316542 114.032546 
L 183.427634 113.894537 
L 183.529873 113.783553 
L 183.640965 113.671748 
L 183.742319 113.561264 
L 183.85341 113.435837 
L 183.949454 113.324872 
L 184.060545 113.185629 
L 184.150835 113.074555 
L 184.261926 112.94245 
L 184.365051 112.831549 
L 184.476142 112.711948 
L 184.570858 112.601202 
L 184.681949 112.470668 
L 184.780205 112.360361 
L 184.891297 112.234568 
L 184.989553 112.123733 
L 185.100644 111.99784 
L 185.189163 111.887194 
L 185.300255 111.75398 
L 185.412674 111.642903 
L 185.523766 111.499131 
L 185.604761 111.38833 
L 185.715852 111.261887 
L 185.806584 111.151114 
L 185.917676 111.028679 
L 186.018145 110.918781 
L 186.129236 110.79679 
L 186.219083 110.685681 
L 186.330175 110.554253 
L 186.416038 110.443217 
L 186.527129 110.304375 
L 186.618747 110.193562 
L 186.729838 110.058753 
L 186.824996 109.948154 
L 186.936088 109.799116 
L 187.023722 109.688513 
L 187.134813 109.552403 
L 187.210054 109.44132 
L 187.321146 109.29543 
L 187.41232 109.184599 
L 187.523412 109.045458 
L 187.616799 108.935052 
L 187.727891 108.797099 
L 187.819951 108.685999 
L 187.931042 108.537952 
L 188.025315 108.428733 
L 188.136406 108.295735 
L 188.230679 108.184625 
L 188.341771 108.057681 
L 188.439142 107.946744 
L 188.550233 107.820978 
L 188.644063 107.712206 
L 188.755155 107.562718 
L 188.84987 107.45207 
L 188.960962 107.318506 
L 189.04771 107.207862 
L 189.158802 107.092708 
L 189.242895 106.981701 
L 189.353987 106.829486 
L 189.443391 106.719076 
L 189.554482 106.56583 
L 189.635035 106.454887 
L 189.746126 106.312643 
L 189.832875 106.20293 
L 189.943966 106.054525 
L 190.02983 105.943847 
L 190.140921 105.800599 
L 190.230768 105.689853 
L 190.34186 105.540253 
L 190.432149 105.429184 
L 190.54324 105.284841 
L 190.622908 105.173769 
L 190.733999 105.015157 
L 190.812338 104.904793 
L 190.92343 104.762108 
L 191.00354 104.65174 
L 191.114631 104.517663 
L 191.192085 104.408051 
L 191.303177 104.256269 
L 191.385942 104.145262 
L 191.497034 103.977185 
L 191.582012 103.866807 
L 191.693103 103.699187 
L 191.765689 103.589591 
L 191.87678 103.441085 
L 191.944055 103.330083 
L 192.055146 103.17934 
L 192.141895 103.069405 
L 192.252987 102.914104 
L 192.33708 102.804129 
L 192.448171 102.637636 
L 192.527838 102.526579 
L 192.63893 102.369431 
L 192.71904 102.258323 
L 192.830131 102.092256 
L 192.897848 101.981498 
L 193.00894 101.82355 
L 193.096574 101.713741 
L 193.207665 101.562593 
L 193.276267 101.451567 
L 193.387359 101.290125 
L 193.457289 101.179087 
L 193.56838 101.018203 
L 193.647162 100.907094 
L 193.758254 100.759527 
L 193.833938 100.649101 
L 193.945029 100.504459 
L 194.021598 100.393703 
L 194.132689 100.232551 
L 194.207488 100.12166 
L 194.31858 99.943749 
L 194.395149 99.834988 
L 194.50624 99.651726 
L 194.578826 99.543737 
L 194.689917 99.355194 
L 194.768256 99.244551 
L 194.879348 99.078121 
L 194.944852 98.96849 
L 195.055943 98.793093 
L 195.123661 98.682185 
L 195.234752 98.512551 
L 195.303797 98.401742 
L 195.414888 98.215874 
L 195.484818 98.106013 
L 195.59591 97.924419 
L 195.662299 97.81577 
L 195.773391 97.641394 
L 195.8535 97.530533 
L 195.964592 97.359956 
L 196.029653 97.249879 
L 196.140745 97.06361 
L 196.215986 96.953849 
L 196.327078 96.769698 
L 196.391254 96.659797 
L 196.502345 96.460981 
L 196.569177 96.350192 
L 196.680269 96.177259 
L 196.754182 96.066882 
L 196.865274 95.861918 
L 196.9414 95.751545 
L 197.052492 95.566774 
L 197.125077 95.45595 
L 197.236169 95.274351 
L 197.303001 95.163416 
L 197.414092 94.952466 
L 197.474728 94.841829 
L 197.585819 94.639237 
L 197.658405 94.528905 
L 197.769496 94.318843 
L 197.834115 94.209687 
L 197.945206 94.037703 
L 198.009825 93.927775 
L 198.120917 93.740673 
L 198.183765 93.6308 
L 198.294857 93.424713 
L 198.350624 93.313638 
L 198.461715 93.108262 
L 198.51704 92.997294 
L 198.628131 92.776617 
L 198.690537 92.665856 
L 198.801629 92.461974 
L 198.864477 92.351941 
L 198.975569 92.169468 
L 199.041515 92.059742 
L 199.152607 91.862118 
L 199.223865 91.752279 
L 199.334956 91.53759 
L 199.399132 91.42673 
L 199.510224 91.205354 
L 199.565106 91.096063 
L 199.676197 90.873073 
L 199.7448 90.762406 
L 199.855891 90.549626 
L 199.908117 90.44015 
L 200.019209 90.23158 
L 200.078074 90.120704 
L 200.189165 89.93795 
L 200.243162 89.827287 
L 200.354253 89.594502 
L 200.408693 89.484607 
L 200.519784 89.270433 
L 200.577322 89.159962 
L 200.688413 88.94317 
L 200.75613 88.832116 
L 200.867222 88.625475 
L 200.915907 88.514473 
L 201.026999 88.317561 
L 201.080553 88.208144 
L 201.191644 88.014749 
L 201.258033 87.903728 
L 201.369125 87.687436 
L 201.424007 87.576455 
L 201.535098 87.329075 
L 201.591308 87.219189 
L 201.702399 86.985886 
L 201.76215 86.875276 
L 201.873241 86.663424 
L 201.925025 86.55267 
L 202.036116 86.33947 
L 202.092326 86.230537 
L 202.203417 86.013261 
L 202.257414 85.902601 
L 202.368505 85.680071 
L 202.418961 85.569197 
L 202.530053 85.332761 
L 202.582721 85.22404 
L 202.69337 84.972067 
L 202.754006 84.862396 
L 202.865097 84.625022 
L 202.915996 84.514801 
L 203.026202 84.268398 
L 203.082854 84.158549 
L 203.193946 83.917809 
L 203.246615 83.807478 
L 203.357706 83.566842 
L 203.401966 83.456822 
L 203.513057 83.213033 
L 203.562628 83.103043 
L 203.673719 82.866252 
L 203.714881 82.755441 
L 203.825529 82.537163 
L 203.871559 82.426122 
L 203.982651 82.191637 
L 204.034434 82.082113 
L 204.145526 81.823359 
L 204.189343 81.71893 
L 204.300434 81.474021 
L 204.348677 81.365236 
L 204.459769 81.124802 
L 204.506241 81.014418 
L 204.617333 80.739916 
L 204.667789 80.629103 
L 204.77888 80.362923 
L 204.82491 80.253895 
L 204.936001 80.007978 
L 204.991768 79.897216 
L 205.10286 79.633783 
L 205.155086 79.524622 
L 205.266178 79.232799 
L 205.319289 79.122111 
L 205.43038 78.833504 
L 205.485262 78.722668 
L 205.596354 78.427461 
L 205.639286 78.316946 
L 205.750377 77.986942 
L 205.793309 77.877268 
L 205.9044 77.57196 
L 205.947332 77.46122 
L 206.058423 77.178523 
L 206.104011 77.067713 
L 206.215102 76.799439 
L 206.258477 76.690054 
L 206.369568 76.383567 
L 206.416041 76.275802 
L 206.527132 75.977573 
L 206.575375 75.867004 
L 206.686466 75.513684 
L 206.728955 75.402753 
L 206.840047 75.125125 
L 206.881208 75.015108 
L 206.9923 74.695779 
L 207.035674 74.585463 
L 207.146766 74.295116 
L 207.189697 74.186066 
L 207.300789 73.901256 
L 207.338409 73.792508 
L 207.449501 73.468201 
L 207.484908 73.35729 
L 207.596 73.006318 
L 207.633621 72.897501 
L 207.744712 72.571084 
L 207.777907 72.464864 
L 207.888998 72.117273 
L 207.933258 72.006186 
L 208.044349 71.679727 
L 208.082412 71.569385 
L 208.193504 71.244307 
L 208.232895 71.133317 
L 208.343986 70.784219 
L 208.378509 70.674313 
L 208.4896 70.343422 
L 208.524565 70.234179 
L 208.635657 69.917213 
L 208.668409 69.807322 
L 208.7795 69.477272 
L 208.817121 69.369675 
L 208.928212 69.019868 
L 208.968931 68.90949 
L 209.080022 68.530935 
L 209.107906 68.422533 
L 209.218997 68.040282 
L 209.25352 67.929621 
L 209.364611 67.564386 
L 209.397806 67.456187 
L 209.508897 67.066333 
L 209.543862 66.956164 
L 209.654954 66.552041 
L 209.688591 66.441031 
L 209.799683 66.050143 
L 209.835533 65.940239 
L 209.946624 65.539557 
L 209.979819 65.428485 
L 210.09091 65.047714 
L 210.113925 64.937283 
L 210.225017 64.520738 
L 210.259539 64.409902 
L 210.370631 64.039985 
L 210.399399 63.930974 
L 210.510491 63.520743 
L 210.535276 63.409674 
L 210.646368 62.980495 
L 210.678235 62.873336 
L 210.789326 62.425047 
L 210.8088 62.319675 
L 210.919892 61.892843 
L 210.946447 61.782182 
L 211.057539 61.358081 
L 211.092061 61.247636 
L 211.203153 60.831897 
L 211.235905 60.723869 
L 211.346996 60.316048 
L 211.386387 60.209182 
L 211.497479 59.744622 
L 211.527133 59.634409 
L 211.638224 59.184435 
L 211.663452 59.077617 
L 211.774543 58.628647 
L 211.800657 58.519387 
L 211.911748 58.069116 
L 211.940959 57.963791 
L 212.052051 57.55193 
L 212.075508 57.446387 
L 212.1866 56.885412 
L 212.214926 56.777852 
L 212.326017 56.344309 
L 212.353016 56.23704 
L 212.464107 55.745556 
L 212.485352 55.637207 
L 212.596443 55.147452 
L 212.619901 55.040587 
L 212.730992 54.594341 
L 212.758433 54.487286 
L 212.869525 53.983141 
L 212.896523 53.872689 
L 213.007614 53.406442 
L 213.031514 53.301286 
L 213.142606 52.834189 
L 213.166063 52.725476 
L 213.277155 52.184022 
L 213.298842 52.072936 
L 213.409934 51.587781 
L 213.432063 51.480953 
L 213.543155 50.896886 
L 213.571923 50.786443 
L 213.683015 50.24878 
L 213.708243 50.138273 
L 213.819334 49.595922 
L 213.84766 49.485061 
L 213.958752 48.873682 
L 213.982652 48.762992 
L 214.093744 48.22121 
L 214.116316 48.115523 
L 214.227407 47.581692 
L 214.252193 47.470582 
L 214.363284 46.89468 
L 214.380988 46.785321 
L 214.492079 46.193273 
L 214.509783 46.088849 
L 214.620875 45.583296 
L 214.644775 45.472791 
L 214.755866 44.908348 
L 214.781094 44.80118 
L 214.892186 44.225973 
L 214.916971 44.11682 
L 215.028062 43.519659 
L 215.048864 43.410059 
L 215.159956 42.846162 
L 215.183856 42.737766 
L 215.294948 42.070168 
L 215.315307 41.961425 
L 215.426398 41.270033 
L 215.4472 41.161895 
L 215.558292 40.517296 
L 215.570684 40.40665 
L 215.681776 39.776511 
L 215.706561 39.668807 
L 215.817653 38.992098 
L 215.834914 38.888045 
L 215.945563 38.184569 
L 215.970348 38.075321 
L 216.08144 37.408422 
L 216.100471 37.297509 
L 216.211563 36.633427 
L 216.226611 36.524916 
L 216.337702 35.83392 
L 216.363815 35.725322 
L 216.474907 34.964563 
L 216.49084 34.85517 
L 216.601932 34.074059 
L 216.618308 33.967092 
L 216.729399 33.204078 
L 216.74489 33.093909 
L 216.855982 32.107721 
L 216.877226 31.998611 
L 216.988318 31.093512 
L 217.00071 30.984132 
L 217.111802 30.157365 
L 217.127735 30.055563 
L 217.238827 29.337108 
L 217.25299 29.23105 
L 217.364081 28.36613 
L 217.377359 28.256093 
L 217.48845 27.413647 
L 217.503941 27.30478 
L 217.615033 26.362232 
L 217.629196 26.256617 
L 217.740287 25.315126 
L 217.756663 25.206818 
L 217.867755 24.186834 
L 217.882803 24.077215 
L 217.993894 23.136373 
L 218.002746 23.026991 
L 218.113838 22.041982 
L 218.125788 21.933897 
L 218.236879 20.775732 
L 218.2506 20.67095 
L 218.361691 19.754835 
L 218.375412 19.651252 
L 218.486061 18.663378 
L 218.499338 18.569856 
L 218.61043 17.413859 
L 218.621052 17.30306 
L 218.732144 16.082173 
L 218.743651 15.971616 
L 218.854743 15.020523 
L 218.86802 14.909563 
L 218.979112 13.975816 
L 218.995488 13.864901 
L 219.106579 12.997038 
L 219.125168 12.889368 
L 219.23626 12.037187 
L 219.254406 11.929632 
L 219.354433 11.447056 
L 219.4341 11.337115 
L 219.545191 11.16313 
L 219.615122 11.05383 
L 219.625301 2.215283 
L 219.625301 2.215283 
" clip-path="url(#pb1c3aaf51b)" style="fill: none; stroke-dasharray: 7.5,1.5; stroke-dashoffset: 0; stroke: #ac7726; stroke-width: 1.5"/>
   </g>
   <g id="patch_3">
    <path d="M 43.78125 186.84327 
L 43.78125 10.999219 
" style="fill: none; stroke: #000000; stroke-width: 0.8; stroke-linejoin: miter; stroke-linecap: square"/>
   </g>
   <g id="patch_4">
    <path d="M 219.625301 186.84327 
L 219.625301 10.999219 
" style="fill: none; stroke: #000000; stroke-width: 0.8; stroke-linejoin: miter; stroke-linecap: square"/>
   </g>
   <g id="patch_5">
    <path d="M 43.78125 186.84327 
L 219.625301 186.84327 
" style="fill: none; stroke: #000000; stroke-width: 0.8; stroke-linejoin: miter; stroke-linecap: square"/>
   </g>
   <g id="patch_6">
    <path d="M 43.78125 10.999219 
L 219.625301 10.999219 
" style="fill: none; stroke: #000000; stroke-width: 0.8; stroke-linejoin: miter; stroke-linecap: square"/>
   </g>
   <g id="legend_1">
    <g id="patch_7">
     <path d="M 50.78125 48.355469 
L 127.757812 48.355469 
Q 129.757812 48.355469 129.757812 46.355469 
L 129.757812 17.999219 
Q 129.757812 15.999219 127.757812 15.999219 
L 50.78125 15.999219 
Q 48.78125 15.999219 48.78125 17.999219 
L 48.78125 46.355469 
Q 48.78125 48.355469 50.78125 48.355469 
z
" style="fill: #ffffff; opacity: 0.8; stroke: #cccccc; stroke-linejoin: miter"/>
    </g>
    <g id="line2d_15">
     <path d="M 52.78125 24.097656 
L 62.78125 24.097656 
L 62.78125 24.097656 
L 72.78125 24.097656 
L 72.78125 24.097656 
" style="fill: none; stroke: #67c7d5; stroke-width: 1.5; stroke-linecap: square"/>
    </g>
    <g id="text_15">
     <!-- ATL09 -->
     <g transform="translate(80.78125 27.597656) scale(0.1 -0.1)">
      <defs>
       <path id="DejaVuSans-41" d="M 2188 4044 
L 1331 1722 
L 3047 1722 
L 2188 4044 
z
M 1831 4666 
L 2547 4666 
L 4325 0 
L 3669 0 
L 3244 1197 
L 1141 1197 
L 716 0 
L 50 0 
L 1831 4666 
z
" transform="scale(0.015625)"/>
       <path id="DejaVuSans-54" d="M -19 4666 
L 3928 4666 
L 3928 4134 
L 2272 4134 
L 2272 0 
L 1638 0 
L 1638 4134 
L -19 4134 
L -19 4666 
z
" transform="scale(0.015625)"/>
       <path id="DejaVuSans-4c" d="M 628 4666 
L 1259 4666 
L 1259 531 
L 3531 531 
L 3531 0 
L 628 0 
L 628 4666 
z
" transform="scale(0.015625)"/>
       <path id="DejaVuSans-39" d="M 703 97 
L 703 672 
Q 941 559 1184 500 
Q 1428 441 1663 441 
Q 2288 441 2617 861 
Q 2947 1281 2994 2138 
Q 2813 1869 2534 1725 
Q 2256 1581 1919 1581 
Q 1219 1581 811 2004 
Q 403 2428 403 3163 
Q 403 3881 828 4315 
Q 1253 4750 1959 4750 
Q 2769 4750 3195 4129 
Q 3622 3509 3622 2328 
Q 3622 1225 3098 567 
Q 2575 -91 1691 -91 
Q 1453 -91 1209 -44 
Q 966 3 703 97 
z
M 1959 2075 
Q 2384 2075 2632 2365 
Q 2881 2656 2881 3163 
Q 2881 3666 2632 3958 
Q 2384 4250 1959 4250 
Q 1534 4250 1286 3958 
Q 1038 3666 1038 3163 
Q 1038 2656 1286 2365 
Q 1534 2075 1959 2075 
z
" transform="scale(0.015625)"/>
      </defs>
      <use xlink:href="#DejaVuSans-41"/>
      <use xlink:href="#DejaVuSans-54" transform="translate(60.658203 0)"/>
      <use xlink:href="#DejaVuSans-4c" transform="translate(121.742188 0)"/>
      <use xlink:href="#DejaVuSans-30" transform="translate(177.455078 0)"/>
      <use xlink:href="#DejaVuSans-39" transform="translate(241.078125 0)"/>
     </g>
    </g>
    <g id="line2d_16">
     <path d="M 52.78125 38.775781 
L 62.78125 38.775781 
L 62.78125 38.775781 
L 72.78125 38.775781 
L 72.78125 38.775781 
" style="fill: none; stroke-dasharray: 7.5,1.5; stroke-dashoffset: 0; stroke: #ac7726; stroke-width: 1.5"/>
    </g>
    <g id="text_16">
     <!-- Cloudnet -->
     <g transform="translate(80.78125 42.275781) scale(0.1 -0.1)">
      <defs>
       <path id="DejaVuSans-6c" d="M 603 4863 
L 1178 4863 
L 1178 0 
L 603 0 
L 603 4863 
z
" transform="scale(0.015625)"/>
       <path id="DejaVuSans-6f" d="M 1959 3097 
Q 1497 3097 1228 2736 
Q 959 2375 959 1747 
Q 959 1119 1226 758 
Q 1494 397 1959 397 
Q 2419 397 2687 759 
Q 2956 1122 2956 1747 
Q 2956 2369 2687 2733 
Q 2419 3097 1959 3097 
z
M 1959 3584 
Q 2709 3584 3137 3096 
Q 3566 2609 3566 1747 
Q 3566 888 3137 398 
Q 2709 -91 1959 -91 
Q 1206 -91 779 398 
Q 353 888 353 1747 
Q 353 2609 779 3096 
Q 1206 3584 1959 3584 
z
" transform="scale(0.015625)"/>
       <path id="DejaVuSans-75" d="M 544 1381 
L 544 3500 
L 1119 3500 
L 1119 1403 
Q 1119 906 1312 657 
Q 1506 409 1894 409 
Q 2359 409 2629 706 
Q 2900 1003 2900 1516 
L 2900 3500 
L 3475 3500 
L 3475 0 
L 2900 0 
L 2900 538 
Q 2691 219 2414 64 
Q 2138 -91 1772 -91 
Q 1169 -91 856 284 
Q 544 659 544 1381 
z
M 1991 3584 
L 1991 3584 
z
" transform="scale(0.015625)"/>
       <path id="DejaVuSans-64" d="M 2906 2969 
L 2906 4863 
L 3481 4863 
L 3481 0 
L 2906 0 
L 2906 525 
Q 2725 213 2448 61 
Q 2172 -91 1784 -91 
Q 1150 -91 751 415 
Q 353 922 353 1747 
Q 353 2572 751 3078 
Q 1150 3584 1784 3584 
Q 2172 3584 2448 3432 
Q 2725 3281 2906 2969 
z
M 947 1747 
Q 947 1113 1208 752 
Q 1469 391 1925 391 
Q 2381 391 2643 752 
Q 2906 1113 2906 1747 
Q 2906 2381 2643 2742 
Q 2381 3103 1925 3103 
Q 1469 3103 1208 2742 
Q 947 2381 947 1747 
z
" transform="scale(0.015625)"/>
       <path id="DejaVuSans-6e" d="M 3513 2113 
L 3513 0 
L 2938 0 
L 2938 2094 
Q 2938 2591 2744 2837 
Q 2550 3084 2163 3084 
Q 1697 3084 1428 2787 
Q 1159 2491 1159 1978 
L 1159 0 
L 581 0 
L 581 3500 
L 1159 3500 
L 1159 2956 
Q 1366 3272 1645 3428 
Q 1925 3584 2291 3584 
Q 2894 3584 3203 3211 
Q 3513 2838 3513 2113 
z
" transform="scale(0.015625)"/>
       <path id="DejaVuSans-65" d="M 3597 1894 
L 3597 1613 
L 953 1613 
Q 991 1019 1311 708 
Q 1631 397 2203 397 
Q 2534 397 2845 478 
Q 3156 559 3463 722 
L 3463 178 
Q 3153 47 2828 -22 
Q 2503 -91 2169 -91 
Q 1331 -91 842 396 
Q 353 884 353 1716 
Q 353 2575 817 3079 
Q 1281 3584 2069 3584 
Q 2775 3584 3186 3129 
Q 3597 2675 3597 1894 
z
M 3022 2063 
Q 3016 2534 2758 2815 
Q 2500 3097 2075 3097 
Q 1594 3097 1305 2825 
Q 1016 2553 972 2059 
L 3022 2063 
z
" transform="scale(0.015625)"/>
       <path id="DejaVuSans-74" d="M 1172 4494 
L 1172 3500 
L 2356 3500 
L 2356 3053 
L 1172 3053 
L 1172 1153 
Q 1172 725 1289 603 
Q 1406 481 1766 481 
L 2356 481 
L 2356 0 
L 1766 0 
Q 1100 0 847 248 
Q 594 497 594 1153 
L 594 3053 
L 172 3053 
L 172 3500 
L 594 3500 
L 594 4494 
L 1172 4494 
z
" transform="scale(0.015625)"/>
      </defs>
      <use xlink:href="#DejaVuSans-43"/>
      <use xlink:href="#DejaVuSans-6c" transform="translate(69.824219 0)"/>
      <use xlink:href="#DejaVuSans-6f" transform="translate(97.607422 0)"/>
      <use xlink:href="#DejaVuSans-75" transform="translate(158.789062 0)"/>
      <use xlink:href="#DejaVuSans-64" transform="translate(222.167969 0)"/>
      <use xlink:href="#DejaVuSans-6e" transform="translate(285.644531 0)"/>
      <use xlink:href="#DejaVuSans-65" transform="translate(349.023438 0)"/>
      <use xlink:href="#DejaVuSans-74" transform="translate(410.546875 0)"/>
     </g>
    </g>
   </g>
  </g>
 </g>
 <defs>
  <clipPath id="pb1c3aaf51b">
   <rect x="43.78125" y="10.999219" width="175.844051" height="175.844051"/>
  </clipPath>
 </defs>
</svg>
