<?xml version="1.0" encoding="utf-8" standalone="no"?>
<!DOCTYPE svg PUBLIC "-//W3C//DTD SVG 1.1//EN"
  "http://www.w3.org/Graphics/SVG/1.1/DTD/svg11.dtd">
<svg xmlns:xlink="http://www.w3.org/1999/xlink" width="288pt" height="216pt" viewBox="0 0 288 216" xmlns="http://www.w3.org/2000/svg" version="1.1">
 <metadata>
  <rdf:RDF xmlns:dc="http://purl.org/dc/elements/1.1/" xmlns:cc="http://creativecommons.org/ns#" xmlns:rdf="http://www.w3.org/1999/02/22-rdf-syntax-ns#">
   <cc:Work>
    <dc:type rdf:resource="http://purl.org/dc/dcmitype/StillImage"/>
    <dc:date>2025-11-27T17:02:00.592776</dc:date>
    <dc:format>image/svg+xml</dc:format>
    <dc:creator>
     <cc:Agent>
      <dc:title>Matplotlib v3.10.0, https://matplotlib.org/</dc:title>
     </cc:Agent>
    </dc:creator>
   </cc:Work>
  </rdf:RDF>
 </metadata>
 <defs>
  <style type="text/css">*{stroke-linejoin: round; stroke-linecap: butt}</style>
 </defs>
 <g id="figure_1">
  <g id="patch_1">
   <path d="M 0 216 
L 288 216 
L 288 0 
L 0 0 
L 0 216 
z
" style="fill: none"/>
  </g>
  <g id="axes_1">
   <g id="patch_2">
    <path d="M 56.077974 182.64351 
L 231.922026 182.64351 
L 231.922026 6.799459 
L 56.077974 6.799459 
L 56.077974 182.64351 
z
" style="fill: none"/>
   </g>
   <g id="matplotlib.axis_1">
    <g id="xtick_1">
     <g id="line2d_1">
      <defs>
       <path id="m3df34326b4" d="M 0 0 
L 0 3.5 
" style="stroke: #000000; stroke-width: 0.8"/>
      </defs>
      <g>
       <use xlink:href="#m3df34326b4" x="56.077974" y="182.64351" style="stroke: #000000; stroke-width: 0.8"/>
      </g>
     </g>
     <g id="text_1">
      <!-- 0.0 -->
      <g transform="translate(48.126412 197.241948) scale(0.1 -0.1)">
       <defs>
        <path id="DejaVuSans-30" d="M 2034 4250 
Q 1547 4250 1301 3770 
Q 1056 3291 1056 2328 
Q 1056 1369 1301 889 
Q 1547 409 2034 409 
Q 2525 409 2770 889 
Q 3016 1369 3016 2328 
Q 3016 3291 2770 3770 
Q 2525 4250 2034 4250 
z
M 2034 4750 
Q 2819 4750 3233 4129 
Q 3647 3509 3647 2328 
Q 3647 1150 3233 529 
Q 2819 -91 2034 -91 
Q 1250 -91 836 529 
Q 422 1150 422 2328 
Q 422 3509 836 4129 
Q 1250 4750 2034 4750 
z
" transform="scale(0.015625)"/>
        <path id="DejaVuSans-2e" d="M 684 794 
L 1344 794 
L 1344 0 
L 684 0 
L 684 794 
z
" transform="scale(0.015625)"/>
       </defs>
       <use xlink:href="#DejaVuSans-30"/>
       <use xlink:href="#DejaVuSans-2e" transform="translate(63.623047 0)"/>
       <use xlink:href="#DejaVuSans-30" transform="translate(95.410156 0)"/>
      </g>
     </g>
    </g>
    <g id="xtick_2">
     <g id="line2d_2">
      <g>
       <use xlink:href="#m3df34326b4" x="91.246785" y="182.64351" style="stroke: #000000; stroke-width: 0.8"/>
      </g>
     </g>
     <g id="text_2">
      <!-- 0.2 -->
      <g transform="translate(83.295222 197.241948) scale(0.1 -0.1)">
       <defs>
        <path id="DejaVuSans-32" d="M 1228 531 
L 3431 531 
L 3431 0 
L 469 0 
L 469 531 
Q 828 903 1448 1529 
Q 2069 2156 2228 2338 
Q 2531 2678 2651 2914 
Q 2772 3150 2772 3378 
Q 2772 3750 2511 3984 
Q 2250 4219 1831 4219 
Q 1534 4219 1204 4116 
Q 875 4013 500 3803 
L 500 4441 
Q 881 4594 1212 4672 
Q 1544 4750 1819 4750 
Q 2544 4750 2975 4387 
Q 3406 4025 3406 3419 
Q 3406 3131 3298 2873 
Q 3191 2616 2906 2266 
Q 2828 2175 2409 1742 
Q 1991 1309 1228 531 
z
" transform="scale(0.015625)"/>
       </defs>
       <use xlink:href="#DejaVuSans-30"/>
       <use xlink:href="#DejaVuSans-2e" transform="translate(63.623047 0)"/>
       <use xlink:href="#DejaVuSans-32" transform="translate(95.410156 0)"/>
      </g>
     </g>
    </g>
    <g id="xtick_3">
     <g id="line2d_3">
      <g>
       <use xlink:href="#m3df34326b4" x="126.415595" y="182.64351" style="stroke: #000000; stroke-width: 0.8"/>
      </g>
     </g>
     <g id="text_3">
      <!-- 0.4 -->
      <g transform="translate(118.464032 197.241948) scale(0.1 -0.1)">
       <defs>
        <path id="DejaVuSans-34" d="M 2419 4116 
L 825 1625 
L 2419 1625 
L 2419 4116 
z
M 2253 4666 
L 3047 4666 
L 3047 1625 
L 3713 1625 
L 3713 1100 
L 3047 1100 
L 3047 0 
L 2419 0 
L 2419 1100 
L 313 1100 
L 313 1709 
L 2253 4666 
z
" transform="scale(0.015625)"/>
       </defs>
       <use xlink:href="#DejaVuSans-30"/>
       <use xlink:href="#DejaVuSans-2e" transform="translate(63.623047 0)"/>
       <use xlink:href="#DejaVuSans-34" transform="translate(95.410156 0)"/>
      </g>
     </g>
    </g>
    <g id="xtick_4">
     <g id="line2d_4">
      <g>
       <use xlink:href="#m3df34326b4" x="161.584405" y="182.64351" style="stroke: #000000; stroke-width: 0.8"/>
      </g>
     </g>
     <g id="text_4">
      <!-- 0.6 -->
      <g transform="translate(153.632843 197.241948) scale(0.1 -0.1)">
       <defs>
        <path id="DejaVuSans-36" d="M 2113 2584 
Q 1688 2584 1439 2293 
Q 1191 2003 1191 1497 
Q 1191 994 1439 701 
Q 1688 409 2113 409 
Q 2538 409 2786 701 
Q 3034 994 3034 1497 
Q 3034 2003 2786 2293 
Q 2538 2584 2113 2584 
z
M 3366 4563 
L 3366 3988 
Q 3128 4100 2886 4159 
Q 2644 4219 2406 4219 
Q 1781 4219 1451 3797 
Q 1122 3375 1075 2522 
Q 1259 2794 1537 2939 
Q 1816 3084 2150 3084 
Q 2853 3084 3261 2657 
Q 3669 2231 3669 1497 
Q 3669 778 3244 343 
Q 2819 -91 2113 -91 
Q 1303 -91 875 529 
Q 447 1150 447 2328 
Q 447 3434 972 4092 
Q 1497 4750 2381 4750 
Q 2619 4750 2861 4703 
Q 3103 4656 3366 4563 
z
" transform="scale(0.015625)"/>
       </defs>
       <use xlink:href="#DejaVuSans-30"/>
       <use xlink:href="#DejaVuSans-2e" transform="translate(63.623047 0)"/>
       <use xlink:href="#DejaVuSans-36" transform="translate(95.410156 0)"/>
      </g>
     </g>
    </g>
    <g id="xtick_5">
     <g id="line2d_5">
      <g>
       <use xlink:href="#m3df34326b4" x="196.753215" y="182.64351" style="stroke: #000000; stroke-width: 0.8"/>
      </g>
     </g>
     <g id="text_5">
      <!-- 0.8 -->
      <g transform="translate(188.801653 197.241948) scale(0.1 -0.1)">
       <defs>
        <path id="DejaVuSans-38" d="M 2034 2216 
Q 1584 2216 1326 1975 
Q 1069 1734 1069 1313 
Q 1069 891 1326 650 
Q 1584 409 2034 409 
Q 2484 409 2743 651 
Q 3003 894 3003 1313 
Q 3003 1734 2745 1975 
Q 2488 2216 2034 2216 
z
M 1403 2484 
Q 997 2584 770 2862 
Q 544 3141 544 3541 
Q 544 4100 942 4425 
Q 1341 4750 2034 4750 
Q 2731 4750 3128 4425 
Q 3525 4100 3525 3541 
Q 3525 3141 3298 2862 
Q 3072 2584 2669 2484 
Q 3125 2378 3379 2068 
Q 3634 1759 3634 1313 
Q 3634 634 3220 271 
Q 2806 -91 2034 -91 
Q 1263 -91 848 271 
Q 434 634 434 1313 
Q 434 1759 690 2068 
Q 947 2378 1403 2484 
z
M 1172 3481 
Q 1172 3119 1398 2916 
Q 1625 2713 2034 2713 
Q 2441 2713 2670 2916 
Q 2900 3119 2900 3481 
Q 2900 3844 2670 4047 
Q 2441 4250 2034 4250 
Q 1625 4250 1398 4047 
Q 1172 3844 1172 3481 
z
" transform="scale(0.015625)"/>
       </defs>
       <use xlink:href="#DejaVuSans-30"/>
       <use xlink:href="#DejaVuSans-2e" transform="translate(63.623047 0)"/>
       <use xlink:href="#DejaVuSans-38" transform="translate(95.410156 0)"/>
      </g>
     </g>
    </g>
    <g id="xtick_6">
     <g id="line2d_6">
      <g>
       <use xlink:href="#m3df34326b4" x="231.922026" y="182.64351" style="stroke: #000000; stroke-width: 0.8"/>
      </g>
     </g>
     <g id="text_6">
      <!-- 1.0 -->
      <g transform="translate(223.970463 197.241948) scale(0.1 -0.1)">
       <defs>
        <path id="DejaVuSans-31" d="M 794 531 
L 1825 531 
L 1825 4091 
L 703 3866 
L 703 4441 
L 1819 4666 
L 2450 4666 
L 2450 531 
L 3481 531 
L 3481 0 
L 794 0 
L 794 531 
z
" transform="scale(0.015625)"/>
       </defs>
       <use xlink:href="#DejaVuSans-31"/>
       <use xlink:href="#DejaVuSans-2e" transform="translate(63.623047 0)"/>
       <use xlink:href="#DejaVuSans-30" transform="translate(95.410156 0)"/>
      </g>
     </g>
    </g>
    <g id="text_7">
     <!-- $u$, $v$ -->
     <g transform="translate(134.65 210.920073) scale(0.1 -0.1)">
      <defs>
       <path id="DejaVuSans-Oblique-75" d="M 428 1388 
L 838 3500 
L 1416 3500 
L 1006 1409 
Q 975 1256 961 1147 
Q 947 1038 947 966 
Q 947 700 1109 554 
Q 1272 409 1569 409 
Q 2031 409 2368 721 
Q 2706 1034 2809 1563 
L 3194 3500 
L 3769 3500 
L 3091 0 
L 2516 0 
L 2631 550 
Q 2388 244 2052 76 
Q 1716 -91 1338 -91 
Q 878 -91 622 161 
Q 366 413 366 863 
Q 366 956 381 1097 
Q 397 1238 428 1388 
z
" transform="scale(0.015625)"/>
       <path id="DejaVuSans-2c" d="M 750 794 
L 1409 794 
L 1409 256 
L 897 -744 
L 494 -744 
L 750 256 
L 750 794 
z
" transform="scale(0.015625)"/>
       <path id="DejaVuSans-20" transform="scale(0.015625)"/>
       <path id="DejaVuSans-Oblique-76" d="M 459 3500 
L 1069 3500 
L 1581 525 
L 3256 3500 
L 3866 3500 
L 1875 0 
L 1100 0 
L 459 3500 
z
" transform="scale(0.015625)"/>
      </defs>
      <use xlink:href="#DejaVuSans-Oblique-75" transform="translate(0 0.3125)"/>
      <use xlink:href="#DejaVuSans-2c" transform="translate(63.378906 0.3125)"/>
      <use xlink:href="#DejaVuSans-20" transform="translate(95.166016 0.3125)"/>
      <use xlink:href="#DejaVuSans-Oblique-76" transform="translate(126.953125 0.3125)"/>
     </g>
    </g>
   </g>
   <g id="matplotlib.axis_2">
    <g id="ytick_1">
     <g id="line2d_7">
      <defs>
       <path id="mfed44b062e" d="M 0 0 
L -3.5 0 
" style="stroke: #000000; stroke-width: 0.8"/>
      </defs>
      <g>
       <use xlink:href="#mfed44b062e" x="56.077974" y="182.64351" style="stroke: #000000; stroke-width: 0.8"/>
      </g>
     </g>
     <g id="text_8">
      <!-- 0.0 -->
      <g transform="translate(33.174849 186.442729) scale(0.1 -0.1)">
       <use xlink:href="#DejaVuSans-30"/>
       <use xlink:href="#DejaVuSans-2e" transform="translate(63.623047 0)"/>
       <use xlink:href="#DejaVuSans-30" transform="translate(95.410156 0)"/>
      </g>
     </g>
    </g>
    <g id="ytick_2">
     <g id="line2d_8">
      <g>
       <use xlink:href="#mfed44b062e" x="56.077974" y="147.4747" style="stroke: #000000; stroke-width: 0.8"/>
      </g>
     </g>
     <g id="text_9">
      <!-- 0.2 -->
      <g transform="translate(33.174849 151.273918) scale(0.1 -0.1)">
       <use xlink:href="#DejaVuSans-30"/>
       <use xlink:href="#DejaVuSans-2e" transform="translate(63.623047 0)"/>
       <use xlink:href="#DejaVuSans-32" transform="translate(95.410156 0)"/>
      </g>
     </g>
    </g>
    <g id="ytick_3">
     <g id="line2d_9">
      <g>
       <use xlink:href="#mfed44b062e" x="56.077974" y="112.305889" style="stroke: #000000; stroke-width: 0.8"/>
      </g>
     </g>
     <g id="text_10">
      <!-- 0.4 -->
      <g transform="translate(33.174849 116.105108) scale(0.1 -0.1)">
       <use xlink:href="#DejaVuSans-30"/>
       <use xlink:href="#DejaVuSans-2e" transform="translate(63.623047 0)"/>
       <use xlink:href="#DejaVuSans-34" transform="translate(95.410156 0)"/>
      </g>
     </g>
    </g>
    <g id="ytick_4">
     <g id="line2d_10">
      <g>
       <use xlink:href="#mfed44b062e" x="56.077974" y="77.137079" style="stroke: #000000; stroke-width: 0.8"/>
      </g>
     </g>
     <g id="text_11">
      <!-- 0.6 -->
      <g transform="translate(33.174849 80.936298) scale(0.1 -0.1)">
       <use xlink:href="#DejaVuSans-30"/>
       <use xlink:href="#DejaVuSans-2e" transform="translate(63.623047 0)"/>
       <use xlink:href="#DejaVuSans-36" transform="translate(95.410156 0)"/>
      </g>
     </g>
    </g>
    <g id="ytick_5">
     <g id="line2d_11">
      <g>
       <use xlink:href="#mfed44b062e" x="56.077974" y="41.968269" style="stroke: #000000; stroke-width: 0.8"/>
      </g>
     </g>
     <g id="text_12">
      <!-- 0.8 -->
      <g transform="translate(33.174849 45.767488) scale(0.1 -0.1)">
       <use xlink:href="#DejaVuSans-30"/>
       <use xlink:href="#DejaVuSans-2e" transform="translate(63.623047 0)"/>
       <use xlink:href="#DejaVuSans-38" transform="translate(95.410156 0)"/>
      </g>
     </g>
    </g>
    <g id="ytick_6">
     <g id="line2d_12">
      <g>
       <use xlink:href="#mfed44b062e" x="56.077974" y="6.799459" style="stroke: #000000; stroke-width: 0.8"/>
      </g>
     </g>
     <g id="text_13">
      <!-- 1.0 -->
      <g transform="translate(33.174849 10.598677) scale(0.1 -0.1)">
       <use xlink:href="#DejaVuSans-31"/>
       <use xlink:href="#DejaVuSans-2e" transform="translate(63.623047 0)"/>
       <use xlink:href="#DejaVuSans-30" transform="translate(95.410156 0)"/>
      </g>
     </g>
    </g>
    <g id="text_14">
     <!-- VCF -->
     <g transform="translate(27.095162 104.508984) rotate(-90) scale(0.1 -0.1)">
      <defs>
       <path id="DejaVuSans-56" d="M 1831 0 
L 50 4666 
L 709 4666 
L 2188 738 
L 3669 4666 
L 4325 4666 
L 2547 0 
L 1831 0 
z
" transform="scale(0.015625)"/>
       <path id="DejaVuSans-43" d="M 4122 4306 
L 4122 3641 
Q 3803 3938 3442 4084 
Q 3081 4231 2675 4231 
Q 1875 4231 1450 3742 
Q 1025 3253 1025 2328 
Q 1025 1406 1450 917 
Q 1875 428 2675 428 
Q 3081 428 3442 575 
Q 3803 722 4122 1019 
L 4122 359 
Q 3791 134 3420 21 
Q 3050 -91 2638 -91 
Q 1578 -91 968 557 
Q 359 1206 359 2328 
Q 359 3453 968 4101 
Q 1578 4750 2638 4750 
Q 3056 4750 3426 4639 
Q 3797 4528 4122 4306 
z
" transform="scale(0.015625)"/>
       <path id="DejaVuSans-46" d="M 628 4666 
L 3309 4666 
L 3309 4134 
L 1259 4134 
L 1259 2759 
L 3109 2759 
L 3109 2228 
L 1259 2228 
L 1259 0 
L 628 0 
L 628 4666 
z
" transform="scale(0.015625)"/>
      </defs>
      <use xlink:href="#DejaVuSans-56"/>
      <use xlink:href="#DejaVuSans-43" transform="translate(68.408203 0)"/>
      <use xlink:href="#DejaVuSans-46" transform="translate(138.232422 0)"/>
     </g>
    </g>
   </g>
   <g id="line2d_13">
    <path d="M 56.077974 191.431988 
L 56.078417 191.431988 
L 56.189508 182.642541 
L 61.397529 182.53149 
L 61.50862 182.527471 
L 64.817021 182.416372 
L 64.928113 182.412617 
L 67.554031 182.301537 
L 67.665123 182.295271 
L 69.722306 182.184166 
L 69.833398 182.178187 
L 71.639187 182.067092 
L 71.750279 182.060487 
L 73.312198 181.949384 
L 73.423289 181.940179 
L 74.832071 181.829117 
L 74.943162 181.818722 
L 76.249261 181.707636 
L 76.360353 181.69517 
L 77.542525 181.584076 
L 77.653617 181.573303 
L 78.762318 181.462208 
L 78.87341 181.451493 
L 79.974587 181.340387 
L 80.085679 181.328621 
L 81.106304 181.217573 
L 81.217395 181.204418 
L 82.216333 181.09341 
L 82.327424 181.080206 
L 83.257317 180.969126 
L 83.368409 180.956412 
L 84.273517 180.845315 
L 84.384608 180.832212 
L 85.303879 180.721173 
L 85.41497 180.706809 
L 86.278031 180.595905 
L 86.389123 180.579853 
L 87.243774 180.468777 
L 87.354866 180.453757 
L 88.18606 180.342749 
L 88.297152 180.32652 
L 89.084086 180.215495 
L 89.195178 180.200249 
L 89.975916 180.089191 
L 90.087008 180.073253 
L 90.901826 179.962209 
L 91.012917 179.94714 
L 91.76887 179.83606 
L 91.879962 179.818893 
L 92.593425 179.707863 
L 92.704517 179.690638 
L 93.46047 179.579556 
L 93.571561 179.563014 
L 94.286796 179.45206 
L 94.397887 179.436286 
L 95.098516 179.325188 
L 95.209607 179.308682 
L 95.922186 179.197584 
L 96.033277 179.18078 
L 96.728152 179.069673 
L 96.839243 179.050673 
L 97.530135 178.93963 
L 97.641226 178.920797 
L 98.310873 178.809806 
L 98.421965 178.790319 
L 99.093382 178.679263 
L 99.204473 178.66197 
L 99.854204 178.551315 
L 99.965295 178.531556 
L 100.614583 178.420607 
L 100.725674 178.402913 
L 101.37806 178.292008 
L 101.489151 178.273755 
L 102.142422 178.162671 
L 102.253513 178.14231 
L 102.872262 178.031263 
L 102.983353 178.010469 
L 103.595905 177.899373 
L 103.706997 177.879772 
L 104.29078 177.76873 
L 104.401872 177.747987 
L 104.995835 177.636881 
L 105.106926 177.617322 
L 105.699119 177.506432 
L 105.81021 177.485817 
L 106.415238 177.374732 
L 106.52633 177.351629 
L 107.103032 177.240688 
L 107.214123 177.221341 
L 107.786399 177.110285 
L 107.89749 177.089046 
L 108.477733 176.977977 
L 108.588824 176.95666 
L 109.138085 176.84562 
L 109.249177 176.824095 
L 109.802421 176.713266 
L 109.913513 176.688592 
L 110.452594 176.577686 
L 110.563685 176.55616 
L 111.131535 176.445059 
L 111.242627 176.421532 
L 111.786134 176.310486 
L 111.897225 176.2886 
L 112.432766 176.177661 
L 112.543857 176.151918 
L 113.0763 176.040982 
L 113.187391 176.017145 
L 113.706555 175.906283 
L 113.817647 175.881726 
L 114.332828 175.770788 
L 114.443919 175.745627 
L 114.986984 175.634626 
L 115.098076 175.609031 
L 115.602192 175.498062 
L 115.713283 175.473625 
L 116.257233 175.362522 
L 116.368324 175.339708 
L 116.88085 175.228645 
L 116.991941 175.20193 
L 117.50845 175.091065 
L 117.619542 175.065779 
L 118.075415 174.955349 
L 118.186506 174.927412 
L 118.688852 174.816308 
L 118.799944 174.791067 
L 119.277947 174.680141 
L 119.389038 174.654781 
L 119.873238 174.543924 
L 119.984329 174.516338 
L 120.480921 174.405287 
L 120.592013 174.381381 
L 121.06736 174.270457 
L 121.178452 174.245451 
L 121.630784 174.134343 
L 121.741876 174.106679 
L 122.22696 173.995616 
L 122.338052 173.968111 
L 122.81517 173.857077 
L 122.926261 173.828975 
L 123.412673 173.717865 
L 123.523765 173.68918 
L 123.996014 173.578099 
L 124.107106 173.551665 
L 124.580683 173.4406 
L 124.691774 173.41203 
L 125.143664 173.300931 
L 125.254756 173.273724 
L 125.691155 173.162632 
L 125.802246 173.133548 
L 126.228908 173.022534 
L 126.34 172.994469 
L 126.806495 172.88349 
L 126.917587 172.85639 
L 127.382754 172.745641 
L 127.493846 172.716967 
L 127.921836 172.605904 
L 128.032927 172.574745 
L 128.464015 172.463701 
L 128.575107 172.434513 
L 129.002211 172.323717 
L 129.113303 172.295303 
L 129.553242 172.184375 
L 129.664334 172.151847 
L 130.093651 172.040768 
L 130.204743 172.013689 
L 130.595112 171.90289 
L 130.706204 171.86986 
L 131.121801 171.758918 
L 131.232892 171.72919 
L 131.668406 171.61817 
L 131.779497 171.586322 
L 132.185357 171.475476 
L 132.296449 171.444222 
L 132.700539 171.333123 
L 132.81163 171.30273 
L 133.214834 171.191684 
L 133.325926 171.160644 
L 133.733556 171.049573 
L 133.844648 171.018794 
L 134.241213 170.907708 
L 134.352305 170.878175 
L 134.746215 170.767164 
L 134.857306 170.732606 
L 135.264494 170.621519 
L 135.375585 170.588784 
L 135.773036 170.477742 
L 135.884128 170.445176 
L 136.277595 170.334122 
L 136.388686 170.30439 
L 136.773302 170.193698 
L 136.884393 170.158979 
L 137.245994 170.04816 
L 137.357085 170.016069 
L 137.707178 169.905152 
L 137.81827 169.873506 
L 138.190492 169.762481 
L 138.301584 169.726262 
L 138.665397 169.615931 
L 138.776489 169.579568 
L 139.156678 169.468503 
L 139.26777 169.437508 
L 139.648402 169.32642 
L 139.759493 169.2914 
L 140.124192 169.18029 
L 140.235283 169.146847 
L 140.582721 169.035815 
L 140.693812 169.003552 
L 141.052314 168.89248 
L 141.163406 168.861404 
L 141.524564 168.750513 
L 141.635655 168.715461 
L 141.999911 168.604622 
L 142.111003 168.572281 
L 142.451801 168.461466 
L 142.562893 168.427548 
L 142.924936 168.316508 
L 143.036027 168.281376 
L 143.378596 168.170386 
L 143.489687 168.134831 
L 143.825617 168.024008 
L 143.936709 167.987635 
L 144.277507 167.876901 
L 144.388599 167.840141 
L 144.75551 167.729338 
L 144.866602 167.687582 
L 145.188811 167.576482 
L 145.299903 167.542235 
L 145.650438 167.431139 
L 145.76153 167.392094 
L 146.09746 167.281024 
L 146.208551 167.245728 
L 146.558644 167.134683 
L 146.669736 167.101358 
L 147.018943 166.990383 
L 147.130035 166.952735 
L 147.489422 166.841643 
L 147.600514 166.804085 
L 147.909888 166.693251 
L 148.02098 166.657048 
L 148.3485 166.546108 
L 148.459592 166.505944 
L 148.762327 166.395064 
L 148.873418 166.353978 
L 149.214659 166.242943 
L 149.325751 166.205972 
L 149.659025 166.095034 
L 149.770117 166.060716 
L 150.109587 165.9497 
L 150.220679 165.912441 
L 150.523414 165.801524 
L 150.634506 165.756898 
L 150.943437 165.645923 
L 151.054529 165.61015 
L 151.366116 165.499287 
L 151.477207 165.46027 
L 151.798089 165.349606 
L 151.90918 165.308611 
L 152.247766 165.197704 
L 152.358857 165.158445 
L 152.654069 165.047377 
L 152.76516 165.006583 
L 153.085156 164.89575 
L 153.196248 164.85793 
L 153.511818 164.747028 
L 153.62291 164.701143 
L 153.944234 164.590081 
L 154.055326 164.551008 
L 154.355848 164.439941 
L 154.466939 164.401491 
L 154.763921 164.290428 
L 154.875012 164.250392 
L 155.183501 164.139497 
L 155.294593 164.094276 
L 155.603525 163.983345 
L 155.714616 163.944524 
L 156.04435 163.833437 
L 156.155441 163.795701 
L 156.447554 163.684916 
L 156.558645 163.643928 
L 156.848988 163.532871 
L 156.96008 163.48701 
L 157.255291 163.376875 
L 157.366382 163.33535 
L 157.651856 163.224587 
L 157.762948 163.178069 
L 158.047094 163.067048 
L 158.158185 163.019984 
L 158.453839 162.909172 
L 158.564931 162.863639 
L 158.85306 162.752569 
L 158.964152 162.710174 
L 159.244757 162.599246 
L 159.355849 162.555686 
L 159.639995 162.444959 
L 159.751086 162.400148 
L 160.050281 162.289201 
L 160.161372 162.246954 
L 160.414979 162.135891 
L 160.526071 162.087044 
L 160.804021 161.976496 
L 160.915112 161.932364 
L 161.183325 161.821319 
L 161.294417 161.777508 
L 161.571039 161.666539 
L 161.68213 161.619036 
L 161.949458 161.508128 
L 162.060549 161.463794 
L 162.327877 161.352879 
L 162.438968 161.307117 
L 162.732409 161.19648 
L 162.843501 161.148277 
L 163.103747 161.037344 
L 163.214838 160.994009 
L 163.492788 160.882942 
L 163.60388 160.838946 
L 163.872978 160.728022 
L 163.984069 160.681015 
L 164.250069 160.570138 
L 164.36116 160.522655 
L 164.606358 160.411782 
L 164.71745 160.359372 
L 164.978581 160.248675 
L 165.089672 160.197911 
L 165.348148 160.086937 
L 165.45924 160.035786 
L 165.711962 159.925361 
L 165.823053 159.873357 
L 166.066923 159.762306 
L 166.178015 159.711723 
L 166.416131 159.600626 
L 166.527222 159.552336 
L 166.771093 159.441233 
L 166.882184 159.39082 
L 167.14243 159.279939 
L 167.253522 159.234694 
L 167.504916 159.123616 
L 167.616007 159.072376 
L 167.863418 158.961309 
L 167.974509 158.909417 
L 168.214396 158.798492 
L 168.325488 158.751116 
L 168.558293 158.640024 
L 168.669384 158.595262 
L 168.901747 158.484179 
L 169.012838 158.429331 
L 169.249627 158.31863 
L 169.360718 158.269617 
L 169.6099 158.158564 
L 169.720991 158.103696 
L 169.961763 157.992736 
L 170.072854 157.938878 
L 170.301234 157.827773 
L 170.412325 157.77067 
L 170.647343 157.659568 
L 170.758435 157.609113 
L 170.971766 157.498918 
L 171.082857 157.448043 
L 171.31522 157.336989 
L 171.426311 157.281354 
L 171.669296 157.170246 
L 171.780388 157.122122 
L 172.002571 157.011345 
L 172.113662 156.955966 
L 172.346467 156.844875 
L 172.457559 156.795112 
L 172.683725 156.684286 
L 172.794816 156.630814 
L 173.013459 156.520032 
L 173.12455 156.463694 
L 173.345405 156.353294 
L 173.456497 156.294879 
L 173.668057 156.183811 
L 173.779149 156.122837 
L 173.993365 156.011804 
L 174.104456 155.953123 
L 174.315574 155.842418 
L 174.426666 155.776456 
L 174.635128 155.665506 
L 174.74622 155.611802 
L 174.964862 155.501089 
L 175.075953 155.440104 
L 175.304775 155.329102 
L 175.415867 155.274682 
L 175.61946 155.164495 
L 175.730552 155.11006 
L 175.92972 154.999068 
L 176.040811 154.938284 
L 176.251929 154.827209 
L 176.363021 154.765234 
L 176.556878 154.654366 
L 176.667969 154.590688 
L 176.862268 154.479724 
L 176.97336 154.417974 
L 177.190674 154.307197 
L 177.301766 154.242405 
L 177.518637 154.131387 
L 177.629729 154.074055 
L 177.836864 153.963954 
L 177.947955 153.908263 
L 178.13473 153.797227 
L 178.245822 153.740367 
L 178.442777 153.629278 
L 178.553868 153.565854 
L 178.762331 153.454767 
L 178.873422 153.387848 
L 179.066394 153.276899 
L 179.177485 153.215775 
L 179.381964 153.1056 
L 179.493056 153.036334 
L 179.690453 152.925366 
L 179.801545 152.85873 
L 180.006909 152.748085 
L 180.118 152.682706 
L 180.301235 152.57162 
L 180.412326 152.507943 
L 180.607511 152.397205 
L 180.718602 152.328391 
L 180.910246 152.21728 
L 181.021338 152.149836 
L 181.20767 152.038774 
L 181.318762 151.979122 
L 181.504209 151.868124 
L 181.615301 151.806168 
L 181.805617 151.695271 
L 181.916708 151.63218 
L 182.111008 151.521342 
L 182.222099 151.456331 
L 182.39958 151.345583 
L 182.510671 151.268837 
L 182.692578 151.157839 
L 182.80367 151.091471 
L 182.975839 150.980798 
L 183.086931 150.920557 
L 183.27105 150.809512 
L 183.382142 150.730534 
L 183.56936 150.619694 
L 183.680451 150.552111 
L 183.865456 150.441178 
L 183.976547 150.372788 
L 184.158454 150.261737 
L 184.269546 150.184391 
L 184.449682 150.073847 
L 184.560773 150.006598 
L 184.731615 149.896169 
L 184.842707 149.819053 
L 185.027712 149.708072 
L 185.138803 149.635705 
L 185.324251 149.524723 
L 185.435342 149.455367 
L 185.60043 149.345278 
L 185.711522 149.271169 
L 185.873511 149.160627 
L 185.984603 149.090388 
L 186.158543 148.979464 
L 186.269634 148.911862 
L 186.440476 148.801079 
L 186.551568 148.727585 
L 186.714443 148.616501 
L 186.825534 148.536591 
L 186.988409 148.425694 
L 187.099501 148.349731 
L 187.257065 148.238783 
L 187.368156 148.156723 
L 187.5359 148.045794 
L 187.646991 147.962247 
L 187.812522 147.851244 
L 187.923613 147.780324 
L 188.084276 147.66971 
L 188.195367 147.592822 
L 188.357357 147.481898 
L 188.468448 147.402657 
L 188.643274 147.29166 
L 188.754365 147.212556 
L 188.908388 147.101717 
L 189.01948 147.023333 
L 189.180142 146.91225 
L 189.291233 146.836921 
L 189.450568 146.725934 
L 189.561659 146.650039 
L 189.72719 146.539053 
L 189.838281 146.464686 
L 189.976371 146.353652 
L 190.087463 146.278007 
L 190.237945 146.167226 
L 190.349036 146.091147 
L 190.493765 145.980127 
L 190.604857 145.894376 
L 190.7726 145.783272 
L 190.883692 145.697672 
L 191.043026 145.586656 
L 191.154118 145.509816 
L 191.297076 145.398773 
L 191.408167 145.306016 
L 191.564846 145.195122 
L 191.675938 145.118557 
L 191.834829 145.007792 
L 191.945921 144.926162 
L 192.11632 144.815271 
L 192.227412 144.72079 
L 192.377451 144.609909 
L 192.488543 144.520422 
L 192.631501 144.409596 
L 192.742593 144.317086 
L 192.891747 144.206123 
L 193.002839 144.119952 
L 193.153764 144.010126 
L 193.264855 143.923408 
L 193.407814 143.812582 
L 193.518905 143.722433 
L 193.653897 143.611466 
L 193.764988 143.521104 
L 193.900422 143.410466 
L 194.011514 143.324506 
L 194.137211 143.213629 
L 194.248302 143.131874 
L 194.379311 143.021106 
L 194.490402 142.931872 
L 194.626279 142.820876 
L 194.73737 142.737289 
L 194.870149 142.626597 
L 194.98124 142.530178 
L 195.124199 142.419244 
L 195.23529 142.332328 
L 195.375593 142.221546 
L 195.486684 142.132681 
L 195.617693 142.021714 
L 195.728784 141.923276 
L 195.862005 141.812206 
L 195.973097 141.718312 
L 196.090384 141.607552 
L 196.201476 141.51662 
L 196.326288 141.40598 
L 196.437379 141.315845 
L 196.569715 141.204956 
L 196.680807 141.115871 
L 196.814028 141.005839 
L 196.925119 140.90487 
L 197.046833 140.793844 
L 197.157925 140.693361 
L 197.299555 140.582291 
L 197.410647 140.485741 
L 197.541212 140.37475 
L 197.652304 140.280547 
L 197.778443 140.170289 
L 197.889535 140.059355 
L 198.015232 139.948959 
L 198.126323 139.850834 
L 198.253791 139.739754 
L 198.364882 139.639969 
L 198.485268 139.529722 
L 198.59636 139.42658 
L 198.71232 139.31557 
L 198.823411 139.210206 
L 198.929192 139.099492 
L 199.040283 138.988986 
L 199.167751 138.877913 
L 199.278842 138.779262 
L 199.399228 138.668345 
L 199.510319 138.564702 
L 199.628492 138.453604 
L 199.739584 138.353921 
L 199.859085 138.243356 
L 199.970176 138.146706 
L 200.094988 138.036554 
L 200.206079 137.931114 
L 200.320712 137.820266 
L 200.431803 137.718639 
L 200.5336 137.607993 
L 200.644691 137.50124 
L 200.76375 137.390166 
L 200.874841 137.271241 
L 200.979736 137.160159 
L 201.090385 137.054395 
L 201.206788 136.943438 
L 201.317879 136.836854 
L 201.426315 136.72632 
L 201.537406 136.624923 
L 201.652481 136.514299 
L 201.763573 136.394962 
L 201.875992 136.283855 
L 201.987083 136.166807 
L 202.096404 136.055763 
L 202.207496 135.94783 
L 202.314604 135.836976 
L 202.425695 135.723374 
L 202.521739 135.61232 
L 202.63283 135.495256 
L 202.74879 135.384348 
L 202.859882 135.273138 
L 202.97053 135.162334 
L 203.081622 135.048841 
L 203.1905 134.938433 
L 203.301592 134.809083 
L 203.409143 134.698154 
L 203.520234 134.571501 
L 203.6269 134.460822 
L 203.737991 134.35503 
L 203.840673 134.243991 
L 203.951765 134.125614 
L 204.050906 134.014766 
L 204.161997 133.895249 
L 204.264237 133.784621 
L 204.375328 133.670244 
L 204.475355 133.559558 
L 204.586446 133.44859 
L 204.68426 133.338036 
L 204.795351 133.219731 
L 204.882985 133.109161 
L 204.994077 132.987791 
L 205.088792 132.87732 
L 205.199884 132.757444 
L 205.29814 132.64661 
L 205.409231 132.515535 
L 205.499963 132.404507 
L 205.611055 132.290483 
L 205.707983 132.181064 
L 205.819075 132.057298 
L 205.913348 131.946262 
L 206.024439 131.808153 
L 206.112515 131.697046 
L 206.223607 131.569875 
L 206.311241 131.458881 
L 206.422332 131.318354 
L 206.513507 131.20758 
L 206.624598 131.075324 
L 206.719756 130.965134 
L 206.830848 130.834715 
L 206.928661 130.724102 
L 207.039753 130.586184 
L 207.135354 130.475654 
L 207.246445 130.33842 
L 207.338062 130.227437 
L 207.449154 130.101176 
L 207.544312 129.990689 
L 207.655403 129.860001 
L 207.751004 129.749299 
L 207.862095 129.605689 
L 207.943975 129.494887 
L 208.055067 129.349653 
L 208.159077 129.238682 
L 208.270168 129.102472 
L 208.35913 128.992141 
L 208.470221 128.838429 
L 208.564937 128.727541 
L 208.676028 128.571742 
L 208.752155 128.464256 
L 208.863246 128.318931 
L 208.946897 128.207843 
L 209.057988 128.055194 
L 209.136327 127.945484 
L 209.247419 127.794134 
L 209.34479 127.683091 
L 209.455881 127.541045 
L 209.531565 127.430533 
L 209.642657 127.290604 
L 209.726307 127.17995 
L 209.837399 127.02759 
L 209.923262 126.916962 
L 210.034354 126.771953 
L 210.121102 126.662969 
L 210.232194 126.503482 
L 210.322483 126.392491 
L 210.433575 126.248544 
L 210.518553 126.13761 
L 210.629644 125.985755 
L 210.711967 125.87523 
L 210.823059 125.715474 
L 210.896087 125.604544 
L 211.007178 125.437318 
L 211.088173 125.326984 
L 211.199265 125.158581 
L 211.27185 125.048203 
L 211.382942 124.891549 
L 211.448003 124.7811 
L 211.559095 124.597163 
L 211.632123 124.487795 
L 211.743215 124.32156 
L 211.821997 124.211842 
L 211.933088 124.043386 
L 212.008772 123.932557 
L 212.119863 123.788038 
L 212.18758 123.67722 
L 212.298672 123.492633 
L 212.353996 123.381645 
L 212.465088 123.205905 
L 212.545198 123.095738 
L 212.656289 122.903177 
L 212.724449 122.79286 
L 212.83554 122.607868 
L 212.906798 122.497096 
L 213.017889 122.329917 
L 213.090032 122.219687 
L 213.201124 122.061911 
L 213.27548 121.951336 
L 213.386571 121.765549 
L 213.468009 121.655326 
L 213.5791 121.486009 
L 213.649916 121.375244 
L 213.761007 121.17646 
L 213.824741 121.066173 
L 213.935832 120.870114 
L 214.00532 120.759478 
L 214.116411 120.59353 
L 214.180588 120.482607 
L 214.291679 120.309839 
L 214.357183 120.199095 
L 214.468275 119.991716 
L 214.529353 119.88296 
L 214.640444 119.690099 
L 214.707276 119.579226 
L 214.818368 119.388693 
L 214.881659 119.278588 
L 214.99275 119.069979 
L 215.046304 118.960514 
L 215.157396 118.75896 
L 215.219802 118.648078 
L 215.330893 118.435186 
L 215.39684 118.324298 
L 215.507931 118.099327 
L 215.568567 117.992519 
L 215.679658 117.78502 
L 215.73277 117.674578 
L 215.843861 117.439944 
L 215.897858 117.330811 
L 216.008949 117.130408 
L 216.062061 117.019447 
L 216.173152 116.796099 
L 216.229362 116.68669 
L 216.340453 116.465898 
L 216.394007 116.356644 
L 216.505099 116.148726 
L 216.560423 116.037789 
L 216.671515 115.82035 
L 216.725511 115.710124 
L 216.836603 115.48424 
L 216.89237 115.373261 
L 217.003461 115.144518 
L 217.053917 115.034477 
L 217.165009 114.821176 
L 217.223874 114.711593 
L 217.334965 114.476359 
L 217.390732 114.365798 
L 217.501824 114.143841 
L 217.556263 114.033756 
L 217.667354 113.812099 
L 217.721351 113.702512 
L 217.832443 113.45452 
L 217.880685 113.343989 
L 217.991777 113.106153 
L 218.037807 112.996802 
L 218.148898 112.747413 
L 218.202895 112.637091 
L 218.313986 112.394566 
L 218.358689 112.284128 
L 218.46978 112.032632 
L 218.521564 111.921879 
L 218.632655 111.680338 
L 218.67957 111.569392 
L 218.790662 111.323755 
L 218.833151 111.214041 
L 218.944242 110.936229 
L 218.986289 110.825199 
L 219.09738 110.57752 
L 219.146066 110.467969 
L 219.257157 110.20157 
L 219.298319 110.091501 
L 219.40941 109.808779 
L 219.450571 109.7004 
L 219.561663 109.421669 
L 219.610791 109.314624 
L 219.721882 109.038109 
L 219.770568 108.92929 
L 219.881659 108.657915 
L 219.936541 108.549523 
L 220.047633 108.275251 
L 220.091007 108.166195 
L 220.202099 107.918874 
L 220.242375 107.808115 
L 220.353466 107.520215 
L 220.395513 107.411447 
L 220.506604 107.108295 
L 220.542897 106.998268 
L 220.653988 106.746978 
L 220.693822 106.636194 
L 220.804914 106.351632 
L 220.846075 106.240972 
L 220.957166 105.902154 
L 220.994344 105.792105 
L 221.105436 105.499841 
L 221.143056 105.389215 
L 221.254148 105.101801 
L 221.289113 104.994856 
L 221.400204 104.656501 
L 221.444907 104.546679 
L 221.555998 104.261764 
L 221.592291 104.151419 
L 221.703382 103.842651 
L 221.748527 103.732127 
L 221.859618 103.395088 
L 221.896796 103.285181 
L 222.007888 102.959363 
L 222.040197 102.848585 
L 222.151289 102.511865 
L 222.185369 102.405382 
L 222.29646 102.070975 
L 222.33054 101.9606 
L 222.441631 101.570015 
L 222.474826 101.459293 
L 222.585918 101.11296 
L 222.61867 101.005531 
L 222.729761 100.652816 
L 222.762071 100.541797 
L 222.873162 100.185068 
L 222.905471 100.075454 
L 223.016563 99.719647 
L 223.037365 99.608945 
L 223.148456 99.227369 
L 223.184749 99.117099 
L 223.295841 98.696692 
L 223.327265 98.58574 
L 223.438356 98.156318 
L 223.462256 98.046321 
L 223.573348 97.670531 
L 223.603444 97.563077 
L 223.714536 97.177329 
L 223.745075 97.067428 
L 223.856166 96.650694 
L 223.887591 96.54146 
L 223.998682 96.098183 
L 224.029664 95.989263 
L 224.140755 95.532346 
L 224.172622 95.421595 
L 224.283714 94.976207 
L 224.315138 94.871516 
L 224.426229 94.402957 
L 224.455441 94.296018 
L 224.566532 93.895402 
L 224.59176 93.785324 
L 224.702851 93.344277 
L 224.727194 93.236282 
L 224.838286 92.807482 
L 224.865727 92.696994 
L 224.976818 92.206368 
L 225.003374 92.097138 
L 225.114465 91.658134 
L 225.135267 91.548287 
L 225.246359 91.079527 
L 225.269816 90.971971 
L 225.380908 90.472228 
L 225.402595 90.364636 
L 225.513686 89.867537 
L 225.540685 89.758048 
L 225.651776 89.215223 
L 225.677004 89.107957 
L 225.788096 88.558029 
L 225.815536 88.447264 
L 225.926628 87.952498 
L 225.951856 87.845439 
L 226.062947 87.297018 
L 226.080208 87.189747 
L 226.1913 86.599252 
L 226.213872 86.488278 
L 226.324964 85.982864 
L 226.350192 85.872886 
L 226.461283 85.36692 
L 226.482085 85.258593 
L 226.593177 84.687393 
L 226.61088 84.576919 
L 226.721972 84.020686 
L 226.735692 83.912008 
L 226.846784 83.2611 
L 226.866258 83.151803 
L 226.977349 82.625606 
L 226.995938 82.514818 
L 227.10703 81.856031 
L 227.128274 81.745159 
L 227.239366 81.111958 
L 227.256627 81.006277 
L 227.367719 80.328519 
L 227.385865 80.217462 
L 227.496956 79.500816 
L 227.520414 79.39316 
L 227.631505 78.677865 
L 227.651865 78.570689 
L 227.762956 77.748728 
L 227.779332 77.639832 
L 227.890424 76.909126 
L 227.905472 76.803475 
L 228.016564 75.961282 
L 228.035153 75.856785 
L 228.146244 75.01773 
L 228.16262 74.909968 
L 228.273711 74.092487 
L 228.289645 73.983667 
L 228.400736 73.199059 
L 228.415342 73.088945 
L 228.526433 72.176439 
L 228.544137 72.068249 
L 228.655229 71.244458 
L 228.668507 71.135461 
L 228.779598 70.26657 
L 228.795531 70.157332 
L 228.906623 69.231972 
L 228.919458 69.12451 
L 229.03055 68.067661 
L 229.0425 67.957239 
L 229.153591 66.928914 
L 229.164656 66.819289 
L 229.275748 65.7249 
L 229.283272 65.618491 
L 229.394363 64.53729 
L 229.408969 64.430198 
L 229.52006 63.416939 
L 229.530682 63.316285 
L 229.641774 62.140577 
L 229.651068 62.031162 
L 229.76216 60.880814 
L 229.773667 60.77047 
L 229.884759 59.475254 
L 229.89184 59.374949 
L 230.002932 57.960624 
L 230.014882 57.854033 
L 230.125973 56.422822 
L 230.13217 56.320237 
L 230.243261 54.751869 
L 230.249457 54.663707 
L 230.360549 52.955198 
L 230.364975 52.845595 
L 230.476066 50.918282 
L 230.48182 50.811718 
L 230.592912 49.01629 
L 230.600436 48.931425 
L 230.711527 46.938433 
L 230.719936 46.83753 
L 230.831028 44.588112 
L 230.837224 44.483653 
L 230.948316 42.304155 
L 230.954512 42.205201 
L 231.065603 39.747274 
L 231.07357 39.646959 
L 231.184662 36.894365 
L 231.190415 36.796731 
L 231.301507 33.913454 
L 231.30549 33.811963 
L 231.416582 30.651869 
L 231.421008 30.542824 
L 231.532099 26.457314 
L 231.535197 26.357164 
L 231.646289 21.889488 
L 231.649829 21.791263 
L 231.760921 16.896006 
L 231.764904 16.792099 
L 231.875996 10.386372 
L 231.877323 10.287855 
L 231.922026 -1 
L 231.922026 -1 
" clip-path="url(#pa74632c1f7)" style="fill: none; stroke: #67c7d5; stroke-width: 1.5; stroke-linecap: square"/>
   </g>
   <g id="line2d_14">
    <path d="M 56.077974 191.435206 
L 56.078417 191.435206 
L 56.189066 182.635527 
L 58.477284 182.524492 
L 58.58749 182.519894 
L 60.18703 182.408926 
L 60.297679 182.399117 
L 61.43869 182.28802 
L 61.548897 182.276977 
L 62.565538 182.165921 
L 62.67663 182.15446 
L 63.586163 182.04336 
L 63.696812 182.031207 
L 64.495254 181.920244 
L 64.606346 181.908088 
L 65.399034 181.796989 
L 65.510126 181.778703 
L 66.185084 181.668267 
L 66.296175 181.647814 
L 66.958741 181.536857 
L 67.069832 181.51629 
L 67.641665 181.405222 
L 67.752757 181.384706 
L 68.302903 181.273647 
L 68.413994 181.251541 
L 68.965911 181.140524 
L 69.07656 181.116813 
L 69.633345 181.005746 
L 69.743994 180.981132 
L 70.287943 180.87024 
L 70.39815 180.843703 
L 70.903151 180.732612 
L 71.014242 180.7087 
L 71.476755 180.597691 
L 71.587846 180.572 
L 72.085323 180.461107 
L 72.196415 180.431933 
L 72.71735 180.320855 
L 72.828441 180.28997 
L 73.282544 180.178898 
L 73.393636 180.151534 
L 73.851279 180.040599 
L 73.962371 180.016006 
L 74.382394 179.904919 
L 74.493485 179.870695 
L 74.931655 179.76006 
L 75.042746 179.729329 
L 75.467195 179.618311 
L 75.576516 179.592355 
L 76.002293 179.481257 
L 76.113384 179.450778 
L 76.485165 179.339694 
L 76.596256 179.311008 
L 76.998133 179.199939 
L 77.109224 179.168243 
L 77.51951 179.057183 
L 77.630602 179.026586 
L 78.014774 178.915612 
L 78.125866 178.884757 
L 78.5034 178.773774 
L 78.614491 178.738111 
L 78.993796 178.627105 
L 79.104887 178.594166 
L 79.515173 178.483474 
L 79.624937 178.448336 
L 80.003798 178.337239 
L 80.11489 178.308015 
L 80.480031 178.197118 
L 80.591123 178.16419 
L 80.933249 178.053239 
L 81.04434 178.019369 
L 81.396646 177.908266 
L 81.507738 177.874133 
L 81.875092 177.763103 
L 81.984856 177.728911 
L 82.332736 177.617815 
L 82.443827 177.582547 
L 82.773118 177.47169 
L 82.884209 177.435413 
L 83.233417 177.324418 
L 83.343181 177.29354 
L 83.696815 177.182459 
L 83.807906 177.148529 
L 84.150032 177.037561 
L 84.261124 176.996068 
L 84.580678 176.884993 
L 84.691769 176.84585 
L 85.018847 176.734857 
L 85.129939 176.698958 
L 85.451263 176.58788 
L 85.561469 176.546869 
L 85.92484 176.435813 
L 86.035932 176.394712 
L 86.362124 176.283606 
L 86.473216 176.251551 
L 86.818883 176.140575 
L 86.929974 176.102803 
L 87.244217 175.992091 
L 87.355309 175.950017 
L 87.689468 175.839105 
L 87.800117 175.799664 
L 88.110376 175.688592 
L 88.221468 175.648706 
L 88.531727 175.537595 
L 88.642819 175.498469 
L 88.944669 175.388068 
L 89.05576 175.352267 
L 89.365577 175.241301 
L 89.476668 175.199743 
L 89.802419 175.088682 
L 89.91351 175.048544 
L 90.226425 174.937861 
L 90.337517 174.896657 
L 90.640252 174.785583 
L 90.751343 174.740919 
L 91.050538 174.630277 
L 91.160744 174.584346 
L 91.458611 174.473291 
L 91.569702 174.430173 
L 91.892354 174.31908 
L 92.003446 174.273906 
L 92.278298 174.16297 
L 92.388946 174.122026 
L 92.678404 174.011104 
L 92.789495 173.967221 
L 93.086919 173.856502 
L 93.198011 173.80822 
L 93.488796 173.697138 
L 93.599888 173.646212 
L 93.897312 173.535138 
L 94.008403 173.492738 
L 94.298746 173.382015 
L 94.408952 173.339423 
L 94.713458 173.228705 
L 94.824106 173.184989 
L 95.113564 173.073975 
L 95.224655 173.028772 
L 95.481803 172.917754 
L 95.592895 172.872259 
L 95.88368 172.761172 
L 95.994771 172.714231 
L 96.25723 172.603208 
L 96.368322 172.560067 
L 96.625027 172.44909 
L 96.736119 172.401178 
L 97.029117 172.290205 
L 97.140208 172.237643 
L 97.415945 172.126715 
L 97.527037 172.080171 
L 97.796577 171.969125 
L 97.907669 171.927477 
L 98.159948 171.816526 
L 98.27104 171.765922 
L 98.534384 171.655036 
L 98.645475 171.615392 
L 98.911918 171.505424 
L 99.023009 171.449263 
L 99.300074 171.338208 
L 99.411166 171.29331 
L 99.671854 171.182761 
L 99.782946 171.137642 
L 100.029029 171.026772 
L 100.14012 170.979514 
L 100.411431 170.868513 
L 100.522523 170.821695 
L 100.769048 170.71076 
L 100.88014 170.663174 
L 101.15809 170.552173 
L 101.269181 170.506866 
L 101.525887 170.395802 
L 101.636978 170.34526 
L 101.899437 170.23429 
L 102.010529 170.188303 
L 102.265464 170.07724 
L 102.376555 170.027494 
L 102.624851 169.916768 
L 102.735942 169.865375 
L 103.010352 169.754314 
L 103.121443 169.70515 
L 103.387443 169.594042 
L 103.498092 169.541633 
L 103.743732 169.431192 
L 103.854824 169.377205 
L 104.113742 169.266215 
L 104.224834 169.215429 
L 104.452328 169.104848 
L 104.563419 169.050469 
L 104.815698 168.939692 
L 104.92679 168.887191 
L 105.183053 168.776674 
L 105.294144 168.726727 
L 105.541998 168.616183 
L 105.653089 168.562473 
L 105.906696 168.451693 
L 106.017788 168.405005 
L 106.270952 168.294094 
L 106.382044 168.240523 
L 106.63034 168.129427 
L 106.741431 168.087096 
L 106.999464 167.976012 
L 107.110556 167.927187 
L 107.342033 167.81625 
L 107.453125 167.772708 
L 107.700978 167.661696 
L 107.81207 167.61546 
L 108.053727 167.504388 
L 108.164818 167.460065 
L 108.391427 167.349278 
L 108.502518 167.302941 
L 108.749929 167.192401 
L 108.861021 167.140817 
L 109.100465 167.02971 
L 109.211556 166.979091 
L 109.471802 166.868233 
L 109.582894 166.814776 
L 109.842255 166.703756 
L 109.953346 166.654058 
L 110.210494 166.54306 
L 110.321586 166.487994 
L 110.567226 166.376973 
L 110.678318 166.327835 
L 110.924843 166.21731 
L 111.035935 166.162979 
L 111.285558 166.052356 
L 111.39665 165.998764 
L 111.645831 165.888855 
L 111.756923 165.835801 
L 111.99858 165.72472 
L 112.109671 165.675143 
L 112.348673 165.564175 
L 112.459764 165.513306 
L 112.705405 165.402323 
L 112.816496 165.344534 
L 113.055055 165.233635 
L 113.166146 165.179359 
L 113.409131 165.068474 
L 113.520223 165.014048 
L 113.7517 164.903667 
L 113.862792 164.857688 
L 114.100023 164.746607 
L 114.211114 164.69315 
L 114.451001 164.582154 
L 114.562092 164.527255 
L 114.825437 164.416218 
L 114.936528 164.364671 
L 115.16712 164.253667 
L 115.278212 164.202708 
L 115.501723 164.092005 
L 115.612814 164.03771 
L 115.830571 163.92672 
L 115.941662 163.879451 
L 116.188631 163.768387 
L 116.299722 163.707414 
L 116.524118 163.596796 
L 116.635209 163.541149 
L 116.871998 163.430163 
L 116.983089 163.371619 
L 117.203502 163.260604 
L 117.314593 163.213501 
L 117.535891 163.102713 
L 117.646983 163.048312 
L 117.88864 162.937523 
L 117.999731 162.886227 
L 118.235635 162.775218 
L 118.346726 162.717491 
L 118.566696 162.606611 
L 118.677787 162.549529 
L 118.898643 162.438472 
L 119.009734 162.380057 
L 119.237228 162.269091 
L 119.347877 162.214883 
L 119.556782 162.104003 
L 119.667873 162.058887 
L 119.89758 161.948132 
L 120.008672 161.897927 
L 120.256525 161.787161 
L 120.367617 161.732766 
L 120.588029 161.622068 
L 120.699121 161.56175 
L 120.946532 161.450651 
L 121.057623 161.395951 
L 121.283347 161.285483 
L 121.394438 161.227788 
L 121.622817 161.116796 
L 121.733466 161.061316 
L 121.95919 160.950318 
L 122.070281 160.891777 
L 122.300874 160.780909 
L 122.411965 160.726521 
L 122.613346 160.615626 
L 122.724437 160.55591 
L 122.95503 160.44483 
L 123.066121 160.388566 
L 123.301582 160.278141 
L 123.412673 160.218442 
L 123.65079 160.10738 
L 123.761881 160.04581 
L 123.965032 159.934737 
L 124.076124 159.880703 
L 124.292996 159.7698 
L 124.404087 159.716136 
L 124.619189 159.605108 
L 124.73028 159.553361 
L 124.95202 159.442354 
L 125.063112 159.385017 
L 125.268919 159.273977 
L 125.38001 159.214209 
L 125.573867 159.104022 
L 125.684958 159.047934 
L 125.887224 158.937102 
L 125.997873 158.886 
L 126.22758 158.776177 
L 126.338672 158.713089 
L 126.562182 158.602561 
L 126.672831 158.544576 
L 126.885277 158.433839 
L 126.996369 158.381849 
L 127.21324 158.270759 
L 127.324332 158.206426 
L 127.531466 158.095444 
L 127.642558 158.041445 
L 127.888641 157.930504 
L 127.999732 157.872705 
L 128.227227 157.762718 
L 128.337875 157.706357 
L 128.563156 157.596138 
L 128.674248 157.542636 
L 128.900414 157.4316 
L 129.011506 157.374921 
L 129.247852 157.264017 
L 129.358943 157.204641 
L 129.570504 157.09354 
L 129.681595 157.038577 
L 129.899352 156.928024 
L 130.010444 156.868613 
L 130.238823 156.757582 
L 130.349914 156.700728 
L 130.593342 156.589624 
L 130.704433 156.531391 
L 130.927501 156.42029 
L 131.038593 156.360279 
L 131.251924 156.249364 
L 131.363015 156.188333 
L 131.582542 156.077242 
L 131.693634 156.018501 
L 131.887491 155.907391 
L 131.998582 155.848544 
L 132.188898 155.737712 
L 132.29999 155.681287 
L 132.519074 155.570295 
L 132.630166 155.512553 
L 132.839071 155.401547 
L 132.950162 155.346492 
L 133.143134 155.235878 
L 133.254225 155.171379 
L 133.477736 155.060283 
L 133.588385 155.000541 
L 133.812781 154.889737 
L 133.923872 154.832645 
L 134.120385 154.721743 
L 134.231476 154.652423 
L 134.430644 154.54136 
L 134.541736 154.476418 
L 134.740904 154.365415 
L 134.851995 154.310309 
L 135.053818 154.199214 
L 135.16491 154.138422 
L 135.357439 154.027512 
L 135.46853 153.961036 
L 135.657961 153.850605 
L 135.769053 153.790007 
L 135.972204 153.679223 
L 136.083295 153.620144 
L 136.291758 153.509052 
L 136.402849 153.445325 
L 136.612197 153.33441 
L 136.723288 153.274652 
L 136.914932 153.163719 
L 137.026024 153.106199 
L 137.216782 152.995448 
L 137.327874 152.932643 
L 137.532353 152.821775 
L 137.643444 152.759197 
L 137.835531 152.64827 
L 137.946622 152.584908 
L 138.132512 152.474243 
L 138.243604 152.411135 
L 138.447198 152.300315 
L 138.558289 152.235369 
L 138.749048 152.124758 
L 138.860139 152.064522 
L 139.075683 151.953425 
L 139.186775 151.893609 
L 139.40763 151.782553 
L 139.518721 151.723672 
L 139.716561 151.612714 
L 139.827653 151.550774 
L 140.037886 151.439687 
L 140.148977 151.375788 
L 140.36098 151.264824 
L 140.472072 151.202177 
L 140.658404 151.091615 
L 140.769496 151.03004 
L 140.97309 150.919922 
L 141.084181 150.860477 
L 141.289546 150.750257 
L 141.400637 150.686446 
L 141.603346 150.575337 
L 141.714437 150.509751 
L 141.920244 150.398727 
L 142.031336 150.339916 
L 142.222094 150.228861 
L 142.333186 150.168337 
L 142.517305 150.057278 
L 142.628397 150.00398 
L 142.83022 149.893106 
L 142.941312 149.829394 
L 143.135611 149.718409 
L 143.246703 149.648699 
L 143.448969 149.537652 
L 143.56006 149.47824 
L 143.764539 149.36714 
L 143.875631 149.303191 
L 144.05798 149.192231 
L 144.169071 149.120497 
L 144.365584 149.009537 
L 144.476675 148.941323 
L 144.676286 148.830681 
L 144.787377 148.763317 
L 144.984775 148.652861 
L 145.095866 148.587923 
L 145.294149 148.476922 
L 145.405241 148.410268 
L 145.588475 148.299394 
L 145.699566 148.241951 
L 145.900947 148.130876 
L 146.012039 148.064921 
L 146.204568 147.954035 
L 146.315659 147.887926 
L 146.502435 147.777242 
L 146.613526 147.707116 
L 146.787023 147.596064 
L 146.898115 147.530762 
L 147.109233 147.420029 
L 147.220324 147.358631 
L 147.392937 147.248189 
L 147.504028 147.178847 
L 147.700098 147.068322 
L 147.811189 146.999687 
L 147.988227 146.888778 
L 148.099319 146.823485 
L 148.284766 146.712421 
L 148.395858 146.647572 
L 148.570683 146.536877 
L 148.681775 146.474128 
L 148.862796 146.363042 
L 148.973887 146.300245 
L 149.177481 146.189673 
L 149.288573 146.1279 
L 149.480217 146.016945 
L 149.591308 145.945469 
L 149.7741 145.834373 
L 149.885191 145.768038 
L 150.070196 145.657205 
L 150.181288 145.591838 
L 150.368948 145.481258 
L 150.48004 145.414042 
L 150.648226 145.303248 
L 150.759317 145.237641 
L 150.952289 145.126687 
L 151.063381 145.057476 
L 151.2475 144.94664 
L 151.358592 144.879779 
L 151.534745 144.768795 
L 151.645836 144.707229 
L 151.820219 144.59642 
L 151.93131 144.533554 
L 152.118085 144.422651 
L 152.229177 144.35382 
L 152.411526 144.242996 
L 152.522618 144.174777 
L 152.706295 144.064176 
L 152.817386 143.995862 
L 152.988228 143.884854 
L 153.09932 143.818809 
L 153.28875 143.708148 
L 153.399842 143.638509 
L 153.573782 143.527987 
L 153.684873 143.465584 
L 153.865452 143.35495 
L 153.976544 143.285487 
L 154.160663 143.174718 
L 154.271755 143.102859 
L 154.445252 142.992098 
L 154.556344 142.91548 
L 154.736037 142.804807 
L 154.847129 142.736599 
L 155.007791 142.626517 
L 155.118883 142.551641 
L 155.266709 142.441006 
L 155.377801 142.373292 
L 155.54643 142.262189 
L 155.657521 142.191129 
L 155.811987 142.080279 
L 155.923078 142.014616 
L 156.078429 141.90448 
L 156.189521 141.838643 
L 156.387361 141.727594 
L 156.498452 141.655153 
L 156.672835 141.544071 
L 156.783927 141.468456 
L 156.963178 141.357373 
L 157.074269 141.291183 
L 157.261044 141.180375 
L 157.372136 141.104051 
L 157.537224 140.992988 
L 157.647873 140.92354 
L 157.820928 140.812693 
L 157.932019 140.738511 
L 158.098878 140.628441 
L 158.209969 140.559812 
L 158.378155 140.448899 
L 158.489247 140.381912 
L 158.657876 140.271237 
L 158.768967 140.193662 
L 158.937596 140.082776 
L 159.048687 140.017685 
L 159.228381 139.906687 
L 159.339473 139.836925 
L 159.497922 139.725913 
L 159.609013 139.654663 
L 159.76879 139.543762 
L 159.879882 139.468823 
L 160.038773 139.358015 
L 160.149865 139.287083 
L 160.326903 139.176065 
L 160.437994 139.09401 
L 160.595558 138.983916 
L 160.70665 138.90292 
L 160.877934 138.791837 
L 160.989026 138.724704 
L 161.159425 138.613812 
L 161.270516 138.538831 
L 161.429408 138.427846 
L 161.5405 138.359211 
L 161.693638 138.248104 
L 161.804729 138.174291 
L 161.963178 138.063288 
L 162.07427 137.985134 
L 162.253963 137.874163 
L 162.365055 137.794489 
L 162.535012 137.683469 
L 162.646103 137.598573 
L 162.802782 137.488285 
L 162.913873 137.408017 
L 163.091797 137.297455 
L 163.202888 137.223074 
L 163.358682 137.112856 
L 163.469773 137.046847 
L 163.636632 136.935841 
L 163.747723 136.860468 
L 163.903074 136.749465 
L 164.014166 136.676708 
L 164.180139 136.565731 
L 164.29123 136.497521 
L 164.453663 136.386834 
L 164.564754 136.308535 
L 164.728957 136.197456 
L 164.840049 136.106911 
L 164.994072 135.995802 
L 165.105163 135.918174 
L 165.25299 135.80755 
L 165.364082 135.737054 
L 165.516334 135.62616 
L 165.627426 135.553433 
L 165.796497 135.442399 
L 165.907146 135.369081 
L 166.067808 135.258222 
L 166.178457 135.181374 
L 166.333366 135.070717 
L 166.444457 134.99402 
L 166.602464 134.88294 
L 166.713555 134.801449 
L 166.874217 134.690359 
L 166.985309 134.617839 
L 167.141102 134.507212 
L 167.252194 134.426661 
L 167.40666 134.316218 
L 167.517751 134.235395 
L 167.680626 134.124311 
L 167.791275 134.04398 
L 167.941757 133.93374 
L 168.052849 133.851327 
L 168.22015 133.74022 
L 168.331241 133.661347 
L 168.492789 133.550468 
L 168.60388 133.476758 
L 168.779148 133.366041 
L 168.890239 133.289156 
L 169.040722 133.178164 
L 169.151813 133.097933 
L 169.31159 132.986966 
L 169.422239 132.905949 
L 169.578918 132.795293 
L 169.690009 132.721744 
L 169.846246 132.611305 
L 169.957337 132.534448 
L 170.104721 132.423525 
L 170.215813 132.34112 
L 170.357443 132.230389 
L 170.468092 132.144541 
L 170.619902 132.033969 
L 170.730994 131.94834 
L 170.877936 131.837441 
L 170.989027 131.757357 
L 171.139067 131.646675 
L 171.250158 131.557158 
L 171.391789 131.44605 
L 171.50288 131.359906 
L 171.647166 131.249011 
L 171.758258 131.170553 
L 171.904757 131.059503 
L 172.015848 130.980178 
L 172.167216 130.869433 
L 172.278307 130.788588 
L 172.424364 130.677483 
L 172.535455 130.597689 
L 172.691249 130.486745 
L 172.80234 130.396287 
L 172.935119 130.285369 
L 173.046211 130.210032 
L 173.185186 130.098939 
L 173.296277 130.013002 
L 173.452071 129.902034 
L 173.562719 129.833446 
L 173.715415 129.722908 
L 173.826506 129.636582 
L 173.98053 129.525688 
L 174.091621 129.438893 
L 174.250513 129.32794 
L 174.361604 129.233028 
L 174.509431 129.121922 
L 174.620523 129.0423 
L 174.773661 128.931831 
L 174.884752 128.846876 
L 175.033021 128.736315 
L 175.144113 128.650793 
L 175.285743 128.539896 
L 175.396835 128.457518 
L 175.546432 128.346411 
L 175.657524 128.253255 
L 175.815973 128.142218 
L 175.927064 128.046493 
L 176.063826 127.935625 
L 176.174918 127.847436 
L 176.308139 127.73671 
L 176.41923 127.653586 
L 176.55555 127.542572 
L 176.666641 127.456956 
L 176.792338 127.345854 
L 176.90343 127.255337 
L 177.032225 127.144581 
L 177.143317 127.055001 
L 177.280521 126.943979 
L 177.391613 126.85799 
L 177.522178 126.747161 
L 177.63327 126.647552 
L 177.78331 126.536483 
L 177.894401 126.448682 
L 178.036031 126.337667 
L 178.147123 126.244565 
L 178.290966 126.133724 
L 178.402058 126.046871 
L 178.550327 125.935887 
L 178.661419 125.855769 
L 178.793312 125.745676 
L 178.904404 125.647541 
L 179.046919 125.536511 
L 179.158011 125.444225 
L 179.297871 125.333408 
L 179.408963 125.242834 
L 179.552806 125.13225 
L 179.663898 125.042817 
L 179.798447 124.932097 
L 179.909538 124.839641 
L 180.018416 124.728733 
L 180.129508 124.634133 
L 180.2645 124.523336 
L 180.375591 124.428516 
L 180.510583 124.31749 
L 180.621674 124.230125 
L 180.754453 124.119261 
L 180.865544 124.028369 
L 180.993454 123.917545 
L 181.104546 123.816727 
L 181.251487 123.705897 
L 181.362579 123.614198 
L 181.493587 123.503305 
L 181.604678 123.40532 
L 181.748965 123.294417 
L 181.860056 123.198302 
L 181.993277 123.087581 
L 182.104369 122.984716 
L 182.238918 122.873623 
L 182.350009 122.785025 
L 182.48146 122.674002 
L 182.592551 122.571141 
L 182.714708 122.460476 
L 182.825799 122.348639 
L 182.960791 122.238306 
L 183.071882 122.142328 
L 183.194924 122.031445 
L 183.306015 121.938583 
L 183.441892 121.827571 
L 183.552984 121.739104 
L 183.678681 121.629246 
L 183.789772 121.526971 
L 183.919453 121.416661 
L 184.030544 121.317931 
L 184.173502 121.206844 
L 184.284594 121.11036 
L 184.397898 120.999621 
L 184.50899 120.899631 
L 184.635572 120.788904 
L 184.746663 120.692617 
L 184.863066 120.581763 
L 184.974158 120.472009 
L 185.097642 120.363017 
L 185.208733 120.249315 
L 185.318497 120.138436 
L 185.429588 120.040993 
L 185.550417 119.93032 
L 185.661508 119.828569 
L 185.785435 119.717649 
L 185.896526 119.61934 
L 186.023994 119.508443 
L 186.135085 119.407054 
L 186.259897 119.296011 
L 186.370989 119.184404 
L 186.491817 119.073783 
L 186.602909 118.978847 
L 186.725508 118.867869 
L 186.836599 118.770118 
L 186.961854 118.659114 
L 187.072945 118.549163 
L 187.19997 118.438463 
L 187.311061 118.336469 
L 187.43366 118.225392 
L 187.544752 118.122953 
L 187.662482 118.011857 
L 187.773574 117.8952 
L 187.88555 117.78472 
L 187.996642 117.683951 
L 188.108176 117.573148 
L 188.219267 117.472334 
L 188.334342 117.36144 
L 188.445434 117.255332 
L 188.552984 117.144419 
L 188.664076 117.04385 
L 188.785789 116.932778 
L 188.896881 116.82913 
L 188.999563 116.718117 
L 189.110654 116.602773 
L 189.228385 116.492818 
L 189.339476 116.384208 
L 189.455879 116.273313 
L 189.56697 116.165531 
L 189.671865 116.055325 
L 189.782957 115.956166 
L 189.890065 115.845091 
L 190.001156 115.725277 
L 190.120657 115.614873 
L 190.231749 115.49228 
L 190.339299 115.382064 
L 190.450391 115.272762 
L 190.565466 115.162289 
L 190.676557 115.041372 
L 190.784993 114.930987 
L 190.896084 114.826931 
L 191.023552 114.715881 
L 191.134643 114.598611 
L 191.241751 114.487743 
L 191.352843 114.381475 
L 191.451542 114.270678 
L 191.562633 114.14674 
L 191.677265 114.036493 
L 191.788357 113.914078 
L 191.909628 113.803004 
L 192.020719 113.693452 
L 192.125172 113.583037 
L 192.236263 113.462501 
L 192.349568 113.352648 
L 192.460659 113.217108 
L 192.572636 113.106003 
L 192.683727 112.992042 
L 192.790835 112.88126 
L 192.901927 112.775623 
L 193.016559 112.665389 
L 193.127651 112.536549 
L 193.224579 112.425702 
L 193.33567 112.301257 
L 193.444549 112.191874 
L 193.55564 112.061434 
L 193.660978 111.951769 
L 193.77207 111.858763 
L 193.882718 111.748255 
L 193.99381 111.619103 
L 194.084099 111.508513 
L 194.195191 111.390035 
L 194.303184 111.279083 
L 194.413833 111.15065 
L 194.520056 111.040678 
L 194.631147 110.900173 
L 194.749763 110.78982 
L 194.860854 110.670256 
L 194.95734 110.559457 
L 195.068432 110.428553 
L 195.172442 110.317852 
L 195.283533 110.18649 
L 195.393739 110.07685 
L 195.504831 109.943383 
L 195.613267 109.832786 
L 195.724358 109.694777 
L 195.826598 109.583793 
L 195.937689 109.471988 
L 196.039043 109.361504 
L 196.150135 109.236077 
L 196.246178 109.125112 
L 196.357269 108.985869 
L 196.447559 108.874795 
L 196.55865 108.74269 
L 196.661775 108.631789 
L 196.772867 108.512188 
L 196.867582 108.401442 
L 196.978673 108.270908 
L 197.07693 108.160601 
L 197.188021 108.034808 
L 197.286277 107.923973 
L 197.397369 107.79808 
L 197.485888 107.687434 
L 197.596979 107.55422 
L 197.709399 107.443143 
L 197.82049 107.299371 
L 197.901485 107.18857 
L 198.012576 107.062127 
L 198.103308 106.951354 
L 198.2144 106.828919 
L 198.314869 106.719021 
L 198.425961 106.59703 
L 198.515807 106.485921 
L 198.626899 106.354493 
L 198.712762 106.243457 
L 198.823854 106.104615 
L 198.915471 105.993802 
L 199.026563 105.858993 
L 199.121721 105.748394 
L 199.232812 105.599356 
L 199.320446 105.488753 
L 199.431537 105.352643 
L 199.506779 105.24156 
L 199.61787 105.09567 
L 199.709045 104.984839 
L 199.820136 104.845698 
L 199.913524 104.735292 
L 200.024615 104.597339 
L 200.116675 104.486239 
L 200.227767 104.338192 
L 200.322039 104.228973 
L 200.433131 104.095975 
L 200.527404 103.984865 
L 200.638495 103.857921 
L 200.735866 103.746984 
L 200.846958 103.621218 
L 200.940788 103.512446 
L 201.051879 103.362958 
L 201.146595 103.25231 
L 201.257686 103.118746 
L 201.344435 103.008102 
L 201.455526 102.892948 
L 201.539619 102.781941 
L 201.650711 102.629726 
L 201.740115 102.519316 
L 201.851207 102.36607 
L 201.931759 102.255127 
L 202.04285 102.112883 
L 202.129599 102.00317 
L 202.240691 101.854765 
L 202.326554 101.744087 
L 202.437646 101.600839 
L 202.527492 101.490093 
L 202.638584 101.340493 
L 202.728873 101.229424 
L 202.839965 101.085081 
L 202.919632 100.974009 
L 203.030723 100.815397 
L 203.109063 100.705033 
L 203.220154 100.562348 
L 203.300264 100.45198 
L 203.411356 100.317903 
L 203.48881 100.208291 
L 203.599901 100.056509 
L 203.682667 99.945502 
L 203.793758 99.777425 
L 203.878736 99.667047 
L 203.989828 99.499427 
L 204.062413 99.389831 
L 204.173505 99.241325 
L 204.240779 99.130323 
L 204.351871 98.97958 
L 204.43862 98.869645 
L 204.549711 98.714344 
L 204.633804 98.604369 
L 204.744896 98.437876 
L 204.824563 98.326819 
L 204.935654 98.169671 
L 205.015764 98.058563 
L 205.126855 97.892496 
L 205.194573 97.781738 
L 205.305664 97.62379 
L 205.393298 97.513981 
L 205.504389 97.362833 
L 205.572992 97.251807 
L 205.684083 97.090365 
L 205.754013 96.979327 
L 205.865105 96.818443 
L 205.943887 96.707334 
L 206.054978 96.559767 
L 206.130662 96.449341 
L 206.241753 96.304699 
L 206.318322 96.193943 
L 206.429414 96.032791 
L 206.504212 95.9219 
L 206.615304 95.743989 
L 206.691873 95.635228 
L 206.802964 95.451966 
L 206.87555 95.343977 
L 206.986641 95.155434 
L 207.064981 95.044791 
L 207.176072 94.878361 
L 207.241576 94.76873 
L 207.352668 94.593333 
L 207.420385 94.482425 
L 207.531476 94.312791 
L 207.600521 94.201982 
L 207.711613 94.016114 
L 207.781543 93.906253 
L 207.892634 93.724659 
L 207.959024 93.61601 
L 208.070115 93.441634 
L 208.150225 93.330773 
L 208.261316 93.160196 
L 208.326378 93.050119 
L 208.437469 92.86385 
L 208.512711 92.754089 
L 208.623802 92.569938 
L 208.687978 92.460037 
L 208.79907 92.261221 
L 208.865902 92.150432 
L 208.976993 91.977499 
L 209.050907 91.867122 
L 209.161998 91.662158 
L 209.238124 91.551785 
L 209.349216 91.367014 
L 209.421802 91.25619 
L 209.532893 91.074591 
L 209.599725 90.963656 
L 209.710816 90.752706 
L 209.771452 90.642069 
L 209.882543 90.439477 
L 209.955129 90.329145 
L 210.06622 90.119083 
L 210.130839 90.009927 
L 210.241931 89.837943 
L 210.30655 89.728015 
L 210.417641 89.540913 
L 210.48049 89.43104 
L 210.591581 89.224953 
L 210.647348 89.113878 
L 210.75844 88.908502 
L 210.813764 88.797534 
L 210.924856 88.576857 
L 210.987262 88.466096 
L 211.098353 88.262214 
L 211.161202 88.152181 
L 211.272293 87.969708 
L 211.33824 87.859982 
L 211.449331 87.662358 
L 211.520589 87.552519 
L 211.631681 87.33783 
L 211.695857 87.22697 
L 211.806948 87.005594 
L 211.86183 86.896303 
L 211.972922 86.673313 
L 212.041524 86.562646 
L 212.152615 86.349866 
L 212.204842 86.24039 
L 212.315933 86.03182 
L 212.374798 85.920944 
L 212.48589 85.73819 
L 212.539886 85.627527 
L 212.650978 85.394742 
L 212.705417 85.284847 
L 212.816509 85.070673 
L 212.874046 84.960202 
L 212.985137 84.74341 
L 213.052854 84.632356 
L 213.163946 84.425715 
L 213.212631 84.314713 
L 213.323723 84.117801 
L 213.377277 84.008384 
L 213.488368 83.814989 
L 213.554758 83.703968 
L 213.665849 83.487676 
L 213.720731 83.376695 
L 213.831822 83.129315 
L 213.888032 83.019429 
L 213.999124 82.786126 
L 214.058874 82.675516 
L 214.169965 82.463664 
L 214.221749 82.35291 
L 214.33284 82.13971 
L 214.38905 82.030777 
L 214.500142 81.813501 
L 214.554138 81.702841 
L 214.66523 81.480311 
L 214.715686 81.369437 
L 214.826777 81.133001 
L 214.879446 81.02428 
L 214.990095 80.772307 
L 215.05073 80.662636 
L 215.161822 80.425262 
L 215.21272 80.315041 
L 215.322926 80.068638 
L 215.379579 79.958789 
L 215.49067 79.718049 
L 215.543339 79.607718 
L 215.65443 79.367082 
L 215.69869 79.257062 
L 215.809781 79.013273 
L 215.859352 78.903283 
L 215.970444 78.666492 
L 216.011605 78.555681 
L 216.122254 78.337403 
L 216.168284 78.226362 
L 216.279375 77.991877 
L 216.331159 77.882353 
L 216.44225 77.623599 
L 216.486067 77.51917 
L 216.597159 77.274261 
L 216.645402 77.165476 
L 216.756493 76.925042 
L 216.802966 76.814658 
L 216.914057 76.540156 
L 216.964513 76.429343 
L 217.075604 76.163163 
L 217.121634 76.054135 
L 217.232726 75.808218 
L 217.288493 75.697456 
L 217.399584 75.434023 
L 217.45181 75.324862 
L 217.562902 75.033039 
L 217.616013 74.922351 
L 217.727105 74.633744 
L 217.781987 74.522908 
L 217.893078 74.227701 
L 217.93601 74.117186 
L 218.047101 73.787182 
L 218.090033 73.677508 
L 218.201125 73.3722 
L 218.244056 73.26146 
L 218.355148 72.978763 
L 218.400735 72.867953 
L 218.511827 72.599679 
L 218.555201 72.490294 
L 218.666292 72.183807 
L 218.712765 72.076042 
L 218.823856 71.777813 
L 218.872099 71.667244 
L 218.983191 71.313924 
L 219.02568 71.202993 
L 219.136771 70.925365 
L 219.177933 70.815348 
L 219.289024 70.496019 
L 219.332398 70.385703 
L 219.44349 70.095356 
L 219.486422 69.986306 
L 219.597513 69.701496 
L 219.635134 69.592748 
L 219.746225 69.268441 
L 219.781633 69.15753 
L 219.892724 68.806558 
L 219.930345 68.697741 
L 220.041436 68.371324 
L 220.074631 68.265104 
L 220.185722 67.917513 
L 220.229982 67.806426 
L 220.341073 67.479967 
L 220.379137 67.369625 
L 220.490228 67.044547 
L 220.529619 66.933557 
L 220.640711 66.584459 
L 220.675233 66.474553 
L 220.786324 66.143662 
L 220.82129 66.034419 
L 220.932381 65.717453 
L 220.965133 65.607562 
L 221.076225 65.277512 
L 221.113845 65.169915 
L 221.224937 64.820108 
L 221.265655 64.70973 
L 221.376747 64.331175 
L 221.40463 64.222773 
L 221.515722 63.840522 
L 221.550244 63.729861 
L 221.661336 63.364626 
L 221.69453 63.256427 
L 221.805622 62.866573 
L 221.840587 62.756404 
L 221.951678 62.352281 
L 221.985316 62.241271 
L 222.096407 61.850383 
L 222.132257 61.740479 
L 222.243349 61.339797 
L 222.276543 61.228725 
L 222.387635 60.847954 
L 222.41065 60.737523 
L 222.521741 60.320978 
L 222.556264 60.210142 
L 222.667355 59.840225 
L 222.696124 59.731214 
L 222.807215 59.320983 
L 222.832001 59.209914 
L 222.943092 58.780735 
L 222.974959 58.673576 
L 223.08605 58.225287 
L 223.105525 58.119915 
L 223.216616 57.693083 
L 223.243172 57.582422 
L 223.354263 57.158321 
L 223.388786 57.047876 
L 223.499877 56.632137 
L 223.532629 56.524109 
L 223.643721 56.116288 
L 223.683112 56.009422 
L 223.794203 55.544862 
L 223.823857 55.434649 
L 223.934948 54.984675 
L 223.960176 54.877857 
L 224.071268 54.428887 
L 224.097381 54.319627 
L 224.208472 53.869356 
L 224.237684 53.764031 
L 224.348775 53.35217 
L 224.372233 53.246627 
L 224.483324 52.685652 
L 224.51165 52.578092 
L 224.622742 52.144549 
L 224.64974 52.03728 
L 224.760831 51.545796 
L 224.782076 51.437447 
L 224.893168 50.947692 
L 224.916625 50.840827 
L 225.027717 50.394581 
L 225.055157 50.287526 
L 225.166249 49.783381 
L 225.193247 49.672929 
L 225.304339 49.206682 
L 225.328239 49.101526 
L 225.43933 48.634429 
L 225.462788 48.525716 
L 225.573879 47.984262 
L 225.595566 47.873176 
L 225.706658 47.388021 
L 225.728788 47.281193 
L 225.839879 46.697126 
L 225.868648 46.586683 
L 225.979739 46.04902 
L 226.004967 45.938513 
L 226.116059 45.396162 
L 226.144385 45.285301 
L 226.255476 44.673922 
L 226.279376 44.563232 
L 226.390468 44.02145 
L 226.41304 43.915763 
L 226.524132 43.381932 
L 226.548917 43.270822 
L 226.660009 42.69492 
L 226.677712 42.585561 
L 226.788804 41.993513 
L 226.806508 41.889089 
L 226.917599 41.383536 
L 226.941499 41.273031 
L 227.052591 40.708588 
L 227.077819 40.60142 
L 227.18891 40.026213 
L 227.213695 39.91706 
L 227.324787 39.319899 
L 227.345589 39.210299 
L 227.45668 38.646402 
L 227.48058 38.538006 
L 227.591672 37.870408 
L 227.612031 37.761665 
L 227.723123 37.070273 
L 227.743925 36.962135 
L 227.855016 36.317536 
L 227.867409 36.20689 
L 227.9785 35.576751 
L 228.003286 35.469047 
L 228.114377 34.792338 
L 228.131638 34.688285 
L 228.242287 33.984809 
L 228.267073 33.875561 
L 228.378164 33.208662 
L 228.397196 33.097749 
L 228.508287 32.433667 
L 228.523335 32.325156 
L 228.634427 31.63416 
L 228.66054 31.525562 
L 228.771631 30.764803 
L 228.787565 30.65541 
L 228.898656 29.874299 
L 228.915032 29.767332 
L 229.026124 29.004318 
L 229.041615 28.894149 
L 229.152706 27.907961 
L 229.173951 27.798851 
L 229.285042 26.893752 
L 229.297435 26.784372 
L 229.408526 25.957605 
L 229.42446 25.855803 
L 229.535551 25.137348 
L 229.549714 25.03129 
L 229.660806 24.16637 
L 229.674083 24.056333 
L 229.785175 23.213887 
L 229.800666 23.10502 
L 229.911757 22.162472 
L 229.92592 22.056857 
L 230.037012 21.115366 
L 230.053388 21.007058 
L 230.164479 19.987074 
L 230.179527 19.877455 
L 230.290619 18.936613 
L 230.299471 18.827231 
L 230.410562 17.842222 
L 230.422512 17.734137 
L 230.533604 16.575972 
L 230.547324 16.47119 
L 230.658416 15.555075 
L 230.672136 15.451492 
L 230.782785 14.463618 
L 230.796063 14.370096 
L 230.907154 13.214099 
L 230.917777 13.1033 
L 231.028868 11.882413 
L 231.040376 11.771856 
L 231.151467 10.820763 
L 231.164745 10.709803 
L 231.275836 9.776056 
L 231.292212 9.665141 
L 231.403304 8.797278 
L 231.421893 8.689608 
L 231.532984 7.837427 
L 231.551131 7.729872 
L 231.651157 7.247296 
L 231.730824 7.137355 
L 231.841916 6.96337 
L 231.911846 6.85407 
L 231.922026 -1 
L 231.922026 -1 
" clip-path="url(#pa74632c1f7)" style="fill: none; stroke-dasharray: 7.5,1.5; stroke-dashoffset: 0; stroke: #ac7726; stroke-width: 1.5"/>
   </g>
   <g id="patch_3">
    <path d="M 56.077974 182.64351 
L 56.077974 6.799459 
" style="fill: none; stroke: #000000; stroke-width: 0.8; stroke-linejoin: miter; stroke-linecap: square"/>
   </g>
   <g id="patch_4">
    <path d="M 231.922026 182.64351 
L 231.922026 6.799459 
" style="fill: none; stroke: #000000; stroke-width: 0.8; stroke-linejoin: miter; stroke-linecap: square"/>
   </g>
   <g id="patch_5">
    <path d="M 56.077974 182.64351 
L 231.922026 182.64351 
" style="fill: none; stroke: #000000; stroke-width: 0.8; stroke-linejoin: miter; stroke-linecap: square"/>
   </g>
   <g id="patch_6">
    <path d="M 56.077974 6.799459 
L 231.922026 6.799459 
" style="fill: none; stroke: #000000; stroke-width: 0.8; stroke-linejoin: miter; stroke-linecap: square"/>
   </g>
   <g id="legend_1">
    <g id="patch_7">
     <path d="M 63.077974 44.155709 
L 140.054537 44.155709 
Q 142.054537 44.155709 142.054537 42.155709 
L 142.054537 13.799459 
Q 142.054537 11.799459 140.054537 11.799459 
L 63.077974 11.799459 
Q 61.077974 11.799459 61.077974 13.799459 
L 61.077974 42.155709 
Q 61.077974 44.155709 63.077974 44.155709 
z
" style="fill: #ffffff; opacity: 0.8; stroke: #cccccc; stroke-linejoin: miter"/>
    </g>
    <g id="line2d_15">
     <path d="M 65.077974 19.897896 
L 75.077974 19.897896 
L 75.077974 19.897896 
L 85.077974 19.897896 
L 85.077974 19.897896 
" style="fill: none; stroke: #67c7d5; stroke-width: 1.5; stroke-linecap: square"/>
    </g>
    <g id="text_15">
     <!-- ATL09 -->
     <g transform="translate(93.077974 23.397896) scale(0.1 -0.1)">
      <defs>
       <path id="DejaVuSans-41" d="M 2188 4044 
L 1331 1722 
L 3047 1722 
L 2188 4044 
z
M 1831 4666 
L 2547 4666 
L 4325 0 
L 3669 0 
L 3244 1197 
L 1141 1197 
L 716 0 
L 50 0 
L 1831 4666 
z
" transform="scale(0.015625)"/>
       <path id="DejaVuSans-54" d="M -19 4666 
L 3928 4666 
L 3928 4134 
L 2272 4134 
L 2272 0 
L 1638 0 
L 1638 4134 
L -19 4134 
L -19 4666 
z
" transform="scale(0.015625)"/>
       <path id="DejaVuSans-4c" d="M 628 4666 
L 1259 4666 
L 1259 531 
L 3531 531 
L 3531 0 
L 628 0 
L 628 4666 
z
" transform="scale(0.015625)"/>
       <path id="DejaVuSans-39" d="M 703 97 
L 703 672 
Q 941 559 1184 500 
Q 1428 441 1663 441 
Q 2288 441 2617 861 
Q 2947 1281 2994 2138 
Q 2813 1869 2534 1725 
Q 2256 1581 1919 1581 
Q 1219 1581 811 2004 
Q 403 2428 403 3163 
Q 403 3881 828 4315 
Q 1253 4750 1959 4750 
Q 2769 4750 3195 4129 
Q 3622 3509 3622 2328 
Q 3622 1225 3098 567 
Q 2575 -91 1691 -91 
Q 1453 -91 1209 -44 
Q 966 3 703 97 
z
M 1959 2075 
Q 2384 2075 2632 2365 
Q 2881 2656 2881 3163 
Q 2881 3666 2632 3958 
Q 2384 4250 1959 4250 
Q 1534 4250 1286 3958 
Q 1038 3666 1038 3163 
Q 1038 2656 1286 2365 
Q 1534 2075 1959 2075 
z
" transform="scale(0.015625)"/>
      </defs>
      <use xlink:href="#DejaVuSans-41"/>
      <use xlink:href="#DejaVuSans-54" transform="translate(60.658203 0)"/>
      <use xlink:href="#DejaVuSans-4c" transform="translate(121.742188 0)"/>
      <use xlink:href="#DejaVuSans-30" transform="translate(177.455078 0)"/>
      <use xlink:href="#DejaVuSans-39" transform="translate(241.078125 0)"/>
     </g>
    </g>
    <g id="line2d_16">
     <path d="M 65.077974 34.576021 
L 75.077974 34.576021 
L 75.077974 34.576021 
L 85.077974 34.576021 
L 85.077974 34.576021 
" style="fill: none; stroke-dasharray: 7.5,1.5; stroke-dashoffset: 0; stroke: #ac7726; stroke-width: 1.5"/>
    </g>
    <g id="text_16">
     <!-- Cloudnet -->
     <g transform="translate(93.077974 38.076021) scale(0.1 -0.1)">
      <defs>
       <path id="DejaVuSans-6c" d="M 603 4863 
L 1178 4863 
L 1178 0 
L 603 0 
L 603 4863 
z
" transform="scale(0.015625)"/>
       <path id="DejaVuSans-6f" d="M 1959 3097 
Q 1497 3097 1228 2736 
Q 959 2375 959 1747 
Q 959 1119 1226 758 
Q 1494 397 1959 397 
Q 2419 397 2687 759 
Q 2956 1122 2956 1747 
Q 2956 2369 2687 2733 
Q 2419 3097 1959 3097 
z
M 1959 3584 
Q 2709 3584 3137 3096 
Q 3566 2609 3566 1747 
Q 3566 888 3137 398 
Q 2709 -91 1959 -91 
Q 1206 -91 779 398 
Q 353 888 353 1747 
Q 353 2609 779 3096 
Q 1206 3584 1959 3584 
z
" transform="scale(0.015625)"/>
       <path id="DejaVuSans-75" d="M 544 1381 
L 544 3500 
L 1119 3500 
L 1119 1403 
Q 1119 906 1312 657 
Q 1506 409 1894 409 
Q 2359 409 2629 706 
Q 2900 1003 2900 1516 
L 2900 3500 
L 3475 3500 
L 3475 0 
L 2900 0 
L 2900 538 
Q 2691 219 2414 64 
Q 2138 -91 1772 -91 
Q 1169 -91 856 284 
Q 544 659 544 1381 
z
M 1991 3584 
L 1991 3584 
z
" transform="scale(0.015625)"/>
       <path id="DejaVuSans-64" d="M 2906 2969 
L 2906 4863 
L 3481 4863 
L 3481 0 
L 2906 0 
L 2906 525 
Q 2725 213 2448 61 
Q 2172 -91 1784 -91 
Q 1150 -91 751 415 
Q 353 922 353 1747 
Q 353 2572 751 3078 
Q 1150 3584 1784 3584 
Q 2172 3584 2448 3432 
Q 2725 3281 2906 2969 
z
M 947 1747 
Q 947 1113 1208 752 
Q 1469 391 1925 391 
Q 2381 391 2643 752 
Q 2906 1113 2906 1747 
Q 2906 2381 2643 2742 
Q 2381 3103 1925 3103 
Q 1469 3103 1208 2742 
Q 947 2381 947 1747 
z
" transform="scale(0.015625)"/>
       <path id="DejaVuSans-6e" d="M 3513 2113 
L 3513 0 
L 2938 0 
L 2938 2094 
Q 2938 2591 2744 2837 
Q 2550 3084 2163 3084 
Q 1697 3084 1428 2787 
Q 1159 2491 1159 1978 
L 1159 0 
L 581 0 
L 581 3500 
L 1159 3500 
L 1159 2956 
Q 1366 3272 1645 3428 
Q 1925 3584 2291 3584 
Q 2894 3584 3203 3211 
Q 3513 2838 3513 2113 
z
" transform="scale(0.015625)"/>
       <path id="DejaVuSans-65" d="M 3597 1894 
L 3597 1613 
L 953 1613 
Q 991 1019 1311 708 
Q 1631 397 2203 397 
Q 2534 397 2845 478 
Q 3156 559 3463 722 
L 3463 178 
Q 3153 47 2828 -22 
Q 2503 -91 2169 -91 
Q 1331 -91 842 396 
Q 353 884 353 1716 
Q 353 2575 817 3079 
Q 1281 3584 2069 3584 
Q 2775 3584 3186 3129 
Q 3597 2675 3597 1894 
z
M 3022 2063 
Q 3016 2534 2758 2815 
Q 2500 3097 2075 3097 
Q 1594 3097 1305 2825 
Q 1016 2553 972 2059 
L 3022 2063 
z
" transform="scale(0.015625)"/>
       <path id="DejaVuSans-74" d="M 1172 4494 
L 1172 3500 
L 2356 3500 
L 2356 3053 
L 1172 3053 
L 1172 1153 
Q 1172 725 1289 603 
Q 1406 481 1766 481 
L 2356 481 
L 2356 0 
L 1766 0 
Q 1100 0 847 248 
Q 594 497 594 1153 
L 594 3053 
L 172 3053 
L 172 3500 
L 594 3500 
L 594 4494 
L 1172 4494 
z
" transform="scale(0.015625)"/>
      </defs>
      <use xlink:href="#DejaVuSans-43"/>
      <use xlink:href="#DejaVuSans-6c" transform="translate(69.824219 0)"/>
      <use xlink:href="#DejaVuSans-6f" transform="translate(97.607422 0)"/>
      <use xlink:href="#DejaVuSans-75" transform="translate(158.789062 0)"/>
      <use xlink:href="#DejaVuSans-64" transform="translate(222.167969 0)"/>
      <use xlink:href="#DejaVuSans-6e" transform="translate(285.644531 0)"/>
      <use xlink:href="#DejaVuSans-65" transform="translate(349.023438 0)"/>
      <use xlink:href="#DejaVuSans-74" transform="translate(410.546875 0)"/>
     </g>
    </g>
   </g>
  </g>
 </g>
 <defs>
  <clipPath id="pa74632c1f7">
   <rect x="56.077974" y="6.799459" width="175.844051" height="175.844051"/>
  </clipPath>
 </defs>
</svg>
