<?xml version="1.0" encoding="utf-8" standalone="no"?>
<!DOCTYPE svg PUBLIC "-//W3C//DTD SVG 1.1//EN"
  "http://www.w3.org/Graphics/SVG/1.1/DTD/svg11.dtd">
<svg xmlns:xlink="http://www.w3.org/1999/xlink" width="288pt" height="216pt" viewBox="0 0 288 216" xmlns="http://www.w3.org/2000/svg" version="1.1">
 <metadata>
  <rdf:RDF xmlns:dc="http://purl.org/dc/elements/1.1/" xmlns:cc="http://creativecommons.org/ns#" xmlns:rdf="http://www.w3.org/1999/02/22-rdf-syntax-ns#">
   <cc:Work>
    <dc:type rdf:resource="http://purl.org/dc/dcmitype/StillImage"/>
    <dc:date>2025-11-27T17:02:04.735857</dc:date>
    <dc:format>image/svg+xml</dc:format>
    <dc:creator>
     <cc:Agent>
      <dc:title>Matplotlib v3.10.0, https://matplotlib.org/</dc:title>
     </cc:Agent>
    </dc:creator>
   </cc:Work>
  </rdf:RDF>
 </metadata>
 <defs>
  <style type="text/css">*{stroke-linejoin: round; stroke-linecap: butt}</style>
 </defs>
 <g id="figure_1">
  <g id="patch_1">
   <path d="M 0 216 
L 288 216 
L 288 0 
L 0 0 
L 0 216 
z
" style="fill: none"/>
  </g>
  <g id="axes_1">
   <g id="patch_2">
    <path d="M 56.077974 182.64351 
L 231.922026 182.64351 
L 231.922026 6.799459 
L 56.077974 6.799459 
L 56.077974 182.64351 
z
" style="fill: none"/>
   </g>
   <g id="matplotlib.axis_1">
    <g id="xtick_1">
     <g id="line2d_1">
      <defs>
       <path id="me470114628" d="M 0 0 
L 0 3.5 
" style="stroke: #000000; stroke-width: 0.8"/>
      </defs>
      <g>
       <use xlink:href="#me470114628" x="56.077974" y="182.64351" style="stroke: #000000; stroke-width: 0.8"/>
      </g>
     </g>
     <g id="text_1">
      <!-- 0.0 -->
      <g transform="translate(48.126412 197.241948) scale(0.1 -0.1)">
       <defs>
        <path id="DejaVuSans-30" d="M 2034 4250 
Q 1547 4250 1301 3770 
Q 1056 3291 1056 2328 
Q 1056 1369 1301 889 
Q 1547 409 2034 409 
Q 2525 409 2770 889 
Q 3016 1369 3016 2328 
Q 3016 3291 2770 3770 
Q 2525 4250 2034 4250 
z
M 2034 4750 
Q 2819 4750 3233 4129 
Q 3647 3509 3647 2328 
Q 3647 1150 3233 529 
Q 2819 -91 2034 -91 
Q 1250 -91 836 529 
Q 422 1150 422 2328 
Q 422 3509 836 4129 
Q 1250 4750 2034 4750 
z
" transform="scale(0.015625)"/>
        <path id="DejaVuSans-2e" d="M 684 794 
L 1344 794 
L 1344 0 
L 684 0 
L 684 794 
z
" transform="scale(0.015625)"/>
       </defs>
       <use xlink:href="#DejaVuSans-30"/>
       <use xlink:href="#DejaVuSans-2e" transform="translate(63.623047 0)"/>
       <use xlink:href="#DejaVuSans-30" transform="translate(95.410156 0)"/>
      </g>
     </g>
    </g>
    <g id="xtick_2">
     <g id="line2d_2">
      <g>
       <use xlink:href="#me470114628" x="91.246785" y="182.64351" style="stroke: #000000; stroke-width: 0.8"/>
      </g>
     </g>
     <g id="text_2">
      <!-- 0.2 -->
      <g transform="translate(83.295222 197.241948) scale(0.1 -0.1)">
       <defs>
        <path id="DejaVuSans-32" d="M 1228 531 
L 3431 531 
L 3431 0 
L 469 0 
L 469 531 
Q 828 903 1448 1529 
Q 2069 2156 2228 2338 
Q 2531 2678 2651 2914 
Q 2772 3150 2772 3378 
Q 2772 3750 2511 3984 
Q 2250 4219 1831 4219 
Q 1534 4219 1204 4116 
Q 875 4013 500 3803 
L 500 4441 
Q 881 4594 1212 4672 
Q 1544 4750 1819 4750 
Q 2544 4750 2975 4387 
Q 3406 4025 3406 3419 
Q 3406 3131 3298 2873 
Q 3191 2616 2906 2266 
Q 2828 2175 2409 1742 
Q 1991 1309 1228 531 
z
" transform="scale(0.015625)"/>
       </defs>
       <use xlink:href="#DejaVuSans-30"/>
       <use xlink:href="#DejaVuSans-2e" transform="translate(63.623047 0)"/>
       <use xlink:href="#DejaVuSans-32" transform="translate(95.410156 0)"/>
      </g>
     </g>
    </g>
    <g id="xtick_3">
     <g id="line2d_3">
      <g>
       <use xlink:href="#me470114628" x="126.415595" y="182.64351" style="stroke: #000000; stroke-width: 0.8"/>
      </g>
     </g>
     <g id="text_3">
      <!-- 0.4 -->
      <g transform="translate(118.464032 197.241948) scale(0.1 -0.1)">
       <defs>
        <path id="DejaVuSans-34" d="M 2419 4116 
L 825 1625 
L 2419 1625 
L 2419 4116 
z
M 2253 4666 
L 3047 4666 
L 3047 1625 
L 3713 1625 
L 3713 1100 
L 3047 1100 
L 3047 0 
L 2419 0 
L 2419 1100 
L 313 1100 
L 313 1709 
L 2253 4666 
z
" transform="scale(0.015625)"/>
       </defs>
       <use xlink:href="#DejaVuSans-30"/>
       <use xlink:href="#DejaVuSans-2e" transform="translate(63.623047 0)"/>
       <use xlink:href="#DejaVuSans-34" transform="translate(95.410156 0)"/>
      </g>
     </g>
    </g>
    <g id="xtick_4">
     <g id="line2d_4">
      <g>
       <use xlink:href="#me470114628" x="161.584405" y="182.64351" style="stroke: #000000; stroke-width: 0.8"/>
      </g>
     </g>
     <g id="text_4">
      <!-- 0.6 -->
      <g transform="translate(153.632843 197.241948) scale(0.1 -0.1)">
       <defs>
        <path id="DejaVuSans-36" d="M 2113 2584 
Q 1688 2584 1439 2293 
Q 1191 2003 1191 1497 
Q 1191 994 1439 701 
Q 1688 409 2113 409 
Q 2538 409 2786 701 
Q 3034 994 3034 1497 
Q 3034 2003 2786 2293 
Q 2538 2584 2113 2584 
z
M 3366 4563 
L 3366 3988 
Q 3128 4100 2886 4159 
Q 2644 4219 2406 4219 
Q 1781 4219 1451 3797 
Q 1122 3375 1075 2522 
Q 1259 2794 1537 2939 
Q 1816 3084 2150 3084 
Q 2853 3084 3261 2657 
Q 3669 2231 3669 1497 
Q 3669 778 3244 343 
Q 2819 -91 2113 -91 
Q 1303 -91 875 529 
Q 447 1150 447 2328 
Q 447 3434 972 4092 
Q 1497 4750 2381 4750 
Q 2619 4750 2861 4703 
Q 3103 4656 3366 4563 
z
" transform="scale(0.015625)"/>
       </defs>
       <use xlink:href="#DejaVuSans-30"/>
       <use xlink:href="#DejaVuSans-2e" transform="translate(63.623047 0)"/>
       <use xlink:href="#DejaVuSans-36" transform="translate(95.410156 0)"/>
      </g>
     </g>
    </g>
    <g id="xtick_5">
     <g id="line2d_5">
      <g>
       <use xlink:href="#me470114628" x="196.753215" y="182.64351" style="stroke: #000000; stroke-width: 0.8"/>
      </g>
     </g>
     <g id="text_5">
      <!-- 0.8 -->
      <g transform="translate(188.801653 197.241948) scale(0.1 -0.1)">
       <defs>
        <path id="DejaVuSans-38" d="M 2034 2216 
Q 1584 2216 1326 1975 
Q 1069 1734 1069 1313 
Q 1069 891 1326 650 
Q 1584 409 2034 409 
Q 2484 409 2743 651 
Q 3003 894 3003 1313 
Q 3003 1734 2745 1975 
Q 2488 2216 2034 2216 
z
M 1403 2484 
Q 997 2584 770 2862 
Q 544 3141 544 3541 
Q 544 4100 942 4425 
Q 1341 4750 2034 4750 
Q 2731 4750 3128 4425 
Q 3525 4100 3525 3541 
Q 3525 3141 3298 2862 
Q 3072 2584 2669 2484 
Q 3125 2378 3379 2068 
Q 3634 1759 3634 1313 
Q 3634 634 3220 271 
Q 2806 -91 2034 -91 
Q 1263 -91 848 271 
Q 434 634 434 1313 
Q 434 1759 690 2068 
Q 947 2378 1403 2484 
z
M 1172 3481 
Q 1172 3119 1398 2916 
Q 1625 2713 2034 2713 
Q 2441 2713 2670 2916 
Q 2900 3119 2900 3481 
Q 2900 3844 2670 4047 
Q 2441 4250 2034 4250 
Q 1625 4250 1398 4047 
Q 1172 3844 1172 3481 
z
" transform="scale(0.015625)"/>
       </defs>
       <use xlink:href="#DejaVuSans-30"/>
       <use xlink:href="#DejaVuSans-2e" transform="translate(63.623047 0)"/>
       <use xlink:href="#DejaVuSans-38" transform="translate(95.410156 0)"/>
      </g>
     </g>
    </g>
    <g id="xtick_6">
     <g id="line2d_6">
      <g>
       <use xlink:href="#me470114628" x="231.922026" y="182.64351" style="stroke: #000000; stroke-width: 0.8"/>
      </g>
     </g>
     <g id="text_6">
      <!-- 1.0 -->
      <g transform="translate(223.970463 197.241948) scale(0.1 -0.1)">
       <defs>
        <path id="DejaVuSans-31" d="M 794 531 
L 1825 531 
L 1825 4091 
L 703 3866 
L 703 4441 
L 1819 4666 
L 2450 4666 
L 2450 531 
L 3481 531 
L 3481 0 
L 794 0 
L 794 531 
z
" transform="scale(0.015625)"/>
       </defs>
       <use xlink:href="#DejaVuSans-31"/>
       <use xlink:href="#DejaVuSans-2e" transform="translate(63.623047 0)"/>
       <use xlink:href="#DejaVuSans-30" transform="translate(95.410156 0)"/>
      </g>
     </g>
    </g>
    <g id="text_7">
     <!-- $u$, $v$ -->
     <g transform="translate(134.65 210.920073) scale(0.1 -0.1)">
      <defs>
       <path id="DejaVuSans-Oblique-75" d="M 428 1388 
L 838 3500 
L 1416 3500 
L 1006 1409 
Q 975 1256 961 1147 
Q 947 1038 947 966 
Q 947 700 1109 554 
Q 1272 409 1569 409 
Q 2031 409 2368 721 
Q 2706 1034 2809 1563 
L 3194 3500 
L 3769 3500 
L 3091 0 
L 2516 0 
L 2631 550 
Q 2388 244 2052 76 
Q 1716 -91 1338 -91 
Q 878 -91 622 161 
Q 366 413 366 863 
Q 366 956 381 1097 
Q 397 1238 428 1388 
z
" transform="scale(0.015625)"/>
       <path id="DejaVuSans-2c" d="M 750 794 
L 1409 794 
L 1409 256 
L 897 -744 
L 494 -744 
L 750 256 
L 750 794 
z
" transform="scale(0.015625)"/>
       <path id="DejaVuSans-20" transform="scale(0.015625)"/>
       <path id="DejaVuSans-Oblique-76" d="M 459 3500 
L 1069 3500 
L 1581 525 
L 3256 3500 
L 3866 3500 
L 1875 0 
L 1100 0 
L 459 3500 
z
" transform="scale(0.015625)"/>
      </defs>
      <use xlink:href="#DejaVuSans-Oblique-75" transform="translate(0 0.3125)"/>
      <use xlink:href="#DejaVuSans-2c" transform="translate(63.378906 0.3125)"/>
      <use xlink:href="#DejaVuSans-20" transform="translate(95.166016 0.3125)"/>
      <use xlink:href="#DejaVuSans-Oblique-76" transform="translate(126.953125 0.3125)"/>
     </g>
    </g>
   </g>
   <g id="matplotlib.axis_2">
    <g id="ytick_1">
     <g id="line2d_7">
      <defs>
       <path id="m909d12fd23" d="M 0 0 
L -3.5 0 
" style="stroke: #000000; stroke-width: 0.8"/>
      </defs>
      <g>
       <use xlink:href="#m909d12fd23" x="56.077974" y="182.64351" style="stroke: #000000; stroke-width: 0.8"/>
      </g>
     </g>
     <g id="text_8">
      <!-- 0.0 -->
      <g transform="translate(33.174849 186.442729) scale(0.1 -0.1)">
       <use xlink:href="#DejaVuSans-30"/>
       <use xlink:href="#DejaVuSans-2e" transform="translate(63.623047 0)"/>
       <use xlink:href="#DejaVuSans-30" transform="translate(95.410156 0)"/>
      </g>
     </g>
    </g>
    <g id="ytick_2">
     <g id="line2d_8">
      <g>
       <use xlink:href="#m909d12fd23" x="56.077974" y="147.4747" style="stroke: #000000; stroke-width: 0.8"/>
      </g>
     </g>
     <g id="text_9">
      <!-- 0.2 -->
      <g transform="translate(33.174849 151.273918) scale(0.1 -0.1)">
       <use xlink:href="#DejaVuSans-30"/>
       <use xlink:href="#DejaVuSans-2e" transform="translate(63.623047 0)"/>
       <use xlink:href="#DejaVuSans-32" transform="translate(95.410156 0)"/>
      </g>
     </g>
    </g>
    <g id="ytick_3">
     <g id="line2d_9">
      <g>
       <use xlink:href="#m909d12fd23" x="56.077974" y="112.305889" style="stroke: #000000; stroke-width: 0.8"/>
      </g>
     </g>
     <g id="text_10">
      <!-- 0.4 -->
      <g transform="translate(33.174849 116.105108) scale(0.1 -0.1)">
       <use xlink:href="#DejaVuSans-30"/>
       <use xlink:href="#DejaVuSans-2e" transform="translate(63.623047 0)"/>
       <use xlink:href="#DejaVuSans-34" transform="translate(95.410156 0)"/>
      </g>
     </g>
    </g>
    <g id="ytick_4">
     <g id="line2d_10">
      <g>
       <use xlink:href="#m909d12fd23" x="56.077974" y="77.137079" style="stroke: #000000; stroke-width: 0.8"/>
      </g>
     </g>
     <g id="text_11">
      <!-- 0.6 -->
      <g transform="translate(33.174849 80.936298) scale(0.1 -0.1)">
       <use xlink:href="#DejaVuSans-30"/>
       <use xlink:href="#DejaVuSans-2e" transform="translate(63.623047 0)"/>
       <use xlink:href="#DejaVuSans-36" transform="translate(95.410156 0)"/>
      </g>
     </g>
    </g>
    <g id="ytick_5">
     <g id="line2d_11">
      <g>
       <use xlink:href="#m909d12fd23" x="56.077974" y="41.968269" style="stroke: #000000; stroke-width: 0.8"/>
      </g>
     </g>
     <g id="text_12">
      <!-- 0.8 -->
      <g transform="translate(33.174849 45.767488) scale(0.1 -0.1)">
       <use xlink:href="#DejaVuSans-30"/>
       <use xlink:href="#DejaVuSans-2e" transform="translate(63.623047 0)"/>
       <use xlink:href="#DejaVuSans-38" transform="translate(95.410156 0)"/>
      </g>
     </g>
    </g>
    <g id="ytick_6">
     <g id="line2d_12">
      <g>
       <use xlink:href="#m909d12fd23" x="56.077974" y="6.799459" style="stroke: #000000; stroke-width: 0.8"/>
      </g>
     </g>
     <g id="text_13">
      <!-- 1.0 -->
      <g transform="translate(33.174849 10.598677) scale(0.1 -0.1)">
       <use xlink:href="#DejaVuSans-31"/>
       <use xlink:href="#DejaVuSans-2e" transform="translate(63.623047 0)"/>
       <use xlink:href="#DejaVuSans-30" transform="translate(95.410156 0)"/>
      </g>
     </g>
    </g>
    <g id="text_14">
     <!-- VCF -->
     <g transform="translate(27.095162 104.508984) rotate(-90) scale(0.1 -0.1)">
      <defs>
       <path id="DejaVuSans-56" d="M 1831 0 
L 50 4666 
L 709 4666 
L 2188 738 
L 3669 4666 
L 4325 4666 
L 2547 0 
L 1831 0 
z
" transform="scale(0.015625)"/>
       <path id="DejaVuSans-43" d="M 4122 4306 
L 4122 3641 
Q 3803 3938 3442 4084 
Q 3081 4231 2675 4231 
Q 1875 4231 1450 3742 
Q 1025 3253 1025 2328 
Q 1025 1406 1450 917 
Q 1875 428 2675 428 
Q 3081 428 3442 575 
Q 3803 722 4122 1019 
L 4122 359 
Q 3791 134 3420 21 
Q 3050 -91 2638 -91 
Q 1578 -91 968 557 
Q 359 1206 359 2328 
Q 359 3453 968 4101 
Q 1578 4750 2638 4750 
Q 3056 4750 3426 4639 
Q 3797 4528 4122 4306 
z
" transform="scale(0.015625)"/>
       <path id="DejaVuSans-46" d="M 628 4666 
L 3309 4666 
L 3309 4134 
L 1259 4134 
L 1259 2759 
L 3109 2759 
L 3109 2228 
L 1259 2228 
L 1259 0 
L 628 0 
L 628 4666 
z
" transform="scale(0.015625)"/>
      </defs>
      <use xlink:href="#DejaVuSans-56"/>
      <use xlink:href="#DejaVuSans-43" transform="translate(68.408203 0)"/>
      <use xlink:href="#DejaVuSans-46" transform="translate(138.232422 0)"/>
     </g>
    </g>
   </g>
   <g id="line2d_13">
    <path d="M 56.077974 191.435031 
L 56.083763 191.435031 
L 56.193753 182.637628 
L 57.895693 182.527108 
L 58.005683 182.514969 
L 59.3545 182.403945 
L 59.464489 182.392054 
L 60.599116 182.280945 
L 60.709106 182.266076 
L 61.895833 182.155214 
L 62.005822 182.143953 
L 63.065194 182.033489 
L 63.175183 182.014707 
L 63.921953 181.90405 
L 64.031942 181.892627 
L 65.085525 181.781529 
L 65.189725 181.766484 
L 66.011751 181.65744 
L 66.12174 181.635789 
L 67.129011 181.524909 
L 67.239001 181.505731 
L 68.130493 181.394641 
L 68.240483 181.380716 
L 69.004619 181.270399 
L 69.114609 181.245141 
L 69.838223 181.134176 
L 69.948212 181.120816 
L 70.65446 181.009892 
L 70.764449 180.983103 
L 71.55753 180.872043 
L 71.66752 180.845385 
L 72.350612 180.734546 
L 72.460601 180.709955 
L 73.085804 180.600434 
L 73.195793 180.575499 
L 73.896252 180.466843 
L 74.006241 180.441647 
L 74.573555 180.330943 
L 74.683544 180.30954 
L 75.297169 180.198635 
L 75.407158 180.177139 
L 75.887638 180.066451 
L 75.997627 180.044829 
L 76.605463 179.935241 
L 76.715453 179.904506 
L 77.323289 179.79381 
L 77.433278 179.770784 
L 77.948491 179.660767 
L 78.058481 179.637601 
L 78.533172 179.526629 
L 78.643161 179.50519 
L 79.106274 179.394356 
L 79.216264 179.369522 
L 79.621488 179.258688 
L 79.731477 179.220755 
L 80.252479 179.114682 
L 80.362469 179.081862 
L 80.785059 178.970911 
L 80.895049 178.943149 
L 81.300273 178.833159 
L 81.410262 178.813108 
L 81.960209 178.702038 
L 82.070198 178.67377 
L 82.64909 178.564042 
L 82.759079 178.525113 
L 83.251137 178.414683 
L 83.361126 178.393963 
L 83.795295 178.284507 
L 83.905284 178.254959 
L 84.293141 178.144866 
L 84.403131 178.100287 
L 84.77941 177.990344 
L 84.889399 177.971513 
L 85.335146 177.860552 
L 85.445135 177.818465 
L 85.804048 177.710691 
L 85.914037 177.669315 
L 86.296105 177.558316 
L 86.406095 177.524241 
L 86.921308 177.413186 
L 87.031297 177.382942 
L 87.494411 177.276455 
L 87.6044 177.244066 
L 87.940157 177.133619 
L 88.050146 177.099847 
L 88.466948 176.989188 
L 88.576937 176.965493 
L 88.993739 176.860507 
L 89.103729 176.831298 
L 89.462641 176.721499 
L 89.572631 176.672117 
L 89.943121 176.562871 
L 90.053111 176.538631 
L 90.37729 176.428136 
L 90.487279 176.388558 
L 90.944603 176.278114 
L 91.054593 176.243277 
L 91.384561 176.135423 
L 91.49455 176.102866 
L 91.928719 175.992072 
L 92.038708 175.952383 
L 92.362887 175.843654 
L 92.472877 175.812822 
L 92.826 175.704372 
L 92.93599 175.648818 
L 93.318058 175.54079 
L 93.428047 175.505248 
L 93.78696 175.398384 
L 93.896949 175.351549 
L 94.221129 175.245622 
L 94.331118 175.18736 
L 94.707397 175.07683 
L 94.817387 175.047861 
L 95.182088 174.943774 
L 95.292078 174.896689 
L 95.627835 174.791117 
L 95.737824 174.754772 
L 96.102526 174.645169 
L 96.212515 174.601068 
L 96.530905 174.498103 
L 96.640895 174.446833 
L 97.022963 174.336329 
L 97.132952 174.297023 
L 97.451343 174.189469 
L 97.561332 174.149787 
L 97.862356 174.044494 
L 97.972345 173.995643 
L 98.337046 173.88519 
L 98.447036 173.845318 
L 98.788582 173.734256 
L 98.898571 173.700816 
L 99.228539 173.590526 
L 99.338529 173.546236 
L 99.697441 173.436049 
L 99.807431 173.407699 
L 100.160554 173.299787 
L 100.270544 173.242423 
L 100.507889 173.13385 
L 100.617879 173.086616 
L 100.918902 172.975847 
L 101.028891 172.932699 
L 101.393593 172.824807 
L 101.503582 172.780596 
L 101.793028 172.670512 
L 101.903017 172.633259 
L 102.238775 172.52615 
L 102.348764 172.490443 
L 102.678732 172.38445 
L 102.788721 172.333212 
L 103.193945 172.223122 
L 103.303935 172.180047 
L 103.599169 172.071466 
L 103.709159 172.003199 
L 104.039127 171.895923 
L 104.149116 171.851026 
L 104.519607 171.741703 
L 104.629596 171.699636 
L 104.901675 171.589475 
L 105.011664 171.537718 
L 105.335843 171.432176 
L 105.445833 171.368878 
L 105.717912 171.259861 
L 105.827901 171.214179 
L 106.082613 171.103588 
L 106.192603 171.053788 
L 106.447315 170.945102 
L 106.557304 170.912156 
L 106.79465 170.801353 
L 106.904639 170.74535 
L 107.223029 170.634867 
L 107.333019 170.574213 
L 107.599309 170.467548 
L 107.709298 170.413919 
L 108.0219 170.303377 
L 108.131889 170.263277 
L 108.403968 170.15887 
L 108.513957 170.112396 
L 108.733936 170.0032 
L 108.843925 169.960912 
L 109.092849 169.853426 
L 109.202838 169.796126 
L 109.515439 169.687016 
L 109.625429 169.643509 
L 109.909086 169.533636 
L 110.019075 169.494209 
L 110.279576 169.385798 
L 110.389565 169.344932 
L 110.673222 169.234027 
L 110.783212 169.160724 
L 111.020557 169.050376 
L 111.130546 168.998242 
L 111.466303 168.894257 
L 111.576293 168.831511 
L 111.865738 168.721945 
L 111.975728 168.668689 
L 112.242018 168.559018 
L 112.352007 168.495653 
L 112.641453 168.387926 
L 112.751442 168.347641 
L 113.02931 168.23699 
L 113.1393 168.177117 
L 113.480845 168.066782 
L 113.590835 168.005069 
L 113.845547 167.894745 
L 113.955536 167.82754 
L 114.181304 167.716587 
L 114.291293 167.652209 
L 114.528639 167.541386 
L 114.638628 167.496641 
L 114.875974 167.386311 
L 114.985963 167.3275 
L 115.194364 167.216482 
L 115.304353 167.186806 
L 115.506965 167.076443 
L 115.616955 167.034928 
L 115.923767 166.929197 
L 116.033757 166.860065 
L 116.242157 166.751679 
L 116.352147 166.711873 
L 116.606859 166.60234 
L 116.716848 166.560558 
L 116.983138 166.45194 
L 117.093128 166.401734 
L 117.382573 166.29224 
L 117.492563 166.223585 
L 117.770431 166.114713 
L 117.88042 166.05716 
L 118.09461 165.954915 
L 118.204599 165.903118 
L 118.424578 165.795572 
L 118.534567 165.74001 
L 118.777702 165.628918 
L 118.887691 165.580455 
L 119.136614 165.472753 
L 119.246604 165.408518 
L 119.443427 165.302171 
L 119.553416 165.24618 
L 119.74445 165.135914 
L 119.85444 165.088748 
L 120.126519 164.986229 
L 120.236508 164.933939 
L 120.543321 164.822928 
L 120.65331 164.752059 
L 120.890655 164.646065 
L 121.000645 164.579274 
L 121.197468 164.475121 
L 121.307457 164.410316 
L 121.55638 164.303436 
L 121.66637 164.232667 
L 122.019494 164.122956 
L 122.129483 164.036821 
L 122.401562 163.926502 
L 122.511551 163.887302 
L 122.789419 163.780182 
L 122.899409 163.708928 
L 123.125176 163.598387 
L 123.235166 163.548075 
L 123.489878 163.437536 
L 123.599867 163.382359 
L 123.825635 163.273935 
L 123.935624 163.204848 
L 124.109292 163.096776 
L 124.219281 163.035311 
L 124.369793 162.929162 
L 124.479782 162.875789 
L 124.722916 162.772406 
L 124.832906 162.696442 
L 125.064462 162.588428 
L 125.174452 162.516985 
L 125.388642 162.411788 
L 125.498631 162.343066 
L 125.71861 162.234904 
L 125.828599 162.172938 
L 126.013844 162.062324 
L 126.123834 162.006116 
L 126.35539 161.898449 
L 126.46538 161.836265 
L 126.639047 161.726434 
L 126.749036 161.686143 
L 126.963226 161.575608 
L 127.073216 161.503946 
L 127.298983 161.395997 
L 127.408973 161.351874 
L 127.657896 161.241626 
L 127.767885 161.174569 
L 127.935764 161.064309 
L 128.045753 161.015765 
L 128.265732 160.907701 
L 128.375721 160.826183 
L 128.653589 160.716011 
L 128.763578 160.644698 
L 129.064602 160.535055 
L 129.174591 160.477448 
L 129.39457 160.368181 
L 129.504559 160.295602 
L 129.678227 160.185548 
L 129.788216 160.080366 
L 129.973461 159.97103 
L 130.083451 159.878185 
L 130.257118 159.778837 
L 130.367108 159.714027 
L 130.581297 159.610203 
L 130.691287 159.539903 
L 130.911265 159.430766 
L 131.021255 159.368774 
L 131.194922 159.26017 
L 131.304912 159.180711 
L 131.542257 159.071378 
L 131.652246 159.014416 
L 131.84907 158.904288 
L 131.959059 158.849082 
L 132.144304 158.743761 
L 132.254294 158.651356 
L 132.503217 158.541471 
L 132.613206 158.482914 
L 132.867918 158.374578 
L 132.977908 158.316121 
L 133.168942 158.207901 
L 133.278931 158.170023 
L 133.475754 158.059434 
L 133.585744 158.001579 
L 133.8173 157.893972 
L 133.92729 157.831725 
L 134.135691 157.722601 
L 134.24568 157.643599 
L 134.465659 157.534878 
L 134.575648 157.472303 
L 134.824571 157.364362 
L 134.934561 157.31812 
L 135.154539 157.207843 
L 135.264529 157.139939 
L 135.461352 157.035903 
L 135.571341 156.961285 
L 135.745009 156.860774 
L 135.854998 156.77611 
L 136.069188 156.66662 
L 136.179177 156.596907 
L 136.381789 156.487327 
L 136.491779 156.409408 
L 136.653868 156.298381 
L 136.763858 156.224349 
L 137.030148 156.118124 
L 137.140137 156.01817 
L 137.313804 155.907197 
L 137.423794 155.850286 
L 137.632195 155.740426 
L 137.742184 155.684115 
L 137.962163 155.573149 
L 138.072152 155.481354 
L 138.274764 155.377474 
L 138.384753 155.298392 
L 138.535265 155.191112 
L 138.645255 155.099074 
L 138.842078 154.990421 
L 138.952067 154.913617 
L 139.14889 154.805734 
L 139.258879 154.750204 
L 139.525169 154.64943 
L 139.635159 154.587679 
L 139.820404 154.478122 
L 139.930393 154.41265 
L 140.21405 154.303959 
L 140.32404 154.244673 
L 140.434029 154.146706 
L 140.544018 154.055 
L 140.752419 153.943978 
L 140.862409 153.866904 
L 141.117121 153.761311 
L 141.22711 153.703743 
L 141.383411 153.598622 
L 141.4934 153.543902 
L 141.649701 153.432953 
L 141.75969 153.370356 
L 141.968091 153.259474 
L 142.078081 153.174609 
L 142.309637 153.064125 
L 142.419626 152.97702 
L 142.639605 152.866026 
L 142.749595 152.782099 
L 142.900106 152.676947 
L 143.010096 152.577396 
L 143.247441 152.466794 
L 143.357431 152.369068 
L 143.502153 152.260465 
L 143.612143 152.204542 
L 143.751077 152.096265 
L 143.861066 151.99087 
L 144.046311 151.881093 
L 144.156301 151.809351 
L 144.382068 151.701912 
L 144.492058 151.620338 
L 144.723614 151.512327 
L 144.833604 151.426407 
L 145.030427 151.315431 
L 145.140416 151.234236 
L 145.244617 151.141396 
L 145.354606 151.049829 
L 145.539851 150.942693 
L 145.64984 150.866672 
L 145.782986 150.76471 
L 145.892975 150.681274 
L 146.07822 150.570472 
L 146.188209 150.47979 
L 146.385033 150.369921 
L 146.495022 150.249004 
L 146.680267 150.138725 
L 146.790257 150.020084 
L 146.998657 149.912877 
L 147.108647 149.821423 
L 147.328626 149.719935 
L 147.438615 149.624702 
L 147.542815 149.516498 
L 147.652805 149.416577 
L 147.83805 149.310475 
L 147.948039 149.23147 
L 148.168018 149.125501 
L 148.278007 149.017882 
L 148.405364 148.916919 
L 148.515353 148.814849 
L 148.654287 148.710838 
L 148.764276 148.616093 
L 148.908999 148.510607 
L 149.018988 148.428702 
L 149.198445 148.322431 
L 149.308434 148.208059 
L 149.493679 148.09901 
L 149.603669 148.050412 
L 149.754181 147.94167 
L 149.86417 147.81901 
L 149.985737 147.717327 
L 150.095726 147.641123 
L 150.223083 147.530297 
L 150.333072 147.404295 
L 150.512528 147.294071 
L 150.622518 147.212633 
L 150.790396 147.101737 
L 150.900385 146.949343 
L 150.993008 146.839916 
L 151.102997 146.7159 
L 151.282454 146.613213 
L 151.392443 146.518732 
L 151.566111 146.408239 
L 151.6761 146.326752 
L 151.861345 146.217465 
L 151.971335 146.144359 
L 152.173947 146.03393 
L 152.283936 145.9582 
L 152.457603 145.850837 
L 152.567593 145.777028 
L 152.671793 145.668637 
L 152.781783 145.577047 
L 152.949661 145.468129 
L 153.05965 145.390389 
L 153.22174 145.285621 
L 153.331729 145.175742 
L 153.48803 145.064711 
L 153.598019 144.98235 
L 153.742742 144.874967 
L 153.852732 144.807318 
L 154.014821 144.697209 
L 154.124811 144.644687 
L 154.281111 144.537624 
L 154.391101 144.442478 
L 154.576346 144.335183 
L 154.686335 144.239002 
L 154.854214 144.139209 
L 154.964203 144.039921 
L 155.08577 143.933618 
L 155.19576 143.82344 
L 155.323116 143.727891 
L 155.433105 143.647748 
L 155.606773 143.536704 
L 155.716762 143.458327 
L 155.907796 143.35049 
L 156.017785 143.250096 
L 156.104619 143.144793 
L 156.214609 143.064249 
L 156.394065 142.960811 
L 156.504054 142.8393 
L 156.642988 142.729518 
L 156.752978 142.656224 
L 156.926645 142.545131 
L 157.036634 142.48055 
L 157.152413 142.369704 
L 157.262402 142.289418 
L 157.395547 142.180198 
L 157.505536 142.072465 
L 157.638681 141.966832 
L 157.748671 141.843761 
L 157.893394 141.746852 
L 158.003383 141.629641 
L 158.165473 141.520209 
L 158.275462 141.439861 
L 158.431763 141.330661 
L 158.541752 141.218377 
L 158.669108 141.121239 
L 158.779097 141.026168 
L 158.929609 140.91716 
L 159.039599 140.810318 
L 159.236422 140.699634 
L 159.346411 140.620274 
L 159.496923 140.510352 
L 159.606912 140.42847 
L 159.740057 140.323863 
L 159.850046 140.228527 
L 160.017925 140.119605 
L 160.127914 140.007625 
L 160.232115 139.907761 
L 160.342104 139.816096 
L 160.463671 139.709247 
L 160.573661 139.642709 
L 160.701017 139.533989 
L 160.811006 139.447508 
L 160.920996 139.352255 
L 161.030985 139.220795 
L 161.169919 139.111545 
L 161.279908 139.043414 
L 161.413053 138.941398 
L 161.523043 138.817687 
L 161.650399 138.707351 
L 161.760388 138.632429 
L 161.939844 138.536806 
L 162.049834 138.412496 
L 162.159823 138.303125 
L 162.269813 138.202797 
L 162.39138 138.098495 
L 162.501369 137.985397 
L 162.640303 137.875257 
L 162.750292 137.757256 
L 162.981849 137.649343 
L 163.091838 137.573048 
L 163.201828 137.469162 
L 163.311817 137.370952 
L 163.462329 137.268283 
L 163.572318 137.204378 
L 163.717041 137.093545 
L 163.82703 136.986827 
L 163.954387 136.875881 
L 164.064376 136.783378 
L 164.180154 136.686714 
L 164.290144 136.579575 
L 164.394344 136.4734 
L 164.504333 136.310852 
L 164.614323 136.200285 
L 164.724312 136.135274 
L 164.874824 136.027472 
L 164.984813 135.923338 
L 165.077436 135.814429 
L 165.187425 135.689858 
L 165.326359 135.585372 
L 165.436348 135.473861 
L 165.592649 135.36344 
L 165.702639 135.25992 
L 165.818417 135.149908 
L 165.928406 135.036221 
L 166.102074 134.931901 
L 166.212063 134.85256 
L 166.275741 134.767339 
L 166.38573 134.664857 
L 166.518875 134.557688 
L 166.628865 134.458302 
L 166.76201 134.353533 
L 166.871999 134.254753 
L 166.981989 134.144943 
L 167.091978 134.043673 
L 167.196178 133.9331 
L 167.306168 133.837737 
L 167.433524 133.727402 
L 167.543513 133.528447 
L 167.688236 133.418082 
L 167.798225 133.332786 
L 167.960315 133.222466 
L 168.070304 133.099826 
L 168.186083 132.991088 
L 168.296072 132.873026 
L 168.429217 132.764644 
L 168.539206 132.615107 
L 168.637618 132.505027 
L 168.747607 132.402585 
L 168.886541 132.295422 
L 168.996531 132.144912 
L 169.152831 132.047606 
L 169.262821 131.930365 
L 169.355443 131.830842 
L 169.465433 131.677463 
L 169.569633 131.570766 
L 169.679622 131.460505 
L 169.766456 131.357153 
L 169.876446 131.23766 
L 170.003802 131.129413 
L 170.113791 131.028187 
L 170.206414 130.91866 
L 170.316403 130.780766 
L 170.455337 130.671086 
L 170.565326 130.593671 
L 170.710049 130.48756 
L 170.820038 130.365334 
L 170.964761 130.260622 
L 171.074751 130.191348 
L 171.190529 130.090765 
L 171.300518 129.990861 
L 171.410508 129.88319 
L 171.520497 129.804382 
L 171.647853 129.694687 
L 171.757843 129.607319 
L 171.867832 129.496857 
L 171.977821 129.348915 
L 172.076233 129.242661 
L 172.186222 129.083586 
L 172.278845 128.975676 
L 172.388834 128.864494 
L 172.545135 128.762463 
L 172.655124 128.657831 
L 172.770903 128.547066 
L 172.880892 128.443909 
L 173.008248 128.333141 
L 173.118237 128.220549 
L 173.251382 128.110334 
L 173.361372 127.986821 
L 173.500306 127.887545 
L 173.610295 127.762022 
L 173.69134 127.665312 
L 173.801329 127.547618 
L 173.911319 127.445962 
L 174.021308 127.306478 
L 174.142875 127.201259 
L 174.252864 127.067809 
L 174.391798 126.958898 
L 174.501788 126.879432 
L 174.611777 126.790646 
L 174.721767 126.652105 
L 174.843334 126.541089 
L 174.953323 126.417221 
L 175.080679 126.30916 
L 175.190669 126.178369 
L 175.283291 126.07321 
L 175.393281 125.889324 
L 175.491692 125.791303 
L 175.601681 125.676509 
L 175.723249 125.572617 
L 175.833238 125.415754 
L 175.925861 125.307229 
L 176.03585 125.156747 
L 176.163206 125.058558 
L 176.273195 124.941928 
L 176.35424 124.838303 
L 176.46423 124.730349 
L 176.574219 124.620447 
L 176.684208 124.446537 
L 176.811564 124.340061 
L 176.921554 124.188599 
L 177.008388 124.079334 
L 177.118377 123.958379 
L 177.257311 123.850766 
L 177.3673 123.666317 
L 177.459923 123.584816 
L 177.569912 123.425271 
L 177.674113 123.325712 
L 177.784102 123.117489 
L 177.870936 123.016745 
L 177.980925 122.927475 
L 178.067759 122.817106 
L 178.177748 122.674409 
L 178.264582 122.563806 
L 178.374571 122.442703 
L 178.467194 122.337763 
L 178.577183 122.251204 
L 178.687173 122.149601 
L 178.797162 121.938175 
L 178.901362 121.827147 
L 179.011352 121.671351 
L 179.103974 121.567343 
L 179.213964 121.415243 
L 179.329742 121.3138 
L 179.439731 121.197065 
L 179.509198 121.093016 
L 179.619188 121.009085 
L 179.688655 120.908193 
L 179.798644 120.756645 
L 179.914422 120.647782 
L 180.024412 120.481793 
L 180.111245 120.383657 
L 180.221235 120.273739 
L 180.313857 120.169641 
L 180.423847 120.003118 
L 180.545414 119.896819 
L 180.655403 119.733498 
L 180.805915 119.624613 
L 180.915904 119.493562 
L 180.996949 119.394576 
L 181.106939 119.224583 
L 181.20535 119.118976 
L 181.31534 118.887063 
L 181.41954 118.776709 
L 181.529529 118.622387 
L 181.627941 118.518778 
L 181.73793 118.402071 
L 181.813186 118.310898 
L 181.923176 118.072112 
L 182.067898 117.961307 
L 182.177888 117.874611 
L 182.258933 117.764443 
L 182.368922 117.573361 
L 182.455756 117.46825 
L 182.565745 117.358125 
L 182.669945 117.248131 
L 182.779935 117.127179 
L 182.889924 117.038109 
L 182.999914 116.842713 
L 183.06938 116.745958 
L 183.17937 116.588003 
L 183.324093 116.482903 
L 183.434082 116.325586 
L 183.555649 116.218885 
L 183.665639 116.074503 
L 183.76405 115.975632 
L 183.87404 115.760438 
L 183.920351 115.669478 
L 184.03034 115.518522 
L 184.105596 115.411007 
L 184.215585 115.274142 
L 184.308208 115.194767 
L 184.418197 115.038338 
L 184.487664 114.93959 
L 184.597654 114.781814 
L 184.696065 114.673971 
L 184.806055 114.497403 
L 184.916044 114.392199 
L 185.026033 114.277828 
L 185.101289 114.174915 
L 185.211279 114.001 
L 185.286535 113.893532 
L 185.396524 113.704972 
L 185.506513 113.594687 
L 185.616503 113.437212 
L 185.714914 113.333958 
L 185.824904 113.177 
L 185.934893 113.085751 
L 186.044882 112.922971 
L 186.137505 112.815581 
L 186.247494 112.706968 
L 186.340117 112.603145 
L 186.450106 112.414336 
L 186.525362 112.305889 
L 186.635352 112.088266 
L 186.739552 111.981366 
L 186.849541 111.893413 
L 186.953742 111.783663 
L 187.063731 111.668651 
L 187.167932 111.562235 
L 187.277921 111.420913 
L 187.364755 111.332847 
L 187.474744 111.178642 
L 187.578944 111.069262 
L 187.688934 110.947609 
L 187.769979 110.841659 
L 187.879968 110.740131 
L 187.989957 110.64736 
L 188.099947 110.454328 
L 188.233092 110.350732 
L 188.343081 110.143821 
L 188.441493 110.038338 
L 188.551482 109.912721 
L 188.66726 109.811835 
L 188.77725 109.625806 
L 188.823561 109.519045 
L 188.93355 109.392058 
L 188.979862 109.2867 
L 189.089851 109.095459 
L 189.170896 108.993846 
L 189.280885 108.842012 
L 189.332985 108.731183 
L 189.442975 108.559768 
L 189.564542 108.452121 
L 189.674531 108.319572 
L 189.767154 108.220958 
L 189.877143 108.11076 
L 189.998711 108.018167 
L 190.1087 107.86518 
L 190.230267 107.75872 
L 190.340256 107.581049 
L 190.432879 107.487437 
L 190.542868 107.307465 
L 190.600758 107.208225 
L 190.710747 107.018952 
L 190.774425 106.921475 
L 190.884414 106.71175 
L 190.994404 106.610123 
L 191.104393 106.462934 
L 191.22596 106.365199 
L 191.33595 106.254464 
L 191.411206 106.153762 
L 191.521195 105.906087 
L 191.625395 105.81508 
L 191.735385 105.636645 
L 191.799063 105.528308 
L 191.909052 105.323197 
L 192.007464 105.212181 
L 192.117453 105.059344 
L 192.221654 104.962882 
L 192.331643 104.794771 
L 192.441632 104.687167 
L 192.551622 104.566588 
L 192.609511 104.45572 
L 192.7195 104.234483 
L 192.794756 104.136732 
L 192.904745 103.961032 
L 193.020524 103.850611 
L 193.130513 103.712684 
L 193.234713 103.605471 
L 193.344703 103.459077 
L 193.419959 103.349109 
L 193.529948 103.220528 
L 193.610993 103.109989 
L 193.720982 102.959008 
L 193.796238 102.850052 
L 193.906227 102.593554 
L 194.016217 102.484324 
L 194.126206 102.233654 
L 194.207251 102.125444 
L 194.31724 101.928306 
L 194.404074 101.822239 
L 194.514063 101.613512 
L 194.58353 101.516061 
L 194.69352 101.358627 
L 194.79772 101.248752 
L 194.90771 101.009231 
L 194.994543 100.916107 
L 195.104533 100.754186 
L 195.162422 100.648262 
L 195.272411 100.483465 
L 195.376612 100.375816 
L 195.486601 100.196338 
L 195.556068 100.09663 
L 195.666057 99.893368 
L 195.747102 99.785347 
L 195.857091 99.533138 
L 195.943925 99.432761 
L 196.053915 99.284957 
L 196.094437 99.212825 
L 196.204426 98.95965 
L 196.308627 98.849171 
L 196.418616 98.686701 
L 196.482294 98.585159 
L 196.592284 98.478583 
L 196.667539 98.375772 
L 196.777529 98.228727 
L 196.841207 98.123026 
L 196.951196 97.81398 
L 197.032241 97.721037 
L 197.14223 97.536951 
L 197.217486 97.433018 
L 197.327476 97.273538 
L 197.420098 97.169814 
L 197.530088 96.959614 
L 197.593766 96.849668 
L 197.703755 96.690725 
L 197.773222 96.589634 
L 197.883211 96.435126 
L 197.923734 96.334956 
L 198.033723 96.170209 
L 198.097401 96.06256 
L 198.207391 95.927883 
L 198.282646 95.832362 
L 198.392636 95.631716 
L 198.444736 95.52166 
L 198.554725 95.296547 
L 198.658926 95.185847 
L 198.768915 95.039974 
L 198.84996 94.930438 
L 198.959949 94.754178 
L 199.017839 94.667934 
L 199.127828 94.508128 
L 199.197295 94.402692 
L 199.307284 94.261597 
L 199.399907 94.165519 
L 199.509896 93.904578 
L 199.585152 93.794819 
L 199.695141 93.623822 
L 199.753031 93.515783 
L 199.86302 93.364663 
L 199.932487 93.270813 
L 200.042476 93.063636 
L 200.106154 92.96743 
L 200.216144 92.726547 
L 200.297189 92.625381 
L 200.407178 92.315846 
L 200.488223 92.226988 
L 200.598212 92.06078 
L 200.679257 91.957959 
L 200.789246 91.722645 
L 200.858713 91.620884 
L 200.968703 91.46121 
L 201.026592 91.374135 
L 201.136581 91.203805 
L 201.188681 91.113151 
L 201.298671 90.782028 
L 201.368138 90.673779 
L 201.478127 90.458219 
L 201.593905 90.347356 
L 201.703895 90.088107 
L 201.784939 89.98103 
L 201.894929 89.826569 
L 201.970185 89.738219 
L 202.080174 89.566481 
L 202.114908 89.483545 
L 202.224897 89.178782 
L 202.311731 89.077177 
L 202.42172 88.824872 
L 202.508554 88.717178 
L 202.618543 88.498193 
L 202.693799 88.420045 
L 202.803788 88.225149 
L 202.855888 88.140986 
L 202.965878 87.776551 
L 203.035345 87.68543 
L 203.145334 87.459776 
L 203.214801 87.358969 
L 203.324791 87.123516 
L 203.411624 87.018914 
L 203.521614 86.825451 
L 203.573714 86.723602 
L 203.683703 86.494184 
L 203.718437 86.431612 
L 203.828426 86.176803 
L 203.86316 86.073703 
L 203.973149 85.80127 
L 204.036827 85.734606 
L 204.146816 85.491646 
L 204.239439 85.38289 
L 204.349428 85.066737 
L 204.401529 84.972732 
L 204.511518 84.642145 
L 204.563618 84.551954 
L 204.673607 84.361668 
L 204.754652 84.251197 
L 204.864642 84.061933 
L 204.910953 83.966017 
L 205.020942 83.752887 
L 205.078831 83.646054 
L 205.188821 83.45969 
L 205.240921 83.376664 
L 205.35091 83.129388 
L 205.403011 83.020201 
L 205.513 82.795179 
L 205.6172 82.69257 
L 205.72719 82.4903 
L 205.796657 82.382094 
L 205.906646 82.240689 
L 205.981902 82.134977 
L 206.091891 81.863323 
L 206.172936 81.756625 
L 206.282926 81.531965 
L 206.352393 81.425848 
L 206.462382 81.152062 
L 206.555005 81.065072 
L 206.664994 80.851674 
L 206.711305 80.744571 
L 206.821295 80.460846 
L 206.879184 80.350549 
L 206.989173 79.998524 
L 207.041273 79.895052 
L 207.151263 79.611932 
L 207.209152 79.508906 
L 207.319141 79.31419 
L 207.37703 79.224958 
L 207.48702 79.027504 
L 207.510175 78.924876 
L 207.620165 78.686817 
L 207.678054 78.581152 
L 207.788043 78.268587 
L 207.822777 78.191899 
L 207.932766 77.956228 
L 208.002233 77.885352 
L 208.112222 77.52075 
L 208.158534 77.413536 
L 208.268523 77.202183 
L 208.309045 77.100926 
L 208.419035 76.825129 
L 208.471135 76.721303 
L 208.581124 76.527921 
L 208.644802 76.442244 
L 208.754792 76.231312 
L 208.858992 76.122594 
L 208.968982 75.841956 
L 209.03266 75.731264 
L 209.142649 75.443319 
L 209.194749 75.3494 
L 209.304739 75.003315 
L 209.379995 74.894122 
L 209.489984 74.647963 
L 209.559451 74.545249 
L 209.66944 74.330629 
L 209.744696 74.242354 
L 209.854686 73.979908 
L 209.953097 73.876537 
L 210.063086 73.67237 
L 210.14992 73.561969 
L 210.259909 73.207316 
L 210.306221 73.116299 
L 210.41621 72.825659 
L 210.46831 72.716195 
L 210.5783 72.481966 
L 210.618822 72.408815 
L 210.728812 72.081764 
L 210.809856 71.992233 
L 210.919846 71.664926 
L 210.971946 71.557471 
L 211.081935 71.32164 
L 211.116669 71.217736 
L 211.226658 71.0397 
L 211.290336 70.934285 
L 211.400326 70.641318 
L 211.48137 70.53726 
L 211.59136 70.261973 
L 211.655038 70.201381 
L 211.765027 69.863988 
L 211.840283 69.755779 
L 211.950272 69.513292 
L 212.008162 69.420409 
L 212.118151 69.187745 
L 212.170251 69.079989 
L 212.28024 68.795056 
L 212.349707 68.695954 
L 212.459697 68.340696 
L 212.500219 68.238514 
L 212.610209 68.014688 
L 212.679676 67.916347 
L 212.789665 67.56345 
L 212.847554 67.456409 
L 212.957543 67.196965 
L 213.021221 67.090637 
L 213.125422 66.849767 
L 213.200678 66.754606 
L 213.310667 66.46368 
L 213.356978 66.37373 
L 213.466968 66.156114 
L 213.565379 66.056692 
L 213.675369 65.780998 
L 213.739047 65.672133 
L 213.849036 65.426856 
L 213.889559 65.326506 
L 213.999548 64.973431 
L 214.04007 64.871373 
L 214.15006 64.639529 
L 214.219527 64.531835 
L 214.329516 64.246536 
L 214.36425 64.151079 
L 214.474239 63.778647 
L 214.508972 63.706919 
L 214.618962 63.404019 
L 214.647906 63.322199 
L 214.757896 62.917957 
L 214.809996 62.8178 
L 214.919985 62.543734 
L 214.995241 62.443378 
L 215.10523 62.125748 
L 215.157331 62.015949 
L 215.26732 61.708785 
L 215.313631 61.606582 
L 215.423621 61.338559 
L 215.469932 61.240004 
L 215.579921 60.93472 
L 215.626233 60.837933 
L 215.736222 60.577239 
L 215.776745 60.470707 
L 215.886734 60.229071 
L 215.915678 60.146185 
L 216.025668 59.801377 
L 216.06619 59.734084 
L 216.17618 59.457231 
L 216.234069 59.380594 
L 216.344058 59.123479 
L 216.378792 59.018779 
L 216.488781 58.815543 
L 216.540881 58.720104 
L 216.650871 58.368282 
L 216.679815 58.279168 
L 216.789804 57.973698 
L 216.824538 57.866589 
L 216.934527 57.569221 
L 216.980839 57.477027 
L 217.090828 57.108685 
L 217.13135 57.02448 
L 217.24134 56.716116 
L 217.281862 56.616923 
L 217.391852 56.248983 
L 217.45553 56.144843 
L 217.565519 55.891465 
L 217.594464 55.807065 
L 217.704453 55.41962 
L 217.756553 55.315802 
L 217.866542 55.086265 
L 217.912854 54.985554 
L 218.022843 54.830608 
L 218.028632 54.830608 
L 218.138621 54.464071 
L 218.196511 54.357108 
L 218.3065 54.064814 
L 218.335444 53.977131 
L 218.445434 53.684714 
L 218.491745 53.616151 
L 218.601735 53.251178 
L 218.636468 53.148514 
L 218.746457 52.712186 
L 218.792769 52.650314 
L 218.902758 52.376282 
L 218.983803 52.270325 
L 219.093792 51.949044 
L 219.145892 51.864379 
L 219.255882 51.555522 
L 219.290615 51.446023 
L 219.400605 51.236883 
L 219.435338 51.12592 
L 219.545328 50.895548 
L 219.620583 50.808593 
L 219.730573 50.493748 
L 219.782673 50.383149 
L 219.892662 50.222415 
L 219.967918 50.119466 
L 220.077908 49.58305 
L 220.153163 49.477904 
L 220.263153 49.183861 
L 220.286309 49.092326 
L 220.396298 48.757647 
L 220.431031 48.649432 
L 220.541021 48.285971 
L 220.564176 48.191795 
L 220.674166 47.876722 
L 220.697321 47.78351 
L 220.807311 47.576554 
L 220.824678 47.470869 
L 220.934667 47.086922 
L 220.980978 46.992199 
L 221.090968 46.684246 
L 221.137279 46.577087 
L 221.247268 46.359192 
L 221.316735 46.25767 
L 221.426725 45.979832 
L 221.473036 45.876998 
L 221.583025 45.6774 
L 221.629337 45.567346 
L 221.739326 45.313678 
L 221.76827 45.254138 
L 221.87826 44.924216 
L 221.918782 44.823841 
L 222.028772 44.45292 
L 222.080872 44.368117 
L 222.190861 43.997175 
L 222.219806 43.912669 
L 222.329795 43.577437 
L 222.364529 43.471673 
L 222.474518 43.117047 
L 222.503463 43.035849 
L 222.613452 42.654102 
L 222.642397 42.548388 
L 222.752386 42.089235 
L 222.792908 41.981324 
L 222.902898 41.70343 
L 222.937631 41.665069 
L 223.04762 41.351728 
L 223.076565 41.287156 
L 223.186554 40.753168 
L 223.238655 40.646508 
L 223.348644 40.330952 
L 223.3718 40.231851 
L 223.481789 39.808422 
L 223.504945 39.711726 
L 223.614934 39.246012 
L 223.649668 39.174181 
L 223.759657 38.792823 
L 223.817546 38.69262 
L 223.927535 38.351551 
L 223.979636 38.255744 
L 224.089625 37.893834 
L 224.141725 37.789761 
L 224.251715 37.447247 
L 224.298026 37.389778 
L 224.408015 36.791539 
L 224.442749 36.693651 
L 224.552738 36.22768 
L 224.564316 36.201441 
L 224.674305 35.620372 
L 224.720617 35.515627 
L 224.830606 34.997026 
L 224.853762 34.89547 
L 224.963751 34.525907 
L 225.004273 34.423041 
L 225.114263 34.161143 
L 225.143207 34.066285 
L 225.253197 33.510859 
L 225.299508 33.427866 
L 225.409497 33.095644 
L 225.461598 32.998685 
L 225.571587 32.527584 
L 225.617898 32.45504 
L 225.727888 32.056483 
L 225.791566 31.988133 
L 225.901555 31.563392 
L 225.942077 31.47326 
L 226.052067 31.024844 
L 226.075222 30.983847 
L 226.185212 30.346976 
L 226.225734 30.238034 
L 226.335724 29.621903 
L 226.387824 29.522391 
L 226.497813 29.100416 
L 226.526758 29.012416 
L 226.636747 28.453856 
L 226.659903 28.40571 
L 226.769892 27.874843 
L 226.78147 27.840231 
L 226.891459 27.212445 
L 226.914615 27.149376 
L 227.024604 26.711431 
L 227.036182 26.633669 
L 227.146172 26.095415 
L 227.175116 25.989192 
L 227.285106 25.53234 
L 227.331417 25.423131 
L 227.441406 24.721578 
L 227.47614 24.638751 
L 227.586129 24.19323 
L 227.615074 24.095922 
L 227.725063 23.609796 
L 227.748219 23.50015 
L 227.858208 22.919471 
L 227.881364 22.849689 
L 227.991353 22.197203 
L 228.002931 22.136159 
L 228.11292 21.403641 
L 228.141865 21.295154 
L 228.251854 20.843671 
L 228.280799 20.742444 
L 228.390788 20.111128 
L 228.396577 20.111128 
L 228.500777 19.589394 
L 228.581822 19.481879 
L 228.686023 18.917551 
L 228.720756 18.859332 
L 228.830746 18.332952 
L 228.871268 18.236177 
L 228.981257 17.711806 
L 229.015991 17.611355 
L 229.12598 17.268807 
L 229.143347 17.178707 
L 229.253336 16.705305 
L 229.28807 16.601779 
L 229.398059 16.09635 
L 229.455948 15.987558 
L 229.565938 15.552329 
L 229.612249 15.460452 
L 229.722238 15.035646 
L 229.780127 14.930328 
L 229.861172 14.678256 
L 229.930639 14.58494 
L 230.040629 14.154583 
L 230.052206 14.068314 
L 230.162196 13.638539 
L 230.237452 13.533854 
L 230.347441 13.008707 
L 230.376386 12.909537 
L 230.486375 12.38548 
L 230.555842 12.286349 
L 230.665831 11.635776 
L 230.694776 11.585288 
L 230.804765 11.123024 
L 230.862654 11.015185 
L 230.972644 10.767051 
L 231.001588 10.69401 
L 231.111578 10.195203 
L 231.157889 10.094367 
L 231.244723 9.848778 
L 231.325767 9.747029 
L 231.429968 9.532116 
L 231.458913 9.517296 
L 231.568902 8.898839 
L 231.574691 8.898839 
L 231.68468 8.172032 
L 231.690469 8.172032 
L 231.800458 7.545536 
L 231.829403 7.445105 
L 231.922026 -1 
L 231.922026 -1 
" clip-path="url(#p26c1dedc0b)" style="fill: none; stroke: #67c7d5; stroke-width: 1.5; stroke-linecap: square"/>
   </g>
   <g id="line2d_14">
    <path d="M 56.077974 191.425103 
L 56.083763 191.425103 
L 56.182175 182.602976 
L 56.500565 182.492087 
L 56.610554 182.46888 
L 56.911578 182.360747 
L 57.021567 182.326578 
L 57.473103 182.215949 
L 57.583092 182.173557 
L 58.422485 182.063039 
L 58.526685 182.003527 
L 58.943487 181.89495 
L 59.053476 181.824307 
L 59.348711 181.720898 
L 59.4587 181.680181 
L 60.581749 181.571218 
L 60.691739 181.527535 
L 60.923295 181.419224 
L 61.033285 181.36793 
L 61.403775 181.258911 
L 61.513765 181.229696 
L 62.301057 181.122184 
L 62.411046 181.070196 
L 62.81627 180.963459 
L 62.92626 180.897933 
L 63.262017 180.788725 
L 63.372006 180.734852 
L 64.188243 180.625893 
L 64.298232 180.588345 
L 64.587678 180.492599 
L 64.697667 180.422783 
L 64.975535 180.314749 
L 65.085525 180.261719 
L 65.618105 180.152801 
L 65.728094 180.095045 
L 65.988595 179.984536 
L 66.098584 179.916335 
L 66.416975 179.805348 
L 66.526964 179.768804 
L 66.990077 179.660275 
L 67.100067 179.635927 
L 67.302679 179.527242 
L 67.412668 179.481987 
L 67.71948 179.377205 
L 67.82947 179.327732 
L 68.333105 179.22242 
L 68.443095 179.174954 
L 68.726751 179.064319 
L 68.836741 179.021928 
L 69.079875 178.915717 
L 69.189865 178.859321 
L 69.461944 178.749754 
L 69.490888 178.736701 
L 69.954001 178.627861 
L 70.063991 178.570148 
L 70.330281 178.459478 
L 70.44027 178.400547 
L 70.683404 178.290528 
L 70.770238 178.251208 
L 71.146517 178.141853 
L 71.256507 178.07312 
L 71.482274 177.963476 
L 71.592264 177.899718 
L 71.875921 177.792817 
L 71.922232 177.759224 
L 72.263778 177.648359 
L 72.373767 177.619394 
L 72.559012 177.510632 
L 72.669002 177.456504 
L 72.89477 177.359813 
L 73.004759 177.293915 
L 73.42735 177.18529 
L 73.53155 177.129212 
L 73.728373 177.025835 
L 73.838362 176.939792 
L 74.006241 176.837568 
L 74.093075 176.788202 
L 74.359365 176.678383 
L 74.469354 176.629156 
L 74.660388 176.519946 
L 74.770378 176.453862 
L 74.97299 176.345669 
L 75.054034 176.295387 
L 75.337691 176.185252 
L 75.447681 176.144249 
L 75.621348 176.033481 
L 75.731337 175.982195 
L 75.951316 175.875574 
L 76.061305 175.805586 
L 76.373907 175.699491 
L 76.483896 175.64059 
L 76.727031 175.529666 
L 76.83702 175.461583 
L 76.958587 175.351416 
L 77.068576 175.312616 
L 77.271188 175.204682 
L 77.381178 175.15063 
L 77.572212 175.041311 
L 77.682201 174.944521 
L 77.896391 174.837577 
L 78.006381 174.79284 
L 78.237937 174.68226 
L 78.347926 174.636173 
L 78.54475 174.527631 
L 78.654739 174.471453 
L 78.868929 174.364404 
L 78.978918 174.324316 
L 79.227841 174.213515 
L 79.337831 174.151042 
L 79.49992 174.041368 
L 79.60991 173.949786 
L 79.841466 173.842668 
L 79.951456 173.765231 
L 80.183012 173.654674 
L 80.293002 173.598235 
L 80.449302 173.501866 
L 80.559292 173.423085 
L 80.790848 173.313424 
L 80.883471 173.259077 
L 81.132394 173.149832 
L 81.242383 173.070338 
L 81.36974 172.966543 
L 81.479729 172.910507 
L 81.699708 172.80604 
L 81.809697 172.728373 
L 81.989153 172.620182 
L 82.099143 172.520187 
L 82.249655 172.415547 
L 82.359644 172.37978 
L 82.544889 172.27014 
L 82.654878 172.212083 
L 82.840124 172.101649 
L 82.950113 172.03509 
L 83.112203 171.9319 
L 83.222192 171.880898 
L 83.413226 171.774749 
L 83.523216 171.692562 
L 83.656361 171.581632 
L 83.76635 171.507973 
L 84.050007 171.40055 
L 84.159996 171.35553 
L 84.374186 171.244854 
L 84.484175 171.186249 
L 84.669421 171.086605 
L 84.77941 171.000825 
L 84.9936 170.892976 
L 85.103589 170.78171 
L 85.288834 170.673199 
L 85.398824 170.597325 
L 85.543547 170.491546 
L 85.607225 170.433178 
L 85.867726 170.323936 
L 85.977715 170.235161 
L 86.174538 170.127598 
L 86.284528 170.056365 
L 86.469773 169.945398 
L 86.579762 169.857444 
L 86.741852 169.750333 
L 86.851841 169.660668 
L 87.002353 169.55706 
L 87.112342 169.504386 
L 87.309165 169.39376 
L 87.419155 169.307023 
L 87.598611 169.198279 
L 87.7086 169.126401 
L 87.876479 169.018283 
L 87.957524 168.967141 
L 88.18908 168.86234 
L 88.29907 168.813079 
L 88.438004 168.705462 
L 88.547993 168.616817 
L 88.663771 168.506166 
L 88.773761 168.45869 
L 88.918483 168.359259 
L 89.028473 168.271891 
L 89.184773 168.161534 
L 89.294763 168.059636 
L 89.46843 167.949021 
L 89.566842 167.870894 
L 89.711565 167.760372 
L 89.821554 167.659154 
L 89.931543 167.552936 
L 90.041533 167.485993 
L 90.209411 167.375648 
L 90.319401 167.283185 
L 90.452546 167.172962 
L 90.562535 167.030766 
L 90.718836 166.923305 
L 90.828825 166.851843 
L 91.01407 166.748003 
L 91.12406 166.669181 
L 91.268782 166.558456 
L 91.378772 166.521973 
L 91.529284 166.412812 
L 91.639273 166.308079 
L 91.807151 166.202596 
L 91.917141 166.082742 
L 92.142909 165.971944 
L 92.252898 165.881822 
L 92.391832 165.773045 
L 92.501821 165.68399 
L 92.646544 165.573781 
L 92.756533 165.503532 
L 92.889678 165.392986 
L 92.999668 165.28598 
L 93.173335 165.176371 
L 93.283325 165.104505 
L 93.46857 164.996743 
L 93.578559 164.902597 
L 93.73486 164.793723 
L 93.844849 164.724472 
L 94.018517 164.624948 
L 94.128506 164.551411 
L 94.296385 164.440493 
L 94.406374 164.316146 
L 94.580041 164.212264 
L 94.678453 164.085992 
L 94.840542 163.974988 
L 94.950532 163.860003 
L 95.077888 163.751174 
L 95.187877 163.632043 
L 95.378911 163.539933 
L 95.488901 163.379695 
L 95.656779 163.27086 
L 95.766769 163.186577 
L 95.934647 163.084718 
L 96.044637 163.0026 
L 96.18357 162.900295 
L 96.29356 162.793138 
L 96.444072 162.687948 
L 96.513539 162.621088 
L 96.681417 162.51666 
L 96.791406 162.370273 
L 96.895607 162.259735 
L 96.982441 162.135968 
L 97.115586 162.034407 
L 97.225575 161.934579 
L 97.352931 161.823948 
L 97.46292 161.702156 
L 97.619221 161.600735 
L 97.729211 161.512451 
L 97.873933 161.413579 
L 97.983923 161.294452 
L 98.10549 161.184365 
L 98.215479 161.14371 
L 98.389147 161.035555 
L 98.499136 160.935306 
L 98.672803 160.825272 
L 98.782793 160.728843 
L 98.886993 160.623902 
L 98.996983 160.530578 
L 99.164861 160.421255 
L 99.274851 160.353419 
L 99.407996 160.245517 
L 99.494829 160.175609 
L 99.656919 160.071136 
L 99.766908 159.920264 
L 99.882687 159.815228 
L 99.992676 159.706423 
L 100.166343 159.598421 
L 100.276333 159.493835 
L 100.415267 159.399368 
L 100.525256 159.265788 
L 100.635245 159.15714 
L 100.745235 159.056183 
L 100.855224 158.950998 
L 100.965213 158.823997 
L 101.121514 158.715636 
L 101.231503 158.648925 
L 101.324126 158.56938 
L 101.434115 158.451665 
L 101.578838 158.346201 
L 101.688828 158.234562 
L 101.874073 158.124325 
L 101.984062 157.9965 
L 102.082474 157.89674 
L 102.169308 157.733083 
L 102.319819 157.622558 
L 102.429809 157.486036 
L 102.551376 157.376239 
L 102.661365 157.261503 
L 102.829244 157.15066 
L 102.939233 157.059081 
L 103.089745 156.951779 
L 103.199734 156.840351 
L 103.315513 156.740137 
L 103.425502 156.616073 
L 103.570225 156.507692 
L 103.680214 156.366402 
L 103.801781 156.259263 
L 103.911771 156.142961 
L 104.068071 156.034669 
L 104.178061 155.916298 
L 104.299628 155.810308 
L 104.403828 155.724725 
L 104.513818 155.632462 
L 104.623807 155.522037 
L 104.722219 155.41496 
L 104.832208 155.314528 
L 104.965353 155.20346 
L 105.075342 155.100112 
L 105.231643 154.989577 
L 105.341632 154.862426 
L 105.474777 154.757558 
L 105.584767 154.654229 
L 105.723701 154.545194 
L 105.83369 154.413818 
L 105.972624 154.305639 
L 106.082613 154.164193 
L 106.244703 154.055624 
L 106.354692 153.9142 
L 106.551515 153.804513 
L 106.661505 153.736547 
L 106.765705 153.635888 
L 106.875695 153.539951 
L 107.014629 153.444584 
L 107.124618 153.336168 
L 107.217241 153.235302 
L 107.32723 153.132609 
L 107.437219 153.037722 
L 107.547209 152.8822 
L 107.703509 152.77245 
L 107.813499 152.621633 
L 107.882966 152.518832 
L 107.992955 152.402262 
L 108.097155 152.299756 
L 108.207145 152.213328 
L 108.328712 152.108997 
L 108.438701 151.986715 
L 108.525535 151.882671 
L 108.635524 151.806959 
L 108.757092 151.719315 
L 108.867081 151.621446 
L 108.988648 151.513931 
L 109.098638 151.40846 
L 109.220205 151.310259 
L 109.330194 151.155412 
L 109.428606 151.066927 
L 109.538595 150.953407 
L 109.683318 150.846138 
L 109.793307 150.733636 
L 109.903297 150.626857 
L 110.013286 150.514029 
L 110.140642 150.403105 
L 110.250631 150.292055 
L 110.349043 150.19355 
L 110.459032 150.012767 
L 110.586388 149.90703 
L 110.696378 149.811135 
L 110.812156 149.707654 
L 110.922145 149.636496 
L 111.107391 149.529117 
L 111.21738 149.423278 
L 111.310003 149.321412 
L 111.419992 149.214227 
L 111.541559 149.112141 
L 111.651549 148.980512 
L 111.813638 148.870361 
L 111.923628 148.759223 
L 112.039406 148.656134 
L 112.149395 148.534056 
L 112.305696 148.425084 
L 112.415685 148.298579 
L 112.508308 148.198468 
L 112.618297 148.040104 
L 112.722498 147.946845 
L 112.832487 147.826777 
L 112.930899 147.72043 
L 113.040888 147.601777 
L 113.208767 147.492059 
L 113.318756 147.343871 
L 113.417167 147.232797 
L 113.527157 147.143966 
L 113.666091 147.036459 
L 113.77608 146.880758 
L 113.886069 146.777301 
L 113.996059 146.682933 
L 114.123415 146.572935 
L 114.233404 146.467277 
L 114.354971 146.36418 
L 114.464961 146.236095 
L 114.569161 146.13543 
L 114.679151 146.020978 
L 114.812296 145.911457 
L 114.922285 145.798911 
L 114.980174 145.704857 
L 115.090164 145.591801 
L 115.229097 145.504875 
L 115.339087 145.375891 
L 115.431709 145.272167 
L 115.541699 145.054482 
L 115.674844 144.948249 
L 115.784833 144.780165 
L 115.865878 144.669796 
L 115.975867 144.567234 
L 116.074279 144.458508 
L 116.184268 144.34471 
L 116.288469 144.240013 
L 116.398458 144.127444 
L 116.520025 144.018328 
L 116.630015 143.842202 
L 116.757371 143.731261 
L 116.86736 143.590821 
L 116.965772 143.482671 
L 117.075761 143.337193 
L 117.174173 143.230189 
L 117.284162 143.082977 
L 117.463618 142.972409 
L 117.573608 142.81432 
L 117.712542 142.709369 
L 117.822531 142.590936 
L 117.944098 142.481813 
L 118.054088 142.296374 
L 118.152499 142.187291 
L 118.262488 142.021308 
L 118.331955 141.9108 
L 118.441945 141.790724 
L 118.511412 141.696727 
L 118.621401 141.558932 
L 118.708235 141.452396 
L 118.818224 141.291704 
L 118.864535 141.188004 
L 118.974525 141.061237 
L 119.090303 140.973074 
L 119.200292 140.833611 
L 119.316071 140.731992 
L 119.402904 140.637494 
L 119.536049 140.530018 
L 119.646039 140.421068 
L 119.756028 140.312861 
L 119.866018 140.170455 
L 120.016529 140.06506 
L 120.126519 139.907842 
L 120.265453 139.80274 
L 120.363864 139.664379 
L 120.49122 139.564378 
L 120.60121 139.47635 
L 120.664888 139.391691 
L 120.769088 139.205366 
L 120.902233 139.101429 
L 121.012223 138.930864 
L 121.128001 138.830596 
L 121.23799 138.673 
L 121.405869 138.564324 
L 121.515858 138.457565 
L 121.591114 138.353115 
L 121.701103 138.22213 
L 121.787937 138.116971 
L 121.897926 137.957895 
L 121.978971 137.846883 
L 122.088961 137.73093 
L 122.19895 137.6419 
L 122.308939 137.485116 
L 122.384195 137.377634 
L 122.494185 137.218604 
L 122.609963 137.119376 
L 122.719952 136.999722 
L 122.83573 136.899377 
L 122.94572 136.743683 
L 123.113598 136.636589 
L 123.223588 136.557055 
L 123.327788 136.447191 
L 123.437778 136.293212 
L 123.5825 136.182971 
L 123.69249 136.067655 
L 123.785112 135.962885 
L 123.895102 135.801579 
L 124.005091 135.695767 
L 124.11508 135.526362 
L 124.201914 135.432903 
L 124.311904 135.268866 
L 124.381371 135.171292 
L 124.49136 134.987449 
L 124.612927 134.891469 
L 124.722916 134.686156 
L 124.798172 134.608991 
L 124.908162 134.418335 
L 125.012362 134.318415 
L 125.122351 134.137912 
L 125.180241 134.050953 
L 125.29023 133.853008 
L 125.382853 133.742168 
L 125.492842 133.552442 
L 125.573887 133.451291 
L 125.683876 133.317755 
L 125.793866 133.21776 
L 125.903855 133.049862 
L 126.002266 132.944063 
L 126.112256 132.821029 
L 126.187512 132.711815 
L 126.297501 132.53408 
L 126.390124 132.445998 
L 126.500113 132.319591 
L 126.662203 132.208643 
L 126.772192 132.034335 
L 126.899548 131.925454 
L 127.009537 131.8084 
L 127.113738 131.714811 
L 127.223727 131.575853 
L 127.351083 131.471597 
L 127.42055 131.358482 
L 127.63474 131.247607 
L 127.74473 131.122725 
L 127.819985 131.013165 
L 127.929975 130.899348 
L 128.034175 130.795945 
L 128.144165 130.596373 
L 128.283099 130.516592 
L 128.393088 130.312028 
L 128.479922 130.210127 
L 128.589911 130.039124 
L 128.653589 129.932309 
L 128.763578 129.731967 
L 128.821468 129.623856 
L 128.931457 129.500341 
L 129.099335 129.394149 
L 129.209325 129.260223 
L 129.319314 129.150035 
L 129.429303 129.003799 
L 129.504559 128.893273 
L 129.614549 128.789552 
L 129.701382 128.697212 
L 129.811372 128.535688 
L 129.944517 128.424928 
L 130.054506 128.242702 
L 130.158707 128.134389 
L 130.262907 128.014386 
L 130.372896 127.906062 
L 130.482886 127.797284 
L 130.592875 127.689751 
L 130.702865 127.565045 
L 130.818643 127.461725 
L 130.928632 127.331099 
L 131.055988 127.231348 
L 131.165978 127.082812 
L 131.252811 126.973306 
L 131.362801 126.830011 
L 131.47279 126.720408 
L 131.582779 126.520541 
L 131.698558 126.41418 
L 131.808547 126.278849 
L 131.895381 126.172156 
L 132.00537 126.024977 
L 132.150093 125.917918 
L 132.260082 125.769512 
L 132.341127 125.662351 
L 132.451117 125.448566 
L 132.566895 125.34601 
L 132.676884 125.099581 
L 132.757929 125.004715 
L 132.867918 124.802373 
L 132.954752 124.694902 
L 133.064741 124.520826 
L 133.18052 124.412121 
L 133.290509 124.346233 
L 133.383132 124.244894 
L 133.493121 124.13467 
L 133.643633 124.02425 
L 133.753622 123.881111 
L 133.840456 123.779844 
L 133.950445 123.594126 
L 134.066224 123.484802 
L 134.176213 123.401635 
L 134.263047 123.30123 
L 134.373036 123.103861 
L 134.494603 122.998186 
L 134.604593 122.894256 
L 134.662482 122.796387 
L 134.772471 122.563459 
L 134.88246 122.45816 
L 134.99245 122.353395 
L 135.067706 122.248092 
L 135.177695 122.081075 
L 135.270318 121.976657 
L 135.380307 121.852924 
L 135.461352 121.7463 
L 135.559763 121.593858 
L 135.635019 121.511802 
L 135.745009 121.333475 
L 135.802898 121.263667 
L 135.901309 121.098164 
L 135.988143 120.988315 
L 136.098132 120.806174 
L 136.16181 120.701912 
L 136.2718 120.526941 
L 136.352845 120.424407 
L 136.462834 120.279126 
L 136.543879 120.171869 
L 136.653868 120.066193 
L 136.723335 119.958814 
L 136.833324 119.827895 
L 136.925947 119.724972 
L 137.035936 119.581117 
L 137.099615 119.493252 
L 137.209604 119.300041 
L 137.267493 119.198311 
L 137.377482 119.041174 
L 137.475894 118.931018 
L 137.585883 118.805429 
L 137.672717 118.700219 
L 137.782706 118.593882 
L 137.886907 118.483282 
L 137.996896 118.315115 
L 138.106886 118.205859 
L 138.216875 118.025114 
L 138.321075 117.933405 
L 138.431065 117.808698 
L 138.483165 117.723249 
L 138.593154 117.565992 
L 138.66841 117.465383 
L 138.7784 117.302083 
L 138.9347 117.194643 
L 139.04469 117.073499 
L 139.119946 116.964328 
L 139.229935 116.835443 
L 139.316769 116.727547 
L 139.426758 116.577807 
L 139.502014 116.469398 
L 139.612003 116.248626 
L 139.698837 116.13945 
L 139.808826 115.99154 
L 139.889871 115.882788 
L 139.99986 115.768345 
L 140.10985 115.660123 
L 140.219839 115.564873 
L 140.32404 115.463844 
L 140.434029 115.270021 
L 140.526652 115.1598 
L 140.636641 115.064228 
L 140.735053 114.95846 
L 140.845042 114.802879 
L 140.914509 114.695596 
L 141.024498 114.532961 
L 141.117121 114.434187 
L 141.22711 114.259712 
L 141.313944 114.150001 
L 141.423933 114.023538 
L 141.487611 113.935579 
L 141.597601 113.76273 
L 141.70759 113.657203 
L 141.817579 113.493432 
L 141.92178 113.384702 
L 142.031769 113.21577 
L 142.101236 113.119245 
L 142.211226 112.95599 
L 142.321215 112.851681 
L 142.431204 112.716682 
L 142.50646 112.605874 
L 142.61645 112.484081 
L 142.72065 112.389092 
L 142.795906 112.312326 
L 142.923262 112.204546 
L 143.033251 111.988957 
L 143.120085 111.878951 
L 143.230074 111.77679 
L 143.30533 111.668518 
L 143.41532 111.518765 
L 143.51952 111.410098 
L 143.62951 111.277481 
L 143.745288 111.174807 
L 143.855277 111.019522 
L 143.976844 110.911092 
L 144.086834 110.789523 
L 144.191034 110.680971 
L 144.301024 110.575744 
L 144.358913 110.468413 
L 144.439957 110.357551 
L 144.561525 110.252334 
L 144.671514 110.09459 
L 144.781503 109.987483 
L 144.891493 109.863611 
L 145.001482 109.768537 
L 145.111471 109.636111 
L 145.169361 109.530288 
L 145.27935 109.387832 
L 145.371973 109.284352 
L 145.481962 109.151015 
L 145.568796 109.042266 
L 145.678785 108.881933 
L 145.777197 108.775621 
L 145.881397 108.632733 
L 145.979809 108.525263 
L 146.089798 108.361758 
L 146.159265 108.255972 
L 146.269254 108.167474 
L 146.338721 108.057971 
L 146.425555 107.919296 
L 146.535544 107.808548 
L 146.633956 107.650196 
L 146.749734 107.543555 
L 146.859724 107.421333 
L 146.975502 107.312896 
L 147.085491 107.141747 
L 147.160747 107.031672 
L 147.270736 106.915782 
L 147.351781 106.810763 
L 147.461771 106.610827 
L 147.548604 106.505222 
L 147.658594 106.341752 
L 147.745427 106.240209 
L 147.855417 106.11305 
L 147.924884 106.006452 
L 148.034873 105.880115 
L 148.133285 105.7928 
L 148.243274 105.596585 
L 148.347474 105.504603 
L 148.457464 105.390769 
L 148.544297 105.29288 
L 148.654287 105.147896 
L 148.758487 105.059659 
L 148.868477 104.88191 
L 148.932155 104.782989 
L 149.042144 104.672861 
L 149.105822 104.56282 
L 149.215812 104.435249 
L 149.314223 104.328797 
L 149.424212 104.18368 
L 149.528413 104.076778 
L 149.638402 103.83887 
L 149.731025 103.731025 
L 149.841014 103.578094 
L 149.927848 103.481651 
L 150.037837 103.318517 
L 150.13046 103.208239 
L 150.240449 103.086056 
L 150.309916 102.97884 
L 150.419906 102.856202 
L 150.477795 102.746643 
L 150.587784 102.63338 
L 150.674618 102.536362 
L 150.784607 102.342662 
L 150.848285 102.248564 
L 150.940908 102.05563 
L 151.085631 101.947312 
L 151.19562 101.705851 
L 151.276665 101.602729 
L 151.386654 101.459248 
L 151.519799 101.355336 
L 151.629789 101.1455 
L 151.733989 101.046329 
L 151.843978 100.882235 
L 151.936601 100.772639 
L 152.04659 100.647893 
L 152.150791 100.542908 
L 152.26078 100.32988 
L 152.341825 100.227206 
L 152.451814 100.094497 
L 152.538648 99.986917 
L 152.648637 99.707482 
L 152.74126 99.59662 
L 152.851249 99.365137 
L 152.914928 99.262645 
L 153.024917 99.116684 
L 153.134906 99.009252 
L 153.244896 98.824228 
L 153.296996 98.730215 
L 153.406985 98.619828 
L 153.505397 98.510273 
L 153.615386 98.289647 
L 153.771687 98.179092 
L 153.881676 98.056741 
L 153.945354 97.959406 
L 154.055344 97.752173 
L 154.130599 97.652219 
L 154.240589 97.428944 
L 154.373734 97.324481 
L 154.483723 97.156819 
L 154.564768 97.056326 
L 154.674757 96.927692 
L 154.750013 96.825265 
L 154.860003 96.638787 
L 154.946836 96.528563 
L 155.056826 96.368764 
L 155.114715 96.267326 
L 155.224704 96.137612 
L 155.29996 96.029581 
L 155.409949 95.816028 
L 155.473628 95.706158 
L 155.583617 95.615855 
L 155.653084 95.508067 
L 155.763073 95.35384 
L 155.861485 95.248325 
L 155.971474 95.148894 
L 156.093041 95.043257 
L 156.203031 94.866753 
L 156.255131 94.761935 
L 156.36512 94.553036 
L 156.457743 94.44415 
L 156.567732 94.305452 
L 156.637199 94.215783 
L 156.747189 93.958798 
L 156.828233 93.849805 
L 156.938223 93.659764 
L 156.990323 93.589827 
L 157.100312 93.384005 
L 157.204513 93.281633 
L 157.314502 93.070259 
L 157.383969 92.967346 
L 157.482381 92.778772 
L 157.598159 92.691811 
L 157.708148 92.503152 
L 157.789193 92.400157 
L 157.899182 92.273552 
L 157.968649 92.166544 
L 158.078639 91.986219 
L 158.200206 91.88253 
L 158.310195 91.613007 
L 158.397029 91.519912 
L 158.50123 91.302628 
L 158.559119 91.191903 
L 158.669108 90.984796 
L 158.773308 90.873818 
L 158.883298 90.691639 
L 158.952765 90.581931 
L 159.062754 90.452201 
L 159.166955 90.342226 
L 159.276944 90.241381 
L 159.363778 90.137021 
L 159.473767 90.021273 
L 159.56639 89.918884 
L 159.676379 89.709775 
L 159.763213 89.598953 
L 159.873202 89.456268 
L 159.971614 89.348472 
L 160.081603 89.151726 
L 160.145281 89.040706 
L 160.25527 88.797471 
L 160.307371 88.703235 
L 160.41736 88.533839 
L 160.515772 88.428075 
L 160.625761 88.323356 
L 160.68365 88.212841 
L 160.793639 88.03749 
L 160.920996 87.931392 
L 161.030985 87.775544 
L 161.106241 87.665626 
L 161.21623 87.507149 
L 161.308853 87.398631 
L 161.418842 87.218451 
L 161.505676 87.110447 
L 161.615665 86.906193 
L 161.667765 86.808078 
L 161.777755 86.600688 
L 161.847222 86.508321 
L 161.957211 86.377766 
L 162.032467 86.269667 
L 162.136668 86.055127 
L 162.246657 85.944059 
L 162.356646 85.821505 
L 162.455058 85.715701 
L 162.565047 85.528067 
L 162.640303 85.427127 
L 162.750292 85.267909 
L 162.81397 85.175618 
L 162.92396 85.024305 
L 163.010794 84.913843 
L 163.120783 84.686021 
L 163.196039 84.587391 
L 163.29445 84.468088 
L 163.410229 84.357706 
L 163.520218 84.134591 
L 163.630207 84.025652 
L 163.740197 83.879696 
L 163.855975 83.769505 
L 163.965964 83.620668 
L 164.018065 83.509666 
L 164.128054 83.296588 
L 164.214888 83.190247 
L 164.324877 82.989225 
L 164.405922 82.888323 
L 164.515911 82.621716 
L 164.602745 82.514257 
L 164.712734 82.319026 
L 164.759046 82.230399 
L 164.869035 82.098439 
L 164.95008 81.987754 
L 165.060069 81.759323 
L 165.129536 81.649525 
L 165.239525 81.470053 
L 165.314781 81.374255 
L 165.424771 81.176174 
L 165.476871 81.069897 
L 165.58686 80.962998 
L 165.644749 80.854031 
L 165.754739 80.575547 
L 165.847361 80.476498 
L 165.957351 80.298602 
L 166.003662 80.18889 
L 166.113651 80.018626 
L 166.154174 79.915648 
L 166.264163 79.726468 
L 166.356786 79.630842 
L 166.466775 79.445744 
L 166.553609 79.340377 
L 166.663598 79.190874 
L 166.773588 79.079933 
L 166.883577 78.893077 
L 166.993566 78.792158 
L 167.103556 78.616729 
L 167.230912 78.521218 
L 167.335112 78.331932 
L 167.410368 78.227432 
L 167.520358 78.04814 
L 167.589824 77.942397 
L 167.699814 77.831409 
L 167.821381 77.728552 
L 167.93137 77.595023 
L 167.983471 77.529895 
L 168.09346 77.265598 
L 168.168716 77.16172 
L 168.278705 77.038842 
L 168.365539 76.929278 
L 168.475528 76.708782 
L 168.568151 76.604655 
L 168.67814 76.368646 
L 168.747607 76.258749 
L 168.857597 76.062907 
L 168.921275 75.975617 
L 169.031264 75.73026 
L 169.112309 75.639301 
L 169.222298 75.431929 
L 169.303343 75.322452 
L 169.413332 75.13483 
L 169.505955 75.024502 
L 169.615944 74.862095 
L 169.679622 74.768892 
L 169.696989 74.701532 
L 169.835923 74.603835 
L 169.945912 74.452073 
L 170.044324 74.341366 
L 170.154313 74.249173 
L 170.229569 74.143223 
L 170.339559 73.969873 
L 170.397448 73.867651 
L 170.507437 73.717889 
L 170.576904 73.617865 
L 170.686893 73.429826 
L 170.767938 73.326566 
L 170.877928 73.076618 
L 170.964761 72.973519 
L 171.074751 72.776389 
L 171.167373 72.666954 
L 171.277363 72.523286 
L 171.358407 72.424218 
L 171.468397 72.264052 
L 171.584175 72.155468 
L 171.694165 71.965592 
L 171.752054 71.886091 
L 171.862043 71.712009 
L 171.948877 71.625732 
L 172.058866 71.425226 
L 172.151489 71.342692 
L 172.261478 71.160482 
L 172.319367 71.058712 
L 172.429357 70.846021 
L 172.533557 70.74275 
L 172.643546 70.561608 
L 172.718802 70.450664 
L 172.828792 70.274036 
L 172.915625 70.168549 
L 173.025615 69.91261 
L 173.135604 69.802931 
L 173.245593 69.642796 
L 173.320849 69.541743 
L 173.430839 69.389098 
L 173.506095 69.290043 
L 173.616084 69.110139 
L 173.708707 69.010654 
L 173.818696 68.858135 
L 173.893952 68.750528 
L 174.003941 68.512082 
L 174.084986 68.41239 
L 174.194975 68.280524 
L 174.27602 68.187484 
L 174.38601 68.037732 
L 174.478632 67.934996 
L 174.588622 67.791156 
L 174.715978 67.687726 
L 174.825967 67.525674 
L 174.883856 67.418063 
L 174.993845 67.330528 
L 175.057524 67.229008 
L 175.167513 66.933807 
L 175.23698 66.833118 
L 175.346969 66.682746 
L 175.416436 66.576197 
L 175.526426 66.417463 
L 175.601681 66.307764 
L 175.711671 66.160826 
L 175.792716 66.054699 
L 175.891127 65.904459 
L 175.989539 65.795599 
L 176.099528 65.55252 
L 176.209517 65.443949 
L 176.319507 65.184135 
L 176.371607 65.08961 
L 176.481596 64.925687 
L 176.51633 64.843697 
L 176.626319 64.583906 
L 176.678419 64.492527 
L 176.788409 64.349338 
L 176.88682 64.242061 
L 176.99681 64.078571 
L 177.025754 63.969115 
L 177.135744 63.810954 
L 177.182055 63.700066 
L 177.292044 63.562383 
L 177.373089 63.46032 
L 177.483078 63.210378 
L 177.540968 63.105989 
L 177.650957 62.95541 
L 177.737791 62.846262 
L 177.84778 62.65054 
L 177.917247 62.54241 
L 178.027236 62.353859 
L 178.085126 62.253443 
L 178.195115 61.997697 
L 178.27616 61.88761 
L 178.386149 61.77981 
L 178.444038 61.669418 
L 178.554028 61.405214 
L 178.635072 61.296433 
L 178.745062 61.155135 
L 178.883996 61.048432 
L 178.993985 60.892951 
L 179.069241 60.799469 
L 179.17923 60.57839 
L 179.312375 60.484232 
L 179.422365 60.293 
L 179.520776 60.184998 
L 179.630766 60.011796 
L 179.694444 59.909714 
L 179.804433 59.74033 
L 179.850744 59.637748 
L 179.960734 59.504073 
L 180.059145 59.403047 
L 180.169135 59.222249 
L 180.261757 59.120984 
L 180.371747 58.960118 
L 180.516469 58.864649 
L 180.626459 58.687385 
L 180.678559 58.593129 
L 180.788548 58.391181 
L 180.869593 58.301025 
L 180.979583 58.135736 
L 181.095361 58.029615 
L 181.20535 57.891423 
L 181.280606 57.787116 
L 181.384807 57.609921 
L 181.47164 57.51391 
L 181.58163 57.373489 
L 181.697408 57.272477 
L 181.807397 57.108567 
L 181.911598 56.998509 
L 182.021587 56.885877 
L 182.079476 56.77909 
L 182.189466 56.626591 
L 182.27051 56.529283 
L 182.3805 56.373948 
L 182.461545 56.274415 
L 182.571534 56.07394 
L 182.658368 55.971893 
L 182.768357 55.817902 
L 182.837824 55.716421 
L 182.947813 55.550095 
L 183.040436 55.439146 
L 183.150425 55.327248 
L 183.23147 55.220111 
L 183.341459 55.1115 
L 183.434082 55.016471 
L 183.544071 54.815368 
L 183.619327 54.721468 
L 183.729317 54.583935 
L 183.821939 54.484557 
L 183.931929 54.305492 
L 184.012973 54.197425 
L 184.122963 53.960375 
L 184.186641 53.856318 
L 184.29663 53.696624 
L 184.342942 53.624787 
L 184.452931 53.39792 
L 184.551342 53.298513 
L 184.661332 53.17395 
L 184.748166 53.080887 
L 184.858155 52.835465 
L 184.933411 52.742302 
L 185.0434 52.583546 
L 185.124445 52.478335 
L 185.234434 52.261457 
L 185.327057 52.156827 
L 185.437046 51.946427 
L 185.506513 51.847624 
L 185.616503 51.699363 
L 185.680181 51.61516 
L 185.79017 51.429022 
L 185.836481 51.32871 
L 185.946471 51.20057 
L 186.027516 51.095396 
L 186.137505 50.924306 
L 186.224339 50.822243 
L 186.334328 50.629108 
L 186.43274 50.51967 
L 186.542729 50.38799 
L 186.629563 50.277227 
L 186.739552 50.073581 
L 186.814808 49.968296 
L 186.924797 49.805212 
L 187.005842 49.695224 
L 187.115831 49.491335 
L 187.214243 49.382489 
L 187.324232 49.208513 
L 187.382121 49.136638 
L 187.492111 48.90718 
L 187.561578 48.800067 
L 187.665778 48.668564 
L 187.729456 48.585098 
L 187.839446 48.370842 
L 188.001535 48.25993 
L 188.111525 48.071361 
L 188.18678 47.968904 
L 188.29677 47.698322 
L 188.372026 47.592684 
L 188.482015 47.414139 
L 188.592004 47.304488 
L 188.701994 47.027571 
L 188.765672 46.921623 
L 188.875661 46.781269 
L 188.962495 46.690093 
L 189.072484 46.428404 
L 189.182474 46.318125 
L 189.292463 46.109523 
L 189.442975 46.011132 
L 189.552964 45.84085 
L 189.62822 45.756001 
L 189.738209 45.430724 
L 189.830832 45.344194 
L 189.940821 45.171757 
L 190.0566 45.061864 
L 190.166589 44.800311 
L 190.265001 44.690676 
L 190.37499 44.501235 
L 190.467613 44.390408 
L 190.577602 44.1915 
L 190.652858 44.082126 
L 190.74548 43.922499 
L 190.849681 43.829786 
L 190.95967 43.691963 
L 191.052293 43.581334 
L 191.156493 43.434043 
L 191.254905 43.330225 
L 191.364894 43.158753 
L 191.416994 43.071364 
L 191.526984 42.944383 
L 191.613818 42.857368 
L 191.723807 42.689789 
L 191.770118 42.60313 
L 191.880108 42.413214 
L 191.92063 42.321564 
L 192.030619 42.130942 
L 192.111664 42.020835 
L 192.221654 41.835103 
L 192.279543 41.739407 
L 192.389532 41.564791 
L 192.50531 41.454856 
L 192.6153 41.280643 
L 192.661611 41.171242 
L 192.7716 40.965435 
L 192.841067 40.863881 
L 192.951057 40.710426 
L 193.020524 40.605728 
L 193.130513 40.454975 
L 193.194191 40.34844 
L 193.30418 40.126439 
L 193.379436 40.021407 
L 193.489426 39.785613 
L 193.610993 39.674816 
L 193.720982 39.485384 
L 193.813605 39.392538 
L 193.923594 39.133206 
L 194.004639 39.022632 
L 194.114628 38.872827 
L 194.16094 38.785855 
L 194.270929 38.595324 
L 194.386707 38.499713 
L 194.496697 38.326973 
L 194.554586 38.235267 
L 194.664575 38.102489 
L 194.768776 38.001804 
L 194.878765 37.768399 
L 194.95981 37.66468 
L 195.069799 37.478992 
L 195.133477 37.387319 
L 195.243467 37.237468 
L 195.336089 37.128515 
L 195.446079 37.021894 
L 195.527123 36.926332 
L 195.637113 36.710933 
L 195.718158 36.603955 
L 195.828147 36.44788 
L 195.891825 36.357291 
L 196.001814 36.192349 
L 196.094437 36.08449 
L 196.204426 35.940395 
L 196.279682 35.836183 
L 196.389672 35.690327 
L 196.511239 35.581124 
L 196.621228 35.372409 
L 196.667539 35.274206 
L 196.77174 35.139488 
L 196.922252 35.029003 
L 197.032241 34.850003 
L 197.119075 34.74024 
L 197.229064 34.661636 
L 197.310109 34.564309 
L 197.420098 34.430071 
L 197.495354 34.330459 
L 197.605344 34.179969 
L 197.709544 34.071517 
L 197.819533 33.849464 
L 197.860056 33.742449 
L 197.970045 33.588201 
L 198.10319 33.47947 
L 198.213179 33.328764 
L 198.282646 33.230527 
L 198.392636 33.08718 
L 198.496836 32.978489 
L 198.606826 32.775578 
L 198.734182 32.672556 
L 198.844171 32.4574 
L 198.931005 32.346524 
L 199.035205 32.202463 
L 199.162561 32.109958 
L 199.272551 31.898356 
L 199.376751 31.791604 
L 199.486741 31.65446 
L 199.561996 31.549162 
L 199.671986 31.365419 
L 199.753031 31.259071 
L 199.86302 31.139455 
L 199.938276 31.037844 
L 200.048265 30.846247 
L 200.175621 30.737307 
L 200.285611 30.623474 
L 200.337711 30.522262 
L 200.4477 30.352742 
L 200.540323 30.244874 
L 200.650312 30.084828 
L 200.737146 29.977554 
L 200.841346 29.76448 
L 200.933969 29.658295 
L 201.043958 29.495144 
L 201.153948 29.39708 
L 201.263937 29.265807 
L 201.362349 29.175461 
L 201.472338 29.043089 
L 201.530227 28.943522 
L 201.640217 28.719163 
L 201.715472 28.61076 
L 201.825462 28.402576 
L 201.923873 28.291509 
L 202.033863 28.14868 
L 202.10333 28.042094 
L 202.213319 27.883718 
L 202.340675 27.794013 
L 202.450665 27.577364 
L 202.514343 27.480897 
L 202.589598 27.322185 
L 202.769055 27.218875 
L 202.879044 27.079062 
L 202.971667 26.980883 
L 203.081656 26.821284 
L 203.145334 26.72513 
L 203.255324 26.561066 
L 203.330579 26.452616 
L 203.440569 26.257416 
L 203.585292 26.146379 
L 203.695281 25.953753 
L 203.822637 25.849231 
L 203.932627 25.677964 
L 204.002093 25.573185 
L 204.112083 25.441951 
L 204.216283 25.335726 
L 204.326273 25.256929 
L 204.401529 25.174436 
L 204.511518 25.011644 
L 204.586774 24.905717 
L 204.696763 24.741664 
L 204.743074 24.651647 
L 204.853064 24.389638 
L 204.945686 24.280849 
L 205.055676 24.109138 
L 205.154087 24.013878 
L 205.252499 23.896469 
L 205.385644 23.786475 
L 205.495633 23.597658 
L 205.559311 23.499525 
L 205.669301 23.396869 
L 205.802446 23.298045 
L 205.912435 23.127838 
L 206.016636 23.017295 
L 206.115047 22.925563 
L 206.25977 22.821554 
L 206.369759 22.682298 
L 206.445015 22.585455 
L 206.531849 22.432941 
L 206.693938 22.322949 
L 206.803928 22.109034 
L 206.908128 21.999544 
L 207.018118 21.895468 
L 207.116529 21.786168 
L 207.226519 21.661771 
L 207.307563 21.555125 
L 207.417553 21.424455 
L 207.53912 21.318183 
L 207.649109 21.123465 
L 207.718576 21.013913 
L 207.828566 20.846508 
L 207.892244 20.745006 
L 208.002233 20.626987 
L 208.089067 20.537275 
L 208.199056 20.403794 
L 208.291679 20.293581 
L 208.401668 20.186336 
L 208.482713 20.075977 
L 208.592702 19.981478 
L 208.667958 19.878248 
L 208.777948 19.7415 
L 208.853203 19.633902 
L 208.963193 19.534325 
L 209.08476 19.429507 
L 209.194749 19.277253 
L 209.293161 19.17144 
L 209.40315 19.025186 
L 209.501562 18.919317 
L 209.611551 18.743144 
L 209.686807 18.633303 
L 209.767852 18.529531 
L 209.941519 18.419268 
L 210.051509 18.240865 
L 210.132553 18.152039 
L 210.242543 18.018497 
L 210.340954 17.910855 
L 210.439366 17.742416 
L 210.531988 17.640865 
L 210.641978 17.51916 
L 210.717234 17.415688 
L 210.827223 17.240199 
L 210.94879 17.139547 
L 211.05878 17.026517 
L 211.139824 16.920277 
L 211.249814 16.733011 
L 211.365592 16.625778 
L 211.475581 16.500957 
L 211.597149 16.405942 
L 211.707138 16.253816 
L 211.80555 16.143974 
L 211.915539 15.996914 
L 212.019739 15.888899 
L 212.129729 15.743363 
L 212.239718 15.639556 
L 212.349707 15.486277 
L 212.448119 15.375858 
L 212.558108 15.283371 
L 212.691253 15.177129 
L 212.801243 15.081558 
L 212.917021 14.97179 
L 213.02701 14.830252 
L 213.113844 14.72054 
L 213.223833 14.601725 
L 213.328034 14.493373 
L 213.438023 14.350327 
L 213.576957 14.240924 
L 213.686947 14.175241 
L 213.814303 14.06962 
L 213.924292 13.962922 
L 214.051648 13.860927 
L 214.161638 13.771496 
L 214.271627 13.663707 
L 214.381616 13.605512 
L 214.497395 13.49828 
L 214.607384 13.335216 
L 214.809996 13.227603 
L 214.919985 13.122129 
L 215.035764 13.026647 
L 215.145753 12.933554 
L 215.226798 12.823095 
L 215.330998 12.74377 
L 215.516243 12.637856 
L 215.626233 12.48861 
L 215.730433 12.380219 
L 215.828845 12.280051 
L 216.043035 12.172471 
L 216.153024 12.065976 
L 216.245647 11.955235 
L 216.355636 11.829038 
L 216.558248 11.719776 
L 216.668237 11.678428 
L 216.824538 11.568327 
L 216.934527 11.452457 
L 217.015572 11.353089 
L 217.125561 11.265222 
L 217.34554 11.156104 
L 217.45553 11.062655 
L 217.565519 10.954378 
L 217.675508 10.810497 
L 217.947587 10.699791 
L 218.057577 10.621028 
L 218.213877 10.510503 
L 218.323867 10.414705 
L 218.503323 10.30632 
L 218.538056 10.288613 
L 219.030114 10.183059 
L 219.140104 10.071483 
L 219.313771 9.966027 
L 219.42376 9.884442 
L 219.632161 9.775547 
L 219.718995 9.731278 
L 219.985285 9.631314 
L 220.095274 9.557797 
L 220.245786 9.447724 
L 220.355775 9.358369 
L 220.679955 9.249027 
L 220.691532 9.242354 
L 221.038867 9.133772 
L 221.148857 9.027954 
L 221.380413 8.926605 
L 221.461458 8.879483 
L 221.98246 8.7697 
L 221.994038 8.754656 
L 222.51504 8.643668 
L 222.62503 8.548879 
L 222.862375 8.437847 
L 222.972365 8.386643 
L 223.273388 8.276786 
L 223.279177 8.269338 
L 223.719135 8.161841 
L 223.829124 8.088973 
L 224.002791 7.984919 
L 224.112781 7.912396 
L 224.350126 7.808386 
L 224.350126 7.798891 
L 226.023122 7.696118 
L 226.133112 7.623182 
L 226.399402 7.515193 
L 226.480446 7.48635 
L 226.717792 7.375926 
L 226.793048 7.352687 
L 230.932121 7.246049 
L 231.042111 7.189651 
L 231.308401 7.078931 
L 231.41839 7.02048 
L 231.719414 6.916763 
L 231.829403 6.848825 
L 231.922026 6.808313 
L 231.922026 6.805619 
L 231.922026 -1 
L 231.922026 -1 
" clip-path="url(#p26c1dedc0b)" style="fill: none; stroke-dasharray: 7.5,1.5; stroke-dashoffset: 0; stroke: #ac7726; stroke-width: 1.5"/>
   </g>
   <g id="patch_3">
    <path d="M 56.077974 182.64351 
L 56.077974 6.799459 
" style="fill: none; stroke: #000000; stroke-width: 0.8; stroke-linejoin: miter; stroke-linecap: square"/>
   </g>
   <g id="patch_4">
    <path d="M 231.922026 182.64351 
L 231.922026 6.799459 
" style="fill: none; stroke: #000000; stroke-width: 0.8; stroke-linejoin: miter; stroke-linecap: square"/>
   </g>
   <g id="patch_5">
    <path d="M 56.077974 182.64351 
L 231.922026 182.64351 
" style="fill: none; stroke: #000000; stroke-width: 0.8; stroke-linejoin: miter; stroke-linecap: square"/>
   </g>
   <g id="patch_6">
    <path d="M 56.077974 6.799459 
L 231.922026 6.799459 
" style="fill: none; stroke: #000000; stroke-width: 0.8; stroke-linejoin: miter; stroke-linecap: square"/>
   </g>
   <g id="legend_1">
    <g id="patch_7">
     <path d="M 63.077974 44.155709 
L 140.054537 44.155709 
Q 142.054537 44.155709 142.054537 42.155709 
L 142.054537 13.799459 
Q 142.054537 11.799459 140.054537 11.799459 
L 63.077974 11.799459 
Q 61.077974 11.799459 61.077974 13.799459 
L 61.077974 42.155709 
Q 61.077974 44.155709 63.077974 44.155709 
z
" style="fill: #ffffff; opacity: 0.8; stroke: #cccccc; stroke-linejoin: miter"/>
    </g>
    <g id="line2d_15">
     <path d="M 65.077974 19.897896 
L 75.077974 19.897896 
L 75.077974 19.897896 
L 85.077974 19.897896 
L 85.077974 19.897896 
" style="fill: none; stroke: #67c7d5; stroke-width: 1.5; stroke-linecap: square"/>
    </g>
    <g id="text_15">
     <!-- ATL09 -->
     <g transform="translate(93.077974 23.397896) scale(0.1 -0.1)">
      <defs>
       <path id="DejaVuSans-41" d="M 2188 4044 
L 1331 1722 
L 3047 1722 
L 2188 4044 
z
M 1831 4666 
L 2547 4666 
L 4325 0 
L 3669 0 
L 3244 1197 
L 1141 1197 
L 716 0 
L 50 0 
L 1831 4666 
z
" transform="scale(0.015625)"/>
       <path id="DejaVuSans-54" d="M -19 4666 
L 3928 4666 
L 3928 4134 
L 2272 4134 
L 2272 0 
L 1638 0 
L 1638 4134 
L -19 4134 
L -19 4666 
z
" transform="scale(0.015625)"/>
       <path id="DejaVuSans-4c" d="M 628 4666 
L 1259 4666 
L 1259 531 
L 3531 531 
L 3531 0 
L 628 0 
L 628 4666 
z
" transform="scale(0.015625)"/>
       <path id="DejaVuSans-39" d="M 703 97 
L 703 672 
Q 941 559 1184 500 
Q 1428 441 1663 441 
Q 2288 441 2617 861 
Q 2947 1281 2994 2138 
Q 2813 1869 2534 1725 
Q 2256 1581 1919 1581 
Q 1219 1581 811 2004 
Q 403 2428 403 3163 
Q 403 3881 828 4315 
Q 1253 4750 1959 4750 
Q 2769 4750 3195 4129 
Q 3622 3509 3622 2328 
Q 3622 1225 3098 567 
Q 2575 -91 1691 -91 
Q 1453 -91 1209 -44 
Q 966 3 703 97 
z
M 1959 2075 
Q 2384 2075 2632 2365 
Q 2881 2656 2881 3163 
Q 2881 3666 2632 3958 
Q 2384 4250 1959 4250 
Q 1534 4250 1286 3958 
Q 1038 3666 1038 3163 
Q 1038 2656 1286 2365 
Q 1534 2075 1959 2075 
z
" transform="scale(0.015625)"/>
      </defs>
      <use xlink:href="#DejaVuSans-41"/>
      <use xlink:href="#DejaVuSans-54" transform="translate(60.658203 0)"/>
      <use xlink:href="#DejaVuSans-4c" transform="translate(121.742188 0)"/>
      <use xlink:href="#DejaVuSans-30" transform="translate(177.455078 0)"/>
      <use xlink:href="#DejaVuSans-39" transform="translate(241.078125 0)"/>
     </g>
    </g>
    <g id="line2d_16">
     <path d="M 65.077974 34.576021 
L 75.077974 34.576021 
L 75.077974 34.576021 
L 85.077974 34.576021 
L 85.077974 34.576021 
" style="fill: none; stroke-dasharray: 7.5,1.5; stroke-dashoffset: 0; stroke: #ac7726; stroke-width: 1.5"/>
    </g>
    <g id="text_16">
     <!-- Cloudnet -->
     <g transform="translate(93.077974 38.076021) scale(0.1 -0.1)">
      <defs>
       <path id="DejaVuSans-6c" d="M 603 4863 
L 1178 4863 
L 1178 0 
L 603 0 
L 603 4863 
z
" transform="scale(0.015625)"/>
       <path id="DejaVuSans-6f" d="M 1959 3097 
Q 1497 3097 1228 2736 
Q 959 2375 959 1747 
Q 959 1119 1226 758 
Q 1494 397 1959 397 
Q 2419 397 2687 759 
Q 2956 1122 2956 1747 
Q 2956 2369 2687 2733 
Q 2419 3097 1959 3097 
z
M 1959 3584 
Q 2709 3584 3137 3096 
Q 3566 2609 3566 1747 
Q 3566 888 3137 398 
Q 2709 -91 1959 -91 
Q 1206 -91 779 398 
Q 353 888 353 1747 
Q 353 2609 779 3096 
Q 1206 3584 1959 3584 
z
" transform="scale(0.015625)"/>
       <path id="DejaVuSans-75" d="M 544 1381 
L 544 3500 
L 1119 3500 
L 1119 1403 
Q 1119 906 1312 657 
Q 1506 409 1894 409 
Q 2359 409 2629 706 
Q 2900 1003 2900 1516 
L 2900 3500 
L 3475 3500 
L 3475 0 
L 2900 0 
L 2900 538 
Q 2691 219 2414 64 
Q 2138 -91 1772 -91 
Q 1169 -91 856 284 
Q 544 659 544 1381 
z
M 1991 3584 
L 1991 3584 
z
" transform="scale(0.015625)"/>
       <path id="DejaVuSans-64" d="M 2906 2969 
L 2906 4863 
L 3481 4863 
L 3481 0 
L 2906 0 
L 2906 525 
Q 2725 213 2448 61 
Q 2172 -91 1784 -91 
Q 1150 -91 751 415 
Q 353 922 353 1747 
Q 353 2572 751 3078 
Q 1150 3584 1784 3584 
Q 2172 3584 2448 3432 
Q 2725 3281 2906 2969 
z
M 947 1747 
Q 947 1113 1208 752 
Q 1469 391 1925 391 
Q 2381 391 2643 752 
Q 2906 1113 2906 1747 
Q 2906 2381 2643 2742 
Q 2381 3103 1925 3103 
Q 1469 3103 1208 2742 
Q 947 2381 947 1747 
z
" transform="scale(0.015625)"/>
       <path id="DejaVuSans-6e" d="M 3513 2113 
L 3513 0 
L 2938 0 
L 2938 2094 
Q 2938 2591 2744 2837 
Q 2550 3084 2163 3084 
Q 1697 3084 1428 2787 
Q 1159 2491 1159 1978 
L 1159 0 
L 581 0 
L 581 3500 
L 1159 3500 
L 1159 2956 
Q 1366 3272 1645 3428 
Q 1925 3584 2291 3584 
Q 2894 3584 3203 3211 
Q 3513 2838 3513 2113 
z
" transform="scale(0.015625)"/>
       <path id="DejaVuSans-65" d="M 3597 1894 
L 3597 1613 
L 953 1613 
Q 991 1019 1311 708 
Q 1631 397 2203 397 
Q 2534 397 2845 478 
Q 3156 559 3463 722 
L 3463 178 
Q 3153 47 2828 -22 
Q 2503 -91 2169 -91 
Q 1331 -91 842 396 
Q 353 884 353 1716 
Q 353 2575 817 3079 
Q 1281 3584 2069 3584 
Q 2775 3584 3186 3129 
Q 3597 2675 3597 1894 
z
M 3022 2063 
Q 3016 2534 2758 2815 
Q 2500 3097 2075 3097 
Q 1594 3097 1305 2825 
Q 1016 2553 972 2059 
L 3022 2063 
z
" transform="scale(0.015625)"/>
       <path id="DejaVuSans-74" d="M 1172 4494 
L 1172 3500 
L 2356 3500 
L 2356 3053 
L 1172 3053 
L 1172 1153 
Q 1172 725 1289 603 
Q 1406 481 1766 481 
L 2356 481 
L 2356 0 
L 1766 0 
Q 1100 0 847 248 
Q 594 497 594 1153 
L 594 3053 
L 172 3053 
L 172 3500 
L 594 3500 
L 594 4494 
L 1172 4494 
z
" transform="scale(0.015625)"/>
      </defs>
      <use xlink:href="#DejaVuSans-43"/>
      <use xlink:href="#DejaVuSans-6c" transform="translate(69.824219 0)"/>
      <use xlink:href="#DejaVuSans-6f" transform="translate(97.607422 0)"/>
      <use xlink:href="#DejaVuSans-75" transform="translate(158.789062 0)"/>
      <use xlink:href="#DejaVuSans-64" transform="translate(222.167969 0)"/>
      <use xlink:href="#DejaVuSans-6e" transform="translate(285.644531 0)"/>
      <use xlink:href="#DejaVuSans-65" transform="translate(349.023438 0)"/>
      <use xlink:href="#DejaVuSans-74" transform="translate(410.546875 0)"/>
     </g>
    </g>
   </g>
  </g>
 </g>
 <defs>
  <clipPath id="p26c1dedc0b">
   <rect x="56.077974" y="6.799459" width="175.844051" height="175.844051"/>
  </clipPath>
 </defs>
</svg>
