<?xml version="1.0" encoding="utf-8" standalone="no"?>
<!DOCTYPE svg PUBLIC "-//W3C//DTD SVG 1.1//EN"
  "http://www.w3.org/Graphics/SVG/1.1/DTD/svg11.dtd">
<svg xmlns:xlink="http://www.w3.org/1999/xlink" width="234.776864pt" height="224.39952pt" viewBox="0 0 234.776864 224.39952" xmlns="http://www.w3.org/2000/svg" version="1.1">
 <metadata>
  <rdf:RDF xmlns:dc="http://purl.org/dc/elements/1.1/" xmlns:cc="http://creativecommons.org/ns#" xmlns:rdf="http://www.w3.org/1999/02/22-rdf-syntax-ns#">
   <cc:Work>
    <dc:type rdf:resource="http://purl.org/dc/dcmitype/StillImage"/>
    <dc:date>2025-12-01T16:33:42.172975</dc:date>
    <dc:format>image/svg+xml</dc:format>
    <dc:creator>
     <cc:Agent>
      <dc:title>Matplotlib v3.10.0, https://matplotlib.org/</dc:title>
     </cc:Agent>
    </dc:creator>
   </cc:Work>
  </rdf:RDF>
 </metadata>
 <defs>
  <style type="text/css">*{stroke-linejoin: round; stroke-linecap: butt}</style>
 </defs>
 <g id="figure_1">
  <g id="patch_1">
   <path d="M 0 224.39952 
L 234.776864 224.39952 
L 234.776864 0 
L 0 0 
L 0 224.39952 
z
" style="fill: none"/>
  </g>
  <g id="axes_1">
   <g id="patch_2">
    <path d="M 43.78125 186.84327 
L 219.625301 186.84327 
L 219.625301 10.999219 
L 43.78125 10.999219 
L 43.78125 186.84327 
z
" style="fill: none"/>
   </g>
   <g id="matplotlib.axis_1">
    <g id="xtick_1">
     <g id="line2d_1">
      <defs>
       <path id="m40e0756d31" d="M 0 0 
L 0 3.5 
" style="stroke: #000000; stroke-width: 0.8"/>
      </defs>
      <g>
       <use xlink:href="#m40e0756d31" x="43.78125" y="186.84327" style="stroke: #000000; stroke-width: 0.8"/>
      </g>
     </g>
     <g id="text_1">
      <!-- 0.0 -->
      <g transform="translate(35.829688 201.441708) scale(0.1 -0.1)">
       <defs>
        <path id="DejaVuSans-30" d="M 2034 4250 
Q 1547 4250 1301 3770 
Q 1056 3291 1056 2328 
Q 1056 1369 1301 889 
Q 1547 409 2034 409 
Q 2525 409 2770 889 
Q 3016 1369 3016 2328 
Q 3016 3291 2770 3770 
Q 2525 4250 2034 4250 
z
M 2034 4750 
Q 2819 4750 3233 4129 
Q 3647 3509 3647 2328 
Q 3647 1150 3233 529 
Q 2819 -91 2034 -91 
Q 1250 -91 836 529 
Q 422 1150 422 2328 
Q 422 3509 836 4129 
Q 1250 4750 2034 4750 
z
" transform="scale(0.015625)"/>
        <path id="DejaVuSans-2e" d="M 684 794 
L 1344 794 
L 1344 0 
L 684 0 
L 684 794 
z
" transform="scale(0.015625)"/>
       </defs>
       <use xlink:href="#DejaVuSans-30"/>
       <use xlink:href="#DejaVuSans-2e" transform="translate(63.623047 0)"/>
       <use xlink:href="#DejaVuSans-30" transform="translate(95.410156 0)"/>
      </g>
     </g>
    </g>
    <g id="xtick_2">
     <g id="line2d_2">
      <g>
       <use xlink:href="#m40e0756d31" x="78.95006" y="186.84327" style="stroke: #000000; stroke-width: 0.8"/>
      </g>
     </g>
     <g id="text_2">
      <!-- 0.2 -->
      <g transform="translate(70.998498 201.441708) scale(0.1 -0.1)">
       <defs>
        <path id="DejaVuSans-32" d="M 1228 531 
L 3431 531 
L 3431 0 
L 469 0 
L 469 531 
Q 828 903 1448 1529 
Q 2069 2156 2228 2338 
Q 2531 2678 2651 2914 
Q 2772 3150 2772 3378 
Q 2772 3750 2511 3984 
Q 2250 4219 1831 4219 
Q 1534 4219 1204 4116 
Q 875 4013 500 3803 
L 500 4441 
Q 881 4594 1212 4672 
Q 1544 4750 1819 4750 
Q 2544 4750 2975 4387 
Q 3406 4025 3406 3419 
Q 3406 3131 3298 2873 
Q 3191 2616 2906 2266 
Q 2828 2175 2409 1742 
Q 1991 1309 1228 531 
z
" transform="scale(0.015625)"/>
       </defs>
       <use xlink:href="#DejaVuSans-30"/>
       <use xlink:href="#DejaVuSans-2e" transform="translate(63.623047 0)"/>
       <use xlink:href="#DejaVuSans-32" transform="translate(95.410156 0)"/>
      </g>
     </g>
    </g>
    <g id="xtick_3">
     <g id="line2d_3">
      <g>
       <use xlink:href="#m40e0756d31" x="114.118871" y="186.84327" style="stroke: #000000; stroke-width: 0.8"/>
      </g>
     </g>
     <g id="text_3">
      <!-- 0.4 -->
      <g transform="translate(106.167308 201.441708) scale(0.1 -0.1)">
       <defs>
        <path id="DejaVuSans-34" d="M 2419 4116 
L 825 1625 
L 2419 1625 
L 2419 4116 
z
M 2253 4666 
L 3047 4666 
L 3047 1625 
L 3713 1625 
L 3713 1100 
L 3047 1100 
L 3047 0 
L 2419 0 
L 2419 1100 
L 313 1100 
L 313 1709 
L 2253 4666 
z
" transform="scale(0.015625)"/>
       </defs>
       <use xlink:href="#DejaVuSans-30"/>
       <use xlink:href="#DejaVuSans-2e" transform="translate(63.623047 0)"/>
       <use xlink:href="#DejaVuSans-34" transform="translate(95.410156 0)"/>
      </g>
     </g>
    </g>
    <g id="xtick_4">
     <g id="line2d_4">
      <g>
       <use xlink:href="#m40e0756d31" x="149.287681" y="186.84327" style="stroke: #000000; stroke-width: 0.8"/>
      </g>
     </g>
     <g id="text_4">
      <!-- 0.6 -->
      <g transform="translate(141.336118 201.441708) scale(0.1 -0.1)">
       <defs>
        <path id="DejaVuSans-36" d="M 2113 2584 
Q 1688 2584 1439 2293 
Q 1191 2003 1191 1497 
Q 1191 994 1439 701 
Q 1688 409 2113 409 
Q 2538 409 2786 701 
Q 3034 994 3034 1497 
Q 3034 2003 2786 2293 
Q 2538 2584 2113 2584 
z
M 3366 4563 
L 3366 3988 
Q 3128 4100 2886 4159 
Q 2644 4219 2406 4219 
Q 1781 4219 1451 3797 
Q 1122 3375 1075 2522 
Q 1259 2794 1537 2939 
Q 1816 3084 2150 3084 
Q 2853 3084 3261 2657 
Q 3669 2231 3669 1497 
Q 3669 778 3244 343 
Q 2819 -91 2113 -91 
Q 1303 -91 875 529 
Q 447 1150 447 2328 
Q 447 3434 972 4092 
Q 1497 4750 2381 4750 
Q 2619 4750 2861 4703 
Q 3103 4656 3366 4563 
z
" transform="scale(0.015625)"/>
       </defs>
       <use xlink:href="#DejaVuSans-30"/>
       <use xlink:href="#DejaVuSans-2e" transform="translate(63.623047 0)"/>
       <use xlink:href="#DejaVuSans-36" transform="translate(95.410156 0)"/>
      </g>
     </g>
    </g>
    <g id="xtick_5">
     <g id="line2d_5">
      <g>
       <use xlink:href="#m40e0756d31" x="184.456491" y="186.84327" style="stroke: #000000; stroke-width: 0.8"/>
      </g>
     </g>
     <g id="text_5">
      <!-- 0.8 -->
      <g transform="translate(176.504929 201.441708) scale(0.1 -0.1)">
       <defs>
        <path id="DejaVuSans-38" d="M 2034 2216 
Q 1584 2216 1326 1975 
Q 1069 1734 1069 1313 
Q 1069 891 1326 650 
Q 1584 409 2034 409 
Q 2484 409 2743 651 
Q 3003 894 3003 1313 
Q 3003 1734 2745 1975 
Q 2488 2216 2034 2216 
z
M 1403 2484 
Q 997 2584 770 2862 
Q 544 3141 544 3541 
Q 544 4100 942 4425 
Q 1341 4750 2034 4750 
Q 2731 4750 3128 4425 
Q 3525 4100 3525 3541 
Q 3525 3141 3298 2862 
Q 3072 2584 2669 2484 
Q 3125 2378 3379 2068 
Q 3634 1759 3634 1313 
Q 3634 634 3220 271 
Q 2806 -91 2034 -91 
Q 1263 -91 848 271 
Q 434 634 434 1313 
Q 434 1759 690 2068 
Q 947 2378 1403 2484 
z
M 1172 3481 
Q 1172 3119 1398 2916 
Q 1625 2713 2034 2713 
Q 2441 2713 2670 2916 
Q 2900 3119 2900 3481 
Q 2900 3844 2670 4047 
Q 2441 4250 2034 4250 
Q 1625 4250 1398 4047 
Q 1172 3844 1172 3481 
z
" transform="scale(0.015625)"/>
       </defs>
       <use xlink:href="#DejaVuSans-30"/>
       <use xlink:href="#DejaVuSans-2e" transform="translate(63.623047 0)"/>
       <use xlink:href="#DejaVuSans-38" transform="translate(95.410156 0)"/>
      </g>
     </g>
    </g>
    <g id="xtick_6">
     <g id="line2d_6">
      <g>
       <use xlink:href="#m40e0756d31" x="219.625301" y="186.84327" style="stroke: #000000; stroke-width: 0.8"/>
      </g>
     </g>
     <g id="text_6">
      <!-- 1.0 -->
      <g transform="translate(211.673739 201.441708) scale(0.1 -0.1)">
       <defs>
        <path id="DejaVuSans-31" d="M 794 531 
L 1825 531 
L 1825 4091 
L 703 3866 
L 703 4441 
L 1819 4666 
L 2450 4666 
L 2450 531 
L 3481 531 
L 3481 0 
L 794 0 
L 794 531 
z
" transform="scale(0.015625)"/>
       </defs>
       <use xlink:href="#DejaVuSans-31"/>
       <use xlink:href="#DejaVuSans-2e" transform="translate(63.623047 0)"/>
       <use xlink:href="#DejaVuSans-30" transform="translate(95.410156 0)"/>
      </g>
     </g>
    </g>
    <g id="text_7">
     <!-- $u$, $v$ -->
     <g transform="translate(122.353276 215.119833) scale(0.1 -0.1)">
      <defs>
       <path id="DejaVuSans-Oblique-75" d="M 428 1388 
L 838 3500 
L 1416 3500 
L 1006 1409 
Q 975 1256 961 1147 
Q 947 1038 947 966 
Q 947 700 1109 554 
Q 1272 409 1569 409 
Q 2031 409 2368 721 
Q 2706 1034 2809 1563 
L 3194 3500 
L 3769 3500 
L 3091 0 
L 2516 0 
L 2631 550 
Q 2388 244 2052 76 
Q 1716 -91 1338 -91 
Q 878 -91 622 161 
Q 366 413 366 863 
Q 366 956 381 1097 
Q 397 1238 428 1388 
z
" transform="scale(0.015625)"/>
       <path id="DejaVuSans-2c" d="M 750 794 
L 1409 794 
L 1409 256 
L 897 -744 
L 494 -744 
L 750 256 
L 750 794 
z
" transform="scale(0.015625)"/>
       <path id="DejaVuSans-20" transform="scale(0.015625)"/>
       <path id="DejaVuSans-Oblique-76" d="M 459 3500 
L 1069 3500 
L 1581 525 
L 3256 3500 
L 3866 3500 
L 1875 0 
L 1100 0 
L 459 3500 
z
" transform="scale(0.015625)"/>
      </defs>
      <use xlink:href="#DejaVuSans-Oblique-75" transform="translate(0 0.3125)"/>
      <use xlink:href="#DejaVuSans-2c" transform="translate(63.378906 0.3125)"/>
      <use xlink:href="#DejaVuSans-20" transform="translate(95.166016 0.3125)"/>
      <use xlink:href="#DejaVuSans-Oblique-76" transform="translate(126.953125 0.3125)"/>
     </g>
    </g>
   </g>
   <g id="matplotlib.axis_2">
    <g id="ytick_1">
     <g id="line2d_7">
      <defs>
       <path id="m9e8a4a5b42" d="M 0 0 
L -3.5 0 
" style="stroke: #000000; stroke-width: 0.8"/>
      </defs>
      <g>
       <use xlink:href="#m9e8a4a5b42" x="43.78125" y="186.84327" style="stroke: #000000; stroke-width: 0.8"/>
      </g>
     </g>
     <g id="text_8">
      <!-- 0.0 -->
      <g transform="translate(20.878125 190.642489) scale(0.1 -0.1)">
       <use xlink:href="#DejaVuSans-30"/>
       <use xlink:href="#DejaVuSans-2e" transform="translate(63.623047 0)"/>
       <use xlink:href="#DejaVuSans-30" transform="translate(95.410156 0)"/>
      </g>
     </g>
    </g>
    <g id="ytick_2">
     <g id="line2d_8">
      <g>
       <use xlink:href="#m9e8a4a5b42" x="43.78125" y="151.67446" style="stroke: #000000; stroke-width: 0.8"/>
      </g>
     </g>
     <g id="text_9">
      <!-- 0.2 -->
      <g transform="translate(20.878125 155.473679) scale(0.1 -0.1)">
       <use xlink:href="#DejaVuSans-30"/>
       <use xlink:href="#DejaVuSans-2e" transform="translate(63.623047 0)"/>
       <use xlink:href="#DejaVuSans-32" transform="translate(95.410156 0)"/>
      </g>
     </g>
    </g>
    <g id="ytick_3">
     <g id="line2d_9">
      <g>
       <use xlink:href="#m9e8a4a5b42" x="43.78125" y="116.50565" style="stroke: #000000; stroke-width: 0.8"/>
      </g>
     </g>
     <g id="text_10">
      <!-- 0.4 -->
      <g transform="translate(20.878125 120.304868) scale(0.1 -0.1)">
       <use xlink:href="#DejaVuSans-30"/>
       <use xlink:href="#DejaVuSans-2e" transform="translate(63.623047 0)"/>
       <use xlink:href="#DejaVuSans-34" transform="translate(95.410156 0)"/>
      </g>
     </g>
    </g>
    <g id="ytick_4">
     <g id="line2d_10">
      <g>
       <use xlink:href="#m9e8a4a5b42" x="43.78125" y="81.336839" style="stroke: #000000; stroke-width: 0.8"/>
      </g>
     </g>
     <g id="text_11">
      <!-- 0.6 -->
      <g transform="translate(20.878125 85.136058) scale(0.1 -0.1)">
       <use xlink:href="#DejaVuSans-30"/>
       <use xlink:href="#DejaVuSans-2e" transform="translate(63.623047 0)"/>
       <use xlink:href="#DejaVuSans-36" transform="translate(95.410156 0)"/>
      </g>
     </g>
    </g>
    <g id="ytick_5">
     <g id="line2d_11">
      <g>
       <use xlink:href="#m9e8a4a5b42" x="43.78125" y="46.168029" style="stroke: #000000; stroke-width: 0.8"/>
      </g>
     </g>
     <g id="text_12">
      <!-- 0.8 -->
      <g transform="translate(20.878125 49.967248) scale(0.1 -0.1)">
       <use xlink:href="#DejaVuSans-30"/>
       <use xlink:href="#DejaVuSans-2e" transform="translate(63.623047 0)"/>
       <use xlink:href="#DejaVuSans-38" transform="translate(95.410156 0)"/>
      </g>
     </g>
    </g>
    <g id="ytick_6">
     <g id="line2d_12">
      <g>
       <use xlink:href="#m9e8a4a5b42" x="43.78125" y="10.999219" style="stroke: #000000; stroke-width: 0.8"/>
      </g>
     </g>
     <g id="text_13">
      <!-- 1.0 -->
      <g transform="translate(20.878125 14.798438) scale(0.1 -0.1)">
       <use xlink:href="#DejaVuSans-31"/>
       <use xlink:href="#DejaVuSans-2e" transform="translate(63.623047 0)"/>
       <use xlink:href="#DejaVuSans-30" transform="translate(95.410156 0)"/>
      </g>
     </g>
    </g>
    <g id="text_14">
     <!-- VCF -->
     <g transform="translate(14.798438 108.708744) rotate(-90) scale(0.1 -0.1)">
      <defs>
       <path id="DejaVuSans-56" d="M 1831 0 
L 50 4666 
L 709 4666 
L 2188 738 
L 3669 4666 
L 4325 4666 
L 2547 0 
L 1831 0 
z
" transform="scale(0.015625)"/>
       <path id="DejaVuSans-43" d="M 4122 4306 
L 4122 3641 
Q 3803 3938 3442 4084 
Q 3081 4231 2675 4231 
Q 1875 4231 1450 3742 
Q 1025 3253 1025 2328 
Q 1025 1406 1450 917 
Q 1875 428 2675 428 
Q 3081 428 3442 575 
Q 3803 722 4122 1019 
L 4122 359 
Q 3791 134 3420 21 
Q 3050 -91 2638 -91 
Q 1578 -91 968 557 
Q 359 1206 359 2328 
Q 359 3453 968 4101 
Q 1578 4750 2638 4750 
Q 3056 4750 3426 4639 
Q 3797 4528 4122 4306 
z
" transform="scale(0.015625)"/>
       <path id="DejaVuSans-46" d="M 628 4666 
L 3309 4666 
L 3309 4134 
L 1259 4134 
L 1259 2759 
L 3109 2759 
L 3109 2228 
L 1259 2228 
L 1259 0 
L 628 0 
L 628 4666 
z
" transform="scale(0.015625)"/>
      </defs>
      <use xlink:href="#DejaVuSans-56"/>
      <use xlink:href="#DejaVuSans-43" transform="translate(68.408203 0)"/>
      <use xlink:href="#DejaVuSans-46" transform="translate(138.232422 0)"/>
     </g>
    </g>
   </g>
   <g id="line2d_13">
    <path d="M 43.78125 195.634791 
L 43.787039 195.634791 
L 43.897028 186.837388 
L 45.598969 186.726868 
L 45.708958 186.714729 
L 47.057775 186.603705 
L 47.167765 186.591814 
L 48.302392 186.480705 
L 48.412381 186.465836 
L 49.599109 186.354974 
L 49.709098 186.343713 
L 50.768469 186.233249 
L 50.878459 186.214467 
L 51.625228 186.10381 
L 51.735218 186.092387 
L 52.7888 185.981289 
L 52.893001 185.966244 
L 53.715026 185.8572 
L 53.825016 185.835549 
L 54.832287 185.724669 
L 54.942276 185.705491 
L 55.833769 185.594401 
L 55.943758 185.580476 
L 56.707895 185.470159 
L 56.817884 185.444901 
L 57.541499 185.333936 
L 57.651488 185.320576 
L 58.357735 185.209652 
L 58.467725 185.182863 
L 59.260806 185.071803 
L 59.370795 185.045145 
L 60.053887 184.934306 
L 60.163877 184.909715 
L 60.789079 184.800194 
L 60.899069 184.775259 
L 61.599527 184.666603 
L 61.709517 184.641407 
L 62.27683 184.530703 
L 62.38682 184.5093 
L 63.000444 184.398395 
L 63.110434 184.376899 
L 63.590914 184.266211 
L 63.700903 184.244589 
L 64.308739 184.135001 
L 64.418728 184.104266 
L 65.026564 183.99357 
L 65.136554 183.970544 
L 65.651767 183.860527 
L 65.761756 183.837361 
L 66.236447 183.726389 
L 66.346437 183.70495 
L 66.80955 183.594116 
L 66.919539 183.569282 
L 67.324763 183.458448 
L 67.434753 183.420515 
L 67.955755 183.314442 
L 68.065744 183.281622 
L 68.488335 183.170671 
L 68.598324 183.142909 
L 69.003548 183.032919 
L 69.113538 183.012868 
L 69.663484 182.901798 
L 69.773474 182.87353 
L 70.352365 182.763802 
L 70.462355 182.724873 
L 70.954412 182.614443 
L 71.064402 182.593723 
L 71.49857 182.484267 
L 71.60856 182.454719 
L 71.996417 182.344626 
L 72.106406 182.300047 
L 72.482686 182.190104 
L 72.592675 182.171273 
L 73.038421 182.060312 
L 73.148411 182.018225 
L 73.507323 181.910451 
L 73.617313 181.869075 
L 73.999381 181.758076 
L 74.10937 181.724001 
L 74.624584 181.612946 
L 74.734573 181.582702 
L 75.197686 181.476215 
L 75.307676 181.443826 
L 75.643433 181.333379 
L 75.753422 181.299607 
L 76.170224 181.188948 
L 76.280213 181.165253 
L 76.697015 181.060267 
L 76.807004 181.031058 
L 77.165917 180.921259 
L 77.275906 180.871877 
L 77.646397 180.762631 
L 77.756386 180.738391 
L 78.080565 180.627896 
L 78.190555 180.588318 
L 78.647879 180.477874 
L 78.757868 180.443037 
L 79.087836 180.335183 
L 79.197826 180.302626 
L 79.631994 180.191832 
L 79.741984 180.152143 
L 80.066163 180.043414 
L 80.176152 180.012582 
L 80.529276 179.904132 
L 80.639265 179.848578 
L 81.021334 179.74055 
L 81.131323 179.705008 
L 81.490236 179.598144 
L 81.600225 179.551309 
L 81.924404 179.445382 
L 82.034394 179.38712 
L 82.410673 179.27659 
L 82.520662 179.247621 
L 82.885364 179.143534 
L 82.995353 179.096449 
L 83.33111 178.990877 
L 83.4411 178.954532 
L 83.805801 178.844929 
L 83.915791 178.800828 
L 84.234181 178.697863 
L 84.34417 178.646593 
L 84.726239 178.536089 
L 84.836228 178.496783 
L 85.154618 178.389229 
L 85.264608 178.349547 
L 85.565631 178.244254 
L 85.675621 178.195403 
L 86.040322 178.08495 
L 86.150311 178.045078 
L 86.491857 177.934016 
L 86.601847 177.900576 
L 86.931815 177.790286 
L 87.041804 177.745996 
L 87.400717 177.635809 
L 87.510706 177.607459 
L 87.86383 177.499547 
L 87.973819 177.442183 
L 88.211165 177.33361 
L 88.321154 177.286376 
L 88.622178 177.175607 
L 88.732167 177.132459 
L 89.096869 177.024567 
L 89.206858 176.980356 
L 89.496304 176.870272 
L 89.606293 176.833019 
L 89.94205 176.72591 
L 90.052039 176.690203 
L 90.382008 176.58421 
L 90.491997 176.532972 
L 90.897221 176.422882 
L 91.00721 176.379807 
L 91.302445 176.271226 
L 91.412434 176.202959 
L 91.742402 176.095683 
L 91.852392 176.050786 
L 92.222882 175.941463 
L 92.332872 175.899396 
L 92.604951 175.789235 
L 92.71494 175.737478 
L 93.039119 175.631936 
L 93.149108 175.568638 
L 93.421187 175.459621 
L 93.531177 175.413939 
L 93.785889 175.303348 
L 93.895878 175.253548 
L 94.150591 175.144862 
L 94.26058 175.111916 
L 94.497925 175.001113 
L 94.607915 174.94511 
L 94.926305 174.834627 
L 95.036294 174.773973 
L 95.302584 174.667308 
L 95.412574 174.613679 
L 95.725175 174.503137 
L 95.835165 174.463037 
L 96.107244 174.35863 
L 96.217233 174.312156 
L 96.437212 174.20296 
L 96.547201 174.160672 
L 96.796124 174.053186 
L 96.906114 173.995886 
L 97.218715 173.886776 
L 97.328704 173.843269 
L 97.612361 173.733396 
L 97.722351 173.693969 
L 97.982852 173.585558 
L 98.092841 173.544692 
L 98.376498 173.433787 
L 98.486487 173.360484 
L 98.723833 173.250136 
L 98.833822 173.198002 
L 99.169579 173.094017 
L 99.279568 173.031271 
L 99.569014 172.921705 
L 99.679003 172.868449 
L 99.945293 172.758778 
L 100.055283 172.695413 
L 100.344729 172.587686 
L 100.454718 172.547401 
L 100.732586 172.43675 
L 100.842575 172.376877 
L 101.184121 172.266542 
L 101.29411 172.204829 
L 101.548823 172.094505 
L 101.658812 172.0273 
L 101.88458 171.916347 
L 101.994569 171.851969 
L 102.231915 171.741146 
L 102.341904 171.696401 
L 102.579249 171.586071 
L 102.689239 171.52726 
L 102.89764 171.416242 
L 103.007629 171.386566 
L 103.210241 171.276203 
L 103.32023 171.234688 
L 103.627043 171.128957 
L 103.737032 171.059825 
L 103.945433 170.951439 
L 104.055422 170.911633 
L 104.310135 170.8021 
L 104.420124 170.760318 
L 104.686414 170.6517 
L 104.796403 170.601494 
L 105.085849 170.492 
L 105.195838 170.423345 
L 105.473706 170.314473 
L 105.583696 170.25692 
L 105.797886 170.154675 
L 105.907875 170.102878 
L 106.127854 169.995332 
L 106.237843 169.93977 
L 106.480977 169.828678 
L 106.590967 169.780215 
L 106.83989 169.672513 
L 106.949879 169.608278 
L 107.146702 169.501931 
L 107.256692 169.44594 
L 107.447726 169.335674 
L 107.557715 169.288508 
L 107.829794 169.185989 
L 107.939784 169.133699 
L 108.246596 169.022688 
L 108.356586 168.951819 
L 108.593931 168.845825 
L 108.70392 168.779034 
L 108.900743 168.674881 
L 109.010733 168.610076 
L 109.259656 168.503196 
L 109.369645 168.432427 
L 109.722769 168.322716 
L 109.832759 168.236581 
L 110.104838 168.126262 
L 110.214827 168.087062 
L 110.492695 167.979942 
L 110.602684 167.908688 
L 110.828452 167.798147 
L 110.938441 167.747835 
L 111.193153 167.637296 
L 111.303143 167.582119 
L 111.52891 167.473695 
L 111.6389 167.404608 
L 111.812567 167.296536 
L 111.922557 167.235071 
L 112.073068 167.128922 
L 112.183058 167.075549 
L 112.426192 166.972166 
L 112.536181 166.896202 
L 112.767738 166.788188 
L 112.877727 166.716745 
L 113.091917 166.611548 
L 113.201907 166.542826 
L 113.421885 166.434664 
L 113.531875 166.372698 
L 113.71712 166.262084 
L 113.827109 166.205876 
L 114.058666 166.098209 
L 114.168655 166.036025 
L 114.342323 165.926194 
L 114.452312 165.885903 
L 114.666502 165.775368 
L 114.776491 165.703706 
L 115.002259 165.595757 
L 115.112248 165.551634 
L 115.361171 165.441386 
L 115.471161 165.374329 
L 115.639039 165.264069 
L 115.749029 165.215525 
L 115.969007 165.107461 
L 116.078997 165.025943 
L 116.356865 164.915771 
L 116.466854 164.844458 
L 116.767878 164.734815 
L 116.877867 164.677208 
L 117.097846 164.567941 
L 117.207835 164.495362 
L 117.381502 164.385308 
L 117.491492 164.280126 
L 117.676737 164.17079 
L 117.786726 164.077945 
L 117.960394 163.978597 
L 118.070383 163.913787 
L 118.284573 163.809963 
L 118.394562 163.739663 
L 118.614541 163.630526 
L 118.72453 163.568534 
L 118.898198 163.45993 
L 119.008187 163.380471 
L 119.245533 163.271138 
L 119.355522 163.214176 
L 119.552345 163.104048 
L 119.662335 163.048842 
L 119.84758 162.943521 
L 119.957569 162.851116 
L 120.206492 162.741231 
L 120.316482 162.682674 
L 120.571194 162.574338 
L 120.681183 162.515881 
L 120.872218 162.407661 
L 120.982207 162.369783 
L 121.17903 162.259194 
L 121.289019 162.201339 
L 121.520576 162.093732 
L 121.630565 162.031485 
L 121.838966 161.922361 
L 121.948956 161.843359 
L 122.168934 161.734638 
L 122.278924 161.672063 
L 122.527847 161.564122 
L 122.637836 161.51788 
L 122.857815 161.407603 
L 122.967804 161.339699 
L 123.164627 161.235663 
L 123.274617 161.161045 
L 123.448284 161.060534 
L 123.558274 160.97587 
L 123.772463 160.86638 
L 123.882453 160.796667 
L 124.085065 160.687087 
L 124.195054 160.609168 
L 124.357144 160.498141 
L 124.467133 160.424109 
L 124.733423 160.317884 
L 124.843413 160.21793 
L 125.01708 160.106957 
L 125.127069 160.050046 
L 125.33547 159.940186 
L 125.44546 159.883875 
L 125.665438 159.772909 
L 125.775428 159.681114 
L 125.97804 159.577234 
L 126.088029 159.498152 
L 126.238541 159.390872 
L 126.34853 159.298834 
L 126.545353 159.190181 
L 126.655343 159.113377 
L 126.852166 159.005494 
L 126.962155 158.949964 
L 127.228445 158.84919 
L 127.338434 158.787439 
L 127.52368 158.677882 
L 127.633669 158.61241 
L 127.917326 158.503719 
L 128.027315 158.444433 
L 128.137305 158.346466 
L 128.247294 158.25476 
L 128.455695 158.143738 
L 128.565684 158.066664 
L 128.820396 157.961071 
L 128.930386 157.903503 
L 129.086687 157.798382 
L 129.196676 157.743662 
L 129.352977 157.632713 
L 129.462966 157.570116 
L 129.671367 157.459234 
L 129.781356 157.374369 
L 130.012913 157.263885 
L 130.122902 157.17678 
L 130.342881 157.065786 
L 130.45287 156.981859 
L 130.603382 156.876707 
L 130.713371 156.777156 
L 130.950717 156.666554 
L 131.060706 156.568828 
L 131.205429 156.460225 
L 131.315418 156.404302 
L 131.454352 156.296025 
L 131.564342 156.19063 
L 131.749587 156.080853 
L 131.859576 156.009111 
L 132.085344 155.901672 
L 132.195333 155.820098 
L 132.42689 155.712087 
L 132.536879 155.626167 
L 132.733702 155.515191 
L 132.843692 155.433996 
L 132.947892 155.341156 
L 133.057881 155.249589 
L 133.243127 155.142453 
L 133.353116 155.066432 
L 133.486261 154.96447 
L 133.59625 154.881034 
L 133.781496 154.770232 
L 133.891485 154.67955 
L 134.088308 154.569681 
L 134.198298 154.448764 
L 134.383543 154.338485 
L 134.493532 154.219844 
L 134.701933 154.112637 
L 134.811922 154.021183 
L 135.031901 153.919695 
L 135.141891 153.824462 
L 135.246091 153.716258 
L 135.35608 153.616337 
L 135.541326 153.510235 
L 135.651315 153.43123 
L 135.871294 153.325261 
L 135.981283 153.217642 
L 136.108639 153.116679 
L 136.218629 153.014609 
L 136.357562 152.910598 
L 136.467552 152.815853 
L 136.612275 152.710367 
L 136.722264 152.628462 
L 136.90172 152.522191 
L 137.01171 152.407819 
L 137.196955 152.29877 
L 137.306944 152.250172 
L 137.457456 152.14143 
L 137.567445 152.01877 
L 137.689013 151.917087 
L 137.799002 151.840883 
L 137.926358 151.730057 
L 138.036348 151.604055 
L 138.215804 151.493831 
L 138.325793 151.412393 
L 138.493672 151.301497 
L 138.603661 151.149103 
L 138.696284 151.039676 
L 138.806273 150.91566 
L 138.985729 150.812973 
L 139.095719 150.718492 
L 139.269386 150.607999 
L 139.379376 150.526512 
L 139.564621 150.417225 
L 139.67461 150.344119 
L 139.877222 150.23369 
L 139.987212 150.15796 
L 140.160879 150.050597 
L 140.270868 149.976788 
L 140.375069 149.868397 
L 140.485058 149.776807 
L 140.652937 149.667889 
L 140.762926 149.590149 
L 140.925016 149.485381 
L 141.035005 149.375502 
L 141.191306 149.264471 
L 141.301295 149.18211 
L 141.446018 149.074727 
L 141.556007 149.007078 
L 141.718097 148.896969 
L 141.828086 148.844447 
L 141.984387 148.737384 
L 142.094376 148.642238 
L 142.279621 148.534943 
L 142.389611 148.438762 
L 142.557489 148.338969 
L 142.667479 148.239681 
L 142.789046 148.133378 
L 142.899035 148.0232 
L 143.026391 147.927651 
L 143.136381 147.847508 
L 143.310048 147.736464 
L 143.420038 147.658087 
L 143.611072 147.55025 
L 143.721061 147.449856 
L 143.807895 147.344553 
L 143.917884 147.264009 
L 144.09734 147.160571 
L 144.20733 147.03906 
L 144.346264 146.929278 
L 144.456253 146.855984 
L 144.629921 146.744891 
L 144.73991 146.68031 
L 144.855688 146.569464 
L 144.965678 146.489178 
L 145.098823 146.379958 
L 145.208812 146.272225 
L 145.341957 146.166592 
L 145.451946 146.043521 
L 145.596669 145.946612 
L 145.706659 145.829401 
L 145.868748 145.719969 
L 145.978738 145.639621 
L 146.135038 145.530421 
L 146.245028 145.418137 
L 146.372384 145.320999 
L 146.482373 145.225928 
L 146.632885 145.11692 
L 146.742874 145.010078 
L 146.939697 144.899394 
L 147.049687 144.820034 
L 147.200198 144.710112 
L 147.310188 144.62823 
L 147.443333 144.523623 
L 147.553322 144.428287 
L 147.721201 144.319365 
L 147.83119 144.207385 
L 147.93539 144.107521 
L 148.04538 144.015856 
L 148.166947 143.909007 
L 148.276936 143.842469 
L 148.404292 143.733749 
L 148.514282 143.647268 
L 148.624271 143.552015 
L 148.734261 143.420555 
L 148.873195 143.311305 
L 148.983184 143.243174 
L 149.116329 143.141158 
L 149.226318 143.017447 
L 149.353674 142.907111 
L 149.463664 142.832189 
L 149.64312 142.736566 
L 149.753109 142.612256 
L 149.863099 142.502885 
L 149.973088 142.402557 
L 150.094655 142.298255 
L 150.204645 142.185157 
L 150.343579 142.075017 
L 150.453568 141.957016 
L 150.685125 141.849103 
L 150.795114 141.772808 
L 150.905103 141.668922 
L 151.015093 141.570712 
L 151.165604 141.468043 
L 151.275594 141.404138 
L 151.420317 141.293305 
L 151.530306 141.186587 
L 151.657662 141.075641 
L 151.767652 140.983138 
L 151.88343 140.886474 
L 151.993419 140.779335 
L 152.09762 140.67316 
L 152.207609 140.510612 
L 152.317598 140.400045 
L 152.427588 140.335034 
L 152.578099 140.227232 
L 152.688089 140.123098 
L 152.780711 140.014189 
L 152.890701 139.889618 
L 153.029635 139.785132 
L 153.139624 139.673621 
L 153.295925 139.5632 
L 153.405914 139.45968 
L 153.521692 139.349668 
L 153.631682 139.235981 
L 153.805349 139.131661 
L 153.915339 139.05232 
L 153.979017 138.967099 
L 154.089006 138.864617 
L 154.222151 138.757448 
L 154.33214 138.658062 
L 154.465285 138.553293 
L 154.575275 138.454513 
L 154.685264 138.344703 
L 154.795254 138.243433 
L 154.899454 138.13286 
L 155.009443 138.037497 
L 155.136799 137.927162 
L 155.246789 137.728207 
L 155.391512 137.617842 
L 155.501501 137.532546 
L 155.663591 137.422226 
L 155.77358 137.299586 
L 155.889358 137.190848 
L 155.999348 137.072786 
L 156.132493 136.964404 
L 156.242482 136.814867 
L 156.340894 136.704787 
L 156.450883 136.602345 
L 156.589817 136.495182 
L 156.699806 136.344672 
L 156.856107 136.247366 
L 156.966096 136.130125 
L 157.058719 136.030602 
L 157.168708 135.877223 
L 157.272909 135.770526 
L 157.382898 135.660265 
L 157.469732 135.556913 
L 157.579721 135.43742 
L 157.707077 135.329173 
L 157.817067 135.227947 
L 157.909689 135.11842 
L 158.019679 134.980526 
L 158.158613 134.870846 
L 158.268602 134.793431 
L 158.413325 134.68732 
L 158.523314 134.565094 
L 158.668037 134.460382 
L 158.778026 134.391108 
L 158.893805 134.290525 
L 159.003794 134.190621 
L 159.113783 134.08295 
L 159.223773 134.004142 
L 159.351129 133.894447 
L 159.461118 133.807079 
L 159.571108 133.696617 
L 159.681097 133.548675 
L 159.779508 133.442421 
L 159.889498 133.283346 
L 159.98212 133.175436 
L 160.09211 133.064254 
L 160.24841 132.962223 
L 160.3584 132.857591 
L 160.474178 132.746826 
L 160.584168 132.643669 
L 160.711524 132.532901 
L 160.821513 132.420309 
L 160.954658 132.310094 
L 161.064647 132.186581 
L 161.203581 132.087305 
L 161.313571 131.961782 
L 161.394615 131.865072 
L 161.504605 131.747378 
L 161.614594 131.645722 
L 161.724584 131.506238 
L 161.846151 131.401019 
L 161.95614 131.267569 
L 162.095074 131.158658 
L 162.205063 131.079192 
L 162.315053 130.990406 
L 162.425042 130.851865 
L 162.546609 130.740849 
L 162.656599 130.616981 
L 162.783955 130.50892 
L 162.893944 130.378129 
L 162.986567 130.27297 
L 163.096556 130.089084 
L 163.194968 129.991063 
L 163.304957 129.876269 
L 163.426524 129.772377 
L 163.536514 129.615514 
L 163.629136 129.506989 
L 163.739126 129.356507 
L 163.866482 129.258318 
L 163.976471 129.141688 
L 164.057516 129.038063 
L 164.167505 128.930109 
L 164.277495 128.820207 
L 164.387484 128.646297 
L 164.51484 128.539821 
L 164.624829 128.388359 
L 164.711663 128.279094 
L 164.821653 128.158139 
L 164.960586 128.050526 
L 165.070576 127.866077 
L 165.163198 127.784576 
L 165.273188 127.625031 
L 165.377388 127.525472 
L 165.487378 127.317249 
L 165.574211 127.216505 
L 165.684201 127.127235 
L 165.771034 127.016866 
L 165.881024 126.874169 
L 165.967858 126.763566 
L 166.077847 126.642463 
L 166.170469 126.537523 
L 166.280459 126.450964 
L 166.390448 126.349361 
L 166.500438 126.137935 
L 166.604638 126.026907 
L 166.714627 125.871111 
L 166.80725 125.767103 
L 166.917239 125.615003 
L 167.033018 125.51356 
L 167.143007 125.396825 
L 167.212474 125.292776 
L 167.322463 125.208845 
L 167.39193 125.107953 
L 167.50192 124.956405 
L 167.617698 124.847542 
L 167.727687 124.681553 
L 167.814521 124.583417 
L 167.92451 124.473499 
L 168.017133 124.369401 
L 168.127122 124.202878 
L 168.24869 124.096579 
L 168.358679 123.933258 
L 168.509191 123.824373 
L 168.61918 123.693322 
L 168.700225 123.594336 
L 168.810214 123.424343 
L 168.908626 123.318736 
L 169.018615 123.086823 
L 169.122816 122.976469 
L 169.232805 122.822147 
L 169.331217 122.718538 
L 169.441206 122.601831 
L 169.516462 122.510658 
L 169.626451 122.271872 
L 169.771174 122.161067 
L 169.881163 122.074371 
L 169.962208 121.964203 
L 170.072198 121.773121 
L 170.159031 121.66801 
L 170.269021 121.557885 
L 170.373221 121.447891 
L 170.48321 121.326939 
L 170.5932 121.237869 
L 170.703189 121.042473 
L 170.772656 120.945718 
L 170.882645 120.787763 
L 171.027368 120.682663 
L 171.137358 120.525346 
L 171.258925 120.418645 
L 171.368914 120.274263 
L 171.467326 120.175392 
L 171.577315 119.960198 
L 171.623626 119.869238 
L 171.733616 119.718282 
L 171.808872 119.610767 
L 171.918861 119.473902 
L 172.011484 119.394527 
L 172.121473 119.238098 
L 172.19094 119.13935 
L 172.300929 118.981574 
L 172.399341 118.873731 
L 172.50933 118.697163 
L 172.61932 118.591959 
L 172.729309 118.477588 
L 172.804565 118.374675 
L 172.914554 118.20076 
L 172.98981 118.093292 
L 173.0998 117.904732 
L 173.209789 117.794447 
L 173.319778 117.636972 
L 173.41819 117.533718 
L 173.528179 117.37676 
L 173.638169 117.285511 
L 173.748158 117.122731 
L 173.840781 117.015341 
L 173.95077 116.906728 
L 174.043393 116.802905 
L 174.153382 116.614096 
L 174.228638 116.50565 
L 174.338627 116.288026 
L 174.442828 116.181126 
L 174.552817 116.093173 
L 174.657017 115.983423 
L 174.767007 115.868411 
L 174.871207 115.761995 
L 174.981197 115.620673 
L 175.06803 115.532607 
L 175.17802 115.378402 
L 175.28222 115.269022 
L 175.392209 115.147369 
L 175.473254 115.041419 
L 175.583244 114.939891 
L 175.693233 114.84712 
L 175.803222 114.654088 
L 175.936367 114.550492 
L 176.046357 114.343581 
L 176.144768 114.238098 
L 176.254758 114.112481 
L 176.370536 114.011595 
L 176.480525 113.825566 
L 176.526837 113.718805 
L 176.636826 113.591818 
L 176.683137 113.48646 
L 176.793127 113.295219 
L 176.874171 113.193606 
L 176.984161 113.041772 
L 177.036261 112.930943 
L 177.14625 112.759528 
L 177.267818 112.651881 
L 177.377807 112.519332 
L 177.47043 112.420718 
L 177.580419 112.31052 
L 177.701986 112.217927 
L 177.811976 112.06494 
L 177.933543 111.95848 
L 178.043532 111.780809 
L 178.136155 111.687197 
L 178.246144 111.507225 
L 178.304033 111.407985 
L 178.414023 111.218712 
L 178.477701 111.121235 
L 178.58769 110.91151 
L 178.697679 110.809883 
L 178.807669 110.662694 
L 178.929236 110.564959 
L 179.039225 110.454224 
L 179.114481 110.353522 
L 179.224471 110.105847 
L 179.328671 110.01484 
L 179.43866 109.836405 
L 179.502338 109.728068 
L 179.612328 109.522957 
L 179.710739 109.411941 
L 179.820729 109.259104 
L 179.924929 109.162642 
L 180.034918 108.994531 
L 180.144908 108.886927 
L 180.254897 108.766348 
L 180.312786 108.65548 
L 180.422776 108.434243 
L 180.498032 108.336492 
L 180.608021 108.160792 
L 180.723799 108.050371 
L 180.833789 107.912444 
L 180.937989 107.805231 
L 181.047978 107.658837 
L 181.123234 107.548869 
L 181.233224 107.420288 
L 181.314268 107.309749 
L 181.424258 107.158768 
L 181.499514 107.049812 
L 181.609503 106.793314 
L 181.719492 106.684084 
L 181.829482 106.433414 
L 181.910527 106.325204 
L 182.020516 106.128066 
L 182.10735 106.021999 
L 182.217339 105.813272 
L 182.286806 105.715821 
L 182.396795 105.558387 
L 182.500996 105.448512 
L 182.610985 105.208991 
L 182.697819 105.115867 
L 182.807808 104.953946 
L 182.865697 104.848022 
L 182.975687 104.683225 
L 183.079887 104.575576 
L 183.189877 104.396098 
L 183.259344 104.29639 
L 183.369333 104.093128 
L 183.450378 103.985107 
L 183.560367 103.732898 
L 183.647201 103.632521 
L 183.75719 103.484717 
L 183.797713 103.412585 
L 183.907702 103.15941 
L 184.011902 103.048931 
L 184.121892 102.886461 
L 184.18557 102.784919 
L 184.295559 102.678343 
L 184.370815 102.575532 
L 184.480804 102.428487 
L 184.544482 102.322786 
L 184.654472 102.01374 
L 184.735517 101.920797 
L 184.845506 101.736711 
L 184.920762 101.632778 
L 185.030751 101.473298 
L 185.123374 101.369574 
L 185.233363 101.159374 
L 185.297041 101.049428 
L 185.407031 100.890485 
L 185.476498 100.789394 
L 185.586487 100.634886 
L 185.627009 100.534716 
L 185.736999 100.369969 
L 185.800677 100.26232 
L 185.910666 100.127643 
L 185.985922 100.032122 
L 186.095911 99.831476 
L 186.148012 99.72142 
L 186.258001 99.496307 
L 186.362201 99.385607 
L 186.472191 99.239734 
L 186.553236 99.130198 
L 186.663225 98.953938 
L 186.721114 98.867694 
L 186.831104 98.707888 
L 186.90057 98.602452 
L 187.01056 98.461357 
L 187.103182 98.365279 
L 187.213172 98.104338 
L 187.288428 97.994579 
L 187.398417 97.823582 
L 187.456306 97.715543 
L 187.566296 97.564423 
L 187.635763 97.470573 
L 187.745752 97.263396 
L 187.80943 97.16719 
L 187.919419 96.926307 
L 188.000464 96.825141 
L 188.110454 96.515606 
L 188.191498 96.426748 
L 188.301488 96.26054 
L 188.382532 96.157719 
L 188.492522 95.922405 
L 188.561989 95.820644 
L 188.671978 95.66097 
L 188.729867 95.573895 
L 188.839857 95.403565 
L 188.891957 95.312911 
L 189.001946 94.981788 
L 189.071413 94.873539 
L 189.181403 94.657979 
L 189.297181 94.547116 
L 189.40717 94.287867 
L 189.488215 94.18079 
L 189.598204 94.026329 
L 189.67346 93.937979 
L 189.78345 93.766241 
L 189.818183 93.683305 
L 189.928172 93.378542 
L 190.015006 93.276937 
L 190.124996 93.024632 
L 190.211829 92.916938 
L 190.321819 92.697953 
L 190.397075 92.619805 
L 190.507064 92.424909 
L 190.559164 92.340746 
L 190.669153 91.976311 
L 190.73862 91.88519 
L 190.84861 91.659536 
L 190.918077 91.558729 
L 191.028066 91.323276 
L 191.1149 91.218674 
L 191.224889 91.025211 
L 191.276989 90.923362 
L 191.386979 90.693944 
L 191.421712 90.631372 
L 191.531702 90.376563 
L 191.566435 90.273463 
L 191.676425 90.00103 
L 191.740103 89.934366 
L 191.850092 89.691406 
L 191.942715 89.58265 
L 192.052704 89.266497 
L 192.104804 89.172492 
L 192.214794 88.841905 
L 192.266894 88.751714 
L 192.376883 88.561428 
L 192.457928 88.450957 
L 192.567917 88.261693 
L 192.614229 88.165777 
L 192.724218 87.952647 
L 192.782107 87.845814 
L 192.892096 87.65945 
L 192.944197 87.576424 
L 193.054186 87.329148 
L 193.106286 87.219961 
L 193.216276 86.994939 
L 193.320476 86.89233 
L 193.430465 86.69006 
L 193.499932 86.581854 
L 193.609922 86.440449 
L 193.685178 86.334737 
L 193.795167 86.063083 
L 193.876212 85.956385 
L 193.986201 85.731725 
L 194.055668 85.625608 
L 194.165658 85.351822 
L 194.25828 85.264832 
L 194.36827 85.051434 
L 194.414581 84.944331 
L 194.52457 84.660606 
L 194.582459 84.550309 
L 194.692449 84.198284 
L 194.744549 84.094812 
L 194.854538 83.811692 
L 194.912427 83.708666 
L 195.022417 83.51395 
L 195.080306 83.424718 
L 195.190295 83.227264 
L 195.213451 83.124636 
L 195.32344 82.886577 
L 195.381329 82.780912 
L 195.491319 82.468347 
L 195.526052 82.391659 
L 195.636042 82.155988 
L 195.705509 82.085112 
L 195.815498 81.72051 
L 195.861809 81.613296 
L 195.971799 81.401943 
L 196.012321 81.300686 
L 196.12231 81.024889 
L 196.174411 80.921063 
L 196.2844 80.727681 
L 196.348078 80.642004 
L 196.458067 80.431072 
L 196.562268 80.322354 
L 196.672257 80.041716 
L 196.735935 79.931024 
L 196.845925 79.643079 
L 196.898025 79.54916 
L 197.008014 79.203075 
L 197.08327 79.093882 
L 197.19326 78.847723 
L 197.262727 78.745009 
L 197.372716 78.530389 
L 197.447972 78.442114 
L 197.557961 78.179668 
L 197.656373 78.076297 
L 197.766362 77.87213 
L 197.853196 77.761729 
L 197.963185 77.407076 
L 198.009496 77.316059 
L 198.119486 77.025419 
L 198.171586 76.915955 
L 198.281575 76.681726 
L 198.322098 76.608575 
L 198.432087 76.281524 
L 198.513132 76.191993 
L 198.623121 75.864686 
L 198.675222 75.757231 
L 198.785211 75.5214 
L 198.819944 75.417496 
L 198.929934 75.23946 
L 198.993612 75.134045 
L 199.103601 74.841078 
L 199.184646 74.73702 
L 199.294635 74.461733 
L 199.358313 74.401141 
L 199.468303 74.063748 
L 199.543559 73.955539 
L 199.653548 73.713052 
L 199.711437 73.620169 
L 199.821427 73.387505 
L 199.873527 73.279749 
L 199.983516 72.994816 
L 200.052983 72.895714 
L 200.162972 72.540456 
L 200.203495 72.438274 
L 200.313484 72.214448 
L 200.382951 72.116107 
L 200.492941 71.76321 
L 200.55083 71.656169 
L 200.660819 71.396725 
L 200.724497 71.290397 
L 200.828698 71.049527 
L 200.903953 70.954366 
L 201.013943 70.66344 
L 201.060254 70.57349 
L 201.170243 70.355874 
L 201.268655 70.256452 
L 201.378644 69.980758 
L 201.442322 69.871893 
L 201.552312 69.626616 
L 201.592834 69.526266 
L 201.702824 69.173191 
L 201.743346 69.071133 
L 201.853335 68.839289 
L 201.922802 68.731595 
L 202.032792 68.446296 
L 202.067525 68.350839 
L 202.177514 67.978407 
L 202.212248 67.906679 
L 202.322237 67.603779 
L 202.351182 67.521959 
L 202.461171 67.117717 
L 202.513272 67.01756 
L 202.623261 66.743494 
L 202.698517 66.643138 
L 202.808506 66.325508 
L 202.860606 66.215709 
L 202.970596 65.908545 
L 203.016907 65.806342 
L 203.126896 65.538319 
L 203.173208 65.439764 
L 203.283197 65.13448 
L 203.329508 65.037693 
L 203.439498 64.776999 
L 203.48002 64.670467 
L 203.59001 64.428831 
L 203.618954 64.345945 
L 203.728943 64.001137 
L 203.769466 63.933844 
L 203.879455 63.656991 
L 203.937344 63.580354 
L 204.047334 63.323239 
L 204.082067 63.218539 
L 204.192057 63.015303 
L 204.244157 62.919864 
L 204.354146 62.568042 
L 204.383091 62.478928 
L 204.49308 62.173458 
L 204.527814 62.066349 
L 204.637803 61.768981 
L 204.684114 61.676787 
L 204.794104 61.308445 
L 204.834626 61.22424 
L 204.944615 60.915876 
L 204.985138 60.816683 
L 205.095127 60.448743 
L 205.158805 60.344603 
L 205.268795 60.091225 
L 205.297739 60.006825 
L 205.407728 59.61938 
L 205.459829 59.515562 
L 205.569818 59.286025 
L 205.616129 59.185314 
L 205.726119 59.030368 
L 205.731908 59.030368 
L 205.841897 58.663831 
L 205.899786 58.556868 
L 206.009776 58.264574 
L 206.03872 58.176891 
L 206.148709 57.884474 
L 206.195021 57.815911 
L 206.30501 57.450938 
L 206.339744 57.348274 
L 206.449733 56.911946 
L 206.496044 56.850074 
L 206.606034 56.576042 
L 206.687078 56.470085 
L 206.797068 56.148804 
L 206.849168 56.064139 
L 206.959157 55.755282 
L 206.993891 55.645783 
L 207.10388 55.436643 
L 207.138614 55.32568 
L 207.248603 55.095308 
L 207.323859 55.008353 
L 207.433848 54.693508 
L 207.485949 54.582909 
L 207.595938 54.422175 
L 207.671194 54.319226 
L 207.781183 53.78281 
L 207.856439 53.677664 
L 207.966428 53.383621 
L 207.989584 53.292086 
L 208.099574 52.957407 
L 208.134307 52.849192 
L 208.244296 52.485731 
L 208.267452 52.391555 
L 208.377441 52.076482 
L 208.400597 51.98327 
L 208.510586 51.776314 
L 208.527953 51.670629 
L 208.637943 51.286682 
L 208.684254 51.191959 
L 208.794243 50.884006 
L 208.840554 50.776847 
L 208.950544 50.558952 
L 209.020011 50.45743 
L 209.13 50.179592 
L 209.176312 50.076758 
L 209.286301 49.87716 
L 209.332612 49.767106 
L 209.442602 49.513438 
L 209.471546 49.453898 
L 209.581535 49.123976 
L 209.622058 49.023601 
L 209.732047 48.65268 
L 209.784147 48.567877 
L 209.894137 48.196935 
L 209.923081 48.112429 
L 210.033071 47.777197 
L 210.067804 47.671433 
L 210.177794 47.316807 
L 210.206738 47.235609 
L 210.316728 46.853862 
L 210.345672 46.748148 
L 210.455661 46.288995 
L 210.496184 46.181084 
L 210.606173 45.90319 
L 210.640907 45.864829 
L 210.750896 45.551488 
L 210.779841 45.486916 
L 210.88983 44.952928 
L 210.94193 44.846268 
L 211.05192 44.530712 
L 211.075075 44.431611 
L 211.185065 44.008182 
L 211.20822 43.911486 
L 211.31821 43.445772 
L 211.352943 43.373941 
L 211.462933 42.992583 
L 211.520822 42.89238 
L 211.630811 42.551311 
L 211.682911 42.455504 
L 211.792901 42.093594 
L 211.845001 41.989521 
L 211.95499 41.647007 
L 212.001302 41.589538 
L 212.111291 40.991299 
L 212.146024 40.893411 
L 212.256014 40.42744 
L 212.267592 40.401201 
L 212.377581 39.820132 
L 212.423892 39.715387 
L 212.533882 39.196786 
L 212.557037 39.09523 
L 212.667027 38.725667 
L 212.707549 38.622801 
L 212.817538 38.360903 
L 212.846483 38.266045 
L 212.956472 37.710619 
L 213.002784 37.627626 
L 213.112773 37.295404 
L 213.164873 37.198445 
L 213.274863 36.727344 
L 213.321174 36.6548 
L 213.431163 36.256243 
L 213.494841 36.187893 
L 213.604831 35.763152 
L 213.645353 35.67302 
L 213.755342 35.224604 
L 213.778498 35.183607 
L 213.888487 34.546736 
L 213.92901 34.437794 
L 214.038999 33.821663 
L 214.091099 33.722151 
L 214.201089 33.300176 
L 214.230033 33.212176 
L 214.340023 32.653616 
L 214.363178 32.60547 
L 214.473168 32.074603 
L 214.484746 32.039991 
L 214.594735 31.412205 
L 214.617891 31.349136 
L 214.72788 30.911191 
L 214.739458 30.833429 
L 214.849447 30.295175 
L 214.878392 30.188952 
L 214.988381 29.7321 
L 215.034692 29.622891 
L 215.144682 28.921338 
L 215.179415 28.838511 
L 215.289405 28.39299 
L 215.318349 28.295682 
L 215.428339 27.809556 
L 215.451494 27.69991 
L 215.561484 27.119231 
L 215.584639 27.049449 
L 215.694629 26.396963 
L 215.706206 26.335919 
L 215.816196 25.603401 
L 215.84514 25.494914 
L 215.95513 25.043431 
L 215.984074 24.942204 
L 216.094064 24.310888 
L 216.099853 24.310888 
L 216.204053 23.789154 
L 216.285098 23.681639 
L 216.389298 23.117311 
L 216.424032 23.059092 
L 216.534021 22.532712 
L 216.574544 22.435937 
L 216.684533 21.911566 
L 216.719266 21.811115 
L 216.829256 21.468567 
L 216.846623 21.378467 
L 216.956612 20.905065 
L 216.991345 20.801539 
L 217.101335 20.29611 
L 217.159224 20.187318 
L 217.269213 19.752089 
L 217.315525 19.660212 
L 217.425514 19.235406 
L 217.483403 19.130088 
L 217.564448 18.878016 
L 217.633915 18.7847 
L 217.743904 18.354343 
L 217.755482 18.268074 
L 217.865471 17.838299 
L 217.940727 17.733614 
L 218.050717 17.208467 
L 218.079661 17.109297 
L 218.189651 16.58524 
L 218.259118 16.486109 
L 218.369107 15.835536 
L 218.398051 15.785048 
L 218.508041 15.322784 
L 218.56593 15.214945 
L 218.675919 14.966811 
L 218.704864 14.89377 
L 218.814853 14.394963 
L 218.861165 14.294127 
L 218.947998 14.048538 
L 219.029043 13.946789 
L 219.133244 13.731876 
L 219.162188 13.717056 
L 219.272177 13.098599 
L 219.277966 13.098599 
L 219.387956 12.371792 
L 219.393745 12.371792 
L 219.503734 11.745296 
L 219.532679 11.644865 
L 219.625301 2.217975 
L 219.625301 2.217975 
" clip-path="url(#p5c31a71bc2)" style="fill: none; stroke: #67c7d5; stroke-width: 1.5; stroke-linecap: square"/>
   </g>
   <g id="line2d_14">
    <path d="M 43.78125 195.624863 
L 43.787039 195.624863 
L 43.88545 186.802736 
L 44.203841 186.691847 
L 44.31383 186.66864 
L 44.614854 186.560507 
L 44.724843 186.526338 
L 45.176378 186.415709 
L 45.286368 186.373317 
L 46.12576 186.262799 
L 46.229961 186.203287 
L 46.646762 186.09471 
L 46.756752 186.024067 
L 47.051986 185.920658 
L 47.161976 185.879941 
L 48.285025 185.770978 
L 48.395014 185.727295 
L 48.626571 185.618984 
L 48.73656 185.56769 
L 49.107051 185.458671 
L 49.21704 185.429456 
L 50.004333 185.321944 
L 50.114322 185.269956 
L 50.519546 185.163219 
L 50.629535 185.097693 
L 50.965292 184.988485 
L 51.075282 184.934612 
L 51.891518 184.825653 
L 52.001508 184.788105 
L 52.290954 184.692359 
L 52.400943 184.622543 
L 52.678811 184.514509 
L 52.7888 184.461479 
L 53.32138 184.352561 
L 53.43137 184.294805 
L 53.691871 184.184296 
L 53.80186 184.116095 
L 54.12025 184.005108 
L 54.23024 183.968564 
L 54.693353 183.860035 
L 54.803342 183.835687 
L 55.005954 183.727002 
L 55.115944 183.681747 
L 55.422756 183.576965 
L 55.532745 183.527492 
L 56.036381 183.42218 
L 56.14637 183.374714 
L 56.430027 183.264079 
L 56.540016 183.221688 
L 56.783151 183.115477 
L 56.89314 183.059081 
L 57.165219 182.949514 
L 57.194164 182.936461 
L 57.657277 182.827621 
L 57.767266 182.769908 
L 58.033556 182.659238 
L 58.143546 182.600307 
L 58.38668 182.490288 
L 58.473514 182.450968 
L 58.849793 182.341613 
L 58.959782 182.27288 
L 59.18555 182.163236 
L 59.295539 182.099478 
L 59.579196 181.992577 
L 59.625508 181.958984 
L 59.967054 181.848119 
L 60.077043 181.819154 
L 60.262288 181.710392 
L 60.372277 181.656264 
L 60.598045 181.559573 
L 60.708034 181.493675 
L 61.130625 181.38505 
L 61.234826 181.328972 
L 61.431649 181.225595 
L 61.541638 181.139552 
L 61.709517 181.037328 
L 61.79635 180.987962 
L 62.06264 180.878143 
L 62.17263 180.828916 
L 62.363664 180.719706 
L 62.473653 180.653622 
L 62.676265 180.545429 
L 62.75731 180.495147 
L 63.040967 180.385012 
L 63.150956 180.344009 
L 63.324624 180.233241 
L 63.434613 180.181955 
L 63.654592 180.075334 
L 63.764581 180.005346 
L 64.077182 179.899251 
L 64.187172 179.84035 
L 64.430306 179.729426 
L 64.540296 179.661343 
L 64.661863 179.551176 
L 64.771852 179.512376 
L 64.974464 179.404442 
L 65.084453 179.35039 
L 65.275488 179.241071 
L 65.385477 179.144281 
L 65.599667 179.037337 
L 65.709656 178.9926 
L 65.941213 178.88202 
L 66.051202 178.835933 
L 66.248025 178.727391 
L 66.358015 178.671213 
L 66.572204 178.564164 
L 66.682194 178.524076 
L 66.931117 178.413275 
L 67.041106 178.350802 
L 67.203196 178.241128 
L 67.313185 178.149546 
L 67.544742 178.042428 
L 67.654731 177.964991 
L 67.886288 177.854434 
L 67.996277 177.797995 
L 68.152578 177.701626 
L 68.262567 177.622845 
L 68.494124 177.513184 
L 68.586746 177.458837 
L 68.83567 177.349592 
L 68.945659 177.270098 
L 69.073015 177.166303 
L 69.183005 177.110267 
L 69.402983 177.0058 
L 69.512973 176.928133 
L 69.692429 176.819942 
L 69.802418 176.719947 
L 69.95293 176.615307 
L 70.062919 176.57954 
L 70.248165 176.4699 
L 70.358154 176.411843 
L 70.543399 176.301409 
L 70.653389 176.23485 
L 70.815478 176.13166 
L 70.925468 176.080658 
L 71.116502 175.974509 
L 71.226491 175.892322 
L 71.359636 175.781392 
L 71.469626 175.707733 
L 71.753282 175.60031 
L 71.863272 175.55529 
L 72.077462 175.444614 
L 72.187451 175.386009 
L 72.372696 175.286365 
L 72.482686 175.200585 
L 72.696875 175.092736 
L 72.806865 174.98147 
L 72.99211 174.872959 
L 73.102099 174.797085 
L 73.246822 174.691306 
L 73.3105 174.632938 
L 73.571001 174.523696 
L 73.680991 174.434921 
L 73.877814 174.327358 
L 73.987803 174.256125 
L 74.173048 174.145158 
L 74.283038 174.057204 
L 74.445127 173.950093 
L 74.555117 173.860428 
L 74.705629 173.75682 
L 74.815618 173.704146 
L 75.012441 173.59352 
L 75.12243 173.506783 
L 75.301887 173.398039 
L 75.411876 173.326161 
L 75.579755 173.218043 
L 75.660799 173.166901 
L 75.892356 173.0621 
L 76.002345 173.012839 
L 76.141279 172.905222 
L 76.251269 172.816577 
L 76.367047 172.705926 
L 76.477036 172.65845 
L 76.621759 172.559019 
L 76.731748 172.471651 
L 76.888049 172.361294 
L 76.998038 172.259396 
L 77.171706 172.148781 
L 77.270117 172.070654 
L 77.41484 171.960132 
L 77.52483 171.858914 
L 77.634819 171.752696 
L 77.744808 171.685753 
L 77.912687 171.575408 
L 78.022676 171.482945 
L 78.155821 171.372722 
L 78.265811 171.230526 
L 78.422111 171.123065 
L 78.532101 171.051603 
L 78.717346 170.947763 
L 78.827335 170.868941 
L 78.972058 170.758216 
L 79.082047 170.721733 
L 79.232559 170.612572 
L 79.342549 170.507839 
L 79.510427 170.402356 
L 79.620416 170.282502 
L 79.846184 170.171704 
L 79.956174 170.081582 
L 80.095107 169.972805 
L 80.205097 169.88375 
L 80.34982 169.773541 
L 80.459809 169.703292 
L 80.592954 169.592746 
L 80.702943 169.48574 
L 80.876611 169.376131 
L 80.9866 169.304265 
L 81.171845 169.196503 
L 81.281835 169.102357 
L 81.438135 168.993483 
L 81.548125 168.924232 
L 81.721792 168.824708 
L 81.831782 168.751171 
L 81.99966 168.640253 
L 82.10965 168.515906 
L 82.283317 168.412024 
L 82.381728 168.285752 
L 82.543818 168.174748 
L 82.653807 168.059763 
L 82.781164 167.950934 
L 82.891153 167.831803 
L 83.082187 167.739693 
L 83.192176 167.579455 
L 83.360055 167.47062 
L 83.470044 167.386337 
L 83.637923 167.284478 
L 83.747912 167.20236 
L 83.886846 167.100055 
L 83.996835 166.992898 
L 84.147347 166.887708 
L 84.216814 166.820848 
L 84.384693 166.71642 
L 84.494682 166.570033 
L 84.598883 166.459495 
L 84.685716 166.335728 
L 84.818861 166.234167 
L 84.928851 166.134339 
L 85.056207 166.023708 
L 85.166196 165.901916 
L 85.322497 165.800495 
L 85.432486 165.712211 
L 85.577209 165.613339 
L 85.687198 165.494212 
L 85.808766 165.384125 
L 85.918755 165.34347 
L 86.092422 165.235315 
L 86.202412 165.135066 
L 86.376079 165.025032 
L 86.486068 164.928603 
L 86.590269 164.823662 
L 86.700258 164.730338 
L 86.868137 164.621015 
L 86.978126 164.553179 
L 87.111271 164.445277 
L 87.198105 164.375369 
L 87.360194 164.270896 
L 87.470184 164.120024 
L 87.585962 164.014988 
L 87.695952 163.906183 
L 87.869619 163.798181 
L 87.979608 163.693595 
L 88.118542 163.599128 
L 88.228532 163.465548 
L 88.338521 163.3569 
L 88.44851 163.255943 
L 88.5585 163.150758 
L 88.668489 163.023757 
L 88.82479 162.915396 
L 88.934779 162.848685 
L 89.027402 162.76914 
L 89.137391 162.651425 
L 89.282114 162.545961 
L 89.392103 162.434322 
L 89.577349 162.324085 
L 89.687338 162.19626 
L 89.785749 162.0965 
L 89.872583 161.932843 
L 90.023095 161.822318 
L 90.133084 161.685796 
L 90.254651 161.575999 
L 90.364641 161.461263 
L 90.532519 161.35042 
L 90.642509 161.258841 
L 90.79302 161.151539 
L 90.90301 161.040111 
L 91.018788 160.939897 
L 91.128777 160.815833 
L 91.2735 160.707452 
L 91.38349 160.566162 
L 91.505057 160.459023 
L 91.615046 160.342721 
L 91.771347 160.234429 
L 91.881336 160.116058 
L 92.002904 160.010068 
L 92.107104 159.924485 
L 92.217093 159.832222 
L 92.327083 159.721797 
L 92.425494 159.61472 
L 92.535484 159.514288 
L 92.668629 159.40322 
L 92.778618 159.299872 
L 92.934919 159.189337 
L 93.044908 159.062186 
L 93.178053 158.957318 
L 93.288042 158.853989 
L 93.426976 158.744954 
L 93.536966 158.613578 
L 93.6759 158.505399 
L 93.785889 158.363953 
L 93.947979 158.255384 
L 94.057968 158.11396 
L 94.254791 158.004273 
L 94.36478 157.936307 
L 94.468981 157.835648 
L 94.57897 157.739711 
L 94.717904 157.644344 
L 94.827894 157.535928 
L 94.920516 157.435062 
L 95.030506 157.332369 
L 95.140495 157.237482 
L 95.250484 157.08196 
L 95.406785 156.97221 
L 95.516774 156.821393 
L 95.586241 156.718592 
L 95.696231 156.602022 
L 95.800431 156.499516 
L 95.91042 156.413088 
L 96.031988 156.308757 
L 96.141977 156.186475 
L 96.228811 156.082431 
L 96.3388 156.006719 
L 96.460367 155.919075 
L 96.570357 155.821206 
L 96.691924 155.713691 
L 96.801913 155.60822 
L 96.92348 155.510019 
L 97.03347 155.355172 
L 97.131881 155.266687 
L 97.241871 155.153167 
L 97.386594 155.045898 
L 97.496583 154.933396 
L 97.606572 154.826617 
L 97.716562 154.713789 
L 97.843918 154.602865 
L 97.953907 154.491815 
L 98.052319 154.39331 
L 98.162308 154.212527 
L 98.289664 154.10679 
L 98.399653 154.010895 
L 98.515432 153.907414 
L 98.625421 153.836256 
L 98.810666 153.728877 
L 98.920656 153.623038 
L 99.013278 153.521172 
L 99.123268 153.413987 
L 99.244835 153.311901 
L 99.354824 153.180272 
L 99.516914 153.070121 
L 99.626903 152.958983 
L 99.742682 152.855894 
L 99.852671 152.733816 
L 100.008972 152.624844 
L 100.118961 152.498339 
L 100.211584 152.398228 
L 100.321573 152.239864 
L 100.425773 152.146605 
L 100.535763 152.026537 
L 100.634174 151.92019 
L 100.744164 151.801537 
L 100.912042 151.691819 
L 101.022031 151.543631 
L 101.120443 151.432557 
L 101.230432 151.343726 
L 101.369366 151.236219 
L 101.479356 151.080518 
L 101.589345 150.977061 
L 101.699334 150.882693 
L 101.826691 150.772695 
L 101.93668 150.667037 
L 102.058247 150.56394 
L 102.168236 150.435855 
L 102.272437 150.33519 
L 102.382426 150.220738 
L 102.515571 150.111217 
L 102.625561 149.998671 
L 102.68345 149.904617 
L 102.793439 149.791561 
L 102.932373 149.704635 
L 103.042362 149.575651 
L 103.134985 149.471927 
L 103.244974 149.254242 
L 103.378119 149.148009 
L 103.488109 148.979925 
L 103.569154 148.869556 
L 103.679143 148.766994 
L 103.777555 148.658268 
L 103.887544 148.54447 
L 103.991744 148.439773 
L 104.101734 148.327204 
L 104.223301 148.218088 
L 104.33329 148.041962 
L 104.460646 147.931021 
L 104.570636 147.790581 
L 104.669047 147.682431 
L 104.779037 147.536953 
L 104.877448 147.429949 
L 104.987438 147.282737 
L 105.166894 147.172169 
L 105.276883 147.01408 
L 105.415817 146.909129 
L 105.525807 146.790696 
L 105.647374 146.681573 
L 105.757363 146.496134 
L 105.855775 146.387051 
L 105.965764 146.221068 
L 106.035231 146.11056 
L 106.14522 145.990484 
L 106.214687 145.896487 
L 106.324677 145.758692 
L 106.41151 145.652156 
L 106.5215 145.491464 
L 106.567811 145.387764 
L 106.6778 145.260997 
L 106.793579 145.172834 
L 106.903568 145.033371 
L 107.019346 144.931752 
L 107.10618 144.837254 
L 107.239325 144.729778 
L 107.349314 144.620828 
L 107.459304 144.512621 
L 107.569293 144.370215 
L 107.719805 144.26482 
L 107.829794 144.107602 
L 107.968728 144.0025 
L 108.06714 143.864139 
L 108.194496 143.764138 
L 108.304485 143.67611 
L 108.368163 143.591451 
L 108.472364 143.405126 
L 108.605509 143.301189 
L 108.715498 143.130624 
L 108.831276 143.030356 
L 108.941266 142.87276 
L 109.109144 142.764084 
L 109.219134 142.657325 
L 109.29439 142.552875 
L 109.404379 142.42189 
L 109.491213 142.316731 
L 109.601202 142.157655 
L 109.682247 142.046643 
L 109.792236 141.93069 
L 109.902226 141.84166 
L 110.012215 141.684876 
L 110.087471 141.577394 
L 110.19746 141.418364 
L 110.313238 141.319136 
L 110.423228 141.199482 
L 110.539006 141.099137 
L 110.648995 140.943443 
L 110.816874 140.836349 
L 110.926863 140.756815 
L 111.031064 140.646951 
L 111.141053 140.492972 
L 111.285776 140.382731 
L 111.395765 140.267415 
L 111.488388 140.162645 
L 111.598377 140.001339 
L 111.708367 139.895527 
L 111.818356 139.726122 
L 111.90519 139.632663 
L 112.015179 139.468626 
L 112.084646 139.371052 
L 112.194635 139.187209 
L 112.316203 139.091229 
L 112.426192 138.885916 
L 112.501448 138.808751 
L 112.611437 138.618095 
L 112.715638 138.518175 
L 112.825627 138.337672 
L 112.883516 138.250713 
L 112.993506 138.052768 
L 113.086128 137.941928 
L 113.196118 137.752202 
L 113.277162 137.651051 
L 113.387152 137.517515 
L 113.497141 137.41752 
L 113.607131 137.249622 
L 113.705542 137.143823 
L 113.815531 137.020789 
L 113.890787 136.911575 
L 114.000777 136.73384 
L 114.093399 136.645758 
L 114.203389 136.519351 
L 114.365478 136.408403 
L 114.475468 136.234095 
L 114.602824 136.125214 
L 114.712813 136.00816 
L 114.817014 135.914571 
L 114.927003 135.775613 
L 115.054359 135.671357 
L 115.123826 135.558242 
L 115.338016 135.447367 
L 115.448005 135.322485 
L 115.523261 135.212925 
L 115.63325 135.099108 
L 115.737451 134.995705 
L 115.84744 134.796133 
L 115.986374 134.716352 
L 116.096364 134.511788 
L 116.183197 134.409887 
L 116.293187 134.238884 
L 116.356865 134.132069 
L 116.466854 133.931727 
L 116.524743 133.823616 
L 116.634733 133.700101 
L 116.802611 133.593909 
L 116.9126 133.459983 
L 117.02259 133.349795 
L 117.132579 133.203559 
L 117.207835 133.093033 
L 117.317824 132.989312 
L 117.404658 132.896972 
L 117.514647 132.735448 
L 117.647792 132.624688 
L 117.757782 132.442462 
L 117.861982 132.334149 
L 117.966183 132.214146 
L 118.076172 132.105822 
L 118.186161 131.997044 
L 118.296151 131.889511 
L 118.40614 131.764805 
L 118.521918 131.661485 
L 118.631908 131.530859 
L 118.759264 131.431108 
L 118.869253 131.282572 
L 118.956087 131.173066 
L 119.066076 131.029771 
L 119.176066 130.920168 
L 119.286055 130.720301 
L 119.401833 130.61394 
L 119.511823 130.478609 
L 119.598656 130.371916 
L 119.708646 130.224737 
L 119.853369 130.117678 
L 119.963358 129.969272 
L 120.044403 129.862111 
L 120.154392 129.648326 
L 120.270171 129.54577 
L 120.38016 129.299341 
L 120.461205 129.204475 
L 120.571194 129.002133 
L 120.658028 128.894662 
L 120.768017 128.720586 
L 120.883795 128.611881 
L 120.993785 128.545993 
L 121.086407 128.444654 
L 121.196397 128.33443 
L 121.346909 128.22401 
L 121.456898 128.080871 
L 121.543732 127.979604 
L 121.653721 127.793886 
L 121.769499 127.684562 
L 121.879489 127.601395 
L 121.966322 127.50099 
L 122.076312 127.303621 
L 122.197879 127.197946 
L 122.307868 127.094016 
L 122.365757 126.996147 
L 122.475747 126.763219 
L 122.585736 126.65792 
L 122.695725 126.553155 
L 122.770981 126.447852 
L 122.880971 126.280835 
L 122.973593 126.176417 
L 123.083583 126.052684 
L 123.164627 125.94606 
L 123.263039 125.793618 
L 123.338295 125.711562 
L 123.448284 125.533235 
L 123.506173 125.463427 
L 123.604585 125.297924 
L 123.691419 125.188075 
L 123.801408 125.005934 
L 123.865086 124.901672 
L 123.975075 124.726701 
L 124.05612 124.624167 
L 124.16611 124.478886 
L 124.247154 124.371629 
L 124.357144 124.265953 
L 124.426611 124.158574 
L 124.5366 124.027655 
L 124.629223 123.924732 
L 124.739212 123.780877 
L 124.80289 123.693012 
L 124.91288 123.499801 
L 124.970769 123.398071 
L 125.080758 123.240934 
L 125.17917 123.130778 
L 125.289159 123.005189 
L 125.375993 122.899979 
L 125.485982 122.793642 
L 125.590182 122.683042 
L 125.700172 122.514875 
L 125.810161 122.405619 
L 125.920151 122.224874 
L 126.024351 122.133165 
L 126.13434 122.008458 
L 126.186441 121.923009 
L 126.29643 121.765752 
L 126.371686 121.665143 
L 126.481675 121.501843 
L 126.637976 121.394403 
L 126.747965 121.273259 
L 126.823221 121.164088 
L 126.933211 121.035203 
L 127.020044 120.927307 
L 127.130034 120.777567 
L 127.205289 120.669158 
L 127.315279 120.448386 
L 127.402113 120.33921 
L 127.512102 120.1913 
L 127.593147 120.082548 
L 127.703136 119.968105 
L 127.813125 119.859883 
L 127.923115 119.764633 
L 128.027315 119.663604 
L 128.137305 119.469781 
L 128.229927 119.35956 
L 128.339917 119.263988 
L 128.438328 119.15822 
L 128.548318 119.002639 
L 128.617784 118.895356 
L 128.727774 118.732721 
L 128.820396 118.633947 
L 128.930386 118.459472 
L 129.01722 118.349761 
L 129.127209 118.223298 
L 129.190887 118.135339 
L 129.300876 117.96249 
L 129.410866 117.856963 
L 129.520855 117.693192 
L 129.625056 117.584462 
L 129.735045 117.41553 
L 129.804512 117.319005 
L 129.914501 117.15575 
L 130.024491 117.051441 
L 130.13448 116.916442 
L 130.209736 116.805634 
L 130.319725 116.683841 
L 130.423926 116.588852 
L 130.499182 116.512086 
L 130.626538 116.404306 
L 130.736527 116.188717 
L 130.823361 116.078711 
L 130.93335 115.97655 
L 131.008606 115.868278 
L 131.118595 115.718525 
L 131.222796 115.609858 
L 131.332785 115.477241 
L 131.448563 115.374567 
L 131.558553 115.219282 
L 131.68012 115.110852 
L 131.790109 114.989283 
L 131.89431 114.880731 
L 132.004299 114.775504 
L 132.062188 114.668173 
L 132.143233 114.557311 
L 132.2648 114.452094 
L 132.37479 114.29435 
L 132.484779 114.187243 
L 132.594768 114.063371 
L 132.704758 113.968297 
L 132.814747 113.835871 
L 132.872636 113.730048 
L 132.982626 113.587592 
L 133.075248 113.484112 
L 133.185238 113.350775 
L 133.272071 113.242026 
L 133.382061 113.081693 
L 133.480472 112.975381 
L 133.584673 112.832493 
L 133.683084 112.725023 
L 133.793074 112.561518 
L 133.862541 112.455732 
L 133.97253 112.367234 
L 134.041997 112.257731 
L 134.128831 112.119056 
L 134.23882 112.008308 
L 134.337231 111.849956 
L 134.45301 111.743315 
L 134.562999 111.621093 
L 134.678777 111.512656 
L 134.788767 111.341507 
L 134.864023 111.231432 
L 134.974012 111.115542 
L 135.055057 111.010523 
L 135.165046 110.810587 
L 135.25188 110.704982 
L 135.361869 110.541512 
L 135.448703 110.439969 
L 135.558692 110.31281 
L 135.628159 110.206212 
L 135.738149 110.079875 
L 135.83656 109.99256 
L 135.94655 109.796345 
L 136.05075 109.704363 
L 136.160739 109.590529 
L 136.247573 109.49264 
L 136.357562 109.347656 
L 136.461763 109.259419 
L 136.571752 109.08167 
L 136.63543 108.982749 
L 136.74542 108.872621 
L 136.809098 108.76258 
L 136.919087 108.635009 
L 137.017499 108.528557 
L 137.127488 108.38344 
L 137.231688 108.276538 
L 137.341678 108.03863 
L 137.4343 107.930785 
L 137.54429 107.777854 
L 137.631124 107.681411 
L 137.741113 107.518277 
L 137.833736 107.407999 
L 137.943725 107.285816 
L 138.013192 107.1786 
L 138.123181 107.055962 
L 138.18107 106.946403 
L 138.29106 106.83314 
L 138.377893 106.736122 
L 138.487883 106.542422 
L 138.551561 106.448324 
L 138.644183 106.25539 
L 138.788906 106.147072 
L 138.898896 105.905611 
L 138.979941 105.802489 
L 139.08993 105.659008 
L 139.223075 105.555096 
L 139.333064 105.34526 
L 139.437265 105.246089 
L 139.547254 105.081995 
L 139.639877 104.972399 
L 139.749866 104.847653 
L 139.854067 104.742668 
L 139.964056 104.52964 
L 140.045101 104.426966 
L 140.15509 104.294257 
L 140.241924 104.186677 
L 140.351913 103.907242 
L 140.444536 103.79638 
L 140.554525 103.564897 
L 140.618203 103.462405 
L 140.728193 103.316444 
L 140.838182 103.209012 
L 140.948171 103.023988 
L 141.000271 102.929975 
L 141.110261 102.819588 
L 141.208672 102.710033 
L 141.318662 102.489407 
L 141.474962 102.378852 
L 141.584952 102.256501 
L 141.64863 102.159166 
L 141.758619 101.951933 
L 141.833875 101.851979 
L 141.943864 101.628704 
L 142.077009 101.524241 
L 142.186999 101.356579 
L 142.268044 101.256086 
L 142.378033 101.127452 
L 142.453289 101.025025 
L 142.563278 100.838547 
L 142.650112 100.728323 
L 142.760101 100.568524 
L 142.81799 100.467086 
L 142.92798 100.337372 
L 143.003236 100.229341 
L 143.113225 100.015788 
L 143.176903 99.905918 
L 143.286893 99.815615 
L 143.356359 99.707827 
L 143.466349 99.5536 
L 143.56476 99.448085 
L 143.67475 99.348654 
L 143.796317 99.243017 
L 143.906306 99.066513 
L 143.958407 98.961695 
L 144.068396 98.752796 
L 144.161019 98.64391 
L 144.271008 98.505212 
L 144.340475 98.415543 
L 144.450464 98.158558 
L 144.531509 98.049565 
L 144.641498 97.859524 
L 144.693599 97.789587 
L 144.803588 97.583765 
L 144.907788 97.481393 
L 145.017778 97.270019 
L 145.087245 97.167106 
L 145.185656 96.978532 
L 145.301435 96.891571 
L 145.411424 96.702912 
L 145.492469 96.599917 
L 145.602458 96.473312 
L 145.671925 96.366304 
L 145.781914 96.185979 
L 145.903482 96.08229 
L 146.013471 95.812767 
L 146.100305 95.719672 
L 146.204505 95.502388 
L 146.262394 95.391663 
L 146.372384 95.184556 
L 146.476584 95.073578 
L 146.586573 94.891399 
L 146.65604 94.781691 
L 146.76603 94.651961 
L 146.87023 94.541986 
L 146.98022 94.441141 
L 147.067053 94.336781 
L 147.177043 94.221033 
L 147.269665 94.118644 
L 147.379655 93.909535 
L 147.466488 93.798713 
L 147.576478 93.656028 
L 147.674889 93.548232 
L 147.784879 93.351486 
L 147.848557 93.240466 
L 147.958546 92.997231 
L 148.010646 92.902995 
L 148.120636 92.733599 
L 148.219047 92.627835 
L 148.329037 92.523116 
L 148.386926 92.412601 
L 148.496915 92.23725 
L 148.624271 92.131152 
L 148.734261 91.975304 
L 148.809516 91.865386 
L 148.919506 91.706909 
L 149.012128 91.598391 
L 149.122118 91.418211 
L 149.208952 91.310207 
L 149.318941 91.105953 
L 149.371041 91.007838 
L 149.48103 90.800448 
L 149.550497 90.708081 
L 149.660487 90.577526 
L 149.735743 90.469427 
L 149.839943 90.254887 
L 149.949933 90.143819 
L 150.059922 90.021265 
L 150.158333 89.915461 
L 150.268323 89.727827 
L 150.343579 89.626887 
L 150.453568 89.467669 
L 150.517246 89.375378 
L 150.627235 89.224065 
L 150.714069 89.113603 
L 150.824059 88.885781 
L 150.899314 88.787151 
L 150.997726 88.667848 
L 151.113504 88.557466 
L 151.223494 88.334351 
L 151.333483 88.225412 
L 151.443472 88.079456 
L 151.559251 87.969265 
L 151.66924 87.820428 
L 151.72134 87.709426 
L 151.83133 87.496348 
L 151.918163 87.390007 
L 152.028153 87.188985 
L 152.109197 87.088083 
L 152.219187 86.821476 
L 152.306021 86.714017 
L 152.41601 86.518786 
L 152.462321 86.430159 
L 152.572311 86.298199 
L 152.653355 86.187514 
L 152.763345 85.959083 
L 152.832812 85.849285 
L 152.942801 85.669813 
L 153.018057 85.574015 
L 153.128046 85.375934 
L 153.180147 85.269657 
L 153.290136 85.162758 
L 153.348025 85.053791 
L 153.458014 84.775307 
L 153.550637 84.676258 
L 153.660626 84.498362 
L 153.706938 84.38865 
L 153.816927 84.218386 
L 153.857449 84.115408 
L 153.967439 83.926228 
L 154.060061 83.830602 
L 154.170051 83.645504 
L 154.256885 83.540137 
L 154.366874 83.390634 
L 154.476863 83.279693 
L 154.586853 83.092837 
L 154.696842 82.991918 
L 154.806831 82.816489 
L 154.934187 82.720978 
L 155.038388 82.531692 
L 155.113644 82.427192 
L 155.223633 82.2479 
L 155.2931 82.142157 
L 155.403089 82.031169 
L 155.524657 81.928312 
L 155.634646 81.794783 
L 155.686746 81.729655 
L 155.796736 81.465358 
L 155.871992 81.36148 
L 155.981981 81.238602 
L 156.068815 81.129038 
L 156.178804 80.908542 
L 156.271427 80.804415 
L 156.381416 80.568406 
L 156.450883 80.458509 
L 156.560872 80.262667 
L 156.62455 80.175377 
L 156.73454 79.93002 
L 156.815584 79.839061 
L 156.925574 79.631689 
L 157.006619 79.522212 
L 157.116608 79.33459 
L 157.209231 79.224262 
L 157.31922 79.061855 
L 157.382898 78.968652 
L 157.400265 78.901292 
L 157.539199 78.803595 
L 157.649188 78.651833 
L 157.7476 78.541126 
L 157.857589 78.448933 
L 157.932845 78.342983 
L 158.042834 78.169633 
L 158.100723 78.067411 
L 158.210713 77.917649 
L 158.28018 77.817625 
L 158.390169 77.629586 
L 158.471214 77.526326 
L 158.581203 77.276378 
L 158.668037 77.173279 
L 158.778026 76.976149 
L 158.870649 76.866714 
L 158.980638 76.723046 
L 159.061683 76.623978 
L 159.171672 76.463812 
L 159.287451 76.355228 
L 159.39744 76.165352 
L 159.455329 76.085851 
L 159.565319 75.911769 
L 159.652152 75.825492 
L 159.762142 75.624986 
L 159.854764 75.542452 
L 159.964754 75.360242 
L 160.022643 75.258472 
L 160.132632 75.045781 
L 160.236833 74.94251 
L 160.346822 74.761368 
L 160.422078 74.650424 
L 160.532067 74.473796 
L 160.618901 74.368309 
L 160.72889 74.11237 
L 160.83888 74.002691 
L 160.948869 73.842556 
L 161.024125 73.741503 
L 161.134114 73.588858 
L 161.20937 73.489803 
L 161.31936 73.309899 
L 161.411982 73.210414 
L 161.521972 73.057895 
L 161.597227 72.950288 
L 161.707217 72.711842 
L 161.788262 72.61215 
L 161.898251 72.480284 
L 161.979296 72.387244 
L 162.089285 72.237492 
L 162.181908 72.134756 
L 162.291897 71.990916 
L 162.419253 71.887486 
L 162.529243 71.725434 
L 162.587132 71.617823 
L 162.697121 71.530288 
L 162.760799 71.428768 
L 162.870789 71.133567 
L 162.940255 71.032878 
L 163.050245 70.882506 
L 163.119712 70.775957 
L 163.229701 70.617223 
L 163.304957 70.507524 
L 163.414946 70.360586 
L 163.495991 70.254459 
L 163.594403 70.104219 
L 163.692814 69.995359 
L 163.802804 69.75228 
L 163.912793 69.643709 
L 164.022782 69.383895 
L 164.074883 69.28937 
L 164.184872 69.125447 
L 164.219605 69.043457 
L 164.329595 68.783666 
L 164.381695 68.692287 
L 164.491684 68.549098 
L 164.590096 68.441821 
L 164.700085 68.278331 
L 164.72903 68.168875 
L 164.839019 68.010714 
L 164.885331 67.899826 
L 164.99532 67.762143 
L 165.076365 67.66008 
L 165.186354 67.410138 
L 165.244243 67.305749 
L 165.354233 67.15517 
L 165.441066 67.046022 
L 165.551056 66.8503 
L 165.620523 66.74217 
L 165.730512 66.553619 
L 165.788401 66.453203 
L 165.898391 66.197457 
L 165.979435 66.08737 
L 166.089425 65.97957 
L 166.147314 65.869178 
L 166.257303 65.604974 
L 166.338348 65.496193 
L 166.448337 65.354895 
L 166.587271 65.248192 
L 166.697261 65.092711 
L 166.772517 64.999229 
L 166.882506 64.77815 
L 167.015651 64.683992 
L 167.12564 64.49276 
L 167.224052 64.384758 
L 167.334041 64.211556 
L 167.397719 64.109474 
L 167.507709 63.94009 
L 167.55402 63.837508 
L 167.664009 63.703833 
L 167.762421 63.602807 
L 167.87241 63.422009 
L 167.965033 63.320744 
L 168.075022 63.159878 
L 168.219745 63.064409 
L 168.329734 62.887145 
L 168.381835 62.792889 
L 168.491824 62.590941 
L 168.572869 62.500785 
L 168.682858 62.335496 
L 168.798636 62.229375 
L 168.908626 62.091183 
L 168.983882 61.986876 
L 169.088082 61.809681 
L 169.174916 61.71367 
L 169.284905 61.573249 
L 169.400684 61.472237 
L 169.510673 61.308327 
L 169.614873 61.198269 
L 169.724863 61.085637 
L 169.782752 60.97885 
L 169.892741 60.826351 
L 169.973786 60.729043 
L 170.083775 60.573708 
L 170.16482 60.474175 
L 170.27481 60.2737 
L 170.361643 60.171653 
L 170.471633 60.017662 
L 170.5411 59.916181 
L 170.651089 59.749855 
L 170.743712 59.638906 
L 170.853701 59.527008 
L 170.934746 59.419871 
L 171.044735 59.31126 
L 171.137358 59.216231 
L 171.247347 59.015128 
L 171.322603 58.921228 
L 171.432592 58.783695 
L 171.525215 58.684317 
L 171.635204 58.505252 
L 171.716249 58.397185 
L 171.826238 58.160135 
L 171.889917 58.056078 
L 171.999906 57.896384 
L 172.046217 57.824547 
L 172.156207 57.59768 
L 172.254618 57.498273 
L 172.364607 57.37371 
L 172.451441 57.280647 
L 172.561431 57.035225 
L 172.636686 56.942062 
L 172.746676 56.783306 
L 172.827721 56.678095 
L 172.93771 56.461217 
L 173.030333 56.356587 
L 173.140322 56.146187 
L 173.209789 56.047384 
L 173.319778 55.899123 
L 173.383456 55.81492 
L 173.493446 55.628782 
L 173.539757 55.52847 
L 173.649746 55.40033 
L 173.730791 55.295156 
L 173.840781 55.124066 
L 173.927614 55.022003 
L 174.037604 54.828868 
L 174.136015 54.71943 
L 174.246005 54.58775 
L 174.332838 54.476987 
L 174.442828 54.273341 
L 174.518083 54.168056 
L 174.628073 54.004972 
L 174.709118 53.894984 
L 174.819107 53.691095 
L 174.917519 53.582249 
L 175.027508 53.408273 
L 175.085397 53.336398 
L 175.195386 53.10694 
L 175.264853 52.999827 
L 175.369054 52.868324 
L 175.432732 52.784858 
L 175.542721 52.570602 
L 175.704811 52.45969 
L 175.8148 52.271121 
L 175.890056 52.168664 
L 176.000045 51.898082 
L 176.075301 51.792444 
L 176.185291 51.613899 
L 176.29528 51.504248 
L 176.405269 51.227331 
L 176.468947 51.121383 
L 176.578937 50.981029 
L 176.665771 50.889853 
L 176.77576 50.628164 
L 176.885749 50.517885 
L 176.995739 50.309283 
L 177.14625 50.210892 
L 177.25624 50.04061 
L 177.331496 49.955761 
L 177.441485 49.630484 
L 177.534108 49.543954 
L 177.644097 49.371517 
L 177.759875 49.261624 
L 177.869865 49.000071 
L 177.968276 48.890436 
L 178.078266 48.700995 
L 178.170888 48.590168 
L 178.280878 48.39126 
L 178.356133 48.281886 
L 178.448756 48.122259 
L 178.552957 48.029546 
L 178.662946 47.891723 
L 178.755569 47.781094 
L 178.859769 47.633803 
L 178.95818 47.529985 
L 179.06817 47.358513 
L 179.12027 47.271124 
L 179.230259 47.144143 
L 179.317093 47.057128 
L 179.427083 46.889549 
L 179.473394 46.80289 
L 179.583383 46.612974 
L 179.623906 46.521324 
L 179.733895 46.330702 
L 179.81494 46.220595 
L 179.924929 46.034863 
L 179.982818 45.939167 
L 180.092808 45.764551 
L 180.208586 45.654616 
L 180.318575 45.480403 
L 180.364887 45.371002 
L 180.474876 45.165195 
L 180.544343 45.063641 
L 180.654332 44.910186 
L 180.723799 44.805488 
L 180.833789 44.654735 
L 180.897467 44.5482 
L 181.007456 44.326199 
L 181.082712 44.221167 
L 181.192701 43.985373 
L 181.314268 43.874576 
L 181.424258 43.685144 
L 181.51688 43.592298 
L 181.62687 43.332966 
L 181.707915 43.222392 
L 181.817904 43.072587 
L 181.864215 42.985615 
L 181.974205 42.795084 
L 182.089983 42.699473 
L 182.199972 42.526733 
L 182.257861 42.435027 
L 182.367851 42.302249 
L 182.472051 42.201564 
L 182.582041 41.968159 
L 182.663085 41.86444 
L 182.773075 41.678752 
L 182.836753 41.587079 
L 182.946742 41.437228 
L 183.039365 41.328275 
L 183.149354 41.221654 
L 183.230399 41.126092 
L 183.340388 40.910693 
L 183.421433 40.803715 
L 183.531423 40.64764 
L 183.595101 40.557051 
L 183.70509 40.392109 
L 183.797713 40.28425 
L 183.907702 40.140155 
L 183.982958 40.035943 
L 184.092947 39.890087 
L 184.214514 39.780884 
L 184.324504 39.572169 
L 184.370815 39.473966 
L 184.475016 39.339248 
L 184.625527 39.228763 
L 184.735517 39.049763 
L 184.82235 38.94 
L 184.93234 38.861396 
L 185.013385 38.764069 
L 185.123374 38.629831 
L 185.19863 38.530219 
L 185.308619 38.379729 
L 185.41282 38.271277 
L 185.522809 38.049224 
L 185.563331 37.942209 
L 185.673321 37.787961 
L 185.806466 37.67923 
L 185.916455 37.528524 
L 185.985922 37.430287 
L 186.095911 37.28694 
L 186.200112 37.178249 
L 186.310101 36.975338 
L 186.437457 36.872316 
L 186.547447 36.65716 
L 186.63428 36.546284 
L 186.738481 36.402223 
L 186.865837 36.309718 
L 186.975826 36.098116 
L 187.080027 35.991364 
L 187.190016 35.85422 
L 187.265272 35.748922 
L 187.375261 35.565179 
L 187.456306 35.458831 
L 187.566296 35.339215 
L 187.641551 35.237604 
L 187.751541 35.046007 
L 187.878897 34.937067 
L 187.988886 34.823234 
L 188.040987 34.722022 
L 188.150976 34.552502 
L 188.243599 34.444634 
L 188.353588 34.284588 
L 188.440422 34.177314 
L 188.544622 33.96424 
L 188.637245 33.858055 
L 188.747234 33.694904 
L 188.857223 33.59684 
L 188.967213 33.465567 
L 189.065624 33.375221 
L 189.175614 33.242849 
L 189.233503 33.143282 
L 189.343492 32.918923 
L 189.418748 32.81052 
L 189.528737 32.602336 
L 189.627149 32.491269 
L 189.737138 32.34844 
L 189.806605 32.241854 
L 189.916595 32.083478 
L 190.043951 31.993773 
L 190.15394 31.777124 
L 190.217618 31.680657 
L 190.292874 31.521945 
L 190.47233 31.418635 
L 190.58232 31.278822 
L 190.674942 31.180643 
L 190.784932 31.021044 
L 190.84861 30.92489 
L 190.958599 30.760826 
L 191.033855 30.652376 
L 191.143844 30.457176 
L 191.288567 30.346139 
L 191.398557 30.153513 
L 191.525913 30.048991 
L 191.635902 29.877724 
L 191.705369 29.772945 
L 191.815358 29.641711 
L 191.919559 29.535486 
L 192.029548 29.456689 
L 192.104804 29.374196 
L 192.214794 29.211404 
L 192.290049 29.105477 
L 192.400039 28.941424 
L 192.44635 28.851407 
L 192.556339 28.589398 
L 192.648962 28.480609 
L 192.758951 28.308898 
L 192.857363 28.213638 
L 192.955775 28.096229 
L 193.08892 27.986235 
L 193.198909 27.797418 
L 193.262587 27.699285 
L 193.372576 27.596629 
L 193.505721 27.497805 
L 193.615711 27.327598 
L 193.719911 27.217055 
L 193.818323 27.125323 
L 193.963046 27.021314 
L 194.073035 26.882058 
L 194.148291 26.785215 
L 194.235125 26.632701 
L 194.397214 26.522709 
L 194.507203 26.308794 
L 194.611404 26.199304 
L 194.721393 26.095228 
L 194.819805 25.985928 
L 194.929794 25.861531 
L 195.010839 25.754885 
L 195.120828 25.624215 
L 195.242396 25.517943 
L 195.352385 25.323225 
L 195.421852 25.213673 
L 195.531841 25.046268 
L 195.595519 24.944766 
L 195.705509 24.826747 
L 195.792342 24.737035 
L 195.902332 24.603554 
L 195.994954 24.493341 
L 196.104944 24.386096 
L 196.185989 24.275737 
L 196.295978 24.181238 
L 196.371234 24.078008 
L 196.481223 23.94126 
L 196.556479 23.833662 
L 196.666468 23.734085 
L 196.788036 23.629267 
L 196.898025 23.477013 
L 196.996436 23.3712 
L 197.106426 23.224946 
L 197.204837 23.119077 
L 197.314827 22.942904 
L 197.390083 22.833063 
L 197.471127 22.729291 
L 197.644795 22.619028 
L 197.754784 22.440625 
L 197.835829 22.351799 
L 197.945818 22.218257 
L 198.04423 22.110615 
L 198.142641 21.942176 
L 198.235264 21.840625 
L 198.345253 21.71892 
L 198.420509 21.615448 
L 198.530499 21.439959 
L 198.652066 21.339307 
L 198.762055 21.226277 
L 198.8431 21.120037 
L 198.953089 20.932771 
L 199.068868 20.825538 
L 199.178857 20.700717 
L 199.300424 20.605702 
L 199.410414 20.453576 
L 199.508825 20.343734 
L 199.618815 20.196674 
L 199.723015 20.088659 
L 199.833004 19.943123 
L 199.942994 19.839316 
L 200.052983 19.686037 
L 200.151395 19.575618 
L 200.261384 19.483131 
L 200.394529 19.376889 
L 200.504518 19.281318 
L 200.620297 19.17155 
L 200.730286 19.030012 
L 200.81712 18.9203 
L 200.927109 18.801485 
L 201.03131 18.693133 
L 201.141299 18.550087 
L 201.280233 18.440684 
L 201.390222 18.375001 
L 201.517578 18.26938 
L 201.627568 18.162682 
L 201.754924 18.060687 
L 201.864913 17.971256 
L 201.974903 17.863467 
L 202.084892 17.805272 
L 202.20067 17.69804 
L 202.31066 17.534976 
L 202.513272 17.427363 
L 202.623261 17.321889 
L 202.739039 17.226407 
L 202.849029 17.133314 
L 202.930073 17.022855 
L 203.034274 16.94353 
L 203.219519 16.837616 
L 203.329508 16.68837 
L 203.433709 16.579979 
L 203.53212 16.479811 
L 203.74631 16.372231 
L 203.8563 16.265736 
L 203.948922 16.154995 
L 204.058912 16.028798 
L 204.261524 15.919536 
L 204.371513 15.878188 
L 204.527814 15.768087 
L 204.637803 15.652217 
L 204.718848 15.552849 
L 204.828837 15.464982 
L 205.048816 15.355864 
L 205.158805 15.262415 
L 205.268795 15.154138 
L 205.378784 15.010257 
L 205.650863 14.899551 
L 205.760852 14.820788 
L 205.917153 14.710263 
L 206.027142 14.614465 
L 206.206599 14.50608 
L 206.241332 14.488373 
L 206.73339 14.382819 
L 206.843379 14.271243 
L 207.017047 14.165787 
L 207.127036 14.084202 
L 207.335437 13.975307 
L 207.422271 13.931038 
L 207.688561 13.831074 
L 207.79855 13.757557 
L 207.949062 13.647484 
L 208.059051 13.558129 
L 208.38323 13.448787 
L 208.394808 13.442114 
L 208.742143 13.333532 
L 208.852132 13.227714 
L 209.083689 13.126365 
L 209.164734 13.079243 
L 209.685736 12.96946 
L 209.697314 12.954416 
L 210.218316 12.843428 
L 210.328305 12.748639 
L 210.565651 12.637607 
L 210.67564 12.586403 
L 210.976664 12.476546 
L 210.982453 12.469098 
L 211.42241 12.361601 
L 211.532399 12.288733 
L 211.706067 12.184679 
L 211.816056 12.112156 
L 212.053402 12.008146 
L 212.053402 11.998651 
L 213.726398 11.895878 
L 213.836387 11.822942 
L 214.102677 11.714953 
L 214.183722 11.68611 
L 214.421068 11.575686 
L 214.496323 11.552447 
L 218.635397 11.445809 
L 218.745386 11.389411 
L 219.011676 11.278691 
L 219.121666 11.22024 
L 219.422689 11.116523 
L 219.532679 11.048585 
L 219.625301 11.008073 
L 219.625301 11.005379 
L 219.625301 2.213975 
L 219.625301 2.213975 
" clip-path="url(#p5c31a71bc2)" style="fill: none; stroke-dasharray: 7.5,1.5; stroke-dashoffset: 0; stroke: #ac7726; stroke-width: 1.5"/>
   </g>
   <g id="patch_3">
    <path d="M 43.78125 186.84327 
L 43.78125 10.999219 
" style="fill: none; stroke: #000000; stroke-width: 0.8; stroke-linejoin: miter; stroke-linecap: square"/>
   </g>
   <g id="patch_4">
    <path d="M 219.625301 186.84327 
L 219.625301 10.999219 
" style="fill: none; stroke: #000000; stroke-width: 0.8; stroke-linejoin: miter; stroke-linecap: square"/>
   </g>
   <g id="patch_5">
    <path d="M 43.78125 186.84327 
L 219.625301 186.84327 
" style="fill: none; stroke: #000000; stroke-width: 0.8; stroke-linejoin: miter; stroke-linecap: square"/>
   </g>
   <g id="patch_6">
    <path d="M 43.78125 10.999219 
L 219.625301 10.999219 
" style="fill: none; stroke: #000000; stroke-width: 0.8; stroke-linejoin: miter; stroke-linecap: square"/>
   </g>
   <g id="legend_1">
    <g id="patch_7">
     <path d="M 50.78125 48.355469 
L 127.757812 48.355469 
Q 129.757812 48.355469 129.757812 46.355469 
L 129.757812 17.999219 
Q 129.757812 15.999219 127.757812 15.999219 
L 50.78125 15.999219 
Q 48.78125 15.999219 48.78125 17.999219 
L 48.78125 46.355469 
Q 48.78125 48.355469 50.78125 48.355469 
z
" style="fill: #ffffff; opacity: 0.8; stroke: #cccccc; stroke-linejoin: miter"/>
    </g>
    <g id="line2d_15">
     <path d="M 52.78125 24.097656 
L 62.78125 24.097656 
L 62.78125 24.097656 
L 72.78125 24.097656 
L 72.78125 24.097656 
" style="fill: none; stroke: #67c7d5; stroke-width: 1.5; stroke-linecap: square"/>
    </g>
    <g id="text_15">
     <!-- ATL09 -->
     <g transform="translate(80.78125 27.597656) scale(0.1 -0.1)">
      <defs>
       <path id="DejaVuSans-41" d="M 2188 4044 
L 1331 1722 
L 3047 1722 
L 2188 4044 
z
M 1831 4666 
L 2547 4666 
L 4325 0 
L 3669 0 
L 3244 1197 
L 1141 1197 
L 716 0 
L 50 0 
L 1831 4666 
z
" transform="scale(0.015625)"/>
       <path id="DejaVuSans-54" d="M -19 4666 
L 3928 4666 
L 3928 4134 
L 2272 4134 
L 2272 0 
L 1638 0 
L 1638 4134 
L -19 4134 
L -19 4666 
z
" transform="scale(0.015625)"/>
       <path id="DejaVuSans-4c" d="M 628 4666 
L 1259 4666 
L 1259 531 
L 3531 531 
L 3531 0 
L 628 0 
L 628 4666 
z
" transform="scale(0.015625)"/>
       <path id="DejaVuSans-39" d="M 703 97 
L 703 672 
Q 941 559 1184 500 
Q 1428 441 1663 441 
Q 2288 441 2617 861 
Q 2947 1281 2994 2138 
Q 2813 1869 2534 1725 
Q 2256 1581 1919 1581 
Q 1219 1581 811 2004 
Q 403 2428 403 3163 
Q 403 3881 828 4315 
Q 1253 4750 1959 4750 
Q 2769 4750 3195 4129 
Q 3622 3509 3622 2328 
Q 3622 1225 3098 567 
Q 2575 -91 1691 -91 
Q 1453 -91 1209 -44 
Q 966 3 703 97 
z
M 1959 2075 
Q 2384 2075 2632 2365 
Q 2881 2656 2881 3163 
Q 2881 3666 2632 3958 
Q 2384 4250 1959 4250 
Q 1534 4250 1286 3958 
Q 1038 3666 1038 3163 
Q 1038 2656 1286 2365 
Q 1534 2075 1959 2075 
z
" transform="scale(0.015625)"/>
      </defs>
      <use xlink:href="#DejaVuSans-41"/>
      <use xlink:href="#DejaVuSans-54" transform="translate(60.658203 0)"/>
      <use xlink:href="#DejaVuSans-4c" transform="translate(121.742188 0)"/>
      <use xlink:href="#DejaVuSans-30" transform="translate(177.455078 0)"/>
      <use xlink:href="#DejaVuSans-39" transform="translate(241.078125 0)"/>
     </g>
    </g>
    <g id="line2d_16">
     <path d="M 52.78125 38.775781 
L 62.78125 38.775781 
L 62.78125 38.775781 
L 72.78125 38.775781 
L 72.78125 38.775781 
" style="fill: none; stroke-dasharray: 7.5,1.5; stroke-dashoffset: 0; stroke: #ac7726; stroke-width: 1.5"/>
    </g>
    <g id="text_16">
     <!-- Cloudnet -->
     <g transform="translate(80.78125 42.275781) scale(0.1 -0.1)">
      <defs>
       <path id="DejaVuSans-6c" d="M 603 4863 
L 1178 4863 
L 1178 0 
L 603 0 
L 603 4863 
z
" transform="scale(0.015625)"/>
       <path id="DejaVuSans-6f" d="M 1959 3097 
Q 1497 3097 1228 2736 
Q 959 2375 959 1747 
Q 959 1119 1226 758 
Q 1494 397 1959 397 
Q 2419 397 2687 759 
Q 2956 1122 2956 1747 
Q 2956 2369 2687 2733 
Q 2419 3097 1959 3097 
z
M 1959 3584 
Q 2709 3584 3137 3096 
Q 3566 2609 3566 1747 
Q 3566 888 3137 398 
Q 2709 -91 1959 -91 
Q 1206 -91 779 398 
Q 353 888 353 1747 
Q 353 2609 779 3096 
Q 1206 3584 1959 3584 
z
" transform="scale(0.015625)"/>
       <path id="DejaVuSans-75" d="M 544 1381 
L 544 3500 
L 1119 3500 
L 1119 1403 
Q 1119 906 1312 657 
Q 1506 409 1894 409 
Q 2359 409 2629 706 
Q 2900 1003 2900 1516 
L 2900 3500 
L 3475 3500 
L 3475 0 
L 2900 0 
L 2900 538 
Q 2691 219 2414 64 
Q 2138 -91 1772 -91 
Q 1169 -91 856 284 
Q 544 659 544 1381 
z
M 1991 3584 
L 1991 3584 
z
" transform="scale(0.015625)"/>
       <path id="DejaVuSans-64" d="M 2906 2969 
L 2906 4863 
L 3481 4863 
L 3481 0 
L 2906 0 
L 2906 525 
Q 2725 213 2448 61 
Q 2172 -91 1784 -91 
Q 1150 -91 751 415 
Q 353 922 353 1747 
Q 353 2572 751 3078 
Q 1150 3584 1784 3584 
Q 2172 3584 2448 3432 
Q 2725 3281 2906 2969 
z
M 947 1747 
Q 947 1113 1208 752 
Q 1469 391 1925 391 
Q 2381 391 2643 752 
Q 2906 1113 2906 1747 
Q 2906 2381 2643 2742 
Q 2381 3103 1925 3103 
Q 1469 3103 1208 2742 
Q 947 2381 947 1747 
z
" transform="scale(0.015625)"/>
       <path id="DejaVuSans-6e" d="M 3513 2113 
L 3513 0 
L 2938 0 
L 2938 2094 
Q 2938 2591 2744 2837 
Q 2550 3084 2163 3084 
Q 1697 3084 1428 2787 
Q 1159 2491 1159 1978 
L 1159 0 
L 581 0 
L 581 3500 
L 1159 3500 
L 1159 2956 
Q 1366 3272 1645 3428 
Q 1925 3584 2291 3584 
Q 2894 3584 3203 3211 
Q 3513 2838 3513 2113 
z
" transform="scale(0.015625)"/>
       <path id="DejaVuSans-65" d="M 3597 1894 
L 3597 1613 
L 953 1613 
Q 991 1019 1311 708 
Q 1631 397 2203 397 
Q 2534 397 2845 478 
Q 3156 559 3463 722 
L 3463 178 
Q 3153 47 2828 -22 
Q 2503 -91 2169 -91 
Q 1331 -91 842 396 
Q 353 884 353 1716 
Q 353 2575 817 3079 
Q 1281 3584 2069 3584 
Q 2775 3584 3186 3129 
Q 3597 2675 3597 1894 
z
M 3022 2063 
Q 3016 2534 2758 2815 
Q 2500 3097 2075 3097 
Q 1594 3097 1305 2825 
Q 1016 2553 972 2059 
L 3022 2063 
z
" transform="scale(0.015625)"/>
       <path id="DejaVuSans-74" d="M 1172 4494 
L 1172 3500 
L 2356 3500 
L 2356 3053 
L 1172 3053 
L 1172 1153 
Q 1172 725 1289 603 
Q 1406 481 1766 481 
L 2356 481 
L 2356 0 
L 1766 0 
Q 1100 0 847 248 
Q 594 497 594 1153 
L 594 3053 
L 172 3053 
L 172 3500 
L 594 3500 
L 594 4494 
L 1172 4494 
z
" transform="scale(0.015625)"/>
      </defs>
      <use xlink:href="#DejaVuSans-43"/>
      <use xlink:href="#DejaVuSans-6c" transform="translate(69.824219 0)"/>
      <use xlink:href="#DejaVuSans-6f" transform="translate(97.607422 0)"/>
      <use xlink:href="#DejaVuSans-75" transform="translate(158.789062 0)"/>
      <use xlink:href="#DejaVuSans-64" transform="translate(222.167969 0)"/>
      <use xlink:href="#DejaVuSans-6e" transform="translate(285.644531 0)"/>
      <use xlink:href="#DejaVuSans-65" transform="translate(349.023438 0)"/>
      <use xlink:href="#DejaVuSans-74" transform="translate(410.546875 0)"/>
     </g>
    </g>
   </g>
  </g>
 </g>
 <defs>
  <clipPath id="p5c31a71bc2">
   <rect x="43.78125" y="10.999219" width="175.844051" height="175.844051"/>
  </clipPath>
 </defs>
</svg>
