<?xml version="1.0" encoding="utf-8" standalone="no"?>
<!DOCTYPE svg PUBLIC "-//W3C//DTD SVG 1.1//EN"
  "http://www.w3.org/Graphics/SVG/1.1/DTD/svg11.dtd">
<svg xmlns:xlink="http://www.w3.org/1999/xlink" width="288pt" height="216pt" viewBox="0 0 288 216" xmlns="http://www.w3.org/2000/svg" version="1.1">
 <metadata>
  <rdf:RDF xmlns:dc="http://purl.org/dc/elements/1.1/" xmlns:cc="http://creativecommons.org/ns#" xmlns:rdf="http://www.w3.org/1999/02/22-rdf-syntax-ns#">
   <cc:Work>
    <dc:type rdf:resource="http://purl.org/dc/dcmitype/StillImage"/>
    <dc:date>2025-11-27T17:02:05.558565</dc:date>
    <dc:format>image/svg+xml</dc:format>
    <dc:creator>
     <cc:Agent>
      <dc:title>Matplotlib v3.10.0, https://matplotlib.org/</dc:title>
     </cc:Agent>
    </dc:creator>
   </cc:Work>
  </rdf:RDF>
 </metadata>
 <defs>
  <style type="text/css">*{stroke-linejoin: round; stroke-linecap: butt}</style>
 </defs>
 <g id="figure_1">
  <g id="patch_1">
   <path d="M 0 216 
L 288 216 
L 288 0 
L 0 0 
L 0 216 
z
" style="fill: none"/>
  </g>
  <g id="axes_1">
   <g id="patch_2">
    <path d="M 56.077974 182.64351 
L 231.922026 182.64351 
L 231.922026 6.799459 
L 56.077974 6.799459 
L 56.077974 182.64351 
z
" style="fill: none"/>
   </g>
   <g id="matplotlib.axis_1">
    <g id="xtick_1">
     <g id="line2d_1">
      <defs>
       <path id="m61a1351c8f" d="M 0 0 
L 0 3.5 
" style="stroke: #000000; stroke-width: 0.8"/>
      </defs>
      <g>
       <use xlink:href="#m61a1351c8f" x="56.077974" y="182.64351" style="stroke: #000000; stroke-width: 0.8"/>
      </g>
     </g>
     <g id="text_1">
      <!-- 0.0 -->
      <g transform="translate(48.126412 197.241948) scale(0.1 -0.1)">
       <defs>
        <path id="DejaVuSans-30" d="M 2034 4250 
Q 1547 4250 1301 3770 
Q 1056 3291 1056 2328 
Q 1056 1369 1301 889 
Q 1547 409 2034 409 
Q 2525 409 2770 889 
Q 3016 1369 3016 2328 
Q 3016 3291 2770 3770 
Q 2525 4250 2034 4250 
z
M 2034 4750 
Q 2819 4750 3233 4129 
Q 3647 3509 3647 2328 
Q 3647 1150 3233 529 
Q 2819 -91 2034 -91 
Q 1250 -91 836 529 
Q 422 1150 422 2328 
Q 422 3509 836 4129 
Q 1250 4750 2034 4750 
z
" transform="scale(0.015625)"/>
        <path id="DejaVuSans-2e" d="M 684 794 
L 1344 794 
L 1344 0 
L 684 0 
L 684 794 
z
" transform="scale(0.015625)"/>
       </defs>
       <use xlink:href="#DejaVuSans-30"/>
       <use xlink:href="#DejaVuSans-2e" transform="translate(63.623047 0)"/>
       <use xlink:href="#DejaVuSans-30" transform="translate(95.410156 0)"/>
      </g>
     </g>
    </g>
    <g id="xtick_2">
     <g id="line2d_2">
      <g>
       <use xlink:href="#m61a1351c8f" x="91.246785" y="182.64351" style="stroke: #000000; stroke-width: 0.8"/>
      </g>
     </g>
     <g id="text_2">
      <!-- 0.2 -->
      <g transform="translate(83.295222 197.241948) scale(0.1 -0.1)">
       <defs>
        <path id="DejaVuSans-32" d="M 1228 531 
L 3431 531 
L 3431 0 
L 469 0 
L 469 531 
Q 828 903 1448 1529 
Q 2069 2156 2228 2338 
Q 2531 2678 2651 2914 
Q 2772 3150 2772 3378 
Q 2772 3750 2511 3984 
Q 2250 4219 1831 4219 
Q 1534 4219 1204 4116 
Q 875 4013 500 3803 
L 500 4441 
Q 881 4594 1212 4672 
Q 1544 4750 1819 4750 
Q 2544 4750 2975 4387 
Q 3406 4025 3406 3419 
Q 3406 3131 3298 2873 
Q 3191 2616 2906 2266 
Q 2828 2175 2409 1742 
Q 1991 1309 1228 531 
z
" transform="scale(0.015625)"/>
       </defs>
       <use xlink:href="#DejaVuSans-30"/>
       <use xlink:href="#DejaVuSans-2e" transform="translate(63.623047 0)"/>
       <use xlink:href="#DejaVuSans-32" transform="translate(95.410156 0)"/>
      </g>
     </g>
    </g>
    <g id="xtick_3">
     <g id="line2d_3">
      <g>
       <use xlink:href="#m61a1351c8f" x="126.415595" y="182.64351" style="stroke: #000000; stroke-width: 0.8"/>
      </g>
     </g>
     <g id="text_3">
      <!-- 0.4 -->
      <g transform="translate(118.464032 197.241948) scale(0.1 -0.1)">
       <defs>
        <path id="DejaVuSans-34" d="M 2419 4116 
L 825 1625 
L 2419 1625 
L 2419 4116 
z
M 2253 4666 
L 3047 4666 
L 3047 1625 
L 3713 1625 
L 3713 1100 
L 3047 1100 
L 3047 0 
L 2419 0 
L 2419 1100 
L 313 1100 
L 313 1709 
L 2253 4666 
z
" transform="scale(0.015625)"/>
       </defs>
       <use xlink:href="#DejaVuSans-30"/>
       <use xlink:href="#DejaVuSans-2e" transform="translate(63.623047 0)"/>
       <use xlink:href="#DejaVuSans-34" transform="translate(95.410156 0)"/>
      </g>
     </g>
    </g>
    <g id="xtick_4">
     <g id="line2d_4">
      <g>
       <use xlink:href="#m61a1351c8f" x="161.584405" y="182.64351" style="stroke: #000000; stroke-width: 0.8"/>
      </g>
     </g>
     <g id="text_4">
      <!-- 0.6 -->
      <g transform="translate(153.632843 197.241948) scale(0.1 -0.1)">
       <defs>
        <path id="DejaVuSans-36" d="M 2113 2584 
Q 1688 2584 1439 2293 
Q 1191 2003 1191 1497 
Q 1191 994 1439 701 
Q 1688 409 2113 409 
Q 2538 409 2786 701 
Q 3034 994 3034 1497 
Q 3034 2003 2786 2293 
Q 2538 2584 2113 2584 
z
M 3366 4563 
L 3366 3988 
Q 3128 4100 2886 4159 
Q 2644 4219 2406 4219 
Q 1781 4219 1451 3797 
Q 1122 3375 1075 2522 
Q 1259 2794 1537 2939 
Q 1816 3084 2150 3084 
Q 2853 3084 3261 2657 
Q 3669 2231 3669 1497 
Q 3669 778 3244 343 
Q 2819 -91 2113 -91 
Q 1303 -91 875 529 
Q 447 1150 447 2328 
Q 447 3434 972 4092 
Q 1497 4750 2381 4750 
Q 2619 4750 2861 4703 
Q 3103 4656 3366 4563 
z
" transform="scale(0.015625)"/>
       </defs>
       <use xlink:href="#DejaVuSans-30"/>
       <use xlink:href="#DejaVuSans-2e" transform="translate(63.623047 0)"/>
       <use xlink:href="#DejaVuSans-36" transform="translate(95.410156 0)"/>
      </g>
     </g>
    </g>
    <g id="xtick_5">
     <g id="line2d_5">
      <g>
       <use xlink:href="#m61a1351c8f" x="196.753215" y="182.64351" style="stroke: #000000; stroke-width: 0.8"/>
      </g>
     </g>
     <g id="text_5">
      <!-- 0.8 -->
      <g transform="translate(188.801653 197.241948) scale(0.1 -0.1)">
       <defs>
        <path id="DejaVuSans-38" d="M 2034 2216 
Q 1584 2216 1326 1975 
Q 1069 1734 1069 1313 
Q 1069 891 1326 650 
Q 1584 409 2034 409 
Q 2484 409 2743 651 
Q 3003 894 3003 1313 
Q 3003 1734 2745 1975 
Q 2488 2216 2034 2216 
z
M 1403 2484 
Q 997 2584 770 2862 
Q 544 3141 544 3541 
Q 544 4100 942 4425 
Q 1341 4750 2034 4750 
Q 2731 4750 3128 4425 
Q 3525 4100 3525 3541 
Q 3525 3141 3298 2862 
Q 3072 2584 2669 2484 
Q 3125 2378 3379 2068 
Q 3634 1759 3634 1313 
Q 3634 634 3220 271 
Q 2806 -91 2034 -91 
Q 1263 -91 848 271 
Q 434 634 434 1313 
Q 434 1759 690 2068 
Q 947 2378 1403 2484 
z
M 1172 3481 
Q 1172 3119 1398 2916 
Q 1625 2713 2034 2713 
Q 2441 2713 2670 2916 
Q 2900 3119 2900 3481 
Q 2900 3844 2670 4047 
Q 2441 4250 2034 4250 
Q 1625 4250 1398 4047 
Q 1172 3844 1172 3481 
z
" transform="scale(0.015625)"/>
       </defs>
       <use xlink:href="#DejaVuSans-30"/>
       <use xlink:href="#DejaVuSans-2e" transform="translate(63.623047 0)"/>
       <use xlink:href="#DejaVuSans-38" transform="translate(95.410156 0)"/>
      </g>
     </g>
    </g>
    <g id="xtick_6">
     <g id="line2d_6">
      <g>
       <use xlink:href="#m61a1351c8f" x="231.922026" y="182.64351" style="stroke: #000000; stroke-width: 0.8"/>
      </g>
     </g>
     <g id="text_6">
      <!-- 1.0 -->
      <g transform="translate(223.970463 197.241948) scale(0.1 -0.1)">
       <defs>
        <path id="DejaVuSans-31" d="M 794 531 
L 1825 531 
L 1825 4091 
L 703 3866 
L 703 4441 
L 1819 4666 
L 2450 4666 
L 2450 531 
L 3481 531 
L 3481 0 
L 794 0 
L 794 531 
z
" transform="scale(0.015625)"/>
       </defs>
       <use xlink:href="#DejaVuSans-31"/>
       <use xlink:href="#DejaVuSans-2e" transform="translate(63.623047 0)"/>
       <use xlink:href="#DejaVuSans-30" transform="translate(95.410156 0)"/>
      </g>
     </g>
    </g>
    <g id="text_7">
     <!-- $u$, $v$ -->
     <g transform="translate(134.65 210.920073) scale(0.1 -0.1)">
      <defs>
       <path id="DejaVuSans-Oblique-75" d="M 428 1388 
L 838 3500 
L 1416 3500 
L 1006 1409 
Q 975 1256 961 1147 
Q 947 1038 947 966 
Q 947 700 1109 554 
Q 1272 409 1569 409 
Q 2031 409 2368 721 
Q 2706 1034 2809 1563 
L 3194 3500 
L 3769 3500 
L 3091 0 
L 2516 0 
L 2631 550 
Q 2388 244 2052 76 
Q 1716 -91 1338 -91 
Q 878 -91 622 161 
Q 366 413 366 863 
Q 366 956 381 1097 
Q 397 1238 428 1388 
z
" transform="scale(0.015625)"/>
       <path id="DejaVuSans-2c" d="M 750 794 
L 1409 794 
L 1409 256 
L 897 -744 
L 494 -744 
L 750 256 
L 750 794 
z
" transform="scale(0.015625)"/>
       <path id="DejaVuSans-20" transform="scale(0.015625)"/>
       <path id="DejaVuSans-Oblique-76" d="M 459 3500 
L 1069 3500 
L 1581 525 
L 3256 3500 
L 3866 3500 
L 1875 0 
L 1100 0 
L 459 3500 
z
" transform="scale(0.015625)"/>
      </defs>
      <use xlink:href="#DejaVuSans-Oblique-75" transform="translate(0 0.3125)"/>
      <use xlink:href="#DejaVuSans-2c" transform="translate(63.378906 0.3125)"/>
      <use xlink:href="#DejaVuSans-20" transform="translate(95.166016 0.3125)"/>
      <use xlink:href="#DejaVuSans-Oblique-76" transform="translate(126.953125 0.3125)"/>
     </g>
    </g>
   </g>
   <g id="matplotlib.axis_2">
    <g id="ytick_1">
     <g id="line2d_7">
      <defs>
       <path id="m82b72ee57c" d="M 0 0 
L -3.5 0 
" style="stroke: #000000; stroke-width: 0.8"/>
      </defs>
      <g>
       <use xlink:href="#m82b72ee57c" x="56.077974" y="182.64351" style="stroke: #000000; stroke-width: 0.8"/>
      </g>
     </g>
     <g id="text_8">
      <!-- 0.0 -->
      <g transform="translate(33.174849 186.442729) scale(0.1 -0.1)">
       <use xlink:href="#DejaVuSans-30"/>
       <use xlink:href="#DejaVuSans-2e" transform="translate(63.623047 0)"/>
       <use xlink:href="#DejaVuSans-30" transform="translate(95.410156 0)"/>
      </g>
     </g>
    </g>
    <g id="ytick_2">
     <g id="line2d_8">
      <g>
       <use xlink:href="#m82b72ee57c" x="56.077974" y="147.4747" style="stroke: #000000; stroke-width: 0.8"/>
      </g>
     </g>
     <g id="text_9">
      <!-- 0.2 -->
      <g transform="translate(33.174849 151.273918) scale(0.1 -0.1)">
       <use xlink:href="#DejaVuSans-30"/>
       <use xlink:href="#DejaVuSans-2e" transform="translate(63.623047 0)"/>
       <use xlink:href="#DejaVuSans-32" transform="translate(95.410156 0)"/>
      </g>
     </g>
    </g>
    <g id="ytick_3">
     <g id="line2d_9">
      <g>
       <use xlink:href="#m82b72ee57c" x="56.077974" y="112.305889" style="stroke: #000000; stroke-width: 0.8"/>
      </g>
     </g>
     <g id="text_10">
      <!-- 0.4 -->
      <g transform="translate(33.174849 116.105108) scale(0.1 -0.1)">
       <use xlink:href="#DejaVuSans-30"/>
       <use xlink:href="#DejaVuSans-2e" transform="translate(63.623047 0)"/>
       <use xlink:href="#DejaVuSans-34" transform="translate(95.410156 0)"/>
      </g>
     </g>
    </g>
    <g id="ytick_4">
     <g id="line2d_10">
      <g>
       <use xlink:href="#m82b72ee57c" x="56.077974" y="77.137079" style="stroke: #000000; stroke-width: 0.8"/>
      </g>
     </g>
     <g id="text_11">
      <!-- 0.6 -->
      <g transform="translate(33.174849 80.936298) scale(0.1 -0.1)">
       <use xlink:href="#DejaVuSans-30"/>
       <use xlink:href="#DejaVuSans-2e" transform="translate(63.623047 0)"/>
       <use xlink:href="#DejaVuSans-36" transform="translate(95.410156 0)"/>
      </g>
     </g>
    </g>
    <g id="ytick_5">
     <g id="line2d_11">
      <g>
       <use xlink:href="#m82b72ee57c" x="56.077974" y="41.968269" style="stroke: #000000; stroke-width: 0.8"/>
      </g>
     </g>
     <g id="text_12">
      <!-- 0.8 -->
      <g transform="translate(33.174849 45.767488) scale(0.1 -0.1)">
       <use xlink:href="#DejaVuSans-30"/>
       <use xlink:href="#DejaVuSans-2e" transform="translate(63.623047 0)"/>
       <use xlink:href="#DejaVuSans-38" transform="translate(95.410156 0)"/>
      </g>
     </g>
    </g>
    <g id="ytick_6">
     <g id="line2d_12">
      <g>
       <use xlink:href="#m82b72ee57c" x="56.077974" y="6.799459" style="stroke: #000000; stroke-width: 0.8"/>
      </g>
     </g>
     <g id="text_13">
      <!-- 1.0 -->
      <g transform="translate(33.174849 10.598677) scale(0.1 -0.1)">
       <use xlink:href="#DejaVuSans-31"/>
       <use xlink:href="#DejaVuSans-2e" transform="translate(63.623047 0)"/>
       <use xlink:href="#DejaVuSans-30" transform="translate(95.410156 0)"/>
      </g>
     </g>
    </g>
    <g id="text_14">
     <!-- VCF -->
     <g transform="translate(27.095162 104.508984) rotate(-90) scale(0.1 -0.1)">
      <defs>
       <path id="DejaVuSans-56" d="M 1831 0 
L 50 4666 
L 709 4666 
L 2188 738 
L 3669 4666 
L 4325 4666 
L 2547 0 
L 1831 0 
z
" transform="scale(0.015625)"/>
       <path id="DejaVuSans-43" d="M 4122 4306 
L 4122 3641 
Q 3803 3938 3442 4084 
Q 3081 4231 2675 4231 
Q 1875 4231 1450 3742 
Q 1025 3253 1025 2328 
Q 1025 1406 1450 917 
Q 1875 428 2675 428 
Q 3081 428 3442 575 
Q 3803 722 4122 1019 
L 4122 359 
Q 3791 134 3420 21 
Q 3050 -91 2638 -91 
Q 1578 -91 968 557 
Q 359 1206 359 2328 
Q 359 3453 968 4101 
Q 1578 4750 2638 4750 
Q 3056 4750 3426 4639 
Q 3797 4528 4122 4306 
z
" transform="scale(0.015625)"/>
       <path id="DejaVuSans-46" d="M 628 4666 
L 3309 4666 
L 3309 4134 
L 1259 4134 
L 1259 2759 
L 3109 2759 
L 3109 2228 
L 1259 2228 
L 1259 0 
L 628 0 
L 628 4666 
z
" transform="scale(0.015625)"/>
      </defs>
      <use xlink:href="#DejaVuSans-56"/>
      <use xlink:href="#DejaVuSans-43" transform="translate(68.408203 0)"/>
      <use xlink:href="#DejaVuSans-46" transform="translate(138.232422 0)"/>
     </g>
    </g>
   </g>
   <g id="line2d_13">
    <path d="M 56.077974 191.435413 
L 56.081922 191.435413 
L 56.192459 182.63992 
L 58.367662 182.529219 
L 58.478198 182.523643 
L 60.388903 182.412666 
L 60.49944 182.405239 
L 61.983789 182.294258 
L 62.094326 182.283714 
L 63.424713 182.172975 
L 63.53525 182.168256 
L 64.841951 182.057167 
L 64.952487 182.049643 
L 66.188129 181.939007 
L 66.298666 181.925665 
L 67.40798 181.814953 
L 67.518516 181.808785 
L 68.552823 181.699 
L 68.66336 181.684859 
L 69.480542 181.573899 
L 69.591078 181.560967 
L 70.534587 181.45027 
L 70.645124 181.437722 
L 71.553104 181.326819 
L 71.66364 181.318204 
L 72.488717 181.207809 
L 72.599254 181.190816 
L 73.365115 181.080174 
L 73.475652 181.064365 
L 74.296781 180.954048 
L 74.407317 180.934772 
L 75.090276 180.824892 
L 75.200813 180.803962 
L 75.931144 180.693823 
L 76.041681 180.674656 
L 76.858862 180.564975 
L 76.969399 180.547112 
L 77.632619 180.438675 
L 77.743155 180.415466 
L 78.335316 180.304788 
L 78.445852 180.290668 
L 79.07749 180.180026 
L 79.188027 180.164772 
L 79.847299 180.055195 
L 79.957836 180.033755 
L 80.57763 179.923064 
L 80.688167 179.910548 
L 81.288223 179.799667 
L 81.39876 179.775486 
L 81.935652 179.665126 
L 82.046189 179.634201 
L 82.662036 179.523427 
L 82.772572 179.49419 
L 83.412106 179.383652 
L 83.522642 179.360715 
L 84.035848 179.251179 
L 84.146385 179.23047 
L 84.69512 179.119553 
L 84.805657 179.09773 
L 85.330706 178.98722 
L 85.441243 178.965605 
L 85.997873 178.855695 
L 86.10841 178.828459 
L 86.732153 178.718715 
L 86.842689 178.698676 
L 87.355895 178.588387 
L 87.466432 178.5644 
L 87.991481 178.453569 
L 88.102017 178.427644 
L 88.6547 178.317653 
L 88.765237 178.289606 
L 89.274495 178.178682 
L 89.385032 178.155883 
L 89.850865 178.045946 
L 89.961401 178.001853 
L 90.466712 177.891011 
L 90.577248 177.866952 
L 91.050977 177.756575 
L 91.161514 177.724739 
L 91.587869 177.61576 
L 91.698406 177.577924 
L 92.219507 177.467585 
L 92.330044 177.434584 
L 92.712974 177.324958 
L 92.823511 177.291172 
L 93.277501 177.180266 
L 93.388037 177.146206 
L 93.842027 177.035279 
L 93.952564 176.997769 
L 94.406553 176.886711 
L 94.51709 176.857764 
L 94.959237 176.748809 
L 95.069773 176.721646 
L 95.559293 176.611066 
L 95.669829 176.584936 
L 96.115923 176.473854 
L 96.22646 176.44216 
L 96.613338 176.332125 
L 96.723875 176.294215 
L 97.150231 176.185389 
L 97.260767 176.156758 
L 97.706862 176.047702 
L 97.817398 176.018211 
L 98.160851 175.907653 
L 98.271388 175.877835 
L 98.6859 175.7673 
L 98.796437 175.731607 
L 99.17542 175.622535 
L 99.285956 175.57172 
L 99.688626 175.462398 
L 99.799162 175.432042 
L 100.22157 175.320975 
L 100.332107 175.281717 
L 100.715037 175.170732 
L 100.825574 175.133597 
L 101.232191 175.022686 
L 101.342727 174.995974 
L 101.658546 174.886978 
L 101.769083 174.851259 
L 102.092797 174.740846 
L 102.203334 174.697964 
L 102.637585 174.587858 
L 102.748122 174.557 
L 103.154739 174.446079 
L 103.265275 174.419422 
L 103.620572 174.309849 
L 103.731108 174.284267 
L 104.078509 174.173822 
L 104.189046 174.127949 
L 104.516708 174.017491 
L 104.627245 173.984677 
L 104.998332 173.873782 
L 105.108868 173.831282 
L 105.495747 173.720229 
L 105.606283 173.677687 
L 105.969475 173.570866 
L 106.080012 173.52567 
L 106.43136 173.417327 
L 106.541897 173.375815 
L 106.893246 173.26559 
L 107.003782 173.234223 
L 107.30381 173.123129 
L 107.414347 173.080443 
L 107.769643 172.969908 
L 107.88018 172.934203 
L 108.203894 172.824105 
L 108.314431 172.783096 
L 108.602616 172.675371 
L 108.713152 172.64364 
L 109.107926 172.533419 
L 109.218463 172.501929 
L 109.530334 172.391295 
L 109.640871 172.358292 
L 109.940899 172.249853 
L 110.051435 172.200693 
L 110.434366 172.089874 
L 110.544902 172.056816 
L 110.951519 171.946133 
L 111.062056 171.909209 
L 111.362084 171.79891 
L 111.472621 171.750111 
L 111.733171 171.641634 
L 111.843708 171.608762 
L 112.13584 171.498718 
L 112.246377 171.456778 
L 112.58983 171.346375 
L 112.700367 171.31297 
L 112.949074 171.210832 
L 113.059611 171.169721 
L 113.355691 171.059265 
L 113.466228 171.00705 
L 113.750465 170.896379 
L 113.861002 170.858079 
L 114.192611 170.748997 
L 114.303148 170.706712 
L 114.615019 170.595665 
L 114.725556 170.557614 
L 115.100591 170.44771 
L 115.211128 170.408532 
L 115.519051 170.297707 
L 115.629588 170.254097 
L 115.973041 170.144142 
L 116.083577 170.096564 
L 116.454665 169.985684 
L 116.565201 169.946256 
L 116.849438 169.838796 
L 116.959975 169.793714 
L 117.263951 169.68281 
L 117.374487 169.632575 
L 117.674516 169.522093 
L 117.785052 169.484153 
L 118.144296 169.37396 
L 118.254833 169.333697 
L 118.523279 169.224623 
L 118.633816 169.185721 
L 118.910157 169.07614 
L 119.020694 169.029909 
L 119.304931 168.919636 
L 119.415468 168.873817 
L 119.687861 168.771822 
L 119.798398 168.69217 
L 120.047105 168.584306 
L 120.157642 168.545232 
L 120.453722 168.437734 
L 120.564259 168.395307 
L 120.840601 168.285077 
L 120.951137 168.231171 
L 121.270904 168.120267 
L 121.381441 168.05618 
L 121.673573 167.945969 
L 121.78411 167.899855 
L 122.072295 167.791355 
L 122.182831 167.745005 
L 122.407852 167.637747 
L 122.518389 167.589843 
L 122.798678 167.479169 
L 122.909215 167.432141 
L 123.1974 167.325224 
L 123.307936 167.285006 
L 123.596121 167.175651 
L 123.706658 167.135739 
L 123.94747 167.027824 
L 124.058006 166.993687 
L 124.338296 166.883372 
L 124.448832 166.84244 
L 124.693592 166.733128 
L 124.804129 166.681673 
L 125.092313 166.570633 
L 125.20285 166.509623 
L 125.510774 166.399181 
L 125.62131 166.352677 
L 125.913443 166.24292 
L 126.023979 166.18144 
L 126.245053 166.070562 
L 126.355589 166.027637 
L 126.624035 165.918193 
L 126.734572 165.881743 
L 126.991175 165.771503 
L 127.101712 165.709113 
L 127.362262 165.598869 
L 127.472799 165.54832 
L 127.741245 165.437934 
L 127.851782 165.386923 
L 128.147862 165.276196 
L 128.258399 165.233902 
L 128.48342 165.123184 
L 128.593956 165.065116 
L 128.850559 164.954188 
L 128.961096 164.904591 
L 129.217699 164.794663 
L 129.328235 164.744256 
L 129.65195 164.635583 
L 129.762486 164.587487 
L 130.003298 164.479531 
L 130.113835 164.438518 
L 130.346751 164.328318 
L 130.457288 164.285859 
L 130.686257 164.174969 
L 130.796793 164.122651 
L 131.053396 164.011805 
L 131.163933 163.972471 
L 131.385006 163.862806 
L 131.495543 163.805985 
L 131.69293 163.70029 
L 131.803466 163.633119 
L 132.095599 163.523975 
L 132.206136 163.461199 
L 132.439052 163.350631 
L 132.549589 163.307134 
L 132.778557 163.196054 
L 132.889094 163.152067 
L 133.098324 163.041853 
L 133.208861 162.978256 
L 133.493098 162.868269 
L 133.603634 162.811602 
L 133.860237 162.701692 
L 133.970774 162.650726 
L 134.172109 162.54041 
L 134.282645 162.483429 
L 134.551091 162.373597 
L 134.661628 162.310402 
L 134.906388 162.201335 
L 135.016924 162.151962 
L 135.257736 162.040913 
L 135.368273 162.007606 
L 135.585398 161.897291 
L 135.695935 161.8365 
L 135.94859 161.725775 
L 136.059127 161.671844 
L 136.272305 161.563502 
L 136.382841 161.488571 
L 136.599967 161.381262 
L 136.710504 161.328028 
L 136.888152 161.221712 
L 136.998688 161.16467 
L 137.215814 161.058751 
L 137.326351 160.990215 
L 137.515842 160.879408 
L 137.626379 160.827491 
L 137.831661 160.716967 
L 137.942198 160.659935 
L 138.167219 160.550134 
L 138.277755 160.495045 
L 138.522515 160.386304 
L 138.633051 160.345897 
L 138.893602 160.235635 
L 139.004139 160.174973 
L 139.22916 160.063956 
L 139.339696 160.008248 
L 139.616038 159.897226 
L 139.726575 159.840549 
L 139.947648 159.73144 
L 140.058185 159.678905 
L 140.263467 159.570293 
L 140.374004 159.50398 
L 140.618763 159.395085 
L 140.7293 159.337463 
L 140.989851 159.226636 
L 141.100387 159.147896 
L 141.372781 159.03695 
L 141.483318 158.978048 
L 141.680704 158.867355 
L 141.791241 158.795983 
L 142.000471 158.685578 
L 142.111008 158.640314 
L 142.328133 158.531892 
L 142.43867 158.484673 
L 142.620266 158.374127 
L 142.730803 158.309761 
L 142.940033 158.200642 
L 143.050569 158.133087 
L 143.299277 158.022352 
L 143.409813 157.967247 
L 143.587461 157.859746 
L 143.697998 157.797682 
L 143.915124 157.686769 
L 144.02566 157.611154 
L 144.246734 157.501664 
L 144.35727 157.429551 
L 144.578343 157.318494 
L 144.68888 157.267108 
L 144.894162 157.157462 
L 145.004699 157.088383 
L 145.162609 156.978962 
L 145.273145 156.91692 
L 145.435002 156.806928 
L 145.545539 156.735283 
L 145.754769 156.627462 
L 145.865306 156.563105 
L 146.031111 156.456689 
L 146.141647 156.396682 
L 146.307452 156.289931 
L 146.417989 156.230647 
L 146.587742 156.120884 
L 146.698278 156.067387 
L 146.883822 155.957737 
L 146.994359 155.890966 
L 147.140425 155.781226 
L 147.250961 155.716175 
L 147.436505 155.606257 
L 147.547042 155.517341 
L 147.728638 155.406626 
L 147.839174 155.354565 
L 148.048404 155.24447 
L 148.158941 155.1683 
L 148.336589 155.057423 
L 148.447126 154.99122 
L 148.628722 154.883446 
L 148.739258 154.801535 
L 148.92875 154.690469 
L 149.039286 154.636352 
L 149.236673 154.531632 
L 149.34721 154.455125 
L 149.493276 154.348417 
L 149.603813 154.256297 
L 149.805147 154.146888 
L 149.915684 154.068176 
L 150.053855 153.957374 
L 150.164391 153.883357 
L 150.318353 153.777517 
L 150.42889 153.707169 
L 150.626277 153.597003 
L 150.736813 153.539498 
L 150.910514 153.430035 
L 151.02105 153.331863 
L 151.214489 153.220987 
L 151.325026 153.172536 
L 151.498727 153.061759 
L 151.609263 152.992672 
L 151.77112 152.89991 
L 151.881657 152.825042 
L 152.039566 152.718386 
L 152.150103 152.631709 
L 152.355385 152.531293 
L 152.465922 152.438236 
L 152.608041 152.335781 
L 152.718577 152.256844 
L 152.92386 152.147009 
L 153.034396 152.065587 
L 153.239679 151.958362 
L 153.350215 151.868348 
L 153.508125 151.757624 
L 153.618661 151.680376 
L 153.819996 151.572564 
L 153.930533 151.49685 
L 154.151606 151.387737 
L 154.262142 151.299277 
L 154.420052 151.188578 
L 154.530589 151.103995 
L 154.700341 150.993493 
L 154.810878 150.935114 
L 154.992474 150.831997 
L 155.10301 150.738783 
L 155.241181 150.631841 
L 155.351718 150.552248 
L 155.545157 150.441191 
L 155.655694 150.363694 
L 155.813603 150.25337 
L 155.92414 150.168638 
L 156.066258 150.060634 
L 156.176795 150.01012 
L 156.374182 149.899083 
L 156.484718 149.828274 
L 156.630785 149.718876 
L 156.741321 149.643922 
L 156.93476 149.538789 
L 157.045297 149.451393 
L 157.187416 149.342648 
L 157.297952 149.270278 
L 157.471653 149.165432 
L 157.582189 149.08696 
L 157.751942 148.978838 
L 157.862479 148.909511 
L 158.01644 148.801469 
L 158.126977 148.71843 
L 158.257252 148.61526 
L 158.367789 148.530891 
L 158.521751 148.425722 
L 158.632287 148.336441 
L 158.80204 148.226316 
L 158.912577 148.149463 
L 159.066538 148.039163 
L 159.177075 147.944603 
L 159.370514 147.834488 
L 159.481051 147.751636 
L 159.603431 147.641377 
L 159.713967 147.574384 
L 159.860034 147.4747 
L 159.97057 147.382319 
L 160.12848 147.271996 
L 160.239016 147.191658 
L 160.404821 147.081584 
L 160.515358 146.981333 
L 160.700902 146.870429 
L 160.811438 146.800339 
L 160.977243 146.691289 
L 161.08778 146.592639 
L 161.241742 146.483654 
L 161.352278 146.389663 
L 161.462815 146.286954 
L 161.573351 146.185831 
L 161.719418 146.074822 
L 161.829954 145.965734 
L 161.976021 145.858513 
L 162.086557 145.799198 
L 162.244467 145.68843 
L 162.355003 145.589341 
L 162.50107 145.486112 
L 162.611606 145.395348 
L 162.745829 145.284317 
L 162.856366 145.201918 
L 162.994537 145.100225 
L 163.105073 145.018942 
L 163.262983 144.911915 
L 163.37352 144.835045 
L 163.535377 144.724188 
L 163.645913 144.642113 
L 163.811718 144.533997 
L 163.922255 144.421473 
L 164.080164 144.31428 
L 164.190701 144.22355 
L 164.324924 144.112618 
L 164.435461 144.03423 
L 164.569684 143.92494 
L 164.680221 143.822201 
L 164.830235 143.712002 
L 164.940771 143.565318 
L 165.08289 143.461468 
L 165.193426 143.363685 
L 165.327649 143.254747 
L 165.438186 143.144847 
L 165.596096 143.035147 
L 165.706632 142.947285 
L 165.856646 142.839864 
L 165.967183 142.761258 
L 166.12904 142.650685 
L 166.239577 142.57411 
L 166.393538 142.464298 
L 166.504075 142.377707 
L 166.638298 142.266671 
L 166.748835 142.177168 
L 166.898849 142.066151 
L 167.009385 141.957127 
L 167.198877 141.846236 
L 167.309413 141.76105 
L 167.423898 141.654978 
L 167.534434 141.551277 
L 167.648919 141.45038 
L 167.759455 141.357982 
L 167.881835 141.249025 
L 167.992372 141.171238 
L 168.106856 141.065248 
L 168.217393 140.979245 
L 168.363459 140.868404 
L 168.473996 140.779082 
L 168.631905 140.668221 
L 168.742442 140.541545 
L 168.904299 140.430925 
L 169.014836 140.332379 
L 169.141163 140.221718 
L 169.2517 140.122027 
L 169.401714 140.013702 
L 169.512251 139.90178 
L 169.61884 139.794438 
L 169.729376 139.707401 
L 169.875442 139.597419 
L 169.985979 139.519291 
L 170.108359 139.417945 
L 170.218896 139.301689 
L 170.313641 139.199419 
L 170.424178 139.101514 
L 170.54261 138.994827 
L 170.653147 138.891181 
L 170.767631 138.781514 
L 170.878168 138.68153 
L 171.032129 138.573413 
L 171.142666 138.460955 
L 171.300576 138.356364 
L 171.411112 138.249511 
L 171.490067 138.157748 
L 171.600604 138.026132 
L 171.722983 137.915552 
L 171.83352 137.772052 
L 171.948004 137.664917 
L 172.058541 137.560132 
L 172.153287 137.450114 
L 172.263823 137.358647 
L 172.358569 137.248745 
L 172.469106 137.163113 
L 172.571747 137.056568 
L 172.682284 136.940758 
L 172.808611 136.836647 
L 172.919148 136.739778 
L 173.049423 136.630235 
L 173.15996 136.480766 
L 173.278392 136.372071 
L 173.388928 136.263296 
L 173.538942 136.152379 
L 173.649479 136.086775 
L 173.791598 135.977604 
L 173.902134 135.900993 
L 174.036357 135.801596 
L 174.146894 135.721469 
L 174.273222 135.611255 
L 174.383758 135.496917 
L 174.486399 135.387176 
L 174.596936 135.286963 
L 174.719316 135.176943 
L 174.829852 135.093972 
L 174.936441 134.985787 
L 175.046978 134.885219 
L 175.185149 134.776643 
L 175.295685 134.646601 
L 175.386483 134.536171 
L 175.49702 134.408643 
L 175.631243 134.300968 
L 175.74178 134.208544 
L 175.852316 134.100912 
L 175.962853 134.00638 
L 176.085233 133.896949 
L 176.195769 133.797881 
L 176.318149 133.688821 
L 176.428686 133.562419 
L 176.539223 133.452936 
L 176.649759 133.349613 
L 176.791878 133.241663 
L 176.902414 133.134346 
L 177.001108 133.032955 
L 177.111644 132.923226 
L 177.261658 132.81704 
L 177.372195 132.702736 
L 177.470889 132.596725 
L 177.581425 132.462776 
L 177.668275 132.353254 
L 177.778812 132.236357 
L 177.909087 132.126353 
L 178.019624 132.018684 
L 178.149899 131.90888 
L 178.260436 131.812652 
L 178.347286 131.714125 
L 178.457823 131.603641 
L 178.572307 131.493963 
L 178.682844 131.371192 
L 178.797328 131.260234 
L 178.907865 131.168977 
L 179.034192 131.058199 
L 179.144729 130.946868 
L 179.275004 130.842053 
L 179.385541 130.718348 
L 179.523712 130.614129 
L 179.634248 130.483656 
L 179.764524 130.372873 
L 179.87506 130.261563 
L 179.989545 130.159336 
L 180.100081 130.016062 
L 180.210618 129.909851 
L 180.321155 129.775786 
L 180.427744 129.665017 
L 180.53828 129.526101 
L 180.629078 129.421859 
L 180.739615 129.308377 
L 180.850151 129.198417 
L 180.960688 129.072787 
L 181.083068 128.962476 
L 181.193605 128.843758 
L 181.312037 128.733418 
L 181.422573 128.594265 
L 181.505476 128.485894 
L 181.616012 128.369752 
L 181.714706 128.260063 
L 181.825243 128.114093 
L 181.912093 128.004613 
L 182.022629 127.940419 
L 182.125271 127.831463 
L 182.235807 127.716433 
L 182.322657 127.61133 
L 182.433194 127.440745 
L 182.516096 127.330402 
L 182.626633 127.234675 
L 182.721379 127.123706 
L 182.831915 126.974347 
L 182.942452 126.877752 
L 183.052989 126.702246 
L 183.139839 126.591625 
L 183.250376 126.481628 
L 183.36486 126.37118 
L 183.475397 126.234422 
L 183.585933 126.133621 
L 183.69647 126.003148 
L 183.807007 125.898001 
L 183.917543 125.771073 
L 184.004393 125.660683 
L 184.11493 125.52736 
L 184.217571 125.422174 
L 184.328108 125.272607 
L 184.418906 125.173927 
L 184.529442 125.006262 
L 184.616293 124.895629 
L 184.726829 124.749366 
L 184.837366 124.642484 
L 184.947903 124.547685 
L 185.050544 124.443121 
L 185.16108 124.256609 
L 185.251878 124.151751 
L 185.362415 123.988195 
L 185.476899 123.878119 
L 185.587436 123.764106 
L 185.670338 123.655264 
L 185.780875 123.53105 
L 185.867725 123.423424 
L 185.978262 123.234075 
L 186.061164 123.126094 
L 186.171701 123.018065 
L 186.258551 122.921888 
L 186.369088 122.759775 
L 186.475677 122.651057 
L 186.586213 122.466764 
L 186.712541 122.357803 
L 186.823078 122.215017 
L 186.929667 122.107706 
L 187.040203 121.950614 
L 187.154688 121.851116 
L 187.265224 121.651356 
L 187.383656 121.540631 
L 187.494193 121.414989 
L 187.561304 121.324779 
L 187.671841 121.076446 
L 187.810012 120.977609 
L 187.920549 120.811471 
L 188.027137 120.702214 
L 188.137674 120.512982 
L 188.23242 120.407425 
L 188.342956 120.275555 
L 188.425859 120.168663 
L 188.536395 120.006771 
L 188.607455 119.899875 
L 188.717991 119.736268 
L 188.812737 119.629746 
L 188.923274 119.493313 
L 188.998281 119.386882 
L 189.108817 119.206825 
L 189.195668 119.09579 
L 189.306204 118.946502 
L 189.397002 118.839163 
L 189.507539 118.696591 
L 189.61018 118.587573 
L 189.720717 118.405001 
L 189.815462 118.294498 
L 189.925999 118.159749 
L 189.99311 118.0508 
L 190.103647 117.90417 
L 190.194445 117.795388 
L 190.304982 117.608092 
L 190.387884 117.5036 
L 190.498421 117.350839 
L 190.577376 117.241571 
L 190.687912 117.125816 
L 190.755024 117.020293 
L 190.86556 116.854081 
L 190.93662 116.744793 
L 191.047156 116.563539 
L 191.130059 116.46304 
L 191.240595 116.327865 
L 191.311655 116.223049 
L 191.422191 116.006931 
L 191.516937 115.897975 
L 191.627474 115.725928 
L 191.698533 115.614953 
L 191.809069 115.393784 
L 191.884077 115.290653 
L 191.994613 115.056527 
L 192.081463 114.951313 
L 192.192 114.750993 
L 192.270955 114.645227 
L 192.381491 114.47277 
L 192.432812 114.372453 
L 192.543349 114.18024 
L 192.649937 114.076277 
L 192.760474 113.940902 
L 192.831533 113.830465 
L 192.94207 113.653253 
L 193.009182 113.548993 
L 193.119718 113.386871 
L 193.206568 113.275832 
L 193.317105 113.140899 
L 193.403955 113.048235 
L 193.514492 112.80635 
L 193.565812 112.705422 
L 193.676349 112.462427 
L 193.763199 112.351867 
L 193.873736 112.14769 
L 193.956638 112.045085 
L 194.067175 111.826968 
L 194.14613 111.72538 
L 194.256666 111.575731 
L 194.35536 111.465817 
L 194.465897 111.270963 
L 194.552747 111.159925 
L 194.663283 111.016149 
L 194.750134 110.906134 
L 194.86067 110.770107 
L 194.963311 110.662645 
L 195.073848 110.476904 
L 195.14096 110.376324 
L 195.251496 110.206327 
L 195.298869 110.09886 
L 195.409406 109.949172 
L 195.472569 109.846924 
L 195.583106 109.682204 
L 195.638374 109.578993 
L 195.748911 109.318268 
L 195.8555 109.21013 
L 195.966037 109.051088 
L 196.068678 108.942034 
L 196.179214 108.738365 
L 196.242378 108.627859 
L 196.352915 108.49643 
L 196.435817 108.38825 
L 196.546354 108.192729 
L 196.60557 108.086357 
L 196.716107 107.855114 
L 196.810852 107.746643 
L 196.921389 107.580574 
L 197.004291 107.472865 
L 197.114828 107.30426 
L 197.205626 107.193994 
L 197.316163 107.015509 
L 197.375379 106.906174 
L 197.485915 106.699193 
L 197.556975 106.597637 
L 197.667511 106.397941 
L 197.746466 106.292228 
L 197.857003 106.075692 
L 197.912271 105.975022 
L 198.022808 105.776 
L 198.10571 105.667609 
L 198.216247 105.519405 
L 198.26362 105.419365 
L 198.374156 105.223255 
L 198.457059 105.131614 
L 198.567595 104.930659 
L 198.622864 104.830489 
L 198.7334 104.687543 
L 198.816303 104.582323 
L 198.926839 104.305008 
L 198.974212 104.196964 
L 199.084749 104.002011 
L 199.143965 103.919025 
L 199.254502 103.692714 
L 199.353195 103.581881 
L 199.463732 103.430004 
L 199.562425 103.324167 
L 199.672962 103.148506 
L 199.755864 103.04008 
L 199.866401 102.856996 
L 199.921669 102.75728 
L 200.032206 102.597398 
L 200.091422 102.489504 
L 200.201958 102.284713 
L 200.241436 102.175644 
L 200.351972 101.977405 
L 200.419084 101.869214 
L 200.529621 101.664896 
L 200.612523 101.5556 
L 200.72306 101.339104 
L 200.778328 101.244347 
L 200.888865 101.070123 
L 200.944133 100.959067 
L 201.05467 100.757619 
L 201.10599 100.655004 
L 201.216527 100.445421 
L 201.279691 100.340158 
L 201.390227 100.179457 
L 201.47313 100.070058 
L 201.583666 99.878587 
L 201.674464 99.773282 
L 201.785001 99.530429 
L 201.85606 99.419583 
L 201.966597 99.209347 
L 202.01397 99.101761 
L 202.124506 98.921265 
L 202.18767 98.814506 
L 202.298207 98.627683 
L 202.361371 98.519667 
L 202.471907 98.31706 
L 202.55481 98.211992 
L 202.665346 97.995026 
L 202.720615 97.894085 
L 202.831151 97.643464 
L 202.898263 97.533632 
L 203.008799 97.349094 
L 203.056172 97.243189 
L 203.166709 97.037618 
L 203.229873 96.937629 
L 203.340409 96.721895 
L 203.399625 96.64067 
L 203.510162 96.345498 
L 203.569378 96.240428 
L 203.679915 96.072037 
L 203.750974 95.965926 
L 203.861511 95.73886 
L 203.912831 95.628005 
L 204.023368 95.417708 
L 204.074689 95.309088 
L 204.185225 95.113743 
L 204.256284 95.005755 
L 204.366821 94.788465 
L 204.402351 94.698953 
L 204.512887 94.461448 
L 204.556312 94.35084 
L 204.666849 94.125318 
L 204.71817 94.0413 
L 204.828706 93.819812 
L 204.876079 93.710134 
L 204.986616 93.507095 
L 205.037936 93.409447 
L 205.148473 93.12932 
L 205.184003 93.019255 
L 205.294539 92.689237 
L 205.34586 92.584065 
L 205.456396 92.337571 
L 205.503769 92.228196 
L 205.614306 91.966974 
L 205.657731 91.859802 
L 205.768268 91.492063 
L 205.831431 91.406838 
L 205.941968 91.218608 
L 206.005132 91.108278 
L 206.115669 90.892597 
L 206.186728 90.795989 
L 206.297264 90.625741 
L 206.348585 90.5206 
L 206.459122 90.260041 
L 206.510442 90.152957 
L 206.620979 89.88327 
L 206.695986 89.780085 
L 206.806523 89.551613 
L 206.861791 89.449487 
L 206.972327 89.084816 
L 207.023648 88.990228 
L 207.134185 88.825054 
L 207.181558 88.727216 
L 207.292094 88.415344 
L 207.343415 88.308518 
L 207.453951 88.028101 
L 207.532906 87.921473 
L 207.643443 87.713812 
L 207.706607 87.616838 
L 207.817143 87.331204 
L 207.868464 87.232242 
L 207.979 87.041901 
L 208.065851 86.932512 
L 208.176387 86.77028 
L 208.231656 86.668751 
L 208.342192 86.385704 
L 208.393513 86.279705 
L 208.504049 86.089686 
L 208.559318 85.979619 
L 208.669854 85.779712 
L 208.717227 85.670575 
L 208.827764 85.511928 
L 208.894875 85.40462 
L 209.005412 85.22821 
L 209.088315 85.120578 
L 209.198851 84.804532 
L 209.26991 84.701473 
L 209.380447 84.478894 
L 209.447559 84.389709 
L 209.558095 84.120273 
L 209.60152 84.015276 
L 209.712057 83.78288 
L 209.767325 83.672419 
L 209.877862 83.467772 
L 209.941026 83.357413 
L 210.051562 83.116446 
L 210.087092 83.026271 
L 210.197629 82.705441 
L 210.233158 82.59503 
L 210.343695 82.286115 
L 210.391068 82.209029 
L 210.501604 81.978167 
L 210.537134 81.874537 
L 210.647671 81.569986 
L 210.722678 81.459302 
L 210.833214 81.110545 
L 210.876639 81.010942 
L 210.987176 80.771829 
L 211.042444 80.662227 
L 211.152981 80.374664 
L 211.243779 80.264436 
L 211.354316 79.961743 
L 211.413532 79.857525 
L 211.524068 79.655035 
L 211.563546 79.548011 
L 211.674082 79.22339 
L 211.71356 79.115222 
L 211.824096 78.86874 
L 211.883312 78.772402 
L 211.993849 78.506178 
L 212.053065 78.407453 
L 212.163602 78.151397 
L 212.203079 78.048441 
L 212.313616 77.739352 
L 212.360989 77.645251 
L 212.471525 77.319849 
L 212.499159 77.230676 
L 212.609696 76.909394 
L 212.676808 76.800197 
L 212.787344 76.490697 
L 212.850508 76.390613 
L 212.961045 76.100688 
L 213.00447 76.003716 
L 213.115006 75.702715 
L 213.17817 75.59576 
L 213.288707 75.325206 
L 213.375557 75.216693 
L 213.486094 74.854302 
L 213.549257 74.751078 
L 213.659794 74.415581 
L 213.707167 74.307023 
L 213.817704 74.053176 
L 213.87692 73.943386 
L 213.987456 73.773156 
L 214.054568 73.666682 
L 214.165104 73.391696 
L 214.236164 73.289022 
L 214.3467 72.97493 
L 214.401969 72.869519 
L 214.512505 72.512622 
L 214.563826 72.433299 
L 214.674362 72.119914 
L 214.71384 72.012948 
L 214.824376 71.635041 
L 214.871749 71.551064 
L 214.982286 71.239102 
L 215.041502 71.128 
L 215.152039 70.895131 
L 215.211255 70.787883 
L 215.321791 70.517869 
L 215.353373 70.409999 
L 215.46391 69.915179 
L 215.531021 69.816794 
L 215.641558 69.506337 
L 215.704722 69.397982 
L 215.815258 69.057059 
L 215.866579 68.946765 
L 215.977116 68.547694 
L 215.996854 68.438742 
L 216.107391 68.120387 
L 216.154764 68.017245 
L 216.2653 67.667994 
L 216.308726 67.563605 
L 216.419262 67.228199 
L 216.470583 67.125707 
L 216.581119 66.813256 
L 216.640336 66.70788 
L 216.750872 66.423296 
L 216.794297 66.327989 
L 216.904834 65.894342 
L 216.960102 65.792624 
L 217.070639 65.517829 
L 217.106168 65.414142 
L 217.216705 65.061799 
L 217.248287 64.951573 
L 217.358824 64.614815 
L 217.398301 64.536073 
L 217.508838 64.244554 
L 217.528576 64.185125 
L 217.639113 63.779211 
L 217.666747 63.671354 
L 217.777284 63.248334 
L 217.820709 63.146629 
L 217.931246 62.890065 
L 217.95888 62.832949 
L 218.069416 62.456173 
L 218.120737 62.345818 
L 218.231274 62.17675 
L 218.294437 62.067356 
L 218.404974 61.754759 
L 218.440504 61.646825 
L 218.55104 61.404924 
L 218.598413 61.293914 
L 218.70895 61.032553 
L 218.76027 60.927068 
L 218.870807 60.569293 
L 218.922128 60.464927 
L 219.032664 60.154922 
L 219.103723 60.068073 
L 219.21426 59.773933 
L 219.253737 59.66421 
L 219.364274 59.201657 
L 219.391908 59.097657 
L 219.502445 58.793323 
L 219.557713 58.695276 
L 219.66825 58.249826 
L 219.695884 58.157086 
L 219.806421 57.733945 
L 219.853793 57.639445 
L 219.96433 57.295217 
L 220.007755 57.193252 
L 220.118292 56.817521 
L 220.161717 56.714522 
L 220.272254 56.349064 
L 220.307783 56.238484 
L 220.41832 55.828736 
L 220.485431 55.719403 
L 220.595968 55.389098 
L 220.62755 55.296846 
L 220.738087 54.943534 
L 220.773616 54.845197 
L 220.884153 54.421095 
L 220.92363 54.32081 
L 221.034167 53.821787 
L 221.077592 53.734035 
L 221.160494 53.38504 
L 221.251292 53.27504 
L 221.361829 52.990783 
L 221.41315 52.904868 
L 221.523686 52.560786 
L 221.543425 52.485603 
L 221.653962 52.067329 
L 221.689491 51.960881 
L 221.800028 51.593212 
L 221.827662 51.484518 
L 221.938199 51.08894 
L 221.981624 50.987826 
L 222.09216 50.483848 
L 222.123742 50.417264 
L 222.234279 50.146865 
L 222.269809 50.039799 
L 222.380345 49.605424 
L 222.388241 49.536719 
L 222.498777 49.128849 
L 222.526411 49.055063 
L 222.636948 48.669109 
L 222.672478 48.572831 
L 222.783014 48.225973 
L 222.810649 48.134701 
L 222.921185 47.762036 
L 222.968558 47.658257 
L 223.079095 47.274162 
L 223.126467 47.170187 
L 223.237004 46.892277 
L 223.256743 46.791207 
L 223.367279 46.37146 
L 223.410705 46.265058 
L 223.521241 45.892185 
L 223.5923 45.78423 
L 223.702837 45.252304 
L 223.746262 45.145331 
L 223.856799 44.678559 
L 223.888381 44.568299 
L 223.998917 44.25609 
L 224.030499 44.151734 
L 224.141036 43.773425 
L 224.188409 43.679842 
L 224.298945 43.121354 
L 224.318684 43.028086 
L 224.429221 42.664798 
L 224.468698 42.561596 
L 224.579235 41.991216 
L 224.626608 41.909093 
L 224.737144 41.262877 
L 224.760831 41.173083 
L 224.871367 40.576339 
L 224.887158 40.487749 
L 224.989799 40.201038 
L 225.072702 40.097428 
L 225.183238 39.551968 
L 225.202977 39.445776 
L 225.313514 38.950621 
L 225.384573 38.8443 
L 225.49511 38.274735 
L 225.530639 38.165021 
L 225.641176 37.589156 
L 225.649071 37.51127 
L 225.759608 36.790111 
L 225.787242 36.693232 
L 225.897779 36.205995 
L 225.937256 36.097389 
L 226.047793 35.596978 
L 226.067532 35.488156 
L 226.178068 35.058821 
L 226.241232 34.960611 
L 226.351769 34.435121 
L 226.379403 34.327257 
L 226.489939 33.598515 
L 226.509678 33.492049 
L 226.620215 32.993315 
L 226.647849 32.921321 
L 226.758386 32.227965 
L 226.778124 32.167902 
L 226.888661 31.48256 
L 226.924191 31.415503 
L 227.034727 30.942075 
L 227.070257 30.839984 
L 227.180793 30.355103 
L 227.20448 30.280625 
L 227.315016 29.653098 
L 227.338703 29.546359 
L 227.44924 28.894877 
L 227.472926 28.788746 
L 227.583463 28.193397 
L 227.603201 28.098222 
L 227.713738 27.481752 
L 227.741372 27.408274 
L 227.851909 26.678486 
L 227.875595 26.581915 
L 227.986132 26.119908 
L 228.013766 26.026842 
L 228.124303 25.424773 
L 228.151937 25.325137 
L 228.262473 24.91903 
L 228.28616 24.810169 
L 228.396696 24.287302 
L 228.428278 24.182114 
L 228.538815 23.546511 
L 228.566449 23.460717 
L 228.676986 22.844668 
L 228.700672 22.747656 
L 228.811209 22.384866 
L 228.823052 22.279781 
L 228.933589 21.498459 
L 228.953327 21.396945 
L 229.063864 20.815383 
L 229.107289 20.712974 
L 229.217826 20.319655 
L 229.269146 20.209911 
L 229.379683 19.833842 
L 229.403369 19.732952 
L 229.513906 19.184991 
L 229.545488 19.091119 
L 229.656025 18.581118 
L 229.679711 18.471253 
L 229.790248 17.832266 
L 229.813934 17.728417 
L 229.924471 17.105442 
L 229.956053 17.008487 
L 230.066589 16.564915 
L 230.086328 16.487611 
L 230.196865 16.098335 
L 230.228446 16.027426 
L 230.338983 15.405081 
L 230.386356 15.296347 
L 230.496893 14.75696 
L 230.544265 14.646099 
L 230.654802 14.075857 
L 230.678488 14.000938 
L 230.777182 13.545394 
L 230.808764 13.444775 
L 230.9193 12.740432 
L 230.927196 12.655759 
L 231.037733 12.327468 
L 231.065367 12.223954 
L 231.175903 11.451007 
L 231.203537 11.345513 
L 231.314074 10.668118 
L 231.333813 10.571691 
L 231.444349 10.034395 
L 231.471984 9.968764 
L 231.578573 9.44526 
L 231.614102 9.356597 
L 231.724639 8.727786 
L 231.736482 8.70951 
L 231.847019 7.641105 
L 231.878601 7.585016 
L 231.922026 -1 
L 231.922026 -1 
" clip-path="url(#p857499ae8f)" style="fill: none; stroke: #67c7d5; stroke-width: 1.5; stroke-linecap: square"/>
   </g>
   <g id="line2d_14">
    <path d="M 56.077974 191.434636 
L 56.081922 191.434636 
L 56.192459 182.625258 
L 56.80041 182.51461 
L 56.910947 182.496606 
L 57.814979 182.385734 
L 57.925515 182.367197 
L 58.904554 182.256666 
L 59.015091 182.236464 
L 59.832272 182.127633 
L 59.942809 182.092083 
L 60.546813 181.982578 
L 60.657349 181.952654 
L 61.273196 181.841815 
L 61.360047 181.824361 
L 62.031162 181.713709 
L 62.141698 181.683 
L 62.682538 181.571983 
L 62.793075 181.546249 
L 63.416818 181.435493 
L 63.527354 181.413674 
L 63.993187 181.303062 
L 64.103724 181.270872 
L 64.644564 181.160087 
L 64.7551 181.128104 
L 65.059076 181.020958 
L 65.149874 181.001503 
L 65.592021 180.890567 
L 65.702557 180.866474 
L 66.121017 180.756408 
L 66.231554 180.718191 
L 66.65791 180.607523 
L 66.768446 180.584446 
L 67.179011 180.477734 
L 67.273757 180.447026 
L 67.672478 180.336193 
L 67.783015 180.307081 
L 68.154102 180.197967 
L 68.264639 180.166833 
L 68.671256 180.057568 
L 68.781792 180.025019 
L 69.172618 179.915259 
L 69.283155 179.88663 
L 69.57134 179.777218 
L 69.681876 179.733439 
L 70.159552 179.62248 
L 70.270089 179.585031 
L 70.605647 179.475149 
L 70.716183 179.444957 
L 71.174121 179.335256 
L 71.284657 179.3057 
L 71.647849 179.197049 
L 71.758386 179.147654 
L 72.022884 179.042263 
L 72.133421 178.993799 
L 72.559777 178.883504 
L 72.666365 178.835864 
L 72.966393 178.728361 
L 73.07693 178.684884 
L 73.404592 178.575139 
L 73.515129 178.514038 
L 73.803314 178.404645 
L 73.91385 178.36657 
L 74.217826 178.256947 
L 74.328363 178.224111 
L 74.569175 178.11357 
L 74.679711 178.065214 
L 74.94421 177.954335 
L 75.054746 177.909247 
L 75.342931 177.798489 
L 75.453468 177.757221 
L 75.702175 177.648264 
L 75.812712 177.589113 
L 76.108792 177.481749 
L 76.219329 177.413171 
L 76.456193 177.302975 
L 76.56673 177.262267 
L 76.918078 177.154559 
L 77.028615 177.09394 
L 77.3168 176.983118 
L 77.427336 176.9444 
L 77.69973 176.83401 
L 77.810267 176.783608 
L 78.110295 176.678948 
L 78.220831 176.627197 
L 78.489278 176.516374 
L 78.599814 176.459948 
L 78.836678 176.349361 
L 78.947215 176.292961 
L 79.191975 176.183322 
L 79.302511 176.124629 
L 79.547271 176.018628 
L 79.657808 175.951994 
L 79.886777 175.842077 
L 79.997313 175.793815 
L 80.222334 175.683016 
L 80.332871 175.617663 
L 80.593421 175.509182 
L 80.703958 175.453453 
L 80.921084 175.344673 
L 81.03162 175.304048 
L 81.27638 175.195864 
L 81.386917 175.128272 
L 81.592199 175.017966 
L 81.682997 174.957161 
L 81.951443 174.85075 
L 82.06198 174.795494 
L 82.318583 174.685169 
L 82.429119 174.614758 
L 82.673879 174.503969 
L 82.784415 174.438666 
L 83.009437 174.329249 
L 83.119973 174.260929 
L 83.31736 174.149995 
L 83.427897 174.095535 
L 83.692395 173.987797 
L 83.802932 173.925959 
L 84.020057 173.817895 
L 84.130594 173.762693 
L 84.308242 173.655856 
L 84.418779 173.586114 
L 84.675382 173.475307 
L 84.785918 173.410109 
L 84.963566 173.299603 
L 85.074103 173.233259 
L 85.310967 173.122922 
L 85.421504 173.039974 
L 85.634682 172.929745 
L 85.745218 172.871315 
L 86.025508 172.760702 
L 86.136044 172.687505 
L 86.325536 172.579048 
L 86.436072 172.496976 
L 86.64925 172.38594 
L 86.759787 172.290488 
L 86.937435 172.181451 
L 87.047972 172.123996 
L 87.229567 172.017894 
L 87.340104 171.964407 
L 87.529595 171.854862 
L 87.640132 171.79147 
L 87.845414 171.684907 
L 87.955951 171.620982 
L 88.192815 171.510887 
L 88.303352 171.461016 
L 88.484948 171.350658 
L 88.595484 171.250375 
L 88.804714 171.139267 
L 88.915251 171.085658 
L 89.085004 170.97474 
L 89.191593 170.933458 
L 89.35345 170.823598 
L 89.463987 170.762444 
L 89.68506 170.651797 
L 89.795596 170.599352 
L 90.024565 170.488757 
L 90.135102 170.414397 
L 90.340384 170.304597 
L 90.450921 170.239512 
L 90.683837 170.132236 
L 90.794374 170.074066 
L 90.983865 169.965998 
L 91.094402 169.90014 
L 91.295737 169.790801 
L 91.406273 169.72792 
L 91.595765 169.617979 
L 91.706301 169.557427 
L 91.923427 169.446979 
L 92.033963 169.384102 
L 92.191873 169.27327 
L 92.30241 169.186057 
L 92.480058 169.078397 
L 92.590594 169.018192 
L 92.760347 168.908304 
L 92.870884 168.828682 
L 93.064323 168.719282 
L 93.174859 168.63376 
L 93.384089 168.524213 
L 93.494626 168.428497 
L 93.632797 168.324862 
L 93.743334 168.263739 
L 93.897295 168.152753 
L 94.007832 168.069738 
L 94.205219 167.959724 
L 94.315755 167.888105 
L 94.465769 167.77765 
L 94.576306 167.700214 
L 94.769745 167.592266 
L 94.880282 167.516324 
L 95.042139 167.406157 
L 95.152676 167.312238 
L 95.318481 167.208466 
L 95.429017 167.118681 
L 95.614561 167.008641 
L 95.725098 166.904604 
L 95.886955 166.794287 
L 95.997491 166.726627 
L 96.127767 166.616822 
L 96.238303 166.569835 
L 96.423847 166.460198 
L 96.534384 166.391986 
L 96.743614 166.281288 
L 96.85415 166.240664 
L 97.019955 166.135825 
L 97.130492 166.036016 
L 97.292349 165.925233 
L 97.402886 165.849415 
L 97.612116 165.73934 
L 97.722652 165.65925 
L 97.904248 165.55002 
L 98.014785 165.458019 
L 98.168747 165.347059 
L 98.279283 165.264621 
L 98.460879 165.158866 
L 98.567468 165.066023 
L 98.768803 164.955645 
L 98.879339 164.869691 
L 99.045144 164.759864 
L 99.155681 164.668736 
L 99.337277 164.557941 
L 99.447814 164.448251 
L 99.637305 164.337692 
L 99.747842 164.276762 
L 99.92549 164.173121 
L 100.036026 164.108797 
L 100.22157 164.001113 
L 100.332107 163.918778 
L 100.537389 163.809978 
L 100.647926 163.718209 
L 100.793992 163.620064 
L 100.904529 163.520055 
L 101.054543 163.411422 
L 101.165079 163.329391 
L 101.354571 163.218947 
L 101.465107 163.139966 
L 101.59933 163.029696 
L 101.709867 162.94773 
L 101.863829 162.838886 
L 101.974365 162.759109 
L 102.167804 162.649828 
L 102.278341 162.582132 
L 102.503362 162.474481 
L 102.613899 162.398737 
L 102.728383 162.288828 
L 102.83892 162.217694 
L 103.000777 162.116525 
L 103.111314 162.040599 
L 103.241589 161.930407 
L 103.352126 161.8347 
L 103.482401 161.742277 
L 103.592937 161.664367 
L 103.770586 161.553658 
L 103.881122 161.471845 
L 104.039032 161.366059 
L 104.149568 161.261637 
L 104.319321 161.151459 
L 104.429858 161.045363 
L 104.611454 160.936728 
L 104.72199 160.859645 
L 104.832527 160.751863 
L 104.943064 160.672366 
L 105.116764 160.565842 
L 105.227301 160.4802 
L 105.416792 160.369999 
L 105.527329 160.301299 
L 105.701029 160.192486 
L 105.811566 160.085514 
L 105.957632 159.984639 
L 106.068169 159.887181 
L 106.22213 159.779716 
L 106.332667 159.689466 
L 106.490576 159.57966 
L 106.601113 159.486022 
L 106.774814 159.381956 
L 106.88535 159.304246 
L 107.074842 159.19762 
L 107.185378 159.106296 
L 107.363026 159.000294 
L 107.473563 158.863078 
L 107.603838 158.757017 
L 107.714375 158.669638 
L 107.888075 158.565263 
L 107.978873 158.467627 
L 108.156521 158.361054 
L 108.267058 158.266731 
L 108.424968 158.161253 
L 108.535504 158.088226 
L 108.697361 157.978664 
L 108.807898 157.855101 
L 108.934226 157.74425 
L 109.044762 157.680429 
L 109.17109 157.570025 
L 109.281627 157.460524 
L 109.423745 157.351878 
L 109.534282 157.232406 
L 109.71193 157.125034 
L 109.822467 157.049714 
L 110.00801 156.940346 
L 110.118547 156.859439 
L 110.260665 156.75258 
L 110.371202 156.648513 
L 110.49753 156.540521 
L 110.608066 156.437698 
L 110.742289 156.329115 
L 110.852826 156.236972 
L 110.983101 156.128879 
L 111.093638 156.022674 
L 111.263391 155.912808 
L 111.373927 155.825841 
L 111.531837 155.7192 
L 111.642373 155.622972 
L 111.78844 155.51506 
L 111.898976 155.447973 
L 112.04899 155.341852 
L 112.159527 155.238641 
L 112.325332 155.129943 
L 112.435868 155.049307 
L 112.534562 154.941468 
L 112.645099 154.849961 
L 112.814851 154.739685 
L 112.925388 154.678353 
L 113.091193 154.572092 
L 113.201729 154.480759 
L 113.363587 154.369889 
L 113.474123 154.294262 
L 113.616242 154.186313 
L 113.726778 154.084713 
L 113.884688 153.976072 
L 113.995225 153.834655 
L 114.113657 153.737815 
L 114.224193 153.646434 
L 114.358416 153.539761 
L 114.468953 153.424752 
L 114.57949 153.317116 
L 114.690026 153.214576 
L 114.804511 153.116863 
L 114.915047 153.006872 
L 115.057166 152.898073 
L 115.167702 152.779817 
L 115.321664 152.674216 
L 115.432201 152.606091 
L 115.53879 152.502637 
L 115.649326 152.437892 
L 115.775654 152.335541 
L 115.886191 152.220174 
L 116.091473 152.115029 
L 116.20201 152.014349 
L 116.320442 151.906015 
L 116.430978 151.813084 
L 116.640208 151.704638 
L 116.750745 151.625879 
L 116.904707 151.515211 
L 117.015243 151.39612 
L 117.196839 151.285461 
L 117.307376 151.204798 
L 117.425808 151.093763 
L 117.536345 150.991581 
L 117.674516 150.881409 
L 117.785052 150.786273 
L 117.883746 150.687074 
L 117.994282 150.565147 
L 118.124558 150.454081 
L 118.235094 150.390288 
L 118.345631 150.283039 
L 118.456167 150.167807 
L 118.546965 150.057378 
L 118.657502 149.96297 
L 118.771986 149.858282 
L 118.882523 149.749553 
L 119.036485 149.651449 
L 119.147021 149.552288 
L 119.316774 149.443255 
L 119.427311 149.336504 
L 119.545743 149.228055 
L 119.65628 149.12372 
L 119.806294 149.013064 
L 119.91683 148.907813 
L 120.051053 148.806244 
L 120.16159 148.685875 
L 120.280022 148.575654 
L 120.390559 148.490674 
L 120.485304 148.381174 
L 120.595841 148.306736 
L 120.749803 148.204783 
L 120.860339 148.114724 
L 120.990615 148.005108 
L 121.101151 147.888558 
L 121.24327 147.77918 
L 121.353806 147.705123 
L 121.531455 147.600681 
L 121.641991 147.503799 
L 121.756476 147.40211 
L 121.867012 147.269007 
L 121.99334 147.161272 
L 122.103876 147.018909 
L 122.261786 146.912377 
L 122.372323 146.828878 
L 122.486807 146.719201 
L 122.597344 146.63269 
L 122.763149 146.523887 
L 122.873685 146.420953 
L 123.035542 146.311081 
L 123.146079 146.217314 
L 123.307936 146.108234 
L 123.418473 146.032066 
L 123.5448 145.921399 
L 123.655337 145.809941 
L 123.848776 145.702386 
L 123.959313 145.618618 
L 124.077745 145.520877 
L 124.188282 145.418969 
L 124.306714 145.311843 
L 124.41725 145.224605 
L 124.567264 145.11597 
L 124.677801 144.989961 
L 124.827815 144.885711 
L 124.938352 144.803287 
L 125.064679 144.694754 
L 125.175216 144.597288 
L 125.301543 144.486714 
L 125.41208 144.395409 
L 125.518669 144.288476 
L 125.629206 144.180007 
L 125.771324 144.071857 
L 125.881861 143.969904 
L 126.008188 143.860149 
L 126.118725 143.755845 
L 126.252948 143.645517 
L 126.363485 143.545208 
L 126.497708 143.438285 
L 126.608244 143.329808 
L 126.695095 143.221662 
L 126.805631 143.14122 
L 126.951698 143.032461 
L 127.062234 142.948331 
L 127.19251 142.84005 
L 127.303046 142.76119 
L 127.425426 142.650141 
L 127.535963 142.536101 
L 127.682029 142.425833 
L 127.792566 142.320128 
L 127.914945 142.20973 
L 128.025482 142.11065 
L 128.136019 142.000858 
L 128.246555 141.91557 
L 128.364987 141.811454 
L 128.475524 141.723539 
L 128.597904 141.613231 
L 128.708441 141.46806 
L 128.850559 141.360346 
L 128.961096 141.24689 
L 129.079528 141.139945 
L 129.190064 141.020455 
L 129.32034 140.910778 
L 129.430876 140.81741 
L 129.561152 140.710419 
L 129.671688 140.623212 
L 129.798016 140.514206 
L 129.908553 140.429202 
L 130.050671 140.318916 
L 130.161208 140.216814 
L 130.327013 140.110873 
L 130.437549 139.998886 
L 130.57572 139.888679 
L 130.686257 139.767857 
L 130.788898 139.659409 
L 130.899435 139.562205 
L 131.017867 139.453591 
L 131.128403 139.310023 
L 131.242888 139.206078 
L 131.353424 139.048926 
L 131.4837 138.93821 
L 131.594236 138.817971 
L 131.728459 138.707779 
L 131.838996 138.595574 
L 131.95348 138.497978 
L 132.064017 138.340799 
L 132.174554 138.232378 
L 132.28509 138.095926 
L 132.419313 137.985177 
L 132.52985 137.890396 
L 132.668021 137.781041 
L 132.778557 137.672365 
L 132.869355 137.574693 
L 132.979892 137.452441 
L 133.098324 137.347999 
L 133.208861 137.228018 
L 133.323345 137.117737 
L 133.433882 137.027062 
L 133.544418 136.91629 
L 133.654955 136.810055 
L 133.781283 136.708963 
L 133.891819 136.592368 
L 134.033938 136.484447 
L 134.144474 136.401981 
L 134.258959 136.29356 
L 134.369495 136.18111 
L 134.48398 136.07409 
L 134.594516 135.974348 
L 134.681367 135.865589 
L 134.791903 135.751763 
L 134.898492 135.642352 
L 135.009029 135.538442 
L 135.143252 135.429215 
L 135.253789 135.372375 
L 135.376168 135.265774 
L 135.486705 135.139048 
L 135.56566 135.036693 
L 135.676196 134.882371 
L 135.82621 134.771954 
L 135.936747 134.68908 
L 136.059127 134.578786 
L 136.169664 134.479044 
L 136.295991 134.372748 
L 136.406528 134.274773 
L 136.505221 134.167546 
L 136.615758 134.046627 
L 136.738138 133.935635 
L 136.848674 133.814511 
L 136.955263 133.7037 
L 137.0658 133.596866 
L 137.219762 133.486583 
L 137.330298 133.394459 
L 137.456626 133.291745 
L 137.567162 133.184086 
L 137.689542 133.078913 
L 137.800079 132.988614 
L 137.930354 132.879477 
L 138.040891 132.81101 
L 138.167219 132.701407 
L 138.277755 132.585594 
L 138.352762 132.4787 
L 138.463299 132.366915 
L 138.546201 132.25893 
L 138.656738 132.124807 
L 138.767275 132.019091 
L 138.877811 131.904829 
L 139.008087 131.794275 
L 139.118623 131.691321 
L 139.221264 131.582388 
L 139.331801 131.438857 
L 139.466024 131.332462 
L 139.576561 131.238467 
L 139.651568 131.131133 
L 139.762104 131.052534 
L 139.868693 130.949899 
L 139.97923 130.828674 
L 140.10161 130.718763 
L 140.212146 130.620791 
L 140.322683 130.513089 
L 140.43322 130.420683 
L 140.527965 130.310723 
L 140.638502 130.184998 
L 140.78062 130.079449 
L 140.891157 129.959682 
L 141.009589 129.854573 
L 141.120126 129.733267 
L 141.238558 129.624737 
L 141.349095 129.530672 
L 141.487265 129.430591 
L 141.597802 129.304148 
L 141.6886 129.199212 
L 141.799137 129.098376 
L 141.93336 128.988241 
L 142.043896 128.899834 
L 142.158381 128.790825 
L 142.268917 128.667206 
L 142.395245 128.561417 
L 142.505782 128.424928 
L 142.643952 128.315983 
L 142.754489 128.211428 
L 142.85713 128.102595 
L 142.967667 127.962644 
L 143.090047 127.860144 
L 143.200583 127.729753 
L 143.326911 127.619884 
L 143.437447 127.506264 
L 143.595357 127.398958 
L 143.705894 127.267542 
L 143.796692 127.160633 
L 143.907228 126.996658 
L 144.001974 126.90032 
L 144.112511 126.773602 
L 144.230943 126.666625 
L 144.341479 126.54269 
L 144.463859 126.434442 
L 144.574396 126.332488 
L 144.684932 126.23862 
L 144.795469 126.080343 
L 144.89811 125.978268 
L 145.008647 125.853679 
L 145.10734 125.74821 
L 145.217877 125.633021 
L 145.320518 125.526053 
L 145.431055 125.430852 
L 145.506062 125.322578 
L 145.616598 125.20112 
L 145.746874 125.094986 
L 145.85741 124.992841 
L 145.963999 124.882595 
L 146.074536 124.756802 
L 146.181125 124.661363 
L 146.291661 124.559128 
L 146.429832 124.449066 
L 146.540369 124.322651 
L 146.631167 124.215093 
L 146.741703 124.1166 
L 146.848292 124.008323 
L 146.958829 123.911286 
L 147.06147 123.803384 
L 147.168059 123.687012 
L 147.235171 123.582325 
L 147.345707 123.444372 
L 147.475982 123.339291 
L 147.586519 123.223126 
L 147.681265 123.112826 
L 147.791801 123.028772 
L 147.886547 122.929375 
L 147.997084 122.769205 
L 148.095777 122.661845 
L 148.206314 122.556542 
L 148.297112 122.453073 
L 148.407648 122.321679 
L 148.514237 122.213535 
L 148.624774 122.139412 
L 148.71952 122.028325 
L 148.830056 121.865739 
L 148.944541 121.761764 
L 149.055077 121.629161 
L 149.173509 121.519203 
L 149.284046 121.374804 
L 149.382739 121.264338 
L 149.493276 121.120655 
L 149.584074 121.009993 
L 149.694611 120.889842 
L 149.828834 120.779946 
L 149.93937 120.671294 
L 150.030168 120.561894 
L 150.140705 120.423651 
L 150.247294 120.321641 
L 150.357831 120.19889 
L 150.440733 120.089363 
L 150.55127 119.931901 
L 150.63812 119.825901 
L 150.748656 119.702431 
L 150.863141 119.596594 
L 150.973677 119.366472 
L 151.100005 119.25591 
L 151.210542 119.12836 
L 151.332922 119.017976 
L 151.443458 118.900013 
L 151.565838 118.794495 
L 151.676375 118.643357 
L 151.794807 118.5337 
L 151.905343 118.310647 
L 152.031671 118.200876 
L 152.142208 118.071056 
L 152.244849 117.965223 
L 152.355385 117.821897 
L 152.454079 117.71135 
L 152.564616 117.538509 
L 152.683048 117.430561 
L 152.793584 117.307297 
L 152.88833 117.196206 
L 152.998867 117.084569 
L 153.129142 116.975795 
L 153.239679 116.861719 
L 153.334424 116.75142 
L 153.444961 116.601741 
L 153.55155 116.493118 
L 153.662086 116.386881 
L 153.741041 116.27656 
L 153.851578 116.144676 
L 153.946323 116.035153 
L 154.05686 115.880925 
L 154.155554 115.776891 
L 154.26609 115.622639 
L 154.345045 115.514388 
L 154.455582 115.39964 
L 154.550327 115.288845 
L 154.660864 115.126544 
L 154.767453 115.023801 
L 154.877989 114.911583 
L 154.972735 114.807962 
L 155.083272 114.682226 
L 155.178017 114.571321 
L 155.288554 114.463643 
L 155.399091 114.358888 
L 155.509627 114.243292 
L 155.608321 114.137598 
L 155.718857 114.017596 
L 155.825446 113.909771 
L 155.935983 113.771257 
L 156.007042 113.661787 
L 156.117579 113.549244 
L 156.204429 113.440106 
L 156.314966 113.323992 
L 156.441293 113.218621 
L 156.55183 113.036391 
L 156.662367 112.925716 
L 156.772903 112.794345 
L 156.863701 112.684354 
L 156.974238 112.543143 
L 157.068983 112.451744 
L 157.17952 112.285763 
L 157.297952 112.182359 
L 157.408489 112.055134 
L 157.487444 111.946117 
L 157.59798 111.837762 
L 157.704569 111.732235 
L 157.815106 111.627509 
L 157.913799 111.52043 
L 158.024336 111.390132 
L 158.091447 111.29124 
L 158.201984 111.15312 
L 158.288834 111.04868 
L 158.399371 110.922465 
L 158.513855 110.817454 
L 158.624392 110.69552 
L 158.67966 110.585372 
L 158.786249 110.48141 
L 158.873099 110.372412 
L 158.983636 110.285448 
L 159.086277 110.178221 
L 159.196814 110.033747 
L 159.346828 109.923196 
L 159.457364 109.823737 
L 159.563953 109.720212 
L 159.67449 109.590644 
L 159.769236 109.485721 
L 159.879772 109.36774 
L 159.982413 109.266197 
L 160.09295 109.116099 
L 160.203487 109.006099 
L 160.314023 108.875894 
L 160.420612 108.765176 
L 160.531149 108.665008 
L 160.610104 108.557748 
L 160.72064 108.409581 
L 160.811438 108.299657 
L 160.921975 108.16055 
L 160.969348 108.055123 
L 161.079884 107.923623 
L 161.190421 107.813513 
L 161.300958 107.701194 
L 161.391756 107.592316 
L 161.502292 107.452138 
L 161.565456 107.347289 
L 161.675993 107.183949 
L 161.770738 107.075943 
L 161.881275 106.955162 
L 161.983916 106.84729 
L 162.094453 106.708216 
L 162.201042 106.602839 
L 162.311578 106.475197 
L 162.382638 106.37679 
L 162.493174 106.226943 
L 162.615554 106.118146 
L 162.726091 105.999811 
L 162.816889 105.888743 
L 162.927425 105.75969 
L 163.026119 105.64917 
L 163.136655 105.481499 
L 163.247192 105.371078 
L 163.357729 105.263852 
L 163.432736 105.165808 
L 163.543272 105.020906 
L 163.598541 104.917491 
L 163.709077 104.792068 
L 163.803823 104.681488 
L 163.91436 104.56467 
L 164.036739 104.454588 
L 164.147276 104.326225 
L 164.245969 104.220201 
L 164.356506 104.064891 
L 164.451252 103.983066 
L 164.561788 103.828288 
L 164.668377 103.731326 
L 164.778914 103.56897 
L 164.861816 103.467884 
L 164.972353 103.299948 
L 165.071046 103.192238 
L 165.181583 103.051027 
L 165.272381 102.9433 
L 165.382918 102.809253 
L 165.477663 102.705434 
L 165.5882 102.545908 
L 165.647416 102.463136 
L 165.757953 102.286399 
L 165.852698 102.17537 
L 165.963235 102.002182 
L 166.04219 101.892908 
L 166.152726 101.753177 
L 166.227733 101.651485 
L 166.33827 101.484388 
L 166.436964 101.376055 
L 166.5475 101.236247 
L 166.650141 101.131698 
L 166.760678 101.023063 
L 166.827789 100.921242 
L 166.938326 100.766039 
L 167.033072 100.661031 
L 167.143608 100.5287 
L 167.198877 100.440238 
L 167.309413 100.286509 
L 167.400211 100.177796 
L 167.510748 100.033768 
L 167.605494 99.92535 
L 167.71603 99.812607 
L 167.810776 99.710305 
L 167.921313 99.579021 
L 168.039745 99.471771 
L 168.150281 99.356863 
L 168.237132 99.247623 
L 168.347668 99.126182 
L 168.450309 99.018258 
L 168.560846 98.89098 
L 168.663487 98.789944 
L 168.774024 98.668105 
L 168.892456 98.57008 
L 169.002993 98.405787 
L 169.081947 98.303973 
L 169.192484 98.151099 
L 169.263543 98.040676 
L 169.37408 97.923384 
L 169.472773 97.81749 
L 169.58331 97.595075 
L 169.701742 97.484489 
L 169.812279 97.311666 
L 169.907024 97.202041 
L 170.017561 97.066115 
L 170.116254 96.96132 
L 170.226791 96.80346 
L 170.337328 96.695112 
L 170.447864 96.539748 
L 170.546558 96.429762 
L 170.657094 96.255888 
L 170.732101 96.145619 
L 170.842638 95.997202 
L 170.90975 95.886779 
L 171.020286 95.75341 
L 171.103189 95.645359 
L 171.213725 95.531426 
L 171.29268 95.422895 
L 171.403217 95.193799 
L 171.482171 95.083148 
L 171.592708 94.971851 
L 171.683506 94.860842 
L 171.794043 94.738731 
L 171.892736 94.645586 
L 172.003273 94.522875 
L 172.07828 94.42312 
L 172.188816 94.260314 
L 172.28751 94.154474 
L 172.398046 93.938343 
L 172.473053 93.833869 
L 172.58359 93.656474 
L 172.666493 93.54577 
L 172.777029 93.348942 
L 172.895461 93.238006 
L 173.005998 93.074131 
L 173.096796 92.965157 
L 173.207333 92.806903 
L 173.278392 92.698537 
L 173.388928 92.55686 
L 173.523152 92.445855 
L 173.633688 92.29034 
L 173.720538 92.179956 
L 173.831075 92.021954 
L 173.890291 91.916532 
L 174.000828 91.747362 
L 174.08373 91.640353 
L 174.194267 91.504594 
L 174.300856 91.40041 
L 174.411392 91.25848 
L 174.45087 91.148517 
L 174.561406 91.017098 
L 174.612727 90.919976 
L 174.723264 90.721396 
L 174.829852 90.613379 
L 174.940389 90.436637 
L 175.003553 90.328813 
L 175.11409 90.175326 
L 175.220678 90.065159 
L 175.331215 89.908622 
L 175.445699 89.799103 
L 175.556236 89.648227 
L 175.627295 89.538749 
L 175.737832 89.360889 
L 175.816787 89.254024 
L 175.927323 89.091779 
L 176.006278 88.985936 
L 176.116815 88.838287 
L 176.215508 88.731748 
L 176.326045 88.618198 
L 176.405 88.509046 
L 176.515536 88.359789 
L 176.602386 88.256435 
L 176.712923 88.058327 
L 176.827407 87.959914 
L 176.937944 87.805562 
L 177.028742 87.703688 
L 177.139279 87.527571 
L 177.237972 87.422869 
L 177.348509 87.267572 
L 177.411672 87.161963 
L 177.522209 86.966983 
L 177.640641 86.856682 
L 177.751178 86.669974 
L 177.86961 86.563052 
L 177.980147 86.407835 
L 178.051206 86.296995 
L 178.161743 86.17234 
L 178.25254 86.066132 
L 178.363077 85.899419 
L 178.430189 85.789738 
L 178.540725 85.618349 
L 178.631523 85.521866 
L 178.74206 85.318603 
L 178.824962 85.239885 
L 178.935499 85.101527 
L 179.010506 84.990826 
L 179.121043 84.794604 
L 179.219736 84.684606 
L 179.330273 84.48243 
L 179.421071 84.386845 
L 179.531607 84.236695 
L 179.61451 84.133733 
L 179.725046 83.941702 
L 179.804001 83.83216 
L 179.914538 83.598141 
L 180.005336 83.487755 
L 180.115872 83.34097 
L 180.198775 83.233088 
L 180.309311 83.082287 
L 180.411953 82.971659 
L 180.522489 82.811977 
L 180.613287 82.702979 
L 180.723824 82.553928 
L 180.786988 82.448022 
L 180.897524 82.252033 
L 180.968584 82.141678 
L 181.07912 81.993083 
L 181.158075 81.887489 
L 181.268612 81.713927 
L 181.335723 81.603953 
L 181.44626 81.394121 
L 181.544953 81.288953 
L 181.65549 81.14546 
L 181.726549 81.037215 
L 181.837086 80.886022 
L 181.91604 80.793312 
L 182.026577 80.534228 
L 182.10948 80.427155 
L 182.220016 80.267703 
L 182.291075 80.160682 
L 182.401612 79.875987 
L 182.516096 79.767611 
L 182.626633 79.619053 
L 182.741118 79.516365 
L 182.851654 79.305041 
L 182.918766 79.197875 
L 183.029302 78.992157 
L 183.108257 78.886991 
L 183.218794 78.733852 
L 183.293801 78.626981 
L 183.404337 78.466992 
L 183.483292 78.358218 
L 183.593829 78.235337 
L 183.69647 78.124463 
L 183.807007 77.936176 
L 183.9057 77.837664 
L 184.016237 77.644186 
L 184.099139 77.539392 
L 184.209676 77.369317 
L 184.264944 77.276064 
L 184.375481 77.095836 
L 184.44654 76.986604 
L 184.557077 76.829313 
L 184.647874 76.719164 
L 184.758411 76.559663 
L 184.861052 76.450961 
L 184.971589 76.27534 
L 185.026857 76.165461 
L 185.137394 76.012244 
L 185.216349 75.901355 
L 185.326885 75.71227 
L 185.421631 75.602904 
L 185.532168 75.444874 
L 185.595331 75.33586 
L 185.705868 75.177269 
L 185.77298 75.07567 
L 185.883516 74.855638 
L 185.942732 74.7478 
L 186.053269 74.510608 
L 186.136171 74.405449 
L 186.246708 74.221854 
L 186.301976 74.117202 
L 186.412513 73.860369 
L 186.483572 73.750533 
L 186.594109 73.588065 
L 186.677011 73.481493 
L 186.787548 73.339143 
L 186.85466 73.231306 
L 186.965196 73.057048 
L 187.036255 72.949022 
L 187.146792 72.819204 
L 187.217851 72.709187 
L 187.328388 72.554414 
L 187.41129 72.447905 
L 187.521827 72.292047 
L 187.624468 72.181148 
L 187.735005 72.02012 
L 187.790273 71.913264 
L 187.90081 71.729178 
L 187.999503 71.62773 
L 188.11004 71.3733 
L 188.19689 71.262578 
L 188.307427 70.991035 
L 188.394277 70.892345 
L 188.504814 70.721474 
L 188.571925 70.614554 
L 188.682462 70.445342 
L 188.749573 70.347593 
L 188.86011 70.224424 
L 188.954856 70.122052 
L 189.065392 69.920404 
L 189.15619 69.814221 
L 189.266727 69.581105 
L 189.337786 69.472192 
L 189.448323 69.315645 
L 189.527277 69.211275 
L 189.637814 69.048457 
L 189.724664 68.93882 
L 189.835201 68.767863 
L 189.929947 68.669541 
L 190.040483 68.489471 
L 190.135229 68.382919 
L 190.245766 68.214261 
L 190.36025 68.104015 
L 190.470787 67.966194 
L 190.549741 67.856189 
L 190.660278 67.651962 
L 190.719494 67.548483 
L 190.830031 67.321574 
L 190.916881 67.221323 
L 191.027418 67.068908 
L 191.07479 66.958919 
L 191.185327 66.77004 
L 191.228752 66.662333 
L 191.339289 66.478367 
L 191.414296 66.374343 
L 191.524832 66.14229 
L 191.603787 66.031432 
L 191.714324 65.800349 
L 191.77354 65.689657 
L 191.884077 65.44631 
L 191.98277 65.339629 
L 192.093307 65.133753 
L 192.172261 65.027392 
L 192.282798 64.840807 
L 192.3657 64.736615 
L 192.476237 64.593803 
L 192.543349 64.483102 
L 192.653885 64.313758 
L 192.713101 64.206114 
L 192.823638 64.03651 
L 192.926279 63.925849 
L 193.036816 63.687681 
L 193.09998 63.576895 
L 193.210516 63.405758 
L 193.293419 63.295472 
L 193.403955 63.020531 
L 193.463171 62.911171 
L 193.573708 62.690226 
L 193.644767 62.584886 
L 193.755304 62.401373 
L 193.826363 62.290394 
L 193.9369 62.112856 
L 194.004011 62.030863 
L 194.114548 61.807878 
L 194.185607 61.703498 
L 194.296144 61.4975 
L 194.363255 61.402743 
L 194.469844 61.192218 
L 194.533008 61.081355 
L 194.643545 60.853252 
L 194.710656 60.751611 
L 194.821193 60.53285 
L 194.911991 60.423617 
L 195.022527 60.239593 
L 195.101482 60.131374 
L 195.212019 59.893155 
L 195.283078 59.792692 
L 195.393615 59.644847 
L 195.429144 59.549453 
L 195.539681 59.259601 
L 195.594949 59.167701 
L 195.705486 58.9631 
L 195.760754 58.858568 
L 195.871291 58.658158 
L 195.946298 58.54982 
L 196.056835 58.31173 
L 196.108155 58.206522 
L 196.218692 58.035491 
L 196.277908 57.92444 
L 196.388444 57.768718 
L 196.471347 57.658086 
L 196.581884 57.375749 
L 196.656891 57.267825 
L 196.767427 57.110265 
L 196.842434 57.003917 
L 196.952971 56.831484 
L 197.012187 56.737307 
L 197.122724 56.581687 
L 197.170096 56.475207 
L 197.276685 56.300087 
L 197.35564 56.205435 
L 197.466177 56.032484 
L 197.572766 55.924605 
L 197.683302 55.701875 
L 197.734623 55.592494 
L 197.845159 55.419888 
L 197.904375 55.328984 
L 198.014912 55.13792 
L 198.07018 55.026873 
L 198.180717 54.814018 
L 198.26362 54.719576 
L 198.374156 54.495068 
L 198.445215 54.389342 
L 198.555752 54.134171 
L 198.638655 54.026665 
L 198.749191 53.784151 
L 198.824198 53.675856 
L 198.934735 53.476752 
L 199.021585 53.369877 
L 199.132122 53.16604 
L 199.207129 53.056121 
L 199.317665 52.899479 
L 199.384777 52.788926 
L 199.495314 52.626389 
L 199.574268 52.518912 
L 199.684805 52.345576 
L 199.791394 52.235218 
L 199.90193 52.040132 
L 199.969042 51.929879 
L 200.079579 51.736213 
L 200.174324 51.625617 
L 200.284861 51.462272 
L 200.367763 51.372871 
L 200.4783 51.163181 
L 200.545412 51.07761 
L 200.655948 50.886077 
L 200.68753 50.819572 
L 200.794119 50.580256 
L 200.877021 50.475627 
L 200.987558 50.323026 
L 201.058617 50.219128 
L 201.169154 50.001213 
L 201.224422 49.919067 
L 201.334959 49.64528 
L 201.421809 49.539332 
L 201.532346 49.372424 
L 201.583666 49.282414 
L 201.694203 49.104678 
L 201.792896 48.994595 
L 201.903433 48.823321 
L 201.966597 48.725303 
L 202.077134 48.583425 
L 202.13635 48.472369 
L 202.246886 48.24903 
L 202.337684 48.14398 
L 202.448221 48.011223 
L 202.515332 47.904594 
L 202.625869 47.758075 
L 202.700876 47.651918 
L 202.811413 47.452686 
L 202.858785 47.364082 
L 202.969322 47.148312 
L 203.056172 47.03872 
L 203.166709 46.854215 
L 203.229873 46.753507 
L 203.340409 46.508469 
L 203.383835 46.417216 
L 203.494371 46.23096 
L 203.561483 46.120142 
L 203.672019 45.922305 
L 203.727288 45.81921 
L 203.837824 45.638679 
L 203.912831 45.536651 
L 204.023368 45.300051 
L 204.086532 45.19325 
L 204.197068 44.93775 
L 204.268128 44.838391 
L 204.378664 44.643794 
L 204.433933 44.538017 
L 204.544469 44.344385 
L 204.59579 44.235526 
L 204.706326 44.082686 
L 204.753699 43.987534 
L 204.864236 43.827747 
L 204.9274 43.723295 
L 205.037936 43.543085 
L 205.1011 43.433636 
L 205.211637 43.279926 
L 205.282696 43.174849 
L 205.393233 43.009107 
L 205.472187 42.900889 
L 205.582724 42.684051 
L 205.634045 42.593427 
L 205.744581 42.371747 
L 205.807745 42.265404 
L 205.918282 41.996908 
L 205.969602 41.893847 
L 206.080139 41.678202 
L 206.151198 41.58266 
L 206.261735 41.364225 
L 206.324899 41.259406 
L 206.435435 41.037407 
L 206.490704 40.932341 
L 206.60124 40.675522 
L 206.656509 40.567422 
L 206.767045 40.398551 
L 206.826261 40.287472 
L 206.936798 40.078694 
L 207.015753 39.972877 
L 207.126289 39.750089 
L 207.181558 39.663748 
L 207.292094 39.455706 
L 207.347363 39.369198 
L 207.457899 39.124567 
L 207.536854 39.020794 
L 207.647391 38.729457 
L 207.714502 38.622237 
L 207.825039 38.407048 
L 207.896098 38.300056 
L 208.006635 38.072153 
L 208.061903 37.991581 
L 208.17244 37.794552 
L 208.251394 37.689739 
L 208.361931 37.521576 
L 208.43299 37.411926 
L 208.543527 37.214452 
L 208.638273 37.124956 
L 208.748809 36.893166 
L 208.815921 36.788253 
L 208.926457 36.616759 
L 208.981726 36.510945 
L 209.092262 36.250484 
L 209.151478 36.164115 
L 209.262015 35.901332 
L 209.325179 35.801395 
L 209.435715 35.528405 
L 209.475193 35.437791 
L 209.585729 35.296766 
L 209.63705 35.186747 
L 209.747587 34.97003 
L 209.814698 34.873657 
L 209.925235 34.662216 
L 209.988399 34.55191 
L 210.098935 34.33196 
L 210.169995 34.224078 
L 210.280531 33.993358 
L 210.367381 33.883352 
L 210.477918 33.657507 
L 210.505552 33.563454 
L 210.616089 33.344489 
L 210.6832 33.236528 
L 210.793737 33.086947 
L 210.876639 32.979146 
L 210.987176 32.755751 
L 211.034549 32.650799 
L 211.145086 32.413676 
L 211.227988 32.310845 
L 211.338525 32.112427 
L 211.43327 32.003773 
L 211.543807 31.761945 
L 211.622762 31.654854 
L 211.733298 31.445423 
L 211.768828 31.334454 
L 211.879365 31.138694 
L 211.914894 31.032871 
L 212.025431 30.765645 
L 212.09649 30.673847 
L 212.207027 30.428253 
L 212.274138 30.321132 
L 212.384675 30.108354 
L 212.467577 30.000995 
L 212.578114 29.814998 
L 212.625487 29.724186 
L 212.736024 29.546251 
L 212.830769 29.437477 
L 212.941306 29.182973 
L 213.051843 29.073039 
L 213.162379 28.790641 
L 213.2137 28.68365 
L 213.324236 28.416884 
L 213.415034 28.308296 
L 213.525571 28.087406 
L 213.580839 27.986455 
L 213.691376 27.777375 
L 213.750592 27.66691 
L 213.861129 27.442418 
L 213.924292 27.333079 
L 214.034829 27.163093 
L 214.090097 27.053492 
L 214.200634 26.875211 
L 214.271693 26.770611 
L 214.38223 26.551053 
L 214.433551 26.443026 
L 214.544087 26.257744 
L 214.611199 26.1491 
L 214.721735 25.910343 
L 214.788847 25.799969 
L 214.899383 25.575537 
L 214.970443 25.467774 
L 215.080979 25.326437 
L 215.16783 25.216553 
L 215.278366 25.007879 
L 215.333635 24.900003 
L 215.444171 24.681905 
L 215.503387 24.596981 
L 215.613924 24.376983 
L 215.67314 24.266971 
L 215.783677 24.025997 
L 215.858684 23.91651 
L 215.96922 23.736605 
L 216.044227 23.635728 
L 216.154764 23.427738 
L 216.245562 23.317138 
L 216.356098 23.132326 
L 216.415315 23.026805 
L 216.525851 22.823603 
L 216.600858 22.719971 
L 216.711395 22.552155 
L 216.774559 22.443437 
L 216.8772 22.194884 
L 216.96405 22.09085 
L 217.074587 21.833238 
L 217.129855 21.722575 
L 217.240392 21.540165 
L 217.283817 21.435536 
L 217.394353 21.229084 
L 217.50489 21.123269 
L 217.615427 20.922613 
L 217.706225 20.812738 
L 217.816761 20.62026 
L 217.868082 20.528947 
L 217.978618 20.354104 
L 218.04573 20.25014 
L 218.156267 20.133906 
L 218.199692 20.039507 
L 218.310228 19.898379 
L 218.357601 19.807411 
L 218.468138 19.62574 
L 218.535249 19.519288 
L 218.645786 19.309967 
L 218.740532 19.200354 
L 218.851068 19.00285 
L 218.941866 18.89226 
L 219.052403 18.759524 
L 219.119514 18.649821 
L 219.230051 18.463156 
L 219.289267 18.359604 
L 219.399804 18.154731 
L 219.470863 18.045501 
L 219.5814 17.837246 
L 219.640616 17.728073 
L 219.751152 17.584019 
L 219.849846 17.473972 
L 219.960382 17.307179 
L 220.059076 17.201576 
L 220.169612 17.047036 
L 220.252515 16.939747 
L 220.363052 16.789828 
L 220.410424 16.680451 
L 220.520961 16.545724 
L 220.568334 16.449654 
L 220.678871 16.267289 
L 220.745982 16.165321 
L 220.856519 15.955427 
L 220.939421 15.852168 
L 221.049958 15.646741 
L 221.113122 15.536467 
L 221.223658 15.386972 
L 221.278927 15.276454 
L 221.389463 15.139309 
L 221.460522 15.029923 
L 221.571059 14.822392 
L 221.630275 14.733333 
L 221.740812 14.552705 
L 221.823714 14.449155 
L 221.934251 14.260204 
L 222.013206 14.160099 
L 222.123742 13.958174 
L 222.222436 13.851401 
L 222.332972 13.657534 
L 222.419823 13.555867 
L 222.530359 13.415413 
L 222.597471 13.306855 
L 222.708007 13.138647 
L 222.759328 13.037129 
L 222.869865 12.902701 
L 222.956715 12.792253 
L 223.067251 12.618973 
L 223.154102 12.509629 
L 223.264638 12.341924 
L 223.33175 12.231944 
L 223.442286 12.116111 
L 223.509398 12.02074 
L 223.619935 11.867433 
L 223.659412 11.770008 
L 223.769949 11.611769 
L 223.860747 11.505291 
L 223.971283 11.36035 
L 224.069977 11.251157 
L 224.180513 11.133034 
L 224.279207 11.022725 
L 224.389743 10.841019 
L 224.448959 10.75017 
L 224.559496 10.632572 
L 224.650294 10.523215 
L 224.760831 10.42339 
L 224.843733 10.31634 
L 224.95427 10.216478 
L 225.025329 10.108776 
L 225.124022 9.975021 
L 225.246402 9.863985 
L 225.356939 9.730193 
L 225.45958 9.619545 
L 225.570117 9.502442 
L 225.720131 9.394406 
L 225.830667 9.295458 
L 225.980681 9.185279 
L 226.091218 9.053462 
L 226.20965 8.942874 
L 226.320187 8.848923 
L 226.446514 8.739633 
L 226.557051 8.671319 
L 226.643901 8.562356 
L 226.754438 8.434125 
L 226.912347 8.323124 
L 227.011041 8.270311 
L 227.16895 8.162591 
L 227.279487 8.086218 
L 227.599254 7.97911 
L 227.70979 7.926654 
L 227.986132 7.815762 
L 228.096668 7.792492 
L 228.365115 7.6817 
L 228.463808 7.623485 
L 228.854634 7.521502 
L 228.965171 7.426466 
L 229.308624 7.324493 
L 229.391526 7.296896 
L 229.869202 7.188699 
L 229.952105 7.167732 
L 230.520579 7.056897 
L 230.603481 7.048883 
L 231.697005 6.943045 
L 231.807541 6.87785 
L 231.922026 6.802656 
L 231.922026 6.802247 
L 231.922026 -1 
L 231.922026 -1 
" clip-path="url(#p857499ae8f)" style="fill: none; stroke-dasharray: 7.5,1.5; stroke-dashoffset: 0; stroke: #ac7726; stroke-width: 1.5"/>
   </g>
   <g id="patch_3">
    <path d="M 56.077974 182.64351 
L 56.077974 6.799459 
" style="fill: none; stroke: #000000; stroke-width: 0.8; stroke-linejoin: miter; stroke-linecap: square"/>
   </g>
   <g id="patch_4">
    <path d="M 231.922026 182.64351 
L 231.922026 6.799459 
" style="fill: none; stroke: #000000; stroke-width: 0.8; stroke-linejoin: miter; stroke-linecap: square"/>
   </g>
   <g id="patch_5">
    <path d="M 56.077974 182.64351 
L 231.922026 182.64351 
" style="fill: none; stroke: #000000; stroke-width: 0.8; stroke-linejoin: miter; stroke-linecap: square"/>
   </g>
   <g id="patch_6">
    <path d="M 56.077974 6.799459 
L 231.922026 6.799459 
" style="fill: none; stroke: #000000; stroke-width: 0.8; stroke-linejoin: miter; stroke-linecap: square"/>
   </g>
   <g id="legend_1">
    <g id="patch_7">
     <path d="M 63.077974 44.155709 
L 140.054537 44.155709 
Q 142.054537 44.155709 142.054537 42.155709 
L 142.054537 13.799459 
Q 142.054537 11.799459 140.054537 11.799459 
L 63.077974 11.799459 
Q 61.077974 11.799459 61.077974 13.799459 
L 61.077974 42.155709 
Q 61.077974 44.155709 63.077974 44.155709 
z
" style="fill: #ffffff; opacity: 0.8; stroke: #cccccc; stroke-linejoin: miter"/>
    </g>
    <g id="line2d_15">
     <path d="M 65.077974 19.897896 
L 75.077974 19.897896 
L 75.077974 19.897896 
L 85.077974 19.897896 
L 85.077974 19.897896 
" style="fill: none; stroke: #67c7d5; stroke-width: 1.5; stroke-linecap: square"/>
    </g>
    <g id="text_15">
     <!-- ATL09 -->
     <g transform="translate(93.077974 23.397896) scale(0.1 -0.1)">
      <defs>
       <path id="DejaVuSans-41" d="M 2188 4044 
L 1331 1722 
L 3047 1722 
L 2188 4044 
z
M 1831 4666 
L 2547 4666 
L 4325 0 
L 3669 0 
L 3244 1197 
L 1141 1197 
L 716 0 
L 50 0 
L 1831 4666 
z
" transform="scale(0.015625)"/>
       <path id="DejaVuSans-54" d="M -19 4666 
L 3928 4666 
L 3928 4134 
L 2272 4134 
L 2272 0 
L 1638 0 
L 1638 4134 
L -19 4134 
L -19 4666 
z
" transform="scale(0.015625)"/>
       <path id="DejaVuSans-4c" d="M 628 4666 
L 1259 4666 
L 1259 531 
L 3531 531 
L 3531 0 
L 628 0 
L 628 4666 
z
" transform="scale(0.015625)"/>
       <path id="DejaVuSans-39" d="M 703 97 
L 703 672 
Q 941 559 1184 500 
Q 1428 441 1663 441 
Q 2288 441 2617 861 
Q 2947 1281 2994 2138 
Q 2813 1869 2534 1725 
Q 2256 1581 1919 1581 
Q 1219 1581 811 2004 
Q 403 2428 403 3163 
Q 403 3881 828 4315 
Q 1253 4750 1959 4750 
Q 2769 4750 3195 4129 
Q 3622 3509 3622 2328 
Q 3622 1225 3098 567 
Q 2575 -91 1691 -91 
Q 1453 -91 1209 -44 
Q 966 3 703 97 
z
M 1959 2075 
Q 2384 2075 2632 2365 
Q 2881 2656 2881 3163 
Q 2881 3666 2632 3958 
Q 2384 4250 1959 4250 
Q 1534 4250 1286 3958 
Q 1038 3666 1038 3163 
Q 1038 2656 1286 2365 
Q 1534 2075 1959 2075 
z
" transform="scale(0.015625)"/>
      </defs>
      <use xlink:href="#DejaVuSans-41"/>
      <use xlink:href="#DejaVuSans-54" transform="translate(60.658203 0)"/>
      <use xlink:href="#DejaVuSans-4c" transform="translate(121.742188 0)"/>
      <use xlink:href="#DejaVuSans-30" transform="translate(177.455078 0)"/>
      <use xlink:href="#DejaVuSans-39" transform="translate(241.078125 0)"/>
     </g>
    </g>
    <g id="line2d_16">
     <path d="M 65.077974 34.576021 
L 75.077974 34.576021 
L 75.077974 34.576021 
L 85.077974 34.576021 
L 85.077974 34.576021 
" style="fill: none; stroke-dasharray: 7.5,1.5; stroke-dashoffset: 0; stroke: #ac7726; stroke-width: 1.5"/>
    </g>
    <g id="text_16">
     <!-- Cloudnet -->
     <g transform="translate(93.077974 38.076021) scale(0.1 -0.1)">
      <defs>
       <path id="DejaVuSans-6c" d="M 603 4863 
L 1178 4863 
L 1178 0 
L 603 0 
L 603 4863 
z
" transform="scale(0.015625)"/>
       <path id="DejaVuSans-6f" d="M 1959 3097 
Q 1497 3097 1228 2736 
Q 959 2375 959 1747 
Q 959 1119 1226 758 
Q 1494 397 1959 397 
Q 2419 397 2687 759 
Q 2956 1122 2956 1747 
Q 2956 2369 2687 2733 
Q 2419 3097 1959 3097 
z
M 1959 3584 
Q 2709 3584 3137 3096 
Q 3566 2609 3566 1747 
Q 3566 888 3137 398 
Q 2709 -91 1959 -91 
Q 1206 -91 779 398 
Q 353 888 353 1747 
Q 353 2609 779 3096 
Q 1206 3584 1959 3584 
z
" transform="scale(0.015625)"/>
       <path id="DejaVuSans-75" d="M 544 1381 
L 544 3500 
L 1119 3500 
L 1119 1403 
Q 1119 906 1312 657 
Q 1506 409 1894 409 
Q 2359 409 2629 706 
Q 2900 1003 2900 1516 
L 2900 3500 
L 3475 3500 
L 3475 0 
L 2900 0 
L 2900 538 
Q 2691 219 2414 64 
Q 2138 -91 1772 -91 
Q 1169 -91 856 284 
Q 544 659 544 1381 
z
M 1991 3584 
L 1991 3584 
z
" transform="scale(0.015625)"/>
       <path id="DejaVuSans-64" d="M 2906 2969 
L 2906 4863 
L 3481 4863 
L 3481 0 
L 2906 0 
L 2906 525 
Q 2725 213 2448 61 
Q 2172 -91 1784 -91 
Q 1150 -91 751 415 
Q 353 922 353 1747 
Q 353 2572 751 3078 
Q 1150 3584 1784 3584 
Q 2172 3584 2448 3432 
Q 2725 3281 2906 2969 
z
M 947 1747 
Q 947 1113 1208 752 
Q 1469 391 1925 391 
Q 2381 391 2643 752 
Q 2906 1113 2906 1747 
Q 2906 2381 2643 2742 
Q 2381 3103 1925 3103 
Q 1469 3103 1208 2742 
Q 947 2381 947 1747 
z
" transform="scale(0.015625)"/>
       <path id="DejaVuSans-6e" d="M 3513 2113 
L 3513 0 
L 2938 0 
L 2938 2094 
Q 2938 2591 2744 2837 
Q 2550 3084 2163 3084 
Q 1697 3084 1428 2787 
Q 1159 2491 1159 1978 
L 1159 0 
L 581 0 
L 581 3500 
L 1159 3500 
L 1159 2956 
Q 1366 3272 1645 3428 
Q 1925 3584 2291 3584 
Q 2894 3584 3203 3211 
Q 3513 2838 3513 2113 
z
" transform="scale(0.015625)"/>
       <path id="DejaVuSans-65" d="M 3597 1894 
L 3597 1613 
L 953 1613 
Q 991 1019 1311 708 
Q 1631 397 2203 397 
Q 2534 397 2845 478 
Q 3156 559 3463 722 
L 3463 178 
Q 3153 47 2828 -22 
Q 2503 -91 2169 -91 
Q 1331 -91 842 396 
Q 353 884 353 1716 
Q 353 2575 817 3079 
Q 1281 3584 2069 3584 
Q 2775 3584 3186 3129 
Q 3597 2675 3597 1894 
z
M 3022 2063 
Q 3016 2534 2758 2815 
Q 2500 3097 2075 3097 
Q 1594 3097 1305 2825 
Q 1016 2553 972 2059 
L 3022 2063 
z
" transform="scale(0.015625)"/>
       <path id="DejaVuSans-74" d="M 1172 4494 
L 1172 3500 
L 2356 3500 
L 2356 3053 
L 1172 3053 
L 1172 1153 
Q 1172 725 1289 603 
Q 1406 481 1766 481 
L 2356 481 
L 2356 0 
L 1766 0 
Q 1100 0 847 248 
Q 594 497 594 1153 
L 594 3053 
L 172 3053 
L 172 3500 
L 594 3500 
L 594 4494 
L 1172 4494 
z
" transform="scale(0.015625)"/>
      </defs>
      <use xlink:href="#DejaVuSans-43"/>
      <use xlink:href="#DejaVuSans-6c" transform="translate(69.824219 0)"/>
      <use xlink:href="#DejaVuSans-6f" transform="translate(97.607422 0)"/>
      <use xlink:href="#DejaVuSans-75" transform="translate(158.789062 0)"/>
      <use xlink:href="#DejaVuSans-64" transform="translate(222.167969 0)"/>
      <use xlink:href="#DejaVuSans-6e" transform="translate(285.644531 0)"/>
      <use xlink:href="#DejaVuSans-65" transform="translate(349.023438 0)"/>
      <use xlink:href="#DejaVuSans-74" transform="translate(410.546875 0)"/>
     </g>
    </g>
   </g>
  </g>
 </g>
 <defs>
  <clipPath id="p857499ae8f">
   <rect x="56.077974" y="6.799459" width="175.844051" height="175.844051"/>
  </clipPath>
 </defs>
</svg>
