<?xml version="1.0" encoding="utf-8" standalone="no"?>
<!DOCTYPE svg PUBLIC "-//W3C//DTD SVG 1.1//EN"
  "http://www.w3.org/Graphics/SVG/1.1/DTD/svg11.dtd">
<svg xmlns:xlink="http://www.w3.org/1999/xlink" width="234.776864pt" height="224.39952pt" viewBox="0 0 234.776864 224.39952" xmlns="http://www.w3.org/2000/svg" version="1.1">
 <metadata>
  <rdf:RDF xmlns:dc="http://purl.org/dc/elements/1.1/" xmlns:cc="http://creativecommons.org/ns#" xmlns:rdf="http://www.w3.org/1999/02/22-rdf-syntax-ns#">
   <cc:Work>
    <dc:type rdf:resource="http://purl.org/dc/dcmitype/StillImage"/>
    <dc:date>2025-12-01T16:33:42.848268</dc:date>
    <dc:format>image/svg+xml</dc:format>
    <dc:creator>
     <cc:Agent>
      <dc:title>Matplotlib v3.10.0, https://matplotlib.org/</dc:title>
     </cc:Agent>
    </dc:creator>
   </cc:Work>
  </rdf:RDF>
 </metadata>
 <defs>
  <style type="text/css">*{stroke-linejoin: round; stroke-linecap: butt}</style>
 </defs>
 <g id="figure_1">
  <g id="patch_1">
   <path d="M 0 224.39952 
L 234.776864 224.39952 
L 234.776864 0 
L 0 0 
L 0 224.39952 
z
" style="fill: none"/>
  </g>
  <g id="axes_1">
   <g id="patch_2">
    <path d="M 43.78125 186.84327 
L 219.625301 186.84327 
L 219.625301 10.999219 
L 43.78125 10.999219 
L 43.78125 186.84327 
z
" style="fill: none"/>
   </g>
   <g id="matplotlib.axis_1">
    <g id="xtick_1">
     <g id="line2d_1">
      <defs>
       <path id="m8caec051f5" d="M 0 0 
L 0 3.5 
" style="stroke: #000000; stroke-width: 0.8"/>
      </defs>
      <g>
       <use xlink:href="#m8caec051f5" x="43.78125" y="186.84327" style="stroke: #000000; stroke-width: 0.8"/>
      </g>
     </g>
     <g id="text_1">
      <!-- 0.0 -->
      <g transform="translate(35.829688 201.441708) scale(0.1 -0.1)">
       <defs>
        <path id="DejaVuSans-30" d="M 2034 4250 
Q 1547 4250 1301 3770 
Q 1056 3291 1056 2328 
Q 1056 1369 1301 889 
Q 1547 409 2034 409 
Q 2525 409 2770 889 
Q 3016 1369 3016 2328 
Q 3016 3291 2770 3770 
Q 2525 4250 2034 4250 
z
M 2034 4750 
Q 2819 4750 3233 4129 
Q 3647 3509 3647 2328 
Q 3647 1150 3233 529 
Q 2819 -91 2034 -91 
Q 1250 -91 836 529 
Q 422 1150 422 2328 
Q 422 3509 836 4129 
Q 1250 4750 2034 4750 
z
" transform="scale(0.015625)"/>
        <path id="DejaVuSans-2e" d="M 684 794 
L 1344 794 
L 1344 0 
L 684 0 
L 684 794 
z
" transform="scale(0.015625)"/>
       </defs>
       <use xlink:href="#DejaVuSans-30"/>
       <use xlink:href="#DejaVuSans-2e" transform="translate(63.623047 0)"/>
       <use xlink:href="#DejaVuSans-30" transform="translate(95.410156 0)"/>
      </g>
     </g>
    </g>
    <g id="xtick_2">
     <g id="line2d_2">
      <g>
       <use xlink:href="#m8caec051f5" x="78.95006" y="186.84327" style="stroke: #000000; stroke-width: 0.8"/>
      </g>
     </g>
     <g id="text_2">
      <!-- 0.2 -->
      <g transform="translate(70.998498 201.441708) scale(0.1 -0.1)">
       <defs>
        <path id="DejaVuSans-32" d="M 1228 531 
L 3431 531 
L 3431 0 
L 469 0 
L 469 531 
Q 828 903 1448 1529 
Q 2069 2156 2228 2338 
Q 2531 2678 2651 2914 
Q 2772 3150 2772 3378 
Q 2772 3750 2511 3984 
Q 2250 4219 1831 4219 
Q 1534 4219 1204 4116 
Q 875 4013 500 3803 
L 500 4441 
Q 881 4594 1212 4672 
Q 1544 4750 1819 4750 
Q 2544 4750 2975 4387 
Q 3406 4025 3406 3419 
Q 3406 3131 3298 2873 
Q 3191 2616 2906 2266 
Q 2828 2175 2409 1742 
Q 1991 1309 1228 531 
z
" transform="scale(0.015625)"/>
       </defs>
       <use xlink:href="#DejaVuSans-30"/>
       <use xlink:href="#DejaVuSans-2e" transform="translate(63.623047 0)"/>
       <use xlink:href="#DejaVuSans-32" transform="translate(95.410156 0)"/>
      </g>
     </g>
    </g>
    <g id="xtick_3">
     <g id="line2d_3">
      <g>
       <use xlink:href="#m8caec051f5" x="114.118871" y="186.84327" style="stroke: #000000; stroke-width: 0.8"/>
      </g>
     </g>
     <g id="text_3">
      <!-- 0.4 -->
      <g transform="translate(106.167308 201.441708) scale(0.1 -0.1)">
       <defs>
        <path id="DejaVuSans-34" d="M 2419 4116 
L 825 1625 
L 2419 1625 
L 2419 4116 
z
M 2253 4666 
L 3047 4666 
L 3047 1625 
L 3713 1625 
L 3713 1100 
L 3047 1100 
L 3047 0 
L 2419 0 
L 2419 1100 
L 313 1100 
L 313 1709 
L 2253 4666 
z
" transform="scale(0.015625)"/>
       </defs>
       <use xlink:href="#DejaVuSans-30"/>
       <use xlink:href="#DejaVuSans-2e" transform="translate(63.623047 0)"/>
       <use xlink:href="#DejaVuSans-34" transform="translate(95.410156 0)"/>
      </g>
     </g>
    </g>
    <g id="xtick_4">
     <g id="line2d_4">
      <g>
       <use xlink:href="#m8caec051f5" x="149.287681" y="186.84327" style="stroke: #000000; stroke-width: 0.8"/>
      </g>
     </g>
     <g id="text_4">
      <!-- 0.6 -->
      <g transform="translate(141.336118 201.441708) scale(0.1 -0.1)">
       <defs>
        <path id="DejaVuSans-36" d="M 2113 2584 
Q 1688 2584 1439 2293 
Q 1191 2003 1191 1497 
Q 1191 994 1439 701 
Q 1688 409 2113 409 
Q 2538 409 2786 701 
Q 3034 994 3034 1497 
Q 3034 2003 2786 2293 
Q 2538 2584 2113 2584 
z
M 3366 4563 
L 3366 3988 
Q 3128 4100 2886 4159 
Q 2644 4219 2406 4219 
Q 1781 4219 1451 3797 
Q 1122 3375 1075 2522 
Q 1259 2794 1537 2939 
Q 1816 3084 2150 3084 
Q 2853 3084 3261 2657 
Q 3669 2231 3669 1497 
Q 3669 778 3244 343 
Q 2819 -91 2113 -91 
Q 1303 -91 875 529 
Q 447 1150 447 2328 
Q 447 3434 972 4092 
Q 1497 4750 2381 4750 
Q 2619 4750 2861 4703 
Q 3103 4656 3366 4563 
z
" transform="scale(0.015625)"/>
       </defs>
       <use xlink:href="#DejaVuSans-30"/>
       <use xlink:href="#DejaVuSans-2e" transform="translate(63.623047 0)"/>
       <use xlink:href="#DejaVuSans-36" transform="translate(95.410156 0)"/>
      </g>
     </g>
    </g>
    <g id="xtick_5">
     <g id="line2d_5">
      <g>
       <use xlink:href="#m8caec051f5" x="184.456491" y="186.84327" style="stroke: #000000; stroke-width: 0.8"/>
      </g>
     </g>
     <g id="text_5">
      <!-- 0.8 -->
      <g transform="translate(176.504929 201.441708) scale(0.1 -0.1)">
       <defs>
        <path id="DejaVuSans-38" d="M 2034 2216 
Q 1584 2216 1326 1975 
Q 1069 1734 1069 1313 
Q 1069 891 1326 650 
Q 1584 409 2034 409 
Q 2484 409 2743 651 
Q 3003 894 3003 1313 
Q 3003 1734 2745 1975 
Q 2488 2216 2034 2216 
z
M 1403 2484 
Q 997 2584 770 2862 
Q 544 3141 544 3541 
Q 544 4100 942 4425 
Q 1341 4750 2034 4750 
Q 2731 4750 3128 4425 
Q 3525 4100 3525 3541 
Q 3525 3141 3298 2862 
Q 3072 2584 2669 2484 
Q 3125 2378 3379 2068 
Q 3634 1759 3634 1313 
Q 3634 634 3220 271 
Q 2806 -91 2034 -91 
Q 1263 -91 848 271 
Q 434 634 434 1313 
Q 434 1759 690 2068 
Q 947 2378 1403 2484 
z
M 1172 3481 
Q 1172 3119 1398 2916 
Q 1625 2713 2034 2713 
Q 2441 2713 2670 2916 
Q 2900 3119 2900 3481 
Q 2900 3844 2670 4047 
Q 2441 4250 2034 4250 
Q 1625 4250 1398 4047 
Q 1172 3844 1172 3481 
z
" transform="scale(0.015625)"/>
       </defs>
       <use xlink:href="#DejaVuSans-30"/>
       <use xlink:href="#DejaVuSans-2e" transform="translate(63.623047 0)"/>
       <use xlink:href="#DejaVuSans-38" transform="translate(95.410156 0)"/>
      </g>
     </g>
    </g>
    <g id="xtick_6">
     <g id="line2d_6">
      <g>
       <use xlink:href="#m8caec051f5" x="219.625301" y="186.84327" style="stroke: #000000; stroke-width: 0.8"/>
      </g>
     </g>
     <g id="text_6">
      <!-- 1.0 -->
      <g transform="translate(211.673739 201.441708) scale(0.1 -0.1)">
       <defs>
        <path id="DejaVuSans-31" d="M 794 531 
L 1825 531 
L 1825 4091 
L 703 3866 
L 703 4441 
L 1819 4666 
L 2450 4666 
L 2450 531 
L 3481 531 
L 3481 0 
L 794 0 
L 794 531 
z
" transform="scale(0.015625)"/>
       </defs>
       <use xlink:href="#DejaVuSans-31"/>
       <use xlink:href="#DejaVuSans-2e" transform="translate(63.623047 0)"/>
       <use xlink:href="#DejaVuSans-30" transform="translate(95.410156 0)"/>
      </g>
     </g>
    </g>
    <g id="text_7">
     <!-- $u$, $v$ -->
     <g transform="translate(122.353276 215.119833) scale(0.1 -0.1)">
      <defs>
       <path id="DejaVuSans-Oblique-75" d="M 428 1388 
L 838 3500 
L 1416 3500 
L 1006 1409 
Q 975 1256 961 1147 
Q 947 1038 947 966 
Q 947 700 1109 554 
Q 1272 409 1569 409 
Q 2031 409 2368 721 
Q 2706 1034 2809 1563 
L 3194 3500 
L 3769 3500 
L 3091 0 
L 2516 0 
L 2631 550 
Q 2388 244 2052 76 
Q 1716 -91 1338 -91 
Q 878 -91 622 161 
Q 366 413 366 863 
Q 366 956 381 1097 
Q 397 1238 428 1388 
z
" transform="scale(0.015625)"/>
       <path id="DejaVuSans-2c" d="M 750 794 
L 1409 794 
L 1409 256 
L 897 -744 
L 494 -744 
L 750 256 
L 750 794 
z
" transform="scale(0.015625)"/>
       <path id="DejaVuSans-20" transform="scale(0.015625)"/>
       <path id="DejaVuSans-Oblique-76" d="M 459 3500 
L 1069 3500 
L 1581 525 
L 3256 3500 
L 3866 3500 
L 1875 0 
L 1100 0 
L 459 3500 
z
" transform="scale(0.015625)"/>
      </defs>
      <use xlink:href="#DejaVuSans-Oblique-75" transform="translate(0 0.3125)"/>
      <use xlink:href="#DejaVuSans-2c" transform="translate(63.378906 0.3125)"/>
      <use xlink:href="#DejaVuSans-20" transform="translate(95.166016 0.3125)"/>
      <use xlink:href="#DejaVuSans-Oblique-76" transform="translate(126.953125 0.3125)"/>
     </g>
    </g>
   </g>
   <g id="matplotlib.axis_2">
    <g id="ytick_1">
     <g id="line2d_7">
      <defs>
       <path id="m86c8be9d38" d="M 0 0 
L -3.5 0 
" style="stroke: #000000; stroke-width: 0.8"/>
      </defs>
      <g>
       <use xlink:href="#m86c8be9d38" x="43.78125" y="186.84327" style="stroke: #000000; stroke-width: 0.8"/>
      </g>
     </g>
     <g id="text_8">
      <!-- 0.0 -->
      <g transform="translate(20.878125 190.642489) scale(0.1 -0.1)">
       <use xlink:href="#DejaVuSans-30"/>
       <use xlink:href="#DejaVuSans-2e" transform="translate(63.623047 0)"/>
       <use xlink:href="#DejaVuSans-30" transform="translate(95.410156 0)"/>
      </g>
     </g>
    </g>
    <g id="ytick_2">
     <g id="line2d_8">
      <g>
       <use xlink:href="#m86c8be9d38" x="43.78125" y="151.67446" style="stroke: #000000; stroke-width: 0.8"/>
      </g>
     </g>
     <g id="text_9">
      <!-- 0.2 -->
      <g transform="translate(20.878125 155.473679) scale(0.1 -0.1)">
       <use xlink:href="#DejaVuSans-30"/>
       <use xlink:href="#DejaVuSans-2e" transform="translate(63.623047 0)"/>
       <use xlink:href="#DejaVuSans-32" transform="translate(95.410156 0)"/>
      </g>
     </g>
    </g>
    <g id="ytick_3">
     <g id="line2d_9">
      <g>
       <use xlink:href="#m86c8be9d38" x="43.78125" y="116.50565" style="stroke: #000000; stroke-width: 0.8"/>
      </g>
     </g>
     <g id="text_10">
      <!-- 0.4 -->
      <g transform="translate(20.878125 120.304868) scale(0.1 -0.1)">
       <use xlink:href="#DejaVuSans-30"/>
       <use xlink:href="#DejaVuSans-2e" transform="translate(63.623047 0)"/>
       <use xlink:href="#DejaVuSans-34" transform="translate(95.410156 0)"/>
      </g>
     </g>
    </g>
    <g id="ytick_4">
     <g id="line2d_10">
      <g>
       <use xlink:href="#m86c8be9d38" x="43.78125" y="81.336839" style="stroke: #000000; stroke-width: 0.8"/>
      </g>
     </g>
     <g id="text_11">
      <!-- 0.6 -->
      <g transform="translate(20.878125 85.136058) scale(0.1 -0.1)">
       <use xlink:href="#DejaVuSans-30"/>
       <use xlink:href="#DejaVuSans-2e" transform="translate(63.623047 0)"/>
       <use xlink:href="#DejaVuSans-36" transform="translate(95.410156 0)"/>
      </g>
     </g>
    </g>
    <g id="ytick_5">
     <g id="line2d_11">
      <g>
       <use xlink:href="#m86c8be9d38" x="43.78125" y="46.168029" style="stroke: #000000; stroke-width: 0.8"/>
      </g>
     </g>
     <g id="text_12">
      <!-- 0.8 -->
      <g transform="translate(20.878125 49.967248) scale(0.1 -0.1)">
       <use xlink:href="#DejaVuSans-30"/>
       <use xlink:href="#DejaVuSans-2e" transform="translate(63.623047 0)"/>
       <use xlink:href="#DejaVuSans-38" transform="translate(95.410156 0)"/>
      </g>
     </g>
    </g>
    <g id="ytick_6">
     <g id="line2d_12">
      <g>
       <use xlink:href="#m86c8be9d38" x="43.78125" y="10.999219" style="stroke: #000000; stroke-width: 0.8"/>
      </g>
     </g>
     <g id="text_13">
      <!-- 1.0 -->
      <g transform="translate(20.878125 14.798438) scale(0.1 -0.1)">
       <use xlink:href="#DejaVuSans-31"/>
       <use xlink:href="#DejaVuSans-2e" transform="translate(63.623047 0)"/>
       <use xlink:href="#DejaVuSans-30" transform="translate(95.410156 0)"/>
      </g>
     </g>
    </g>
    <g id="text_14">
     <!-- VCF -->
     <g transform="translate(14.798438 108.708744) rotate(-90) scale(0.1 -0.1)">
      <defs>
       <path id="DejaVuSans-56" d="M 1831 0 
L 50 4666 
L 709 4666 
L 2188 738 
L 3669 4666 
L 4325 4666 
L 2547 0 
L 1831 0 
z
" transform="scale(0.015625)"/>
       <path id="DejaVuSans-43" d="M 4122 4306 
L 4122 3641 
Q 3803 3938 3442 4084 
Q 3081 4231 2675 4231 
Q 1875 4231 1450 3742 
Q 1025 3253 1025 2328 
Q 1025 1406 1450 917 
Q 1875 428 2675 428 
Q 3081 428 3442 575 
Q 3803 722 4122 1019 
L 4122 359 
Q 3791 134 3420 21 
Q 3050 -91 2638 -91 
Q 1578 -91 968 557 
Q 359 1206 359 2328 
Q 359 3453 968 4101 
Q 1578 4750 2638 4750 
Q 3056 4750 3426 4639 
Q 3797 4528 4122 4306 
z
" transform="scale(0.015625)"/>
       <path id="DejaVuSans-46" d="M 628 4666 
L 3309 4666 
L 3309 4134 
L 1259 4134 
L 1259 2759 
L 3109 2759 
L 3109 2228 
L 1259 2228 
L 1259 0 
L 628 0 
L 628 4666 
z
" transform="scale(0.015625)"/>
      </defs>
      <use xlink:href="#DejaVuSans-56"/>
      <use xlink:href="#DejaVuSans-43" transform="translate(68.408203 0)"/>
      <use xlink:href="#DejaVuSans-46" transform="translate(138.232422 0)"/>
     </g>
    </g>
   </g>
   <g id="line2d_13">
    <path d="M 43.78125 195.635173 
L 43.785198 195.635173 
L 43.895734 186.83968 
L 46.070937 186.728979 
L 46.181474 186.723403 
L 48.092179 186.612426 
L 48.202715 186.604999 
L 49.687065 186.494018 
L 49.797601 186.483474 
L 51.127989 186.372735 
L 51.238525 186.368016 
L 52.545226 186.256927 
L 52.655763 186.249403 
L 53.891405 186.138767 
L 54.001941 186.125425 
L 55.111255 186.014713 
L 55.221792 186.008545 
L 56.256099 185.89876 
L 56.366636 185.884619 
L 57.183817 185.773659 
L 57.294354 185.760727 
L 58.237863 185.65003 
L 58.3484 185.637482 
L 59.256379 185.526579 
L 59.366916 185.517964 
L 60.191993 185.407569 
L 60.30253 185.390576 
L 61.068391 185.279934 
L 61.178927 185.264125 
L 62.000056 185.153808 
L 62.110593 185.134532 
L 62.793552 185.024652 
L 62.904088 185.003722 
L 63.63442 184.893583 
L 63.744956 184.874416 
L 64.562138 184.764735 
L 64.672674 184.746872 
L 65.335894 184.638435 
L 65.446431 184.615226 
L 66.038591 184.504548 
L 66.149128 184.490428 
L 66.780766 184.379786 
L 66.891303 184.364532 
L 67.550575 184.254955 
L 67.661111 184.233515 
L 68.280906 184.122824 
L 68.391443 184.110308 
L 68.991499 183.999427 
L 69.102035 183.975246 
L 69.638928 183.864886 
L 69.749464 183.833961 
L 70.365311 183.723187 
L 70.475848 183.69395 
L 71.115381 183.583412 
L 71.225918 183.560475 
L 71.739124 183.450939 
L 71.84966 183.43023 
L 72.398396 183.319313 
L 72.508932 183.29749 
L 73.033982 183.18698 
L 73.144518 183.165365 
L 73.701149 183.055455 
L 73.811686 183.028219 
L 74.435428 182.918475 
L 74.545965 182.898436 
L 75.059171 182.788147 
L 75.169707 182.76416 
L 75.694756 182.653329 
L 75.805293 182.627404 
L 76.357976 182.517413 
L 76.468513 182.489366 
L 76.977771 182.378442 
L 77.088307 182.355643 
L 77.55414 182.245706 
L 77.664677 182.201613 
L 78.169987 182.090771 
L 78.280524 182.066712 
L 78.754252 181.956335 
L 78.864789 181.924499 
L 79.291145 181.81552 
L 79.401681 181.777684 
L 79.922783 181.667345 
L 80.033319 181.634344 
L 80.41625 181.524718 
L 80.526786 181.490932 
L 80.980776 181.380026 
L 81.091313 181.345966 
L 81.545303 181.235039 
L 81.655839 181.197529 
L 82.109829 181.086471 
L 82.220366 181.057524 
L 82.662512 180.948569 
L 82.773049 180.921406 
L 83.262568 180.810826 
L 83.373105 180.784696 
L 83.819199 180.673614 
L 83.929736 180.64192 
L 84.316614 180.531885 
L 84.427151 180.493975 
L 84.853506 180.385149 
L 84.964043 180.356518 
L 85.410137 180.247462 
L 85.520674 180.217971 
L 85.864127 180.107413 
L 85.974664 180.077595 
L 86.389176 179.96706 
L 86.499713 179.931367 
L 86.878695 179.822295 
L 86.989232 179.77148 
L 87.391901 179.662158 
L 87.502438 179.631802 
L 87.924846 179.520735 
L 88.035382 179.481477 
L 88.418313 179.370492 
L 88.528849 179.333357 
L 88.935466 179.222446 
L 89.046003 179.195734 
L 89.361822 179.086738 
L 89.472359 179.051019 
L 89.796073 178.940606 
L 89.90661 178.897724 
L 90.340861 178.787618 
L 90.451397 178.75676 
L 90.858014 178.645839 
L 90.968551 178.619182 
L 91.323847 178.509609 
L 91.434384 178.484027 
L 91.781785 178.373582 
L 91.892321 178.327709 
L 92.219984 178.217251 
L 92.33052 178.184437 
L 92.701607 178.073542 
L 92.812144 178.031042 
L 93.199022 177.919989 
L 93.309559 177.877447 
L 93.672751 177.770626 
L 93.783287 177.72543 
L 94.134636 177.617087 
L 94.245173 177.575575 
L 94.596521 177.46535 
L 94.707058 177.433983 
L 95.007086 177.322889 
L 95.117623 177.280203 
L 95.472919 177.169668 
L 95.583456 177.133963 
L 95.90717 177.023865 
L 96.017707 176.982856 
L 96.305891 176.875131 
L 96.416428 176.8434 
L 96.811202 176.733179 
L 96.921738 176.701689 
L 97.23361 176.591055 
L 97.344146 176.558052 
L 97.644174 176.449613 
L 97.754711 176.400453 
L 98.137641 176.289634 
L 98.248178 176.256576 
L 98.654795 176.145893 
L 98.765332 176.108969 
L 99.06536 175.99867 
L 99.175896 175.949871 
L 99.436447 175.841394 
L 99.546984 175.808522 
L 99.839116 175.698478 
L 99.949653 175.656538 
L 100.293106 175.546135 
L 100.403642 175.51273 
L 100.65235 175.410592 
L 100.762887 175.369481 
L 101.058967 175.259025 
L 101.169503 175.20681 
L 101.453741 175.096139 
L 101.564277 175.057839 
L 101.895887 174.948757 
L 102.006424 174.906472 
L 102.318295 174.795425 
L 102.428832 174.757374 
L 102.803867 174.64747 
L 102.914403 174.608292 
L 103.222327 174.497467 
L 103.332863 174.453857 
L 103.676316 174.343902 
L 103.786853 174.296324 
L 104.15794 174.185444 
L 104.268477 174.146016 
L 104.552714 174.038556 
L 104.663251 173.993474 
L 104.967226 173.88257 
L 105.077763 173.832335 
L 105.377791 173.721853 
L 105.488328 173.683913 
L 105.847572 173.57372 
L 105.958108 173.533457 
L 106.226555 173.424383 
L 106.337091 173.385481 
L 106.613433 173.2759 
L 106.723969 173.229669 
L 107.008207 173.119396 
L 107.118743 173.073577 
L 107.391137 172.971582 
L 107.501674 172.89193 
L 107.750381 172.784066 
L 107.860918 172.744992 
L 108.156998 172.637494 
L 108.267535 172.595067 
L 108.543876 172.484837 
L 108.654413 172.430931 
L 108.97418 172.320027 
L 109.084716 172.25594 
L 109.376849 172.145729 
L 109.487385 172.099615 
L 109.77557 171.991115 
L 109.886107 171.944765 
L 110.111128 171.837507 
L 110.221664 171.789603 
L 110.501954 171.678929 
L 110.61249 171.631901 
L 110.900675 171.524984 
L 111.011212 171.484766 
L 111.299397 171.375411 
L 111.409933 171.335499 
L 111.650745 171.227584 
L 111.761282 171.193447 
L 112.041571 171.083132 
L 112.152108 171.0422 
L 112.396868 170.932888 
L 112.507404 170.881433 
L 112.795589 170.770393 
L 112.906126 170.709383 
L 113.214049 170.598941 
L 113.324586 170.552437 
L 113.616718 170.44268 
L 113.727255 170.3812 
L 113.948328 170.270322 
L 114.058865 170.227397 
L 114.327311 170.117953 
L 114.437848 170.081503 
L 114.694451 169.971263 
L 114.804987 169.908873 
L 115.065538 169.798629 
L 115.176074 169.74808 
L 115.444521 169.637694 
L 115.555057 169.586683 
L 115.851138 169.475956 
L 115.961674 169.433662 
L 116.186695 169.322944 
L 116.297232 169.264876 
L 116.553835 169.153948 
L 116.664371 169.104351 
L 116.920974 168.994423 
L 117.031511 168.944016 
L 117.355225 168.835343 
L 117.465762 168.787247 
L 117.706574 168.679291 
L 117.817111 168.638278 
L 118.050027 168.528078 
L 118.160564 168.485619 
L 118.389532 168.374729 
L 118.500069 168.322411 
L 118.756672 168.211565 
L 118.867209 168.172231 
L 119.088282 168.062566 
L 119.198819 168.005745 
L 119.396205 167.90005 
L 119.506742 167.832879 
L 119.798875 167.723735 
L 119.909411 167.660959 
L 120.142328 167.550391 
L 120.252864 167.506894 
L 120.481833 167.395814 
L 120.59237 167.351827 
L 120.8016 167.241613 
L 120.912136 167.178016 
L 121.196373 167.068029 
L 121.30691 167.011362 
L 121.563513 166.901452 
L 121.67405 166.850486 
L 121.875384 166.74017 
L 121.985921 166.683189 
L 122.254367 166.573357 
L 122.364904 166.510162 
L 122.609663 166.401095 
L 122.7202 166.351722 
L 122.961012 166.240673 
L 123.071549 166.207366 
L 123.288674 166.097051 
L 123.399211 166.03626 
L 123.651866 165.925535 
L 123.762403 165.871604 
L 123.97558 165.763262 
L 124.086117 165.688331 
L 124.303243 165.581022 
L 124.413779 165.527788 
L 124.591427 165.421472 
L 124.701964 165.36443 
L 124.91909 165.258511 
L 125.029626 165.189975 
L 125.219118 165.079168 
L 125.329654 165.027251 
L 125.534936 164.916727 
L 125.645473 164.859695 
L 125.870494 164.749894 
L 125.981031 164.694805 
L 126.22579 164.586064 
L 126.336327 164.545657 
L 126.596878 164.435395 
L 126.707414 164.374733 
L 126.932435 164.263716 
L 127.042972 164.208008 
L 127.319314 164.096986 
L 127.42985 164.040309 
L 127.650924 163.9312 
L 127.76146 163.878665 
L 127.966743 163.770053 
L 128.077279 163.70374 
L 128.322039 163.594845 
L 128.432575 163.537223 
L 128.693126 163.426396 
L 128.803663 163.347656 
L 129.076057 163.23671 
L 129.186593 163.177808 
L 129.38398 163.067115 
L 129.494517 162.995743 
L 129.703747 162.885338 
L 129.814283 162.840074 
L 130.031409 162.731652 
L 130.141946 162.684433 
L 130.323542 162.573887 
L 130.434078 162.509521 
L 130.643308 162.400402 
L 130.753845 162.332847 
L 131.002552 162.222112 
L 131.113089 162.167007 
L 131.290737 162.059506 
L 131.401274 161.997442 
L 131.618399 161.886529 
L 131.728936 161.810914 
L 131.950009 161.701424 
L 132.060546 161.629311 
L 132.281619 161.518254 
L 132.392156 161.466868 
L 132.597438 161.357222 
L 132.707975 161.288143 
L 132.865884 161.178722 
L 132.976421 161.11668 
L 133.138278 161.006688 
L 133.248815 160.935043 
L 133.458045 160.827222 
L 133.568581 160.762865 
L 133.734386 160.656449 
L 133.844923 160.596442 
L 134.010728 160.489691 
L 134.121265 160.430407 
L 134.291017 160.320644 
L 134.401554 160.267147 
L 134.587098 160.157497 
L 134.697634 160.090726 
L 134.8437 159.980986 
L 134.954237 159.915935 
L 135.139781 159.806017 
L 135.250317 159.717101 
L 135.431913 159.606386 
L 135.54245 159.554325 
L 135.75168 159.44423 
L 135.862217 159.36806 
L 136.039865 159.257183 
L 136.150401 159.19098 
L 136.331997 159.083206 
L 136.442534 159.001295 
L 136.632025 158.890229 
L 136.742562 158.836112 
L 136.939949 158.731392 
L 137.050485 158.654885 
L 137.196552 158.548177 
L 137.307088 158.456057 
L 137.508423 158.346648 
L 137.61896 158.267936 
L 137.75713 158.157134 
L 137.867667 158.083117 
L 138.021629 157.977277 
L 138.132165 157.906929 
L 138.329552 157.796763 
L 138.440089 157.739258 
L 138.613789 157.629795 
L 138.724326 157.531623 
L 138.917765 157.420747 
L 139.028302 157.372296 
L 139.202002 157.261519 
L 139.312539 157.192432 
L 139.474396 157.09967 
L 139.584933 157.024802 
L 139.742842 156.918146 
L 139.853379 156.831469 
L 140.058661 156.731053 
L 140.169198 156.637996 
L 140.311316 156.535541 
L 140.421853 156.456604 
L 140.627135 156.346769 
L 140.737672 156.265347 
L 140.942954 156.158122 
L 141.053491 156.068108 
L 141.2114 155.957384 
L 141.321937 155.880136 
L 141.523272 155.772324 
L 141.633808 155.69661 
L 141.854881 155.587497 
L 141.965418 155.499037 
L 142.123328 155.388338 
L 142.233864 155.303755 
L 142.403617 155.193253 
L 142.514154 155.134874 
L 142.695749 155.031757 
L 142.806286 154.938543 
L 142.944457 154.831601 
L 143.054994 154.752008 
L 143.248433 154.640951 
L 143.358969 154.563454 
L 143.516879 154.45313 
L 143.627415 154.368398 
L 143.769534 154.260394 
L 143.880071 154.20988 
L 144.077457 154.098843 
L 144.187994 154.028034 
L 144.33406 153.918636 
L 144.444597 153.843682 
L 144.638036 153.738549 
L 144.748573 153.651153 
L 144.890691 153.542408 
L 145.001228 153.470038 
L 145.174928 153.365192 
L 145.285465 153.28672 
L 145.455218 153.178598 
L 145.565754 153.109271 
L 145.719716 153.001229 
L 145.830253 152.91819 
L 145.960528 152.81502 
L 146.071065 152.730651 
L 146.225026 152.625482 
L 146.335563 152.536201 
L 146.505316 152.426076 
L 146.615852 152.349223 
L 146.769814 152.238923 
L 146.880351 152.144363 
L 147.07379 152.034248 
L 147.184326 151.951396 
L 147.306706 151.841137 
L 147.417243 151.774144 
L 147.563309 151.67446 
L 147.673846 151.582079 
L 147.831755 151.471756 
L 147.942292 151.391418 
L 148.108097 151.281344 
L 148.218634 151.181093 
L 148.404177 151.070189 
L 148.514714 151.000099 
L 148.680519 150.891049 
L 148.791055 150.792399 
L 148.945017 150.683414 
L 149.055554 150.589423 
L 149.16609 150.486714 
L 149.276627 150.385591 
L 149.422693 150.274582 
L 149.53323 150.165494 
L 149.679296 150.058273 
L 149.789833 149.998958 
L 149.947742 149.88819 
L 150.058279 149.789101 
L 150.204345 149.685872 
L 150.314882 149.595108 
L 150.449105 149.484077 
L 150.559642 149.401678 
L 150.697812 149.299985 
L 150.808349 149.218702 
L 150.966259 149.111675 
L 151.076795 149.034805 
L 151.238652 148.923948 
L 151.349189 148.841873 
L 151.514994 148.733757 
L 151.625531 148.621233 
L 151.78344 148.51404 
L 151.893977 148.42331 
L 152.0282 148.312378 
L 152.138736 148.23399 
L 152.27296 148.1247 
L 152.383496 148.021961 
L 152.53351 147.911762 
L 152.644047 147.765078 
L 152.786165 147.661228 
L 152.896702 147.563445 
L 153.030925 147.454507 
L 153.141462 147.344607 
L 153.299371 147.234907 
L 153.409908 147.147045 
L 153.559922 147.039624 
L 153.670458 146.961018 
L 153.832316 146.850445 
L 153.942852 146.77387 
L 154.096814 146.664058 
L 154.207351 146.577467 
L 154.341574 146.466431 
L 154.45211 146.376928 
L 154.602124 146.265911 
L 154.712661 146.156887 
L 154.902152 146.045996 
L 155.012689 145.96081 
L 155.127173 145.854738 
L 155.23771 145.751037 
L 155.352194 145.65014 
L 155.462731 145.557742 
L 155.585111 145.448785 
L 155.695648 145.370998 
L 155.810132 145.265008 
L 155.920669 145.179005 
L 156.066735 145.068164 
L 156.177271 144.978842 
L 156.335181 144.867981 
L 156.445718 144.741305 
L 156.607575 144.630685 
L 156.718111 144.532139 
L 156.844439 144.421478 
L 156.954976 144.321787 
L 157.10499 144.213462 
L 157.215526 144.10154 
L 157.322115 143.994198 
L 157.432652 143.907161 
L 157.578718 143.797179 
L 157.689255 143.719051 
L 157.811635 143.617705 
L 157.922171 143.501449 
L 158.016917 143.399179 
L 158.127454 143.301274 
L 158.245886 143.194587 
L 158.356422 143.090941 
L 158.470907 142.981274 
L 158.581443 142.88129 
L 158.735405 142.773173 
L 158.845942 142.660715 
L 159.003851 142.556124 
L 159.114388 142.449271 
L 159.193343 142.357508 
L 159.303879 142.225892 
L 159.426259 142.115312 
L 159.536796 141.971812 
L 159.65128 141.864677 
L 159.761817 141.759892 
L 159.856562 141.649874 
L 159.967099 141.558407 
L 160.061845 141.448505 
L 160.172381 141.362873 
L 160.275022 141.256328 
L 160.385559 141.140518 
L 160.511887 141.036407 
L 160.622423 140.939538 
L 160.752699 140.829995 
L 160.863235 140.680526 
L 160.981667 140.571831 
L 161.092204 140.463056 
L 161.242218 140.352139 
L 161.352755 140.286535 
L 161.494873 140.177364 
L 161.60541 140.100753 
L 161.739633 140.001356 
L 161.85017 139.921229 
L 161.976497 139.811015 
L 162.087034 139.696677 
L 162.189675 139.586936 
L 162.300212 139.486723 
L 162.422591 139.376703 
L 162.533128 139.293732 
L 162.639717 139.185547 
L 162.750254 139.084979 
L 162.888424 138.976403 
L 162.998961 138.846361 
L 163.089759 138.735931 
L 163.200296 138.608403 
L 163.334519 138.500728 
L 163.445055 138.408304 
L 163.555592 138.300672 
L 163.666129 138.20614 
L 163.788508 138.096709 
L 163.899045 137.997641 
L 164.021425 137.888581 
L 164.131962 137.762179 
L 164.242498 137.652696 
L 164.353035 137.549373 
L 164.495153 137.441423 
L 164.60569 137.334106 
L 164.704383 137.232715 
L 164.81492 137.122986 
L 164.964934 137.0168 
L 165.075471 136.902496 
L 165.174164 136.796485 
L 165.284701 136.662536 
L 165.371551 136.553014 
L 165.482088 136.436117 
L 165.612363 136.326113 
L 165.7229 136.218444 
L 165.853175 136.10864 
L 165.963712 136.012412 
L 166.050562 135.913885 
L 166.161098 135.803401 
L 166.275583 135.693723 
L 166.386119 135.570952 
L 166.500604 135.459994 
L 166.61114 135.368737 
L 166.737468 135.257959 
L 166.848005 135.146628 
L 166.97828 135.041813 
L 167.088817 134.918108 
L 167.226987 134.813889 
L 167.337524 134.683416 
L 167.467799 134.572633 
L 167.578336 134.461323 
L 167.69282 134.359096 
L 167.803357 134.215822 
L 167.913894 134.109611 
L 168.02443 133.975546 
L 168.131019 133.864777 
L 168.241556 133.725861 
L 168.332354 133.621619 
L 168.44289 133.508137 
L 168.553427 133.398177 
L 168.663964 133.272547 
L 168.786344 133.162236 
L 168.89688 133.043518 
L 169.015312 132.933178 
L 169.125849 132.794025 
L 169.208751 132.685654 
L 169.319288 132.569512 
L 169.417981 132.459823 
L 169.528518 132.313853 
L 169.615368 132.204373 
L 169.725905 132.140179 
L 169.828546 132.031223 
L 169.939083 131.916193 
L 170.025933 131.81109 
L 170.13647 131.640505 
L 170.219372 131.530162 
L 170.329909 131.434435 
L 170.424654 131.323466 
L 170.535191 131.174107 
L 170.645728 131.077512 
L 170.756264 130.902006 
L 170.843115 130.791385 
L 170.953651 130.681388 
L 171.068136 130.57094 
L 171.178672 130.434182 
L 171.289209 130.333381 
L 171.399745 130.202908 
L 171.510282 130.097761 
L 171.620819 129.970833 
L 171.707669 129.860443 
L 171.818206 129.72712 
L 171.920847 129.621934 
L 172.031383 129.472367 
L 172.122181 129.373687 
L 172.232718 129.206022 
L 172.319568 129.095389 
L 172.430105 128.949126 
L 172.540641 128.842244 
L 172.651178 128.747445 
L 172.753819 128.642881 
L 172.864356 128.456369 
L 172.955154 128.351511 
L 173.065691 128.187955 
L 173.180175 128.077879 
L 173.290712 127.963866 
L 173.373614 127.855024 
L 173.484151 127.73081 
L 173.571001 127.623184 
L 173.681538 127.433835 
L 173.76444 127.325854 
L 173.874977 127.217825 
L 173.961827 127.121648 
L 174.072363 126.959535 
L 174.178952 126.850817 
L 174.289489 126.666524 
L 174.415817 126.557563 
L 174.526353 126.414777 
L 174.632942 126.307466 
L 174.743479 126.150374 
L 174.857963 126.050876 
L 174.9685 125.851116 
L 175.086932 125.740391 
L 175.197469 125.614749 
L 175.26458 125.524539 
L 175.375117 125.276206 
L 175.513287 125.177369 
L 175.623824 125.011231 
L 175.730413 124.901974 
L 175.84095 124.712742 
L 175.935695 124.607185 
L 176.046232 124.475315 
L 176.129134 124.368423 
L 176.239671 124.206531 
L 176.31073 124.099635 
L 176.421267 123.936028 
L 176.516013 123.829506 
L 176.626549 123.693073 
L 176.701556 123.586642 
L 176.812093 123.406585 
L 176.898943 123.29555 
L 177.00948 123.146262 
L 177.100278 123.038923 
L 177.210814 122.896351 
L 177.313456 122.787333 
L 177.423992 122.604761 
L 177.518738 122.494258 
L 177.629275 122.359509 
L 177.696386 122.25056 
L 177.806923 122.10393 
L 177.897721 121.995148 
L 178.008257 121.807852 
L 178.09116 121.70336 
L 178.201696 121.550599 
L 178.280651 121.441331 
L 178.391188 121.325576 
L 178.458299 121.220053 
L 178.568836 121.053841 
L 178.639895 120.944553 
L 178.750432 120.763299 
L 178.833334 120.6628 
L 178.943871 120.527625 
L 179.01493 120.422809 
L 179.125467 120.206691 
L 179.220213 120.097735 
L 179.330749 119.925688 
L 179.401808 119.814713 
L 179.512345 119.593544 
L 179.587352 119.490413 
L 179.697889 119.256287 
L 179.784739 119.151073 
L 179.895276 118.950753 
L 179.97423 118.844987 
L 180.084767 118.67253 
L 180.136088 118.572213 
L 180.246624 118.38 
L 180.353213 118.276037 
L 180.46375 118.140662 
L 180.534809 118.030225 
L 180.645346 117.853013 
L 180.712457 117.748753 
L 180.822994 117.586631 
L 180.909844 117.475592 
L 181.020381 117.340659 
L 181.107231 117.247995 
L 181.217768 117.00611 
L 181.269088 116.905182 
L 181.379625 116.662187 
L 181.466475 116.551627 
L 181.577012 116.34745 
L 181.659914 116.244845 
L 181.770451 116.026728 
L 181.849405 115.92514 
L 181.959942 115.775491 
L 182.058636 115.665577 
L 182.169172 115.470723 
L 182.256022 115.359685 
L 182.366559 115.215909 
L 182.453409 115.105894 
L 182.563946 114.969867 
L 182.666587 114.862405 
L 182.777124 114.676664 
L 182.844235 114.576084 
L 182.954772 114.406087 
L 183.002145 114.29862 
L 183.112681 114.148932 
L 183.175845 114.046684 
L 183.286382 113.881964 
L 183.34165 113.778753 
L 183.452187 113.518028 
L 183.558776 113.40989 
L 183.669312 113.250848 
L 183.771953 113.141794 
L 183.88249 112.938125 
L 183.945654 112.827619 
L 184.05619 112.69619 
L 184.139093 112.58801 
L 184.24963 112.392489 
L 184.308846 112.286117 
L 184.419382 112.054874 
L 184.514128 111.946403 
L 184.624665 111.780334 
L 184.707567 111.672625 
L 184.818104 111.50402 
L 184.908902 111.393754 
L 185.019438 111.215269 
L 185.078654 111.105934 
L 185.189191 110.898953 
L 185.26025 110.797397 
L 185.370787 110.597701 
L 185.449742 110.491988 
L 185.560278 110.275452 
L 185.615547 110.174782 
L 185.726083 109.97576 
L 185.808986 109.867369 
L 185.919522 109.719165 
L 185.966895 109.619125 
L 186.077432 109.423015 
L 186.160334 109.331374 
L 186.270871 109.130419 
L 186.326139 109.030249 
L 186.436676 108.887303 
L 186.519578 108.782083 
L 186.630115 108.504768 
L 186.677488 108.396724 
L 186.788024 108.201771 
L 186.847241 108.118785 
L 186.957777 107.892474 
L 187.056471 107.781641 
L 187.167007 107.629764 
L 187.265701 107.523927 
L 187.376237 107.348266 
L 187.45914 107.23984 
L 187.569676 107.056756 
L 187.624945 106.95704 
L 187.735481 106.797158 
L 187.794697 106.689264 
L 187.905234 106.484473 
L 187.944711 106.375404 
L 188.055248 106.177165 
L 188.12236 106.068974 
L 188.232896 105.864656 
L 188.315799 105.75536 
L 188.426335 105.538864 
L 188.481604 105.444107 
L 188.59214 105.269883 
L 188.647409 105.158827 
L 188.757945 104.957379 
L 188.809266 104.854764 
L 188.919803 104.645181 
L 188.982966 104.539918 
L 189.093503 104.379217 
L 189.176405 104.269818 
L 189.286942 104.078347 
L 189.37774 103.973042 
L 189.488277 103.730189 
L 189.559336 103.619343 
L 189.669873 103.409107 
L 189.717245 103.301521 
L 189.827782 103.121025 
L 189.890946 103.014266 
L 190.001482 102.827443 
L 190.064646 102.719427 
L 190.175183 102.51682 
L 190.258085 102.411752 
L 190.368622 102.194786 
L 190.42389 102.093845 
L 190.534427 101.843224 
L 190.601538 101.733392 
L 190.712075 101.548854 
L 190.759448 101.442949 
L 190.869985 101.237378 
L 190.933148 101.137389 
L 191.043685 100.921655 
L 191.102901 100.84043 
L 191.213438 100.545258 
L 191.272654 100.440188 
L 191.38319 100.271797 
L 191.45425 100.165686 
L 191.564786 99.93862 
L 191.616107 99.827765 
L 191.726644 99.617468 
L 191.777964 99.508848 
L 191.888501 99.313503 
L 191.95956 99.205515 
L 192.070097 98.988225 
L 192.105626 98.898713 
L 192.216163 98.661208 
L 192.259588 98.5506 
L 192.370125 98.325078 
L 192.421445 98.24106 
L 192.531982 98.019572 
L 192.579355 97.909894 
L 192.689891 97.706855 
L 192.741212 97.609207 
L 192.851749 97.32908 
L 192.887278 97.219015 
L 192.997815 96.888997 
L 193.049135 96.783825 
L 193.159672 96.537331 
L 193.207045 96.427956 
L 193.317582 96.166734 
L 193.361007 96.059562 
L 193.471543 95.691823 
L 193.534707 95.606598 
L 193.645244 95.418368 
L 193.708408 95.308038 
L 193.818944 95.092357 
L 193.890003 94.995749 
L 194.00054 94.825501 
L 194.051861 94.72036 
L 194.162397 94.459801 
L 194.213718 94.352717 
L 194.324255 94.08303 
L 194.399262 93.979845 
L 194.509798 93.751373 
L 194.565066 93.649247 
L 194.675603 93.284576 
L 194.726924 93.189988 
L 194.83746 93.024814 
L 194.884833 92.926976 
L 194.99537 92.615104 
L 195.04669 92.508278 
L 195.157227 92.227861 
L 195.236182 92.121233 
L 195.346718 91.913572 
L 195.409882 91.816598 
L 195.520419 91.530964 
L 195.571739 91.432002 
L 195.682276 91.241661 
L 195.769126 91.132272 
L 195.879663 90.97004 
L 195.934931 90.868511 
L 196.045468 90.585464 
L 196.096788 90.479465 
L 196.207325 90.289446 
L 196.262593 90.179379 
L 196.37313 89.979472 
L 196.420503 89.870335 
L 196.53104 89.711688 
L 196.598151 89.60438 
L 196.708688 89.42797 
L 196.79159 89.320338 
L 196.902127 89.004292 
L 196.973186 88.901233 
L 197.083723 88.678654 
L 197.150834 88.589469 
L 197.261371 88.320033 
L 197.304796 88.215036 
L 197.415333 87.98264 
L 197.470601 87.872179 
L 197.581138 87.667532 
L 197.644301 87.557173 
L 197.754838 87.316206 
L 197.790368 87.226031 
L 197.900904 86.905201 
L 197.936434 86.79479 
L 198.046971 86.485875 
L 198.094343 86.408789 
L 198.20488 86.177927 
L 198.24041 86.074297 
L 198.350946 85.769746 
L 198.425953 85.659062 
L 198.53649 85.310305 
L 198.579915 85.210702 
L 198.690452 84.971589 
L 198.74572 84.861987 
L 198.856257 84.574424 
L 198.947055 84.464196 
L 199.057591 84.161503 
L 199.116807 84.057285 
L 199.227344 83.854795 
L 199.266821 83.747771 
L 199.377358 83.42315 
L 199.416835 83.314982 
L 199.527372 83.0685 
L 199.586588 82.972162 
L 199.697125 82.705938 
L 199.756341 82.607213 
L 199.866877 82.351157 
L 199.906355 82.248201 
L 200.016891 81.939112 
L 200.064264 81.845011 
L 200.174801 81.519609 
L 200.202435 81.430436 
L 200.312972 81.109154 
L 200.380083 80.999957 
L 200.49062 80.690457 
L 200.553784 80.590373 
L 200.66432 80.300448 
L 200.707745 80.203476 
L 200.818282 79.902475 
L 200.881446 79.79552 
L 200.991982 79.524966 
L 201.078833 79.416453 
L 201.189369 79.054062 
L 201.252533 78.950838 
L 201.36307 78.615341 
L 201.410443 78.506783 
L 201.520979 78.252936 
L 201.580195 78.143146 
L 201.690732 77.972916 
L 201.757843 77.866442 
L 201.86838 77.591456 
L 201.939439 77.488782 
L 202.049976 77.17469 
L 202.105244 77.069279 
L 202.215781 76.712382 
L 202.267101 76.633059 
L 202.377638 76.319674 
L 202.417115 76.212708 
L 202.527652 75.834801 
L 202.575025 75.750824 
L 202.685562 75.438862 
L 202.744778 75.32776 
L 202.855314 75.094891 
L 202.91453 74.987643 
L 203.025067 74.717629 
L 203.056649 74.609759 
L 203.167186 74.114939 
L 203.234297 74.016554 
L 203.344834 73.706097 
L 203.407997 73.597742 
L 203.518534 73.256819 
L 203.569855 73.146525 
L 203.680391 72.747454 
L 203.70013 72.638502 
L 203.810667 72.320147 
L 203.858039 72.217005 
L 203.968576 71.867754 
L 204.012001 71.763365 
L 204.122538 71.427959 
L 204.173858 71.325467 
L 204.284395 71.013016 
L 204.343611 70.90764 
L 204.454148 70.623056 
L 204.497573 70.527749 
L 204.60811 70.094102 
L 204.663378 69.992384 
L 204.773914 69.717589 
L 204.809444 69.613903 
L 204.919981 69.261559 
L 204.951563 69.151333 
L 205.062099 68.814575 
L 205.101577 68.735833 
L 205.212113 68.444314 
L 205.231852 68.384885 
L 205.342389 67.978971 
L 205.370023 67.871114 
L 205.480559 67.448094 
L 205.523985 67.346389 
L 205.634521 67.089825 
L 205.662155 67.032709 
L 205.772692 66.655933 
L 205.824013 66.545578 
L 205.934549 66.37651 
L 205.997713 66.267116 
L 206.10825 65.954519 
L 206.143779 65.846585 
L 206.254316 65.604684 
L 206.301689 65.493674 
L 206.412225 65.232313 
L 206.463546 65.126828 
L 206.574083 64.769053 
L 206.625403 64.664687 
L 206.73594 64.354682 
L 206.806999 64.267833 
L 206.917536 63.973693 
L 206.957013 63.86397 
L 207.06755 63.401417 
L 207.095184 63.297417 
L 207.205721 62.993083 
L 207.260989 62.895036 
L 207.371525 62.449586 
L 207.39916 62.356846 
L 207.509696 61.933705 
L 207.557069 61.839205 
L 207.667606 61.494977 
L 207.711031 61.393012 
L 207.821567 61.017281 
L 207.864993 60.914282 
L 207.975529 60.548824 
L 208.011059 60.438244 
L 208.121595 60.028496 
L 208.188707 59.919163 
L 208.299244 59.588858 
L 208.330826 59.496606 
L 208.441362 59.143294 
L 208.476892 59.044957 
L 208.587428 58.620855 
L 208.626906 58.52057 
L 208.737442 58.021547 
L 208.780868 57.933795 
L 208.86377 57.5848 
L 208.954568 57.4748 
L 209.065105 57.190543 
L 209.116425 57.104628 
L 209.226962 56.760546 
L 209.246701 56.685363 
L 209.357237 56.267089 
L 209.392767 56.160641 
L 209.503303 55.792972 
L 209.530938 55.684278 
L 209.641474 55.2887 
L 209.684899 55.187586 
L 209.795436 54.683608 
L 209.827018 54.617024 
L 209.937555 54.346625 
L 209.973084 54.239559 
L 210.083621 53.805184 
L 210.091516 53.736479 
L 210.202053 53.328609 
L 210.229687 53.254823 
L 210.340224 52.868869 
L 210.375753 52.772591 
L 210.48629 52.425733 
L 210.513924 52.334461 
L 210.624461 51.961796 
L 210.671834 51.858017 
L 210.78237 51.473922 
L 210.829743 51.369947 
L 210.94028 51.092037 
L 210.960018 50.990967 
L 211.070555 50.57122 
L 211.11398 50.464818 
L 211.224517 50.091945 
L 211.295576 49.98399 
L 211.406113 49.452064 
L 211.449538 49.345091 
L 211.560074 48.878319 
L 211.591656 48.768059 
L 211.702193 48.45585 
L 211.733775 48.351494 
L 211.844312 47.973185 
L 211.891684 47.879602 
L 212.002221 47.321114 
L 212.02196 47.227846 
L 212.132496 46.864558 
L 212.171974 46.761356 
L 212.28251 46.190976 
L 212.329883 46.108853 
L 212.44042 45.462637 
L 212.464106 45.372843 
L 212.574643 44.776099 
L 212.590434 44.687509 
L 212.693075 44.400798 
L 212.775977 44.297188 
L 212.886514 43.751728 
L 212.906253 43.645536 
L 213.016789 43.150381 
L 213.087849 43.04406 
L 213.198385 42.474495 
L 213.233915 42.364781 
L 213.344452 41.788916 
L 213.352347 41.71103 
L 213.462884 40.989871 
L 213.490518 40.892992 
L 213.601055 40.405755 
L 213.640532 40.297149 
L 213.751069 39.796738 
L 213.770807 39.687916 
L 213.881344 39.258581 
L 213.944508 39.160371 
L 214.055044 38.634881 
L 214.082678 38.527017 
L 214.193215 37.798275 
L 214.212954 37.691809 
L 214.32349 37.193075 
L 214.351125 37.121081 
L 214.461661 36.427725 
L 214.4814 36.367662 
L 214.591937 35.68232 
L 214.627466 35.615263 
L 214.738003 35.141835 
L 214.773532 35.039744 
L 214.884069 34.554863 
L 214.907755 34.480385 
L 215.018292 33.852858 
L 215.041979 33.746119 
L 215.152515 33.094637 
L 215.176202 32.988506 
L 215.286738 32.393157 
L 215.306477 32.297982 
L 215.417014 31.681512 
L 215.444648 31.608034 
L 215.555184 30.878246 
L 215.578871 30.781675 
L 215.689407 30.319668 
L 215.717042 30.226602 
L 215.827578 29.624533 
L 215.855212 29.524897 
L 215.965749 29.11879 
L 215.989435 29.009929 
L 216.099972 28.487062 
L 216.131554 28.381874 
L 216.242091 27.746271 
L 216.269725 27.660477 
L 216.380261 27.044428 
L 216.403948 26.947416 
L 216.514484 26.584626 
L 216.526328 26.479541 
L 216.636864 25.698219 
L 216.656603 25.596705 
L 216.76714 25.015143 
L 216.810565 24.912734 
L 216.921101 24.519415 
L 216.972422 24.409671 
L 217.082959 24.033602 
L 217.106645 23.932712 
L 217.217182 23.384751 
L 217.248764 23.290879 
L 217.3593 22.780878 
L 217.382987 22.671013 
L 217.493523 22.032026 
L 217.51721 21.928177 
L 217.627746 21.305202 
L 217.659328 21.208247 
L 217.769865 20.764675 
L 217.789604 20.687371 
L 217.90014 20.298095 
L 217.931722 20.227186 
L 218.042259 19.604841 
L 218.089632 19.496107 
L 218.200168 18.95672 
L 218.247541 18.845859 
L 218.358078 18.275617 
L 218.381764 18.200698 
L 218.480458 17.745154 
L 218.512039 17.644535 
L 218.622576 16.940192 
L 218.630472 16.855519 
L 218.741008 16.527228 
L 218.768642 16.423714 
L 218.879179 15.650767 
L 218.906813 15.545273 
L 219.01735 14.867878 
L 219.037088 14.771451 
L 219.147625 14.234155 
L 219.175259 14.168524 
L 219.281848 13.64502 
L 219.317378 13.556357 
L 219.427914 12.927546 
L 219.439758 12.90927 
L 219.550294 11.840865 
L 219.581876 11.784776 
L 219.625301 2.208291 
L 219.625301 2.208291 
" clip-path="url(#p2e730c0e6c)" style="fill: none; stroke: #67c7d5; stroke-width: 1.5; stroke-linecap: square"/>
   </g>
   <g id="line2d_14">
    <path d="M 43.78125 195.634396 
L 43.785198 195.634396 
L 43.895734 186.825018 
L 44.503686 186.71437 
L 44.614223 186.696366 
L 45.518254 186.585494 
L 45.628791 186.566957 
L 46.60783 186.456426 
L 46.718366 186.436224 
L 47.535548 186.327393 
L 47.646085 186.291843 
L 48.250088 186.182338 
L 48.360625 186.152414 
L 48.976472 186.041575 
L 49.063322 186.024121 
L 49.734437 185.913469 
L 49.844974 185.88276 
L 50.385814 185.771743 
L 50.496351 185.746009 
L 51.120093 185.635253 
L 51.23063 185.613434 
L 51.696463 185.502822 
L 51.806999 185.470632 
L 52.347839 185.359847 
L 52.458376 185.327864 
L 52.762352 185.220718 
L 52.85315 185.201263 
L 53.295296 185.090327 
L 53.405833 185.066234 
L 53.824293 184.956168 
L 53.93483 184.917951 
L 54.361185 184.807283 
L 54.471722 184.784206 
L 54.882287 184.677494 
L 54.977032 184.646786 
L 55.375754 184.535953 
L 55.48629 184.506841 
L 55.857378 184.397727 
L 55.967914 184.366593 
L 56.374531 184.257328 
L 56.485068 184.224779 
L 56.875894 184.115019 
L 56.98643 184.08639 
L 57.274615 183.976978 
L 57.385152 183.933199 
L 57.862828 183.82224 
L 57.973365 183.784791 
L 58.308922 183.674909 
L 58.419459 183.644717 
L 58.877396 183.535016 
L 58.987933 183.50546 
L 59.351125 183.396809 
L 59.461662 183.347414 
L 59.72616 183.242023 
L 59.836697 183.193559 
L 60.263052 183.083264 
L 60.369641 183.035624 
L 60.669669 182.928121 
L 60.780206 182.884644 
L 61.107868 182.774899 
L 61.218405 182.713798 
L 61.506589 182.604405 
L 61.617126 182.56633 
L 61.921102 182.456707 
L 62.031638 182.423871 
L 62.27245 182.31333 
L 62.382987 182.264974 
L 62.647485 182.154095 
L 62.758022 182.109007 
L 63.046207 181.998249 
L 63.156743 181.956981 
L 63.405451 181.848024 
L 63.515987 181.788873 
L 63.812068 181.681509 
L 63.922604 181.612931 
L 64.159469 181.502735 
L 64.270005 181.462027 
L 64.621354 181.354319 
L 64.731891 181.2937 
L 65.020075 181.182878 
L 65.130612 181.14416 
L 65.403006 181.03377 
L 65.513542 180.983368 
L 65.81357 180.878708 
L 65.924107 180.826957 
L 66.192553 180.716134 
L 66.30309 180.659708 
L 66.539954 180.549121 
L 66.650491 180.492721 
L 66.89525 180.383082 
L 67.005787 180.324389 
L 67.250547 180.218388 
L 67.361083 180.151754 
L 67.590052 180.041837 
L 67.700589 179.993575 
L 67.92561 179.882776 
L 68.036146 179.817423 
L 68.296697 179.708942 
L 68.407234 179.653213 
L 68.624359 179.544433 
L 68.734896 179.503808 
L 68.979656 179.395624 
L 69.090192 179.328032 
L 69.295475 179.217726 
L 69.386272 179.156921 
L 69.654719 179.05051 
L 69.765255 178.995254 
L 70.021858 178.884929 
L 70.132395 178.814518 
L 70.377154 178.703729 
L 70.487691 178.638426 
L 70.712712 178.529009 
L 70.823249 178.460689 
L 71.020636 178.349755 
L 71.131172 178.295295 
L 71.395671 178.187557 
L 71.506207 178.125719 
L 71.723333 178.017655 
L 71.833869 177.962453 
L 72.011518 177.855616 
L 72.122054 177.785874 
L 72.378657 177.675067 
L 72.489194 177.609869 
L 72.666842 177.499363 
L 72.777379 177.433019 
L 73.014243 177.322682 
L 73.124779 177.239734 
L 73.337957 177.129505 
L 73.448494 177.071075 
L 73.728783 176.960462 
L 73.83932 176.887265 
L 74.028811 176.778808 
L 74.139348 176.696736 
L 74.352526 176.5857 
L 74.463062 176.490248 
L 74.64071 176.381211 
L 74.751247 176.323756 
L 74.932843 176.217654 
L 75.04338 176.164167 
L 75.232871 176.054622 
L 75.343408 175.99123 
L 75.54869 175.884667 
L 75.659227 175.820742 
L 75.896091 175.710647 
L 76.006628 175.660776 
L 76.188223 175.550418 
L 76.29876 175.450135 
L 76.50799 175.339027 
L 76.618527 175.285418 
L 76.788279 175.1745 
L 76.894868 175.133218 
L 77.056726 175.023358 
L 77.167262 174.962204 
L 77.388335 174.851557 
L 77.498872 174.799112 
L 77.727841 174.688517 
L 77.838377 174.614157 
L 78.04366 174.504357 
L 78.154196 174.439272 
L 78.387113 174.331996 
L 78.49765 174.273826 
L 78.687141 174.165758 
L 78.797678 174.0999 
L 78.999012 173.990561 
L 79.109549 173.92768 
L 79.29904 173.817739 
L 79.409577 173.757187 
L 79.626702 173.646739 
L 79.737239 173.583862 
L 79.895148 173.47303 
L 80.005685 173.385817 
L 80.183333 173.278157 
L 80.29387 173.217952 
L 80.463623 173.108064 
L 80.574159 173.028442 
L 80.767598 172.919042 
L 80.878135 172.83352 
L 81.087365 172.723973 
L 81.197902 172.628257 
L 81.336073 172.524622 
L 81.446609 172.463499 
L 81.600571 172.352513 
L 81.711108 172.269498 
L 81.908494 172.159484 
L 82.019031 172.087865 
L 82.169045 171.97741 
L 82.279582 171.899974 
L 82.473021 171.792026 
L 82.583557 171.716084 
L 82.745415 171.605917 
L 82.855951 171.511998 
L 83.021756 171.408226 
L 83.132293 171.318441 
L 83.317837 171.208401 
L 83.428373 171.104364 
L 83.59023 170.994047 
L 83.700767 170.926387 
L 83.831042 170.816582 
L 83.941579 170.769595 
L 84.127123 170.659958 
L 84.237659 170.591746 
L 84.446889 170.481048 
L 84.557426 170.440424 
L 84.723231 170.335585 
L 84.833768 170.235776 
L 84.995625 170.124993 
L 85.106161 170.049175 
L 85.315391 169.9391 
L 85.425928 169.85901 
L 85.607524 169.74978 
L 85.718061 169.657779 
L 85.872022 169.546819 
L 85.982559 169.464381 
L 86.164155 169.358626 
L 86.270744 169.265783 
L 86.472078 169.155405 
L 86.582615 169.069451 
L 86.74842 168.959624 
L 86.858957 168.868496 
L 87.040553 168.757701 
L 87.151089 168.648011 
L 87.340581 168.537452 
L 87.451117 168.476522 
L 87.628765 168.372881 
L 87.739302 168.308557 
L 87.924846 168.200873 
L 88.035382 168.118538 
L 88.240665 168.009738 
L 88.351201 167.917969 
L 88.497268 167.819824 
L 88.607804 167.719815 
L 88.757818 167.611182 
L 88.868355 167.529151 
L 89.057846 167.418707 
L 89.168383 167.339726 
L 89.302606 167.229456 
L 89.413143 167.14749 
L 89.567104 167.038646 
L 89.677641 166.958869 
L 89.87108 166.849588 
L 89.981617 166.781892 
L 90.206638 166.674241 
L 90.317174 166.598497 
L 90.431659 166.488588 
L 90.542195 166.417454 
L 90.704053 166.316285 
L 90.814589 166.240359 
L 90.944864 166.130167 
L 91.055401 166.03446 
L 91.185676 165.942037 
L 91.296213 165.864127 
L 91.473861 165.753418 
L 91.584398 165.671605 
L 91.742307 165.565819 
L 91.852844 165.461397 
L 92.022597 165.351219 
L 92.133133 165.245123 
L 92.314729 165.136488 
L 92.425266 165.059405 
L 92.535803 164.951623 
L 92.646339 164.872126 
L 92.82004 164.765602 
L 92.930576 164.67996 
L 93.120068 164.569759 
L 93.230604 164.501059 
L 93.404305 164.392246 
L 93.514841 164.285274 
L 93.660908 164.184399 
L 93.771444 164.086941 
L 93.925406 163.979476 
L 94.035943 163.889226 
L 94.193852 163.77942 
L 94.304389 163.685782 
L 94.478089 163.581716 
L 94.588626 163.504006 
L 94.778117 163.39738 
L 94.888654 163.306056 
L 95.066302 163.200054 
L 95.176839 163.062838 
L 95.307114 162.956777 
L 95.417651 162.869398 
L 95.591351 162.765023 
L 95.682149 162.667387 
L 95.859797 162.560814 
L 95.970334 162.466491 
L 96.128243 162.361013 
L 96.23878 162.287986 
L 96.400637 162.178424 
L 96.511174 162.054861 
L 96.637501 161.94401 
L 96.748038 161.880189 
L 96.874366 161.769785 
L 96.984902 161.660284 
L 97.127021 161.551638 
L 97.237557 161.432166 
L 97.415206 161.324794 
L 97.525742 161.249474 
L 97.711286 161.140106 
L 97.821822 161.059199 
L 97.963941 160.95234 
L 98.074478 160.848273 
L 98.200805 160.740281 
L 98.311342 160.637458 
L 98.445565 160.528875 
L 98.556102 160.436732 
L 98.686377 160.328639 
L 98.796913 160.222434 
L 98.966666 160.112568 
L 99.077203 160.025601 
L 99.235112 159.91896 
L 99.345649 159.822732 
L 99.491715 159.71482 
L 99.602252 159.647733 
L 99.752266 159.541612 
L 99.862802 159.438401 
L 100.028607 159.329703 
L 100.139144 159.249067 
L 100.237837 159.141228 
L 100.348374 159.049721 
L 100.518127 158.939445 
L 100.628663 158.878113 
L 100.794468 158.771852 
L 100.905005 158.680519 
L 101.066862 158.569649 
L 101.177399 158.494022 
L 101.319517 158.386073 
L 101.430054 158.284473 
L 101.587964 158.175832 
L 101.6985 158.034415 
L 101.816932 157.937575 
L 101.927469 157.846194 
L 102.061692 157.739521 
L 102.172229 157.624512 
L 102.282765 157.516876 
L 102.393302 157.414336 
L 102.507786 157.316623 
L 102.618323 157.206632 
L 102.760441 157.097833 
L 102.870978 156.979577 
L 103.02494 156.873976 
L 103.135476 156.805851 
L 103.242065 156.702397 
L 103.352602 156.637652 
L 103.47893 156.535301 
L 103.589466 156.419934 
L 103.794749 156.314789 
L 103.905285 156.214109 
L 104.023717 156.105775 
L 104.134254 156.012844 
L 104.343484 155.904398 
L 104.454021 155.825639 
L 104.607982 155.714971 
L 104.718519 155.59588 
L 104.900115 155.485221 
L 105.010652 155.404558 
L 105.129084 155.293523 
L 105.23962 155.191341 
L 105.377791 155.081169 
L 105.488328 154.986033 
L 105.587021 154.886834 
L 105.697558 154.764907 
L 105.827833 154.653841 
L 105.93837 154.590048 
L 106.048906 154.482799 
L 106.159443 154.367567 
L 106.250241 154.257138 
L 106.360778 154.16273 
L 106.475262 154.058042 
L 106.585799 153.949313 
L 106.73976 153.851209 
L 106.850297 153.752048 
L 107.02005 153.643015 
L 107.130586 153.536264 
L 107.249018 153.427815 
L 107.359555 153.32348 
L 107.509569 153.212824 
L 107.620106 153.107573 
L 107.754329 153.006004 
L 107.864865 152.885635 
L 107.983298 152.775414 
L 108.093834 152.690434 
L 108.18858 152.580934 
L 108.299117 152.506496 
L 108.453078 152.404543 
L 108.563615 152.314484 
L 108.69389 152.204868 
L 108.804427 152.088318 
L 108.946545 151.97894 
L 109.057082 151.904883 
L 109.23473 151.800441 
L 109.345267 151.703559 
L 109.459751 151.60187 
L 109.570288 151.468767 
L 109.696615 151.361032 
L 109.807152 151.218669 
L 109.965062 151.112137 
L 110.075598 151.028638 
L 110.190083 150.918961 
L 110.300619 150.83245 
L 110.466424 150.723647 
L 110.576961 150.620713 
L 110.738818 150.510841 
L 110.849355 150.417074 
L 111.011212 150.307994 
L 111.121749 150.231826 
L 111.248076 150.121159 
L 111.358613 150.009701 
L 111.552052 149.902146 
L 111.662589 149.818378 
L 111.781021 149.720637 
L 111.891557 149.618729 
L 112.009989 149.511603 
L 112.120526 149.424365 
L 112.27054 149.31573 
L 112.381077 149.189721 
L 112.531091 149.085471 
L 112.641627 149.003047 
L 112.767955 148.894514 
L 112.878492 148.797048 
L 113.004819 148.686474 
L 113.115356 148.595169 
L 113.221945 148.488236 
L 113.332481 148.379767 
L 113.4746 148.271617 
L 113.585136 148.169664 
L 113.711464 148.059909 
L 113.822001 147.955605 
L 113.956224 147.845277 
L 114.06676 147.744968 
L 114.200983 147.638045 
L 114.31152 147.529568 
L 114.39837 147.421422 
L 114.508907 147.34098 
L 114.654973 147.232221 
L 114.76551 147.148091 
L 114.895785 147.03981 
L 115.006322 146.96095 
L 115.128702 146.849901 
L 115.239238 146.735861 
L 115.385305 146.625593 
L 115.495841 146.519888 
L 115.618221 146.40949 
L 115.728758 146.31041 
L 115.839294 146.200618 
L 115.949831 146.11533 
L 116.068263 146.011214 
L 116.1788 145.923299 
L 116.30118 145.812991 
L 116.411716 145.66782 
L 116.553835 145.560106 
L 116.664371 145.44665 
L 116.782803 145.339705 
L 116.89334 145.220215 
L 117.023615 145.110538 
L 117.134152 145.01717 
L 117.264427 144.910179 
L 117.374964 144.822972 
L 117.501292 144.713966 
L 117.611828 144.628962 
L 117.753947 144.518676 
L 117.864483 144.416574 
L 118.030288 144.310633 
L 118.140825 144.198646 
L 118.278996 144.088439 
L 118.389532 143.967617 
L 118.492174 143.859169 
L 118.60271 143.761965 
L 118.721142 143.653351 
L 118.831679 143.509783 
L 118.946163 143.405838 
L 119.0567 143.248686 
L 119.186975 143.13797 
L 119.297512 143.017731 
L 119.431735 142.907539 
L 119.542272 142.795334 
L 119.656756 142.697738 
L 119.767293 142.540559 
L 119.877829 142.432138 
L 119.988366 142.295686 
L 120.122589 142.184937 
L 120.233126 142.090156 
L 120.371296 141.980801 
L 120.481833 141.872125 
L 120.572631 141.774453 
L 120.683168 141.652201 
L 120.8016 141.547759 
L 120.912136 141.427778 
L 121.026621 141.317497 
L 121.137157 141.226822 
L 121.247694 141.11605 
L 121.358231 141.009815 
L 121.484558 140.908723 
L 121.595095 140.792128 
L 121.737213 140.684207 
L 121.84775 140.601741 
L 121.962234 140.49332 
L 122.072771 140.38087 
L 122.187255 140.27385 
L 122.297792 140.174108 
L 122.384642 140.065349 
L 122.495179 139.951523 
L 122.601768 139.842112 
L 122.712305 139.738202 
L 122.846528 139.628975 
L 122.957064 139.572135 
L 123.079444 139.465534 
L 123.189981 139.338808 
L 123.268935 139.236453 
L 123.379472 139.082131 
L 123.529486 138.971714 
L 123.640023 138.88884 
L 123.762403 138.778546 
L 123.872939 138.678804 
L 123.999267 138.572508 
L 124.109803 138.474533 
L 124.208497 138.367306 
L 124.319033 138.246387 
L 124.441413 138.135395 
L 124.55195 138.014271 
L 124.658539 137.90346 
L 124.769076 137.796626 
L 124.923037 137.686343 
L 125.033574 137.594219 
L 125.159901 137.491505 
L 125.270438 137.383846 
L 125.392818 137.278673 
L 125.503355 137.188374 
L 125.63363 137.079237 
L 125.744167 137.01077 
L 125.870494 136.901167 
L 125.981031 136.785354 
L 126.056038 136.67846 
L 126.166574 136.566675 
L 126.249477 136.45869 
L 126.360014 136.324567 
L 126.47055 136.218851 
L 126.581087 136.104589 
L 126.711362 135.994035 
L 126.821899 135.891081 
L 126.92454 135.782148 
L 127.035077 135.638617 
L 127.1693 135.532222 
L 127.279836 135.438227 
L 127.354843 135.330893 
L 127.46538 135.252294 
L 127.571969 135.149659 
L 127.682505 135.028434 
L 127.804885 134.918523 
L 127.915422 134.820551 
L 128.025959 134.712849 
L 128.136495 134.620443 
L 128.231241 134.510483 
L 128.341778 134.384758 
L 128.483896 134.279209 
L 128.594433 134.159442 
L 128.712865 134.054333 
L 128.823401 133.933027 
L 128.941834 133.824497 
L 129.05237 133.730432 
L 129.190541 133.630351 
L 129.301078 133.503908 
L 129.391876 133.398972 
L 129.502412 133.298136 
L 129.636635 133.188001 
L 129.747172 133.099594 
L 129.861656 132.990585 
L 129.972193 132.866966 
L 130.098521 132.761177 
L 130.209057 132.624688 
L 130.347228 132.515743 
L 130.457765 132.411188 
L 130.560406 132.302355 
L 130.670942 132.162404 
L 130.793322 132.059904 
L 130.903859 131.929513 
L 131.030186 131.819644 
L 131.140723 131.706024 
L 131.298633 131.598718 
L 131.409169 131.467302 
L 131.499967 131.360393 
L 131.610504 131.196418 
L 131.705249 131.10008 
L 131.815786 130.973362 
L 131.934218 130.866385 
L 132.044755 130.74245 
L 132.167135 130.634202 
L 132.277671 130.532248 
L 132.388208 130.43838 
L 132.498745 130.280103 
L 132.601386 130.178028 
L 132.711922 130.053439 
L 132.810616 129.94797 
L 132.921153 129.832781 
L 133.023794 129.725813 
L 133.13433 129.630612 
L 133.209337 129.522338 
L 133.319874 129.40088 
L 133.450149 129.294746 
L 133.560686 129.192601 
L 133.667275 129.082355 
L 133.777811 128.956562 
L 133.8844 128.861123 
L 133.994937 128.758888 
L 134.133108 128.648826 
L 134.243644 128.522411 
L 134.334442 128.414853 
L 134.444979 128.31636 
L 134.551568 128.208083 
L 134.662105 128.111046 
L 134.764746 128.003144 
L 134.871335 127.886772 
L 134.938446 127.782085 
L 135.048983 127.644132 
L 135.179258 127.539051 
L 135.289795 127.422886 
L 135.38454 127.312586 
L 135.495077 127.228532 
L 135.589823 127.129135 
L 135.700359 126.968965 
L 135.799053 126.861605 
L 135.909589 126.756302 
L 136.000387 126.652833 
L 136.110924 126.521439 
L 136.217513 126.413295 
L 136.32805 126.339172 
L 136.422795 126.228085 
L 136.533332 126.065499 
L 136.647816 125.961524 
L 136.758353 125.828921 
L 136.876785 125.718963 
L 136.987322 125.574564 
L 137.086015 125.464098 
L 137.196552 125.320415 
L 137.28735 125.209753 
L 137.397886 125.089602 
L 137.532109 124.979706 
L 137.642646 124.871054 
L 137.733444 124.761654 
L 137.843981 124.623411 
L 137.95057 124.521401 
L 138.061106 124.39865 
L 138.144009 124.289123 
L 138.254545 124.131661 
L 138.341395 124.025661 
L 138.451932 123.902191 
L 138.566416 123.796354 
L 138.676953 123.566232 
L 138.803281 123.45567 
L 138.913817 123.32812 
L 139.036197 123.217736 
L 139.146734 123.099773 
L 139.269114 122.994255 
L 139.37965 122.843117 
L 139.498082 122.73346 
L 139.608619 122.510407 
L 139.734947 122.400636 
L 139.845483 122.270816 
L 139.948124 122.164983 
L 140.058661 122.021657 
L 140.157355 121.91111 
L 140.267891 121.738269 
L 140.386323 121.630321 
L 140.49686 121.507057 
L 140.591606 121.395966 
L 140.702142 121.284329 
L 140.832418 121.175555 
L 140.942954 121.061479 
L 141.0377 120.95118 
L 141.148237 120.801501 
L 141.254825 120.692878 
L 141.365362 120.586641 
L 141.444317 120.47632 
L 141.554853 120.344436 
L 141.649599 120.234913 
L 141.760136 120.080685 
L 141.858829 119.976651 
L 141.969366 119.822399 
L 142.048321 119.714148 
L 142.158857 119.5994 
L 142.253603 119.488605 
L 142.36414 119.326304 
L 142.470728 119.223561 
L 142.581265 119.111343 
L 142.676011 119.007722 
L 142.786547 118.881986 
L 142.881293 118.771081 
L 142.99183 118.663403 
L 143.102366 118.558648 
L 143.212903 118.443052 
L 143.311596 118.337358 
L 143.422133 118.217356 
L 143.528722 118.109531 
L 143.639259 117.971017 
L 143.710318 117.861547 
L 143.820854 117.749004 
L 143.907705 117.639866 
L 144.018241 117.523752 
L 144.144569 117.418381 
L 144.255106 117.236151 
L 144.365642 117.125476 
L 144.476179 116.994105 
L 144.566977 116.884114 
L 144.677513 116.742903 
L 144.772259 116.651504 
L 144.882796 116.485523 
L 145.001228 116.382119 
L 145.111765 116.254894 
L 145.190719 116.145877 
L 145.301256 116.037522 
L 145.407845 115.931995 
L 145.518381 115.827269 
L 145.617075 115.72019 
L 145.727611 115.589892 
L 145.794723 115.491 
L 145.90526 115.35288 
L 145.99211 115.24844 
L 146.102647 115.122225 
L 146.217131 115.017214 
L 146.327668 114.89528 
L 146.382936 114.785132 
L 146.489525 114.68117 
L 146.576375 114.572172 
L 146.686912 114.485208 
L 146.789553 114.377981 
L 146.900089 114.233507 
L 147.050103 114.122956 
L 147.16064 114.023497 
L 147.267229 113.919972 
L 147.377766 113.790404 
L 147.472511 113.685481 
L 147.583048 113.5675 
L 147.685689 113.465957 
L 147.796226 113.315859 
L 147.906762 113.205859 
L 148.017299 113.075654 
L 148.123888 112.964936 
L 148.234425 112.864768 
L 148.313379 112.757508 
L 148.423916 112.609341 
L 148.514714 112.499417 
L 148.62525 112.36031 
L 148.672623 112.254883 
L 148.78316 112.123383 
L 148.893697 112.013273 
L 149.004233 111.900954 
L 149.095031 111.792076 
L 149.205568 111.651898 
L 149.268732 111.547049 
L 149.379268 111.383709 
L 149.474014 111.275703 
L 149.584551 111.154922 
L 149.687192 111.04705 
L 149.797728 110.907976 
L 149.904317 110.802599 
L 150.014854 110.674957 
L 150.085913 110.57655 
L 150.19645 110.426703 
L 150.31883 110.317906 
L 150.429366 110.199571 
L 150.520164 110.088503 
L 150.630701 109.95945 
L 150.729394 109.84893 
L 150.839931 109.681259 
L 150.950468 109.570838 
L 151.061004 109.463612 
L 151.136011 109.365568 
L 151.246548 109.220666 
L 151.301816 109.117251 
L 151.412353 108.991828 
L 151.507099 108.881248 
L 151.617635 108.76443 
L 151.740015 108.654348 
L 151.850552 108.525985 
L 151.949245 108.419961 
L 152.059782 108.264651 
L 152.154527 108.182826 
L 152.265064 108.028048 
L 152.371653 107.931086 
L 152.48219 107.76873 
L 152.565092 107.667644 
L 152.675629 107.499708 
L 152.774322 107.391998 
L 152.884859 107.250787 
L 152.975657 107.14306 
L 153.086193 107.009013 
L 153.180939 106.905194 
L 153.291476 106.745668 
L 153.350692 106.662896 
L 153.461228 106.486159 
L 153.555974 106.37513 
L 153.666511 106.201942 
L 153.745465 106.092668 
L 153.856002 105.952937 
L 153.931009 105.851245 
L 154.041546 105.684148 
L 154.140239 105.575815 
L 154.250776 105.436007 
L 154.353417 105.331458 
L 154.463954 105.222823 
L 154.531065 105.121002 
L 154.641602 104.965799 
L 154.736347 104.860791 
L 154.846884 104.72846 
L 154.902152 104.639998 
L 155.012689 104.486269 
L 155.103487 104.377556 
L 155.214024 104.233528 
L 155.308769 104.12511 
L 155.419306 104.012367 
L 155.514052 103.910065 
L 155.624588 103.778781 
L 155.74302 103.671531 
L 155.853557 103.556623 
L 155.940407 103.447383 
L 156.050944 103.325942 
L 156.153585 103.218018 
L 156.264122 103.09074 
L 156.366763 102.989704 
L 156.477299 102.867865 
L 156.595732 102.76984 
L 156.706268 102.605547 
L 156.785223 102.503733 
L 156.89576 102.350859 
L 156.966819 102.240436 
L 157.077355 102.123144 
L 157.176049 102.01725 
L 157.286586 101.794835 
L 157.405018 101.684249 
L 157.515554 101.511426 
L 157.6103 101.401801 
L 157.720837 101.265875 
L 157.81953 101.16108 
L 157.930067 101.00322 
L 158.040603 100.894872 
L 158.15114 100.739508 
L 158.249833 100.629522 
L 158.36037 100.455648 
L 158.435377 100.345379 
L 158.545914 100.196962 
L 158.613025 100.086539 
L 158.723562 99.95317 
L 158.806464 99.845119 
L 158.917001 99.731186 
L 158.995956 99.622655 
L 159.106492 99.393559 
L 159.185447 99.282908 
L 159.295984 99.171611 
L 159.386782 99.060602 
L 159.497318 98.938491 
L 159.596012 98.845346 
L 159.706548 98.722635 
L 159.781555 98.62288 
L 159.892092 98.460074 
L 159.990785 98.354234 
L 160.101322 98.138103 
L 160.176329 98.033629 
L 160.286866 97.856234 
L 160.369768 97.74553 
L 160.480305 97.548702 
L 160.598737 97.437766 
L 160.709274 97.273891 
L 160.800072 97.164917 
L 160.910608 97.006663 
L 160.981667 96.898297 
L 161.092204 96.75662 
L 161.226427 96.645615 
L 161.336964 96.4901 
L 161.423814 96.379716 
L 161.534351 96.221714 
L 161.593567 96.116292 
L 161.704103 95.947122 
L 161.787006 95.840113 
L 161.897542 95.704354 
L 162.004131 95.60017 
L 162.114668 95.45824 
L 162.154145 95.348277 
L 162.264682 95.216858 
L 162.316003 95.119736 
L 162.426539 94.921156 
L 162.533128 94.813139 
L 162.643665 94.636397 
L 162.706829 94.528573 
L 162.817365 94.375086 
L 162.923954 94.264919 
L 163.034491 94.108382 
L 163.148975 93.998863 
L 163.259512 93.847987 
L 163.330571 93.738509 
L 163.441108 93.560649 
L 163.520062 93.453784 
L 163.630599 93.291539 
L 163.709554 93.185696 
L 163.82009 93.038047 
L 163.918784 92.931508 
L 164.02932 92.817958 
L 164.108275 92.708806 
L 164.218812 92.559549 
L 164.305662 92.456195 
L 164.416199 92.258087 
L 164.530683 92.159674 
L 164.64122 92.005322 
L 164.732018 91.903448 
L 164.842554 91.727331 
L 164.941248 91.622629 
L 165.051784 91.467332 
L 165.114948 91.361723 
L 165.225485 91.166743 
L 165.343917 91.056442 
L 165.454454 90.869734 
L 165.572886 90.762812 
L 165.683422 90.607595 
L 165.754482 90.496755 
L 165.865018 90.3721 
L 165.955816 90.265892 
L 166.066353 90.099179 
L 166.133464 89.989498 
L 166.244001 89.818109 
L 166.334799 89.721626 
L 166.445336 89.518363 
L 166.528238 89.439645 
L 166.638775 89.301287 
L 166.713782 89.190586 
L 166.824318 88.994364 
L 166.923012 88.884366 
L 167.033548 88.68219 
L 167.124346 88.586605 
L 167.234883 88.436455 
L 167.317785 88.333493 
L 167.428322 88.141462 
L 167.507277 88.03192 
L 167.617813 87.797901 
L 167.708611 87.687515 
L 167.819148 87.54073 
L 167.90205 87.432848 
L 168.012587 87.282047 
L 168.115228 87.171419 
L 168.225765 87.011737 
L 168.316563 86.902739 
L 168.427099 86.753688 
L 168.490263 86.647782 
L 168.6008 86.451793 
L 168.671859 86.341438 
L 168.782396 86.192843 
L 168.861351 86.087249 
L 168.971887 85.913687 
L 169.038999 85.803713 
L 169.149535 85.593881 
L 169.248229 85.488713 
L 169.358765 85.34522 
L 169.429825 85.236975 
L 169.540361 85.085782 
L 169.619316 84.993072 
L 169.729853 84.733988 
L 169.812755 84.626915 
L 169.923292 84.467463 
L 169.994351 84.360442 
L 170.104888 84.075747 
L 170.219372 83.967371 
L 170.329909 83.818813 
L 170.444393 83.716125 
L 170.55493 83.504801 
L 170.622041 83.397635 
L 170.732578 83.191917 
L 170.811533 83.086751 
L 170.922069 82.933612 
L 170.997076 82.826741 
L 171.107613 82.666752 
L 171.186568 82.557978 
L 171.297104 82.435097 
L 171.399745 82.324223 
L 171.510282 82.135936 
L 171.608976 82.037424 
L 171.719512 81.843946 
L 171.802415 81.739152 
L 171.912951 81.569077 
L 171.96822 81.475824 
L 172.078756 81.295596 
L 172.149816 81.186364 
L 172.260352 81.029073 
L 172.35115 80.918924 
L 172.461687 80.759423 
L 172.564328 80.650721 
L 172.674865 80.4751 
L 172.730133 80.365221 
L 172.84067 80.212004 
L 172.919624 80.101115 
L 173.030161 79.91203 
L 173.124907 79.802664 
L 173.235443 79.644634 
L 173.298607 79.53562 
L 173.409144 79.377029 
L 173.476255 79.27543 
L 173.586792 79.055398 
L 173.646008 78.94756 
L 173.756545 78.710368 
L 173.839447 78.605209 
L 173.949984 78.421614 
L 174.005252 78.316962 
L 174.115789 78.060129 
L 174.186848 77.950293 
L 174.297384 77.787825 
L 174.380287 77.681253 
L 174.490824 77.538903 
L 174.557935 77.431066 
L 174.668472 77.256808 
L 174.739531 77.148782 
L 174.850068 77.018964 
L 174.921127 76.908947 
L 175.031664 76.754174 
L 175.114566 76.647665 
L 175.225103 76.491807 
L 175.327744 76.380908 
L 175.43828 76.21988 
L 175.493549 76.113024 
L 175.604085 75.928938 
L 175.702779 75.82749 
L 175.813316 75.57306 
L 175.900166 75.462338 
L 176.010702 75.190795 
L 176.097553 75.092105 
L 176.208089 74.921234 
L 176.275201 74.814314 
L 176.385737 74.645102 
L 176.452849 74.547353 
L 176.563386 74.424184 
L 176.658131 74.321812 
L 176.768668 74.120164 
L 176.859466 74.013981 
L 176.970002 73.780865 
L 177.041062 73.671952 
L 177.151598 73.515405 
L 177.230553 73.411035 
L 177.34109 73.248217 
L 177.42794 73.13858 
L 177.538477 72.967623 
L 177.633222 72.869301 
L 177.743759 72.689231 
L 177.838505 72.582679 
L 177.949041 72.414021 
L 178.063526 72.303775 
L 178.174062 72.165954 
L 178.253017 72.055949 
L 178.363554 71.851722 
L 178.42277 71.748243 
L 178.533306 71.521334 
L 178.620157 71.421083 
L 178.730693 71.268668 
L 178.778066 71.158679 
L 178.888603 70.9698 
L 178.932028 70.862093 
L 179.042564 70.678127 
L 179.117571 70.574103 
L 179.228108 70.34205 
L 179.307063 70.231192 
L 179.417599 70.000109 
L 179.476815 69.889417 
L 179.587352 69.64607 
L 179.686046 69.539389 
L 179.796582 69.333513 
L 179.875537 69.227152 
L 179.986074 69.040567 
L 180.068976 68.936375 
L 180.179513 68.793563 
L 180.246624 68.682862 
L 180.357161 68.513518 
L 180.416377 68.405874 
L 180.526914 68.23627 
L 180.629555 68.125609 
L 180.740091 67.887441 
L 180.803255 67.776655 
L 180.913792 67.605518 
L 180.996694 67.495232 
L 181.107231 67.220291 
L 181.166447 67.110931 
L 181.276984 66.889986 
L 181.348043 66.784646 
L 181.458579 66.601133 
L 181.529639 66.490154 
L 181.640175 66.312616 
L 181.707287 66.230623 
L 181.817824 66.007638 
L 181.888883 65.903258 
L 181.999419 65.69726 
L 182.066531 65.602503 
L 182.17312 65.391978 
L 182.236284 65.281115 
L 182.34682 65.053012 
L 182.413932 64.951371 
L 182.524468 64.73261 
L 182.615266 64.623377 
L 182.725803 64.439353 
L 182.804758 64.331134 
L 182.915294 64.092915 
L 182.986354 63.992452 
L 183.09689 63.844607 
L 183.13242 63.749213 
L 183.242957 63.459361 
L 183.298225 63.367461 
L 183.408762 63.16286 
L 183.46403 63.058328 
L 183.574567 62.857918 
L 183.649574 62.74958 
L 183.76011 62.51149 
L 183.811431 62.406282 
L 183.921967 62.235251 
L 183.981183 62.1242 
L 184.09172 61.968478 
L 184.174623 61.857846 
L 184.285159 61.575509 
L 184.360166 61.467585 
L 184.470703 61.310025 
L 184.54571 61.203677 
L 184.656246 61.031244 
L 184.715463 60.937067 
L 184.825999 60.781447 
L 184.873372 60.674967 
L 184.979961 60.499847 
L 185.058916 60.405195 
L 185.169452 60.232244 
L 185.276041 60.124365 
L 185.386578 59.901635 
L 185.437898 59.792254 
L 185.548435 59.619648 
L 185.607651 59.528744 
L 185.718188 59.33768 
L 185.773456 59.226633 
L 185.883993 59.013778 
L 185.966895 58.919336 
L 186.077432 58.694828 
L 186.148491 58.589102 
L 186.259028 58.333931 
L 186.34193 58.226425 
L 186.452467 57.983911 
L 186.527474 57.875616 
L 186.63801 57.676512 
L 186.724861 57.569637 
L 186.835397 57.3658 
L 186.910404 57.255881 
L 187.020941 57.099239 
L 187.088053 56.988686 
L 187.198589 56.826149 
L 187.277544 56.718672 
L 187.388081 56.545336 
L 187.494669 56.434978 
L 187.605206 56.239892 
L 187.672318 56.129639 
L 187.782854 55.935973 
L 187.8776 55.825377 
L 187.988137 55.662032 
L 188.071039 55.572631 
L 188.181576 55.362941 
L 188.248687 55.27737 
L 188.359224 55.085837 
L 188.390806 55.019332 
L 188.497395 54.780016 
L 188.580297 54.675387 
L 188.690834 54.522786 
L 188.761893 54.418888 
L 188.87243 54.200973 
L 188.927698 54.118827 
L 189.038235 53.84504 
L 189.125085 53.739092 
L 189.235621 53.572184 
L 189.286942 53.482174 
L 189.397479 53.304438 
L 189.496172 53.194355 
L 189.606709 53.023081 
L 189.669873 52.925063 
L 189.780409 52.783185 
L 189.839625 52.672129 
L 189.950162 52.44879 
L 190.04096 52.34374 
L 190.151496 52.210983 
L 190.218608 52.104354 
L 190.329145 51.957835 
L 190.404152 51.851678 
L 190.514688 51.652446 
L 190.562061 51.563842 
L 190.672598 51.348072 
L 190.759448 51.23848 
L 190.869985 51.053975 
L 190.933148 50.953267 
L 191.043685 50.708229 
L 191.08711 50.616976 
L 191.197647 50.43072 
L 191.264758 50.319902 
L 191.375295 50.122065 
L 191.430563 50.01897 
L 191.5411 49.838439 
L 191.616107 49.736411 
L 191.726644 49.499811 
L 191.789807 49.39301 
L 191.900344 49.13751 
L 191.971403 49.038151 
L 192.08194 48.843554 
L 192.137208 48.737777 
L 192.247745 48.544145 
L 192.299065 48.435286 
L 192.409602 48.282446 
L 192.456975 48.187294 
L 192.567512 48.027507 
L 192.630675 47.923055 
L 192.741212 47.742845 
L 192.804376 47.633396 
L 192.914912 47.479686 
L 192.985972 47.374609 
L 193.096508 47.208867 
L 193.175463 47.100649 
L 193.286 46.883811 
L 193.33732 46.793187 
L 193.447857 46.571507 
L 193.511021 46.465164 
L 193.621557 46.196668 
L 193.672878 46.093607 
L 193.783415 45.877962 
L 193.854474 45.78242 
L 193.96501 45.563985 
L 194.028174 45.459166 
L 194.138711 45.237167 
L 194.193979 45.132101 
L 194.304516 44.875282 
L 194.359784 44.767182 
L 194.470321 44.598311 
L 194.529537 44.487232 
L 194.640073 44.278454 
L 194.719028 44.172637 
L 194.829565 43.949849 
L 194.884833 43.863508 
L 194.99537 43.655466 
L 195.050638 43.568958 
L 195.161175 43.324327 
L 195.24013 43.220554 
L 195.350666 42.929217 
L 195.417778 42.821997 
L 195.528314 42.606808 
L 195.599374 42.499816 
L 195.70991 42.271913 
L 195.765179 42.191341 
L 195.875715 41.994312 
L 195.95467 41.889499 
L 196.065207 41.721336 
L 196.136266 41.611686 
L 196.246802 41.414212 
L 196.341548 41.324716 
L 196.452085 41.092926 
L 196.519196 40.988013 
L 196.629733 40.816519 
L 196.685001 40.710705 
L 196.795538 40.450244 
L 196.854754 40.363875 
L 196.965291 40.101092 
L 197.028454 40.001155 
L 197.138991 39.728165 
L 197.178468 39.637551 
L 197.289005 39.496526 
L 197.340326 39.386507 
L 197.450862 39.16979 
L 197.517974 39.073417 
L 197.62851 38.861976 
L 197.691674 38.75167 
L 197.802211 38.53172 
L 197.87327 38.423838 
L 197.983807 38.193118 
L 198.070657 38.083112 
L 198.181194 37.857267 
L 198.208828 37.763214 
L 198.319364 37.544249 
L 198.386476 37.436288 
L 198.497013 37.286707 
L 198.579915 37.178906 
L 198.690452 36.955511 
L 198.737825 36.850559 
L 198.848361 36.613436 
L 198.931264 36.510605 
L 199.0418 36.312187 
L 199.136546 36.203533 
L 199.247083 35.961705 
L 199.326037 35.854614 
L 199.436574 35.645183 
L 199.472104 35.534214 
L 199.58264 35.338454 
L 199.61817 35.232631 
L 199.728707 34.965405 
L 199.799766 34.873607 
L 199.910302 34.628013 
L 199.977414 34.520892 
L 200.087951 34.308114 
L 200.170853 34.200755 
L 200.28139 34.014758 
L 200.328763 33.923946 
L 200.439299 33.746011 
L 200.534045 33.637237 
L 200.644582 33.382733 
L 200.755118 33.272799 
L 200.865655 32.990401 
L 200.916975 32.88341 
L 201.027512 32.616644 
L 201.11831 32.508056 
L 201.228847 32.287166 
L 201.284115 32.186215 
L 201.394652 31.977135 
L 201.453868 31.86667 
L 201.564404 31.642178 
L 201.627568 31.532839 
L 201.738105 31.362853 
L 201.793373 31.253252 
L 201.90391 31.074971 
L 201.974969 30.970371 
L 202.085506 30.750813 
L 202.136826 30.642786 
L 202.247363 30.457504 
L 202.314474 30.34886 
L 202.425011 30.110103 
L 202.492122 29.999729 
L 202.602659 29.775297 
L 202.673718 29.667534 
L 202.784255 29.526197 
L 202.871105 29.416313 
L 202.981642 29.207639 
L 203.03691 29.099763 
L 203.147447 28.881665 
L 203.206663 28.796741 
L 203.3172 28.576743 
L 203.376416 28.466731 
L 203.486952 28.225757 
L 203.561959 28.11627 
L 203.672496 27.936365 
L 203.747503 27.835488 
L 203.858039 27.627498 
L 203.948837 27.516898 
L 204.059374 27.332086 
L 204.11859 27.226565 
L 204.229127 27.023363 
L 204.304134 26.919731 
L 204.41467 26.751915 
L 204.477834 26.643197 
L 204.580475 26.394644 
L 204.667326 26.29061 
L 204.777862 26.032998 
L 204.833131 25.922335 
L 204.943667 25.739925 
L 204.987092 25.635296 
L 205.097629 25.428844 
L 205.208166 25.323029 
L 205.318702 25.122373 
L 205.4095 25.012498 
L 205.520037 24.82002 
L 205.571357 24.728707 
L 205.681894 24.553864 
L 205.749006 24.4499 
L 205.859542 24.333666 
L 205.902967 24.239267 
L 206.013504 24.098139 
L 206.060877 24.007171 
L 206.171413 23.8255 
L 206.238525 23.719048 
L 206.349062 23.509727 
L 206.443807 23.400114 
L 206.554344 23.20261 
L 206.645142 23.09202 
L 206.755678 22.959284 
L 206.82279 22.849581 
L 206.933327 22.662916 
L 206.992543 22.559364 
L 207.103079 22.354491 
L 207.174139 22.245261 
L 207.284675 22.037006 
L 207.343891 21.927833 
L 207.454428 21.783779 
L 207.553121 21.673732 
L 207.663658 21.506939 
L 207.762351 21.401336 
L 207.872888 21.246796 
L 207.955791 21.139507 
L 208.066327 20.989588 
L 208.1137 20.880211 
L 208.224237 20.745484 
L 208.27161 20.649414 
L 208.382146 20.467049 
L 208.449258 20.365081 
L 208.559794 20.155187 
L 208.642697 20.051928 
L 208.753233 19.846501 
L 208.816397 19.736227 
L 208.926934 19.586732 
L 208.982202 19.476214 
L 209.092739 19.339069 
L 209.163798 19.229683 
L 209.274335 19.022152 
L 209.333551 18.933093 
L 209.444087 18.752465 
L 209.52699 18.648915 
L 209.637527 18.459964 
L 209.716481 18.359859 
L 209.827018 18.157934 
L 209.925711 18.051161 
L 210.036248 17.857294 
L 210.123098 17.755627 
L 210.233635 17.615173 
L 210.300746 17.506615 
L 210.411283 17.338407 
L 210.462604 17.236889 
L 210.57314 17.102461 
L 210.65999 16.992013 
L 210.770527 16.818733 
L 210.857377 16.709389 
L 210.967914 16.541684 
L 211.035025 16.431704 
L 211.145562 16.315871 
L 211.212674 16.2205 
L 211.32321 16.067193 
L 211.362688 15.969768 
L 211.473224 15.811529 
L 211.564022 15.705051 
L 211.674559 15.56011 
L 211.773252 15.450917 
L 211.883789 15.332794 
L 211.982482 15.222485 
L 212.093019 15.040779 
L 212.152235 14.94993 
L 212.262772 14.832332 
L 212.35357 14.722975 
L 212.464106 14.62315 
L 212.547009 14.5161 
L 212.657545 14.416238 
L 212.728605 14.308536 
L 212.827298 14.174781 
L 212.949678 14.063745 
L 213.060215 13.929953 
L 213.162856 13.819305 
L 213.273392 13.702202 
L 213.423406 13.594166 
L 213.533943 13.495218 
L 213.683957 13.385039 
L 213.794494 13.253222 
L 213.912926 13.142634 
L 214.023462 13.048683 
L 214.14979 12.939393 
L 214.260327 12.871079 
L 214.347177 12.762116 
L 214.457713 12.633885 
L 214.615623 12.522884 
L 214.714316 12.470071 
L 214.872226 12.362351 
L 214.982762 12.285978 
L 215.302529 12.17887 
L 215.413066 12.126414 
L 215.689407 12.015522 
L 215.799944 11.992252 
L 216.06839 11.88146 
L 216.167084 11.823245 
L 216.55791 11.721262 
L 216.668446 11.626226 
L 217.011899 11.524253 
L 217.094802 11.496656 
L 217.572478 11.388459 
L 217.65538 11.367492 
L 218.223855 11.256657 
L 218.306757 11.248643 
L 219.40028 11.142805 
L 219.510817 11.07761 
L 219.625301 11.002416 
L 219.625301 11.002007 
L 219.625301 2.209988 
L 219.625301 2.209988 
" clip-path="url(#p2e730c0e6c)" style="fill: none; stroke-dasharray: 7.5,1.5; stroke-dashoffset: 0; stroke: #ac7726; stroke-width: 1.5"/>
   </g>
   <g id="patch_3">
    <path d="M 43.78125 186.84327 
L 43.78125 10.999219 
" style="fill: none; stroke: #000000; stroke-width: 0.8; stroke-linejoin: miter; stroke-linecap: square"/>
   </g>
   <g id="patch_4">
    <path d="M 219.625301 186.84327 
L 219.625301 10.999219 
" style="fill: none; stroke: #000000; stroke-width: 0.8; stroke-linejoin: miter; stroke-linecap: square"/>
   </g>
   <g id="patch_5">
    <path d="M 43.78125 186.84327 
L 219.625301 186.84327 
" style="fill: none; stroke: #000000; stroke-width: 0.8; stroke-linejoin: miter; stroke-linecap: square"/>
   </g>
   <g id="patch_6">
    <path d="M 43.78125 10.999219 
L 219.625301 10.999219 
" style="fill: none; stroke: #000000; stroke-width: 0.8; stroke-linejoin: miter; stroke-linecap: square"/>
   </g>
   <g id="legend_1">
    <g id="patch_7">
     <path d="M 50.78125 48.355469 
L 127.757812 48.355469 
Q 129.757812 48.355469 129.757812 46.355469 
L 129.757812 17.999219 
Q 129.757812 15.999219 127.757812 15.999219 
L 50.78125 15.999219 
Q 48.78125 15.999219 48.78125 17.999219 
L 48.78125 46.355469 
Q 48.78125 48.355469 50.78125 48.355469 
z
" style="fill: #ffffff; opacity: 0.8; stroke: #cccccc; stroke-linejoin: miter"/>
    </g>
    <g id="line2d_15">
     <path d="M 52.78125 24.097656 
L 62.78125 24.097656 
L 62.78125 24.097656 
L 72.78125 24.097656 
L 72.78125 24.097656 
" style="fill: none; stroke: #67c7d5; stroke-width: 1.5; stroke-linecap: square"/>
    </g>
    <g id="text_15">
     <!-- ATL09 -->
     <g transform="translate(80.78125 27.597656) scale(0.1 -0.1)">
      <defs>
       <path id="DejaVuSans-41" d="M 2188 4044 
L 1331 1722 
L 3047 1722 
L 2188 4044 
z
M 1831 4666 
L 2547 4666 
L 4325 0 
L 3669 0 
L 3244 1197 
L 1141 1197 
L 716 0 
L 50 0 
L 1831 4666 
z
" transform="scale(0.015625)"/>
       <path id="DejaVuSans-54" d="M -19 4666 
L 3928 4666 
L 3928 4134 
L 2272 4134 
L 2272 0 
L 1638 0 
L 1638 4134 
L -19 4134 
L -19 4666 
z
" transform="scale(0.015625)"/>
       <path id="DejaVuSans-4c" d="M 628 4666 
L 1259 4666 
L 1259 531 
L 3531 531 
L 3531 0 
L 628 0 
L 628 4666 
z
" transform="scale(0.015625)"/>
       <path id="DejaVuSans-39" d="M 703 97 
L 703 672 
Q 941 559 1184 500 
Q 1428 441 1663 441 
Q 2288 441 2617 861 
Q 2947 1281 2994 2138 
Q 2813 1869 2534 1725 
Q 2256 1581 1919 1581 
Q 1219 1581 811 2004 
Q 403 2428 403 3163 
Q 403 3881 828 4315 
Q 1253 4750 1959 4750 
Q 2769 4750 3195 4129 
Q 3622 3509 3622 2328 
Q 3622 1225 3098 567 
Q 2575 -91 1691 -91 
Q 1453 -91 1209 -44 
Q 966 3 703 97 
z
M 1959 2075 
Q 2384 2075 2632 2365 
Q 2881 2656 2881 3163 
Q 2881 3666 2632 3958 
Q 2384 4250 1959 4250 
Q 1534 4250 1286 3958 
Q 1038 3666 1038 3163 
Q 1038 2656 1286 2365 
Q 1534 2075 1959 2075 
z
" transform="scale(0.015625)"/>
      </defs>
      <use xlink:href="#DejaVuSans-41"/>
      <use xlink:href="#DejaVuSans-54" transform="translate(60.658203 0)"/>
      <use xlink:href="#DejaVuSans-4c" transform="translate(121.742188 0)"/>
      <use xlink:href="#DejaVuSans-30" transform="translate(177.455078 0)"/>
      <use xlink:href="#DejaVuSans-39" transform="translate(241.078125 0)"/>
     </g>
    </g>
    <g id="line2d_16">
     <path d="M 52.78125 38.775781 
L 62.78125 38.775781 
L 62.78125 38.775781 
L 72.78125 38.775781 
L 72.78125 38.775781 
" style="fill: none; stroke-dasharray: 7.5,1.5; stroke-dashoffset: 0; stroke: #ac7726; stroke-width: 1.5"/>
    </g>
    <g id="text_16">
     <!-- Cloudnet -->
     <g transform="translate(80.78125 42.275781) scale(0.1 -0.1)">
      <defs>
       <path id="DejaVuSans-6c" d="M 603 4863 
L 1178 4863 
L 1178 0 
L 603 0 
L 603 4863 
z
" transform="scale(0.015625)"/>
       <path id="DejaVuSans-6f" d="M 1959 3097 
Q 1497 3097 1228 2736 
Q 959 2375 959 1747 
Q 959 1119 1226 758 
Q 1494 397 1959 397 
Q 2419 397 2687 759 
Q 2956 1122 2956 1747 
Q 2956 2369 2687 2733 
Q 2419 3097 1959 3097 
z
M 1959 3584 
Q 2709 3584 3137 3096 
Q 3566 2609 3566 1747 
Q 3566 888 3137 398 
Q 2709 -91 1959 -91 
Q 1206 -91 779 398 
Q 353 888 353 1747 
Q 353 2609 779 3096 
Q 1206 3584 1959 3584 
z
" transform="scale(0.015625)"/>
       <path id="DejaVuSans-75" d="M 544 1381 
L 544 3500 
L 1119 3500 
L 1119 1403 
Q 1119 906 1312 657 
Q 1506 409 1894 409 
Q 2359 409 2629 706 
Q 2900 1003 2900 1516 
L 2900 3500 
L 3475 3500 
L 3475 0 
L 2900 0 
L 2900 538 
Q 2691 219 2414 64 
Q 2138 -91 1772 -91 
Q 1169 -91 856 284 
Q 544 659 544 1381 
z
M 1991 3584 
L 1991 3584 
z
" transform="scale(0.015625)"/>
       <path id="DejaVuSans-64" d="M 2906 2969 
L 2906 4863 
L 3481 4863 
L 3481 0 
L 2906 0 
L 2906 525 
Q 2725 213 2448 61 
Q 2172 -91 1784 -91 
Q 1150 -91 751 415 
Q 353 922 353 1747 
Q 353 2572 751 3078 
Q 1150 3584 1784 3584 
Q 2172 3584 2448 3432 
Q 2725 3281 2906 2969 
z
M 947 1747 
Q 947 1113 1208 752 
Q 1469 391 1925 391 
Q 2381 391 2643 752 
Q 2906 1113 2906 1747 
Q 2906 2381 2643 2742 
Q 2381 3103 1925 3103 
Q 1469 3103 1208 2742 
Q 947 2381 947 1747 
z
" transform="scale(0.015625)"/>
       <path id="DejaVuSans-6e" d="M 3513 2113 
L 3513 0 
L 2938 0 
L 2938 2094 
Q 2938 2591 2744 2837 
Q 2550 3084 2163 3084 
Q 1697 3084 1428 2787 
Q 1159 2491 1159 1978 
L 1159 0 
L 581 0 
L 581 3500 
L 1159 3500 
L 1159 2956 
Q 1366 3272 1645 3428 
Q 1925 3584 2291 3584 
Q 2894 3584 3203 3211 
Q 3513 2838 3513 2113 
z
" transform="scale(0.015625)"/>
       <path id="DejaVuSans-65" d="M 3597 1894 
L 3597 1613 
L 953 1613 
Q 991 1019 1311 708 
Q 1631 397 2203 397 
Q 2534 397 2845 478 
Q 3156 559 3463 722 
L 3463 178 
Q 3153 47 2828 -22 
Q 2503 -91 2169 -91 
Q 1331 -91 842 396 
Q 353 884 353 1716 
Q 353 2575 817 3079 
Q 1281 3584 2069 3584 
Q 2775 3584 3186 3129 
Q 3597 2675 3597 1894 
z
M 3022 2063 
Q 3016 2534 2758 2815 
Q 2500 3097 2075 3097 
Q 1594 3097 1305 2825 
Q 1016 2553 972 2059 
L 3022 2063 
z
" transform="scale(0.015625)"/>
       <path id="DejaVuSans-74" d="M 1172 4494 
L 1172 3500 
L 2356 3500 
L 2356 3053 
L 1172 3053 
L 1172 1153 
Q 1172 725 1289 603 
Q 1406 481 1766 481 
L 2356 481 
L 2356 0 
L 1766 0 
Q 1100 0 847 248 
Q 594 497 594 1153 
L 594 3053 
L 172 3053 
L 172 3500 
L 594 3500 
L 594 4494 
L 1172 4494 
z
" transform="scale(0.015625)"/>
      </defs>
      <use xlink:href="#DejaVuSans-43"/>
      <use xlink:href="#DejaVuSans-6c" transform="translate(69.824219 0)"/>
      <use xlink:href="#DejaVuSans-6f" transform="translate(97.607422 0)"/>
      <use xlink:href="#DejaVuSans-75" transform="translate(158.789062 0)"/>
      <use xlink:href="#DejaVuSans-64" transform="translate(222.167969 0)"/>
      <use xlink:href="#DejaVuSans-6e" transform="translate(285.644531 0)"/>
      <use xlink:href="#DejaVuSans-65" transform="translate(349.023438 0)"/>
      <use xlink:href="#DejaVuSans-74" transform="translate(410.546875 0)"/>
     </g>
    </g>
   </g>
  </g>
 </g>
 <defs>
  <clipPath id="p2e730c0e6c">
   <rect x="43.78125" y="10.999219" width="175.844051" height="175.844051"/>
  </clipPath>
 </defs>
</svg>
